%
M48
M72
T01C0.01400
T02C0.02362
T03C0.03200
T04C0.04000
T05C0.04400
T06C0.04700
T07C0.11811
%
T01
X180000Y298627
X183000Y296627
X186000Y298627
X188000Y301627
X186000Y304627
X190000Y304627
X192000Y299627
X189000Y296627
X186000Y294627
X183000Y292627
X180000Y294627
X180000Y290627
X183000Y288627
X186000Y290627
X189000Y292627
X192000Y294627
X195000Y292627
X192000Y290627
X195000Y288627
X192000Y286627
X189000Y288627
X186000Y286627
X180000Y286627
X183000Y301627
X205000Y300816
X232000Y300627
X243000Y294627
X245000Y297627
X247000Y294627
X249000Y297627
X251000Y294627
X249000Y291627
X247000Y288627
X245000Y291627
X243000Y288627
X245000Y285627
X247000Y282627
X249000Y285627
X251000Y288627
X253000Y291627
X255000Y294627
X257000Y291627
X255000Y288627
X253000Y285627
X251000Y282627
X257000Y285627
X207000Y269627
T02
X45000Y92627
X50000Y112627
X45000Y132627
X45000Y152627
X70000Y172627
X45000Y192627
X45000Y212627
X70000Y215127
X77500Y205127
X87500Y250127
X102500Y250127
X110000Y262627
X125000Y252627
X127500Y282627
X102500Y287627
X75000Y267627
X60000Y277627
X50000Y277627
X62500Y250127
X35000Y307627
X47500Y320127
X45000Y332627
X30000Y327627
X102500Y327627
X130000Y337627
X175000Y340127
X210000Y302627
X231000Y307627
X260000Y297627
X267000Y298127
X280000Y315127
X290000Y337627
X322500Y295127
X302500Y265127
X290000Y257627
X280000Y267627
X270000Y267627
X267000Y276627
X270000Y257627
X270000Y247627
X255000Y247627
X250000Y242627
X247500Y252627
X242500Y257627
X235000Y250127
X225000Y245127
X240000Y230127
X242500Y205127
X220000Y197627
X205000Y202627
X200000Y197627
X172500Y225127
X192500Y232627
X188000Y253627
X180000Y261627
X174000Y273627
X174000Y285627
X206000Y279627
X230000Y282627
X280000Y230127
X282500Y210127
X267500Y211627
X225000Y167627
X227500Y127627
X227500Y107627
X142500Y65127
X132500Y75127
X105000Y77627
X80000Y82627
X100000Y102627
X125000Y102627
X132500Y110127
X125000Y117627
X115000Y127627
X115000Y137627
X115000Y147627
X130000Y147627
X140000Y157627
X130000Y172627
X120000Y162627
X127500Y190127
X137500Y197627
X147500Y225127
X135000Y127627
X145000Y122627
X70000Y47627
X290000Y112627
X310000Y122627
X305000Y142627
X302500Y210127
X317500Y215127
X380000Y272627
X360000Y327627
X390000Y332627
T03
X85000Y177627
X85000Y187627
X85000Y197627
X85000Y207627
X115000Y207627
X115000Y197627
X115000Y187627
X115000Y177627
X350000Y342627
X380000Y342627
T04
X232500Y327127
X232500Y347127
X311800Y340127
X322500Y340127
X333200Y340127
X382500Y262627
X382500Y252627
X382500Y242627
X365000Y122627
X365000Y112627
X365000Y102627
X365000Y82627
X365000Y72627
X365000Y62627
X365000Y52627
X320500Y62627
X319500Y72627
X319500Y52627
X249500Y57627
X250500Y67627
X249500Y77627
X250500Y87627
X249500Y97627
X250500Y107627
X249500Y117627
X250500Y127627
X249500Y137627
X250500Y147627
X249500Y157627
X250500Y167627
X235500Y162627
X234500Y172627
X235500Y182627
X215000Y183127
X205000Y182127
X195000Y183127
X185000Y182127
X175500Y182627
X174500Y172627
X175500Y162627
X174500Y152627
X175500Y142627
X174500Y132627
X175500Y122627
X174500Y112627
X175500Y102627
X174500Y92627
X175500Y82627
X174500Y72627
X175500Y62627
X174500Y52627
X159500Y82627
X160500Y92627
X159500Y102627
X160500Y112627
X159500Y122627
X160500Y132627
X159500Y142627
X160500Y152627
X159500Y162627
X160500Y172627
X159500Y182627
X160500Y192627
X234500Y152627
X235500Y142627
X234500Y132627
X235500Y122627
X234500Y112627
X235500Y102627
X234500Y92627
X235500Y82627
X234500Y72627
X235500Y62627
X234500Y52627
X135700Y60127
X125000Y60127
X114300Y60127
X90500Y52627
X89500Y62627
X90500Y72627
X89500Y82627
X90500Y92627
T05
X335000Y237627
X335000Y277627
T06
X27500Y52627
X27500Y72627
X27500Y92627
X27500Y112627
X27500Y132627
X27500Y152627
X27500Y172627
X27500Y192627
X27500Y212627
X27500Y232627
X27500Y252627
X27500Y272627
X27500Y297627
X27500Y317627
X27500Y337627
X145000Y335127
X165000Y335127
X380000Y217627
X380000Y197627
X295000Y70127
X275000Y70127
T07
X65000Y102627
X205000Y72627
X260000Y187627
X365000Y152627
X342500Y57627
X255000Y322627
X117500Y335127
M30
