G75*
%MOIN*%
%OFA0B0*%
%FSLAX25Y25*%
%IPPOS*%
%LPD*%
%AMOC8*
5,1,8,0,0,1.08239X$1,22.5*
%
%ADD10C,0.00000*%
%ADD11C,0.07050*%
%ADD12R,0.06299X0.07087*%
%ADD13R,0.07087X0.06299*%
%ADD14C,0.10000*%
%ADD15OC8,0.10000*%
%ADD16C,0.06600*%
%ADD17OC8,0.06800*%
%ADD18C,0.07400*%
%ADD19R,0.07400X0.07400*%
%ADD20C,0.06000*%
%ADD21R,0.07098X0.06299*%
%ADD22R,0.06299X0.07098*%
%ADD23R,0.06000X0.13386*%
%ADD24OC8,0.05200*%
%ADD25R,0.12400X0.06100*%
%ADD26C,0.04000*%
%ADD27R,0.03562X0.03562*%
%ADD28C,0.02500*%
%ADD29C,0.03562*%
%ADD30C,0.02400*%
%ADD31C,0.02600*%
%ADD32C,0.05000*%
%ADD33C,0.02000*%
%ADD34C,0.01000*%
%ADD35C,0.03200*%
D10*
X0005000Y0037627D02*
X0005000Y0357588D01*
X0403701Y0357588D01*
X0403701Y0037627D01*
X0005000Y0037627D01*
X0059094Y0102627D02*
X0059096Y0102780D01*
X0059102Y0102934D01*
X0059112Y0103087D01*
X0059126Y0103239D01*
X0059144Y0103392D01*
X0059166Y0103543D01*
X0059191Y0103694D01*
X0059221Y0103845D01*
X0059255Y0103995D01*
X0059292Y0104143D01*
X0059333Y0104291D01*
X0059378Y0104437D01*
X0059427Y0104583D01*
X0059480Y0104727D01*
X0059536Y0104869D01*
X0059596Y0105010D01*
X0059660Y0105150D01*
X0059727Y0105288D01*
X0059798Y0105424D01*
X0059873Y0105558D01*
X0059950Y0105690D01*
X0060032Y0105820D01*
X0060116Y0105948D01*
X0060204Y0106074D01*
X0060295Y0106197D01*
X0060389Y0106318D01*
X0060487Y0106436D01*
X0060587Y0106552D01*
X0060691Y0106665D01*
X0060797Y0106776D01*
X0060906Y0106884D01*
X0061018Y0106989D01*
X0061132Y0107090D01*
X0061250Y0107189D01*
X0061369Y0107285D01*
X0061491Y0107378D01*
X0061616Y0107467D01*
X0061743Y0107554D01*
X0061872Y0107636D01*
X0062003Y0107716D01*
X0062136Y0107792D01*
X0062271Y0107865D01*
X0062408Y0107934D01*
X0062547Y0107999D01*
X0062687Y0108061D01*
X0062829Y0108119D01*
X0062972Y0108174D01*
X0063117Y0108225D01*
X0063263Y0108272D01*
X0063410Y0108315D01*
X0063558Y0108354D01*
X0063707Y0108390D01*
X0063857Y0108421D01*
X0064008Y0108449D01*
X0064159Y0108473D01*
X0064312Y0108493D01*
X0064464Y0108509D01*
X0064617Y0108521D01*
X0064770Y0108529D01*
X0064923Y0108533D01*
X0065077Y0108533D01*
X0065230Y0108529D01*
X0065383Y0108521D01*
X0065536Y0108509D01*
X0065688Y0108493D01*
X0065841Y0108473D01*
X0065992Y0108449D01*
X0066143Y0108421D01*
X0066293Y0108390D01*
X0066442Y0108354D01*
X0066590Y0108315D01*
X0066737Y0108272D01*
X0066883Y0108225D01*
X0067028Y0108174D01*
X0067171Y0108119D01*
X0067313Y0108061D01*
X0067453Y0107999D01*
X0067592Y0107934D01*
X0067729Y0107865D01*
X0067864Y0107792D01*
X0067997Y0107716D01*
X0068128Y0107636D01*
X0068257Y0107554D01*
X0068384Y0107467D01*
X0068509Y0107378D01*
X0068631Y0107285D01*
X0068750Y0107189D01*
X0068868Y0107090D01*
X0068982Y0106989D01*
X0069094Y0106884D01*
X0069203Y0106776D01*
X0069309Y0106665D01*
X0069413Y0106552D01*
X0069513Y0106436D01*
X0069611Y0106318D01*
X0069705Y0106197D01*
X0069796Y0106074D01*
X0069884Y0105948D01*
X0069968Y0105820D01*
X0070050Y0105690D01*
X0070127Y0105558D01*
X0070202Y0105424D01*
X0070273Y0105288D01*
X0070340Y0105150D01*
X0070404Y0105010D01*
X0070464Y0104869D01*
X0070520Y0104727D01*
X0070573Y0104583D01*
X0070622Y0104437D01*
X0070667Y0104291D01*
X0070708Y0104143D01*
X0070745Y0103995D01*
X0070779Y0103845D01*
X0070809Y0103694D01*
X0070834Y0103543D01*
X0070856Y0103392D01*
X0070874Y0103239D01*
X0070888Y0103087D01*
X0070898Y0102934D01*
X0070904Y0102780D01*
X0070906Y0102627D01*
X0070904Y0102474D01*
X0070898Y0102320D01*
X0070888Y0102167D01*
X0070874Y0102015D01*
X0070856Y0101862D01*
X0070834Y0101711D01*
X0070809Y0101560D01*
X0070779Y0101409D01*
X0070745Y0101259D01*
X0070708Y0101111D01*
X0070667Y0100963D01*
X0070622Y0100817D01*
X0070573Y0100671D01*
X0070520Y0100527D01*
X0070464Y0100385D01*
X0070404Y0100244D01*
X0070340Y0100104D01*
X0070273Y0099966D01*
X0070202Y0099830D01*
X0070127Y0099696D01*
X0070050Y0099564D01*
X0069968Y0099434D01*
X0069884Y0099306D01*
X0069796Y0099180D01*
X0069705Y0099057D01*
X0069611Y0098936D01*
X0069513Y0098818D01*
X0069413Y0098702D01*
X0069309Y0098589D01*
X0069203Y0098478D01*
X0069094Y0098370D01*
X0068982Y0098265D01*
X0068868Y0098164D01*
X0068750Y0098065D01*
X0068631Y0097969D01*
X0068509Y0097876D01*
X0068384Y0097787D01*
X0068257Y0097700D01*
X0068128Y0097618D01*
X0067997Y0097538D01*
X0067864Y0097462D01*
X0067729Y0097389D01*
X0067592Y0097320D01*
X0067453Y0097255D01*
X0067313Y0097193D01*
X0067171Y0097135D01*
X0067028Y0097080D01*
X0066883Y0097029D01*
X0066737Y0096982D01*
X0066590Y0096939D01*
X0066442Y0096900D01*
X0066293Y0096864D01*
X0066143Y0096833D01*
X0065992Y0096805D01*
X0065841Y0096781D01*
X0065688Y0096761D01*
X0065536Y0096745D01*
X0065383Y0096733D01*
X0065230Y0096725D01*
X0065077Y0096721D01*
X0064923Y0096721D01*
X0064770Y0096725D01*
X0064617Y0096733D01*
X0064464Y0096745D01*
X0064312Y0096761D01*
X0064159Y0096781D01*
X0064008Y0096805D01*
X0063857Y0096833D01*
X0063707Y0096864D01*
X0063558Y0096900D01*
X0063410Y0096939D01*
X0063263Y0096982D01*
X0063117Y0097029D01*
X0062972Y0097080D01*
X0062829Y0097135D01*
X0062687Y0097193D01*
X0062547Y0097255D01*
X0062408Y0097320D01*
X0062271Y0097389D01*
X0062136Y0097462D01*
X0062003Y0097538D01*
X0061872Y0097618D01*
X0061743Y0097700D01*
X0061616Y0097787D01*
X0061491Y0097876D01*
X0061369Y0097969D01*
X0061250Y0098065D01*
X0061132Y0098164D01*
X0061018Y0098265D01*
X0060906Y0098370D01*
X0060797Y0098478D01*
X0060691Y0098589D01*
X0060587Y0098702D01*
X0060487Y0098818D01*
X0060389Y0098936D01*
X0060295Y0099057D01*
X0060204Y0099180D01*
X0060116Y0099306D01*
X0060032Y0099434D01*
X0059950Y0099564D01*
X0059873Y0099696D01*
X0059798Y0099830D01*
X0059727Y0099966D01*
X0059660Y0100104D01*
X0059596Y0100244D01*
X0059536Y0100385D01*
X0059480Y0100527D01*
X0059427Y0100671D01*
X0059378Y0100817D01*
X0059333Y0100963D01*
X0059292Y0101111D01*
X0059255Y0101259D01*
X0059221Y0101409D01*
X0059191Y0101560D01*
X0059166Y0101711D01*
X0059144Y0101862D01*
X0059126Y0102015D01*
X0059112Y0102167D01*
X0059102Y0102320D01*
X0059096Y0102474D01*
X0059094Y0102627D01*
X0199094Y0072627D02*
X0199096Y0072780D01*
X0199102Y0072934D01*
X0199112Y0073087D01*
X0199126Y0073239D01*
X0199144Y0073392D01*
X0199166Y0073543D01*
X0199191Y0073694D01*
X0199221Y0073845D01*
X0199255Y0073995D01*
X0199292Y0074143D01*
X0199333Y0074291D01*
X0199378Y0074437D01*
X0199427Y0074583D01*
X0199480Y0074727D01*
X0199536Y0074869D01*
X0199596Y0075010D01*
X0199660Y0075150D01*
X0199727Y0075288D01*
X0199798Y0075424D01*
X0199873Y0075558D01*
X0199950Y0075690D01*
X0200032Y0075820D01*
X0200116Y0075948D01*
X0200204Y0076074D01*
X0200295Y0076197D01*
X0200389Y0076318D01*
X0200487Y0076436D01*
X0200587Y0076552D01*
X0200691Y0076665D01*
X0200797Y0076776D01*
X0200906Y0076884D01*
X0201018Y0076989D01*
X0201132Y0077090D01*
X0201250Y0077189D01*
X0201369Y0077285D01*
X0201491Y0077378D01*
X0201616Y0077467D01*
X0201743Y0077554D01*
X0201872Y0077636D01*
X0202003Y0077716D01*
X0202136Y0077792D01*
X0202271Y0077865D01*
X0202408Y0077934D01*
X0202547Y0077999D01*
X0202687Y0078061D01*
X0202829Y0078119D01*
X0202972Y0078174D01*
X0203117Y0078225D01*
X0203263Y0078272D01*
X0203410Y0078315D01*
X0203558Y0078354D01*
X0203707Y0078390D01*
X0203857Y0078421D01*
X0204008Y0078449D01*
X0204159Y0078473D01*
X0204312Y0078493D01*
X0204464Y0078509D01*
X0204617Y0078521D01*
X0204770Y0078529D01*
X0204923Y0078533D01*
X0205077Y0078533D01*
X0205230Y0078529D01*
X0205383Y0078521D01*
X0205536Y0078509D01*
X0205688Y0078493D01*
X0205841Y0078473D01*
X0205992Y0078449D01*
X0206143Y0078421D01*
X0206293Y0078390D01*
X0206442Y0078354D01*
X0206590Y0078315D01*
X0206737Y0078272D01*
X0206883Y0078225D01*
X0207028Y0078174D01*
X0207171Y0078119D01*
X0207313Y0078061D01*
X0207453Y0077999D01*
X0207592Y0077934D01*
X0207729Y0077865D01*
X0207864Y0077792D01*
X0207997Y0077716D01*
X0208128Y0077636D01*
X0208257Y0077554D01*
X0208384Y0077467D01*
X0208509Y0077378D01*
X0208631Y0077285D01*
X0208750Y0077189D01*
X0208868Y0077090D01*
X0208982Y0076989D01*
X0209094Y0076884D01*
X0209203Y0076776D01*
X0209309Y0076665D01*
X0209413Y0076552D01*
X0209513Y0076436D01*
X0209611Y0076318D01*
X0209705Y0076197D01*
X0209796Y0076074D01*
X0209884Y0075948D01*
X0209968Y0075820D01*
X0210050Y0075690D01*
X0210127Y0075558D01*
X0210202Y0075424D01*
X0210273Y0075288D01*
X0210340Y0075150D01*
X0210404Y0075010D01*
X0210464Y0074869D01*
X0210520Y0074727D01*
X0210573Y0074583D01*
X0210622Y0074437D01*
X0210667Y0074291D01*
X0210708Y0074143D01*
X0210745Y0073995D01*
X0210779Y0073845D01*
X0210809Y0073694D01*
X0210834Y0073543D01*
X0210856Y0073392D01*
X0210874Y0073239D01*
X0210888Y0073087D01*
X0210898Y0072934D01*
X0210904Y0072780D01*
X0210906Y0072627D01*
X0210904Y0072474D01*
X0210898Y0072320D01*
X0210888Y0072167D01*
X0210874Y0072015D01*
X0210856Y0071862D01*
X0210834Y0071711D01*
X0210809Y0071560D01*
X0210779Y0071409D01*
X0210745Y0071259D01*
X0210708Y0071111D01*
X0210667Y0070963D01*
X0210622Y0070817D01*
X0210573Y0070671D01*
X0210520Y0070527D01*
X0210464Y0070385D01*
X0210404Y0070244D01*
X0210340Y0070104D01*
X0210273Y0069966D01*
X0210202Y0069830D01*
X0210127Y0069696D01*
X0210050Y0069564D01*
X0209968Y0069434D01*
X0209884Y0069306D01*
X0209796Y0069180D01*
X0209705Y0069057D01*
X0209611Y0068936D01*
X0209513Y0068818D01*
X0209413Y0068702D01*
X0209309Y0068589D01*
X0209203Y0068478D01*
X0209094Y0068370D01*
X0208982Y0068265D01*
X0208868Y0068164D01*
X0208750Y0068065D01*
X0208631Y0067969D01*
X0208509Y0067876D01*
X0208384Y0067787D01*
X0208257Y0067700D01*
X0208128Y0067618D01*
X0207997Y0067538D01*
X0207864Y0067462D01*
X0207729Y0067389D01*
X0207592Y0067320D01*
X0207453Y0067255D01*
X0207313Y0067193D01*
X0207171Y0067135D01*
X0207028Y0067080D01*
X0206883Y0067029D01*
X0206737Y0066982D01*
X0206590Y0066939D01*
X0206442Y0066900D01*
X0206293Y0066864D01*
X0206143Y0066833D01*
X0205992Y0066805D01*
X0205841Y0066781D01*
X0205688Y0066761D01*
X0205536Y0066745D01*
X0205383Y0066733D01*
X0205230Y0066725D01*
X0205077Y0066721D01*
X0204923Y0066721D01*
X0204770Y0066725D01*
X0204617Y0066733D01*
X0204464Y0066745D01*
X0204312Y0066761D01*
X0204159Y0066781D01*
X0204008Y0066805D01*
X0203857Y0066833D01*
X0203707Y0066864D01*
X0203558Y0066900D01*
X0203410Y0066939D01*
X0203263Y0066982D01*
X0203117Y0067029D01*
X0202972Y0067080D01*
X0202829Y0067135D01*
X0202687Y0067193D01*
X0202547Y0067255D01*
X0202408Y0067320D01*
X0202271Y0067389D01*
X0202136Y0067462D01*
X0202003Y0067538D01*
X0201872Y0067618D01*
X0201743Y0067700D01*
X0201616Y0067787D01*
X0201491Y0067876D01*
X0201369Y0067969D01*
X0201250Y0068065D01*
X0201132Y0068164D01*
X0201018Y0068265D01*
X0200906Y0068370D01*
X0200797Y0068478D01*
X0200691Y0068589D01*
X0200587Y0068702D01*
X0200487Y0068818D01*
X0200389Y0068936D01*
X0200295Y0069057D01*
X0200204Y0069180D01*
X0200116Y0069306D01*
X0200032Y0069434D01*
X0199950Y0069564D01*
X0199873Y0069696D01*
X0199798Y0069830D01*
X0199727Y0069966D01*
X0199660Y0070104D01*
X0199596Y0070244D01*
X0199536Y0070385D01*
X0199480Y0070527D01*
X0199427Y0070671D01*
X0199378Y0070817D01*
X0199333Y0070963D01*
X0199292Y0071111D01*
X0199255Y0071259D01*
X0199221Y0071409D01*
X0199191Y0071560D01*
X0199166Y0071711D01*
X0199144Y0071862D01*
X0199126Y0072015D01*
X0199112Y0072167D01*
X0199102Y0072320D01*
X0199096Y0072474D01*
X0199094Y0072627D01*
X0254094Y0187627D02*
X0254096Y0187780D01*
X0254102Y0187934D01*
X0254112Y0188087D01*
X0254126Y0188239D01*
X0254144Y0188392D01*
X0254166Y0188543D01*
X0254191Y0188694D01*
X0254221Y0188845D01*
X0254255Y0188995D01*
X0254292Y0189143D01*
X0254333Y0189291D01*
X0254378Y0189437D01*
X0254427Y0189583D01*
X0254480Y0189727D01*
X0254536Y0189869D01*
X0254596Y0190010D01*
X0254660Y0190150D01*
X0254727Y0190288D01*
X0254798Y0190424D01*
X0254873Y0190558D01*
X0254950Y0190690D01*
X0255032Y0190820D01*
X0255116Y0190948D01*
X0255204Y0191074D01*
X0255295Y0191197D01*
X0255389Y0191318D01*
X0255487Y0191436D01*
X0255587Y0191552D01*
X0255691Y0191665D01*
X0255797Y0191776D01*
X0255906Y0191884D01*
X0256018Y0191989D01*
X0256132Y0192090D01*
X0256250Y0192189D01*
X0256369Y0192285D01*
X0256491Y0192378D01*
X0256616Y0192467D01*
X0256743Y0192554D01*
X0256872Y0192636D01*
X0257003Y0192716D01*
X0257136Y0192792D01*
X0257271Y0192865D01*
X0257408Y0192934D01*
X0257547Y0192999D01*
X0257687Y0193061D01*
X0257829Y0193119D01*
X0257972Y0193174D01*
X0258117Y0193225D01*
X0258263Y0193272D01*
X0258410Y0193315D01*
X0258558Y0193354D01*
X0258707Y0193390D01*
X0258857Y0193421D01*
X0259008Y0193449D01*
X0259159Y0193473D01*
X0259312Y0193493D01*
X0259464Y0193509D01*
X0259617Y0193521D01*
X0259770Y0193529D01*
X0259923Y0193533D01*
X0260077Y0193533D01*
X0260230Y0193529D01*
X0260383Y0193521D01*
X0260536Y0193509D01*
X0260688Y0193493D01*
X0260841Y0193473D01*
X0260992Y0193449D01*
X0261143Y0193421D01*
X0261293Y0193390D01*
X0261442Y0193354D01*
X0261590Y0193315D01*
X0261737Y0193272D01*
X0261883Y0193225D01*
X0262028Y0193174D01*
X0262171Y0193119D01*
X0262313Y0193061D01*
X0262453Y0192999D01*
X0262592Y0192934D01*
X0262729Y0192865D01*
X0262864Y0192792D01*
X0262997Y0192716D01*
X0263128Y0192636D01*
X0263257Y0192554D01*
X0263384Y0192467D01*
X0263509Y0192378D01*
X0263631Y0192285D01*
X0263750Y0192189D01*
X0263868Y0192090D01*
X0263982Y0191989D01*
X0264094Y0191884D01*
X0264203Y0191776D01*
X0264309Y0191665D01*
X0264413Y0191552D01*
X0264513Y0191436D01*
X0264611Y0191318D01*
X0264705Y0191197D01*
X0264796Y0191074D01*
X0264884Y0190948D01*
X0264968Y0190820D01*
X0265050Y0190690D01*
X0265127Y0190558D01*
X0265202Y0190424D01*
X0265273Y0190288D01*
X0265340Y0190150D01*
X0265404Y0190010D01*
X0265464Y0189869D01*
X0265520Y0189727D01*
X0265573Y0189583D01*
X0265622Y0189437D01*
X0265667Y0189291D01*
X0265708Y0189143D01*
X0265745Y0188995D01*
X0265779Y0188845D01*
X0265809Y0188694D01*
X0265834Y0188543D01*
X0265856Y0188392D01*
X0265874Y0188239D01*
X0265888Y0188087D01*
X0265898Y0187934D01*
X0265904Y0187780D01*
X0265906Y0187627D01*
X0265904Y0187474D01*
X0265898Y0187320D01*
X0265888Y0187167D01*
X0265874Y0187015D01*
X0265856Y0186862D01*
X0265834Y0186711D01*
X0265809Y0186560D01*
X0265779Y0186409D01*
X0265745Y0186259D01*
X0265708Y0186111D01*
X0265667Y0185963D01*
X0265622Y0185817D01*
X0265573Y0185671D01*
X0265520Y0185527D01*
X0265464Y0185385D01*
X0265404Y0185244D01*
X0265340Y0185104D01*
X0265273Y0184966D01*
X0265202Y0184830D01*
X0265127Y0184696D01*
X0265050Y0184564D01*
X0264968Y0184434D01*
X0264884Y0184306D01*
X0264796Y0184180D01*
X0264705Y0184057D01*
X0264611Y0183936D01*
X0264513Y0183818D01*
X0264413Y0183702D01*
X0264309Y0183589D01*
X0264203Y0183478D01*
X0264094Y0183370D01*
X0263982Y0183265D01*
X0263868Y0183164D01*
X0263750Y0183065D01*
X0263631Y0182969D01*
X0263509Y0182876D01*
X0263384Y0182787D01*
X0263257Y0182700D01*
X0263128Y0182618D01*
X0262997Y0182538D01*
X0262864Y0182462D01*
X0262729Y0182389D01*
X0262592Y0182320D01*
X0262453Y0182255D01*
X0262313Y0182193D01*
X0262171Y0182135D01*
X0262028Y0182080D01*
X0261883Y0182029D01*
X0261737Y0181982D01*
X0261590Y0181939D01*
X0261442Y0181900D01*
X0261293Y0181864D01*
X0261143Y0181833D01*
X0260992Y0181805D01*
X0260841Y0181781D01*
X0260688Y0181761D01*
X0260536Y0181745D01*
X0260383Y0181733D01*
X0260230Y0181725D01*
X0260077Y0181721D01*
X0259923Y0181721D01*
X0259770Y0181725D01*
X0259617Y0181733D01*
X0259464Y0181745D01*
X0259312Y0181761D01*
X0259159Y0181781D01*
X0259008Y0181805D01*
X0258857Y0181833D01*
X0258707Y0181864D01*
X0258558Y0181900D01*
X0258410Y0181939D01*
X0258263Y0181982D01*
X0258117Y0182029D01*
X0257972Y0182080D01*
X0257829Y0182135D01*
X0257687Y0182193D01*
X0257547Y0182255D01*
X0257408Y0182320D01*
X0257271Y0182389D01*
X0257136Y0182462D01*
X0257003Y0182538D01*
X0256872Y0182618D01*
X0256743Y0182700D01*
X0256616Y0182787D01*
X0256491Y0182876D01*
X0256369Y0182969D01*
X0256250Y0183065D01*
X0256132Y0183164D01*
X0256018Y0183265D01*
X0255906Y0183370D01*
X0255797Y0183478D01*
X0255691Y0183589D01*
X0255587Y0183702D01*
X0255487Y0183818D01*
X0255389Y0183936D01*
X0255295Y0184057D01*
X0255204Y0184180D01*
X0255116Y0184306D01*
X0255032Y0184434D01*
X0254950Y0184564D01*
X0254873Y0184696D01*
X0254798Y0184830D01*
X0254727Y0184966D01*
X0254660Y0185104D01*
X0254596Y0185244D01*
X0254536Y0185385D01*
X0254480Y0185527D01*
X0254427Y0185671D01*
X0254378Y0185817D01*
X0254333Y0185963D01*
X0254292Y0186111D01*
X0254255Y0186259D01*
X0254221Y0186409D01*
X0254191Y0186560D01*
X0254166Y0186711D01*
X0254144Y0186862D01*
X0254126Y0187015D01*
X0254112Y0187167D01*
X0254102Y0187320D01*
X0254096Y0187474D01*
X0254094Y0187627D01*
X0359094Y0152627D02*
X0359096Y0152780D01*
X0359102Y0152934D01*
X0359112Y0153087D01*
X0359126Y0153239D01*
X0359144Y0153392D01*
X0359166Y0153543D01*
X0359191Y0153694D01*
X0359221Y0153845D01*
X0359255Y0153995D01*
X0359292Y0154143D01*
X0359333Y0154291D01*
X0359378Y0154437D01*
X0359427Y0154583D01*
X0359480Y0154727D01*
X0359536Y0154869D01*
X0359596Y0155010D01*
X0359660Y0155150D01*
X0359727Y0155288D01*
X0359798Y0155424D01*
X0359873Y0155558D01*
X0359950Y0155690D01*
X0360032Y0155820D01*
X0360116Y0155948D01*
X0360204Y0156074D01*
X0360295Y0156197D01*
X0360389Y0156318D01*
X0360487Y0156436D01*
X0360587Y0156552D01*
X0360691Y0156665D01*
X0360797Y0156776D01*
X0360906Y0156884D01*
X0361018Y0156989D01*
X0361132Y0157090D01*
X0361250Y0157189D01*
X0361369Y0157285D01*
X0361491Y0157378D01*
X0361616Y0157467D01*
X0361743Y0157554D01*
X0361872Y0157636D01*
X0362003Y0157716D01*
X0362136Y0157792D01*
X0362271Y0157865D01*
X0362408Y0157934D01*
X0362547Y0157999D01*
X0362687Y0158061D01*
X0362829Y0158119D01*
X0362972Y0158174D01*
X0363117Y0158225D01*
X0363263Y0158272D01*
X0363410Y0158315D01*
X0363558Y0158354D01*
X0363707Y0158390D01*
X0363857Y0158421D01*
X0364008Y0158449D01*
X0364159Y0158473D01*
X0364312Y0158493D01*
X0364464Y0158509D01*
X0364617Y0158521D01*
X0364770Y0158529D01*
X0364923Y0158533D01*
X0365077Y0158533D01*
X0365230Y0158529D01*
X0365383Y0158521D01*
X0365536Y0158509D01*
X0365688Y0158493D01*
X0365841Y0158473D01*
X0365992Y0158449D01*
X0366143Y0158421D01*
X0366293Y0158390D01*
X0366442Y0158354D01*
X0366590Y0158315D01*
X0366737Y0158272D01*
X0366883Y0158225D01*
X0367028Y0158174D01*
X0367171Y0158119D01*
X0367313Y0158061D01*
X0367453Y0157999D01*
X0367592Y0157934D01*
X0367729Y0157865D01*
X0367864Y0157792D01*
X0367997Y0157716D01*
X0368128Y0157636D01*
X0368257Y0157554D01*
X0368384Y0157467D01*
X0368509Y0157378D01*
X0368631Y0157285D01*
X0368750Y0157189D01*
X0368868Y0157090D01*
X0368982Y0156989D01*
X0369094Y0156884D01*
X0369203Y0156776D01*
X0369309Y0156665D01*
X0369413Y0156552D01*
X0369513Y0156436D01*
X0369611Y0156318D01*
X0369705Y0156197D01*
X0369796Y0156074D01*
X0369884Y0155948D01*
X0369968Y0155820D01*
X0370050Y0155690D01*
X0370127Y0155558D01*
X0370202Y0155424D01*
X0370273Y0155288D01*
X0370340Y0155150D01*
X0370404Y0155010D01*
X0370464Y0154869D01*
X0370520Y0154727D01*
X0370573Y0154583D01*
X0370622Y0154437D01*
X0370667Y0154291D01*
X0370708Y0154143D01*
X0370745Y0153995D01*
X0370779Y0153845D01*
X0370809Y0153694D01*
X0370834Y0153543D01*
X0370856Y0153392D01*
X0370874Y0153239D01*
X0370888Y0153087D01*
X0370898Y0152934D01*
X0370904Y0152780D01*
X0370906Y0152627D01*
X0370904Y0152474D01*
X0370898Y0152320D01*
X0370888Y0152167D01*
X0370874Y0152015D01*
X0370856Y0151862D01*
X0370834Y0151711D01*
X0370809Y0151560D01*
X0370779Y0151409D01*
X0370745Y0151259D01*
X0370708Y0151111D01*
X0370667Y0150963D01*
X0370622Y0150817D01*
X0370573Y0150671D01*
X0370520Y0150527D01*
X0370464Y0150385D01*
X0370404Y0150244D01*
X0370340Y0150104D01*
X0370273Y0149966D01*
X0370202Y0149830D01*
X0370127Y0149696D01*
X0370050Y0149564D01*
X0369968Y0149434D01*
X0369884Y0149306D01*
X0369796Y0149180D01*
X0369705Y0149057D01*
X0369611Y0148936D01*
X0369513Y0148818D01*
X0369413Y0148702D01*
X0369309Y0148589D01*
X0369203Y0148478D01*
X0369094Y0148370D01*
X0368982Y0148265D01*
X0368868Y0148164D01*
X0368750Y0148065D01*
X0368631Y0147969D01*
X0368509Y0147876D01*
X0368384Y0147787D01*
X0368257Y0147700D01*
X0368128Y0147618D01*
X0367997Y0147538D01*
X0367864Y0147462D01*
X0367729Y0147389D01*
X0367592Y0147320D01*
X0367453Y0147255D01*
X0367313Y0147193D01*
X0367171Y0147135D01*
X0367028Y0147080D01*
X0366883Y0147029D01*
X0366737Y0146982D01*
X0366590Y0146939D01*
X0366442Y0146900D01*
X0366293Y0146864D01*
X0366143Y0146833D01*
X0365992Y0146805D01*
X0365841Y0146781D01*
X0365688Y0146761D01*
X0365536Y0146745D01*
X0365383Y0146733D01*
X0365230Y0146725D01*
X0365077Y0146721D01*
X0364923Y0146721D01*
X0364770Y0146725D01*
X0364617Y0146733D01*
X0364464Y0146745D01*
X0364312Y0146761D01*
X0364159Y0146781D01*
X0364008Y0146805D01*
X0363857Y0146833D01*
X0363707Y0146864D01*
X0363558Y0146900D01*
X0363410Y0146939D01*
X0363263Y0146982D01*
X0363117Y0147029D01*
X0362972Y0147080D01*
X0362829Y0147135D01*
X0362687Y0147193D01*
X0362547Y0147255D01*
X0362408Y0147320D01*
X0362271Y0147389D01*
X0362136Y0147462D01*
X0362003Y0147538D01*
X0361872Y0147618D01*
X0361743Y0147700D01*
X0361616Y0147787D01*
X0361491Y0147876D01*
X0361369Y0147969D01*
X0361250Y0148065D01*
X0361132Y0148164D01*
X0361018Y0148265D01*
X0360906Y0148370D01*
X0360797Y0148478D01*
X0360691Y0148589D01*
X0360587Y0148702D01*
X0360487Y0148818D01*
X0360389Y0148936D01*
X0360295Y0149057D01*
X0360204Y0149180D01*
X0360116Y0149306D01*
X0360032Y0149434D01*
X0359950Y0149564D01*
X0359873Y0149696D01*
X0359798Y0149830D01*
X0359727Y0149966D01*
X0359660Y0150104D01*
X0359596Y0150244D01*
X0359536Y0150385D01*
X0359480Y0150527D01*
X0359427Y0150671D01*
X0359378Y0150817D01*
X0359333Y0150963D01*
X0359292Y0151111D01*
X0359255Y0151259D01*
X0359221Y0151409D01*
X0359191Y0151560D01*
X0359166Y0151711D01*
X0359144Y0151862D01*
X0359126Y0152015D01*
X0359112Y0152167D01*
X0359102Y0152320D01*
X0359096Y0152474D01*
X0359094Y0152627D01*
X0336594Y0057627D02*
X0336596Y0057780D01*
X0336602Y0057934D01*
X0336612Y0058087D01*
X0336626Y0058239D01*
X0336644Y0058392D01*
X0336666Y0058543D01*
X0336691Y0058694D01*
X0336721Y0058845D01*
X0336755Y0058995D01*
X0336792Y0059143D01*
X0336833Y0059291D01*
X0336878Y0059437D01*
X0336927Y0059583D01*
X0336980Y0059727D01*
X0337036Y0059869D01*
X0337096Y0060010D01*
X0337160Y0060150D01*
X0337227Y0060288D01*
X0337298Y0060424D01*
X0337373Y0060558D01*
X0337450Y0060690D01*
X0337532Y0060820D01*
X0337616Y0060948D01*
X0337704Y0061074D01*
X0337795Y0061197D01*
X0337889Y0061318D01*
X0337987Y0061436D01*
X0338087Y0061552D01*
X0338191Y0061665D01*
X0338297Y0061776D01*
X0338406Y0061884D01*
X0338518Y0061989D01*
X0338632Y0062090D01*
X0338750Y0062189D01*
X0338869Y0062285D01*
X0338991Y0062378D01*
X0339116Y0062467D01*
X0339243Y0062554D01*
X0339372Y0062636D01*
X0339503Y0062716D01*
X0339636Y0062792D01*
X0339771Y0062865D01*
X0339908Y0062934D01*
X0340047Y0062999D01*
X0340187Y0063061D01*
X0340329Y0063119D01*
X0340472Y0063174D01*
X0340617Y0063225D01*
X0340763Y0063272D01*
X0340910Y0063315D01*
X0341058Y0063354D01*
X0341207Y0063390D01*
X0341357Y0063421D01*
X0341508Y0063449D01*
X0341659Y0063473D01*
X0341812Y0063493D01*
X0341964Y0063509D01*
X0342117Y0063521D01*
X0342270Y0063529D01*
X0342423Y0063533D01*
X0342577Y0063533D01*
X0342730Y0063529D01*
X0342883Y0063521D01*
X0343036Y0063509D01*
X0343188Y0063493D01*
X0343341Y0063473D01*
X0343492Y0063449D01*
X0343643Y0063421D01*
X0343793Y0063390D01*
X0343942Y0063354D01*
X0344090Y0063315D01*
X0344237Y0063272D01*
X0344383Y0063225D01*
X0344528Y0063174D01*
X0344671Y0063119D01*
X0344813Y0063061D01*
X0344953Y0062999D01*
X0345092Y0062934D01*
X0345229Y0062865D01*
X0345364Y0062792D01*
X0345497Y0062716D01*
X0345628Y0062636D01*
X0345757Y0062554D01*
X0345884Y0062467D01*
X0346009Y0062378D01*
X0346131Y0062285D01*
X0346250Y0062189D01*
X0346368Y0062090D01*
X0346482Y0061989D01*
X0346594Y0061884D01*
X0346703Y0061776D01*
X0346809Y0061665D01*
X0346913Y0061552D01*
X0347013Y0061436D01*
X0347111Y0061318D01*
X0347205Y0061197D01*
X0347296Y0061074D01*
X0347384Y0060948D01*
X0347468Y0060820D01*
X0347550Y0060690D01*
X0347627Y0060558D01*
X0347702Y0060424D01*
X0347773Y0060288D01*
X0347840Y0060150D01*
X0347904Y0060010D01*
X0347964Y0059869D01*
X0348020Y0059727D01*
X0348073Y0059583D01*
X0348122Y0059437D01*
X0348167Y0059291D01*
X0348208Y0059143D01*
X0348245Y0058995D01*
X0348279Y0058845D01*
X0348309Y0058694D01*
X0348334Y0058543D01*
X0348356Y0058392D01*
X0348374Y0058239D01*
X0348388Y0058087D01*
X0348398Y0057934D01*
X0348404Y0057780D01*
X0348406Y0057627D01*
X0348404Y0057474D01*
X0348398Y0057320D01*
X0348388Y0057167D01*
X0348374Y0057015D01*
X0348356Y0056862D01*
X0348334Y0056711D01*
X0348309Y0056560D01*
X0348279Y0056409D01*
X0348245Y0056259D01*
X0348208Y0056111D01*
X0348167Y0055963D01*
X0348122Y0055817D01*
X0348073Y0055671D01*
X0348020Y0055527D01*
X0347964Y0055385D01*
X0347904Y0055244D01*
X0347840Y0055104D01*
X0347773Y0054966D01*
X0347702Y0054830D01*
X0347627Y0054696D01*
X0347550Y0054564D01*
X0347468Y0054434D01*
X0347384Y0054306D01*
X0347296Y0054180D01*
X0347205Y0054057D01*
X0347111Y0053936D01*
X0347013Y0053818D01*
X0346913Y0053702D01*
X0346809Y0053589D01*
X0346703Y0053478D01*
X0346594Y0053370D01*
X0346482Y0053265D01*
X0346368Y0053164D01*
X0346250Y0053065D01*
X0346131Y0052969D01*
X0346009Y0052876D01*
X0345884Y0052787D01*
X0345757Y0052700D01*
X0345628Y0052618D01*
X0345497Y0052538D01*
X0345364Y0052462D01*
X0345229Y0052389D01*
X0345092Y0052320D01*
X0344953Y0052255D01*
X0344813Y0052193D01*
X0344671Y0052135D01*
X0344528Y0052080D01*
X0344383Y0052029D01*
X0344237Y0051982D01*
X0344090Y0051939D01*
X0343942Y0051900D01*
X0343793Y0051864D01*
X0343643Y0051833D01*
X0343492Y0051805D01*
X0343341Y0051781D01*
X0343188Y0051761D01*
X0343036Y0051745D01*
X0342883Y0051733D01*
X0342730Y0051725D01*
X0342577Y0051721D01*
X0342423Y0051721D01*
X0342270Y0051725D01*
X0342117Y0051733D01*
X0341964Y0051745D01*
X0341812Y0051761D01*
X0341659Y0051781D01*
X0341508Y0051805D01*
X0341357Y0051833D01*
X0341207Y0051864D01*
X0341058Y0051900D01*
X0340910Y0051939D01*
X0340763Y0051982D01*
X0340617Y0052029D01*
X0340472Y0052080D01*
X0340329Y0052135D01*
X0340187Y0052193D01*
X0340047Y0052255D01*
X0339908Y0052320D01*
X0339771Y0052389D01*
X0339636Y0052462D01*
X0339503Y0052538D01*
X0339372Y0052618D01*
X0339243Y0052700D01*
X0339116Y0052787D01*
X0338991Y0052876D01*
X0338869Y0052969D01*
X0338750Y0053065D01*
X0338632Y0053164D01*
X0338518Y0053265D01*
X0338406Y0053370D01*
X0338297Y0053478D01*
X0338191Y0053589D01*
X0338087Y0053702D01*
X0337987Y0053818D01*
X0337889Y0053936D01*
X0337795Y0054057D01*
X0337704Y0054180D01*
X0337616Y0054306D01*
X0337532Y0054434D01*
X0337450Y0054564D01*
X0337373Y0054696D01*
X0337298Y0054830D01*
X0337227Y0054966D01*
X0337160Y0055104D01*
X0337096Y0055244D01*
X0337036Y0055385D01*
X0336980Y0055527D01*
X0336927Y0055671D01*
X0336878Y0055817D01*
X0336833Y0055963D01*
X0336792Y0056111D01*
X0336755Y0056259D01*
X0336721Y0056409D01*
X0336691Y0056560D01*
X0336666Y0056711D01*
X0336644Y0056862D01*
X0336626Y0057015D01*
X0336612Y0057167D01*
X0336602Y0057320D01*
X0336596Y0057474D01*
X0336594Y0057627D01*
X0249094Y0322627D02*
X0249096Y0322780D01*
X0249102Y0322934D01*
X0249112Y0323087D01*
X0249126Y0323239D01*
X0249144Y0323392D01*
X0249166Y0323543D01*
X0249191Y0323694D01*
X0249221Y0323845D01*
X0249255Y0323995D01*
X0249292Y0324143D01*
X0249333Y0324291D01*
X0249378Y0324437D01*
X0249427Y0324583D01*
X0249480Y0324727D01*
X0249536Y0324869D01*
X0249596Y0325010D01*
X0249660Y0325150D01*
X0249727Y0325288D01*
X0249798Y0325424D01*
X0249873Y0325558D01*
X0249950Y0325690D01*
X0250032Y0325820D01*
X0250116Y0325948D01*
X0250204Y0326074D01*
X0250295Y0326197D01*
X0250389Y0326318D01*
X0250487Y0326436D01*
X0250587Y0326552D01*
X0250691Y0326665D01*
X0250797Y0326776D01*
X0250906Y0326884D01*
X0251018Y0326989D01*
X0251132Y0327090D01*
X0251250Y0327189D01*
X0251369Y0327285D01*
X0251491Y0327378D01*
X0251616Y0327467D01*
X0251743Y0327554D01*
X0251872Y0327636D01*
X0252003Y0327716D01*
X0252136Y0327792D01*
X0252271Y0327865D01*
X0252408Y0327934D01*
X0252547Y0327999D01*
X0252687Y0328061D01*
X0252829Y0328119D01*
X0252972Y0328174D01*
X0253117Y0328225D01*
X0253263Y0328272D01*
X0253410Y0328315D01*
X0253558Y0328354D01*
X0253707Y0328390D01*
X0253857Y0328421D01*
X0254008Y0328449D01*
X0254159Y0328473D01*
X0254312Y0328493D01*
X0254464Y0328509D01*
X0254617Y0328521D01*
X0254770Y0328529D01*
X0254923Y0328533D01*
X0255077Y0328533D01*
X0255230Y0328529D01*
X0255383Y0328521D01*
X0255536Y0328509D01*
X0255688Y0328493D01*
X0255841Y0328473D01*
X0255992Y0328449D01*
X0256143Y0328421D01*
X0256293Y0328390D01*
X0256442Y0328354D01*
X0256590Y0328315D01*
X0256737Y0328272D01*
X0256883Y0328225D01*
X0257028Y0328174D01*
X0257171Y0328119D01*
X0257313Y0328061D01*
X0257453Y0327999D01*
X0257592Y0327934D01*
X0257729Y0327865D01*
X0257864Y0327792D01*
X0257997Y0327716D01*
X0258128Y0327636D01*
X0258257Y0327554D01*
X0258384Y0327467D01*
X0258509Y0327378D01*
X0258631Y0327285D01*
X0258750Y0327189D01*
X0258868Y0327090D01*
X0258982Y0326989D01*
X0259094Y0326884D01*
X0259203Y0326776D01*
X0259309Y0326665D01*
X0259413Y0326552D01*
X0259513Y0326436D01*
X0259611Y0326318D01*
X0259705Y0326197D01*
X0259796Y0326074D01*
X0259884Y0325948D01*
X0259968Y0325820D01*
X0260050Y0325690D01*
X0260127Y0325558D01*
X0260202Y0325424D01*
X0260273Y0325288D01*
X0260340Y0325150D01*
X0260404Y0325010D01*
X0260464Y0324869D01*
X0260520Y0324727D01*
X0260573Y0324583D01*
X0260622Y0324437D01*
X0260667Y0324291D01*
X0260708Y0324143D01*
X0260745Y0323995D01*
X0260779Y0323845D01*
X0260809Y0323694D01*
X0260834Y0323543D01*
X0260856Y0323392D01*
X0260874Y0323239D01*
X0260888Y0323087D01*
X0260898Y0322934D01*
X0260904Y0322780D01*
X0260906Y0322627D01*
X0260904Y0322474D01*
X0260898Y0322320D01*
X0260888Y0322167D01*
X0260874Y0322015D01*
X0260856Y0321862D01*
X0260834Y0321711D01*
X0260809Y0321560D01*
X0260779Y0321409D01*
X0260745Y0321259D01*
X0260708Y0321111D01*
X0260667Y0320963D01*
X0260622Y0320817D01*
X0260573Y0320671D01*
X0260520Y0320527D01*
X0260464Y0320385D01*
X0260404Y0320244D01*
X0260340Y0320104D01*
X0260273Y0319966D01*
X0260202Y0319830D01*
X0260127Y0319696D01*
X0260050Y0319564D01*
X0259968Y0319434D01*
X0259884Y0319306D01*
X0259796Y0319180D01*
X0259705Y0319057D01*
X0259611Y0318936D01*
X0259513Y0318818D01*
X0259413Y0318702D01*
X0259309Y0318589D01*
X0259203Y0318478D01*
X0259094Y0318370D01*
X0258982Y0318265D01*
X0258868Y0318164D01*
X0258750Y0318065D01*
X0258631Y0317969D01*
X0258509Y0317876D01*
X0258384Y0317787D01*
X0258257Y0317700D01*
X0258128Y0317618D01*
X0257997Y0317538D01*
X0257864Y0317462D01*
X0257729Y0317389D01*
X0257592Y0317320D01*
X0257453Y0317255D01*
X0257313Y0317193D01*
X0257171Y0317135D01*
X0257028Y0317080D01*
X0256883Y0317029D01*
X0256737Y0316982D01*
X0256590Y0316939D01*
X0256442Y0316900D01*
X0256293Y0316864D01*
X0256143Y0316833D01*
X0255992Y0316805D01*
X0255841Y0316781D01*
X0255688Y0316761D01*
X0255536Y0316745D01*
X0255383Y0316733D01*
X0255230Y0316725D01*
X0255077Y0316721D01*
X0254923Y0316721D01*
X0254770Y0316725D01*
X0254617Y0316733D01*
X0254464Y0316745D01*
X0254312Y0316761D01*
X0254159Y0316781D01*
X0254008Y0316805D01*
X0253857Y0316833D01*
X0253707Y0316864D01*
X0253558Y0316900D01*
X0253410Y0316939D01*
X0253263Y0316982D01*
X0253117Y0317029D01*
X0252972Y0317080D01*
X0252829Y0317135D01*
X0252687Y0317193D01*
X0252547Y0317255D01*
X0252408Y0317320D01*
X0252271Y0317389D01*
X0252136Y0317462D01*
X0252003Y0317538D01*
X0251872Y0317618D01*
X0251743Y0317700D01*
X0251616Y0317787D01*
X0251491Y0317876D01*
X0251369Y0317969D01*
X0251250Y0318065D01*
X0251132Y0318164D01*
X0251018Y0318265D01*
X0250906Y0318370D01*
X0250797Y0318478D01*
X0250691Y0318589D01*
X0250587Y0318702D01*
X0250487Y0318818D01*
X0250389Y0318936D01*
X0250295Y0319057D01*
X0250204Y0319180D01*
X0250116Y0319306D01*
X0250032Y0319434D01*
X0249950Y0319564D01*
X0249873Y0319696D01*
X0249798Y0319830D01*
X0249727Y0319966D01*
X0249660Y0320104D01*
X0249596Y0320244D01*
X0249536Y0320385D01*
X0249480Y0320527D01*
X0249427Y0320671D01*
X0249378Y0320817D01*
X0249333Y0320963D01*
X0249292Y0321111D01*
X0249255Y0321259D01*
X0249221Y0321409D01*
X0249191Y0321560D01*
X0249166Y0321711D01*
X0249144Y0321862D01*
X0249126Y0322015D01*
X0249112Y0322167D01*
X0249102Y0322320D01*
X0249096Y0322474D01*
X0249094Y0322627D01*
X0111594Y0335127D02*
X0111596Y0335280D01*
X0111602Y0335434D01*
X0111612Y0335587D01*
X0111626Y0335739D01*
X0111644Y0335892D01*
X0111666Y0336043D01*
X0111691Y0336194D01*
X0111721Y0336345D01*
X0111755Y0336495D01*
X0111792Y0336643D01*
X0111833Y0336791D01*
X0111878Y0336937D01*
X0111927Y0337083D01*
X0111980Y0337227D01*
X0112036Y0337369D01*
X0112096Y0337510D01*
X0112160Y0337650D01*
X0112227Y0337788D01*
X0112298Y0337924D01*
X0112373Y0338058D01*
X0112450Y0338190D01*
X0112532Y0338320D01*
X0112616Y0338448D01*
X0112704Y0338574D01*
X0112795Y0338697D01*
X0112889Y0338818D01*
X0112987Y0338936D01*
X0113087Y0339052D01*
X0113191Y0339165D01*
X0113297Y0339276D01*
X0113406Y0339384D01*
X0113518Y0339489D01*
X0113632Y0339590D01*
X0113750Y0339689D01*
X0113869Y0339785D01*
X0113991Y0339878D01*
X0114116Y0339967D01*
X0114243Y0340054D01*
X0114372Y0340136D01*
X0114503Y0340216D01*
X0114636Y0340292D01*
X0114771Y0340365D01*
X0114908Y0340434D01*
X0115047Y0340499D01*
X0115187Y0340561D01*
X0115329Y0340619D01*
X0115472Y0340674D01*
X0115617Y0340725D01*
X0115763Y0340772D01*
X0115910Y0340815D01*
X0116058Y0340854D01*
X0116207Y0340890D01*
X0116357Y0340921D01*
X0116508Y0340949D01*
X0116659Y0340973D01*
X0116812Y0340993D01*
X0116964Y0341009D01*
X0117117Y0341021D01*
X0117270Y0341029D01*
X0117423Y0341033D01*
X0117577Y0341033D01*
X0117730Y0341029D01*
X0117883Y0341021D01*
X0118036Y0341009D01*
X0118188Y0340993D01*
X0118341Y0340973D01*
X0118492Y0340949D01*
X0118643Y0340921D01*
X0118793Y0340890D01*
X0118942Y0340854D01*
X0119090Y0340815D01*
X0119237Y0340772D01*
X0119383Y0340725D01*
X0119528Y0340674D01*
X0119671Y0340619D01*
X0119813Y0340561D01*
X0119953Y0340499D01*
X0120092Y0340434D01*
X0120229Y0340365D01*
X0120364Y0340292D01*
X0120497Y0340216D01*
X0120628Y0340136D01*
X0120757Y0340054D01*
X0120884Y0339967D01*
X0121009Y0339878D01*
X0121131Y0339785D01*
X0121250Y0339689D01*
X0121368Y0339590D01*
X0121482Y0339489D01*
X0121594Y0339384D01*
X0121703Y0339276D01*
X0121809Y0339165D01*
X0121913Y0339052D01*
X0122013Y0338936D01*
X0122111Y0338818D01*
X0122205Y0338697D01*
X0122296Y0338574D01*
X0122384Y0338448D01*
X0122468Y0338320D01*
X0122550Y0338190D01*
X0122627Y0338058D01*
X0122702Y0337924D01*
X0122773Y0337788D01*
X0122840Y0337650D01*
X0122904Y0337510D01*
X0122964Y0337369D01*
X0123020Y0337227D01*
X0123073Y0337083D01*
X0123122Y0336937D01*
X0123167Y0336791D01*
X0123208Y0336643D01*
X0123245Y0336495D01*
X0123279Y0336345D01*
X0123309Y0336194D01*
X0123334Y0336043D01*
X0123356Y0335892D01*
X0123374Y0335739D01*
X0123388Y0335587D01*
X0123398Y0335434D01*
X0123404Y0335280D01*
X0123406Y0335127D01*
X0123404Y0334974D01*
X0123398Y0334820D01*
X0123388Y0334667D01*
X0123374Y0334515D01*
X0123356Y0334362D01*
X0123334Y0334211D01*
X0123309Y0334060D01*
X0123279Y0333909D01*
X0123245Y0333759D01*
X0123208Y0333611D01*
X0123167Y0333463D01*
X0123122Y0333317D01*
X0123073Y0333171D01*
X0123020Y0333027D01*
X0122964Y0332885D01*
X0122904Y0332744D01*
X0122840Y0332604D01*
X0122773Y0332466D01*
X0122702Y0332330D01*
X0122627Y0332196D01*
X0122550Y0332064D01*
X0122468Y0331934D01*
X0122384Y0331806D01*
X0122296Y0331680D01*
X0122205Y0331557D01*
X0122111Y0331436D01*
X0122013Y0331318D01*
X0121913Y0331202D01*
X0121809Y0331089D01*
X0121703Y0330978D01*
X0121594Y0330870D01*
X0121482Y0330765D01*
X0121368Y0330664D01*
X0121250Y0330565D01*
X0121131Y0330469D01*
X0121009Y0330376D01*
X0120884Y0330287D01*
X0120757Y0330200D01*
X0120628Y0330118D01*
X0120497Y0330038D01*
X0120364Y0329962D01*
X0120229Y0329889D01*
X0120092Y0329820D01*
X0119953Y0329755D01*
X0119813Y0329693D01*
X0119671Y0329635D01*
X0119528Y0329580D01*
X0119383Y0329529D01*
X0119237Y0329482D01*
X0119090Y0329439D01*
X0118942Y0329400D01*
X0118793Y0329364D01*
X0118643Y0329333D01*
X0118492Y0329305D01*
X0118341Y0329281D01*
X0118188Y0329261D01*
X0118036Y0329245D01*
X0117883Y0329233D01*
X0117730Y0329225D01*
X0117577Y0329221D01*
X0117423Y0329221D01*
X0117270Y0329225D01*
X0117117Y0329233D01*
X0116964Y0329245D01*
X0116812Y0329261D01*
X0116659Y0329281D01*
X0116508Y0329305D01*
X0116357Y0329333D01*
X0116207Y0329364D01*
X0116058Y0329400D01*
X0115910Y0329439D01*
X0115763Y0329482D01*
X0115617Y0329529D01*
X0115472Y0329580D01*
X0115329Y0329635D01*
X0115187Y0329693D01*
X0115047Y0329755D01*
X0114908Y0329820D01*
X0114771Y0329889D01*
X0114636Y0329962D01*
X0114503Y0330038D01*
X0114372Y0330118D01*
X0114243Y0330200D01*
X0114116Y0330287D01*
X0113991Y0330376D01*
X0113869Y0330469D01*
X0113750Y0330565D01*
X0113632Y0330664D01*
X0113518Y0330765D01*
X0113406Y0330870D01*
X0113297Y0330978D01*
X0113191Y0331089D01*
X0113087Y0331202D01*
X0112987Y0331318D01*
X0112889Y0331436D01*
X0112795Y0331557D01*
X0112704Y0331680D01*
X0112616Y0331806D01*
X0112532Y0331934D01*
X0112450Y0332064D01*
X0112373Y0332196D01*
X0112298Y0332330D01*
X0112227Y0332466D01*
X0112160Y0332604D01*
X0112096Y0332744D01*
X0112036Y0332885D01*
X0111980Y0333027D01*
X0111927Y0333171D01*
X0111878Y0333317D01*
X0111833Y0333463D01*
X0111792Y0333611D01*
X0111755Y0333759D01*
X0111721Y0333909D01*
X0111691Y0334060D01*
X0111666Y0334211D01*
X0111644Y0334362D01*
X0111626Y0334515D01*
X0111612Y0334667D01*
X0111602Y0334820D01*
X0111596Y0334974D01*
X0111594Y0335127D01*
D11*
X0145000Y0338652D02*
X0145000Y0331602D01*
X0165000Y0331602D02*
X0165000Y0338652D01*
X0031025Y0337627D02*
X0023975Y0337627D01*
X0023975Y0317627D02*
X0031025Y0317627D01*
X0031025Y0297627D02*
X0023975Y0297627D01*
X0023975Y0272627D02*
X0031025Y0272627D01*
X0031025Y0252627D02*
X0023975Y0252627D01*
X0023975Y0232627D02*
X0031025Y0232627D01*
X0031025Y0212627D02*
X0023975Y0212627D01*
X0023975Y0192627D02*
X0031025Y0192627D01*
X0031025Y0172627D02*
X0023975Y0172627D01*
X0023975Y0152627D02*
X0031025Y0152627D01*
X0031025Y0132627D02*
X0023975Y0132627D01*
X0023975Y0112627D02*
X0031025Y0112627D01*
X0031025Y0092627D02*
X0023975Y0092627D01*
X0023975Y0072627D02*
X0031025Y0072627D01*
X0031025Y0052627D02*
X0023975Y0052627D01*
X0275000Y0066602D02*
X0275000Y0073652D01*
X0295000Y0073652D02*
X0295000Y0066602D01*
X0376475Y0197627D02*
X0383525Y0197627D01*
X0383525Y0217627D02*
X0376475Y0217627D01*
D12*
X0224262Y0285127D03*
X0213238Y0285127D03*
X0120512Y0242627D03*
X0109488Y0242627D03*
X0080512Y0257627D03*
X0069488Y0257627D03*
X0064488Y0187627D03*
X0075512Y0187627D03*
X0078012Y0062627D03*
X0066988Y0062627D03*
X0101988Y0050127D03*
X0113012Y0050127D03*
X0151988Y0052627D03*
X0163012Y0052627D03*
D13*
X0095000Y0177115D03*
X0095000Y0188139D03*
X0105000Y0197115D03*
X0105000Y0208139D03*
X0225000Y0307115D03*
X0225000Y0318139D03*
X0287500Y0235639D03*
X0287500Y0224615D03*
X0247500Y0219615D03*
X0247500Y0230639D03*
D14*
X0232500Y0347127D03*
D15*
X0232500Y0327127D03*
D16*
X0335000Y0277627D03*
X0335000Y0237627D03*
D17*
X0115000Y0207627D03*
X0115000Y0197627D03*
X0115000Y0187627D03*
X0115000Y0177627D03*
X0085000Y0177627D03*
X0085000Y0187627D03*
X0085000Y0197627D03*
X0085000Y0207627D03*
D18*
X0160500Y0192627D03*
X0159500Y0182627D03*
X0160500Y0172627D03*
X0159500Y0162627D03*
X0160500Y0152627D03*
X0159500Y0142627D03*
X0160500Y0132627D03*
X0159500Y0122627D03*
X0160500Y0112627D03*
X0159500Y0102627D03*
X0160500Y0092627D03*
X0159500Y0082627D03*
X0174500Y0092627D03*
X0175500Y0102627D03*
X0174500Y0112627D03*
X0175500Y0122627D03*
X0174500Y0132627D03*
X0175500Y0142627D03*
X0174500Y0152627D03*
X0175500Y0162627D03*
X0174500Y0172627D03*
X0175500Y0182627D03*
X0185000Y0182127D03*
X0195000Y0183127D03*
X0205000Y0182127D03*
X0215000Y0183127D03*
X0235500Y0182627D03*
X0234500Y0172627D03*
X0235500Y0162627D03*
X0234500Y0152627D03*
X0235500Y0142627D03*
X0234500Y0132627D03*
X0235500Y0122627D03*
X0234500Y0112627D03*
X0235500Y0102627D03*
X0234500Y0092627D03*
X0235500Y0082627D03*
X0234500Y0072627D03*
X0235500Y0062627D03*
X0234500Y0052627D03*
X0249500Y0057627D03*
X0250500Y0067627D03*
X0249500Y0077627D03*
X0250500Y0087627D03*
X0249500Y0097627D03*
X0250500Y0107627D03*
X0249500Y0117627D03*
X0250500Y0127627D03*
X0249500Y0137627D03*
X0250500Y0147627D03*
X0249500Y0157627D03*
X0250500Y0167627D03*
X0175500Y0082627D03*
X0174500Y0072627D03*
X0175500Y0062627D03*
X0174500Y0052627D03*
X0135700Y0060127D03*
X0125000Y0060127D03*
X0114300Y0060127D03*
X0090500Y0052627D03*
X0089500Y0062627D03*
X0090500Y0072627D03*
X0089500Y0082627D03*
X0090500Y0092627D03*
X0319500Y0072627D03*
X0320500Y0062627D03*
X0365000Y0062627D03*
X0365000Y0072627D03*
X0365000Y0082627D03*
X0365000Y0102627D03*
X0365000Y0112627D03*
X0365000Y0122627D03*
X0365000Y0052627D03*
X0333200Y0340127D03*
X0322500Y0340127D03*
X0311800Y0340127D03*
D19*
X0319500Y0052627D03*
D20*
X0379500Y0242627D02*
X0385500Y0242627D01*
X0385500Y0252627D02*
X0379500Y0252627D01*
X0379500Y0262627D02*
X0385500Y0262627D01*
D21*
X0105000Y0188225D03*
X0095000Y0197028D03*
X0095000Y0208225D03*
X0105000Y0177028D03*
D22*
X0075598Y0197627D03*
X0064402Y0197627D03*
D23*
X0200276Y0290973D03*
X0237520Y0290973D03*
D24*
X0350000Y0342627D03*
X0380000Y0342627D03*
D25*
X0385000Y0175727D03*
X0385000Y0149527D03*
D26*
X0275000Y0257627D02*
X0270000Y0257627D01*
X0302500Y0265127D02*
X0305000Y0267627D01*
X0322500Y0295127D02*
X0322500Y0300127D01*
X0320000Y0302627D01*
X0370512Y0277627D02*
X0375000Y0272627D01*
X0380000Y0272627D01*
X0225000Y0245127D02*
X0222500Y0245127D01*
X0220000Y0247627D01*
X0205000Y0202627D02*
X0215000Y0192627D01*
X0217000Y0192627D01*
X0225000Y0184627D01*
X0225000Y0167627D01*
X0227500Y0127627D02*
X0227500Y0107627D01*
X0142500Y0065127D02*
X0132500Y0075127D01*
X0101988Y0050127D02*
X0090500Y0052627D01*
X0085500Y0047627D01*
X0070000Y0047627D01*
X0078012Y0062627D02*
X0089500Y0062627D01*
X0085000Y0077627D02*
X0080000Y0082627D01*
X0045000Y0092627D02*
X0027500Y0092627D01*
X0025000Y0092627D01*
X0027500Y0132627D02*
X0045000Y0132627D01*
X0045000Y0152627D02*
X0027500Y0152627D01*
X0027500Y0192627D02*
X0045000Y0192627D01*
X0045000Y0212627D02*
X0027500Y0212627D01*
X0062500Y0250127D02*
X0062500Y0255127D01*
X0065000Y0257627D01*
X0069488Y0257627D01*
X0069488Y0262115D01*
X0075000Y0267627D01*
X0040000Y0327627D02*
X0030000Y0327627D01*
X0040000Y0327627D02*
X0045000Y0332627D01*
X0147500Y0225127D02*
X0172500Y0225127D01*
D27*
X0172500Y0225127D03*
X0147500Y0225127D03*
X0125000Y0252627D03*
X0110000Y0262627D03*
X0102500Y0250127D03*
X0087500Y0250127D03*
X0075000Y0267627D03*
X0060000Y0277627D03*
X0050000Y0277627D03*
X0062500Y0250127D03*
X0070000Y0215127D03*
X0077500Y0205127D03*
X0045000Y0212627D03*
X0045000Y0192627D03*
X0070000Y0172627D03*
X0045000Y0152627D03*
X0045000Y0132627D03*
X0050000Y0112627D03*
X0045000Y0092627D03*
X0080000Y0082627D03*
X0105000Y0077627D03*
X0100000Y0102627D03*
X0125000Y0102627D03*
X0132500Y0110127D03*
X0125000Y0117627D03*
X0115000Y0127627D03*
X0115000Y0137627D03*
X0130000Y0147627D03*
X0140000Y0157627D03*
X0135000Y0127627D03*
X0145000Y0122627D03*
X0132500Y0075127D03*
X0142500Y0065127D03*
X0070000Y0047627D03*
X0227500Y0107627D03*
X0227500Y0127627D03*
X0225000Y0167627D03*
X0220000Y0197627D03*
X0205000Y0202627D03*
X0200000Y0197627D03*
X0250000Y0242627D03*
X0255000Y0247627D03*
X0247500Y0252627D03*
X0242500Y0257627D03*
X0235000Y0250127D03*
X0267000Y0276627D03*
X0270000Y0267627D03*
X0280000Y0267627D03*
X0290000Y0257627D03*
X0270000Y0247627D03*
X0280000Y0230127D03*
X0267000Y0298127D03*
X0260000Y0297627D03*
X0290000Y0337627D03*
X0175000Y0340127D03*
X0130000Y0337627D03*
X0047500Y0320127D03*
X0045000Y0332627D03*
X0030000Y0327627D03*
X0035000Y0307627D03*
D28*
X0047500Y0320127D01*
X0051031Y0319959D02*
X0219207Y0319959D01*
X0219207Y0318463D02*
X0219207Y0321585D01*
X0219360Y0322157D01*
X0219656Y0322670D01*
X0220075Y0323089D01*
X0220588Y0323385D01*
X0221160Y0323538D01*
X0224675Y0323538D01*
X0224675Y0318464D01*
X0225325Y0318464D01*
X0225325Y0323538D01*
X0225836Y0323538D01*
X0225250Y0324124D01*
X0225250Y0327127D01*
X0232500Y0327127D01*
X0232500Y0327127D01*
X0232500Y0334377D01*
X0229497Y0334377D01*
X0225250Y0330130D01*
X0225250Y0327127D01*
X0232500Y0327127D01*
X0232500Y0334377D01*
X0235503Y0334377D01*
X0239750Y0330130D01*
X0239750Y0327127D01*
X0232500Y0327127D01*
X0232500Y0327127D01*
X0232500Y0327127D01*
X0239750Y0327127D01*
X0239750Y0324124D01*
X0235503Y0319877D01*
X0232500Y0319877D01*
X0232500Y0327127D01*
X0232500Y0327127D01*
X0232500Y0319877D01*
X0230793Y0319877D01*
X0230793Y0318463D01*
X0225325Y0318463D01*
X0225325Y0317814D01*
X0230793Y0317814D01*
X0230793Y0314693D01*
X0230640Y0314121D01*
X0230344Y0313608D01*
X0229925Y0313189D01*
X0229412Y0312892D01*
X0228840Y0312739D01*
X0225325Y0312739D01*
X0225325Y0317814D01*
X0224675Y0317814D01*
X0219207Y0317814D01*
X0219207Y0314693D01*
X0219360Y0314121D01*
X0219656Y0313608D01*
X0220075Y0313189D01*
X0220588Y0312892D01*
X0221160Y0312739D01*
X0224675Y0312739D01*
X0224675Y0317814D01*
X0224675Y0318463D01*
X0219207Y0318463D01*
X0219207Y0317460D02*
X0050870Y0317460D01*
X0051031Y0317621D02*
X0050006Y0316596D01*
X0048212Y0316596D01*
X0038531Y0306915D01*
X0038531Y0305121D01*
X0037506Y0304096D01*
X0032494Y0304096D01*
X0031469Y0305121D01*
X0031469Y0310133D01*
X0032494Y0311158D01*
X0034288Y0311158D01*
X0043969Y0320838D01*
X0043969Y0322633D01*
X0044994Y0323658D01*
X0050006Y0323658D01*
X0051031Y0322633D01*
X0051031Y0317621D01*
X0051031Y0322457D02*
X0219533Y0322457D01*
X0224675Y0322457D02*
X0225325Y0322457D01*
X0225325Y0319959D02*
X0224675Y0319959D01*
X0224675Y0317460D02*
X0225325Y0317460D01*
X0225325Y0314962D02*
X0224675Y0314962D01*
X0220732Y0312015D02*
X0219707Y0310990D01*
X0219707Y0305994D01*
X0219290Y0305577D01*
X0212044Y0305577D01*
X0212000Y0305620D01*
X0210702Y0306158D01*
X0209298Y0306158D01*
X0208000Y0305620D01*
X0207006Y0304627D01*
X0206469Y0303329D01*
X0206469Y0301924D01*
X0207006Y0300627D01*
X0208000Y0299633D01*
X0209298Y0299096D01*
X0210702Y0299096D01*
X0212000Y0299633D01*
X0212044Y0299677D01*
X0221099Y0299677D01*
X0222183Y0300126D01*
X0223013Y0300956D01*
X0224272Y0302215D01*
X0229268Y0302215D01*
X0230293Y0303241D01*
X0230293Y0304098D01*
X0230298Y0304096D01*
X0231702Y0304096D01*
X0233000Y0304633D01*
X0233994Y0305627D01*
X0234531Y0306924D01*
X0234531Y0308329D01*
X0233994Y0309627D01*
X0233000Y0310620D01*
X0231702Y0311158D01*
X0230298Y0311158D01*
X0230175Y0311107D01*
X0229268Y0312015D01*
X0220732Y0312015D01*
X0219707Y0309965D02*
X0041580Y0309965D01*
X0044079Y0312463D02*
X0400000Y0312463D01*
X0400000Y0309965D02*
X0233656Y0309965D01*
X0234531Y0307466D02*
X0400000Y0307466D01*
X0400000Y0304968D02*
X0233334Y0304968D01*
X0229522Y0302469D02*
X0400000Y0302469D01*
X0400000Y0299971D02*
X0270531Y0299971D01*
X0270531Y0300633D02*
X0269506Y0301658D01*
X0264494Y0301658D01*
X0263469Y0300633D01*
X0263469Y0300195D01*
X0262506Y0301158D01*
X0257494Y0301158D01*
X0256469Y0300133D01*
X0256469Y0295121D01*
X0257250Y0294340D01*
X0257250Y0277080D01*
X0257669Y0276069D01*
X0266469Y0267269D01*
X0266469Y0265121D01*
X0267494Y0264096D01*
X0272506Y0264096D01*
X0273531Y0265121D01*
X0273531Y0270133D01*
X0272506Y0271158D01*
X0270358Y0271158D01*
X0268420Y0273096D01*
X0269506Y0273096D01*
X0270531Y0274121D01*
X0270531Y0279133D01*
X0269750Y0279914D01*
X0269750Y0294840D01*
X0270531Y0295621D01*
X0270531Y0300633D01*
X0270531Y0297472D02*
X0400000Y0297472D01*
X0400000Y0294974D02*
X0269884Y0294974D01*
X0269750Y0292475D02*
X0400000Y0292475D01*
X0400000Y0289977D02*
X0269750Y0289977D01*
X0269750Y0287478D02*
X0400000Y0287478D01*
X0400000Y0284980D02*
X0269750Y0284980D01*
X0269750Y0282481D02*
X0333523Y0282481D01*
X0333995Y0282677D02*
X0332139Y0281908D01*
X0330719Y0280487D01*
X0329950Y0278631D01*
X0329950Y0276622D01*
X0330719Y0274766D01*
X0332139Y0273346D01*
X0333995Y0272577D01*
X0336005Y0272577D01*
X0337861Y0273346D01*
X0339281Y0274766D01*
X0340050Y0276622D01*
X0340050Y0278631D01*
X0339281Y0280487D01*
X0337861Y0281908D01*
X0336005Y0282677D01*
X0333995Y0282677D01*
X0336477Y0282481D02*
X0400000Y0282481D01*
X0400000Y0279982D02*
X0339490Y0279982D01*
X0340050Y0277484D02*
X0400000Y0277484D01*
X0400000Y0274985D02*
X0339372Y0274985D01*
X0330628Y0274985D02*
X0270531Y0274985D01*
X0270531Y0277484D02*
X0329950Y0277484D01*
X0330510Y0279982D02*
X0269750Y0279982D01*
X0269029Y0272487D02*
X0400000Y0272487D01*
X0400000Y0269988D02*
X0283531Y0269988D01*
X0283531Y0270133D02*
X0283531Y0267985D01*
X0290358Y0261158D01*
X0292506Y0261158D01*
X0293531Y0260133D01*
X0293531Y0255121D01*
X0292506Y0254096D01*
X0287494Y0254096D01*
X0286469Y0255121D01*
X0286469Y0257269D01*
X0279642Y0264096D01*
X0277494Y0264096D01*
X0276469Y0265121D01*
X0276469Y0270133D01*
X0277494Y0271158D01*
X0282506Y0271158D01*
X0283531Y0270133D01*
X0284026Y0267490D02*
X0400000Y0267490D01*
X0400000Y0264991D02*
X0389662Y0264991D01*
X0389527Y0265318D02*
X0388191Y0266654D01*
X0386445Y0267377D01*
X0378555Y0267377D01*
X0376809Y0266654D01*
X0375473Y0265318D01*
X0374750Y0263572D01*
X0374750Y0261682D01*
X0375473Y0259936D01*
X0376809Y0258600D01*
X0378555Y0257877D01*
X0386445Y0257877D01*
X0388191Y0258600D01*
X0389527Y0259936D01*
X0390250Y0261682D01*
X0390250Y0263572D01*
X0389527Y0265318D01*
X0390250Y0262493D02*
X0400000Y0262493D01*
X0400000Y0259994D02*
X0389551Y0259994D01*
X0388191Y0256654D02*
X0386445Y0257377D01*
X0378555Y0257377D01*
X0376809Y0256654D01*
X0375473Y0255318D01*
X0374750Y0253572D01*
X0374750Y0251682D01*
X0375473Y0249936D01*
X0376809Y0248600D01*
X0378555Y0247877D01*
X0386445Y0247877D01*
X0388191Y0248600D01*
X0389527Y0249936D01*
X0390250Y0251682D01*
X0390250Y0253572D01*
X0389527Y0255318D01*
X0388191Y0256654D01*
X0389659Y0254997D02*
X0400000Y0254997D01*
X0400000Y0252499D02*
X0390250Y0252499D01*
X0389553Y0250000D02*
X0400000Y0250000D01*
X0400000Y0247502D02*
X0273531Y0247502D01*
X0273531Y0245121D02*
X0273531Y0250133D01*
X0272506Y0251158D01*
X0267494Y0251158D01*
X0266713Y0250377D01*
X0258287Y0250377D01*
X0257506Y0251158D01*
X0252494Y0251158D01*
X0251469Y0250133D01*
X0251469Y0246158D01*
X0250358Y0246158D01*
X0250250Y0246266D01*
X0250250Y0249340D01*
X0251031Y0250121D01*
X0251031Y0255133D01*
X0250006Y0256158D01*
X0246031Y0256158D01*
X0246031Y0260133D01*
X0245006Y0261158D01*
X0239994Y0261158D01*
X0238969Y0260133D01*
X0238969Y0257985D01*
X0234642Y0253658D01*
X0232494Y0253658D01*
X0231469Y0252633D01*
X0231469Y0247621D01*
X0232494Y0246596D01*
X0237506Y0246596D01*
X0238531Y0247621D01*
X0238531Y0249769D01*
X0242858Y0254096D01*
X0243969Y0254096D01*
X0243969Y0250121D01*
X0244750Y0249340D01*
X0244750Y0244580D01*
X0245169Y0243569D01*
X0245942Y0242796D01*
X0246469Y0242269D01*
X0246469Y0240121D01*
X0247494Y0239096D01*
X0252506Y0239096D01*
X0253531Y0240121D01*
X0253531Y0244096D01*
X0257506Y0244096D01*
X0258287Y0244877D01*
X0266713Y0244877D01*
X0267494Y0244096D01*
X0272506Y0244096D01*
X0273531Y0245121D01*
X0273414Y0245003D02*
X0375343Y0245003D01*
X0375473Y0245318D02*
X0374750Y0243572D01*
X0374750Y0241682D01*
X0375473Y0239936D01*
X0376809Y0238600D01*
X0378555Y0237877D01*
X0386445Y0237877D01*
X0388191Y0238600D01*
X0389527Y0239936D01*
X0390250Y0241682D01*
X0390250Y0243572D01*
X0389527Y0245318D01*
X0388191Y0246654D01*
X0386445Y0247377D01*
X0378555Y0247377D01*
X0376809Y0246654D01*
X0375473Y0245318D01*
X0374750Y0242505D02*
X0336420Y0242505D01*
X0336005Y0242677D02*
X0333995Y0242677D01*
X0332139Y0241908D01*
X0330719Y0240487D01*
X0329950Y0238631D01*
X0329950Y0236622D01*
X0330719Y0234766D01*
X0332139Y0233346D01*
X0333995Y0232577D01*
X0336005Y0232577D01*
X0337861Y0233346D01*
X0339281Y0234766D01*
X0340050Y0236622D01*
X0340050Y0238631D01*
X0339281Y0240487D01*
X0337861Y0241908D01*
X0336005Y0242677D01*
X0333580Y0242505D02*
X0253531Y0242505D01*
X0253416Y0240006D02*
X0282062Y0240006D01*
X0282156Y0240170D02*
X0281860Y0239657D01*
X0281707Y0239085D01*
X0281707Y0235963D01*
X0287175Y0235963D01*
X0287175Y0235314D01*
X0281707Y0235314D01*
X0281707Y0233658D01*
X0277494Y0233658D01*
X0276469Y0232633D01*
X0276469Y0230127D01*
X0252793Y0230127D01*
X0252793Y0234513D01*
X0251768Y0235538D01*
X0243232Y0235538D01*
X0242207Y0234513D01*
X0242207Y0233127D01*
X0241985Y0233127D01*
X0240702Y0233658D01*
X0239298Y0233658D01*
X0238000Y0233120D01*
X0237006Y0232127D01*
X0236469Y0230829D01*
X0236469Y0230127D01*
X0207500Y0230127D01*
X0195000Y0242627D01*
X0155000Y0242627D01*
X0150000Y0247627D01*
X0150000Y0262627D01*
X0135000Y0277627D01*
X0063531Y0277627D01*
X0063531Y0280133D01*
X0062506Y0281158D01*
X0057494Y0281158D01*
X0056963Y0280627D01*
X0053037Y0280627D01*
X0052506Y0281158D01*
X0047494Y0281158D01*
X0046469Y0280133D01*
X0046469Y0277627D01*
X0032738Y0277627D01*
X0032074Y0277902D01*
X0022926Y0277902D01*
X0022262Y0277627D01*
X0010000Y0277627D01*
X0010000Y0352627D01*
X0228454Y0352627D01*
X0226778Y0350950D01*
X0225750Y0348470D01*
X0225750Y0345784D01*
X0226778Y0343303D01*
X0228676Y0341405D01*
X0231157Y0340377D01*
X0233843Y0340377D01*
X0236324Y0341405D01*
X0238222Y0343303D01*
X0239250Y0345784D01*
X0239250Y0348470D01*
X0238222Y0350950D01*
X0236546Y0352627D01*
X0400000Y0352627D01*
X0400000Y0107627D01*
X0367170Y0107627D01*
X0368087Y0108007D01*
X0369620Y0109540D01*
X0370450Y0111543D01*
X0370450Y0113711D01*
X0369620Y0115714D01*
X0368087Y0117247D01*
X0367790Y0117370D01*
X0368118Y0117538D01*
X0368876Y0118088D01*
X0369538Y0118751D01*
X0370089Y0119508D01*
X0370514Y0120343D01*
X0370803Y0121234D01*
X0370950Y0122159D01*
X0370950Y0122627D01*
X0370950Y0123095D01*
X0370803Y0124020D01*
X0370514Y0124911D01*
X0370089Y0125745D01*
X0369538Y0126503D01*
X0368876Y0127165D01*
X0368118Y0127716D01*
X0367284Y0128141D01*
X0366393Y0128430D01*
X0365468Y0128577D01*
X0365000Y0128577D01*
X0365000Y0122627D01*
X0365000Y0122627D01*
X0365000Y0128577D01*
X0364532Y0128577D01*
X0363607Y0128430D01*
X0362716Y0128141D01*
X0362500Y0128031D01*
X0362500Y0144835D01*
X0363378Y0144471D01*
X0366622Y0144471D01*
X0369620Y0145713D01*
X0371914Y0148007D01*
X0373155Y0151005D01*
X0373155Y0154249D01*
X0371914Y0157247D01*
X0369620Y0159541D01*
X0366622Y0160782D01*
X0363378Y0160782D01*
X0362500Y0160419D01*
X0362500Y0195127D01*
X0327500Y0230127D01*
X0283531Y0230127D01*
X0283531Y0230274D01*
X0283660Y0230239D01*
X0287175Y0230239D01*
X0287175Y0235314D01*
X0287825Y0235314D01*
X0287825Y0235963D01*
X0293293Y0235963D01*
X0293293Y0239085D01*
X0293140Y0239657D01*
X0292844Y0240170D01*
X0292425Y0240589D01*
X0291912Y0240885D01*
X0291340Y0241038D01*
X0287825Y0241038D01*
X0287825Y0235964D01*
X0287175Y0235964D01*
X0287175Y0241038D01*
X0283660Y0241038D01*
X0283088Y0240885D01*
X0282575Y0240589D01*
X0282156Y0240170D01*
X0281707Y0237508D02*
X0200119Y0237508D01*
X0197621Y0240006D02*
X0246584Y0240006D01*
X0246233Y0242505D02*
X0195122Y0242505D01*
X0190000Y0250633D02*
X0190994Y0251627D01*
X0191531Y0252924D01*
X0191531Y0254329D01*
X0190994Y0255627D01*
X0190000Y0256620D01*
X0189563Y0256802D01*
X0183175Y0263190D01*
X0182994Y0263627D01*
X0182000Y0264620D01*
X0180702Y0265158D01*
X0179298Y0265158D01*
X0178000Y0264620D01*
X0177006Y0263627D01*
X0176469Y0262329D01*
X0176469Y0260924D01*
X0177006Y0259627D01*
X0178000Y0258633D01*
X0178437Y0258452D01*
X0184825Y0252064D01*
X0185006Y0251627D01*
X0186000Y0250633D01*
X0187298Y0250096D01*
X0188702Y0250096D01*
X0190000Y0250633D01*
X0191355Y0252499D02*
X0231469Y0252499D01*
X0231469Y0250000D02*
X0150000Y0250000D01*
X0150000Y0252499D02*
X0184390Y0252499D01*
X0181892Y0254997D02*
X0150000Y0254997D01*
X0150000Y0257496D02*
X0179393Y0257496D01*
X0176854Y0259994D02*
X0150000Y0259994D01*
X0150000Y0262493D02*
X0176537Y0262493D01*
X0178896Y0264991D02*
X0147635Y0264991D01*
X0145137Y0267490D02*
X0266248Y0267490D01*
X0266598Y0264991D02*
X0181104Y0264991D01*
X0183872Y0262493D02*
X0281245Y0262493D01*
X0283743Y0259994D02*
X0246031Y0259994D01*
X0246031Y0257496D02*
X0286242Y0257496D01*
X0286592Y0254997D02*
X0251031Y0254997D01*
X0251031Y0252499D02*
X0374750Y0252499D01*
X0375341Y0254997D02*
X0293408Y0254997D01*
X0293531Y0257496D02*
X0400000Y0257496D01*
X0400000Y0245003D02*
X0389657Y0245003D01*
X0390250Y0242505D02*
X0400000Y0242505D01*
X0400000Y0240006D02*
X0389556Y0240006D01*
X0400000Y0237508D02*
X0340050Y0237508D01*
X0339480Y0240006D02*
X0375444Y0240006D01*
X0375447Y0250000D02*
X0273531Y0250000D01*
X0287175Y0240006D02*
X0287825Y0240006D01*
X0287825Y0237508D02*
X0287175Y0237508D01*
X0287825Y0235314D02*
X0293293Y0235314D01*
X0293293Y0232193D01*
X0293140Y0231621D01*
X0292844Y0231108D01*
X0292425Y0230689D01*
X0291912Y0230392D01*
X0291340Y0230239D01*
X0287825Y0230239D01*
X0287825Y0235314D01*
X0287825Y0235009D02*
X0287175Y0235009D01*
X0287175Y0232511D02*
X0287825Y0232511D01*
X0281707Y0235009D02*
X0252297Y0235009D01*
X0252793Y0232511D02*
X0276469Y0232511D01*
X0280000Y0230127D02*
X0280000Y0227627D01*
X0285000Y0222627D01*
X0285512Y0222627D01*
X0287500Y0224615D01*
X0286322Y0219715D02*
X0291768Y0219715D01*
X0292793Y0220741D01*
X0292793Y0222627D01*
X0325000Y0222627D01*
X0355000Y0192627D01*
X0355000Y0097627D01*
X0362830Y0097627D01*
X0363916Y0097177D01*
X0366084Y0097177D01*
X0367170Y0097627D01*
X0401451Y0097627D01*
X0401451Y0039877D01*
X0007250Y0039877D01*
X0007250Y0267627D01*
X0022262Y0267627D01*
X0022926Y0267352D01*
X0032074Y0267352D01*
X0032738Y0267627D01*
X0069697Y0267627D01*
X0066309Y0264239D01*
X0065763Y0262920D01*
X0065614Y0262920D01*
X0064589Y0261895D01*
X0064589Y0261377D01*
X0064254Y0261377D01*
X0062876Y0260806D01*
X0061821Y0259751D01*
X0059321Y0257251D01*
X0058750Y0255873D01*
X0058750Y0249381D01*
X0058969Y0248852D01*
X0058969Y0247621D01*
X0059994Y0246596D01*
X0061226Y0246596D01*
X0061754Y0246377D01*
X0063246Y0246377D01*
X0063774Y0246596D01*
X0065006Y0246596D01*
X0066031Y0247621D01*
X0066031Y0248852D01*
X0066250Y0249381D01*
X0066250Y0252334D01*
X0073363Y0252334D01*
X0074388Y0253359D01*
X0074388Y0261711D01*
X0076772Y0264096D01*
X0077506Y0264096D01*
X0078531Y0265121D01*
X0078531Y0266352D01*
X0078750Y0266881D01*
X0078750Y0267627D01*
X0130000Y0267627D01*
X0140000Y0257627D01*
X0140000Y0242627D01*
X0150000Y0232627D01*
X0190000Y0232627D01*
X0200000Y0222627D01*
X0241707Y0222627D01*
X0241707Y0219940D01*
X0247175Y0219940D01*
X0247175Y0219290D01*
X0247825Y0219290D01*
X0247825Y0214215D01*
X0251340Y0214215D01*
X0251912Y0214369D01*
X0252425Y0214665D01*
X0252844Y0215084D01*
X0253140Y0215597D01*
X0253293Y0216169D01*
X0253293Y0219290D01*
X0247825Y0219290D01*
X0247825Y0219940D01*
X0253293Y0219940D01*
X0253293Y0222627D01*
X0280757Y0222627D01*
X0282207Y0221178D01*
X0282207Y0220741D01*
X0283232Y0219715D01*
X0284189Y0219715D01*
X0284403Y0219627D01*
X0286109Y0219627D01*
X0286322Y0219715D01*
X0282929Y0220018D02*
X0253293Y0220018D01*
X0253293Y0217520D02*
X0330107Y0217520D01*
X0327609Y0220018D02*
X0292071Y0220018D01*
X0292793Y0222517D02*
X0325110Y0222517D01*
X0330113Y0227514D02*
X0400000Y0227514D01*
X0400000Y0230012D02*
X0327615Y0230012D01*
X0332612Y0225015D02*
X0400000Y0225015D01*
X0400000Y0222517D02*
X0386620Y0222517D01*
X0386552Y0222566D02*
X0385742Y0222979D01*
X0384877Y0223260D01*
X0383980Y0223402D01*
X0380000Y0223402D01*
X0380000Y0217627D01*
X0380000Y0217627D01*
X0380000Y0223402D01*
X0376020Y0223402D01*
X0375123Y0223260D01*
X0374258Y0222979D01*
X0373448Y0222566D01*
X0372713Y0222032D01*
X0372070Y0221389D01*
X0371536Y0220654D01*
X0371123Y0219844D01*
X0370842Y0218979D01*
X0370700Y0218081D01*
X0370700Y0217627D01*
X0380000Y0217627D01*
X0389300Y0217627D01*
X0389300Y0218081D01*
X0389158Y0218979D01*
X0388877Y0219844D01*
X0388464Y0220654D01*
X0387930Y0221389D01*
X0387287Y0222032D01*
X0386552Y0222566D01*
X0388788Y0220018D02*
X0400000Y0220018D01*
X0400000Y0217520D02*
X0389300Y0217520D01*
X0389300Y0217627D02*
X0380000Y0217627D01*
X0380000Y0217627D01*
X0380000Y0217627D01*
X0370700Y0217627D01*
X0370700Y0217172D01*
X0370842Y0216275D01*
X0371123Y0215410D01*
X0371536Y0214600D01*
X0372070Y0213865D01*
X0372713Y0213222D01*
X0373448Y0212688D01*
X0374258Y0212275D01*
X0375123Y0211994D01*
X0376020Y0211852D01*
X0380000Y0211852D01*
X0383980Y0211852D01*
X0384877Y0211994D01*
X0385742Y0212275D01*
X0386552Y0212688D01*
X0387287Y0213222D01*
X0387930Y0213865D01*
X0388464Y0214600D01*
X0388877Y0215410D01*
X0389158Y0216275D01*
X0389300Y0217172D01*
X0389300Y0217627D01*
X0388679Y0215021D02*
X0400000Y0215021D01*
X0400000Y0212523D02*
X0386228Y0212523D01*
X0380000Y0212523D02*
X0380000Y0212523D01*
X0380000Y0211852D02*
X0380000Y0217627D01*
X0380000Y0217627D01*
X0380000Y0211852D01*
X0380000Y0215021D02*
X0380000Y0215021D01*
X0380000Y0217520D02*
X0380000Y0217520D01*
X0380000Y0220018D02*
X0380000Y0220018D01*
X0380000Y0222517D02*
X0380000Y0222517D01*
X0373380Y0222517D02*
X0335110Y0222517D01*
X0337609Y0220018D02*
X0371212Y0220018D01*
X0370700Y0217520D02*
X0340107Y0217520D01*
X0342606Y0215021D02*
X0371321Y0215021D01*
X0373772Y0212523D02*
X0345104Y0212523D01*
X0347603Y0210024D02*
X0400000Y0210024D01*
X0400000Y0207526D02*
X0350101Y0207526D01*
X0352600Y0205027D02*
X0400000Y0205027D01*
X0400000Y0202529D02*
X0385475Y0202529D01*
X0384574Y0202902D02*
X0375426Y0202902D01*
X0373487Y0202099D01*
X0372003Y0200615D01*
X0371200Y0198676D01*
X0371200Y0196578D01*
X0372003Y0194639D01*
X0373487Y0193155D01*
X0375426Y0192352D01*
X0375750Y0192352D01*
X0375750Y0179881D01*
X0376397Y0178319D01*
X0377050Y0177666D01*
X0377050Y0171952D01*
X0378075Y0170927D01*
X0391925Y0170927D01*
X0392950Y0171952D01*
X0392950Y0179502D01*
X0391925Y0180527D01*
X0386210Y0180527D01*
X0384250Y0182487D01*
X0384250Y0192352D01*
X0384574Y0192352D01*
X0386513Y0193155D01*
X0387997Y0194639D01*
X0388800Y0196578D01*
X0388800Y0198676D01*
X0387997Y0200615D01*
X0386513Y0202099D01*
X0384574Y0202902D01*
X0388239Y0200030D02*
X0400000Y0200030D01*
X0400000Y0197532D02*
X0388800Y0197532D01*
X0388160Y0195033D02*
X0400000Y0195033D01*
X0400000Y0192535D02*
X0385015Y0192535D01*
X0384250Y0190036D02*
X0400000Y0190036D01*
X0400000Y0187538D02*
X0384250Y0187538D01*
X0384250Y0185039D02*
X0400000Y0185039D01*
X0400000Y0182541D02*
X0384250Y0182541D01*
X0375750Y0182541D02*
X0362500Y0182541D01*
X0362500Y0185039D02*
X0375750Y0185039D01*
X0375750Y0187538D02*
X0362500Y0187538D01*
X0362500Y0190036D02*
X0375750Y0190036D01*
X0374985Y0192535D02*
X0362500Y0192535D01*
X0362500Y0195033D02*
X0371840Y0195033D01*
X0371200Y0197532D02*
X0360095Y0197532D01*
X0357597Y0200030D02*
X0371761Y0200030D01*
X0374525Y0202529D02*
X0355098Y0202529D01*
X0350095Y0197532D02*
X0224838Y0197532D01*
X0223531Y0198838D02*
X0223531Y0200133D01*
X0222506Y0201158D01*
X0217494Y0201158D01*
X0216469Y0200133D01*
X0216469Y0196461D01*
X0208531Y0204399D01*
X0208531Y0205133D01*
X0207506Y0206158D01*
X0206274Y0206158D01*
X0205746Y0206377D01*
X0204254Y0206377D01*
X0203726Y0206158D01*
X0202494Y0206158D01*
X0201469Y0205133D01*
X0201469Y0203901D01*
X0201250Y0203373D01*
X0201250Y0201881D01*
X0201469Y0201352D01*
X0201469Y0201158D01*
X0197494Y0201158D01*
X0196469Y0200133D01*
X0196469Y0198338D01*
X0193257Y0195127D01*
X0165363Y0195127D01*
X0165120Y0195714D01*
X0163587Y0197247D01*
X0161584Y0198077D01*
X0159416Y0198077D01*
X0157413Y0197247D01*
X0155880Y0195714D01*
X0155050Y0193711D01*
X0155050Y0191543D01*
X0155880Y0189540D01*
X0157413Y0188007D01*
X0157830Y0187834D01*
X0156413Y0187247D01*
X0154880Y0185714D01*
X0154050Y0183711D01*
X0154050Y0181543D01*
X0154880Y0179540D01*
X0156413Y0178007D01*
X0157830Y0177420D01*
X0157413Y0177247D01*
X0155880Y0175714D01*
X0155844Y0175627D01*
X0154403Y0175627D01*
X0153301Y0175170D01*
X0139288Y0161158D01*
X0137494Y0161158D01*
X0136469Y0160133D01*
X0136469Y0155121D01*
X0137494Y0154096D01*
X0142506Y0154096D01*
X0143531Y0155121D01*
X0143531Y0156915D01*
X0156018Y0169402D01*
X0157413Y0168007D01*
X0157830Y0167834D01*
X0156413Y0167247D01*
X0154880Y0165714D01*
X0154050Y0163711D01*
X0154050Y0161543D01*
X0154880Y0159540D01*
X0156413Y0158007D01*
X0157830Y0157420D01*
X0157413Y0157247D01*
X0155880Y0155714D01*
X0155050Y0153711D01*
X0155050Y0151543D01*
X0155880Y0149540D01*
X0157413Y0148007D01*
X0157830Y0147834D01*
X0156413Y0147247D01*
X0154880Y0145714D01*
X0154050Y0143711D01*
X0154050Y0141543D01*
X0154880Y0139540D01*
X0156413Y0138007D01*
X0157830Y0137420D01*
X0157413Y0137247D01*
X0155880Y0135714D01*
X0155050Y0133711D01*
X0155050Y0131543D01*
X0155880Y0129540D01*
X0157413Y0128007D01*
X0157830Y0127834D01*
X0156413Y0127247D01*
X0154880Y0125714D01*
X0154050Y0123711D01*
X0154050Y0121543D01*
X0154880Y0119540D01*
X0156413Y0118007D01*
X0157830Y0117420D01*
X0157413Y0117247D01*
X0155880Y0115714D01*
X0155050Y0113711D01*
X0155050Y0111543D01*
X0155880Y0109540D01*
X0157413Y0108007D01*
X0157830Y0107834D01*
X0156413Y0107247D01*
X0154880Y0105714D01*
X0154050Y0103711D01*
X0154050Y0101543D01*
X0154880Y0099540D01*
X0156413Y0098007D01*
X0157830Y0097420D01*
X0157413Y0097247D01*
X0155880Y0095714D01*
X0155050Y0093711D01*
X0155050Y0091543D01*
X0155880Y0089540D01*
X0157413Y0088007D01*
X0157830Y0087834D01*
X0156413Y0087247D01*
X0154880Y0085714D01*
X0154050Y0083711D01*
X0154050Y0081543D01*
X0154880Y0079540D01*
X0156413Y0078007D01*
X0158416Y0077177D01*
X0160584Y0077177D01*
X0162587Y0078007D01*
X0164120Y0079540D01*
X0164950Y0081543D01*
X0164950Y0083711D01*
X0164120Y0085714D01*
X0162587Y0087247D01*
X0162170Y0087420D01*
X0163587Y0088007D01*
X0165120Y0089540D01*
X0165950Y0091543D01*
X0165950Y0093711D01*
X0165120Y0095714D01*
X0163587Y0097247D01*
X0162170Y0097834D01*
X0162587Y0098007D01*
X0164120Y0099540D01*
X0164950Y0101543D01*
X0164950Y0103711D01*
X0164120Y0105714D01*
X0162587Y0107247D01*
X0162170Y0107420D01*
X0163587Y0108007D01*
X0165120Y0109540D01*
X0165950Y0111543D01*
X0165950Y0113711D01*
X0165120Y0115714D01*
X0163587Y0117247D01*
X0162170Y0117834D01*
X0162587Y0118007D01*
X0164120Y0119540D01*
X0164950Y0121543D01*
X0164950Y0123711D01*
X0164120Y0125714D01*
X0162587Y0127247D01*
X0162170Y0127420D01*
X0163587Y0128007D01*
X0165120Y0129540D01*
X0165950Y0131543D01*
X0165950Y0133711D01*
X0165120Y0135714D01*
X0163587Y0137247D01*
X0162170Y0137834D01*
X0162587Y0138007D01*
X0164120Y0139540D01*
X0164950Y0141543D01*
X0164950Y0143711D01*
X0164120Y0145714D01*
X0162587Y0147247D01*
X0162170Y0147420D01*
X0163587Y0148007D01*
X0165120Y0149540D01*
X0165950Y0151543D01*
X0165950Y0153711D01*
X0165120Y0155714D01*
X0163587Y0157247D01*
X0162170Y0157834D01*
X0162587Y0158007D01*
X0164120Y0159540D01*
X0164950Y0161543D01*
X0164950Y0163711D01*
X0164120Y0165714D01*
X0162587Y0167247D01*
X0162170Y0167420D01*
X0163587Y0168007D01*
X0165120Y0169540D01*
X0165950Y0171543D01*
X0165950Y0173711D01*
X0165120Y0175714D01*
X0163587Y0177247D01*
X0162170Y0177834D01*
X0162587Y0178007D01*
X0164120Y0179540D01*
X0164950Y0181543D01*
X0164950Y0183711D01*
X0164120Y0185714D01*
X0162587Y0187247D01*
X0162170Y0187420D01*
X0163587Y0188007D01*
X0164707Y0189127D01*
X0195097Y0189127D01*
X0196199Y0189584D01*
X0197043Y0190428D01*
X0200712Y0194096D01*
X0202506Y0194096D01*
X0203531Y0195121D01*
X0203531Y0198792D01*
X0211821Y0190503D01*
X0212876Y0189448D01*
X0214254Y0188877D01*
X0215447Y0188877D01*
X0215747Y0188577D01*
X0213916Y0188577D01*
X0211913Y0187747D01*
X0210380Y0186214D01*
X0210019Y0185342D01*
X0209538Y0186003D01*
X0208876Y0186665D01*
X0208118Y0187216D01*
X0207284Y0187641D01*
X0206393Y0187930D01*
X0205468Y0188077D01*
X0205000Y0188077D01*
X0205000Y0182127D01*
X0205000Y0182127D01*
X0205000Y0188077D01*
X0204532Y0188077D01*
X0203607Y0187930D01*
X0202716Y0187641D01*
X0201882Y0187216D01*
X0201124Y0186665D01*
X0200462Y0186003D01*
X0199981Y0185342D01*
X0199620Y0186214D01*
X0198087Y0187747D01*
X0196084Y0188577D01*
X0193916Y0188577D01*
X0191913Y0187747D01*
X0190380Y0186214D01*
X0189793Y0184797D01*
X0189620Y0185214D01*
X0188087Y0186747D01*
X0186084Y0187577D01*
X0183916Y0187577D01*
X0181913Y0186747D01*
X0180380Y0185214D01*
X0180354Y0185151D01*
X0180120Y0185714D01*
X0178587Y0187247D01*
X0176584Y0188077D01*
X0174416Y0188077D01*
X0172413Y0187247D01*
X0170880Y0185714D01*
X0170050Y0183711D01*
X0170050Y0181543D01*
X0170880Y0179540D01*
X0172413Y0178007D01*
X0172830Y0177834D01*
X0171413Y0177247D01*
X0169880Y0175714D01*
X0169050Y0173711D01*
X0169050Y0171543D01*
X0169880Y0169540D01*
X0171413Y0168007D01*
X0172830Y0167420D01*
X0172413Y0167247D01*
X0170880Y0165714D01*
X0170050Y0163711D01*
X0170050Y0161543D01*
X0170880Y0159540D01*
X0172413Y0158007D01*
X0172830Y0157834D01*
X0171413Y0157247D01*
X0169880Y0155714D01*
X0169050Y0153711D01*
X0169050Y0151543D01*
X0169880Y0149540D01*
X0171413Y0148007D01*
X0172830Y0147420D01*
X0172413Y0147247D01*
X0170880Y0145714D01*
X0170050Y0143711D01*
X0170050Y0141543D01*
X0170880Y0139540D01*
X0172413Y0138007D01*
X0172830Y0137834D01*
X0171413Y0137247D01*
X0169880Y0135714D01*
X0169050Y0133711D01*
X0169050Y0131543D01*
X0169880Y0129540D01*
X0171413Y0128007D01*
X0172830Y0127420D01*
X0172413Y0127247D01*
X0170880Y0125714D01*
X0170050Y0123711D01*
X0170050Y0121543D01*
X0170880Y0119540D01*
X0172413Y0118007D01*
X0172830Y0117834D01*
X0171413Y0117247D01*
X0169880Y0115714D01*
X0169050Y0113711D01*
X0169050Y0111543D01*
X0169880Y0109540D01*
X0171413Y0108007D01*
X0172830Y0107420D01*
X0172413Y0107247D01*
X0170880Y0105714D01*
X0170050Y0103711D01*
X0170050Y0101543D01*
X0170880Y0099540D01*
X0172413Y0098007D01*
X0172830Y0097834D01*
X0171413Y0097247D01*
X0169880Y0095714D01*
X0169050Y0093711D01*
X0169050Y0091543D01*
X0169880Y0089540D01*
X0171413Y0088007D01*
X0172830Y0087420D01*
X0172413Y0087247D01*
X0170880Y0085714D01*
X0170050Y0083711D01*
X0170050Y0081543D01*
X0170880Y0079540D01*
X0172413Y0078007D01*
X0172830Y0077834D01*
X0171413Y0077247D01*
X0169880Y0075714D01*
X0169050Y0073711D01*
X0169050Y0071543D01*
X0169880Y0069540D01*
X0171413Y0068007D01*
X0172830Y0067420D01*
X0172413Y0067247D01*
X0170880Y0065714D01*
X0170050Y0063711D01*
X0170050Y0061543D01*
X0170880Y0059540D01*
X0172413Y0058007D01*
X0172830Y0057834D01*
X0171413Y0057247D01*
X0171043Y0056877D01*
X0167911Y0056877D01*
X0167911Y0056895D01*
X0166886Y0057920D01*
X0159137Y0057920D01*
X0158112Y0056895D01*
X0158112Y0048359D01*
X0159137Y0047334D01*
X0166886Y0047334D01*
X0167911Y0048359D01*
X0167911Y0048377D01*
X0171043Y0048377D01*
X0171413Y0048007D01*
X0173416Y0047177D01*
X0175584Y0047177D01*
X0177587Y0048007D01*
X0179120Y0049540D01*
X0179950Y0051543D01*
X0179950Y0053711D01*
X0179120Y0055714D01*
X0177587Y0057247D01*
X0177170Y0057420D01*
X0178587Y0058007D01*
X0180120Y0059540D01*
X0180950Y0061543D01*
X0180950Y0063711D01*
X0180120Y0065714D01*
X0178587Y0067247D01*
X0177170Y0067834D01*
X0177587Y0068007D01*
X0179120Y0069540D01*
X0179950Y0071543D01*
X0179950Y0073711D01*
X0179120Y0075714D01*
X0177587Y0077247D01*
X0177170Y0077420D01*
X0178587Y0078007D01*
X0180120Y0079540D01*
X0180950Y0081543D01*
X0180950Y0083711D01*
X0180120Y0085714D01*
X0178587Y0087247D01*
X0177170Y0087834D01*
X0177587Y0088007D01*
X0179120Y0089540D01*
X0179950Y0091543D01*
X0179950Y0093711D01*
X0179120Y0095714D01*
X0177587Y0097247D01*
X0177170Y0097420D01*
X0178587Y0098007D01*
X0180120Y0099540D01*
X0180950Y0101543D01*
X0180950Y0103711D01*
X0180120Y0105714D01*
X0178587Y0107247D01*
X0177170Y0107834D01*
X0177587Y0108007D01*
X0179120Y0109540D01*
X0179950Y0111543D01*
X0179950Y0113711D01*
X0179120Y0115714D01*
X0177587Y0117247D01*
X0177170Y0117420D01*
X0178587Y0118007D01*
X0180120Y0119540D01*
X0180950Y0121543D01*
X0180950Y0123711D01*
X0180120Y0125714D01*
X0178587Y0127247D01*
X0177170Y0127834D01*
X0177587Y0128007D01*
X0179120Y0129540D01*
X0179950Y0131543D01*
X0179950Y0133711D01*
X0179120Y0135714D01*
X0177587Y0137247D01*
X0177170Y0137420D01*
X0178587Y0138007D01*
X0180120Y0139540D01*
X0180950Y0141543D01*
X0180950Y0143711D01*
X0180120Y0145714D01*
X0178587Y0147247D01*
X0177170Y0147834D01*
X0177587Y0148007D01*
X0179120Y0149540D01*
X0179950Y0151543D01*
X0179950Y0153711D01*
X0179120Y0155714D01*
X0177587Y0157247D01*
X0177170Y0157420D01*
X0178587Y0158007D01*
X0180120Y0159540D01*
X0180950Y0161543D01*
X0180950Y0163711D01*
X0180120Y0165714D01*
X0178587Y0167247D01*
X0177170Y0167834D01*
X0177587Y0168007D01*
X0179120Y0169540D01*
X0179950Y0171543D01*
X0179950Y0173711D01*
X0179120Y0175714D01*
X0177587Y0177247D01*
X0177170Y0177420D01*
X0178587Y0178007D01*
X0180120Y0179540D01*
X0180146Y0179603D01*
X0180380Y0179040D01*
X0181913Y0177507D01*
X0183916Y0176677D01*
X0186084Y0176677D01*
X0188087Y0177507D01*
X0189620Y0179040D01*
X0190207Y0180456D01*
X0190380Y0180040D01*
X0191913Y0178507D01*
X0193916Y0177677D01*
X0196084Y0177677D01*
X0198087Y0178507D01*
X0199471Y0179890D01*
X0199486Y0179843D01*
X0199911Y0179008D01*
X0200462Y0178251D01*
X0201124Y0177588D01*
X0201882Y0177038D01*
X0202716Y0176613D01*
X0203607Y0176323D01*
X0204532Y0176177D01*
X0205000Y0176177D01*
X0205468Y0176177D01*
X0206393Y0176323D01*
X0207284Y0176613D01*
X0208118Y0177038D01*
X0208876Y0177588D01*
X0209538Y0178251D01*
X0210089Y0179008D01*
X0210514Y0179843D01*
X0210529Y0179890D01*
X0211913Y0178507D01*
X0213916Y0177677D01*
X0216084Y0177677D01*
X0218087Y0178507D01*
X0219620Y0180040D01*
X0220450Y0182043D01*
X0220450Y0183874D01*
X0221250Y0183074D01*
X0221250Y0166881D01*
X0221469Y0166352D01*
X0221469Y0165121D01*
X0222494Y0164096D01*
X0223726Y0164096D01*
X0224254Y0163877D01*
X0225746Y0163877D01*
X0226274Y0164096D01*
X0227506Y0164096D01*
X0228531Y0165121D01*
X0228531Y0166352D01*
X0228750Y0166881D01*
X0228750Y0185134D01*
X0230086Y0183798D01*
X0230050Y0183711D01*
X0230050Y0181543D01*
X0230880Y0179540D01*
X0232413Y0178007D01*
X0232830Y0177834D01*
X0231413Y0177247D01*
X0229880Y0175714D01*
X0229050Y0173711D01*
X0229050Y0171543D01*
X0229880Y0169540D01*
X0231413Y0168007D01*
X0232830Y0167420D01*
X0232413Y0167247D01*
X0230880Y0165714D01*
X0230050Y0163711D01*
X0230050Y0161543D01*
X0230880Y0159540D01*
X0232413Y0158007D01*
X0232830Y0157834D01*
X0231413Y0157247D01*
X0229880Y0155714D01*
X0229050Y0153711D01*
X0229050Y0151543D01*
X0229880Y0149540D01*
X0231413Y0148007D01*
X0232830Y0147420D01*
X0232413Y0147247D01*
X0230880Y0145714D01*
X0230050Y0143711D01*
X0230050Y0141543D01*
X0230880Y0139540D01*
X0232413Y0138007D01*
X0232830Y0137834D01*
X0231413Y0137247D01*
X0229880Y0135714D01*
X0229050Y0133711D01*
X0229050Y0131543D01*
X0229209Y0131158D01*
X0228774Y0131158D01*
X0228246Y0131377D01*
X0226754Y0131377D01*
X0226226Y0131158D01*
X0224994Y0131158D01*
X0223969Y0130133D01*
X0223969Y0128901D01*
X0223750Y0128373D01*
X0223750Y0106881D01*
X0223969Y0106352D01*
X0223969Y0105121D01*
X0224994Y0104096D01*
X0226226Y0104096D01*
X0226754Y0103877D01*
X0228246Y0103877D01*
X0228774Y0104096D01*
X0230006Y0104096D01*
X0230353Y0104443D01*
X0230050Y0103711D01*
X0230050Y0101543D01*
X0230880Y0099540D01*
X0232413Y0098007D01*
X0232830Y0097834D01*
X0231413Y0097247D01*
X0229880Y0095714D01*
X0229050Y0093711D01*
X0229050Y0091543D01*
X0229880Y0089540D01*
X0231413Y0088007D01*
X0232830Y0087420D01*
X0232413Y0087247D01*
X0230880Y0085714D01*
X0230050Y0083711D01*
X0230050Y0081543D01*
X0230880Y0079540D01*
X0232413Y0078007D01*
X0232830Y0077834D01*
X0231413Y0077247D01*
X0229880Y0075714D01*
X0229050Y0073711D01*
X0229050Y0071543D01*
X0229880Y0069540D01*
X0231413Y0068007D01*
X0232830Y0067420D01*
X0232413Y0067247D01*
X0230880Y0065714D01*
X0230050Y0063711D01*
X0230050Y0061543D01*
X0230880Y0059540D01*
X0232263Y0058156D01*
X0232216Y0058141D01*
X0231382Y0057716D01*
X0230624Y0057165D01*
X0229962Y0056503D01*
X0229411Y0055745D01*
X0228986Y0054911D01*
X0228697Y0054020D01*
X0228550Y0053095D01*
X0228550Y0052627D01*
X0234500Y0052627D01*
X0240450Y0052627D01*
X0240450Y0053095D01*
X0240303Y0054020D01*
X0240014Y0054911D01*
X0239589Y0055745D01*
X0239038Y0056503D01*
X0238376Y0057165D01*
X0237715Y0057645D01*
X0238587Y0058007D01*
X0240120Y0059540D01*
X0240950Y0061543D01*
X0240950Y0063711D01*
X0240120Y0065714D01*
X0238587Y0067247D01*
X0237170Y0067834D01*
X0237587Y0068007D01*
X0239120Y0069540D01*
X0239950Y0071543D01*
X0239950Y0073711D01*
X0239120Y0075714D01*
X0237587Y0077247D01*
X0237170Y0077420D01*
X0238587Y0078007D01*
X0240120Y0079540D01*
X0240950Y0081543D01*
X0240950Y0083711D01*
X0240120Y0085714D01*
X0238587Y0087247D01*
X0237170Y0087834D01*
X0237587Y0088007D01*
X0239120Y0089540D01*
X0239950Y0091543D01*
X0239950Y0093711D01*
X0239120Y0095714D01*
X0237587Y0097247D01*
X0237170Y0097420D01*
X0238587Y0098007D01*
X0240120Y0099540D01*
X0240950Y0101543D01*
X0240950Y0103711D01*
X0240120Y0105714D01*
X0238587Y0107247D01*
X0237170Y0107834D01*
X0237587Y0108007D01*
X0239120Y0109540D01*
X0239950Y0111543D01*
X0239950Y0113711D01*
X0239120Y0115714D01*
X0237587Y0117247D01*
X0237170Y0117420D01*
X0238587Y0118007D01*
X0240120Y0119540D01*
X0240950Y0121543D01*
X0240950Y0123711D01*
X0240120Y0125714D01*
X0238587Y0127247D01*
X0237170Y0127834D01*
X0237587Y0128007D01*
X0239120Y0129540D01*
X0239950Y0131543D01*
X0239950Y0133711D01*
X0239120Y0135714D01*
X0237587Y0137247D01*
X0237170Y0137420D01*
X0238587Y0138007D01*
X0240120Y0139540D01*
X0240950Y0141543D01*
X0240950Y0143711D01*
X0240120Y0145714D01*
X0238587Y0147247D01*
X0237170Y0147834D01*
X0237587Y0148007D01*
X0239120Y0149540D01*
X0239950Y0151543D01*
X0239950Y0153711D01*
X0239120Y0155714D01*
X0237587Y0157247D01*
X0237170Y0157420D01*
X0238587Y0158007D01*
X0240120Y0159540D01*
X0240950Y0161543D01*
X0240950Y0163711D01*
X0240120Y0165714D01*
X0238587Y0167247D01*
X0237170Y0167834D01*
X0237587Y0168007D01*
X0239120Y0169540D01*
X0239950Y0171543D01*
X0239950Y0173711D01*
X0239120Y0175714D01*
X0237587Y0177247D01*
X0237170Y0177420D01*
X0238587Y0178007D01*
X0240120Y0179540D01*
X0240950Y0181543D01*
X0240950Y0183711D01*
X0240120Y0185714D01*
X0238587Y0187247D01*
X0236584Y0188077D01*
X0234416Y0188077D01*
X0234329Y0188041D01*
X0223531Y0198838D01*
X0223531Y0200030D02*
X0347597Y0200030D01*
X0345098Y0202529D02*
X0210402Y0202529D01*
X0208531Y0205027D02*
X0342600Y0205027D01*
X0340101Y0207526D02*
X0120150Y0207526D01*
X0120150Y0205494D02*
X0120150Y0209760D01*
X0117133Y0212777D01*
X0112867Y0212777D01*
X0110293Y0210203D01*
X0110293Y0212013D01*
X0109268Y0213038D01*
X0100732Y0213038D01*
X0100046Y0212353D01*
X0099274Y0213125D01*
X0090726Y0213125D01*
X0089701Y0212100D01*
X0089701Y0210627D01*
X0089283Y0210627D01*
X0087133Y0212777D01*
X0082867Y0212777D01*
X0079850Y0209760D01*
X0079850Y0208658D01*
X0078212Y0208658D01*
X0073531Y0213338D01*
X0073531Y0217633D01*
X0072506Y0218658D01*
X0067494Y0218658D01*
X0066469Y0217633D01*
X0066469Y0212621D01*
X0067000Y0212090D01*
X0067000Y0212030D01*
X0067457Y0210928D01*
X0073969Y0204415D01*
X0073969Y0202926D01*
X0071724Y0202926D01*
X0070699Y0201901D01*
X0070699Y0193353D01*
X0071384Y0192667D01*
X0070612Y0191895D01*
X0070612Y0183359D01*
X0071637Y0182334D01*
X0079386Y0182334D01*
X0080411Y0183359D01*
X0080411Y0184627D01*
X0080717Y0184627D01*
X0082363Y0182980D01*
X0079350Y0179967D01*
X0079350Y0177627D01*
X0085000Y0177627D01*
X0085000Y0177627D01*
X0079350Y0177627D01*
X0079350Y0175287D01*
X0082660Y0171977D01*
X0085000Y0171977D01*
X0087340Y0171977D01*
X0089707Y0174343D01*
X0089707Y0173241D01*
X0090732Y0172215D01*
X0099268Y0172215D01*
X0099954Y0172901D01*
X0100726Y0172129D01*
X0109274Y0172129D01*
X0110299Y0173154D01*
X0110299Y0175044D01*
X0112867Y0172477D01*
X0117133Y0172477D01*
X0120150Y0175494D01*
X0120150Y0179760D01*
X0117283Y0182627D01*
X0120150Y0185494D01*
X0120150Y0189760D01*
X0117283Y0192627D01*
X0119020Y0194364D01*
X0123975Y0189409D01*
X0124506Y0188127D01*
X0125500Y0187133D01*
X0126798Y0186596D01*
X0128202Y0186596D01*
X0129500Y0187133D01*
X0130494Y0188127D01*
X0131031Y0189424D01*
X0131031Y0190829D01*
X0130494Y0192127D01*
X0129500Y0193120D01*
X0128218Y0193651D01*
X0122543Y0199326D01*
X0121699Y0200170D01*
X0120597Y0200627D01*
X0119283Y0200627D01*
X0117283Y0202627D01*
X0120150Y0205494D01*
X0119683Y0205027D02*
X0201469Y0205027D01*
X0201250Y0202529D02*
X0117381Y0202529D01*
X0121839Y0200030D02*
X0196469Y0200030D01*
X0195662Y0197532D02*
X0162900Y0197532D01*
X0160500Y0192627D02*
X0160500Y0192127D01*
X0194500Y0192127D01*
X0200000Y0197627D01*
X0203531Y0197532D02*
X0204792Y0197532D01*
X0203443Y0195033D02*
X0207290Y0195033D01*
X0209789Y0192535D02*
X0199150Y0192535D01*
X0197043Y0190428D02*
X0197043Y0190428D01*
X0196652Y0190036D02*
X0212287Y0190036D01*
X0211703Y0187538D02*
X0207487Y0187538D01*
X0205000Y0187538D02*
X0205000Y0187538D01*
X0202513Y0187538D02*
X0198297Y0187538D01*
X0191703Y0187538D02*
X0186179Y0187538D01*
X0183821Y0187538D02*
X0177886Y0187538D01*
X0173114Y0187538D02*
X0162455Y0187538D01*
X0164400Y0185039D02*
X0170600Y0185039D01*
X0170050Y0182541D02*
X0164950Y0182541D01*
X0164328Y0180042D02*
X0170672Y0180042D01*
X0172128Y0177544D02*
X0162872Y0177544D01*
X0165397Y0175045D02*
X0169603Y0175045D01*
X0169050Y0172546D02*
X0165950Y0172546D01*
X0165331Y0170048D02*
X0169669Y0170048D01*
X0172516Y0167549D02*
X0162484Y0167549D01*
X0164395Y0165051D02*
X0170605Y0165051D01*
X0170050Y0162552D02*
X0164950Y0162552D01*
X0164333Y0160054D02*
X0170667Y0160054D01*
X0172157Y0157555D02*
X0162843Y0157555D01*
X0165392Y0155057D02*
X0169608Y0155057D01*
X0169050Y0152558D02*
X0165950Y0152558D01*
X0165336Y0150060D02*
X0169664Y0150060D01*
X0172488Y0147561D02*
X0162512Y0147561D01*
X0164390Y0145063D02*
X0170610Y0145063D01*
X0170050Y0142564D02*
X0164950Y0142564D01*
X0164338Y0140066D02*
X0170662Y0140066D01*
X0172186Y0137567D02*
X0162814Y0137567D01*
X0165388Y0135069D02*
X0169612Y0135069D01*
X0169050Y0132570D02*
X0165950Y0132570D01*
X0165341Y0130072D02*
X0169659Y0130072D01*
X0172459Y0127573D02*
X0162541Y0127573D01*
X0164385Y0125075D02*
X0170615Y0125075D01*
X0170050Y0122576D02*
X0164950Y0122576D01*
X0164343Y0120078D02*
X0170657Y0120078D01*
X0172215Y0117579D02*
X0162785Y0117579D01*
X0165383Y0115081D02*
X0169617Y0115081D01*
X0169050Y0112582D02*
X0165950Y0112582D01*
X0165346Y0110084D02*
X0169654Y0110084D01*
X0172430Y0107585D02*
X0162570Y0107585D01*
X0164380Y0105087D02*
X0170620Y0105087D01*
X0170050Y0102588D02*
X0164950Y0102588D01*
X0164348Y0100090D02*
X0170652Y0100090D01*
X0172243Y0097591D02*
X0162757Y0097591D01*
X0165378Y0095093D02*
X0169622Y0095093D01*
X0169050Y0092594D02*
X0165950Y0092594D01*
X0165351Y0090096D02*
X0169649Y0090096D01*
X0172401Y0087597D02*
X0162599Y0087597D01*
X0164375Y0085099D02*
X0170625Y0085099D01*
X0170050Y0082600D02*
X0164950Y0082600D01*
X0164353Y0080102D02*
X0170647Y0080102D01*
X0172272Y0077603D02*
X0161613Y0077603D01*
X0157387Y0077603D02*
X0136031Y0077603D01*
X0136031Y0077633D02*
X0135006Y0078658D01*
X0133774Y0078658D01*
X0133246Y0078877D01*
X0131754Y0078877D01*
X0131226Y0078658D01*
X0129994Y0078658D01*
X0128969Y0077633D01*
X0128969Y0076401D01*
X0128750Y0075873D01*
X0128750Y0074381D01*
X0128969Y0073852D01*
X0128969Y0072621D01*
X0129994Y0071596D01*
X0130728Y0071596D01*
X0136261Y0066062D01*
X0136168Y0066077D01*
X0135700Y0066077D01*
X0135700Y0060127D01*
X0135700Y0060127D01*
X0135700Y0066077D01*
X0135232Y0066077D01*
X0134307Y0065930D01*
X0133416Y0065641D01*
X0132582Y0065216D01*
X0131824Y0064665D01*
X0131162Y0064003D01*
X0130611Y0063245D01*
X0130186Y0062411D01*
X0130084Y0062096D01*
X0129620Y0063214D01*
X0128087Y0064747D01*
X0126084Y0065577D01*
X0123916Y0065577D01*
X0121913Y0064747D01*
X0120380Y0063214D01*
X0119650Y0061452D01*
X0118920Y0063214D01*
X0117387Y0064747D01*
X0115384Y0065577D01*
X0113216Y0065577D01*
X0111213Y0064747D01*
X0109680Y0063214D01*
X0108850Y0061211D01*
X0108850Y0059043D01*
X0109680Y0057040D01*
X0110799Y0055920D01*
X0109566Y0055920D01*
X0108994Y0055767D01*
X0108481Y0055471D01*
X0108062Y0055052D01*
X0107766Y0054539D01*
X0107612Y0053966D01*
X0107612Y0050452D01*
X0112687Y0050452D01*
X0112687Y0049802D01*
X0113337Y0049802D01*
X0113337Y0050452D01*
X0118411Y0050452D01*
X0118411Y0053966D01*
X0118258Y0054539D01*
X0117962Y0055052D01*
X0117543Y0055471D01*
X0117421Y0055541D01*
X0118920Y0057040D01*
X0119650Y0058801D01*
X0120380Y0057040D01*
X0121913Y0055507D01*
X0123916Y0054677D01*
X0126084Y0054677D01*
X0128087Y0055507D01*
X0129620Y0057040D01*
X0130084Y0058158D01*
X0130186Y0057843D01*
X0130611Y0057008D01*
X0131162Y0056251D01*
X0131824Y0055588D01*
X0132582Y0055038D01*
X0133416Y0054613D01*
X0134307Y0054323D01*
X0135232Y0054177D01*
X0135700Y0054177D01*
X0136168Y0054177D01*
X0137093Y0054323D01*
X0137984Y0054613D01*
X0138818Y0055038D01*
X0139576Y0055588D01*
X0140238Y0056251D01*
X0140789Y0057008D01*
X0141214Y0057843D01*
X0141503Y0058734D01*
X0141650Y0059659D01*
X0141650Y0060127D01*
X0141650Y0060595D01*
X0141510Y0061478D01*
X0141754Y0061377D01*
X0143246Y0061377D01*
X0143774Y0061596D01*
X0145006Y0061596D01*
X0146031Y0062621D01*
X0146031Y0063852D01*
X0146250Y0064381D01*
X0146250Y0065873D01*
X0146031Y0066401D01*
X0146031Y0067633D01*
X0145006Y0068658D01*
X0144272Y0068658D01*
X0136031Y0076899D01*
X0136031Y0077633D01*
X0137826Y0075105D02*
X0169627Y0075105D01*
X0169050Y0072606D02*
X0140324Y0072606D01*
X0142823Y0070108D02*
X0169645Y0070108D01*
X0172373Y0067609D02*
X0146031Y0067609D01*
X0146250Y0065111D02*
X0170630Y0065111D01*
X0170050Y0062612D02*
X0146022Y0062612D01*
X0147970Y0058267D02*
X0147457Y0057971D01*
X0147038Y0057552D01*
X0146742Y0057039D01*
X0146589Y0056466D01*
X0146589Y0052952D01*
X0151663Y0052952D01*
X0151663Y0052302D01*
X0146589Y0052302D01*
X0146589Y0048787D01*
X0146742Y0048215D01*
X0147038Y0047702D01*
X0147457Y0047283D01*
X0147970Y0046987D01*
X0148542Y0046834D01*
X0151663Y0046834D01*
X0151663Y0052302D01*
X0152313Y0052302D01*
X0152313Y0046834D01*
X0155434Y0046834D01*
X0156006Y0046987D01*
X0156519Y0047283D01*
X0156938Y0047702D01*
X0157234Y0048215D01*
X0157388Y0048787D01*
X0157388Y0052302D01*
X0152313Y0052302D01*
X0152313Y0052952D01*
X0151663Y0052952D01*
X0151663Y0058420D01*
X0148542Y0058420D01*
X0147970Y0058267D01*
X0147101Y0057615D02*
X0141098Y0057615D01*
X0141650Y0060113D02*
X0170642Y0060113D01*
X0172301Y0057615D02*
X0167191Y0057615D01*
X0158832Y0057615D02*
X0156875Y0057615D01*
X0156938Y0057552D02*
X0156519Y0057971D01*
X0156006Y0058267D01*
X0155434Y0058420D01*
X0152313Y0058420D01*
X0152313Y0052952D01*
X0157388Y0052952D01*
X0157388Y0056466D01*
X0157234Y0057039D01*
X0156938Y0057552D01*
X0157388Y0055116D02*
X0158112Y0055116D01*
X0158112Y0052618D02*
X0152313Y0052618D01*
X0151663Y0052618D02*
X0118411Y0052618D01*
X0117897Y0055116D02*
X0122855Y0055116D01*
X0120141Y0057615D02*
X0119159Y0057615D01*
X0119170Y0062612D02*
X0120130Y0062612D01*
X0122790Y0065111D02*
X0116510Y0065111D01*
X0112090Y0065111D02*
X0094370Y0065111D01*
X0094120Y0065714D02*
X0092737Y0067097D01*
X0092784Y0067113D01*
X0093618Y0067538D01*
X0094376Y0068088D01*
X0095038Y0068751D01*
X0095589Y0069508D01*
X0096014Y0070343D01*
X0096303Y0071234D01*
X0096450Y0072159D01*
X0096450Y0072627D01*
X0096450Y0073095D01*
X0096303Y0074020D01*
X0096014Y0074911D01*
X0095777Y0075377D01*
X0101469Y0075377D01*
X0101469Y0075121D01*
X0102494Y0074096D01*
X0107506Y0074096D01*
X0108531Y0075121D01*
X0108531Y0080133D01*
X0107506Y0081158D01*
X0102494Y0081158D01*
X0101469Y0080133D01*
X0101469Y0079877D01*
X0094260Y0079877D01*
X0094950Y0081543D01*
X0094950Y0083711D01*
X0094120Y0085714D01*
X0092587Y0087247D01*
X0092170Y0087420D01*
X0093587Y0088007D01*
X0095120Y0089540D01*
X0095950Y0091543D01*
X0095950Y0093711D01*
X0095120Y0095714D01*
X0093587Y0097247D01*
X0091584Y0098077D01*
X0089416Y0098077D01*
X0087413Y0097247D01*
X0085880Y0095714D01*
X0085050Y0093711D01*
X0085050Y0091543D01*
X0085880Y0089540D01*
X0087413Y0088007D01*
X0087830Y0087834D01*
X0086413Y0087247D01*
X0084880Y0085714D01*
X0084100Y0083831D01*
X0083531Y0084399D01*
X0083531Y0085133D01*
X0082506Y0086158D01*
X0081274Y0086158D01*
X0080746Y0086377D01*
X0079254Y0086377D01*
X0078726Y0086158D01*
X0077494Y0086158D01*
X0076469Y0085133D01*
X0076469Y0083901D01*
X0076250Y0083373D01*
X0076250Y0081881D01*
X0076469Y0081352D01*
X0076469Y0080121D01*
X0077494Y0079096D01*
X0078228Y0079096D01*
X0082876Y0074448D01*
X0084254Y0073877D01*
X0084674Y0073877D01*
X0084550Y0073095D01*
X0084550Y0072627D01*
X0090500Y0072627D01*
X0096450Y0072627D01*
X0090500Y0072627D01*
X0090500Y0072627D01*
X0090500Y0072627D01*
X0084550Y0072627D01*
X0084550Y0072159D01*
X0084697Y0071234D01*
X0084986Y0070343D01*
X0085411Y0069508D01*
X0085962Y0068751D01*
X0086624Y0068088D01*
X0087285Y0067608D01*
X0086413Y0067247D01*
X0085543Y0066377D01*
X0082911Y0066377D01*
X0082911Y0066895D01*
X0081886Y0067920D01*
X0074137Y0067920D01*
X0073112Y0066895D01*
X0073112Y0058359D01*
X0074137Y0057334D01*
X0081886Y0057334D01*
X0082911Y0058359D01*
X0082911Y0058877D01*
X0085543Y0058877D01*
X0086413Y0058007D01*
X0087830Y0057420D01*
X0087413Y0057247D01*
X0085880Y0055714D01*
X0085050Y0053711D01*
X0085050Y0052480D01*
X0083947Y0051377D01*
X0069254Y0051377D01*
X0068726Y0051158D01*
X0067494Y0051158D01*
X0066469Y0050133D01*
X0066469Y0048901D01*
X0066250Y0048373D01*
X0066250Y0046881D01*
X0066469Y0046352D01*
X0066469Y0045121D01*
X0067494Y0044096D01*
X0068726Y0044096D01*
X0069254Y0043877D01*
X0086246Y0043877D01*
X0087624Y0044448D01*
X0090353Y0047177D01*
X0091584Y0047177D01*
X0093587Y0048007D01*
X0093678Y0048098D01*
X0097089Y0047355D01*
X0097089Y0045859D01*
X0098114Y0044834D01*
X0105863Y0044834D01*
X0106888Y0045859D01*
X0106888Y0054395D01*
X0105863Y0055420D01*
X0098114Y0055420D01*
X0097611Y0054917D01*
X0095236Y0055434D01*
X0095120Y0055714D01*
X0093587Y0057247D01*
X0092170Y0057834D01*
X0092587Y0058007D01*
X0094120Y0059540D01*
X0094950Y0061543D01*
X0094950Y0063711D01*
X0094120Y0065714D01*
X0093716Y0067609D02*
X0134715Y0067609D01*
X0135700Y0065111D02*
X0135700Y0065111D01*
X0135700Y0062612D02*
X0135700Y0062612D01*
X0135700Y0060127D02*
X0141650Y0060127D01*
X0135700Y0060127D01*
X0135700Y0060127D01*
X0135700Y0054177D01*
X0135700Y0060127D01*
X0135700Y0060127D01*
X0135700Y0060113D02*
X0135700Y0060113D01*
X0135700Y0057615D02*
X0135700Y0057615D01*
X0135700Y0055116D02*
X0135700Y0055116D01*
X0138926Y0055116D02*
X0146589Y0055116D01*
X0146589Y0050119D02*
X0113337Y0050119D01*
X0113337Y0049802D02*
X0118411Y0049802D01*
X0118411Y0046287D01*
X0118258Y0045715D01*
X0117962Y0045202D01*
X0117543Y0044783D01*
X0117030Y0044487D01*
X0116458Y0044334D01*
X0113337Y0044334D01*
X0113337Y0049802D01*
X0112687Y0049802D02*
X0112687Y0044334D01*
X0109566Y0044334D01*
X0108994Y0044487D01*
X0108481Y0044783D01*
X0108062Y0045202D01*
X0107766Y0045715D01*
X0107612Y0046287D01*
X0107612Y0049802D01*
X0112687Y0049802D01*
X0112687Y0050119D02*
X0106888Y0050119D01*
X0106888Y0047621D02*
X0107612Y0047621D01*
X0108141Y0045122D02*
X0106152Y0045122D01*
X0112687Y0045122D02*
X0113337Y0045122D01*
X0113337Y0047621D02*
X0112687Y0047621D01*
X0117882Y0045122D02*
X0401451Y0045122D01*
X0401451Y0042624D02*
X0007250Y0042624D01*
X0007250Y0045122D02*
X0066469Y0045122D01*
X0066250Y0047621D02*
X0032724Y0047621D01*
X0032074Y0047352D02*
X0034013Y0048155D01*
X0035497Y0049639D01*
X0036300Y0051578D01*
X0036300Y0053676D01*
X0035497Y0055615D01*
X0034013Y0057099D01*
X0032074Y0057902D01*
X0022926Y0057902D01*
X0020987Y0057099D01*
X0019503Y0055615D01*
X0018700Y0053676D01*
X0018700Y0051578D01*
X0019503Y0049639D01*
X0020987Y0048155D01*
X0022926Y0047352D01*
X0032074Y0047352D01*
X0035696Y0050119D02*
X0066469Y0050119D01*
X0066663Y0056834D02*
X0063542Y0056834D01*
X0062970Y0056987D01*
X0062457Y0057283D01*
X0062038Y0057702D01*
X0061742Y0058215D01*
X0061589Y0058787D01*
X0061589Y0062302D01*
X0066663Y0062302D01*
X0066663Y0062952D01*
X0061589Y0062952D01*
X0061589Y0066466D01*
X0061742Y0067039D01*
X0062038Y0067552D01*
X0062457Y0067971D01*
X0062970Y0068267D01*
X0063542Y0068420D01*
X0066663Y0068420D01*
X0066663Y0062952D01*
X0067313Y0062952D01*
X0067313Y0068420D01*
X0070434Y0068420D01*
X0071006Y0068267D01*
X0071519Y0067971D01*
X0071938Y0067552D01*
X0072234Y0067039D01*
X0072388Y0066466D01*
X0072388Y0062952D01*
X0067313Y0062952D01*
X0067313Y0062302D01*
X0067313Y0056834D01*
X0070434Y0056834D01*
X0071006Y0056987D01*
X0071519Y0057283D01*
X0071938Y0057702D01*
X0072234Y0058215D01*
X0072388Y0058787D01*
X0072388Y0062302D01*
X0067313Y0062302D01*
X0066663Y0062302D01*
X0066663Y0056834D01*
X0066663Y0057615D02*
X0067313Y0057615D01*
X0067313Y0060113D02*
X0066663Y0060113D01*
X0066663Y0062612D02*
X0007250Y0062612D01*
X0007250Y0060113D02*
X0061589Y0060113D01*
X0062125Y0057615D02*
X0032767Y0057615D01*
X0035703Y0055116D02*
X0085632Y0055116D01*
X0085050Y0052618D02*
X0036300Y0052618D01*
X0022276Y0047621D02*
X0007250Y0047621D01*
X0007250Y0050119D02*
X0019304Y0050119D01*
X0018700Y0052618D02*
X0007250Y0052618D01*
X0007250Y0055116D02*
X0019297Y0055116D01*
X0022233Y0057615D02*
X0007250Y0057615D01*
X0007250Y0065111D02*
X0061589Y0065111D01*
X0062095Y0067609D02*
X0032695Y0067609D01*
X0032074Y0067352D02*
X0034013Y0068155D01*
X0035497Y0069639D01*
X0036300Y0071578D01*
X0036300Y0073676D01*
X0035497Y0075615D01*
X0034013Y0077099D01*
X0032074Y0077902D01*
X0022926Y0077902D01*
X0020987Y0077099D01*
X0019503Y0075615D01*
X0018700Y0073676D01*
X0018700Y0071578D01*
X0019503Y0069639D01*
X0020987Y0068155D01*
X0022926Y0067352D01*
X0032074Y0067352D01*
X0035691Y0070108D02*
X0085106Y0070108D01*
X0084550Y0072606D02*
X0036300Y0072606D01*
X0035708Y0075105D02*
X0082219Y0075105D01*
X0079721Y0077603D02*
X0032796Y0077603D01*
X0032074Y0087352D02*
X0022926Y0087352D01*
X0020987Y0088155D01*
X0019503Y0089639D01*
X0018700Y0091578D01*
X0018700Y0093676D01*
X0019503Y0095615D01*
X0020987Y0097099D01*
X0022926Y0097902D01*
X0032074Y0097902D01*
X0034013Y0097099D01*
X0034735Y0096377D01*
X0045746Y0096377D01*
X0046274Y0096158D01*
X0047506Y0096158D01*
X0048531Y0095133D01*
X0048531Y0093901D01*
X0048750Y0093373D01*
X0048750Y0091881D01*
X0048531Y0091352D01*
X0048531Y0090121D01*
X0047506Y0089096D01*
X0046274Y0089096D01*
X0045746Y0088877D01*
X0034735Y0088877D01*
X0034013Y0088155D01*
X0032074Y0087352D01*
X0032666Y0087597D02*
X0087258Y0087597D01*
X0085649Y0090096D02*
X0048506Y0090096D01*
X0048750Y0092594D02*
X0085050Y0092594D01*
X0085622Y0095093D02*
X0068122Y0095093D01*
X0069620Y0095713D02*
X0066622Y0094471D01*
X0063378Y0094471D01*
X0060380Y0095713D01*
X0058086Y0098007D01*
X0056844Y0101005D01*
X0056844Y0104249D01*
X0058086Y0107247D01*
X0060380Y0109541D01*
X0063378Y0110782D01*
X0066622Y0110782D01*
X0069620Y0109541D01*
X0071914Y0107247D01*
X0073155Y0104249D01*
X0073155Y0101005D01*
X0071914Y0098007D01*
X0069620Y0095713D01*
X0071498Y0097591D02*
X0088243Y0097591D01*
X0092757Y0097591D02*
X0157416Y0097591D01*
X0155622Y0095093D02*
X0095378Y0095093D01*
X0095950Y0092594D02*
X0155050Y0092594D01*
X0155649Y0090096D02*
X0095351Y0090096D01*
X0092599Y0087597D02*
X0157258Y0087597D01*
X0154625Y0085099D02*
X0094375Y0085099D01*
X0094950Y0082600D02*
X0154050Y0082600D01*
X0154647Y0080102D02*
X0108531Y0080102D01*
X0108531Y0077603D02*
X0128969Y0077603D01*
X0128750Y0075105D02*
X0108515Y0075105D01*
X0101485Y0075105D02*
X0095915Y0075105D01*
X0096450Y0072606D02*
X0128984Y0072606D01*
X0132216Y0070108D02*
X0095894Y0070108D01*
X0094950Y0062612D02*
X0109430Y0062612D01*
X0108850Y0060113D02*
X0094358Y0060113D01*
X0092699Y0057615D02*
X0109441Y0057615D01*
X0108127Y0055116D02*
X0106166Y0055116D01*
X0106888Y0052618D02*
X0107612Y0052618D01*
X0097810Y0055116D02*
X0096695Y0055116D01*
X0095868Y0047621D02*
X0092656Y0047621D01*
X0088299Y0045122D02*
X0097825Y0045122D01*
X0087358Y0057615D02*
X0082168Y0057615D01*
X0073856Y0057615D02*
X0071851Y0057615D01*
X0072388Y0060113D02*
X0073112Y0060113D01*
X0073112Y0062612D02*
X0067313Y0062612D01*
X0067313Y0065111D02*
X0066663Y0065111D01*
X0066663Y0067609D02*
X0067313Y0067609D01*
X0071881Y0067609D02*
X0073826Y0067609D01*
X0073112Y0065111D02*
X0072388Y0065111D01*
X0082197Y0067609D02*
X0087284Y0067609D01*
X0094353Y0080102D02*
X0101469Y0080102D01*
X0084625Y0085099D02*
X0083531Y0085099D01*
X0076469Y0085099D02*
X0007250Y0085099D01*
X0007250Y0087597D02*
X0022334Y0087597D01*
X0019314Y0090096D02*
X0007250Y0090096D01*
X0007250Y0092594D02*
X0018700Y0092594D01*
X0019287Y0095093D02*
X0007250Y0095093D01*
X0007250Y0097591D02*
X0022176Y0097591D01*
X0022926Y0107352D02*
X0032074Y0107352D01*
X0034013Y0108155D01*
X0035485Y0109627D01*
X0046963Y0109627D01*
X0047494Y0109096D01*
X0052506Y0109096D01*
X0053531Y0110121D01*
X0053531Y0115133D01*
X0052506Y0116158D01*
X0047494Y0116158D01*
X0046963Y0115627D01*
X0035485Y0115627D01*
X0034013Y0117099D01*
X0032074Y0117902D01*
X0022926Y0117902D01*
X0020987Y0117099D01*
X0019503Y0115615D01*
X0018700Y0113676D01*
X0018700Y0111578D01*
X0019503Y0109639D01*
X0020987Y0108155D01*
X0022926Y0107352D01*
X0022362Y0107585D02*
X0007250Y0107585D01*
X0007250Y0105087D02*
X0057191Y0105087D01*
X0056844Y0102588D02*
X0007250Y0102588D01*
X0007250Y0100090D02*
X0057223Y0100090D01*
X0058502Y0097591D02*
X0032824Y0097591D01*
X0032638Y0107585D02*
X0058425Y0107585D01*
X0061691Y0110084D02*
X0053494Y0110084D01*
X0053531Y0112582D02*
X0128969Y0112582D01*
X0128969Y0112633D02*
X0128969Y0107621D01*
X0129994Y0106596D01*
X0135006Y0106596D01*
X0136031Y0107621D01*
X0136031Y0109415D01*
X0145712Y0119096D01*
X0147506Y0119096D01*
X0148531Y0120121D01*
X0148531Y0125133D01*
X0147506Y0126158D01*
X0142494Y0126158D01*
X0141469Y0125133D01*
X0141469Y0123338D01*
X0131788Y0113658D01*
X0129994Y0113658D01*
X0128969Y0112633D01*
X0127506Y0114096D02*
X0128531Y0115121D01*
X0128531Y0116915D01*
X0135712Y0124096D01*
X0137506Y0124096D01*
X0138531Y0125121D01*
X0138531Y0130133D01*
X0137506Y0131158D01*
X0132494Y0131158D01*
X0131469Y0130133D01*
X0131469Y0128338D01*
X0124288Y0121158D01*
X0122494Y0121158D01*
X0121469Y0120133D01*
X0121469Y0115121D01*
X0122494Y0114096D01*
X0127506Y0114096D01*
X0128491Y0115081D02*
X0133211Y0115081D01*
X0135710Y0117579D02*
X0129195Y0117579D01*
X0131694Y0120078D02*
X0138208Y0120078D01*
X0140707Y0122576D02*
X0134192Y0122576D01*
X0135000Y0127627D02*
X0125000Y0117627D01*
X0121469Y0117579D02*
X0032853Y0117579D01*
X0027500Y0112627D02*
X0050000Y0112627D01*
X0053531Y0115081D02*
X0121509Y0115081D01*
X0121469Y0120078D02*
X0007250Y0120078D01*
X0007250Y0122576D02*
X0125707Y0122576D01*
X0128205Y0125075D02*
X0118485Y0125075D01*
X0118531Y0125121D02*
X0118531Y0126915D01*
X0132543Y0140928D01*
X0133000Y0142030D01*
X0133000Y0144590D01*
X0133531Y0145121D01*
X0133531Y0150133D01*
X0132506Y0151158D01*
X0127494Y0151158D01*
X0126469Y0150133D01*
X0126469Y0145121D01*
X0127000Y0144590D01*
X0127000Y0143870D01*
X0118531Y0135401D01*
X0118531Y0140133D01*
X0118000Y0140664D01*
X0118000Y0145642D01*
X0118531Y0146924D01*
X0118531Y0148329D01*
X0117994Y0149627D01*
X0117000Y0150620D01*
X0115702Y0151158D01*
X0114298Y0151158D01*
X0113000Y0150620D01*
X0112006Y0149627D01*
X0111469Y0148329D01*
X0111469Y0146924D01*
X0112000Y0145642D01*
X0112000Y0140664D01*
X0111469Y0140133D01*
X0111469Y0135121D01*
X0112494Y0134096D01*
X0117226Y0134096D01*
X0114288Y0131158D01*
X0112494Y0131158D01*
X0111469Y0130133D01*
X0111469Y0125121D01*
X0112494Y0124096D01*
X0117506Y0124096D01*
X0118531Y0125121D01*
X0119189Y0127573D02*
X0130704Y0127573D01*
X0131469Y0130072D02*
X0121688Y0130072D01*
X0124186Y0132570D02*
X0155050Y0132570D01*
X0155612Y0135069D02*
X0126685Y0135069D01*
X0129183Y0137567D02*
X0157473Y0137567D01*
X0154662Y0140066D02*
X0131682Y0140066D01*
X0133000Y0142564D02*
X0154050Y0142564D01*
X0154610Y0145063D02*
X0133473Y0145063D01*
X0133531Y0147561D02*
X0157171Y0147561D01*
X0155664Y0150060D02*
X0133531Y0150060D01*
X0130000Y0147627D02*
X0130000Y0142627D01*
X0115000Y0127627D01*
X0111469Y0127573D02*
X0032609Y0127573D01*
X0032074Y0127352D02*
X0034013Y0128155D01*
X0034735Y0128877D01*
X0045746Y0128877D01*
X0046274Y0129096D01*
X0047506Y0129096D01*
X0048531Y0130121D01*
X0048531Y0131352D01*
X0048750Y0131881D01*
X0048750Y0133373D01*
X0048531Y0133901D01*
X0048531Y0135133D01*
X0047506Y0136158D01*
X0046274Y0136158D01*
X0045746Y0136377D01*
X0034735Y0136377D01*
X0034013Y0137099D01*
X0032074Y0137902D01*
X0022926Y0137902D01*
X0020987Y0137099D01*
X0019503Y0135615D01*
X0018700Y0133676D01*
X0018700Y0131578D01*
X0019503Y0129639D01*
X0020987Y0128155D01*
X0022926Y0127352D01*
X0032074Y0127352D01*
X0022391Y0127573D02*
X0007250Y0127573D01*
X0007250Y0125075D02*
X0111515Y0125075D01*
X0111469Y0130072D02*
X0048482Y0130072D01*
X0048750Y0132570D02*
X0115701Y0132570D01*
X0111521Y0135069D02*
X0048531Y0135069D01*
X0032882Y0137567D02*
X0111469Y0137567D01*
X0111469Y0140066D02*
X0007250Y0140066D01*
X0007250Y0142564D02*
X0112000Y0142564D01*
X0112000Y0145063D02*
X0007250Y0145063D01*
X0007250Y0147561D02*
X0022420Y0147561D01*
X0022926Y0147352D02*
X0020987Y0148155D01*
X0019503Y0149639D01*
X0018700Y0151578D01*
X0018700Y0153676D01*
X0019503Y0155615D01*
X0020987Y0157099D01*
X0022926Y0157902D01*
X0032074Y0157902D01*
X0034013Y0157099D01*
X0034735Y0156377D01*
X0045746Y0156377D01*
X0046274Y0156158D01*
X0047506Y0156158D01*
X0048531Y0155133D01*
X0048531Y0153901D01*
X0048750Y0153373D01*
X0048750Y0151881D01*
X0048531Y0151352D01*
X0048531Y0150121D01*
X0047506Y0149096D01*
X0046274Y0149096D01*
X0045746Y0148877D01*
X0034735Y0148877D01*
X0034013Y0148155D01*
X0032074Y0147352D01*
X0022926Y0147352D01*
X0019329Y0150060D02*
X0007250Y0150060D01*
X0007250Y0152558D02*
X0018700Y0152558D01*
X0019272Y0155057D02*
X0007250Y0155057D01*
X0007250Y0157555D02*
X0022089Y0157555D01*
X0022926Y0167352D02*
X0032074Y0167352D01*
X0034013Y0168155D01*
X0035485Y0169627D01*
X0066963Y0169627D01*
X0067494Y0169096D01*
X0072506Y0169096D01*
X0073531Y0170121D01*
X0073531Y0175133D01*
X0072506Y0176158D01*
X0067494Y0176158D01*
X0066963Y0175627D01*
X0035485Y0175627D01*
X0034013Y0177099D01*
X0032074Y0177902D01*
X0022926Y0177902D01*
X0020987Y0177099D01*
X0019503Y0175615D01*
X0018700Y0173676D01*
X0018700Y0171578D01*
X0019503Y0169639D01*
X0020987Y0168155D01*
X0022926Y0167352D01*
X0022449Y0167549D02*
X0007250Y0167549D01*
X0007250Y0165051D02*
X0117430Y0165051D01*
X0117006Y0164627D02*
X0116469Y0163329D01*
X0116469Y0161924D01*
X0117006Y0160627D01*
X0118000Y0159633D01*
X0119298Y0159096D01*
X0120702Y0159096D01*
X0122000Y0159633D01*
X0122994Y0160627D01*
X0123525Y0161909D01*
X0130718Y0169102D01*
X0132000Y0169633D01*
X0132994Y0170627D01*
X0133531Y0171924D01*
X0133531Y0173329D01*
X0132994Y0174627D01*
X0132000Y0175620D01*
X0130702Y0176158D01*
X0129298Y0176158D01*
X0128000Y0175620D01*
X0127006Y0174627D01*
X0126475Y0173345D01*
X0119282Y0166151D01*
X0118000Y0165620D01*
X0117006Y0164627D01*
X0116469Y0162552D02*
X0007250Y0162552D01*
X0007250Y0160054D02*
X0117579Y0160054D01*
X0120000Y0162627D02*
X0130000Y0172627D01*
X0133531Y0172546D02*
X0150677Y0172546D01*
X0148178Y0170048D02*
X0132415Y0170048D01*
X0129165Y0167549D02*
X0145680Y0167549D01*
X0143181Y0165051D02*
X0126667Y0165051D01*
X0124168Y0162552D02*
X0140683Y0162552D01*
X0136469Y0160054D02*
X0122421Y0160054D01*
X0120680Y0167549D02*
X0032551Y0167549D01*
X0027500Y0172627D02*
X0070000Y0172627D01*
X0073531Y0172546D02*
X0082090Y0172546D01*
X0085000Y0172546D02*
X0085000Y0172546D01*
X0085000Y0171977D02*
X0085000Y0177627D01*
X0085000Y0177627D01*
X0085000Y0171977D01*
X0087910Y0172546D02*
X0090401Y0172546D01*
X0095000Y0177115D02*
X0104913Y0177115D01*
X0105000Y0177028D01*
X0105598Y0177028D01*
X0105000Y0177627D01*
X0115000Y0187627D01*
X0115000Y0185127D01*
X0117370Y0182541D02*
X0154050Y0182541D01*
X0154600Y0185039D02*
X0119695Y0185039D01*
X0120150Y0187538D02*
X0125096Y0187538D01*
X0123348Y0190036D02*
X0119874Y0190036D01*
X0120850Y0192535D02*
X0117375Y0192535D01*
X0115000Y0197627D02*
X0120000Y0197627D01*
X0127500Y0190127D01*
X0131031Y0190036D02*
X0155674Y0190036D01*
X0155050Y0192535D02*
X0130086Y0192535D01*
X0126836Y0195033D02*
X0155598Y0195033D01*
X0158100Y0197532D02*
X0124338Y0197532D01*
X0129904Y0187538D02*
X0157114Y0187538D01*
X0154672Y0180042D02*
X0119868Y0180042D01*
X0120150Y0177544D02*
X0157531Y0177544D01*
X0153175Y0175045D02*
X0132576Y0175045D01*
X0127424Y0175045D02*
X0119701Y0175045D01*
X0117203Y0172546D02*
X0125677Y0172546D01*
X0123178Y0170048D02*
X0073458Y0170048D01*
X0073531Y0175045D02*
X0079592Y0175045D01*
X0079350Y0177544D02*
X0032939Y0177544D01*
X0032074Y0187352D02*
X0022926Y0187352D01*
X0020987Y0188155D01*
X0019503Y0189639D01*
X0018700Y0191578D01*
X0018700Y0193676D01*
X0019503Y0195615D01*
X0020987Y0197099D01*
X0022926Y0197902D01*
X0032074Y0197902D01*
X0034013Y0197099D01*
X0034735Y0196377D01*
X0045746Y0196377D01*
X0046274Y0196158D01*
X0047506Y0196158D01*
X0048531Y0195133D01*
X0048531Y0193901D01*
X0048750Y0193373D01*
X0048750Y0191881D01*
X0048531Y0191352D01*
X0048531Y0190121D01*
X0047506Y0189096D01*
X0046274Y0189096D01*
X0045746Y0188877D01*
X0034735Y0188877D01*
X0034013Y0188155D01*
X0032074Y0187352D01*
X0032523Y0187538D02*
X0064163Y0187538D01*
X0064163Y0187302D02*
X0059089Y0187302D01*
X0059089Y0183787D01*
X0059242Y0183215D01*
X0059538Y0182702D01*
X0059957Y0182283D01*
X0060470Y0181987D01*
X0061042Y0181834D01*
X0064163Y0181834D01*
X0064163Y0187302D01*
X0064163Y0187952D01*
X0059089Y0187952D01*
X0059089Y0191466D01*
X0059242Y0192039D01*
X0059538Y0192552D01*
X0059567Y0192581D01*
X0059452Y0192696D01*
X0059155Y0193209D01*
X0059002Y0193781D01*
X0059002Y0197302D01*
X0064077Y0197302D01*
X0064726Y0197302D01*
X0064726Y0191828D01*
X0064813Y0191828D01*
X0064813Y0187952D01*
X0064163Y0187952D01*
X0064163Y0193420D01*
X0064077Y0193420D01*
X0064077Y0197302D01*
X0064077Y0197952D01*
X0064077Y0203426D01*
X0060956Y0203426D01*
X0060383Y0203273D01*
X0059870Y0202977D01*
X0059452Y0202558D01*
X0059155Y0202045D01*
X0059002Y0201472D01*
X0059002Y0197952D01*
X0064077Y0197952D01*
X0064726Y0197952D01*
X0064726Y0203426D01*
X0067847Y0203426D01*
X0068420Y0203273D01*
X0068933Y0202977D01*
X0069352Y0202558D01*
X0069648Y0202045D01*
X0069801Y0201472D01*
X0069801Y0197952D01*
X0064726Y0197952D01*
X0064726Y0197302D01*
X0069801Y0197302D01*
X0069801Y0193781D01*
X0069648Y0193209D01*
X0069352Y0192696D01*
X0069323Y0192667D01*
X0069438Y0192552D01*
X0069734Y0192039D01*
X0069888Y0191466D01*
X0069888Y0187952D01*
X0064813Y0187952D01*
X0064813Y0187302D01*
X0064813Y0181834D01*
X0067934Y0181834D01*
X0068506Y0181987D01*
X0069019Y0182283D01*
X0069438Y0182702D01*
X0069734Y0183215D01*
X0069888Y0183787D01*
X0069888Y0187302D01*
X0064813Y0187302D01*
X0064163Y0187302D01*
X0064813Y0187538D02*
X0070612Y0187538D01*
X0070612Y0190036D02*
X0069888Y0190036D01*
X0069448Y0192535D02*
X0071252Y0192535D01*
X0070699Y0195033D02*
X0069801Y0195033D01*
X0070699Y0197532D02*
X0064726Y0197532D01*
X0064077Y0197532D02*
X0032968Y0197532D01*
X0032074Y0207352D02*
X0022926Y0207352D01*
X0020987Y0208155D01*
X0019503Y0209639D01*
X0018700Y0211578D01*
X0018700Y0213676D01*
X0019503Y0215615D01*
X0020987Y0217099D01*
X0022926Y0217902D01*
X0032074Y0217902D01*
X0034013Y0217099D01*
X0034735Y0216377D01*
X0045746Y0216377D01*
X0046274Y0216158D01*
X0047506Y0216158D01*
X0048531Y0215133D01*
X0048531Y0213901D01*
X0048750Y0213373D01*
X0048750Y0211881D01*
X0048531Y0211352D01*
X0048531Y0210121D01*
X0047506Y0209096D01*
X0046274Y0209096D01*
X0045746Y0208877D01*
X0034735Y0208877D01*
X0034013Y0208155D01*
X0032074Y0207352D01*
X0032494Y0207526D02*
X0070859Y0207526D01*
X0073357Y0205027D02*
X0007250Y0205027D01*
X0007250Y0202529D02*
X0059435Y0202529D01*
X0059002Y0200030D02*
X0007250Y0200030D01*
X0007250Y0197532D02*
X0022032Y0197532D01*
X0019262Y0195033D02*
X0007250Y0195033D01*
X0007250Y0192535D02*
X0018700Y0192535D01*
X0019339Y0190036D02*
X0007250Y0190036D01*
X0007250Y0187538D02*
X0022477Y0187538D01*
X0022061Y0177544D02*
X0007250Y0177544D01*
X0007250Y0180042D02*
X0079425Y0180042D01*
X0079593Y0182541D02*
X0081923Y0182541D01*
X0085000Y0177544D02*
X0085000Y0177544D01*
X0085000Y0175045D02*
X0085000Y0175045D01*
X0071430Y0182541D02*
X0069277Y0182541D01*
X0069888Y0185039D02*
X0070612Y0185039D01*
X0075512Y0187627D02*
X0075598Y0187713D01*
X0075598Y0197627D01*
X0070699Y0200030D02*
X0069801Y0200030D01*
X0069368Y0202529D02*
X0071326Y0202529D01*
X0064726Y0202529D02*
X0064077Y0202529D01*
X0064077Y0200030D02*
X0064726Y0200030D01*
X0064726Y0195033D02*
X0064077Y0195033D01*
X0064163Y0192535D02*
X0064726Y0192535D01*
X0064813Y0190036D02*
X0064163Y0190036D01*
X0064163Y0185039D02*
X0064813Y0185039D01*
X0064813Y0182541D02*
X0064163Y0182541D01*
X0059700Y0182541D02*
X0007250Y0182541D01*
X0007250Y0185039D02*
X0059089Y0185039D01*
X0059089Y0190036D02*
X0048446Y0190036D01*
X0048750Y0192535D02*
X0059528Y0192535D01*
X0059002Y0195033D02*
X0048531Y0195033D01*
X0048434Y0210024D02*
X0068360Y0210024D01*
X0066567Y0212523D02*
X0048750Y0212523D01*
X0048531Y0215021D02*
X0066469Y0215021D01*
X0066469Y0217520D02*
X0032997Y0217520D01*
X0032074Y0227352D02*
X0022926Y0227352D01*
X0020987Y0228155D01*
X0019503Y0229639D01*
X0018700Y0231578D01*
X0018700Y0233676D01*
X0019503Y0235615D01*
X0020987Y0237099D01*
X0022926Y0237902D01*
X0032074Y0237902D01*
X0034013Y0237099D01*
X0035497Y0235615D01*
X0036300Y0233676D01*
X0036300Y0231578D01*
X0035497Y0229639D01*
X0034013Y0228155D01*
X0032074Y0227352D01*
X0032465Y0227514D02*
X0143969Y0227514D01*
X0143969Y0227633D02*
X0143969Y0226401D01*
X0143750Y0225873D01*
X0143750Y0224381D01*
X0143969Y0223852D01*
X0143969Y0222621D01*
X0144994Y0221596D01*
X0146226Y0221596D01*
X0146754Y0221377D01*
X0173246Y0221377D01*
X0173774Y0221596D01*
X0175006Y0221596D01*
X0176031Y0222621D01*
X0176031Y0223852D01*
X0176250Y0224381D01*
X0176250Y0225873D01*
X0176031Y0226401D01*
X0176031Y0227633D01*
X0175006Y0228658D01*
X0173774Y0228658D01*
X0173246Y0228877D01*
X0146754Y0228877D01*
X0146226Y0228658D01*
X0144994Y0228658D01*
X0143969Y0227633D01*
X0143750Y0225015D02*
X0007250Y0225015D01*
X0007250Y0222517D02*
X0144073Y0222517D01*
X0147618Y0235009D02*
X0035748Y0235009D01*
X0036300Y0232511D02*
X0190116Y0232511D01*
X0192500Y0232627D02*
X0195000Y0230127D01*
X0195000Y0227627D01*
X0195113Y0227514D02*
X0176031Y0227514D01*
X0176250Y0225015D02*
X0197612Y0225015D01*
X0192615Y0230012D02*
X0035652Y0230012D01*
X0033026Y0237508D02*
X0105439Y0237508D01*
X0105614Y0237334D02*
X0113363Y0237334D01*
X0114388Y0238359D01*
X0114388Y0246895D01*
X0113363Y0247920D01*
X0108949Y0247920D01*
X0106031Y0250838D01*
X0106031Y0252633D01*
X0105500Y0253164D01*
X0105500Y0253884D01*
X0110712Y0259096D01*
X0112506Y0259096D01*
X0113531Y0260121D01*
X0113531Y0265133D01*
X0112506Y0266158D01*
X0107494Y0266158D01*
X0106469Y0265133D01*
X0106469Y0263338D01*
X0100801Y0257670D01*
X0099957Y0256826D01*
X0099500Y0255724D01*
X0099500Y0253164D01*
X0098969Y0252633D01*
X0098969Y0247621D01*
X0099994Y0246596D01*
X0101788Y0246596D01*
X0104589Y0243796D01*
X0104589Y0238359D01*
X0105614Y0237334D01*
X0104589Y0240006D02*
X0007250Y0240006D01*
X0007250Y0237508D02*
X0021974Y0237508D01*
X0019252Y0235009D02*
X0007250Y0235009D01*
X0007250Y0232511D02*
X0018700Y0232511D01*
X0019348Y0230012D02*
X0007250Y0230012D01*
X0007250Y0227514D02*
X0022535Y0227514D01*
X0022003Y0217520D02*
X0007250Y0217520D01*
X0007250Y0220018D02*
X0241707Y0220018D01*
X0241707Y0219290D02*
X0241707Y0216169D01*
X0241860Y0215597D01*
X0242156Y0215084D01*
X0242575Y0214665D01*
X0243088Y0214369D01*
X0243660Y0214215D01*
X0247175Y0214215D01*
X0247175Y0219290D01*
X0241707Y0219290D01*
X0241707Y0217520D02*
X0073531Y0217520D01*
X0073531Y0215021D02*
X0242219Y0215021D01*
X0247175Y0215021D02*
X0247825Y0215021D01*
X0247825Y0217520D02*
X0247175Y0217520D01*
X0241707Y0222517D02*
X0175927Y0222517D01*
X0202618Y0235009D02*
X0242703Y0235009D01*
X0240000Y0230127D02*
X0246988Y0230127D01*
X0247500Y0230639D01*
X0237390Y0232511D02*
X0205116Y0232511D01*
X0191254Y0254997D02*
X0235981Y0254997D01*
X0238480Y0257496D02*
X0188869Y0257496D01*
X0186370Y0259994D02*
X0238969Y0259994D01*
X0241261Y0252499D02*
X0243969Y0252499D01*
X0244089Y0250000D02*
X0238763Y0250000D01*
X0238412Y0247502D02*
X0244750Y0247502D01*
X0244750Y0245003D02*
X0152624Y0245003D01*
X0150125Y0247502D02*
X0231588Y0247502D01*
X0250250Y0247502D02*
X0251469Y0247502D01*
X0251469Y0250000D02*
X0250911Y0250000D01*
X0263749Y0269988D02*
X0142638Y0269988D01*
X0140140Y0272487D02*
X0170650Y0272487D01*
X0170469Y0272924D02*
X0171006Y0271627D01*
X0172000Y0270633D01*
X0173298Y0270096D01*
X0174702Y0270096D01*
X0176000Y0270633D01*
X0176994Y0271627D01*
X0177531Y0272924D01*
X0177531Y0274329D01*
X0177350Y0274766D01*
X0177350Y0284487D01*
X0177531Y0284924D01*
X0177531Y0286329D01*
X0176994Y0287627D01*
X0176000Y0288620D01*
X0174702Y0289158D01*
X0173298Y0289158D01*
X0172000Y0288620D01*
X0171006Y0287627D01*
X0170469Y0286329D01*
X0170469Y0284924D01*
X0170650Y0284487D01*
X0170650Y0274766D01*
X0170469Y0274329D01*
X0170469Y0272924D01*
X0170650Y0274985D02*
X0137641Y0274985D01*
X0135143Y0277484D02*
X0170650Y0277484D01*
X0170650Y0279982D02*
X0063531Y0279982D01*
X0060000Y0277627D02*
X0050000Y0277627D01*
X0046469Y0279982D02*
X0010000Y0279982D01*
X0010000Y0282481D02*
X0170650Y0282481D01*
X0170469Y0284980D02*
X0010000Y0284980D01*
X0010000Y0287478D02*
X0170945Y0287478D01*
X0177055Y0287478D02*
X0195026Y0287478D01*
X0195026Y0284980D02*
X0177531Y0284980D01*
X0177350Y0282481D02*
X0195893Y0282481D01*
X0195894Y0282480D02*
X0196407Y0282184D01*
X0196979Y0282030D01*
X0200026Y0282030D01*
X0200026Y0290723D01*
X0200526Y0290723D01*
X0200526Y0291223D01*
X0205526Y0291223D01*
X0205526Y0297962D01*
X0205372Y0298535D01*
X0205076Y0299048D01*
X0204657Y0299467D01*
X0204144Y0299763D01*
X0203572Y0299916D01*
X0200526Y0299916D01*
X0200526Y0291223D01*
X0200026Y0291223D01*
X0200026Y0290723D01*
X0195026Y0290723D01*
X0195026Y0283984D01*
X0195179Y0283412D01*
X0195475Y0282899D01*
X0195894Y0282480D01*
X0200026Y0282481D02*
X0200526Y0282481D01*
X0200526Y0282030D02*
X0203410Y0282030D01*
X0203006Y0281627D01*
X0202469Y0280329D01*
X0202469Y0278924D01*
X0203006Y0277627D01*
X0204000Y0276633D01*
X0205298Y0276096D01*
X0206702Y0276096D01*
X0208000Y0276633D01*
X0208044Y0276677D01*
X0208325Y0276677D01*
X0209409Y0277126D01*
X0210239Y0277956D01*
X0212117Y0279834D01*
X0217113Y0279834D01*
X0218138Y0280859D01*
X0218138Y0289395D01*
X0217113Y0290420D01*
X0209364Y0290420D01*
X0208339Y0289395D01*
X0208339Y0284399D01*
X0206982Y0283042D01*
X0206702Y0283158D01*
X0205298Y0283158D01*
X0205203Y0283119D01*
X0205372Y0283412D01*
X0205526Y0283984D01*
X0205526Y0290723D01*
X0200526Y0290723D01*
X0200526Y0282030D01*
X0202469Y0279982D02*
X0177350Y0279982D01*
X0177350Y0277484D02*
X0203149Y0277484D01*
X0209767Y0277484D02*
X0257250Y0277484D01*
X0257250Y0279982D02*
X0228992Y0279982D01*
X0228793Y0279783D02*
X0229212Y0280202D01*
X0229508Y0280715D01*
X0229661Y0281287D01*
X0229661Y0284802D01*
X0224587Y0284802D01*
X0224587Y0285452D01*
X0229661Y0285452D01*
X0229661Y0288966D01*
X0229508Y0289539D01*
X0229212Y0290052D01*
X0228793Y0290471D01*
X0228280Y0290767D01*
X0227708Y0290920D01*
X0224587Y0290920D01*
X0224587Y0285452D01*
X0223937Y0285452D01*
X0223937Y0290920D01*
X0220816Y0290920D01*
X0220244Y0290767D01*
X0219731Y0290471D01*
X0219312Y0290052D01*
X0219016Y0289539D01*
X0218862Y0288966D01*
X0218862Y0285452D01*
X0223937Y0285452D01*
X0223937Y0284802D01*
X0224587Y0284802D01*
X0224587Y0279334D01*
X0227708Y0279334D01*
X0228280Y0279487D01*
X0228793Y0279783D01*
X0229661Y0282481D02*
X0233137Y0282481D01*
X0233138Y0282480D02*
X0233651Y0282184D01*
X0234223Y0282030D01*
X0237270Y0282030D01*
X0237270Y0290723D01*
X0237770Y0290723D01*
X0237770Y0291223D01*
X0242770Y0291223D01*
X0242770Y0297962D01*
X0242616Y0298535D01*
X0242320Y0299048D01*
X0241901Y0299467D01*
X0241388Y0299763D01*
X0240816Y0299916D01*
X0237770Y0299916D01*
X0237770Y0291223D01*
X0237270Y0291223D01*
X0237270Y0290723D01*
X0232270Y0290723D01*
X0232270Y0283984D01*
X0232423Y0283412D01*
X0232719Y0282899D01*
X0233138Y0282480D01*
X0232270Y0284980D02*
X0224587Y0284980D01*
X0223937Y0284980D02*
X0218138Y0284980D01*
X0218862Y0284802D02*
X0218862Y0281287D01*
X0219016Y0280715D01*
X0219312Y0280202D01*
X0219731Y0279783D01*
X0220244Y0279487D01*
X0220816Y0279334D01*
X0223937Y0279334D01*
X0223937Y0284802D01*
X0218862Y0284802D01*
X0218862Y0282481D02*
X0218138Y0282481D01*
X0217262Y0279982D02*
X0219531Y0279982D01*
X0223937Y0279982D02*
X0224587Y0279982D01*
X0224587Y0282481D02*
X0223937Y0282481D01*
X0223937Y0287478D02*
X0224587Y0287478D01*
X0224587Y0289977D02*
X0223937Y0289977D01*
X0219268Y0289977D02*
X0217556Y0289977D01*
X0218138Y0287478D02*
X0218862Y0287478D01*
X0208920Y0289977D02*
X0205526Y0289977D01*
X0205526Y0292475D02*
X0232270Y0292475D01*
X0232270Y0291223D02*
X0237270Y0291223D01*
X0237270Y0299916D01*
X0234223Y0299916D01*
X0233651Y0299763D01*
X0233138Y0299467D01*
X0232719Y0299048D01*
X0232423Y0298535D01*
X0232270Y0297962D01*
X0232270Y0291223D01*
X0232270Y0289977D02*
X0229255Y0289977D01*
X0229661Y0287478D02*
X0232270Y0287478D01*
X0237270Y0287478D02*
X0237770Y0287478D01*
X0237770Y0284980D02*
X0237270Y0284980D01*
X0237270Y0282481D02*
X0237770Y0282481D01*
X0237770Y0282030D02*
X0240816Y0282030D01*
X0241388Y0282184D01*
X0241901Y0282480D01*
X0242320Y0282899D01*
X0242616Y0283412D01*
X0242770Y0283984D01*
X0242770Y0290723D01*
X0237770Y0290723D01*
X0237770Y0282030D01*
X0241902Y0282481D02*
X0257250Y0282481D01*
X0257250Y0284980D02*
X0242770Y0284980D01*
X0242770Y0287478D02*
X0257250Y0287478D01*
X0257250Y0289977D02*
X0242770Y0289977D01*
X0242770Y0292475D02*
X0257250Y0292475D01*
X0256616Y0294974D02*
X0242770Y0294974D01*
X0242770Y0297472D02*
X0256469Y0297472D01*
X0256469Y0299971D02*
X0221808Y0299971D01*
X0223013Y0300956D02*
X0223013Y0300956D01*
X0223012Y0305127D02*
X0225000Y0307115D01*
X0225512Y0307627D01*
X0219707Y0307466D02*
X0039082Y0307466D01*
X0038378Y0304968D02*
X0207347Y0304968D01*
X0206469Y0302469D02*
X0033119Y0302469D01*
X0034013Y0302099D02*
X0032074Y0302902D01*
X0022926Y0302902D01*
X0020987Y0302099D01*
X0019503Y0300615D01*
X0018700Y0298676D01*
X0018700Y0296578D01*
X0019503Y0294639D01*
X0020987Y0293155D01*
X0022926Y0292352D01*
X0032074Y0292352D01*
X0034013Y0293155D01*
X0035497Y0294639D01*
X0036300Y0296578D01*
X0036300Y0298676D01*
X0035497Y0300615D01*
X0034013Y0302099D01*
X0035764Y0299971D02*
X0207663Y0299971D01*
X0205000Y0300816D02*
X0205000Y0302627D01*
X0200026Y0299916D02*
X0196979Y0299916D01*
X0196407Y0299763D01*
X0195894Y0299467D01*
X0195475Y0299048D01*
X0195179Y0298535D01*
X0195026Y0297962D01*
X0195026Y0291223D01*
X0200026Y0291223D01*
X0200026Y0299916D01*
X0200026Y0297472D02*
X0200526Y0297472D01*
X0200526Y0294974D02*
X0200026Y0294974D01*
X0200026Y0292475D02*
X0200526Y0292475D01*
X0200526Y0289977D02*
X0200026Y0289977D01*
X0200026Y0287478D02*
X0200526Y0287478D01*
X0200526Y0284980D02*
X0200026Y0284980D01*
X0205526Y0284980D02*
X0208339Y0284980D01*
X0208339Y0287478D02*
X0205526Y0287478D01*
X0205526Y0294974D02*
X0232270Y0294974D01*
X0232270Y0297472D02*
X0205526Y0297472D01*
X0195026Y0297472D02*
X0036300Y0297472D01*
X0035636Y0294974D02*
X0195026Y0294974D01*
X0195026Y0292475D02*
X0032372Y0292475D01*
X0022628Y0292475D02*
X0010000Y0292475D01*
X0010000Y0289977D02*
X0195026Y0289977D01*
X0177350Y0274985D02*
X0258752Y0274985D01*
X0261251Y0272487D02*
X0177350Y0272487D01*
X0140000Y0257496D02*
X0109112Y0257496D01*
X0106613Y0254997D02*
X0121469Y0254997D01*
X0121469Y0255133D02*
X0121469Y0253338D01*
X0117969Y0249838D01*
X0117512Y0248735D01*
X0117512Y0247920D01*
X0116637Y0247920D01*
X0115612Y0246895D01*
X0115612Y0238359D01*
X0116637Y0237334D01*
X0124386Y0237334D01*
X0125411Y0238359D01*
X0125411Y0246895D01*
X0124461Y0247845D01*
X0125712Y0249096D01*
X0127506Y0249096D01*
X0128531Y0250121D01*
X0128531Y0255133D01*
X0127506Y0256158D01*
X0122494Y0256158D01*
X0121469Y0255133D01*
X0120629Y0252499D02*
X0106031Y0252499D01*
X0106869Y0250000D02*
X0118131Y0250000D01*
X0120512Y0248139D02*
X0125000Y0252627D01*
X0128531Y0252499D02*
X0140000Y0252499D01*
X0140000Y0254997D02*
X0128531Y0254997D01*
X0128411Y0250000D02*
X0140000Y0250000D01*
X0140000Y0247502D02*
X0124805Y0247502D01*
X0125411Y0245003D02*
X0140000Y0245003D01*
X0140122Y0242505D02*
X0125411Y0242505D01*
X0125411Y0240006D02*
X0142621Y0240006D01*
X0145119Y0237508D02*
X0124560Y0237508D01*
X0120512Y0242627D02*
X0120512Y0248139D01*
X0116219Y0247502D02*
X0113781Y0247502D01*
X0114388Y0245003D02*
X0115612Y0245003D01*
X0115612Y0242505D02*
X0114388Y0242505D01*
X0114388Y0240006D02*
X0115612Y0240006D01*
X0116463Y0237508D02*
X0113537Y0237508D01*
X0109488Y0242627D02*
X0109488Y0243139D01*
X0102500Y0250127D01*
X0102500Y0255127D01*
X0110000Y0262627D01*
X0113531Y0262493D02*
X0135134Y0262493D01*
X0132635Y0264991D02*
X0113531Y0264991D01*
X0113405Y0259994D02*
X0137632Y0259994D01*
X0130137Y0267490D02*
X0078750Y0267490D01*
X0078402Y0264991D02*
X0106469Y0264991D01*
X0105623Y0262493D02*
X0084814Y0262493D01*
X0084386Y0262920D02*
X0076637Y0262920D01*
X0075612Y0261895D01*
X0075612Y0253359D01*
X0076637Y0252334D01*
X0083969Y0252334D01*
X0083969Y0247621D01*
X0084994Y0246596D01*
X0090006Y0246596D01*
X0091031Y0247621D01*
X0091031Y0252633D01*
X0090500Y0253164D01*
X0090500Y0255724D01*
X0090043Y0256826D01*
X0089199Y0257670D01*
X0086699Y0260170D01*
X0085597Y0260627D01*
X0085411Y0260627D01*
X0085411Y0261895D01*
X0084386Y0262920D01*
X0086875Y0259994D02*
X0103125Y0259994D01*
X0100626Y0257496D02*
X0089374Y0257496D01*
X0090500Y0254997D02*
X0099500Y0254997D01*
X0098969Y0252499D02*
X0091031Y0252499D01*
X0091031Y0250000D02*
X0098969Y0250000D01*
X0099088Y0247502D02*
X0090912Y0247502D01*
X0087500Y0250127D02*
X0087500Y0255127D01*
X0085000Y0257627D01*
X0080512Y0257627D01*
X0075612Y0257496D02*
X0074388Y0257496D01*
X0074388Y0259994D02*
X0075612Y0259994D01*
X0075169Y0262493D02*
X0076210Y0262493D01*
X0069560Y0267490D02*
X0032408Y0267490D01*
X0022592Y0267490D02*
X0007250Y0267490D01*
X0007250Y0264991D02*
X0067061Y0264991D01*
X0065186Y0262493D02*
X0007250Y0262493D01*
X0007250Y0259994D02*
X0062064Y0259994D01*
X0059566Y0257496D02*
X0033054Y0257496D01*
X0034013Y0257099D02*
X0032074Y0257902D01*
X0022926Y0257902D01*
X0020987Y0257099D01*
X0019503Y0255615D01*
X0018700Y0253676D01*
X0018700Y0251578D01*
X0019503Y0249639D01*
X0020987Y0248155D01*
X0022926Y0247352D01*
X0032074Y0247352D01*
X0034013Y0248155D01*
X0035497Y0249639D01*
X0036300Y0251578D01*
X0036300Y0253676D01*
X0035497Y0255615D01*
X0034013Y0257099D01*
X0035753Y0254997D02*
X0058750Y0254997D01*
X0058750Y0252499D02*
X0036300Y0252499D01*
X0035647Y0250000D02*
X0058750Y0250000D01*
X0059088Y0247502D02*
X0032436Y0247502D01*
X0022564Y0247502D02*
X0007250Y0247502D01*
X0007250Y0250000D02*
X0019353Y0250000D01*
X0018700Y0252499D02*
X0007250Y0252499D01*
X0007250Y0254997D02*
X0019247Y0254997D01*
X0021946Y0257496D02*
X0007250Y0257496D01*
X0007250Y0245003D02*
X0103381Y0245003D01*
X0104589Y0242505D02*
X0007250Y0242505D01*
X0007250Y0215021D02*
X0019257Y0215021D01*
X0018700Y0212523D02*
X0007250Y0212523D01*
X0007250Y0210024D02*
X0019343Y0210024D01*
X0022506Y0207526D02*
X0007250Y0207526D01*
X0007250Y0175045D02*
X0019267Y0175045D01*
X0018700Y0172546D02*
X0007250Y0172546D01*
X0007250Y0170048D02*
X0019334Y0170048D01*
X0032911Y0157555D02*
X0136469Y0157555D01*
X0136533Y0155057D02*
X0048531Y0155057D01*
X0048750Y0152558D02*
X0155050Y0152558D01*
X0155608Y0155057D02*
X0143467Y0155057D01*
X0144171Y0157555D02*
X0157502Y0157555D01*
X0154667Y0160054D02*
X0146670Y0160054D01*
X0149168Y0162552D02*
X0154050Y0162552D01*
X0154605Y0165051D02*
X0151667Y0165051D01*
X0154165Y0167549D02*
X0157143Y0167549D01*
X0155000Y0172627D02*
X0140000Y0157627D01*
X0126469Y0150060D02*
X0117561Y0150060D01*
X0118531Y0147561D02*
X0126469Y0147561D01*
X0126527Y0145063D02*
X0118000Y0145063D01*
X0118000Y0142564D02*
X0125695Y0142564D01*
X0123196Y0140066D02*
X0118531Y0140066D01*
X0118531Y0137567D02*
X0120698Y0137567D01*
X0115000Y0137627D02*
X0115000Y0147627D01*
X0111469Y0147561D02*
X0032580Y0147561D01*
X0022118Y0137567D02*
X0007250Y0137567D01*
X0007250Y0135069D02*
X0019277Y0135069D01*
X0018700Y0132570D02*
X0007250Y0132570D01*
X0007250Y0130072D02*
X0019324Y0130072D01*
X0022147Y0117579D02*
X0007250Y0117579D01*
X0007250Y0115081D02*
X0019282Y0115081D01*
X0018700Y0112582D02*
X0007250Y0112582D01*
X0007250Y0110084D02*
X0019319Y0110084D01*
X0048531Y0095093D02*
X0061878Y0095093D01*
X0072777Y0100090D02*
X0096500Y0100090D01*
X0096469Y0100121D02*
X0097494Y0099096D01*
X0102506Y0099096D01*
X0103037Y0099627D01*
X0121963Y0099627D01*
X0122494Y0099096D01*
X0127506Y0099096D01*
X0128531Y0100121D01*
X0128531Y0105133D01*
X0127506Y0106158D01*
X0122494Y0106158D01*
X0121963Y0105627D01*
X0103037Y0105627D01*
X0102506Y0106158D01*
X0097494Y0106158D01*
X0096469Y0105133D01*
X0096469Y0100121D01*
X0096469Y0102588D02*
X0073155Y0102588D01*
X0072809Y0105087D02*
X0096469Y0105087D01*
X0100000Y0102627D02*
X0125000Y0102627D01*
X0128531Y0102588D02*
X0154050Y0102588D01*
X0154620Y0105087D02*
X0128531Y0105087D01*
X0129005Y0107585D02*
X0071575Y0107585D01*
X0068309Y0110084D02*
X0128969Y0110084D01*
X0132500Y0110127D02*
X0145000Y0122627D01*
X0148531Y0122576D02*
X0154050Y0122576D01*
X0154615Y0125075D02*
X0148531Y0125075D01*
X0148488Y0120078D02*
X0154657Y0120078D01*
X0157445Y0117579D02*
X0144195Y0117579D01*
X0141696Y0115081D02*
X0155617Y0115081D01*
X0155050Y0112582D02*
X0139198Y0112582D01*
X0136699Y0110084D02*
X0155654Y0110084D01*
X0157229Y0107585D02*
X0135995Y0107585D01*
X0128500Y0100090D02*
X0154652Y0100090D01*
X0177584Y0097591D02*
X0232243Y0097591D01*
X0230652Y0100090D02*
X0180348Y0100090D01*
X0180950Y0102588D02*
X0230050Y0102588D01*
X0224003Y0105087D02*
X0180380Y0105087D01*
X0177771Y0107585D02*
X0223750Y0107585D01*
X0223750Y0110084D02*
X0179346Y0110084D01*
X0179950Y0112582D02*
X0223750Y0112582D01*
X0223750Y0115081D02*
X0179383Y0115081D01*
X0177555Y0117579D02*
X0223750Y0117579D01*
X0223750Y0120078D02*
X0180343Y0120078D01*
X0180950Y0122576D02*
X0223750Y0122576D01*
X0223750Y0125075D02*
X0180385Y0125075D01*
X0177800Y0127573D02*
X0223750Y0127573D01*
X0223969Y0130072D02*
X0179341Y0130072D01*
X0179950Y0132570D02*
X0229050Y0132570D01*
X0229612Y0135069D02*
X0179388Y0135069D01*
X0177527Y0137567D02*
X0232186Y0137567D01*
X0230662Y0140066D02*
X0180338Y0140066D01*
X0180950Y0142564D02*
X0230050Y0142564D01*
X0230610Y0145063D02*
X0180390Y0145063D01*
X0177829Y0147561D02*
X0232488Y0147561D01*
X0229664Y0150060D02*
X0179336Y0150060D01*
X0179950Y0152558D02*
X0229050Y0152558D01*
X0229608Y0155057D02*
X0179392Y0155057D01*
X0177498Y0157555D02*
X0232157Y0157555D01*
X0230667Y0160054D02*
X0180333Y0160054D01*
X0180950Y0162552D02*
X0230050Y0162552D01*
X0230605Y0165051D02*
X0228461Y0165051D01*
X0228750Y0167549D02*
X0232516Y0167549D01*
X0229669Y0170048D02*
X0228750Y0170048D01*
X0228750Y0172546D02*
X0229050Y0172546D01*
X0228750Y0175045D02*
X0229603Y0175045D01*
X0228750Y0177544D02*
X0232128Y0177544D01*
X0230672Y0180042D02*
X0228750Y0180042D01*
X0228750Y0182541D02*
X0230050Y0182541D01*
X0228845Y0185039D02*
X0228750Y0185039D01*
X0232333Y0190036D02*
X0252170Y0190036D01*
X0251844Y0189249D02*
X0251844Y0186005D01*
X0253086Y0183007D01*
X0255380Y0180713D01*
X0258378Y0179471D01*
X0261622Y0179471D01*
X0264620Y0180713D01*
X0266914Y0183007D01*
X0268155Y0186005D01*
X0268155Y0189249D01*
X0266914Y0192247D01*
X0264620Y0194541D01*
X0261622Y0195782D01*
X0258378Y0195782D01*
X0255380Y0194541D01*
X0253086Y0192247D01*
X0251844Y0189249D01*
X0251844Y0187538D02*
X0237886Y0187538D01*
X0240400Y0185039D02*
X0252244Y0185039D01*
X0253553Y0182541D02*
X0240950Y0182541D01*
X0240328Y0180042D02*
X0257000Y0180042D01*
X0263000Y0180042D02*
X0355000Y0180042D01*
X0355000Y0177544D02*
X0237469Y0177544D01*
X0239397Y0175045D02*
X0355000Y0175045D01*
X0355000Y0172546D02*
X0252865Y0172546D01*
X0253587Y0172247D02*
X0251584Y0173077D01*
X0249416Y0173077D01*
X0247413Y0172247D01*
X0245880Y0170714D01*
X0245050Y0168711D01*
X0245050Y0166543D01*
X0245880Y0164540D01*
X0247413Y0163007D01*
X0247830Y0162834D01*
X0246413Y0162247D01*
X0244880Y0160714D01*
X0244050Y0158711D01*
X0244050Y0156543D01*
X0244880Y0154540D01*
X0246413Y0153007D01*
X0247830Y0152420D01*
X0247413Y0152247D01*
X0245880Y0150714D01*
X0245050Y0148711D01*
X0245050Y0146543D01*
X0245880Y0144540D01*
X0247413Y0143007D01*
X0247830Y0142834D01*
X0246413Y0142247D01*
X0244880Y0140714D01*
X0244050Y0138711D01*
X0244050Y0136543D01*
X0244880Y0134540D01*
X0246413Y0133007D01*
X0247830Y0132420D01*
X0247413Y0132247D01*
X0245880Y0130714D01*
X0245050Y0128711D01*
X0245050Y0126543D01*
X0245880Y0124540D01*
X0247413Y0123007D01*
X0247830Y0122834D01*
X0246413Y0122247D01*
X0244880Y0120714D01*
X0244050Y0118711D01*
X0244050Y0116543D01*
X0244880Y0114540D01*
X0246413Y0113007D01*
X0247830Y0112420D01*
X0247413Y0112247D01*
X0245880Y0110714D01*
X0245050Y0108711D01*
X0245050Y0106543D01*
X0245880Y0104540D01*
X0247413Y0103007D01*
X0247830Y0102834D01*
X0246413Y0102247D01*
X0244880Y0100714D01*
X0244050Y0098711D01*
X0244050Y0096543D01*
X0244880Y0094540D01*
X0246413Y0093007D01*
X0247830Y0092420D01*
X0247413Y0092247D01*
X0245880Y0090714D01*
X0245050Y0088711D01*
X0245050Y0086543D01*
X0245880Y0084540D01*
X0247413Y0083007D01*
X0247830Y0082834D01*
X0246413Y0082247D01*
X0244880Y0080714D01*
X0244050Y0078711D01*
X0244050Y0076543D01*
X0244880Y0074540D01*
X0246413Y0073007D01*
X0247830Y0072420D01*
X0247413Y0072247D01*
X0245880Y0070714D01*
X0245050Y0068711D01*
X0245050Y0066543D01*
X0245880Y0064540D01*
X0247413Y0063007D01*
X0247830Y0062834D01*
X0246413Y0062247D01*
X0244880Y0060714D01*
X0244050Y0058711D01*
X0244050Y0056543D01*
X0244880Y0054540D01*
X0246413Y0053007D01*
X0248416Y0052177D01*
X0250584Y0052177D01*
X0252587Y0053007D01*
X0254120Y0054540D01*
X0254950Y0056543D01*
X0254950Y0058711D01*
X0254120Y0060714D01*
X0252587Y0062247D01*
X0252170Y0062420D01*
X0253587Y0063007D01*
X0255120Y0064540D01*
X0255950Y0066543D01*
X0255950Y0068711D01*
X0255120Y0070714D01*
X0253587Y0072247D01*
X0252170Y0072834D01*
X0252587Y0073007D01*
X0254120Y0074540D01*
X0254950Y0076543D01*
X0254950Y0078711D01*
X0254120Y0080714D01*
X0252587Y0082247D01*
X0252170Y0082420D01*
X0253587Y0083007D01*
X0255120Y0084540D01*
X0255950Y0086543D01*
X0255950Y0088711D01*
X0255120Y0090714D01*
X0253587Y0092247D01*
X0252170Y0092834D01*
X0252587Y0093007D01*
X0254120Y0094540D01*
X0254950Y0096543D01*
X0254950Y0098711D01*
X0254120Y0100714D01*
X0252587Y0102247D01*
X0252170Y0102420D01*
X0253587Y0103007D01*
X0255120Y0104540D01*
X0255950Y0106543D01*
X0255950Y0108711D01*
X0255120Y0110714D01*
X0253587Y0112247D01*
X0252170Y0112834D01*
X0252587Y0113007D01*
X0254120Y0114540D01*
X0254950Y0116543D01*
X0254950Y0118711D01*
X0254120Y0120714D01*
X0252587Y0122247D01*
X0252170Y0122420D01*
X0253587Y0123007D01*
X0255120Y0124540D01*
X0255950Y0126543D01*
X0255950Y0128711D01*
X0255120Y0130714D01*
X0253587Y0132247D01*
X0252170Y0132834D01*
X0252587Y0133007D01*
X0254120Y0134540D01*
X0254950Y0136543D01*
X0254950Y0138711D01*
X0254120Y0140714D01*
X0252587Y0142247D01*
X0252170Y0142420D01*
X0253587Y0143007D01*
X0255120Y0144540D01*
X0255950Y0146543D01*
X0255950Y0148711D01*
X0255120Y0150714D01*
X0253587Y0152247D01*
X0252170Y0152834D01*
X0252587Y0153007D01*
X0254120Y0154540D01*
X0254950Y0156543D01*
X0254950Y0158711D01*
X0254120Y0160714D01*
X0252587Y0162247D01*
X0252170Y0162420D01*
X0253587Y0163007D01*
X0255120Y0164540D01*
X0255950Y0166543D01*
X0255950Y0168711D01*
X0255120Y0170714D01*
X0253587Y0172247D01*
X0255396Y0170048D02*
X0355000Y0170048D01*
X0355000Y0167549D02*
X0255950Y0167549D01*
X0255332Y0165051D02*
X0355000Y0165051D01*
X0355000Y0162552D02*
X0252491Y0162552D01*
X0254394Y0160054D02*
X0355000Y0160054D01*
X0355000Y0157555D02*
X0254950Y0157555D01*
X0254335Y0155057D02*
X0355000Y0155057D01*
X0355000Y0152558D02*
X0252836Y0152558D01*
X0255391Y0150060D02*
X0355000Y0150060D01*
X0355000Y0147561D02*
X0255950Y0147561D01*
X0255337Y0145063D02*
X0355000Y0145063D01*
X0355000Y0142564D02*
X0252520Y0142564D01*
X0254389Y0140066D02*
X0355000Y0140066D01*
X0355000Y0137567D02*
X0254950Y0137567D01*
X0254339Y0135069D02*
X0355000Y0135069D01*
X0355000Y0132570D02*
X0252807Y0132570D01*
X0255386Y0130072D02*
X0355000Y0130072D01*
X0355000Y0127573D02*
X0255950Y0127573D01*
X0255342Y0125075D02*
X0355000Y0125075D01*
X0355000Y0122576D02*
X0252548Y0122576D01*
X0254384Y0120078D02*
X0355000Y0120078D01*
X0355000Y0117579D02*
X0254950Y0117579D01*
X0254344Y0115081D02*
X0355000Y0115081D01*
X0355000Y0112582D02*
X0252778Y0112582D01*
X0255381Y0110084D02*
X0355000Y0110084D01*
X0355000Y0107585D02*
X0255950Y0107585D01*
X0255347Y0105087D02*
X0355000Y0105087D01*
X0355000Y0102588D02*
X0252577Y0102588D01*
X0254379Y0100090D02*
X0355000Y0100090D01*
X0362916Y0097591D02*
X0254950Y0097591D01*
X0254349Y0095093D02*
X0401451Y0095093D01*
X0401451Y0097591D02*
X0367084Y0097591D01*
X0366084Y0088077D02*
X0363916Y0088077D01*
X0361913Y0087247D01*
X0360380Y0085714D01*
X0359550Y0083711D01*
X0359550Y0081543D01*
X0360380Y0079540D01*
X0361913Y0078007D01*
X0362830Y0077627D01*
X0361913Y0077247D01*
X0360380Y0075714D01*
X0359550Y0073711D01*
X0359550Y0071543D01*
X0360380Y0069540D01*
X0361913Y0068007D01*
X0362210Y0067883D01*
X0361882Y0067716D01*
X0361124Y0067165D01*
X0360462Y0066503D01*
X0359911Y0065745D01*
X0359486Y0064911D01*
X0359197Y0064020D01*
X0359050Y0063095D01*
X0359050Y0062627D01*
X0365000Y0062627D01*
X0370950Y0062627D01*
X0370950Y0063095D01*
X0370803Y0064020D01*
X0370514Y0064911D01*
X0370089Y0065745D01*
X0369538Y0066503D01*
X0368876Y0067165D01*
X0368118Y0067716D01*
X0367790Y0067883D01*
X0368087Y0068007D01*
X0369620Y0069540D01*
X0370450Y0071543D01*
X0370450Y0073711D01*
X0369620Y0075714D01*
X0368087Y0077247D01*
X0367170Y0077627D01*
X0368087Y0078007D01*
X0369620Y0079540D01*
X0370450Y0081543D01*
X0370450Y0083711D01*
X0369620Y0085714D01*
X0368087Y0087247D01*
X0366084Y0088077D01*
X0367242Y0087597D02*
X0401451Y0087597D01*
X0401451Y0085099D02*
X0369875Y0085099D01*
X0370450Y0082600D02*
X0401451Y0082600D01*
X0401451Y0080102D02*
X0369853Y0080102D01*
X0367228Y0077603D02*
X0401451Y0077603D01*
X0401451Y0075105D02*
X0369873Y0075105D01*
X0370450Y0072606D02*
X0401451Y0072606D01*
X0401451Y0070108D02*
X0369855Y0070108D01*
X0368265Y0067609D02*
X0401451Y0067609D01*
X0401451Y0065111D02*
X0370412Y0065111D01*
X0370950Y0062627D02*
X0365000Y0062627D01*
X0365000Y0062627D01*
X0365000Y0062627D01*
X0359050Y0062627D01*
X0359050Y0062159D01*
X0359197Y0061234D01*
X0359486Y0060343D01*
X0359911Y0059508D01*
X0360462Y0058751D01*
X0361124Y0058088D01*
X0361882Y0057538D01*
X0362210Y0057370D01*
X0361913Y0057247D01*
X0360380Y0055714D01*
X0359550Y0053711D01*
X0359550Y0051543D01*
X0360380Y0049540D01*
X0361913Y0048007D01*
X0363916Y0047177D01*
X0366084Y0047177D01*
X0368087Y0048007D01*
X0369620Y0049540D01*
X0370450Y0051543D01*
X0370450Y0053711D01*
X0369620Y0055714D01*
X0368087Y0057247D01*
X0367790Y0057370D01*
X0368118Y0057538D01*
X0368876Y0058088D01*
X0369538Y0058751D01*
X0370089Y0059508D01*
X0370514Y0060343D01*
X0370803Y0061234D01*
X0370950Y0062159D01*
X0370950Y0062627D01*
X0370950Y0062612D02*
X0401451Y0062612D01*
X0401451Y0060113D02*
X0370397Y0060113D01*
X0368224Y0057615D02*
X0401451Y0057615D01*
X0401451Y0055116D02*
X0369868Y0055116D01*
X0370450Y0052618D02*
X0401451Y0052618D01*
X0401451Y0050119D02*
X0369860Y0050119D01*
X0367156Y0047621D02*
X0401451Y0047621D01*
X0401451Y0040125D02*
X0007250Y0040125D01*
X0007250Y0067609D02*
X0022305Y0067609D01*
X0019309Y0070108D02*
X0007250Y0070108D01*
X0007250Y0072606D02*
X0018700Y0072606D01*
X0019292Y0075105D02*
X0007250Y0075105D01*
X0007250Y0077603D02*
X0022204Y0077603D01*
X0007250Y0080102D02*
X0076488Y0080102D01*
X0076250Y0082600D02*
X0007250Y0082600D01*
X0048470Y0150060D02*
X0112439Y0150060D01*
X0112797Y0172546D02*
X0109692Y0172546D01*
X0106902Y0177028D02*
X0105598Y0177028D01*
X0100308Y0172546D02*
X0099599Y0172546D01*
X0095000Y0188139D02*
X0095087Y0188225D01*
X0105000Y0188225D01*
X0105598Y0188225D01*
X0105000Y0197115D02*
X0095087Y0197115D01*
X0095000Y0197028D01*
X0085598Y0197028D01*
X0085000Y0197627D01*
X0085000Y0187627D02*
X0075512Y0187627D01*
X0077500Y0205127D02*
X0070000Y0212627D01*
X0070000Y0215127D01*
X0074347Y0212523D02*
X0082613Y0212523D01*
X0080114Y0210024D02*
X0076845Y0210024D01*
X0085000Y0207627D02*
X0094402Y0207627D01*
X0095000Y0208225D01*
X0104913Y0208225D01*
X0105000Y0208139D01*
X0109784Y0212523D02*
X0112613Y0212523D01*
X0117387Y0212523D02*
X0335104Y0212523D01*
X0332606Y0215021D02*
X0252781Y0215021D01*
X0253293Y0222517D02*
X0280868Y0222517D01*
X0293293Y0232511D02*
X0400000Y0232511D01*
X0400000Y0235009D02*
X0339382Y0235009D01*
X0330618Y0235009D02*
X0293293Y0235009D01*
X0293293Y0237508D02*
X0329950Y0237508D01*
X0330520Y0240006D02*
X0292938Y0240006D01*
X0293531Y0259994D02*
X0375449Y0259994D01*
X0374750Y0262493D02*
X0289023Y0262493D01*
X0286525Y0264991D02*
X0375338Y0264991D01*
X0400000Y0314962D02*
X0257806Y0314962D01*
X0256622Y0314471D02*
X0259620Y0315713D01*
X0261914Y0318007D01*
X0263155Y0321005D01*
X0263155Y0324249D01*
X0261914Y0327247D01*
X0259620Y0329541D01*
X0256622Y0330782D01*
X0253378Y0330782D01*
X0250380Y0329541D01*
X0248086Y0327247D01*
X0246844Y0324249D01*
X0246844Y0321005D01*
X0248086Y0318007D01*
X0250380Y0315713D01*
X0253378Y0314471D01*
X0256622Y0314471D01*
X0261367Y0317460D02*
X0400000Y0317460D01*
X0400000Y0319959D02*
X0262722Y0319959D01*
X0263155Y0322457D02*
X0400000Y0322457D01*
X0400000Y0324956D02*
X0262863Y0324956D01*
X0261706Y0327454D02*
X0400000Y0327454D01*
X0400000Y0329953D02*
X0258625Y0329953D01*
X0251375Y0329953D02*
X0239750Y0329953D01*
X0239750Y0327454D02*
X0248294Y0327454D01*
X0247137Y0324956D02*
X0239750Y0324956D01*
X0238083Y0322457D02*
X0246844Y0322457D01*
X0247278Y0319959D02*
X0235585Y0319959D01*
X0232500Y0319959D02*
X0232500Y0319959D01*
X0232500Y0322457D02*
X0232500Y0322457D01*
X0232500Y0324956D02*
X0232500Y0324956D01*
X0232500Y0327454D02*
X0232500Y0327454D01*
X0232500Y0329953D02*
X0232500Y0329953D01*
X0232500Y0332451D02*
X0232500Y0332451D01*
X0237429Y0332451D02*
X0400000Y0332451D01*
X0400000Y0334950D02*
X0336145Y0334950D01*
X0336318Y0335038D02*
X0337076Y0335588D01*
X0337738Y0336251D01*
X0338289Y0337008D01*
X0338714Y0337843D01*
X0339003Y0338734D01*
X0339150Y0339659D01*
X0339150Y0340127D01*
X0339150Y0340595D01*
X0339003Y0341520D01*
X0338714Y0342411D01*
X0338289Y0343245D01*
X0337738Y0344003D01*
X0337076Y0344665D01*
X0336318Y0345216D01*
X0335484Y0345641D01*
X0334593Y0345930D01*
X0333668Y0346077D01*
X0333200Y0346077D01*
X0333200Y0340127D01*
X0333200Y0340127D01*
X0333200Y0346077D01*
X0332732Y0346077D01*
X0331807Y0345930D01*
X0330916Y0345641D01*
X0330082Y0345216D01*
X0329324Y0344665D01*
X0328662Y0344003D01*
X0328111Y0343245D01*
X0327686Y0342411D01*
X0327584Y0342096D01*
X0327120Y0343214D01*
X0325587Y0344747D01*
X0323584Y0345577D01*
X0321416Y0345577D01*
X0319413Y0344747D01*
X0317880Y0343214D01*
X0317150Y0341452D01*
X0316420Y0343214D01*
X0314887Y0344747D01*
X0312884Y0345577D01*
X0310716Y0345577D01*
X0308713Y0344747D01*
X0308343Y0344377D01*
X0291655Y0344377D01*
X0290093Y0343730D01*
X0287521Y0341158D01*
X0287494Y0341158D01*
X0286469Y0340133D01*
X0286469Y0340106D01*
X0286397Y0340034D01*
X0285750Y0338472D01*
X0285750Y0336781D01*
X0286397Y0335219D01*
X0286469Y0335148D01*
X0286469Y0335121D01*
X0287494Y0334096D01*
X0287521Y0334096D01*
X0287593Y0334024D01*
X0289155Y0333377D01*
X0290845Y0333377D01*
X0292407Y0334024D01*
X0292479Y0334096D01*
X0292506Y0334096D01*
X0293531Y0335121D01*
X0293531Y0335148D01*
X0294260Y0335877D01*
X0308343Y0335877D01*
X0308713Y0335507D01*
X0310716Y0334677D01*
X0312884Y0334677D01*
X0314887Y0335507D01*
X0316420Y0337040D01*
X0317150Y0338801D01*
X0317880Y0337040D01*
X0319413Y0335507D01*
X0321416Y0334677D01*
X0323584Y0334677D01*
X0325587Y0335507D01*
X0327120Y0337040D01*
X0327584Y0338158D01*
X0327686Y0337843D01*
X0328111Y0337008D01*
X0328662Y0336251D01*
X0329324Y0335588D01*
X0330082Y0335038D01*
X0330916Y0334613D01*
X0331807Y0334323D01*
X0332732Y0334177D01*
X0333200Y0334177D01*
X0333668Y0334177D01*
X0334593Y0334323D01*
X0335484Y0334613D01*
X0336318Y0335038D01*
X0333200Y0334950D02*
X0333200Y0334950D01*
X0333200Y0334177D02*
X0333200Y0340127D01*
X0339150Y0340127D01*
X0333200Y0340127D01*
X0333200Y0340127D01*
X0333200Y0340127D01*
X0333200Y0334177D01*
X0330255Y0334950D02*
X0324243Y0334950D01*
X0320757Y0334950D02*
X0313543Y0334950D01*
X0310057Y0334950D02*
X0293360Y0334950D01*
X0286640Y0334950D02*
X0170275Y0334950D01*
X0170275Y0337448D02*
X0171642Y0337448D01*
X0171469Y0337621D02*
X0172494Y0336596D01*
X0172521Y0336596D01*
X0172593Y0336524D01*
X0174155Y0335877D01*
X0175845Y0335877D01*
X0177407Y0336524D01*
X0177479Y0336596D01*
X0177506Y0336596D01*
X0178531Y0337621D01*
X0178531Y0337648D01*
X0178603Y0337719D01*
X0179250Y0339281D01*
X0179250Y0340972D01*
X0178603Y0342534D01*
X0178531Y0342606D01*
X0178531Y0342633D01*
X0177506Y0343658D01*
X0177479Y0343658D01*
X0171103Y0350034D01*
X0169907Y0351230D01*
X0168345Y0351877D01*
X0139155Y0351877D01*
X0137593Y0351230D01*
X0127521Y0341158D01*
X0127494Y0341158D01*
X0126469Y0340133D01*
X0126469Y0340106D01*
X0126397Y0340034D01*
X0125750Y0338472D01*
X0125750Y0336781D01*
X0126397Y0335219D01*
X0126469Y0335148D01*
X0126469Y0335121D01*
X0127494Y0334096D01*
X0127521Y0334096D01*
X0127593Y0334024D01*
X0129155Y0333377D01*
X0130845Y0333377D01*
X0132407Y0334024D01*
X0132479Y0334096D01*
X0132506Y0334096D01*
X0133531Y0335121D01*
X0133531Y0335148D01*
X0141760Y0343377D01*
X0142623Y0343377D01*
X0142012Y0343124D01*
X0140528Y0341640D01*
X0139725Y0339701D01*
X0139725Y0330553D01*
X0140528Y0328614D01*
X0142012Y0327130D01*
X0143951Y0326327D01*
X0146049Y0326327D01*
X0147988Y0327130D01*
X0149472Y0328614D01*
X0150275Y0330553D01*
X0150275Y0339701D01*
X0149472Y0341640D01*
X0147988Y0343124D01*
X0147377Y0343377D01*
X0162623Y0343377D01*
X0162012Y0343124D01*
X0160528Y0341640D01*
X0159725Y0339701D01*
X0159725Y0330553D01*
X0160528Y0328614D01*
X0162012Y0327130D01*
X0163951Y0326327D01*
X0166049Y0326327D01*
X0167988Y0327130D01*
X0169472Y0328614D01*
X0170275Y0330553D01*
X0170275Y0338841D01*
X0171469Y0337648D01*
X0171469Y0337621D01*
X0170275Y0332451D02*
X0227571Y0332451D01*
X0225250Y0329953D02*
X0170027Y0329953D01*
X0168312Y0327454D02*
X0225250Y0327454D01*
X0225250Y0324956D02*
X0042632Y0324956D01*
X0042124Y0324448D02*
X0046772Y0329096D01*
X0047506Y0329096D01*
X0048531Y0330121D01*
X0048531Y0331352D01*
X0048750Y0331881D01*
X0048750Y0333373D01*
X0048531Y0333901D01*
X0048531Y0335133D01*
X0047506Y0336158D01*
X0046274Y0336158D01*
X0045746Y0336377D01*
X0044254Y0336377D01*
X0043726Y0336158D01*
X0042494Y0336158D01*
X0041469Y0335133D01*
X0041469Y0334399D01*
X0038447Y0331377D01*
X0029254Y0331377D01*
X0028726Y0331158D01*
X0027494Y0331158D01*
X0026469Y0330133D01*
X0026469Y0328901D01*
X0026250Y0328373D01*
X0026250Y0326881D01*
X0026469Y0326352D01*
X0026469Y0325121D01*
X0027494Y0324096D01*
X0028726Y0324096D01*
X0029254Y0323877D01*
X0040746Y0323877D01*
X0042124Y0324448D01*
X0043969Y0322457D02*
X0033148Y0322457D01*
X0034013Y0322099D02*
X0032074Y0322902D01*
X0022926Y0322902D01*
X0020987Y0322099D01*
X0019503Y0320615D01*
X0018700Y0318676D01*
X0018700Y0316578D01*
X0019503Y0314639D01*
X0020987Y0313155D01*
X0022926Y0312352D01*
X0032074Y0312352D01*
X0034013Y0313155D01*
X0035497Y0314639D01*
X0036300Y0316578D01*
X0036300Y0318676D01*
X0035497Y0320615D01*
X0034013Y0322099D01*
X0035769Y0319959D02*
X0043089Y0319959D01*
X0040591Y0317460D02*
X0036300Y0317460D01*
X0035631Y0314962D02*
X0038092Y0314962D01*
X0035594Y0312463D02*
X0032343Y0312463D01*
X0031469Y0309965D02*
X0010000Y0309965D01*
X0010000Y0312463D02*
X0022657Y0312463D01*
X0019369Y0314962D02*
X0010000Y0314962D01*
X0010000Y0317460D02*
X0018700Y0317460D01*
X0019231Y0319959D02*
X0010000Y0319959D01*
X0010000Y0322457D02*
X0021852Y0322457D01*
X0026634Y0324956D02*
X0010000Y0324956D01*
X0010000Y0327454D02*
X0026250Y0327454D01*
X0026469Y0329953D02*
X0010000Y0329953D01*
X0010000Y0332451D02*
X0022686Y0332451D01*
X0022926Y0332352D02*
X0032074Y0332352D01*
X0034013Y0333155D01*
X0035497Y0334639D01*
X0036300Y0336578D01*
X0036300Y0338676D01*
X0035497Y0340615D01*
X0034013Y0342099D01*
X0032074Y0342902D01*
X0022926Y0342902D01*
X0020987Y0342099D01*
X0019503Y0340615D01*
X0018700Y0338676D01*
X0018700Y0336578D01*
X0019503Y0334639D01*
X0020987Y0333155D01*
X0022926Y0332352D01*
X0019374Y0334950D02*
X0010000Y0334950D01*
X0010000Y0337448D02*
X0018700Y0337448D01*
X0019226Y0339947D02*
X0010000Y0339947D01*
X0010000Y0342445D02*
X0021823Y0342445D01*
X0033177Y0342445D02*
X0113857Y0342445D01*
X0112880Y0342041D02*
X0110586Y0339747D01*
X0109344Y0336749D01*
X0109344Y0333505D01*
X0110586Y0330507D01*
X0112880Y0328213D01*
X0115878Y0326971D01*
X0119122Y0326971D01*
X0122120Y0328213D01*
X0124414Y0330507D01*
X0125655Y0333505D01*
X0125655Y0336749D01*
X0124414Y0339747D01*
X0122120Y0342041D01*
X0119122Y0343282D01*
X0115878Y0343282D01*
X0112880Y0342041D01*
X0110786Y0339947D02*
X0035774Y0339947D01*
X0036300Y0337448D02*
X0109634Y0337448D01*
X0109344Y0334950D02*
X0048531Y0334950D01*
X0048750Y0332451D02*
X0109781Y0332451D01*
X0111141Y0329953D02*
X0048363Y0329953D01*
X0045131Y0327454D02*
X0114712Y0327454D01*
X0120288Y0327454D02*
X0141688Y0327454D01*
X0139973Y0329953D02*
X0123859Y0329953D01*
X0125219Y0332451D02*
X0139725Y0332451D01*
X0139725Y0334950D02*
X0133360Y0334950D01*
X0135832Y0337448D02*
X0139725Y0337448D01*
X0139827Y0339947D02*
X0138330Y0339947D01*
X0140829Y0342445D02*
X0141333Y0342445D01*
X0148667Y0342445D02*
X0161333Y0342445D01*
X0159827Y0339947D02*
X0150173Y0339947D01*
X0150275Y0337448D02*
X0159725Y0337448D01*
X0159725Y0334950D02*
X0150275Y0334950D01*
X0150275Y0332451D02*
X0159725Y0332451D01*
X0159973Y0329953D02*
X0150027Y0329953D01*
X0148312Y0327454D02*
X0161688Y0327454D01*
X0178358Y0337448D02*
X0285750Y0337448D01*
X0286361Y0339947D02*
X0179250Y0339947D01*
X0178640Y0342445D02*
X0227636Y0342445D01*
X0226098Y0344944D02*
X0176193Y0344944D01*
X0173695Y0347442D02*
X0225750Y0347442D01*
X0226359Y0349941D02*
X0171196Y0349941D01*
X0136304Y0349941D02*
X0010000Y0349941D01*
X0010000Y0352439D02*
X0228266Y0352439D01*
X0236734Y0352439D02*
X0400000Y0352439D01*
X0400000Y0349941D02*
X0238641Y0349941D01*
X0239250Y0347442D02*
X0377956Y0347442D01*
X0377991Y0347477D02*
X0375150Y0344636D01*
X0375150Y0342627D01*
X0380000Y0342627D01*
X0380000Y0342627D01*
X0380000Y0347477D01*
X0382009Y0347477D01*
X0384850Y0344636D01*
X0384850Y0342627D01*
X0380000Y0342627D01*
X0380000Y0347477D01*
X0377991Y0347477D01*
X0380000Y0347442D02*
X0380000Y0347442D01*
X0382044Y0347442D02*
X0400000Y0347442D01*
X0400000Y0344944D02*
X0384542Y0344944D01*
X0384850Y0342627D02*
X0380000Y0342627D01*
X0380000Y0342627D01*
X0380000Y0342627D01*
X0375150Y0342627D01*
X0375150Y0340618D01*
X0377991Y0337777D01*
X0380000Y0337777D01*
X0382009Y0337777D01*
X0384850Y0340618D01*
X0384850Y0342627D01*
X0384850Y0342445D02*
X0400000Y0342445D01*
X0400000Y0339947D02*
X0384179Y0339947D01*
X0380000Y0339947D02*
X0380000Y0339947D01*
X0380000Y0337777D02*
X0380000Y0342627D01*
X0380000Y0342627D01*
X0380000Y0337777D01*
X0375821Y0339947D02*
X0353472Y0339947D01*
X0354350Y0340825D02*
X0351802Y0338277D01*
X0348198Y0338277D01*
X0345650Y0340825D01*
X0345650Y0344429D01*
X0348198Y0346977D01*
X0351802Y0346977D01*
X0354350Y0344429D01*
X0354350Y0340825D01*
X0354350Y0342445D02*
X0375150Y0342445D01*
X0375458Y0344944D02*
X0353835Y0344944D01*
X0346165Y0344944D02*
X0336693Y0344944D01*
X0338697Y0342445D02*
X0345650Y0342445D01*
X0346528Y0339947D02*
X0339150Y0339947D01*
X0338513Y0337448D02*
X0400000Y0337448D01*
X0380000Y0342445D02*
X0380000Y0342445D01*
X0380000Y0344944D02*
X0380000Y0344944D01*
X0333200Y0344944D02*
X0333200Y0344944D01*
X0333200Y0342445D02*
X0333200Y0342445D01*
X0333200Y0339947D02*
X0333200Y0339947D01*
X0333200Y0337448D02*
X0333200Y0337448D01*
X0327887Y0337448D02*
X0327289Y0337448D01*
X0327439Y0342445D02*
X0327703Y0342445D01*
X0329707Y0344944D02*
X0325113Y0344944D01*
X0319888Y0344944D02*
X0314413Y0344944D01*
X0316739Y0342445D02*
X0317561Y0342445D01*
X0317710Y0337448D02*
X0316589Y0337448D01*
X0309188Y0344944D02*
X0238902Y0344944D01*
X0237364Y0342445D02*
X0288808Y0342445D01*
X0280000Y0317627D02*
X0280000Y0315127D01*
X0252194Y0314962D02*
X0230793Y0314962D01*
X0230793Y0317460D02*
X0248633Y0317460D01*
X0237770Y0297472D02*
X0237270Y0297472D01*
X0237270Y0294974D02*
X0237770Y0294974D01*
X0237770Y0292475D02*
X0237270Y0292475D01*
X0237270Y0289977D02*
X0237770Y0289977D01*
X0219207Y0314962D02*
X0046577Y0314962D01*
X0031469Y0307466D02*
X0010000Y0307466D01*
X0010000Y0304968D02*
X0031622Y0304968D01*
X0021881Y0302469D02*
X0010000Y0302469D01*
X0010000Y0299971D02*
X0019236Y0299971D01*
X0018700Y0297472D02*
X0010000Y0297472D01*
X0010000Y0294974D02*
X0019364Y0294974D01*
X0032314Y0332451D02*
X0039521Y0332451D01*
X0041469Y0334950D02*
X0035626Y0334950D01*
X0010000Y0344944D02*
X0131306Y0344944D01*
X0128808Y0342445D02*
X0121143Y0342445D01*
X0124214Y0339947D02*
X0126361Y0339947D01*
X0125750Y0337448D02*
X0125366Y0337448D01*
X0125655Y0334950D02*
X0126640Y0334950D01*
X0133805Y0347442D02*
X0010000Y0347442D01*
X0074388Y0254997D02*
X0075612Y0254997D01*
X0076472Y0252499D02*
X0073528Y0252499D01*
X0066250Y0250000D02*
X0083969Y0250000D01*
X0084088Y0247502D02*
X0065912Y0247502D01*
X0087387Y0212523D02*
X0090124Y0212523D01*
X0099876Y0212523D02*
X0100216Y0212523D01*
X0119886Y0210024D02*
X0337603Y0210024D01*
X0352594Y0195033D02*
X0263431Y0195033D01*
X0266626Y0192535D02*
X0355000Y0192535D01*
X0355000Y0190036D02*
X0267830Y0190036D01*
X0268155Y0187538D02*
X0355000Y0187538D01*
X0355000Y0185039D02*
X0267756Y0185039D01*
X0266447Y0182541D02*
X0355000Y0182541D01*
X0362500Y0180042D02*
X0375750Y0180042D01*
X0377050Y0177544D02*
X0362500Y0177544D01*
X0362500Y0175045D02*
X0377050Y0175045D01*
X0377050Y0172546D02*
X0362500Y0172546D01*
X0362500Y0170048D02*
X0400000Y0170048D01*
X0400000Y0172546D02*
X0392950Y0172546D01*
X0392950Y0175045D02*
X0400000Y0175045D01*
X0400000Y0177544D02*
X0392950Y0177544D01*
X0392410Y0180042D02*
X0400000Y0180042D01*
X0400000Y0167549D02*
X0362500Y0167549D01*
X0362500Y0165051D02*
X0400000Y0165051D01*
X0400000Y0162552D02*
X0362500Y0162552D01*
X0368381Y0160054D02*
X0400000Y0160054D01*
X0400000Y0157555D02*
X0371605Y0157555D01*
X0372821Y0155057D02*
X0400000Y0155057D01*
X0400000Y0152558D02*
X0393450Y0152558D01*
X0393450Y0152873D02*
X0393297Y0153445D01*
X0393000Y0153958D01*
X0392582Y0154377D01*
X0392068Y0154674D01*
X0391496Y0154827D01*
X0385275Y0154827D01*
X0385275Y0149802D01*
X0384725Y0149802D01*
X0384725Y0154827D01*
X0378504Y0154827D01*
X0377932Y0154674D01*
X0377418Y0154377D01*
X0377000Y0153958D01*
X0376703Y0153445D01*
X0376550Y0152873D01*
X0376550Y0149802D01*
X0384725Y0149802D01*
X0384725Y0149252D01*
X0376550Y0149252D01*
X0376550Y0146181D01*
X0376703Y0145608D01*
X0377000Y0145095D01*
X0377418Y0144676D01*
X0377932Y0144380D01*
X0378504Y0144227D01*
X0384725Y0144227D01*
X0384725Y0149252D01*
X0385275Y0149252D01*
X0385275Y0149802D01*
X0393450Y0149802D01*
X0393450Y0152873D01*
X0393450Y0150060D02*
X0400000Y0150060D01*
X0400000Y0147561D02*
X0393450Y0147561D01*
X0393450Y0146181D02*
X0393450Y0149252D01*
X0385275Y0149252D01*
X0385275Y0144227D01*
X0391496Y0144227D01*
X0392068Y0144380D01*
X0392582Y0144676D01*
X0393000Y0145095D01*
X0393297Y0145608D01*
X0393450Y0146181D01*
X0392968Y0145063D02*
X0400000Y0145063D01*
X0400000Y0142564D02*
X0362500Y0142564D01*
X0362500Y0140066D02*
X0400000Y0140066D01*
X0400000Y0137567D02*
X0362500Y0137567D01*
X0362500Y0135069D02*
X0400000Y0135069D01*
X0400000Y0132570D02*
X0362500Y0132570D01*
X0362500Y0130072D02*
X0400000Y0130072D01*
X0400000Y0127573D02*
X0368315Y0127573D01*
X0370431Y0125075D02*
X0400000Y0125075D01*
X0400000Y0122576D02*
X0370950Y0122576D01*
X0370950Y0122627D02*
X0365000Y0122627D01*
X0370950Y0122627D01*
X0370379Y0120078D02*
X0400000Y0120078D01*
X0400000Y0117579D02*
X0368175Y0117579D01*
X0369883Y0115081D02*
X0400000Y0115081D01*
X0400000Y0112582D02*
X0370450Y0112582D01*
X0369846Y0110084D02*
X0400000Y0110084D01*
X0401451Y0092594D02*
X0252749Y0092594D01*
X0255376Y0090096D02*
X0401451Y0090096D01*
X0362758Y0087597D02*
X0255950Y0087597D01*
X0255352Y0085099D02*
X0360125Y0085099D01*
X0359550Y0082600D02*
X0252606Y0082600D01*
X0254374Y0080102D02*
X0360147Y0080102D01*
X0362772Y0077603D02*
X0322774Y0077603D01*
X0322618Y0077716D02*
X0321784Y0078141D01*
X0320893Y0078430D01*
X0319968Y0078577D01*
X0319500Y0078577D01*
X0319500Y0072627D01*
X0319500Y0072627D01*
X0319500Y0078577D01*
X0319032Y0078577D01*
X0318107Y0078430D01*
X0317216Y0078141D01*
X0316382Y0077716D01*
X0315624Y0077165D01*
X0314962Y0076503D01*
X0314411Y0075745D01*
X0313986Y0074911D01*
X0313697Y0074020D01*
X0313550Y0073095D01*
X0313550Y0072627D01*
X0319500Y0072627D01*
X0325450Y0072627D01*
X0325450Y0073095D01*
X0325303Y0074020D01*
X0325014Y0074911D01*
X0324589Y0075745D01*
X0324038Y0076503D01*
X0323376Y0077165D01*
X0322618Y0077716D01*
X0319500Y0077603D02*
X0319500Y0077603D01*
X0319500Y0075105D02*
X0319500Y0075105D01*
X0319500Y0072627D02*
X0319500Y0072627D01*
X0319500Y0072627D01*
X0325450Y0072627D01*
X0325450Y0072159D01*
X0325303Y0071234D01*
X0325014Y0070343D01*
X0324589Y0069508D01*
X0324038Y0068751D01*
X0323376Y0068088D01*
X0322715Y0067608D01*
X0323587Y0067247D01*
X0325120Y0065714D01*
X0325950Y0063711D01*
X0325950Y0061543D01*
X0325120Y0059540D01*
X0323657Y0058077D01*
X0323925Y0058077D01*
X0324950Y0057052D01*
X0324950Y0048202D01*
X0323925Y0047177D01*
X0315075Y0047177D01*
X0314050Y0048202D01*
X0314050Y0057052D01*
X0315075Y0058077D01*
X0317343Y0058077D01*
X0315880Y0059540D01*
X0315050Y0061543D01*
X0315050Y0063711D01*
X0315880Y0065714D01*
X0317263Y0067097D01*
X0317216Y0067113D01*
X0316382Y0067538D01*
X0315624Y0068088D01*
X0314962Y0068751D01*
X0314411Y0069508D01*
X0313986Y0070343D01*
X0313697Y0071234D01*
X0313550Y0072159D01*
X0313550Y0072627D01*
X0319500Y0072627D01*
X0325450Y0072606D02*
X0359550Y0072606D01*
X0360127Y0075105D02*
X0324915Y0075105D01*
X0324894Y0070108D02*
X0360145Y0070108D01*
X0361735Y0067609D02*
X0322716Y0067609D01*
X0325370Y0065111D02*
X0339256Y0065111D01*
X0337880Y0064541D02*
X0340878Y0065782D01*
X0344122Y0065782D01*
X0347120Y0064541D01*
X0349414Y0062247D01*
X0350655Y0059249D01*
X0350655Y0056005D01*
X0349414Y0053007D01*
X0347120Y0050713D01*
X0344122Y0049471D01*
X0340878Y0049471D01*
X0337880Y0050713D01*
X0335586Y0053007D01*
X0334344Y0056005D01*
X0334344Y0059249D01*
X0335586Y0062247D01*
X0337880Y0064541D01*
X0335951Y0062612D02*
X0325950Y0062612D01*
X0325358Y0060113D02*
X0334703Y0060113D01*
X0334344Y0057615D02*
X0324387Y0057615D01*
X0324950Y0055116D02*
X0334712Y0055116D01*
X0335975Y0052618D02*
X0324950Y0052618D01*
X0324950Y0050119D02*
X0339313Y0050119D01*
X0345687Y0050119D02*
X0360140Y0050119D01*
X0359550Y0052618D02*
X0349025Y0052618D01*
X0350288Y0055116D02*
X0360132Y0055116D01*
X0361776Y0057615D02*
X0350655Y0057615D01*
X0350297Y0060113D02*
X0359603Y0060113D01*
X0359050Y0062612D02*
X0349049Y0062612D01*
X0345744Y0065111D02*
X0359588Y0065111D01*
X0362844Y0047621D02*
X0324369Y0047621D01*
X0314631Y0047621D02*
X0237733Y0047621D01*
X0237618Y0047538D02*
X0238376Y0048088D01*
X0239038Y0048751D01*
X0239589Y0049508D01*
X0240014Y0050343D01*
X0240303Y0051234D01*
X0240450Y0052159D01*
X0240450Y0052627D01*
X0234500Y0052627D01*
X0234500Y0052627D01*
X0234500Y0052627D01*
X0228550Y0052627D01*
X0228550Y0052159D01*
X0228697Y0051234D01*
X0228986Y0050343D01*
X0229411Y0049508D01*
X0229962Y0048751D01*
X0230624Y0048088D01*
X0231382Y0047538D01*
X0232216Y0047113D01*
X0233107Y0046823D01*
X0234032Y0046677D01*
X0234500Y0046677D01*
X0234968Y0046677D01*
X0235893Y0046823D01*
X0236784Y0047113D01*
X0237618Y0047538D01*
X0234500Y0047621D02*
X0234500Y0047621D01*
X0234500Y0046677D02*
X0234500Y0052627D01*
X0234500Y0052627D01*
X0234500Y0046677D01*
X0231267Y0047621D02*
X0176656Y0047621D01*
X0179360Y0050119D02*
X0229100Y0050119D01*
X0228550Y0052618D02*
X0179950Y0052618D01*
X0179368Y0055116D02*
X0229091Y0055116D01*
X0231243Y0057615D02*
X0177642Y0057615D01*
X0180358Y0060113D02*
X0230642Y0060113D01*
X0230050Y0062612D02*
X0180950Y0062612D01*
X0180370Y0065111D02*
X0201835Y0065111D01*
X0200380Y0065713D02*
X0203378Y0064471D01*
X0206622Y0064471D01*
X0209620Y0065713D01*
X0211914Y0068007D01*
X0213155Y0071005D01*
X0213155Y0074249D01*
X0211914Y0077247D01*
X0209620Y0079541D01*
X0206622Y0080782D01*
X0203378Y0080782D01*
X0200380Y0079541D01*
X0198086Y0077247D01*
X0196844Y0074249D01*
X0196844Y0071005D01*
X0198086Y0068007D01*
X0200380Y0065713D01*
X0198484Y0067609D02*
X0177714Y0067609D01*
X0179355Y0070108D02*
X0197216Y0070108D01*
X0196844Y0072606D02*
X0179950Y0072606D01*
X0179373Y0075105D02*
X0197199Y0075105D01*
X0198443Y0077603D02*
X0177613Y0077603D01*
X0180353Y0080102D02*
X0201734Y0080102D01*
X0208266Y0080102D02*
X0230647Y0080102D01*
X0230050Y0082600D02*
X0180950Y0082600D01*
X0180375Y0085099D02*
X0230625Y0085099D01*
X0232401Y0087597D02*
X0177742Y0087597D01*
X0179351Y0090096D02*
X0229649Y0090096D01*
X0229050Y0092594D02*
X0179950Y0092594D01*
X0179378Y0095093D02*
X0229622Y0095093D01*
X0237584Y0097591D02*
X0244050Y0097591D01*
X0244621Y0100090D02*
X0240348Y0100090D01*
X0240950Y0102588D02*
X0247236Y0102588D01*
X0245653Y0105087D02*
X0240380Y0105087D01*
X0237771Y0107585D02*
X0245050Y0107585D01*
X0245619Y0110084D02*
X0239346Y0110084D01*
X0239950Y0112582D02*
X0247437Y0112582D01*
X0244656Y0115081D02*
X0239383Y0115081D01*
X0237555Y0117579D02*
X0244050Y0117579D01*
X0244616Y0120078D02*
X0240343Y0120078D01*
X0240950Y0122576D02*
X0247207Y0122576D01*
X0245658Y0125075D02*
X0240385Y0125075D01*
X0237800Y0127573D02*
X0245050Y0127573D01*
X0245614Y0130072D02*
X0239341Y0130072D01*
X0239950Y0132570D02*
X0247466Y0132570D01*
X0244661Y0135069D02*
X0239388Y0135069D01*
X0237527Y0137567D02*
X0244050Y0137567D01*
X0244611Y0140066D02*
X0240338Y0140066D01*
X0240950Y0142564D02*
X0247179Y0142564D01*
X0245663Y0145063D02*
X0240390Y0145063D01*
X0237829Y0147561D02*
X0245050Y0147561D01*
X0245609Y0150060D02*
X0239336Y0150060D01*
X0239950Y0152558D02*
X0247495Y0152558D01*
X0244665Y0155057D02*
X0239392Y0155057D01*
X0237498Y0157555D02*
X0244050Y0157555D01*
X0244606Y0160054D02*
X0240333Y0160054D01*
X0240950Y0162552D02*
X0247150Y0162552D01*
X0245668Y0165051D02*
X0240395Y0165051D01*
X0237857Y0167549D02*
X0245050Y0167549D01*
X0245604Y0170048D02*
X0239331Y0170048D01*
X0239950Y0172546D02*
X0248135Y0172546D01*
X0235500Y0182627D02*
X0220500Y0197627D01*
X0220000Y0197627D01*
X0216469Y0197532D02*
X0215399Y0197532D01*
X0216469Y0200030D02*
X0212900Y0200030D01*
X0227336Y0195033D02*
X0256569Y0195033D01*
X0253374Y0192535D02*
X0229835Y0192535D01*
X0221250Y0182541D02*
X0220450Y0182541D01*
X0221250Y0180042D02*
X0219621Y0180042D01*
X0221250Y0177544D02*
X0208814Y0177544D01*
X0205000Y0177544D02*
X0205000Y0177544D01*
X0205000Y0176177D02*
X0205000Y0182127D01*
X0205000Y0182127D01*
X0205000Y0176177D01*
X0205000Y0180042D02*
X0205000Y0180042D01*
X0205000Y0182541D02*
X0205000Y0182541D01*
X0205000Y0185039D02*
X0205000Y0185039D01*
X0201186Y0177544D02*
X0188124Y0177544D01*
X0190035Y0180042D02*
X0190379Y0180042D01*
X0189893Y0185039D02*
X0189693Y0185039D01*
X0181876Y0177544D02*
X0177469Y0177544D01*
X0179397Y0175045D02*
X0221250Y0175045D01*
X0221250Y0172546D02*
X0179950Y0172546D01*
X0179331Y0170048D02*
X0221250Y0170048D01*
X0221250Y0167549D02*
X0177857Y0167549D01*
X0180395Y0165051D02*
X0221539Y0165051D01*
X0160500Y0172627D02*
X0155000Y0172627D01*
X0155659Y0130072D02*
X0138531Y0130072D01*
X0138531Y0127573D02*
X0157200Y0127573D01*
X0141469Y0125075D02*
X0138485Y0125075D01*
X0132437Y0065111D02*
X0127210Y0065111D01*
X0129870Y0062612D02*
X0130288Y0062612D01*
X0130302Y0057615D02*
X0129859Y0057615D01*
X0132473Y0055116D02*
X0127145Y0055116D01*
X0118411Y0047621D02*
X0147119Y0047621D01*
X0151663Y0047621D02*
X0152313Y0047621D01*
X0152313Y0050119D02*
X0151663Y0050119D01*
X0157388Y0050119D02*
X0158112Y0050119D01*
X0158850Y0047621D02*
X0156857Y0047621D01*
X0152313Y0055116D02*
X0151663Y0055116D01*
X0151663Y0057615D02*
X0152313Y0057615D01*
X0167174Y0047621D02*
X0172344Y0047621D01*
X0208165Y0065111D02*
X0230630Y0065111D01*
X0232373Y0067609D02*
X0211516Y0067609D01*
X0212784Y0070108D02*
X0229645Y0070108D01*
X0229050Y0072606D02*
X0213155Y0072606D01*
X0212801Y0075105D02*
X0229627Y0075105D01*
X0232272Y0077603D02*
X0211557Y0077603D01*
X0237613Y0077603D02*
X0244050Y0077603D01*
X0244626Y0080102D02*
X0240353Y0080102D01*
X0240950Y0082600D02*
X0247265Y0082600D01*
X0245648Y0085099D02*
X0240375Y0085099D01*
X0237742Y0087597D02*
X0245050Y0087597D01*
X0245624Y0090096D02*
X0239351Y0090096D01*
X0239950Y0092594D02*
X0247409Y0092594D01*
X0244651Y0095093D02*
X0239378Y0095093D01*
X0254950Y0077603D02*
X0271491Y0077603D01*
X0272012Y0078124D02*
X0270528Y0076640D01*
X0269725Y0074701D01*
X0269725Y0065553D01*
X0270528Y0063614D01*
X0272012Y0062130D01*
X0273951Y0061327D01*
X0276049Y0061327D01*
X0277988Y0062130D01*
X0279472Y0063614D01*
X0280275Y0065553D01*
X0280275Y0074701D01*
X0279472Y0076640D01*
X0277988Y0078124D01*
X0276049Y0078927D01*
X0273951Y0078927D01*
X0272012Y0078124D01*
X0269892Y0075105D02*
X0254354Y0075105D01*
X0252721Y0072606D02*
X0269725Y0072606D01*
X0269725Y0070108D02*
X0255372Y0070108D01*
X0255950Y0067609D02*
X0269725Y0067609D01*
X0269908Y0065111D02*
X0255357Y0065111D01*
X0252634Y0062612D02*
X0271530Y0062612D01*
X0278470Y0062612D02*
X0291530Y0062612D01*
X0292012Y0062130D02*
X0293951Y0061327D01*
X0296049Y0061327D01*
X0297988Y0062130D01*
X0299472Y0063614D01*
X0300275Y0065553D01*
X0300275Y0074701D01*
X0299472Y0076640D01*
X0297988Y0078124D01*
X0296049Y0078927D01*
X0293951Y0078927D01*
X0292012Y0078124D01*
X0290528Y0076640D01*
X0289725Y0074701D01*
X0289725Y0065553D01*
X0290528Y0063614D01*
X0292012Y0062130D01*
X0289908Y0065111D02*
X0280092Y0065111D01*
X0280275Y0067609D02*
X0289725Y0067609D01*
X0289725Y0070108D02*
X0280275Y0070108D01*
X0280275Y0072606D02*
X0289725Y0072606D01*
X0289892Y0075105D02*
X0280108Y0075105D01*
X0278509Y0077603D02*
X0291491Y0077603D01*
X0298509Y0077603D02*
X0316226Y0077603D01*
X0314085Y0075105D02*
X0300108Y0075105D01*
X0300275Y0072606D02*
X0313550Y0072606D01*
X0314106Y0070108D02*
X0300275Y0070108D01*
X0300275Y0067609D02*
X0316284Y0067609D01*
X0315630Y0065111D02*
X0300092Y0065111D01*
X0298470Y0062612D02*
X0315050Y0062612D01*
X0315642Y0060113D02*
X0254369Y0060113D01*
X0254950Y0057615D02*
X0314613Y0057615D01*
X0314050Y0055116D02*
X0254359Y0055116D01*
X0251649Y0052618D02*
X0314050Y0052618D01*
X0314050Y0050119D02*
X0239900Y0050119D01*
X0240450Y0052618D02*
X0247351Y0052618D01*
X0244641Y0055116D02*
X0239909Y0055116D01*
X0237757Y0057615D02*
X0244050Y0057615D01*
X0244631Y0060113D02*
X0240358Y0060113D01*
X0240950Y0062612D02*
X0247294Y0062612D01*
X0245643Y0065111D02*
X0240370Y0065111D01*
X0237714Y0067609D02*
X0245050Y0067609D01*
X0245628Y0070108D02*
X0239355Y0070108D01*
X0239950Y0072606D02*
X0247380Y0072606D01*
X0244646Y0075105D02*
X0239373Y0075105D01*
X0234500Y0052618D02*
X0234500Y0052618D01*
X0234500Y0050119D02*
X0234500Y0050119D01*
X0290000Y0107627D02*
X0290000Y0112627D01*
X0310000Y0122627D02*
X0315000Y0122627D01*
X0365000Y0122627D02*
X0365000Y0122627D01*
X0365000Y0125075D02*
X0365000Y0125075D01*
X0365000Y0127573D02*
X0365000Y0127573D01*
X0368050Y0145063D02*
X0377032Y0145063D01*
X0376550Y0147561D02*
X0371468Y0147561D01*
X0372764Y0150060D02*
X0376550Y0150060D01*
X0376550Y0152558D02*
X0373155Y0152558D01*
X0384725Y0152558D02*
X0385275Y0152558D01*
X0385275Y0150060D02*
X0384725Y0150060D01*
X0384725Y0147561D02*
X0385275Y0147561D01*
X0385275Y0145063D02*
X0384725Y0145063D01*
X0276598Y0264991D02*
X0273402Y0264991D01*
X0273531Y0267490D02*
X0276469Y0267490D01*
X0276469Y0269988D02*
X0273531Y0269988D01*
D29*
X0270000Y0257627D03*
X0302500Y0265127D03*
X0322500Y0295127D03*
X0360000Y0327627D03*
X0390000Y0332627D03*
X0380000Y0272627D03*
X0317500Y0215127D03*
X0302500Y0210127D03*
X0282500Y0210127D03*
X0267500Y0211627D03*
X0242500Y0205127D03*
X0240000Y0230127D03*
X0225000Y0245127D03*
X0192500Y0232627D03*
X0188000Y0253627D03*
X0180000Y0261627D03*
X0174000Y0273627D03*
X0174000Y0285627D03*
X0206000Y0279627D03*
X0230000Y0282627D03*
X0210000Y0302627D03*
X0231000Y0307627D03*
X0280000Y0315127D03*
X0137500Y0197627D03*
X0127500Y0190127D03*
X0130000Y0172627D03*
X0120000Y0162627D03*
X0115000Y0147627D03*
X0127500Y0282627D03*
X0102500Y0287627D03*
X0102500Y0327627D03*
X0305000Y0142627D03*
X0310000Y0122627D03*
X0290000Y0112627D03*
D30*
X0207000Y0269627D02*
X0210000Y0272627D01*
X0207738Y0279627D02*
X0206000Y0279627D01*
X0207738Y0279627D02*
X0213238Y0285127D01*
X0208000Y0297627D02*
X0205000Y0300627D01*
X0205000Y0300816D01*
X0210000Y0302627D02*
X0220512Y0302627D01*
X0225000Y0307115D01*
X0226488Y0305627D01*
X0228488Y0307627D01*
X0231000Y0307627D01*
X0232000Y0300627D02*
X0232000Y0299627D01*
X0230000Y0297627D01*
X0230000Y0287627D02*
X0230000Y0282627D01*
D31*
X0243000Y0288627D03*
X0245000Y0291627D03*
X0247000Y0294627D03*
X0245000Y0297627D03*
X0243000Y0294627D03*
X0247000Y0288627D03*
X0249000Y0291627D03*
X0251000Y0294627D03*
X0249000Y0297627D03*
X0255000Y0294627D03*
X0253000Y0291627D03*
X0251000Y0288627D03*
X0249000Y0285627D03*
X0247000Y0282627D03*
X0245000Y0285627D03*
X0251000Y0282627D03*
X0253000Y0285627D03*
X0255000Y0288627D03*
X0257000Y0291627D03*
X0257000Y0285627D03*
X0232000Y0300627D03*
X0205000Y0300816D03*
X0195000Y0292627D03*
X0192000Y0294627D03*
X0189000Y0296627D03*
X0186000Y0298627D03*
X0188000Y0301627D03*
X0186000Y0304627D03*
X0190000Y0304627D03*
X0192000Y0299627D03*
X0189000Y0292627D03*
X0186000Y0294627D03*
X0183000Y0296627D03*
X0180000Y0298627D03*
X0183000Y0301627D03*
X0180000Y0294627D03*
X0183000Y0292627D03*
X0180000Y0290627D03*
X0183000Y0288627D03*
X0186000Y0290627D03*
X0189000Y0288627D03*
X0192000Y0290627D03*
X0195000Y0288627D03*
X0192000Y0286627D03*
X0186000Y0286627D03*
X0180000Y0286627D03*
X0207000Y0269627D03*
D32*
X0175000Y0340127D02*
X0167500Y0347627D01*
X0140000Y0347627D01*
X0130000Y0337627D01*
X0290000Y0337627D02*
X0292500Y0340127D01*
X0311800Y0340127D01*
X0380000Y0197627D02*
X0380000Y0180727D01*
X0385000Y0175727D01*
X0174500Y0052627D02*
X0163012Y0052627D01*
D33*
X0105598Y0188225D02*
X0115000Y0197627D01*
X0235000Y0250127D02*
X0242500Y0257627D01*
X0247500Y0252627D02*
X0247500Y0245127D01*
X0250000Y0242627D01*
X0255000Y0247627D02*
X0270000Y0247627D01*
X0280000Y0267627D02*
X0290000Y0257627D01*
X0270000Y0267627D02*
X0260000Y0277627D01*
X0260000Y0297627D01*
X0267000Y0298127D02*
X0267000Y0276627D01*
D34*
X0105000Y0077627D02*
X0085000Y0077627D01*
D35*
X0188000Y0253627D02*
X0180000Y0261627D01*
X0174000Y0273627D02*
X0174000Y0285627D01*
M02*
