G75*
%MOIN*%
%OFA0B0*%
%FSLAX25Y25*%
%IPPOS*%
%LPD*%
%AMOC8*
5,1,8,0,0,1.08239X$1,22.5*
%
%ADD10C,0.00000*%
%ADD11C,0.12211*%
%ADD12R,0.07093X0.07487*%
%ADD13R,0.02800X0.09100*%
%ADD14C,0.07450*%
%ADD15R,0.06699X0.07487*%
%ADD16R,0.07487X0.06699*%
%ADD17C,0.10400*%
%ADD18OC8,0.10400*%
%ADD19C,0.07000*%
%ADD20OC8,0.07200*%
%ADD21C,0.07800*%
%ADD22R,0.07800X0.07800*%
%ADD23R,0.05912X0.05124*%
%ADD24C,0.06400*%
%ADD25R,0.07498X0.06699*%
%ADD26R,0.06699X0.07498*%
%ADD27R,0.06699X0.08274*%
%ADD28C,0.00500*%
%ADD29R,0.03550X0.03943*%
%ADD30R,0.02800X0.08400*%
%ADD31R,0.06699X0.01975*%
%ADD32R,0.06400X0.13786*%
%ADD33R,0.03943X0.03550*%
%ADD34R,0.09200X0.05200*%
%ADD35R,0.09061X0.14573*%
%ADD36OC8,0.05600*%
%ADD37R,0.04000X0.04900*%
D10*
X0005000Y0037627D02*
X0005000Y0357588D01*
X0403701Y0357588D01*
X0403701Y0037627D01*
X0005000Y0037627D01*
X0059094Y0102627D02*
X0059096Y0102780D01*
X0059102Y0102934D01*
X0059112Y0103087D01*
X0059126Y0103239D01*
X0059144Y0103392D01*
X0059166Y0103543D01*
X0059191Y0103694D01*
X0059221Y0103845D01*
X0059255Y0103995D01*
X0059292Y0104143D01*
X0059333Y0104291D01*
X0059378Y0104437D01*
X0059427Y0104583D01*
X0059480Y0104727D01*
X0059536Y0104869D01*
X0059596Y0105010D01*
X0059660Y0105150D01*
X0059727Y0105288D01*
X0059798Y0105424D01*
X0059873Y0105558D01*
X0059950Y0105690D01*
X0060032Y0105820D01*
X0060116Y0105948D01*
X0060204Y0106074D01*
X0060295Y0106197D01*
X0060389Y0106318D01*
X0060487Y0106436D01*
X0060587Y0106552D01*
X0060691Y0106665D01*
X0060797Y0106776D01*
X0060906Y0106884D01*
X0061018Y0106989D01*
X0061132Y0107090D01*
X0061250Y0107189D01*
X0061369Y0107285D01*
X0061491Y0107378D01*
X0061616Y0107467D01*
X0061743Y0107554D01*
X0061872Y0107636D01*
X0062003Y0107716D01*
X0062136Y0107792D01*
X0062271Y0107865D01*
X0062408Y0107934D01*
X0062547Y0107999D01*
X0062687Y0108061D01*
X0062829Y0108119D01*
X0062972Y0108174D01*
X0063117Y0108225D01*
X0063263Y0108272D01*
X0063410Y0108315D01*
X0063558Y0108354D01*
X0063707Y0108390D01*
X0063857Y0108421D01*
X0064008Y0108449D01*
X0064159Y0108473D01*
X0064312Y0108493D01*
X0064464Y0108509D01*
X0064617Y0108521D01*
X0064770Y0108529D01*
X0064923Y0108533D01*
X0065077Y0108533D01*
X0065230Y0108529D01*
X0065383Y0108521D01*
X0065536Y0108509D01*
X0065688Y0108493D01*
X0065841Y0108473D01*
X0065992Y0108449D01*
X0066143Y0108421D01*
X0066293Y0108390D01*
X0066442Y0108354D01*
X0066590Y0108315D01*
X0066737Y0108272D01*
X0066883Y0108225D01*
X0067028Y0108174D01*
X0067171Y0108119D01*
X0067313Y0108061D01*
X0067453Y0107999D01*
X0067592Y0107934D01*
X0067729Y0107865D01*
X0067864Y0107792D01*
X0067997Y0107716D01*
X0068128Y0107636D01*
X0068257Y0107554D01*
X0068384Y0107467D01*
X0068509Y0107378D01*
X0068631Y0107285D01*
X0068750Y0107189D01*
X0068868Y0107090D01*
X0068982Y0106989D01*
X0069094Y0106884D01*
X0069203Y0106776D01*
X0069309Y0106665D01*
X0069413Y0106552D01*
X0069513Y0106436D01*
X0069611Y0106318D01*
X0069705Y0106197D01*
X0069796Y0106074D01*
X0069884Y0105948D01*
X0069968Y0105820D01*
X0070050Y0105690D01*
X0070127Y0105558D01*
X0070202Y0105424D01*
X0070273Y0105288D01*
X0070340Y0105150D01*
X0070404Y0105010D01*
X0070464Y0104869D01*
X0070520Y0104727D01*
X0070573Y0104583D01*
X0070622Y0104437D01*
X0070667Y0104291D01*
X0070708Y0104143D01*
X0070745Y0103995D01*
X0070779Y0103845D01*
X0070809Y0103694D01*
X0070834Y0103543D01*
X0070856Y0103392D01*
X0070874Y0103239D01*
X0070888Y0103087D01*
X0070898Y0102934D01*
X0070904Y0102780D01*
X0070906Y0102627D01*
X0070904Y0102474D01*
X0070898Y0102320D01*
X0070888Y0102167D01*
X0070874Y0102015D01*
X0070856Y0101862D01*
X0070834Y0101711D01*
X0070809Y0101560D01*
X0070779Y0101409D01*
X0070745Y0101259D01*
X0070708Y0101111D01*
X0070667Y0100963D01*
X0070622Y0100817D01*
X0070573Y0100671D01*
X0070520Y0100527D01*
X0070464Y0100385D01*
X0070404Y0100244D01*
X0070340Y0100104D01*
X0070273Y0099966D01*
X0070202Y0099830D01*
X0070127Y0099696D01*
X0070050Y0099564D01*
X0069968Y0099434D01*
X0069884Y0099306D01*
X0069796Y0099180D01*
X0069705Y0099057D01*
X0069611Y0098936D01*
X0069513Y0098818D01*
X0069413Y0098702D01*
X0069309Y0098589D01*
X0069203Y0098478D01*
X0069094Y0098370D01*
X0068982Y0098265D01*
X0068868Y0098164D01*
X0068750Y0098065D01*
X0068631Y0097969D01*
X0068509Y0097876D01*
X0068384Y0097787D01*
X0068257Y0097700D01*
X0068128Y0097618D01*
X0067997Y0097538D01*
X0067864Y0097462D01*
X0067729Y0097389D01*
X0067592Y0097320D01*
X0067453Y0097255D01*
X0067313Y0097193D01*
X0067171Y0097135D01*
X0067028Y0097080D01*
X0066883Y0097029D01*
X0066737Y0096982D01*
X0066590Y0096939D01*
X0066442Y0096900D01*
X0066293Y0096864D01*
X0066143Y0096833D01*
X0065992Y0096805D01*
X0065841Y0096781D01*
X0065688Y0096761D01*
X0065536Y0096745D01*
X0065383Y0096733D01*
X0065230Y0096725D01*
X0065077Y0096721D01*
X0064923Y0096721D01*
X0064770Y0096725D01*
X0064617Y0096733D01*
X0064464Y0096745D01*
X0064312Y0096761D01*
X0064159Y0096781D01*
X0064008Y0096805D01*
X0063857Y0096833D01*
X0063707Y0096864D01*
X0063558Y0096900D01*
X0063410Y0096939D01*
X0063263Y0096982D01*
X0063117Y0097029D01*
X0062972Y0097080D01*
X0062829Y0097135D01*
X0062687Y0097193D01*
X0062547Y0097255D01*
X0062408Y0097320D01*
X0062271Y0097389D01*
X0062136Y0097462D01*
X0062003Y0097538D01*
X0061872Y0097618D01*
X0061743Y0097700D01*
X0061616Y0097787D01*
X0061491Y0097876D01*
X0061369Y0097969D01*
X0061250Y0098065D01*
X0061132Y0098164D01*
X0061018Y0098265D01*
X0060906Y0098370D01*
X0060797Y0098478D01*
X0060691Y0098589D01*
X0060587Y0098702D01*
X0060487Y0098818D01*
X0060389Y0098936D01*
X0060295Y0099057D01*
X0060204Y0099180D01*
X0060116Y0099306D01*
X0060032Y0099434D01*
X0059950Y0099564D01*
X0059873Y0099696D01*
X0059798Y0099830D01*
X0059727Y0099966D01*
X0059660Y0100104D01*
X0059596Y0100244D01*
X0059536Y0100385D01*
X0059480Y0100527D01*
X0059427Y0100671D01*
X0059378Y0100817D01*
X0059333Y0100963D01*
X0059292Y0101111D01*
X0059255Y0101259D01*
X0059221Y0101409D01*
X0059191Y0101560D01*
X0059166Y0101711D01*
X0059144Y0101862D01*
X0059126Y0102015D01*
X0059112Y0102167D01*
X0059102Y0102320D01*
X0059096Y0102474D01*
X0059094Y0102627D01*
X0199094Y0072627D02*
X0199096Y0072780D01*
X0199102Y0072934D01*
X0199112Y0073087D01*
X0199126Y0073239D01*
X0199144Y0073392D01*
X0199166Y0073543D01*
X0199191Y0073694D01*
X0199221Y0073845D01*
X0199255Y0073995D01*
X0199292Y0074143D01*
X0199333Y0074291D01*
X0199378Y0074437D01*
X0199427Y0074583D01*
X0199480Y0074727D01*
X0199536Y0074869D01*
X0199596Y0075010D01*
X0199660Y0075150D01*
X0199727Y0075288D01*
X0199798Y0075424D01*
X0199873Y0075558D01*
X0199950Y0075690D01*
X0200032Y0075820D01*
X0200116Y0075948D01*
X0200204Y0076074D01*
X0200295Y0076197D01*
X0200389Y0076318D01*
X0200487Y0076436D01*
X0200587Y0076552D01*
X0200691Y0076665D01*
X0200797Y0076776D01*
X0200906Y0076884D01*
X0201018Y0076989D01*
X0201132Y0077090D01*
X0201250Y0077189D01*
X0201369Y0077285D01*
X0201491Y0077378D01*
X0201616Y0077467D01*
X0201743Y0077554D01*
X0201872Y0077636D01*
X0202003Y0077716D01*
X0202136Y0077792D01*
X0202271Y0077865D01*
X0202408Y0077934D01*
X0202547Y0077999D01*
X0202687Y0078061D01*
X0202829Y0078119D01*
X0202972Y0078174D01*
X0203117Y0078225D01*
X0203263Y0078272D01*
X0203410Y0078315D01*
X0203558Y0078354D01*
X0203707Y0078390D01*
X0203857Y0078421D01*
X0204008Y0078449D01*
X0204159Y0078473D01*
X0204312Y0078493D01*
X0204464Y0078509D01*
X0204617Y0078521D01*
X0204770Y0078529D01*
X0204923Y0078533D01*
X0205077Y0078533D01*
X0205230Y0078529D01*
X0205383Y0078521D01*
X0205536Y0078509D01*
X0205688Y0078493D01*
X0205841Y0078473D01*
X0205992Y0078449D01*
X0206143Y0078421D01*
X0206293Y0078390D01*
X0206442Y0078354D01*
X0206590Y0078315D01*
X0206737Y0078272D01*
X0206883Y0078225D01*
X0207028Y0078174D01*
X0207171Y0078119D01*
X0207313Y0078061D01*
X0207453Y0077999D01*
X0207592Y0077934D01*
X0207729Y0077865D01*
X0207864Y0077792D01*
X0207997Y0077716D01*
X0208128Y0077636D01*
X0208257Y0077554D01*
X0208384Y0077467D01*
X0208509Y0077378D01*
X0208631Y0077285D01*
X0208750Y0077189D01*
X0208868Y0077090D01*
X0208982Y0076989D01*
X0209094Y0076884D01*
X0209203Y0076776D01*
X0209309Y0076665D01*
X0209413Y0076552D01*
X0209513Y0076436D01*
X0209611Y0076318D01*
X0209705Y0076197D01*
X0209796Y0076074D01*
X0209884Y0075948D01*
X0209968Y0075820D01*
X0210050Y0075690D01*
X0210127Y0075558D01*
X0210202Y0075424D01*
X0210273Y0075288D01*
X0210340Y0075150D01*
X0210404Y0075010D01*
X0210464Y0074869D01*
X0210520Y0074727D01*
X0210573Y0074583D01*
X0210622Y0074437D01*
X0210667Y0074291D01*
X0210708Y0074143D01*
X0210745Y0073995D01*
X0210779Y0073845D01*
X0210809Y0073694D01*
X0210834Y0073543D01*
X0210856Y0073392D01*
X0210874Y0073239D01*
X0210888Y0073087D01*
X0210898Y0072934D01*
X0210904Y0072780D01*
X0210906Y0072627D01*
X0210904Y0072474D01*
X0210898Y0072320D01*
X0210888Y0072167D01*
X0210874Y0072015D01*
X0210856Y0071862D01*
X0210834Y0071711D01*
X0210809Y0071560D01*
X0210779Y0071409D01*
X0210745Y0071259D01*
X0210708Y0071111D01*
X0210667Y0070963D01*
X0210622Y0070817D01*
X0210573Y0070671D01*
X0210520Y0070527D01*
X0210464Y0070385D01*
X0210404Y0070244D01*
X0210340Y0070104D01*
X0210273Y0069966D01*
X0210202Y0069830D01*
X0210127Y0069696D01*
X0210050Y0069564D01*
X0209968Y0069434D01*
X0209884Y0069306D01*
X0209796Y0069180D01*
X0209705Y0069057D01*
X0209611Y0068936D01*
X0209513Y0068818D01*
X0209413Y0068702D01*
X0209309Y0068589D01*
X0209203Y0068478D01*
X0209094Y0068370D01*
X0208982Y0068265D01*
X0208868Y0068164D01*
X0208750Y0068065D01*
X0208631Y0067969D01*
X0208509Y0067876D01*
X0208384Y0067787D01*
X0208257Y0067700D01*
X0208128Y0067618D01*
X0207997Y0067538D01*
X0207864Y0067462D01*
X0207729Y0067389D01*
X0207592Y0067320D01*
X0207453Y0067255D01*
X0207313Y0067193D01*
X0207171Y0067135D01*
X0207028Y0067080D01*
X0206883Y0067029D01*
X0206737Y0066982D01*
X0206590Y0066939D01*
X0206442Y0066900D01*
X0206293Y0066864D01*
X0206143Y0066833D01*
X0205992Y0066805D01*
X0205841Y0066781D01*
X0205688Y0066761D01*
X0205536Y0066745D01*
X0205383Y0066733D01*
X0205230Y0066725D01*
X0205077Y0066721D01*
X0204923Y0066721D01*
X0204770Y0066725D01*
X0204617Y0066733D01*
X0204464Y0066745D01*
X0204312Y0066761D01*
X0204159Y0066781D01*
X0204008Y0066805D01*
X0203857Y0066833D01*
X0203707Y0066864D01*
X0203558Y0066900D01*
X0203410Y0066939D01*
X0203263Y0066982D01*
X0203117Y0067029D01*
X0202972Y0067080D01*
X0202829Y0067135D01*
X0202687Y0067193D01*
X0202547Y0067255D01*
X0202408Y0067320D01*
X0202271Y0067389D01*
X0202136Y0067462D01*
X0202003Y0067538D01*
X0201872Y0067618D01*
X0201743Y0067700D01*
X0201616Y0067787D01*
X0201491Y0067876D01*
X0201369Y0067969D01*
X0201250Y0068065D01*
X0201132Y0068164D01*
X0201018Y0068265D01*
X0200906Y0068370D01*
X0200797Y0068478D01*
X0200691Y0068589D01*
X0200587Y0068702D01*
X0200487Y0068818D01*
X0200389Y0068936D01*
X0200295Y0069057D01*
X0200204Y0069180D01*
X0200116Y0069306D01*
X0200032Y0069434D01*
X0199950Y0069564D01*
X0199873Y0069696D01*
X0199798Y0069830D01*
X0199727Y0069966D01*
X0199660Y0070104D01*
X0199596Y0070244D01*
X0199536Y0070385D01*
X0199480Y0070527D01*
X0199427Y0070671D01*
X0199378Y0070817D01*
X0199333Y0070963D01*
X0199292Y0071111D01*
X0199255Y0071259D01*
X0199221Y0071409D01*
X0199191Y0071560D01*
X0199166Y0071711D01*
X0199144Y0071862D01*
X0199126Y0072015D01*
X0199112Y0072167D01*
X0199102Y0072320D01*
X0199096Y0072474D01*
X0199094Y0072627D01*
X0254094Y0187627D02*
X0254096Y0187780D01*
X0254102Y0187934D01*
X0254112Y0188087D01*
X0254126Y0188239D01*
X0254144Y0188392D01*
X0254166Y0188543D01*
X0254191Y0188694D01*
X0254221Y0188845D01*
X0254255Y0188995D01*
X0254292Y0189143D01*
X0254333Y0189291D01*
X0254378Y0189437D01*
X0254427Y0189583D01*
X0254480Y0189727D01*
X0254536Y0189869D01*
X0254596Y0190010D01*
X0254660Y0190150D01*
X0254727Y0190288D01*
X0254798Y0190424D01*
X0254873Y0190558D01*
X0254950Y0190690D01*
X0255032Y0190820D01*
X0255116Y0190948D01*
X0255204Y0191074D01*
X0255295Y0191197D01*
X0255389Y0191318D01*
X0255487Y0191436D01*
X0255587Y0191552D01*
X0255691Y0191665D01*
X0255797Y0191776D01*
X0255906Y0191884D01*
X0256018Y0191989D01*
X0256132Y0192090D01*
X0256250Y0192189D01*
X0256369Y0192285D01*
X0256491Y0192378D01*
X0256616Y0192467D01*
X0256743Y0192554D01*
X0256872Y0192636D01*
X0257003Y0192716D01*
X0257136Y0192792D01*
X0257271Y0192865D01*
X0257408Y0192934D01*
X0257547Y0192999D01*
X0257687Y0193061D01*
X0257829Y0193119D01*
X0257972Y0193174D01*
X0258117Y0193225D01*
X0258263Y0193272D01*
X0258410Y0193315D01*
X0258558Y0193354D01*
X0258707Y0193390D01*
X0258857Y0193421D01*
X0259008Y0193449D01*
X0259159Y0193473D01*
X0259312Y0193493D01*
X0259464Y0193509D01*
X0259617Y0193521D01*
X0259770Y0193529D01*
X0259923Y0193533D01*
X0260077Y0193533D01*
X0260230Y0193529D01*
X0260383Y0193521D01*
X0260536Y0193509D01*
X0260688Y0193493D01*
X0260841Y0193473D01*
X0260992Y0193449D01*
X0261143Y0193421D01*
X0261293Y0193390D01*
X0261442Y0193354D01*
X0261590Y0193315D01*
X0261737Y0193272D01*
X0261883Y0193225D01*
X0262028Y0193174D01*
X0262171Y0193119D01*
X0262313Y0193061D01*
X0262453Y0192999D01*
X0262592Y0192934D01*
X0262729Y0192865D01*
X0262864Y0192792D01*
X0262997Y0192716D01*
X0263128Y0192636D01*
X0263257Y0192554D01*
X0263384Y0192467D01*
X0263509Y0192378D01*
X0263631Y0192285D01*
X0263750Y0192189D01*
X0263868Y0192090D01*
X0263982Y0191989D01*
X0264094Y0191884D01*
X0264203Y0191776D01*
X0264309Y0191665D01*
X0264413Y0191552D01*
X0264513Y0191436D01*
X0264611Y0191318D01*
X0264705Y0191197D01*
X0264796Y0191074D01*
X0264884Y0190948D01*
X0264968Y0190820D01*
X0265050Y0190690D01*
X0265127Y0190558D01*
X0265202Y0190424D01*
X0265273Y0190288D01*
X0265340Y0190150D01*
X0265404Y0190010D01*
X0265464Y0189869D01*
X0265520Y0189727D01*
X0265573Y0189583D01*
X0265622Y0189437D01*
X0265667Y0189291D01*
X0265708Y0189143D01*
X0265745Y0188995D01*
X0265779Y0188845D01*
X0265809Y0188694D01*
X0265834Y0188543D01*
X0265856Y0188392D01*
X0265874Y0188239D01*
X0265888Y0188087D01*
X0265898Y0187934D01*
X0265904Y0187780D01*
X0265906Y0187627D01*
X0265904Y0187474D01*
X0265898Y0187320D01*
X0265888Y0187167D01*
X0265874Y0187015D01*
X0265856Y0186862D01*
X0265834Y0186711D01*
X0265809Y0186560D01*
X0265779Y0186409D01*
X0265745Y0186259D01*
X0265708Y0186111D01*
X0265667Y0185963D01*
X0265622Y0185817D01*
X0265573Y0185671D01*
X0265520Y0185527D01*
X0265464Y0185385D01*
X0265404Y0185244D01*
X0265340Y0185104D01*
X0265273Y0184966D01*
X0265202Y0184830D01*
X0265127Y0184696D01*
X0265050Y0184564D01*
X0264968Y0184434D01*
X0264884Y0184306D01*
X0264796Y0184180D01*
X0264705Y0184057D01*
X0264611Y0183936D01*
X0264513Y0183818D01*
X0264413Y0183702D01*
X0264309Y0183589D01*
X0264203Y0183478D01*
X0264094Y0183370D01*
X0263982Y0183265D01*
X0263868Y0183164D01*
X0263750Y0183065D01*
X0263631Y0182969D01*
X0263509Y0182876D01*
X0263384Y0182787D01*
X0263257Y0182700D01*
X0263128Y0182618D01*
X0262997Y0182538D01*
X0262864Y0182462D01*
X0262729Y0182389D01*
X0262592Y0182320D01*
X0262453Y0182255D01*
X0262313Y0182193D01*
X0262171Y0182135D01*
X0262028Y0182080D01*
X0261883Y0182029D01*
X0261737Y0181982D01*
X0261590Y0181939D01*
X0261442Y0181900D01*
X0261293Y0181864D01*
X0261143Y0181833D01*
X0260992Y0181805D01*
X0260841Y0181781D01*
X0260688Y0181761D01*
X0260536Y0181745D01*
X0260383Y0181733D01*
X0260230Y0181725D01*
X0260077Y0181721D01*
X0259923Y0181721D01*
X0259770Y0181725D01*
X0259617Y0181733D01*
X0259464Y0181745D01*
X0259312Y0181761D01*
X0259159Y0181781D01*
X0259008Y0181805D01*
X0258857Y0181833D01*
X0258707Y0181864D01*
X0258558Y0181900D01*
X0258410Y0181939D01*
X0258263Y0181982D01*
X0258117Y0182029D01*
X0257972Y0182080D01*
X0257829Y0182135D01*
X0257687Y0182193D01*
X0257547Y0182255D01*
X0257408Y0182320D01*
X0257271Y0182389D01*
X0257136Y0182462D01*
X0257003Y0182538D01*
X0256872Y0182618D01*
X0256743Y0182700D01*
X0256616Y0182787D01*
X0256491Y0182876D01*
X0256369Y0182969D01*
X0256250Y0183065D01*
X0256132Y0183164D01*
X0256018Y0183265D01*
X0255906Y0183370D01*
X0255797Y0183478D01*
X0255691Y0183589D01*
X0255587Y0183702D01*
X0255487Y0183818D01*
X0255389Y0183936D01*
X0255295Y0184057D01*
X0255204Y0184180D01*
X0255116Y0184306D01*
X0255032Y0184434D01*
X0254950Y0184564D01*
X0254873Y0184696D01*
X0254798Y0184830D01*
X0254727Y0184966D01*
X0254660Y0185104D01*
X0254596Y0185244D01*
X0254536Y0185385D01*
X0254480Y0185527D01*
X0254427Y0185671D01*
X0254378Y0185817D01*
X0254333Y0185963D01*
X0254292Y0186111D01*
X0254255Y0186259D01*
X0254221Y0186409D01*
X0254191Y0186560D01*
X0254166Y0186711D01*
X0254144Y0186862D01*
X0254126Y0187015D01*
X0254112Y0187167D01*
X0254102Y0187320D01*
X0254096Y0187474D01*
X0254094Y0187627D01*
X0359094Y0152627D02*
X0359096Y0152780D01*
X0359102Y0152934D01*
X0359112Y0153087D01*
X0359126Y0153239D01*
X0359144Y0153392D01*
X0359166Y0153543D01*
X0359191Y0153694D01*
X0359221Y0153845D01*
X0359255Y0153995D01*
X0359292Y0154143D01*
X0359333Y0154291D01*
X0359378Y0154437D01*
X0359427Y0154583D01*
X0359480Y0154727D01*
X0359536Y0154869D01*
X0359596Y0155010D01*
X0359660Y0155150D01*
X0359727Y0155288D01*
X0359798Y0155424D01*
X0359873Y0155558D01*
X0359950Y0155690D01*
X0360032Y0155820D01*
X0360116Y0155948D01*
X0360204Y0156074D01*
X0360295Y0156197D01*
X0360389Y0156318D01*
X0360487Y0156436D01*
X0360587Y0156552D01*
X0360691Y0156665D01*
X0360797Y0156776D01*
X0360906Y0156884D01*
X0361018Y0156989D01*
X0361132Y0157090D01*
X0361250Y0157189D01*
X0361369Y0157285D01*
X0361491Y0157378D01*
X0361616Y0157467D01*
X0361743Y0157554D01*
X0361872Y0157636D01*
X0362003Y0157716D01*
X0362136Y0157792D01*
X0362271Y0157865D01*
X0362408Y0157934D01*
X0362547Y0157999D01*
X0362687Y0158061D01*
X0362829Y0158119D01*
X0362972Y0158174D01*
X0363117Y0158225D01*
X0363263Y0158272D01*
X0363410Y0158315D01*
X0363558Y0158354D01*
X0363707Y0158390D01*
X0363857Y0158421D01*
X0364008Y0158449D01*
X0364159Y0158473D01*
X0364312Y0158493D01*
X0364464Y0158509D01*
X0364617Y0158521D01*
X0364770Y0158529D01*
X0364923Y0158533D01*
X0365077Y0158533D01*
X0365230Y0158529D01*
X0365383Y0158521D01*
X0365536Y0158509D01*
X0365688Y0158493D01*
X0365841Y0158473D01*
X0365992Y0158449D01*
X0366143Y0158421D01*
X0366293Y0158390D01*
X0366442Y0158354D01*
X0366590Y0158315D01*
X0366737Y0158272D01*
X0366883Y0158225D01*
X0367028Y0158174D01*
X0367171Y0158119D01*
X0367313Y0158061D01*
X0367453Y0157999D01*
X0367592Y0157934D01*
X0367729Y0157865D01*
X0367864Y0157792D01*
X0367997Y0157716D01*
X0368128Y0157636D01*
X0368257Y0157554D01*
X0368384Y0157467D01*
X0368509Y0157378D01*
X0368631Y0157285D01*
X0368750Y0157189D01*
X0368868Y0157090D01*
X0368982Y0156989D01*
X0369094Y0156884D01*
X0369203Y0156776D01*
X0369309Y0156665D01*
X0369413Y0156552D01*
X0369513Y0156436D01*
X0369611Y0156318D01*
X0369705Y0156197D01*
X0369796Y0156074D01*
X0369884Y0155948D01*
X0369968Y0155820D01*
X0370050Y0155690D01*
X0370127Y0155558D01*
X0370202Y0155424D01*
X0370273Y0155288D01*
X0370340Y0155150D01*
X0370404Y0155010D01*
X0370464Y0154869D01*
X0370520Y0154727D01*
X0370573Y0154583D01*
X0370622Y0154437D01*
X0370667Y0154291D01*
X0370708Y0154143D01*
X0370745Y0153995D01*
X0370779Y0153845D01*
X0370809Y0153694D01*
X0370834Y0153543D01*
X0370856Y0153392D01*
X0370874Y0153239D01*
X0370888Y0153087D01*
X0370898Y0152934D01*
X0370904Y0152780D01*
X0370906Y0152627D01*
X0370904Y0152474D01*
X0370898Y0152320D01*
X0370888Y0152167D01*
X0370874Y0152015D01*
X0370856Y0151862D01*
X0370834Y0151711D01*
X0370809Y0151560D01*
X0370779Y0151409D01*
X0370745Y0151259D01*
X0370708Y0151111D01*
X0370667Y0150963D01*
X0370622Y0150817D01*
X0370573Y0150671D01*
X0370520Y0150527D01*
X0370464Y0150385D01*
X0370404Y0150244D01*
X0370340Y0150104D01*
X0370273Y0149966D01*
X0370202Y0149830D01*
X0370127Y0149696D01*
X0370050Y0149564D01*
X0369968Y0149434D01*
X0369884Y0149306D01*
X0369796Y0149180D01*
X0369705Y0149057D01*
X0369611Y0148936D01*
X0369513Y0148818D01*
X0369413Y0148702D01*
X0369309Y0148589D01*
X0369203Y0148478D01*
X0369094Y0148370D01*
X0368982Y0148265D01*
X0368868Y0148164D01*
X0368750Y0148065D01*
X0368631Y0147969D01*
X0368509Y0147876D01*
X0368384Y0147787D01*
X0368257Y0147700D01*
X0368128Y0147618D01*
X0367997Y0147538D01*
X0367864Y0147462D01*
X0367729Y0147389D01*
X0367592Y0147320D01*
X0367453Y0147255D01*
X0367313Y0147193D01*
X0367171Y0147135D01*
X0367028Y0147080D01*
X0366883Y0147029D01*
X0366737Y0146982D01*
X0366590Y0146939D01*
X0366442Y0146900D01*
X0366293Y0146864D01*
X0366143Y0146833D01*
X0365992Y0146805D01*
X0365841Y0146781D01*
X0365688Y0146761D01*
X0365536Y0146745D01*
X0365383Y0146733D01*
X0365230Y0146725D01*
X0365077Y0146721D01*
X0364923Y0146721D01*
X0364770Y0146725D01*
X0364617Y0146733D01*
X0364464Y0146745D01*
X0364312Y0146761D01*
X0364159Y0146781D01*
X0364008Y0146805D01*
X0363857Y0146833D01*
X0363707Y0146864D01*
X0363558Y0146900D01*
X0363410Y0146939D01*
X0363263Y0146982D01*
X0363117Y0147029D01*
X0362972Y0147080D01*
X0362829Y0147135D01*
X0362687Y0147193D01*
X0362547Y0147255D01*
X0362408Y0147320D01*
X0362271Y0147389D01*
X0362136Y0147462D01*
X0362003Y0147538D01*
X0361872Y0147618D01*
X0361743Y0147700D01*
X0361616Y0147787D01*
X0361491Y0147876D01*
X0361369Y0147969D01*
X0361250Y0148065D01*
X0361132Y0148164D01*
X0361018Y0148265D01*
X0360906Y0148370D01*
X0360797Y0148478D01*
X0360691Y0148589D01*
X0360587Y0148702D01*
X0360487Y0148818D01*
X0360389Y0148936D01*
X0360295Y0149057D01*
X0360204Y0149180D01*
X0360116Y0149306D01*
X0360032Y0149434D01*
X0359950Y0149564D01*
X0359873Y0149696D01*
X0359798Y0149830D01*
X0359727Y0149966D01*
X0359660Y0150104D01*
X0359596Y0150244D01*
X0359536Y0150385D01*
X0359480Y0150527D01*
X0359427Y0150671D01*
X0359378Y0150817D01*
X0359333Y0150963D01*
X0359292Y0151111D01*
X0359255Y0151259D01*
X0359221Y0151409D01*
X0359191Y0151560D01*
X0359166Y0151711D01*
X0359144Y0151862D01*
X0359126Y0152015D01*
X0359112Y0152167D01*
X0359102Y0152320D01*
X0359096Y0152474D01*
X0359094Y0152627D01*
X0336594Y0057627D02*
X0336596Y0057780D01*
X0336602Y0057934D01*
X0336612Y0058087D01*
X0336626Y0058239D01*
X0336644Y0058392D01*
X0336666Y0058543D01*
X0336691Y0058694D01*
X0336721Y0058845D01*
X0336755Y0058995D01*
X0336792Y0059143D01*
X0336833Y0059291D01*
X0336878Y0059437D01*
X0336927Y0059583D01*
X0336980Y0059727D01*
X0337036Y0059869D01*
X0337096Y0060010D01*
X0337160Y0060150D01*
X0337227Y0060288D01*
X0337298Y0060424D01*
X0337373Y0060558D01*
X0337450Y0060690D01*
X0337532Y0060820D01*
X0337616Y0060948D01*
X0337704Y0061074D01*
X0337795Y0061197D01*
X0337889Y0061318D01*
X0337987Y0061436D01*
X0338087Y0061552D01*
X0338191Y0061665D01*
X0338297Y0061776D01*
X0338406Y0061884D01*
X0338518Y0061989D01*
X0338632Y0062090D01*
X0338750Y0062189D01*
X0338869Y0062285D01*
X0338991Y0062378D01*
X0339116Y0062467D01*
X0339243Y0062554D01*
X0339372Y0062636D01*
X0339503Y0062716D01*
X0339636Y0062792D01*
X0339771Y0062865D01*
X0339908Y0062934D01*
X0340047Y0062999D01*
X0340187Y0063061D01*
X0340329Y0063119D01*
X0340472Y0063174D01*
X0340617Y0063225D01*
X0340763Y0063272D01*
X0340910Y0063315D01*
X0341058Y0063354D01*
X0341207Y0063390D01*
X0341357Y0063421D01*
X0341508Y0063449D01*
X0341659Y0063473D01*
X0341812Y0063493D01*
X0341964Y0063509D01*
X0342117Y0063521D01*
X0342270Y0063529D01*
X0342423Y0063533D01*
X0342577Y0063533D01*
X0342730Y0063529D01*
X0342883Y0063521D01*
X0343036Y0063509D01*
X0343188Y0063493D01*
X0343341Y0063473D01*
X0343492Y0063449D01*
X0343643Y0063421D01*
X0343793Y0063390D01*
X0343942Y0063354D01*
X0344090Y0063315D01*
X0344237Y0063272D01*
X0344383Y0063225D01*
X0344528Y0063174D01*
X0344671Y0063119D01*
X0344813Y0063061D01*
X0344953Y0062999D01*
X0345092Y0062934D01*
X0345229Y0062865D01*
X0345364Y0062792D01*
X0345497Y0062716D01*
X0345628Y0062636D01*
X0345757Y0062554D01*
X0345884Y0062467D01*
X0346009Y0062378D01*
X0346131Y0062285D01*
X0346250Y0062189D01*
X0346368Y0062090D01*
X0346482Y0061989D01*
X0346594Y0061884D01*
X0346703Y0061776D01*
X0346809Y0061665D01*
X0346913Y0061552D01*
X0347013Y0061436D01*
X0347111Y0061318D01*
X0347205Y0061197D01*
X0347296Y0061074D01*
X0347384Y0060948D01*
X0347468Y0060820D01*
X0347550Y0060690D01*
X0347627Y0060558D01*
X0347702Y0060424D01*
X0347773Y0060288D01*
X0347840Y0060150D01*
X0347904Y0060010D01*
X0347964Y0059869D01*
X0348020Y0059727D01*
X0348073Y0059583D01*
X0348122Y0059437D01*
X0348167Y0059291D01*
X0348208Y0059143D01*
X0348245Y0058995D01*
X0348279Y0058845D01*
X0348309Y0058694D01*
X0348334Y0058543D01*
X0348356Y0058392D01*
X0348374Y0058239D01*
X0348388Y0058087D01*
X0348398Y0057934D01*
X0348404Y0057780D01*
X0348406Y0057627D01*
X0348404Y0057474D01*
X0348398Y0057320D01*
X0348388Y0057167D01*
X0348374Y0057015D01*
X0348356Y0056862D01*
X0348334Y0056711D01*
X0348309Y0056560D01*
X0348279Y0056409D01*
X0348245Y0056259D01*
X0348208Y0056111D01*
X0348167Y0055963D01*
X0348122Y0055817D01*
X0348073Y0055671D01*
X0348020Y0055527D01*
X0347964Y0055385D01*
X0347904Y0055244D01*
X0347840Y0055104D01*
X0347773Y0054966D01*
X0347702Y0054830D01*
X0347627Y0054696D01*
X0347550Y0054564D01*
X0347468Y0054434D01*
X0347384Y0054306D01*
X0347296Y0054180D01*
X0347205Y0054057D01*
X0347111Y0053936D01*
X0347013Y0053818D01*
X0346913Y0053702D01*
X0346809Y0053589D01*
X0346703Y0053478D01*
X0346594Y0053370D01*
X0346482Y0053265D01*
X0346368Y0053164D01*
X0346250Y0053065D01*
X0346131Y0052969D01*
X0346009Y0052876D01*
X0345884Y0052787D01*
X0345757Y0052700D01*
X0345628Y0052618D01*
X0345497Y0052538D01*
X0345364Y0052462D01*
X0345229Y0052389D01*
X0345092Y0052320D01*
X0344953Y0052255D01*
X0344813Y0052193D01*
X0344671Y0052135D01*
X0344528Y0052080D01*
X0344383Y0052029D01*
X0344237Y0051982D01*
X0344090Y0051939D01*
X0343942Y0051900D01*
X0343793Y0051864D01*
X0343643Y0051833D01*
X0343492Y0051805D01*
X0343341Y0051781D01*
X0343188Y0051761D01*
X0343036Y0051745D01*
X0342883Y0051733D01*
X0342730Y0051725D01*
X0342577Y0051721D01*
X0342423Y0051721D01*
X0342270Y0051725D01*
X0342117Y0051733D01*
X0341964Y0051745D01*
X0341812Y0051761D01*
X0341659Y0051781D01*
X0341508Y0051805D01*
X0341357Y0051833D01*
X0341207Y0051864D01*
X0341058Y0051900D01*
X0340910Y0051939D01*
X0340763Y0051982D01*
X0340617Y0052029D01*
X0340472Y0052080D01*
X0340329Y0052135D01*
X0340187Y0052193D01*
X0340047Y0052255D01*
X0339908Y0052320D01*
X0339771Y0052389D01*
X0339636Y0052462D01*
X0339503Y0052538D01*
X0339372Y0052618D01*
X0339243Y0052700D01*
X0339116Y0052787D01*
X0338991Y0052876D01*
X0338869Y0052969D01*
X0338750Y0053065D01*
X0338632Y0053164D01*
X0338518Y0053265D01*
X0338406Y0053370D01*
X0338297Y0053478D01*
X0338191Y0053589D01*
X0338087Y0053702D01*
X0337987Y0053818D01*
X0337889Y0053936D01*
X0337795Y0054057D01*
X0337704Y0054180D01*
X0337616Y0054306D01*
X0337532Y0054434D01*
X0337450Y0054564D01*
X0337373Y0054696D01*
X0337298Y0054830D01*
X0337227Y0054966D01*
X0337160Y0055104D01*
X0337096Y0055244D01*
X0337036Y0055385D01*
X0336980Y0055527D01*
X0336927Y0055671D01*
X0336878Y0055817D01*
X0336833Y0055963D01*
X0336792Y0056111D01*
X0336755Y0056259D01*
X0336721Y0056409D01*
X0336691Y0056560D01*
X0336666Y0056711D01*
X0336644Y0056862D01*
X0336626Y0057015D01*
X0336612Y0057167D01*
X0336602Y0057320D01*
X0336596Y0057474D01*
X0336594Y0057627D01*
X0249094Y0322627D02*
X0249096Y0322780D01*
X0249102Y0322934D01*
X0249112Y0323087D01*
X0249126Y0323239D01*
X0249144Y0323392D01*
X0249166Y0323543D01*
X0249191Y0323694D01*
X0249221Y0323845D01*
X0249255Y0323995D01*
X0249292Y0324143D01*
X0249333Y0324291D01*
X0249378Y0324437D01*
X0249427Y0324583D01*
X0249480Y0324727D01*
X0249536Y0324869D01*
X0249596Y0325010D01*
X0249660Y0325150D01*
X0249727Y0325288D01*
X0249798Y0325424D01*
X0249873Y0325558D01*
X0249950Y0325690D01*
X0250032Y0325820D01*
X0250116Y0325948D01*
X0250204Y0326074D01*
X0250295Y0326197D01*
X0250389Y0326318D01*
X0250487Y0326436D01*
X0250587Y0326552D01*
X0250691Y0326665D01*
X0250797Y0326776D01*
X0250906Y0326884D01*
X0251018Y0326989D01*
X0251132Y0327090D01*
X0251250Y0327189D01*
X0251369Y0327285D01*
X0251491Y0327378D01*
X0251616Y0327467D01*
X0251743Y0327554D01*
X0251872Y0327636D01*
X0252003Y0327716D01*
X0252136Y0327792D01*
X0252271Y0327865D01*
X0252408Y0327934D01*
X0252547Y0327999D01*
X0252687Y0328061D01*
X0252829Y0328119D01*
X0252972Y0328174D01*
X0253117Y0328225D01*
X0253263Y0328272D01*
X0253410Y0328315D01*
X0253558Y0328354D01*
X0253707Y0328390D01*
X0253857Y0328421D01*
X0254008Y0328449D01*
X0254159Y0328473D01*
X0254312Y0328493D01*
X0254464Y0328509D01*
X0254617Y0328521D01*
X0254770Y0328529D01*
X0254923Y0328533D01*
X0255077Y0328533D01*
X0255230Y0328529D01*
X0255383Y0328521D01*
X0255536Y0328509D01*
X0255688Y0328493D01*
X0255841Y0328473D01*
X0255992Y0328449D01*
X0256143Y0328421D01*
X0256293Y0328390D01*
X0256442Y0328354D01*
X0256590Y0328315D01*
X0256737Y0328272D01*
X0256883Y0328225D01*
X0257028Y0328174D01*
X0257171Y0328119D01*
X0257313Y0328061D01*
X0257453Y0327999D01*
X0257592Y0327934D01*
X0257729Y0327865D01*
X0257864Y0327792D01*
X0257997Y0327716D01*
X0258128Y0327636D01*
X0258257Y0327554D01*
X0258384Y0327467D01*
X0258509Y0327378D01*
X0258631Y0327285D01*
X0258750Y0327189D01*
X0258868Y0327090D01*
X0258982Y0326989D01*
X0259094Y0326884D01*
X0259203Y0326776D01*
X0259309Y0326665D01*
X0259413Y0326552D01*
X0259513Y0326436D01*
X0259611Y0326318D01*
X0259705Y0326197D01*
X0259796Y0326074D01*
X0259884Y0325948D01*
X0259968Y0325820D01*
X0260050Y0325690D01*
X0260127Y0325558D01*
X0260202Y0325424D01*
X0260273Y0325288D01*
X0260340Y0325150D01*
X0260404Y0325010D01*
X0260464Y0324869D01*
X0260520Y0324727D01*
X0260573Y0324583D01*
X0260622Y0324437D01*
X0260667Y0324291D01*
X0260708Y0324143D01*
X0260745Y0323995D01*
X0260779Y0323845D01*
X0260809Y0323694D01*
X0260834Y0323543D01*
X0260856Y0323392D01*
X0260874Y0323239D01*
X0260888Y0323087D01*
X0260898Y0322934D01*
X0260904Y0322780D01*
X0260906Y0322627D01*
X0260904Y0322474D01*
X0260898Y0322320D01*
X0260888Y0322167D01*
X0260874Y0322015D01*
X0260856Y0321862D01*
X0260834Y0321711D01*
X0260809Y0321560D01*
X0260779Y0321409D01*
X0260745Y0321259D01*
X0260708Y0321111D01*
X0260667Y0320963D01*
X0260622Y0320817D01*
X0260573Y0320671D01*
X0260520Y0320527D01*
X0260464Y0320385D01*
X0260404Y0320244D01*
X0260340Y0320104D01*
X0260273Y0319966D01*
X0260202Y0319830D01*
X0260127Y0319696D01*
X0260050Y0319564D01*
X0259968Y0319434D01*
X0259884Y0319306D01*
X0259796Y0319180D01*
X0259705Y0319057D01*
X0259611Y0318936D01*
X0259513Y0318818D01*
X0259413Y0318702D01*
X0259309Y0318589D01*
X0259203Y0318478D01*
X0259094Y0318370D01*
X0258982Y0318265D01*
X0258868Y0318164D01*
X0258750Y0318065D01*
X0258631Y0317969D01*
X0258509Y0317876D01*
X0258384Y0317787D01*
X0258257Y0317700D01*
X0258128Y0317618D01*
X0257997Y0317538D01*
X0257864Y0317462D01*
X0257729Y0317389D01*
X0257592Y0317320D01*
X0257453Y0317255D01*
X0257313Y0317193D01*
X0257171Y0317135D01*
X0257028Y0317080D01*
X0256883Y0317029D01*
X0256737Y0316982D01*
X0256590Y0316939D01*
X0256442Y0316900D01*
X0256293Y0316864D01*
X0256143Y0316833D01*
X0255992Y0316805D01*
X0255841Y0316781D01*
X0255688Y0316761D01*
X0255536Y0316745D01*
X0255383Y0316733D01*
X0255230Y0316725D01*
X0255077Y0316721D01*
X0254923Y0316721D01*
X0254770Y0316725D01*
X0254617Y0316733D01*
X0254464Y0316745D01*
X0254312Y0316761D01*
X0254159Y0316781D01*
X0254008Y0316805D01*
X0253857Y0316833D01*
X0253707Y0316864D01*
X0253558Y0316900D01*
X0253410Y0316939D01*
X0253263Y0316982D01*
X0253117Y0317029D01*
X0252972Y0317080D01*
X0252829Y0317135D01*
X0252687Y0317193D01*
X0252547Y0317255D01*
X0252408Y0317320D01*
X0252271Y0317389D01*
X0252136Y0317462D01*
X0252003Y0317538D01*
X0251872Y0317618D01*
X0251743Y0317700D01*
X0251616Y0317787D01*
X0251491Y0317876D01*
X0251369Y0317969D01*
X0251250Y0318065D01*
X0251132Y0318164D01*
X0251018Y0318265D01*
X0250906Y0318370D01*
X0250797Y0318478D01*
X0250691Y0318589D01*
X0250587Y0318702D01*
X0250487Y0318818D01*
X0250389Y0318936D01*
X0250295Y0319057D01*
X0250204Y0319180D01*
X0250116Y0319306D01*
X0250032Y0319434D01*
X0249950Y0319564D01*
X0249873Y0319696D01*
X0249798Y0319830D01*
X0249727Y0319966D01*
X0249660Y0320104D01*
X0249596Y0320244D01*
X0249536Y0320385D01*
X0249480Y0320527D01*
X0249427Y0320671D01*
X0249378Y0320817D01*
X0249333Y0320963D01*
X0249292Y0321111D01*
X0249255Y0321259D01*
X0249221Y0321409D01*
X0249191Y0321560D01*
X0249166Y0321711D01*
X0249144Y0321862D01*
X0249126Y0322015D01*
X0249112Y0322167D01*
X0249102Y0322320D01*
X0249096Y0322474D01*
X0249094Y0322627D01*
X0111594Y0335127D02*
X0111596Y0335280D01*
X0111602Y0335434D01*
X0111612Y0335587D01*
X0111626Y0335739D01*
X0111644Y0335892D01*
X0111666Y0336043D01*
X0111691Y0336194D01*
X0111721Y0336345D01*
X0111755Y0336495D01*
X0111792Y0336643D01*
X0111833Y0336791D01*
X0111878Y0336937D01*
X0111927Y0337083D01*
X0111980Y0337227D01*
X0112036Y0337369D01*
X0112096Y0337510D01*
X0112160Y0337650D01*
X0112227Y0337788D01*
X0112298Y0337924D01*
X0112373Y0338058D01*
X0112450Y0338190D01*
X0112532Y0338320D01*
X0112616Y0338448D01*
X0112704Y0338574D01*
X0112795Y0338697D01*
X0112889Y0338818D01*
X0112987Y0338936D01*
X0113087Y0339052D01*
X0113191Y0339165D01*
X0113297Y0339276D01*
X0113406Y0339384D01*
X0113518Y0339489D01*
X0113632Y0339590D01*
X0113750Y0339689D01*
X0113869Y0339785D01*
X0113991Y0339878D01*
X0114116Y0339967D01*
X0114243Y0340054D01*
X0114372Y0340136D01*
X0114503Y0340216D01*
X0114636Y0340292D01*
X0114771Y0340365D01*
X0114908Y0340434D01*
X0115047Y0340499D01*
X0115187Y0340561D01*
X0115329Y0340619D01*
X0115472Y0340674D01*
X0115617Y0340725D01*
X0115763Y0340772D01*
X0115910Y0340815D01*
X0116058Y0340854D01*
X0116207Y0340890D01*
X0116357Y0340921D01*
X0116508Y0340949D01*
X0116659Y0340973D01*
X0116812Y0340993D01*
X0116964Y0341009D01*
X0117117Y0341021D01*
X0117270Y0341029D01*
X0117423Y0341033D01*
X0117577Y0341033D01*
X0117730Y0341029D01*
X0117883Y0341021D01*
X0118036Y0341009D01*
X0118188Y0340993D01*
X0118341Y0340973D01*
X0118492Y0340949D01*
X0118643Y0340921D01*
X0118793Y0340890D01*
X0118942Y0340854D01*
X0119090Y0340815D01*
X0119237Y0340772D01*
X0119383Y0340725D01*
X0119528Y0340674D01*
X0119671Y0340619D01*
X0119813Y0340561D01*
X0119953Y0340499D01*
X0120092Y0340434D01*
X0120229Y0340365D01*
X0120364Y0340292D01*
X0120497Y0340216D01*
X0120628Y0340136D01*
X0120757Y0340054D01*
X0120884Y0339967D01*
X0121009Y0339878D01*
X0121131Y0339785D01*
X0121250Y0339689D01*
X0121368Y0339590D01*
X0121482Y0339489D01*
X0121594Y0339384D01*
X0121703Y0339276D01*
X0121809Y0339165D01*
X0121913Y0339052D01*
X0122013Y0338936D01*
X0122111Y0338818D01*
X0122205Y0338697D01*
X0122296Y0338574D01*
X0122384Y0338448D01*
X0122468Y0338320D01*
X0122550Y0338190D01*
X0122627Y0338058D01*
X0122702Y0337924D01*
X0122773Y0337788D01*
X0122840Y0337650D01*
X0122904Y0337510D01*
X0122964Y0337369D01*
X0123020Y0337227D01*
X0123073Y0337083D01*
X0123122Y0336937D01*
X0123167Y0336791D01*
X0123208Y0336643D01*
X0123245Y0336495D01*
X0123279Y0336345D01*
X0123309Y0336194D01*
X0123334Y0336043D01*
X0123356Y0335892D01*
X0123374Y0335739D01*
X0123388Y0335587D01*
X0123398Y0335434D01*
X0123404Y0335280D01*
X0123406Y0335127D01*
X0123404Y0334974D01*
X0123398Y0334820D01*
X0123388Y0334667D01*
X0123374Y0334515D01*
X0123356Y0334362D01*
X0123334Y0334211D01*
X0123309Y0334060D01*
X0123279Y0333909D01*
X0123245Y0333759D01*
X0123208Y0333611D01*
X0123167Y0333463D01*
X0123122Y0333317D01*
X0123073Y0333171D01*
X0123020Y0333027D01*
X0122964Y0332885D01*
X0122904Y0332744D01*
X0122840Y0332604D01*
X0122773Y0332466D01*
X0122702Y0332330D01*
X0122627Y0332196D01*
X0122550Y0332064D01*
X0122468Y0331934D01*
X0122384Y0331806D01*
X0122296Y0331680D01*
X0122205Y0331557D01*
X0122111Y0331436D01*
X0122013Y0331318D01*
X0121913Y0331202D01*
X0121809Y0331089D01*
X0121703Y0330978D01*
X0121594Y0330870D01*
X0121482Y0330765D01*
X0121368Y0330664D01*
X0121250Y0330565D01*
X0121131Y0330469D01*
X0121009Y0330376D01*
X0120884Y0330287D01*
X0120757Y0330200D01*
X0120628Y0330118D01*
X0120497Y0330038D01*
X0120364Y0329962D01*
X0120229Y0329889D01*
X0120092Y0329820D01*
X0119953Y0329755D01*
X0119813Y0329693D01*
X0119671Y0329635D01*
X0119528Y0329580D01*
X0119383Y0329529D01*
X0119237Y0329482D01*
X0119090Y0329439D01*
X0118942Y0329400D01*
X0118793Y0329364D01*
X0118643Y0329333D01*
X0118492Y0329305D01*
X0118341Y0329281D01*
X0118188Y0329261D01*
X0118036Y0329245D01*
X0117883Y0329233D01*
X0117730Y0329225D01*
X0117577Y0329221D01*
X0117423Y0329221D01*
X0117270Y0329225D01*
X0117117Y0329233D01*
X0116964Y0329245D01*
X0116812Y0329261D01*
X0116659Y0329281D01*
X0116508Y0329305D01*
X0116357Y0329333D01*
X0116207Y0329364D01*
X0116058Y0329400D01*
X0115910Y0329439D01*
X0115763Y0329482D01*
X0115617Y0329529D01*
X0115472Y0329580D01*
X0115329Y0329635D01*
X0115187Y0329693D01*
X0115047Y0329755D01*
X0114908Y0329820D01*
X0114771Y0329889D01*
X0114636Y0329962D01*
X0114503Y0330038D01*
X0114372Y0330118D01*
X0114243Y0330200D01*
X0114116Y0330287D01*
X0113991Y0330376D01*
X0113869Y0330469D01*
X0113750Y0330565D01*
X0113632Y0330664D01*
X0113518Y0330765D01*
X0113406Y0330870D01*
X0113297Y0330978D01*
X0113191Y0331089D01*
X0113087Y0331202D01*
X0112987Y0331318D01*
X0112889Y0331436D01*
X0112795Y0331557D01*
X0112704Y0331680D01*
X0112616Y0331806D01*
X0112532Y0331934D01*
X0112450Y0332064D01*
X0112373Y0332196D01*
X0112298Y0332330D01*
X0112227Y0332466D01*
X0112160Y0332604D01*
X0112096Y0332744D01*
X0112036Y0332885D01*
X0111980Y0333027D01*
X0111927Y0333171D01*
X0111878Y0333317D01*
X0111833Y0333463D01*
X0111792Y0333611D01*
X0111755Y0333759D01*
X0111721Y0333909D01*
X0111691Y0334060D01*
X0111666Y0334211D01*
X0111644Y0334362D01*
X0111626Y0334515D01*
X0111612Y0334667D01*
X0111602Y0334820D01*
X0111596Y0334974D01*
X0111594Y0335127D01*
D11*
X0117500Y0335127D03*
X0255000Y0322627D03*
X0260000Y0187627D03*
X0365000Y0152627D03*
X0342500Y0057627D03*
X0205000Y0072627D03*
X0065000Y0102627D03*
D12*
X0360000Y0239556D03*
X0360000Y0255698D03*
D13*
X0167500Y0242927D03*
X0162500Y0242927D03*
X0157500Y0242927D03*
X0152500Y0242927D03*
X0152500Y0222327D03*
X0157500Y0222327D03*
X0162500Y0222327D03*
X0167500Y0222327D03*
D14*
X0165000Y0331602D02*
X0165000Y0338652D01*
X0145000Y0338652D02*
X0145000Y0331602D01*
X0031025Y0337627D02*
X0023975Y0337627D01*
X0023975Y0317627D02*
X0031025Y0317627D01*
X0031025Y0297627D02*
X0023975Y0297627D01*
X0023975Y0272627D02*
X0031025Y0272627D01*
X0031025Y0252627D02*
X0023975Y0252627D01*
X0023975Y0232627D02*
X0031025Y0232627D01*
X0031025Y0212627D02*
X0023975Y0212627D01*
X0023975Y0192627D02*
X0031025Y0192627D01*
X0031025Y0172627D02*
X0023975Y0172627D01*
X0023975Y0152627D02*
X0031025Y0152627D01*
X0031025Y0132627D02*
X0023975Y0132627D01*
X0023975Y0112627D02*
X0031025Y0112627D01*
X0031025Y0092627D02*
X0023975Y0092627D01*
X0023975Y0072627D02*
X0031025Y0072627D01*
X0031025Y0052627D02*
X0023975Y0052627D01*
X0275000Y0066602D02*
X0275000Y0073652D01*
X0295000Y0073652D02*
X0295000Y0066602D01*
X0376475Y0197627D02*
X0383525Y0197627D01*
X0383525Y0217627D02*
X0376475Y0217627D01*
D15*
X0370512Y0277627D03*
X0359488Y0277627D03*
X0333012Y0287627D03*
X0321988Y0287627D03*
X0339488Y0322627D03*
X0350512Y0322627D03*
X0185512Y0232627D03*
X0174488Y0232627D03*
X0168012Y0207627D03*
X0156988Y0207627D03*
X0080512Y0307627D03*
X0069488Y0307627D03*
X0109488Y0322127D03*
X0120512Y0322127D03*
D16*
X0135000Y0288139D03*
X0135000Y0277115D03*
X0145000Y0208139D03*
X0145000Y0197115D03*
X0055000Y0197115D03*
X0055000Y0208139D03*
X0055000Y0148139D03*
X0055000Y0137115D03*
X0055000Y0088139D03*
X0055000Y0077115D03*
X0055000Y0297115D03*
X0055000Y0308139D03*
D17*
X0232500Y0347127D03*
D18*
X0232500Y0327127D03*
D19*
X0335000Y0277627D03*
X0335000Y0237627D03*
D20*
X0115000Y0207627D03*
X0115000Y0197627D03*
X0115000Y0187627D03*
X0115000Y0177627D03*
X0085000Y0177627D03*
X0085000Y0187627D03*
X0085000Y0197627D03*
X0085000Y0207627D03*
D21*
X0160500Y0192627D03*
X0159500Y0182627D03*
X0160500Y0172627D03*
X0159500Y0162627D03*
X0160500Y0152627D03*
X0159500Y0142627D03*
X0160500Y0132627D03*
X0159500Y0122627D03*
X0160500Y0112627D03*
X0159500Y0102627D03*
X0160500Y0092627D03*
X0159500Y0082627D03*
X0174500Y0092627D03*
X0175500Y0102627D03*
X0174500Y0112627D03*
X0175500Y0122627D03*
X0174500Y0132627D03*
X0175500Y0142627D03*
X0174500Y0152627D03*
X0175500Y0162627D03*
X0174500Y0172627D03*
X0175500Y0182627D03*
X0185000Y0182127D03*
X0195000Y0183127D03*
X0205000Y0182127D03*
X0215000Y0183127D03*
X0235500Y0182627D03*
X0234500Y0172627D03*
X0235500Y0162627D03*
X0234500Y0152627D03*
X0235500Y0142627D03*
X0234500Y0132627D03*
X0235500Y0122627D03*
X0234500Y0112627D03*
X0235500Y0102627D03*
X0234500Y0092627D03*
X0235500Y0082627D03*
X0234500Y0072627D03*
X0235500Y0062627D03*
X0234500Y0052627D03*
X0249500Y0057627D03*
X0250500Y0067627D03*
X0249500Y0077627D03*
X0250500Y0087627D03*
X0249500Y0097627D03*
X0250500Y0107627D03*
X0249500Y0117627D03*
X0250500Y0127627D03*
X0249500Y0137627D03*
X0250500Y0147627D03*
X0249500Y0157627D03*
X0250500Y0167627D03*
X0175500Y0082627D03*
X0174500Y0072627D03*
X0175500Y0062627D03*
X0174500Y0052627D03*
X0090500Y0052627D03*
X0089500Y0062627D03*
X0090500Y0072627D03*
X0089500Y0082627D03*
X0090500Y0092627D03*
X0319500Y0072627D03*
X0320500Y0062627D03*
X0365000Y0062627D03*
X0365000Y0072627D03*
X0365000Y0082627D03*
X0365000Y0102627D03*
X0365000Y0112627D03*
X0365000Y0122627D03*
X0365000Y0052627D03*
D22*
X0319500Y0052627D03*
D23*
X0330000Y0311721D03*
X0330000Y0323532D03*
D24*
X0379500Y0262627D02*
X0385500Y0262627D01*
X0385500Y0252627D02*
X0379500Y0252627D01*
X0379500Y0242627D02*
X0385500Y0242627D01*
D25*
X0340000Y0297028D03*
X0340000Y0308225D03*
X0390000Y0312028D03*
X0390000Y0323225D03*
X0310000Y0258225D03*
X0310000Y0247028D03*
X0297500Y0247028D03*
X0297500Y0258225D03*
X0277500Y0258225D03*
X0277500Y0247028D03*
X0262500Y0247028D03*
X0262500Y0258225D03*
X0275000Y0297028D03*
X0275000Y0308225D03*
X0290000Y0188225D03*
X0290000Y0177028D03*
X0275000Y0168225D03*
X0275000Y0157028D03*
X0302500Y0115725D03*
X0302500Y0104528D03*
X0345000Y0117028D03*
X0345000Y0128225D03*
X0345000Y0152028D03*
X0345000Y0163225D03*
X0330000Y0172028D03*
X0330000Y0183225D03*
X0130000Y0197028D03*
X0130000Y0208225D03*
X0125000Y0222028D03*
X0125000Y0233225D03*
X0110000Y0233225D03*
X0110000Y0222028D03*
X0085000Y0222028D03*
X0085000Y0233225D03*
X0070000Y0233225D03*
X0070000Y0222028D03*
X0095000Y0287028D03*
X0095000Y0298225D03*
X0095000Y0312028D03*
X0095000Y0323225D03*
X0095000Y0332028D03*
X0095000Y0343225D03*
X0077500Y0338225D03*
X0077500Y0327028D03*
D26*
X0109402Y0307627D03*
X0120598Y0307627D03*
X0224402Y0205127D03*
X0235598Y0205127D03*
X0264402Y0147627D03*
X0264402Y0137627D03*
X0264402Y0127627D03*
X0264402Y0117627D03*
X0275598Y0117627D03*
X0275598Y0127627D03*
X0275598Y0137627D03*
X0275598Y0147627D03*
X0299402Y0167627D03*
X0310598Y0167627D03*
X0319402Y0127627D03*
X0330598Y0127627D03*
X0381902Y0280127D03*
X0393098Y0280127D03*
X0375598Y0317627D03*
X0364402Y0317627D03*
X0295598Y0322627D03*
X0284402Y0322627D03*
X0279402Y0282627D03*
X0290598Y0282627D03*
D27*
X0065512Y0322627D03*
X0054488Y0322627D03*
X0054488Y0337627D03*
X0065512Y0337627D03*
D28*
X0310040Y0340117D02*
X0310080Y0339732D01*
X0310205Y0339367D01*
X0310407Y0339038D01*
X0310678Y0338762D01*
X0311003Y0338554D01*
X0311367Y0338423D01*
X0311750Y0338377D01*
X0312145Y0338415D01*
X0312521Y0338539D01*
X0312860Y0338744D01*
X0313145Y0339020D01*
X0313362Y0339352D01*
X0313499Y0339724D01*
X0313550Y0340117D01*
X0313495Y0340515D01*
X0313353Y0340891D01*
X0313130Y0341226D01*
X0312839Y0341503D01*
X0312493Y0341708D01*
X0312111Y0341832D01*
X0311710Y0341867D01*
X0311331Y0341815D01*
X0310972Y0341680D01*
X0310653Y0341469D01*
X0310388Y0341192D01*
X0310192Y0340863D01*
X0310074Y0340498D01*
X0310040Y0340117D01*
X0310050Y0340223D02*
X0313535Y0340223D01*
X0313499Y0339725D02*
X0310083Y0339725D01*
X0310291Y0339226D02*
X0313280Y0339226D01*
X0312833Y0338728D02*
X0310732Y0338728D01*
X0310147Y0340722D02*
X0313417Y0340722D01*
X0313134Y0341220D02*
X0310416Y0341220D01*
X0311075Y0341719D02*
X0312461Y0341719D01*
X0320774Y0340468D02*
X0320892Y0340833D01*
X0321088Y0341162D01*
X0321352Y0341439D01*
X0321672Y0341650D01*
X0322030Y0341785D01*
X0322410Y0341837D01*
X0322810Y0341802D01*
X0323193Y0341678D01*
X0323539Y0341473D01*
X0323830Y0341196D01*
X0324052Y0340861D01*
X0324195Y0340485D01*
X0324250Y0340087D01*
X0324199Y0339694D01*
X0324061Y0339322D01*
X0323845Y0338990D01*
X0323560Y0338714D01*
X0323221Y0338509D01*
X0322845Y0338385D01*
X0322450Y0338347D01*
X0322067Y0338393D01*
X0321703Y0338524D01*
X0321378Y0338732D01*
X0321107Y0339008D01*
X0320904Y0339337D01*
X0320780Y0339702D01*
X0320740Y0340087D01*
X0320774Y0340468D01*
X0320752Y0340223D02*
X0324231Y0340223D01*
X0324203Y0339725D02*
X0320777Y0339725D01*
X0320972Y0339226D02*
X0323999Y0339226D01*
X0323574Y0338728D02*
X0321385Y0338728D01*
X0320856Y0340722D02*
X0324105Y0340722D01*
X0323805Y0341220D02*
X0321144Y0341220D01*
X0321854Y0341719D02*
X0323068Y0341719D01*
X0331494Y0340508D02*
X0331612Y0340873D01*
X0331808Y0341202D01*
X0332072Y0341479D01*
X0332392Y0341690D01*
X0332750Y0341825D01*
X0333130Y0341877D01*
X0333530Y0341842D01*
X0333913Y0341719D01*
X0334259Y0341513D01*
X0334550Y0341236D01*
X0334772Y0340901D01*
X0334915Y0340525D01*
X0334970Y0340127D01*
X0334919Y0339734D01*
X0334781Y0339362D01*
X0334565Y0339030D01*
X0334280Y0338755D01*
X0333941Y0338549D01*
X0333565Y0338425D01*
X0333170Y0338387D01*
X0332787Y0338434D01*
X0332423Y0338564D01*
X0332098Y0338773D01*
X0331827Y0339048D01*
X0331624Y0339377D01*
X0331500Y0339743D01*
X0331460Y0340127D01*
X0331494Y0340508D01*
X0331563Y0340722D02*
X0334840Y0340722D01*
X0334956Y0340223D02*
X0331468Y0340223D01*
X0331506Y0339725D02*
X0334915Y0339725D01*
X0334693Y0339226D02*
X0331717Y0339226D01*
X0332168Y0338728D02*
X0334236Y0338728D01*
X0334561Y0341220D02*
X0331826Y0341220D01*
X0332468Y0341719D02*
X0333913Y0341719D01*
X0136759Y0061513D02*
X0137050Y0061236D01*
X0137272Y0060901D01*
X0137415Y0060525D01*
X0137470Y0060127D01*
X0137419Y0059734D01*
X0137281Y0059362D01*
X0137065Y0059030D01*
X0136780Y0058755D01*
X0136441Y0058549D01*
X0136065Y0058425D01*
X0135670Y0058387D01*
X0135287Y0058434D01*
X0134923Y0058564D01*
X0134598Y0058773D01*
X0134327Y0059048D01*
X0134124Y0059377D01*
X0134000Y0059743D01*
X0133960Y0060127D01*
X0133994Y0060508D01*
X0134112Y0060873D01*
X0134308Y0061202D01*
X0134572Y0061479D01*
X0134892Y0061690D01*
X0135250Y0061825D01*
X0135630Y0061877D01*
X0136030Y0061842D01*
X0136413Y0061719D01*
X0136759Y0061513D01*
X0136688Y0061555D02*
X0134688Y0061555D01*
X0134222Y0061057D02*
X0137169Y0061057D01*
X0137402Y0060558D02*
X0134010Y0060558D01*
X0133967Y0060060D02*
X0137461Y0060060D01*
X0137355Y0059561D02*
X0134061Y0059561D01*
X0134318Y0059063D02*
X0137086Y0059063D01*
X0136466Y0058564D02*
X0134923Y0058564D01*
X0126699Y0059694D02*
X0126561Y0059322D01*
X0126345Y0058990D01*
X0126060Y0058714D01*
X0125721Y0058509D01*
X0125345Y0058385D01*
X0124950Y0058347D01*
X0124567Y0058393D01*
X0124203Y0058524D01*
X0123878Y0058732D01*
X0123607Y0059008D01*
X0123404Y0059337D01*
X0123280Y0059702D01*
X0123240Y0060087D01*
X0123274Y0060468D01*
X0123392Y0060833D01*
X0123588Y0061162D01*
X0123852Y0061439D01*
X0124172Y0061650D01*
X0124530Y0061785D01*
X0124910Y0061837D01*
X0125310Y0061802D01*
X0125693Y0061678D01*
X0126039Y0061473D01*
X0126330Y0061196D01*
X0126552Y0060861D01*
X0126695Y0060485D01*
X0126750Y0060087D01*
X0126699Y0059694D01*
X0126650Y0059561D02*
X0123328Y0059561D01*
X0123243Y0060060D02*
X0126746Y0060060D01*
X0126667Y0060558D02*
X0123303Y0060558D01*
X0123525Y0061057D02*
X0126422Y0061057D01*
X0125900Y0061555D02*
X0124029Y0061555D01*
X0123573Y0059063D02*
X0126392Y0059063D01*
X0125812Y0058564D02*
X0124140Y0058564D01*
X0115999Y0059724D02*
X0115862Y0059352D01*
X0115645Y0059020D01*
X0115360Y0058744D01*
X0115021Y0058539D01*
X0114645Y0058415D01*
X0114250Y0058377D01*
X0113867Y0058423D01*
X0113503Y0058554D01*
X0113178Y0058762D01*
X0112907Y0059038D01*
X0112705Y0059367D01*
X0112580Y0059732D01*
X0112540Y0060117D01*
X0112574Y0060498D01*
X0112692Y0060863D01*
X0112888Y0061192D01*
X0113153Y0061469D01*
X0113472Y0061680D01*
X0113831Y0061815D01*
X0114210Y0061867D01*
X0114611Y0061832D01*
X0114993Y0061708D01*
X0115339Y0061503D01*
X0115630Y0061226D01*
X0115853Y0060891D01*
X0115995Y0060515D01*
X0116050Y0060117D01*
X0115999Y0059724D01*
X0115939Y0059561D02*
X0112638Y0059561D01*
X0112546Y0060060D02*
X0116043Y0060060D01*
X0115979Y0060558D02*
X0112594Y0060558D01*
X0112808Y0061057D02*
X0115743Y0061057D01*
X0115251Y0061555D02*
X0113284Y0061555D01*
X0112892Y0059063D02*
X0115673Y0059063D01*
X0115063Y0058564D02*
X0113487Y0058564D01*
D29*
X0286260Y0118690D03*
X0293740Y0118690D03*
X0290000Y0126564D03*
X0301260Y0128690D03*
X0308740Y0128690D03*
X0305000Y0136564D03*
X0293740Y0138690D03*
X0286260Y0138690D03*
X0290000Y0146564D03*
X0301260Y0148690D03*
X0308740Y0148690D03*
X0305000Y0156564D03*
X0293740Y0158690D03*
X0286260Y0158690D03*
X0290000Y0166564D03*
X0316260Y0158690D03*
X0323740Y0158690D03*
X0320000Y0166564D03*
X0320000Y0146564D03*
X0316260Y0138690D03*
X0323740Y0138690D03*
X0293740Y0293690D03*
X0286260Y0293690D03*
X0290000Y0301564D03*
X0273740Y0316190D03*
X0266260Y0316190D03*
X0270000Y0324064D03*
D30*
X0122500Y0289177D03*
X0117500Y0289177D03*
X0112500Y0289177D03*
X0107500Y0289177D03*
X0082500Y0289177D03*
X0077500Y0289177D03*
X0072500Y0289177D03*
X0067500Y0289177D03*
X0067500Y0244827D03*
X0072500Y0244827D03*
X0077500Y0244827D03*
X0082500Y0244827D03*
X0107500Y0244827D03*
X0112500Y0244827D03*
X0117500Y0244827D03*
X0122500Y0244827D03*
D31*
X0200000Y0269320D03*
X0200000Y0273257D03*
X0200000Y0277194D03*
X0200000Y0281131D03*
X0200000Y0300816D03*
X0200000Y0304753D03*
X0200000Y0308690D03*
X0200000Y0312627D03*
X0237795Y0312627D03*
X0237795Y0308690D03*
X0237795Y0304753D03*
X0237795Y0300816D03*
X0237795Y0281131D03*
X0237795Y0277194D03*
X0237795Y0273257D03*
X0237795Y0269320D03*
D32*
X0237520Y0290973D03*
X0200276Y0290973D03*
D33*
X0316063Y0116367D03*
X0316063Y0108887D03*
X0323937Y0112627D03*
D34*
X0352800Y0288527D03*
X0352800Y0297627D03*
X0352800Y0306727D03*
D35*
X0377201Y0297627D03*
D36*
X0380000Y0342627D03*
X0350000Y0342627D03*
D37*
X0312500Y0238377D03*
X0307500Y0238377D03*
X0302500Y0238377D03*
X0297500Y0238377D03*
X0277500Y0238377D03*
X0272500Y0238377D03*
X0267500Y0238377D03*
X0262500Y0238377D03*
X0262500Y0216877D03*
X0267500Y0216877D03*
X0272500Y0216877D03*
X0277500Y0216877D03*
X0297500Y0216877D03*
X0302500Y0216877D03*
X0307500Y0216877D03*
X0312500Y0216877D03*
X0232500Y0216877D03*
X0227500Y0216877D03*
X0222500Y0216877D03*
X0217500Y0216877D03*
X0217500Y0238377D03*
X0222500Y0238377D03*
X0227500Y0238377D03*
X0232500Y0238377D03*
M02*
