G75*
%MOIN*%
%OFA0B0*%
%FSLAX25Y25*%
%IPPOS*%
%LPD*%
%AMOC8*
5,1,8,0,0,1.08239X$1,22.5*
%
%ADD10C,0.00000*%
%ADD11C,0.01000*%
%ADD12C,0.00500*%
%ADD13R,0.08268X0.01181*%
%ADD14C,0.00400*%
D10*
X0073539Y0005833D02*
X0073539Y0325833D01*
X0337240Y0325833D01*
X0337240Y0005833D01*
X0073539Y0005833D01*
D11*
X0103539Y0087684D02*
X0099799Y0093392D01*
X0107279Y0093392D01*
X0103539Y0087684D01*
D12*
X0110624Y0087545D02*
X0110624Y0086044D01*
X0111374Y0085294D01*
X0114377Y0088296D01*
X0111374Y0088296D01*
X0110624Y0087545D01*
X0111374Y0085294D02*
X0114377Y0085294D01*
X0115128Y0086044D01*
X0115128Y0087545D01*
X0114377Y0088296D01*
X0115128Y0089897D02*
X0112125Y0089897D01*
X0110624Y0091399D01*
X0112125Y0092900D01*
X0115128Y0092900D01*
X0115128Y0094501D02*
X0115128Y0097504D01*
X0114377Y0097504D01*
X0111374Y0094501D01*
X0110624Y0094501D01*
X0110624Y0097504D01*
X0110624Y0099105D02*
X0110624Y0102108D01*
X0110624Y0103709D02*
X0115128Y0103709D01*
X0110624Y0106712D01*
X0115128Y0106712D01*
X0115128Y0108313D02*
X0110624Y0108313D01*
X0110624Y0111316D01*
X0110624Y0112917D02*
X0115128Y0112917D01*
X0115128Y0115169D01*
X0114377Y0115920D01*
X0112876Y0115920D01*
X0112125Y0115169D01*
X0112125Y0112917D01*
X0112125Y0114418D02*
X0110624Y0115920D01*
X0115128Y0111316D02*
X0115128Y0108313D01*
X0112876Y0108313D02*
X0112876Y0109814D01*
X0115128Y0102108D02*
X0115128Y0099105D01*
X0110624Y0099105D01*
X0112876Y0099105D02*
X0112876Y0100607D01*
X0110624Y0083692D02*
X0110624Y0080690D01*
X0110624Y0082191D02*
X0115128Y0082191D01*
X0113626Y0080690D01*
D13*
X0103539Y0087487D03*
D14*
X0113739Y0131033D02*
X0118343Y0131033D01*
X0118343Y0133335D01*
X0117576Y0134103D01*
X0116041Y0134103D01*
X0115274Y0133335D01*
X0115274Y0131033D01*
X0115274Y0132568D02*
X0113739Y0134103D01*
X0114506Y0135637D02*
X0113739Y0136405D01*
X0113739Y0137939D01*
X0114506Y0138707D01*
X0116041Y0138707D01*
X0116808Y0137939D01*
X0116808Y0137172D01*
X0116041Y0135637D01*
X0118343Y0135637D01*
X0118343Y0138707D01*
X0117943Y0171033D02*
X0117943Y0171801D01*
X0114874Y0174870D01*
X0114874Y0175637D01*
X0117943Y0175637D01*
X0121012Y0175637D02*
X0122547Y0174103D01*
X0124082Y0174870D02*
X0124082Y0173335D01*
X0124849Y0172568D01*
X0127151Y0172568D01*
X0125616Y0172568D02*
X0124082Y0171033D01*
X0122547Y0171033D02*
X0119478Y0171033D01*
X0121012Y0171033D02*
X0121012Y0175637D01*
X0124082Y0174870D02*
X0124849Y0175637D01*
X0127151Y0175637D01*
X0127151Y0171033D01*
X0127151Y0191033D02*
X0127151Y0195637D01*
X0124849Y0195637D01*
X0124082Y0194870D01*
X0124082Y0193335D01*
X0124849Y0192568D01*
X0127151Y0192568D01*
X0125616Y0192568D02*
X0124082Y0191033D01*
X0122547Y0191033D02*
X0119478Y0191033D01*
X0121012Y0191033D02*
X0121012Y0195637D01*
X0122547Y0194103D01*
X0117943Y0193335D02*
X0115641Y0193335D01*
X0114874Y0192568D01*
X0114874Y0191801D01*
X0115641Y0191033D01*
X0117176Y0191033D01*
X0117943Y0191801D01*
X0117943Y0193335D01*
X0116409Y0194870D01*
X0114874Y0195637D01*
X0115641Y0211033D02*
X0117176Y0211033D01*
X0117943Y0211801D01*
X0117943Y0213335D02*
X0116409Y0214103D01*
X0115641Y0214103D01*
X0114874Y0213335D01*
X0114874Y0211801D01*
X0115641Y0211033D01*
X0117943Y0213335D02*
X0117943Y0215637D01*
X0114874Y0215637D01*
X0121012Y0215637D02*
X0121012Y0211033D01*
X0119478Y0211033D02*
X0122547Y0211033D01*
X0124082Y0211033D02*
X0125616Y0212568D01*
X0124849Y0212568D02*
X0127151Y0212568D01*
X0127151Y0211033D02*
X0127151Y0215637D01*
X0124849Y0215637D01*
X0124082Y0214870D01*
X0124082Y0213335D01*
X0124849Y0212568D01*
X0122547Y0214103D02*
X0121012Y0215637D01*
X0121012Y0231033D02*
X0121012Y0235637D01*
X0122547Y0234103D01*
X0124082Y0234870D02*
X0124849Y0235637D01*
X0127151Y0235637D01*
X0127151Y0231033D01*
X0127151Y0232568D02*
X0124849Y0232568D01*
X0124082Y0233335D01*
X0124082Y0234870D01*
X0125616Y0232568D02*
X0124082Y0231033D01*
X0122547Y0231033D02*
X0119478Y0231033D01*
X0117943Y0233335D02*
X0114874Y0233335D01*
X0115641Y0231033D02*
X0115641Y0235637D01*
X0117943Y0233335D01*
X0128739Y0267222D02*
X0133343Y0267222D01*
X0133343Y0269523D01*
X0132576Y0270291D01*
X0131041Y0270291D01*
X0130274Y0269523D01*
X0130274Y0267222D01*
X0130274Y0268756D02*
X0128739Y0270291D01*
X0128739Y0271825D02*
X0128739Y0274895D01*
X0128739Y0276429D02*
X0131808Y0279499D01*
X0132576Y0279499D01*
X0133343Y0278731D01*
X0133343Y0277197D01*
X0132576Y0276429D01*
X0133343Y0273360D02*
X0128739Y0273360D01*
X0128739Y0276429D02*
X0128739Y0279499D01*
X0133343Y0273360D02*
X0131808Y0271825D01*
X0148739Y0271825D02*
X0148739Y0274895D01*
X0148739Y0273360D02*
X0153343Y0273360D01*
X0151808Y0271825D01*
X0152576Y0270291D02*
X0151041Y0270291D01*
X0150274Y0269523D01*
X0150274Y0267222D01*
X0150274Y0268756D02*
X0148739Y0270291D01*
X0148739Y0267222D02*
X0153343Y0267222D01*
X0153343Y0269523D01*
X0152576Y0270291D01*
X0152576Y0276429D02*
X0153343Y0277197D01*
X0153343Y0278731D01*
X0152576Y0279499D01*
X0151808Y0279499D01*
X0151041Y0278731D01*
X0150274Y0279499D01*
X0149506Y0279499D01*
X0148739Y0278731D01*
X0148739Y0277197D01*
X0149506Y0276429D01*
X0151041Y0277964D02*
X0151041Y0278731D01*
X0210666Y0234870D02*
X0211433Y0235637D01*
X0212968Y0235637D01*
X0213735Y0234870D01*
X0213735Y0234103D01*
X0212968Y0233335D01*
X0210666Y0233335D01*
X0210666Y0231801D02*
X0210666Y0234870D01*
X0210666Y0231801D02*
X0211433Y0231033D01*
X0212968Y0231033D01*
X0213735Y0231801D01*
X0215270Y0231033D02*
X0216805Y0232568D01*
X0216037Y0232568D02*
X0218339Y0232568D01*
X0218339Y0231033D02*
X0218339Y0235637D01*
X0216037Y0235637D01*
X0215270Y0234870D01*
X0215270Y0233335D01*
X0216037Y0232568D01*
X0258739Y0227939D02*
X0263343Y0227939D01*
X0261041Y0225637D01*
X0261041Y0228707D01*
X0261041Y0224103D02*
X0260274Y0223335D01*
X0260274Y0221033D01*
X0258739Y0221033D02*
X0263343Y0221033D01*
X0263343Y0223335D01*
X0262576Y0224103D01*
X0261041Y0224103D01*
X0260274Y0222568D02*
X0258739Y0224103D01*
X0258739Y0206207D02*
X0258739Y0203137D01*
X0261808Y0206207D01*
X0262576Y0206207D01*
X0263343Y0205439D01*
X0263343Y0203905D01*
X0262576Y0203137D01*
X0262576Y0201603D02*
X0261041Y0201603D01*
X0260274Y0200835D01*
X0260274Y0198533D01*
X0258739Y0198533D02*
X0263343Y0198533D01*
X0263343Y0200835D01*
X0262576Y0201603D01*
X0260274Y0200068D02*
X0258739Y0201603D01*
X0288739Y0204722D02*
X0293343Y0204722D01*
X0293343Y0207023D01*
X0292576Y0207791D01*
X0291041Y0207791D01*
X0290274Y0207023D01*
X0290274Y0204722D01*
X0290274Y0206256D02*
X0288739Y0207791D01*
X0288739Y0209325D02*
X0288739Y0212395D01*
X0288739Y0213929D02*
X0288739Y0216999D01*
X0288739Y0215464D02*
X0293343Y0215464D01*
X0291808Y0213929D01*
X0293343Y0210860D02*
X0288739Y0210860D01*
X0291808Y0209325D02*
X0293343Y0210860D01*
X0293343Y0232222D02*
X0288739Y0232222D01*
X0290274Y0232222D02*
X0290274Y0234523D01*
X0291041Y0235291D01*
X0292576Y0235291D01*
X0293343Y0234523D01*
X0293343Y0232222D01*
X0290274Y0233756D02*
X0288739Y0235291D01*
X0288739Y0236825D02*
X0288739Y0239895D01*
X0288739Y0238360D02*
X0293343Y0238360D01*
X0291808Y0236825D01*
X0292576Y0241429D02*
X0289506Y0241429D01*
X0292576Y0244499D01*
X0289506Y0244499D01*
X0288739Y0243731D01*
X0288739Y0242197D01*
X0289506Y0241429D01*
X0292576Y0241429D02*
X0293343Y0242197D01*
X0293343Y0243731D01*
X0292576Y0244499D01*
X0273343Y0286033D02*
X0268739Y0286033D01*
X0270274Y0286033D02*
X0270274Y0288335D01*
X0271041Y0289103D01*
X0272576Y0289103D01*
X0273343Y0288335D01*
X0273343Y0286033D01*
X0270274Y0287568D02*
X0268739Y0289103D01*
X0269506Y0290637D02*
X0268739Y0291405D01*
X0268739Y0292939D01*
X0269506Y0293707D01*
X0270274Y0293707D01*
X0271041Y0292939D01*
X0271041Y0290637D01*
X0269506Y0290637D01*
X0271041Y0290637D02*
X0272576Y0292172D01*
X0273343Y0293707D01*
X0304506Y0153310D02*
X0303739Y0152543D01*
X0303739Y0151008D01*
X0304506Y0150241D01*
X0305274Y0150241D01*
X0306041Y0151008D01*
X0306041Y0152543D01*
X0305274Y0153310D01*
X0304506Y0153310D01*
X0306041Y0152543D02*
X0306808Y0153310D01*
X0307576Y0153310D01*
X0308343Y0152543D01*
X0308343Y0151008D01*
X0307576Y0150241D01*
X0306808Y0150241D01*
X0306041Y0151008D01*
X0303739Y0148707D02*
X0303739Y0145637D01*
X0303739Y0144103D02*
X0305274Y0142568D01*
X0305274Y0143335D02*
X0305274Y0141033D01*
X0303739Y0141033D02*
X0308343Y0141033D01*
X0308343Y0143335D01*
X0307576Y0144103D01*
X0306041Y0144103D01*
X0305274Y0143335D01*
X0306808Y0145637D02*
X0308343Y0147172D01*
X0303739Y0147172D01*
X0265843Y0112939D02*
X0265076Y0113707D01*
X0264308Y0113707D01*
X0263541Y0112939D01*
X0262774Y0113707D01*
X0262006Y0113707D01*
X0261239Y0112939D01*
X0261239Y0111405D01*
X0262006Y0110637D01*
X0261239Y0109103D02*
X0262774Y0107568D01*
X0262774Y0108335D02*
X0262774Y0106033D01*
X0261239Y0106033D02*
X0265843Y0106033D01*
X0265843Y0108335D01*
X0265076Y0109103D01*
X0263541Y0109103D01*
X0262774Y0108335D01*
X0265076Y0110637D02*
X0265843Y0111405D01*
X0265843Y0112939D01*
X0263541Y0112939D02*
X0263541Y0112172D01*
X0261239Y0091207D02*
X0261239Y0088137D01*
X0261239Y0086603D02*
X0262774Y0085068D01*
X0262774Y0085835D02*
X0262774Y0083533D01*
X0261239Y0083533D02*
X0265843Y0083533D01*
X0265843Y0085835D01*
X0265076Y0086603D01*
X0263541Y0086603D01*
X0262774Y0085835D01*
X0264308Y0088137D02*
X0265843Y0089672D01*
X0261239Y0089672D01*
X0190047Y0069870D02*
X0190047Y0066801D01*
X0189280Y0066033D01*
X0187745Y0066033D01*
X0186978Y0066801D01*
X0185443Y0066033D02*
X0182374Y0066033D01*
X0183908Y0066033D02*
X0183908Y0070637D01*
X0185443Y0069103D01*
X0186978Y0069870D02*
X0187745Y0070637D01*
X0189280Y0070637D01*
X0190047Y0069870D01*
M02*
