G75*
%MOIN*%
%OFA0B0*%
%FSLAX25Y25*%
%IPPOS*%
%LPD*%
%AMOC8*
5,1,8,0,0,1.08239X$1,22.5*
%
%ADD10C,0.00000*%
%ADD11R,0.07093X0.07487*%
%ADD12C,0.07450*%
%ADD13R,0.06699X0.07487*%
%ADD14C,0.07800*%
%ADD15R,0.07800X0.07800*%
%ADD16C,0.06400*%
%ADD17R,0.07498X0.06699*%
%ADD18R,0.06699X0.07498*%
%ADD19C,0.00500*%
D10*
X0073539Y0005833D02*
X0073539Y0325833D01*
X0337240Y0325833D01*
X0337240Y0005833D01*
X0073539Y0005833D01*
D11*
X0103539Y0082762D03*
X0103539Y0098904D03*
D12*
X0094564Y0138333D02*
X0087514Y0138333D01*
X0087514Y0158333D02*
X0094564Y0158333D01*
X0097064Y0180833D02*
X0090014Y0180833D01*
X0090014Y0200833D02*
X0097064Y0200833D01*
X0097064Y0220833D02*
X0090014Y0220833D01*
X0090014Y0240833D02*
X0097064Y0240833D01*
X0097064Y0260833D02*
X0090014Y0260833D01*
X0138539Y0304808D02*
X0138539Y0311858D01*
X0158539Y0311858D02*
X0158539Y0304808D01*
X0178539Y0304808D02*
X0178539Y0311858D01*
X0312514Y0310833D02*
X0319564Y0310833D01*
X0319564Y0290833D02*
X0312514Y0290833D01*
X0312514Y0270833D02*
X0319564Y0270833D01*
X0319564Y0240833D02*
X0312514Y0240833D01*
X0312514Y0220833D02*
X0319564Y0220833D01*
X0319564Y0200833D02*
X0312514Y0200833D01*
X0312514Y0140833D02*
X0319564Y0140833D01*
X0319564Y0120833D02*
X0312514Y0120833D01*
D13*
X0191551Y0075833D03*
X0180527Y0075833D03*
D14*
X0169039Y0085833D03*
X0168039Y0075833D03*
X0168039Y0095833D03*
X0169039Y0105833D03*
X0168039Y0115833D03*
X0169039Y0125833D03*
X0168039Y0135833D03*
X0169039Y0145833D03*
X0168039Y0155833D03*
X0169039Y0165833D03*
X0168039Y0175833D03*
X0169039Y0185833D03*
X0168039Y0195833D03*
X0169039Y0205833D03*
X0178539Y0205333D03*
X0188539Y0206333D03*
X0198539Y0205333D03*
X0208539Y0206333D03*
X0229039Y0205833D03*
X0228039Y0195833D03*
X0229039Y0185833D03*
X0228039Y0175833D03*
X0229039Y0165833D03*
X0228039Y0155833D03*
X0229039Y0145833D03*
X0228039Y0135833D03*
X0229039Y0125833D03*
X0228039Y0115833D03*
X0229039Y0105833D03*
X0228039Y0095833D03*
X0229039Y0085833D03*
X0228039Y0075833D03*
X0243039Y0085833D03*
X0244039Y0095833D03*
X0243039Y0105833D03*
X0244039Y0115833D03*
X0243039Y0125833D03*
X0244039Y0135833D03*
X0243039Y0145833D03*
X0244039Y0155833D03*
X0243039Y0165833D03*
X0244039Y0175833D03*
X0243039Y0185833D03*
X0244039Y0195833D03*
X0268039Y0190833D03*
X0269039Y0180833D03*
X0268039Y0170833D03*
X0269039Y0160833D03*
X0268039Y0150833D03*
X0269039Y0125833D03*
X0268039Y0115833D03*
X0269039Y0105833D03*
X0268039Y0095833D03*
X0269039Y0085833D03*
X0268039Y0075833D03*
X0269039Y0065833D03*
X0268039Y0055833D03*
X0269039Y0045833D03*
X0268039Y0035833D03*
X0228539Y0036333D03*
X0218539Y0035333D03*
X0153039Y0105833D03*
X0154039Y0115833D03*
X0153039Y0125833D03*
X0154039Y0135833D03*
X0153039Y0145833D03*
X0154039Y0155833D03*
X0153039Y0165833D03*
X0154039Y0175833D03*
X0153039Y0185833D03*
X0154039Y0195833D03*
X0153039Y0205833D03*
X0154039Y0215833D03*
X0268039Y0210833D03*
X0269039Y0200833D03*
X0269039Y0220833D03*
X0268039Y0230833D03*
X0269039Y0240833D03*
X0088539Y0088333D03*
X0088539Y0078333D03*
X0088539Y0068333D03*
X0088539Y0048333D03*
X0088539Y0038333D03*
X0088539Y0028333D03*
X0088539Y0018333D03*
D15*
X0238539Y0035333D03*
D16*
X0106039Y0110333D02*
X0106039Y0116333D01*
X0096039Y0116333D02*
X0096039Y0110333D01*
X0086039Y0110333D02*
X0086039Y0116333D01*
D17*
X0108539Y0130235D03*
X0108539Y0141432D03*
X0138539Y0270235D03*
X0138539Y0281432D03*
X0158539Y0281432D03*
X0158539Y0270235D03*
X0253539Y0231432D03*
X0253539Y0220235D03*
X0253539Y0208932D03*
X0253539Y0197735D03*
X0298539Y0207735D03*
X0298539Y0218932D03*
X0298539Y0235235D03*
X0298539Y0246432D03*
X0263539Y0285235D03*
X0263539Y0296432D03*
X0298539Y0151432D03*
X0298539Y0140235D03*
X0256039Y0116432D03*
X0256039Y0105235D03*
X0256039Y0093932D03*
X0256039Y0082735D03*
D18*
X0124138Y0180833D03*
X0112941Y0180833D03*
X0112941Y0200833D03*
X0124138Y0200833D03*
X0124138Y0220833D03*
X0112941Y0220833D03*
X0112941Y0240833D03*
X0124138Y0240833D03*
X0207941Y0225833D03*
X0219138Y0225833D03*
D19*
X0139860Y0054695D02*
X0140459Y0054367D01*
X0140983Y0053928D01*
X0141411Y0053396D01*
X0141727Y0052790D01*
X0141919Y0052134D01*
X0141979Y0051453D01*
X0141900Y0050784D01*
X0141691Y0050142D01*
X0141361Y0049554D01*
X0140923Y0049041D01*
X0140392Y0048624D01*
X0139791Y0048318D01*
X0139142Y0048135D01*
X0138469Y0048083D01*
X0137809Y0048146D01*
X0137175Y0048336D01*
X0136589Y0048647D01*
X0136076Y0049066D01*
X0135654Y0049577D01*
X0135340Y0050161D01*
X0135146Y0050794D01*
X0135080Y0051453D01*
X0135140Y0052134D01*
X0135331Y0052790D01*
X0135647Y0053395D01*
X0136075Y0053928D01*
X0136599Y0054367D01*
X0137198Y0054695D01*
X0137850Y0054900D01*
X0138529Y0054973D01*
X0139208Y0054900D01*
X0139860Y0054695D01*
X0139874Y0054687D02*
X0137185Y0054687D01*
X0136387Y0054189D02*
X0140672Y0054189D01*
X0141174Y0053690D02*
X0135884Y0053690D01*
X0135541Y0053192D02*
X0141518Y0053192D01*
X0141756Y0052693D02*
X0135303Y0052693D01*
X0135158Y0052195D02*
X0141901Y0052195D01*
X0141958Y0051696D02*
X0135101Y0051696D01*
X0135106Y0051198D02*
X0141949Y0051198D01*
X0141872Y0050699D02*
X0135175Y0050699D01*
X0135328Y0050201D02*
X0141710Y0050201D01*
X0141444Y0049702D02*
X0135587Y0049702D01*
X0135962Y0049204D02*
X0141062Y0049204D01*
X0140496Y0048705D02*
X0136518Y0048705D01*
X0137606Y0048207D02*
X0139396Y0048207D01*
X0139252Y0044219D02*
X0137898Y0044219D01*
X0137912Y0044223D02*
X0138599Y0044294D01*
X0139269Y0044217D01*
X0139910Y0044011D01*
X0140499Y0043684D01*
X0141013Y0043248D01*
X0141431Y0042721D01*
X0141739Y0042122D01*
X0141924Y0041474D01*
X0141980Y0040803D01*
X0141907Y0040131D01*
X0141704Y0039487D01*
X0141380Y0038895D01*
X0140946Y0038377D01*
X0140419Y0037954D01*
X0139820Y0037642D01*
X0139172Y0037452D01*
X0138499Y0037393D01*
X0137838Y0037453D01*
X0137202Y0037641D01*
X0136614Y0037950D01*
X0136098Y0038367D01*
X0135674Y0038877D01*
X0135356Y0039460D01*
X0135159Y0040093D01*
X0135090Y0040753D01*
X0135154Y0041441D01*
X0135352Y0042104D01*
X0135675Y0042714D01*
X0136111Y0043251D01*
X0136643Y0043691D01*
X0137252Y0044020D01*
X0137912Y0044223D01*
X0136697Y0043720D02*
X0140434Y0043720D01*
X0141034Y0043222D02*
X0136088Y0043222D01*
X0135682Y0042723D02*
X0141430Y0042723D01*
X0141686Y0042225D02*
X0135416Y0042225D01*
X0135239Y0041726D02*
X0141852Y0041726D01*
X0141945Y0041228D02*
X0135134Y0041228D01*
X0135092Y0040729D02*
X0141972Y0040729D01*
X0141918Y0040231D02*
X0135145Y0040231D01*
X0135272Y0039732D02*
X0141781Y0039732D01*
X0141565Y0039234D02*
X0135480Y0039234D01*
X0135792Y0038735D02*
X0141246Y0038735D01*
X0140771Y0038237D02*
X0136260Y0038237D01*
X0137017Y0037738D02*
X0140006Y0037738D01*
X0139270Y0033522D02*
X0138590Y0033604D01*
X0137899Y0033530D01*
X0137237Y0033323D01*
X0136628Y0032991D01*
X0136095Y0032546D01*
X0135659Y0032006D01*
X0135337Y0031391D01*
X0135141Y0030725D01*
X0135079Y0030034D01*
X0135152Y0029371D01*
X0135353Y0028736D01*
X0135674Y0028151D01*
X0136103Y0027641D01*
X0136623Y0027224D01*
X0137215Y0026917D01*
X0137855Y0026731D01*
X0138519Y0026673D01*
X0139189Y0026726D01*
X0139835Y0026909D01*
X0140433Y0027214D01*
X0140960Y0027630D01*
X0141396Y0028141D01*
X0141724Y0028727D01*
X0141931Y0029366D01*
X0142009Y0030033D01*
X0141957Y0030717D01*
X0141772Y0031377D01*
X0141462Y0031988D01*
X0141039Y0032527D01*
X0140519Y0032973D01*
X0139921Y0033309D01*
X0139270Y0033522D01*
X0140024Y0033251D02*
X0137105Y0033251D01*
X0136342Y0032753D02*
X0140775Y0032753D01*
X0141253Y0032254D02*
X0135859Y0032254D01*
X0135528Y0031756D02*
X0141580Y0031756D01*
X0141805Y0031257D02*
X0135298Y0031257D01*
X0135151Y0030759D02*
X0141945Y0030759D01*
X0141992Y0030260D02*
X0135100Y0030260D01*
X0135109Y0029762D02*
X0141977Y0029762D01*
X0141898Y0029263D02*
X0135186Y0029263D01*
X0135344Y0028765D02*
X0141736Y0028765D01*
X0141466Y0028266D02*
X0135611Y0028266D01*
X0135997Y0027768D02*
X0141078Y0027768D01*
X0140503Y0027269D02*
X0136567Y0027269D01*
X0137717Y0026771D02*
X0139347Y0026771D01*
M02*
