%
M48
M72
T01C0.02362
T02C0.04000
T03C0.04700
T04C0.11811
%
T01
X203539Y85833
X213539Y85833
X198539Y95833
X198539Y115833
X206039Y115833
X198539Y130833
X193539Y155833
X183539Y165833
X198539Y170833
X188539Y180833
X178539Y218333
X198539Y218333
X203539Y223333
X226039Y233333
X246039Y223333
X263539Y220833
X276039Y233333
X293539Y233333
X293539Y200833
X296039Y165833
X273539Y140833
X291039Y135833
X291039Y83333
X246039Y63333
X228539Y65833
X208539Y60833
X208539Y40833
X143539Y115833
X143539Y125833
X143539Y140833
X128539Y140833
X128539Y130833
X128539Y155833
X126039Y170833
X126039Y178333
X126039Y198333
X126039Y218333
X128539Y235833
X138539Y240833
X143539Y255833
X133539Y265833
X128539Y255833
X118539Y260833
X118539Y245833
X153539Y265833
X211039Y195833
X223539Y195833
X233539Y195833
X211039Y178333
X256039Y273333
X253539Y300833
T02
X88539Y23333
X88539Y33333
X88539Y43333
X88539Y53333
X88539Y73333
X88539Y83333
X88539Y93333
X86039Y118333
X96039Y118333
X106039Y118333
X153039Y110833
X154039Y120833
X153039Y130833
X154039Y140833
X153039Y150833
X154039Y160833
X153039Y170833
X154039Y180833
X153039Y190833
X154039Y200833
X153039Y210833
X154039Y220833
X169039Y210833
X178539Y210333
X188539Y211333
X198539Y210333
X208539Y211333
X228039Y200833
X229039Y190833
X228039Y180833
X229039Y170833
X228039Y160833
X229039Y150833
X228039Y140833
X229039Y130833
X228039Y120833
X229039Y110833
X228039Y100833
X229039Y90833
X228039Y80833
X243039Y90833
X244039Y100833
X243039Y110833
X244039Y120833
X243039Y130833
X244039Y140833
X243039Y150833
X244039Y160833
X243039Y170833
X244039Y180833
X243039Y190833
X244039Y200833
X229039Y210833
X268039Y215833
X269039Y205833
X268039Y195833
X269039Y185833
X268039Y175833
X269039Y165833
X268039Y155833
X269039Y130833
X268039Y120833
X269039Y110833
X268039Y100833
X269039Y90833
X268039Y80833
X269039Y70833
X268039Y60833
X269039Y50833
X268039Y40833
X238539Y40333
X228539Y41333
X218539Y40333
X168039Y80833
X169039Y90833
X168039Y100833
X169039Y110833
X168039Y120833
X169039Y130833
X168039Y140833
X169039Y150833
X168039Y160833
X169039Y170833
X168039Y180833
X169039Y190833
X168039Y200833
X269039Y225833
X268039Y235833
X269039Y245833
X133539Y30133
X133539Y40833
X133539Y51533
T03
X93539Y265833
X93539Y245833
X93539Y225833
X93539Y205833
X93539Y185833
X91039Y163333
X91039Y143333
X316039Y295833
X316039Y275833
X321039Y245833
X321039Y225833
X321039Y205833
X321039Y145833
X321039Y125833
X321039Y100833
X321039Y80833
X321039Y60833
X178539Y313333
X158539Y313333
X138539Y313333
X316039Y315833
T04
X88539Y315833
X188539Y195833
X283539Y305833
X318539Y180833
X168539Y55833
X308539Y25833
M30
