G75*
%MOIN*%
%OFA0B0*%
%FSLAX25Y25*%
%IPPOS*%
%LPD*%
%AMOC8*
5,1,8,0,0,1.08239X$1,22.5*
%
%ADD10C,0.00000*%
%ADD11R,0.06693X0.07087*%
%ADD12C,0.07050*%
%ADD13R,0.06299X0.07087*%
%ADD14C,0.07400*%
%ADD15R,0.07400X0.07400*%
%ADD16C,0.06000*%
%ADD17R,0.07098X0.06299*%
%ADD18R,0.06299X0.07098*%
%ADD19C,0.02400*%
%ADD20C,0.05000*%
%ADD21C,0.04000*%
%ADD22R,0.03562X0.03562*%
%ADD23C,0.03562*%
%ADD24C,0.01600*%
%ADD25C,0.01500*%
D10*
X0073539Y0010833D02*
X0073539Y0330833D01*
X0337240Y0330833D01*
X0337240Y0010833D01*
X0073539Y0010833D01*
X0162633Y0055833D02*
X0162635Y0055986D01*
X0162641Y0056140D01*
X0162651Y0056293D01*
X0162665Y0056445D01*
X0162683Y0056598D01*
X0162705Y0056749D01*
X0162730Y0056900D01*
X0162760Y0057051D01*
X0162794Y0057201D01*
X0162831Y0057349D01*
X0162872Y0057497D01*
X0162917Y0057643D01*
X0162966Y0057789D01*
X0163019Y0057933D01*
X0163075Y0058075D01*
X0163135Y0058216D01*
X0163199Y0058356D01*
X0163266Y0058494D01*
X0163337Y0058630D01*
X0163412Y0058764D01*
X0163489Y0058896D01*
X0163571Y0059026D01*
X0163655Y0059154D01*
X0163743Y0059280D01*
X0163834Y0059403D01*
X0163928Y0059524D01*
X0164026Y0059642D01*
X0164126Y0059758D01*
X0164230Y0059871D01*
X0164336Y0059982D01*
X0164445Y0060090D01*
X0164557Y0060195D01*
X0164671Y0060296D01*
X0164789Y0060395D01*
X0164908Y0060491D01*
X0165030Y0060584D01*
X0165155Y0060673D01*
X0165282Y0060760D01*
X0165411Y0060842D01*
X0165542Y0060922D01*
X0165675Y0060998D01*
X0165810Y0061071D01*
X0165947Y0061140D01*
X0166086Y0061205D01*
X0166226Y0061267D01*
X0166368Y0061325D01*
X0166511Y0061380D01*
X0166656Y0061431D01*
X0166802Y0061478D01*
X0166949Y0061521D01*
X0167097Y0061560D01*
X0167246Y0061596D01*
X0167396Y0061627D01*
X0167547Y0061655D01*
X0167698Y0061679D01*
X0167851Y0061699D01*
X0168003Y0061715D01*
X0168156Y0061727D01*
X0168309Y0061735D01*
X0168462Y0061739D01*
X0168616Y0061739D01*
X0168769Y0061735D01*
X0168922Y0061727D01*
X0169075Y0061715D01*
X0169227Y0061699D01*
X0169380Y0061679D01*
X0169531Y0061655D01*
X0169682Y0061627D01*
X0169832Y0061596D01*
X0169981Y0061560D01*
X0170129Y0061521D01*
X0170276Y0061478D01*
X0170422Y0061431D01*
X0170567Y0061380D01*
X0170710Y0061325D01*
X0170852Y0061267D01*
X0170992Y0061205D01*
X0171131Y0061140D01*
X0171268Y0061071D01*
X0171403Y0060998D01*
X0171536Y0060922D01*
X0171667Y0060842D01*
X0171796Y0060760D01*
X0171923Y0060673D01*
X0172048Y0060584D01*
X0172170Y0060491D01*
X0172289Y0060395D01*
X0172407Y0060296D01*
X0172521Y0060195D01*
X0172633Y0060090D01*
X0172742Y0059982D01*
X0172848Y0059871D01*
X0172952Y0059758D01*
X0173052Y0059642D01*
X0173150Y0059524D01*
X0173244Y0059403D01*
X0173335Y0059280D01*
X0173423Y0059154D01*
X0173507Y0059026D01*
X0173589Y0058896D01*
X0173666Y0058764D01*
X0173741Y0058630D01*
X0173812Y0058494D01*
X0173879Y0058356D01*
X0173943Y0058216D01*
X0174003Y0058075D01*
X0174059Y0057933D01*
X0174112Y0057789D01*
X0174161Y0057643D01*
X0174206Y0057497D01*
X0174247Y0057349D01*
X0174284Y0057201D01*
X0174318Y0057051D01*
X0174348Y0056900D01*
X0174373Y0056749D01*
X0174395Y0056598D01*
X0174413Y0056445D01*
X0174427Y0056293D01*
X0174437Y0056140D01*
X0174443Y0055986D01*
X0174445Y0055833D01*
X0174443Y0055680D01*
X0174437Y0055526D01*
X0174427Y0055373D01*
X0174413Y0055221D01*
X0174395Y0055068D01*
X0174373Y0054917D01*
X0174348Y0054766D01*
X0174318Y0054615D01*
X0174284Y0054465D01*
X0174247Y0054317D01*
X0174206Y0054169D01*
X0174161Y0054023D01*
X0174112Y0053877D01*
X0174059Y0053733D01*
X0174003Y0053591D01*
X0173943Y0053450D01*
X0173879Y0053310D01*
X0173812Y0053172D01*
X0173741Y0053036D01*
X0173666Y0052902D01*
X0173589Y0052770D01*
X0173507Y0052640D01*
X0173423Y0052512D01*
X0173335Y0052386D01*
X0173244Y0052263D01*
X0173150Y0052142D01*
X0173052Y0052024D01*
X0172952Y0051908D01*
X0172848Y0051795D01*
X0172742Y0051684D01*
X0172633Y0051576D01*
X0172521Y0051471D01*
X0172407Y0051370D01*
X0172289Y0051271D01*
X0172170Y0051175D01*
X0172048Y0051082D01*
X0171923Y0050993D01*
X0171796Y0050906D01*
X0171667Y0050824D01*
X0171536Y0050744D01*
X0171403Y0050668D01*
X0171268Y0050595D01*
X0171131Y0050526D01*
X0170992Y0050461D01*
X0170852Y0050399D01*
X0170710Y0050341D01*
X0170567Y0050286D01*
X0170422Y0050235D01*
X0170276Y0050188D01*
X0170129Y0050145D01*
X0169981Y0050106D01*
X0169832Y0050070D01*
X0169682Y0050039D01*
X0169531Y0050011D01*
X0169380Y0049987D01*
X0169227Y0049967D01*
X0169075Y0049951D01*
X0168922Y0049939D01*
X0168769Y0049931D01*
X0168616Y0049927D01*
X0168462Y0049927D01*
X0168309Y0049931D01*
X0168156Y0049939D01*
X0168003Y0049951D01*
X0167851Y0049967D01*
X0167698Y0049987D01*
X0167547Y0050011D01*
X0167396Y0050039D01*
X0167246Y0050070D01*
X0167097Y0050106D01*
X0166949Y0050145D01*
X0166802Y0050188D01*
X0166656Y0050235D01*
X0166511Y0050286D01*
X0166368Y0050341D01*
X0166226Y0050399D01*
X0166086Y0050461D01*
X0165947Y0050526D01*
X0165810Y0050595D01*
X0165675Y0050668D01*
X0165542Y0050744D01*
X0165411Y0050824D01*
X0165282Y0050906D01*
X0165155Y0050993D01*
X0165030Y0051082D01*
X0164908Y0051175D01*
X0164789Y0051271D01*
X0164671Y0051370D01*
X0164557Y0051471D01*
X0164445Y0051576D01*
X0164336Y0051684D01*
X0164230Y0051795D01*
X0164126Y0051908D01*
X0164026Y0052024D01*
X0163928Y0052142D01*
X0163834Y0052263D01*
X0163743Y0052386D01*
X0163655Y0052512D01*
X0163571Y0052640D01*
X0163489Y0052770D01*
X0163412Y0052902D01*
X0163337Y0053036D01*
X0163266Y0053172D01*
X0163199Y0053310D01*
X0163135Y0053450D01*
X0163075Y0053591D01*
X0163019Y0053733D01*
X0162966Y0053877D01*
X0162917Y0054023D01*
X0162872Y0054169D01*
X0162831Y0054317D01*
X0162794Y0054465D01*
X0162760Y0054615D01*
X0162730Y0054766D01*
X0162705Y0054917D01*
X0162683Y0055068D01*
X0162665Y0055221D01*
X0162651Y0055373D01*
X0162641Y0055526D01*
X0162635Y0055680D01*
X0162633Y0055833D01*
X0182633Y0195833D02*
X0182635Y0195986D01*
X0182641Y0196140D01*
X0182651Y0196293D01*
X0182665Y0196445D01*
X0182683Y0196598D01*
X0182705Y0196749D01*
X0182730Y0196900D01*
X0182760Y0197051D01*
X0182794Y0197201D01*
X0182831Y0197349D01*
X0182872Y0197497D01*
X0182917Y0197643D01*
X0182966Y0197789D01*
X0183019Y0197933D01*
X0183075Y0198075D01*
X0183135Y0198216D01*
X0183199Y0198356D01*
X0183266Y0198494D01*
X0183337Y0198630D01*
X0183412Y0198764D01*
X0183489Y0198896D01*
X0183571Y0199026D01*
X0183655Y0199154D01*
X0183743Y0199280D01*
X0183834Y0199403D01*
X0183928Y0199524D01*
X0184026Y0199642D01*
X0184126Y0199758D01*
X0184230Y0199871D01*
X0184336Y0199982D01*
X0184445Y0200090D01*
X0184557Y0200195D01*
X0184671Y0200296D01*
X0184789Y0200395D01*
X0184908Y0200491D01*
X0185030Y0200584D01*
X0185155Y0200673D01*
X0185282Y0200760D01*
X0185411Y0200842D01*
X0185542Y0200922D01*
X0185675Y0200998D01*
X0185810Y0201071D01*
X0185947Y0201140D01*
X0186086Y0201205D01*
X0186226Y0201267D01*
X0186368Y0201325D01*
X0186511Y0201380D01*
X0186656Y0201431D01*
X0186802Y0201478D01*
X0186949Y0201521D01*
X0187097Y0201560D01*
X0187246Y0201596D01*
X0187396Y0201627D01*
X0187547Y0201655D01*
X0187698Y0201679D01*
X0187851Y0201699D01*
X0188003Y0201715D01*
X0188156Y0201727D01*
X0188309Y0201735D01*
X0188462Y0201739D01*
X0188616Y0201739D01*
X0188769Y0201735D01*
X0188922Y0201727D01*
X0189075Y0201715D01*
X0189227Y0201699D01*
X0189380Y0201679D01*
X0189531Y0201655D01*
X0189682Y0201627D01*
X0189832Y0201596D01*
X0189981Y0201560D01*
X0190129Y0201521D01*
X0190276Y0201478D01*
X0190422Y0201431D01*
X0190567Y0201380D01*
X0190710Y0201325D01*
X0190852Y0201267D01*
X0190992Y0201205D01*
X0191131Y0201140D01*
X0191268Y0201071D01*
X0191403Y0200998D01*
X0191536Y0200922D01*
X0191667Y0200842D01*
X0191796Y0200760D01*
X0191923Y0200673D01*
X0192048Y0200584D01*
X0192170Y0200491D01*
X0192289Y0200395D01*
X0192407Y0200296D01*
X0192521Y0200195D01*
X0192633Y0200090D01*
X0192742Y0199982D01*
X0192848Y0199871D01*
X0192952Y0199758D01*
X0193052Y0199642D01*
X0193150Y0199524D01*
X0193244Y0199403D01*
X0193335Y0199280D01*
X0193423Y0199154D01*
X0193507Y0199026D01*
X0193589Y0198896D01*
X0193666Y0198764D01*
X0193741Y0198630D01*
X0193812Y0198494D01*
X0193879Y0198356D01*
X0193943Y0198216D01*
X0194003Y0198075D01*
X0194059Y0197933D01*
X0194112Y0197789D01*
X0194161Y0197643D01*
X0194206Y0197497D01*
X0194247Y0197349D01*
X0194284Y0197201D01*
X0194318Y0197051D01*
X0194348Y0196900D01*
X0194373Y0196749D01*
X0194395Y0196598D01*
X0194413Y0196445D01*
X0194427Y0196293D01*
X0194437Y0196140D01*
X0194443Y0195986D01*
X0194445Y0195833D01*
X0194443Y0195680D01*
X0194437Y0195526D01*
X0194427Y0195373D01*
X0194413Y0195221D01*
X0194395Y0195068D01*
X0194373Y0194917D01*
X0194348Y0194766D01*
X0194318Y0194615D01*
X0194284Y0194465D01*
X0194247Y0194317D01*
X0194206Y0194169D01*
X0194161Y0194023D01*
X0194112Y0193877D01*
X0194059Y0193733D01*
X0194003Y0193591D01*
X0193943Y0193450D01*
X0193879Y0193310D01*
X0193812Y0193172D01*
X0193741Y0193036D01*
X0193666Y0192902D01*
X0193589Y0192770D01*
X0193507Y0192640D01*
X0193423Y0192512D01*
X0193335Y0192386D01*
X0193244Y0192263D01*
X0193150Y0192142D01*
X0193052Y0192024D01*
X0192952Y0191908D01*
X0192848Y0191795D01*
X0192742Y0191684D01*
X0192633Y0191576D01*
X0192521Y0191471D01*
X0192407Y0191370D01*
X0192289Y0191271D01*
X0192170Y0191175D01*
X0192048Y0191082D01*
X0191923Y0190993D01*
X0191796Y0190906D01*
X0191667Y0190824D01*
X0191536Y0190744D01*
X0191403Y0190668D01*
X0191268Y0190595D01*
X0191131Y0190526D01*
X0190992Y0190461D01*
X0190852Y0190399D01*
X0190710Y0190341D01*
X0190567Y0190286D01*
X0190422Y0190235D01*
X0190276Y0190188D01*
X0190129Y0190145D01*
X0189981Y0190106D01*
X0189832Y0190070D01*
X0189682Y0190039D01*
X0189531Y0190011D01*
X0189380Y0189987D01*
X0189227Y0189967D01*
X0189075Y0189951D01*
X0188922Y0189939D01*
X0188769Y0189931D01*
X0188616Y0189927D01*
X0188462Y0189927D01*
X0188309Y0189931D01*
X0188156Y0189939D01*
X0188003Y0189951D01*
X0187851Y0189967D01*
X0187698Y0189987D01*
X0187547Y0190011D01*
X0187396Y0190039D01*
X0187246Y0190070D01*
X0187097Y0190106D01*
X0186949Y0190145D01*
X0186802Y0190188D01*
X0186656Y0190235D01*
X0186511Y0190286D01*
X0186368Y0190341D01*
X0186226Y0190399D01*
X0186086Y0190461D01*
X0185947Y0190526D01*
X0185810Y0190595D01*
X0185675Y0190668D01*
X0185542Y0190744D01*
X0185411Y0190824D01*
X0185282Y0190906D01*
X0185155Y0190993D01*
X0185030Y0191082D01*
X0184908Y0191175D01*
X0184789Y0191271D01*
X0184671Y0191370D01*
X0184557Y0191471D01*
X0184445Y0191576D01*
X0184336Y0191684D01*
X0184230Y0191795D01*
X0184126Y0191908D01*
X0184026Y0192024D01*
X0183928Y0192142D01*
X0183834Y0192263D01*
X0183743Y0192386D01*
X0183655Y0192512D01*
X0183571Y0192640D01*
X0183489Y0192770D01*
X0183412Y0192902D01*
X0183337Y0193036D01*
X0183266Y0193172D01*
X0183199Y0193310D01*
X0183135Y0193450D01*
X0183075Y0193591D01*
X0183019Y0193733D01*
X0182966Y0193877D01*
X0182917Y0194023D01*
X0182872Y0194169D01*
X0182831Y0194317D01*
X0182794Y0194465D01*
X0182760Y0194615D01*
X0182730Y0194766D01*
X0182705Y0194917D01*
X0182683Y0195068D01*
X0182665Y0195221D01*
X0182651Y0195373D01*
X0182641Y0195526D01*
X0182635Y0195680D01*
X0182633Y0195833D01*
X0277633Y0305833D02*
X0277635Y0305986D01*
X0277641Y0306140D01*
X0277651Y0306293D01*
X0277665Y0306445D01*
X0277683Y0306598D01*
X0277705Y0306749D01*
X0277730Y0306900D01*
X0277760Y0307051D01*
X0277794Y0307201D01*
X0277831Y0307349D01*
X0277872Y0307497D01*
X0277917Y0307643D01*
X0277966Y0307789D01*
X0278019Y0307933D01*
X0278075Y0308075D01*
X0278135Y0308216D01*
X0278199Y0308356D01*
X0278266Y0308494D01*
X0278337Y0308630D01*
X0278412Y0308764D01*
X0278489Y0308896D01*
X0278571Y0309026D01*
X0278655Y0309154D01*
X0278743Y0309280D01*
X0278834Y0309403D01*
X0278928Y0309524D01*
X0279026Y0309642D01*
X0279126Y0309758D01*
X0279230Y0309871D01*
X0279336Y0309982D01*
X0279445Y0310090D01*
X0279557Y0310195D01*
X0279671Y0310296D01*
X0279789Y0310395D01*
X0279908Y0310491D01*
X0280030Y0310584D01*
X0280155Y0310673D01*
X0280282Y0310760D01*
X0280411Y0310842D01*
X0280542Y0310922D01*
X0280675Y0310998D01*
X0280810Y0311071D01*
X0280947Y0311140D01*
X0281086Y0311205D01*
X0281226Y0311267D01*
X0281368Y0311325D01*
X0281511Y0311380D01*
X0281656Y0311431D01*
X0281802Y0311478D01*
X0281949Y0311521D01*
X0282097Y0311560D01*
X0282246Y0311596D01*
X0282396Y0311627D01*
X0282547Y0311655D01*
X0282698Y0311679D01*
X0282851Y0311699D01*
X0283003Y0311715D01*
X0283156Y0311727D01*
X0283309Y0311735D01*
X0283462Y0311739D01*
X0283616Y0311739D01*
X0283769Y0311735D01*
X0283922Y0311727D01*
X0284075Y0311715D01*
X0284227Y0311699D01*
X0284380Y0311679D01*
X0284531Y0311655D01*
X0284682Y0311627D01*
X0284832Y0311596D01*
X0284981Y0311560D01*
X0285129Y0311521D01*
X0285276Y0311478D01*
X0285422Y0311431D01*
X0285567Y0311380D01*
X0285710Y0311325D01*
X0285852Y0311267D01*
X0285992Y0311205D01*
X0286131Y0311140D01*
X0286268Y0311071D01*
X0286403Y0310998D01*
X0286536Y0310922D01*
X0286667Y0310842D01*
X0286796Y0310760D01*
X0286923Y0310673D01*
X0287048Y0310584D01*
X0287170Y0310491D01*
X0287289Y0310395D01*
X0287407Y0310296D01*
X0287521Y0310195D01*
X0287633Y0310090D01*
X0287742Y0309982D01*
X0287848Y0309871D01*
X0287952Y0309758D01*
X0288052Y0309642D01*
X0288150Y0309524D01*
X0288244Y0309403D01*
X0288335Y0309280D01*
X0288423Y0309154D01*
X0288507Y0309026D01*
X0288589Y0308896D01*
X0288666Y0308764D01*
X0288741Y0308630D01*
X0288812Y0308494D01*
X0288879Y0308356D01*
X0288943Y0308216D01*
X0289003Y0308075D01*
X0289059Y0307933D01*
X0289112Y0307789D01*
X0289161Y0307643D01*
X0289206Y0307497D01*
X0289247Y0307349D01*
X0289284Y0307201D01*
X0289318Y0307051D01*
X0289348Y0306900D01*
X0289373Y0306749D01*
X0289395Y0306598D01*
X0289413Y0306445D01*
X0289427Y0306293D01*
X0289437Y0306140D01*
X0289443Y0305986D01*
X0289445Y0305833D01*
X0289443Y0305680D01*
X0289437Y0305526D01*
X0289427Y0305373D01*
X0289413Y0305221D01*
X0289395Y0305068D01*
X0289373Y0304917D01*
X0289348Y0304766D01*
X0289318Y0304615D01*
X0289284Y0304465D01*
X0289247Y0304317D01*
X0289206Y0304169D01*
X0289161Y0304023D01*
X0289112Y0303877D01*
X0289059Y0303733D01*
X0289003Y0303591D01*
X0288943Y0303450D01*
X0288879Y0303310D01*
X0288812Y0303172D01*
X0288741Y0303036D01*
X0288666Y0302902D01*
X0288589Y0302770D01*
X0288507Y0302640D01*
X0288423Y0302512D01*
X0288335Y0302386D01*
X0288244Y0302263D01*
X0288150Y0302142D01*
X0288052Y0302024D01*
X0287952Y0301908D01*
X0287848Y0301795D01*
X0287742Y0301684D01*
X0287633Y0301576D01*
X0287521Y0301471D01*
X0287407Y0301370D01*
X0287289Y0301271D01*
X0287170Y0301175D01*
X0287048Y0301082D01*
X0286923Y0300993D01*
X0286796Y0300906D01*
X0286667Y0300824D01*
X0286536Y0300744D01*
X0286403Y0300668D01*
X0286268Y0300595D01*
X0286131Y0300526D01*
X0285992Y0300461D01*
X0285852Y0300399D01*
X0285710Y0300341D01*
X0285567Y0300286D01*
X0285422Y0300235D01*
X0285276Y0300188D01*
X0285129Y0300145D01*
X0284981Y0300106D01*
X0284832Y0300070D01*
X0284682Y0300039D01*
X0284531Y0300011D01*
X0284380Y0299987D01*
X0284227Y0299967D01*
X0284075Y0299951D01*
X0283922Y0299939D01*
X0283769Y0299931D01*
X0283616Y0299927D01*
X0283462Y0299927D01*
X0283309Y0299931D01*
X0283156Y0299939D01*
X0283003Y0299951D01*
X0282851Y0299967D01*
X0282698Y0299987D01*
X0282547Y0300011D01*
X0282396Y0300039D01*
X0282246Y0300070D01*
X0282097Y0300106D01*
X0281949Y0300145D01*
X0281802Y0300188D01*
X0281656Y0300235D01*
X0281511Y0300286D01*
X0281368Y0300341D01*
X0281226Y0300399D01*
X0281086Y0300461D01*
X0280947Y0300526D01*
X0280810Y0300595D01*
X0280675Y0300668D01*
X0280542Y0300744D01*
X0280411Y0300824D01*
X0280282Y0300906D01*
X0280155Y0300993D01*
X0280030Y0301082D01*
X0279908Y0301175D01*
X0279789Y0301271D01*
X0279671Y0301370D01*
X0279557Y0301471D01*
X0279445Y0301576D01*
X0279336Y0301684D01*
X0279230Y0301795D01*
X0279126Y0301908D01*
X0279026Y0302024D01*
X0278928Y0302142D01*
X0278834Y0302263D01*
X0278743Y0302386D01*
X0278655Y0302512D01*
X0278571Y0302640D01*
X0278489Y0302770D01*
X0278412Y0302902D01*
X0278337Y0303036D01*
X0278266Y0303172D01*
X0278199Y0303310D01*
X0278135Y0303450D01*
X0278075Y0303591D01*
X0278019Y0303733D01*
X0277966Y0303877D01*
X0277917Y0304023D01*
X0277872Y0304169D01*
X0277831Y0304317D01*
X0277794Y0304465D01*
X0277760Y0304615D01*
X0277730Y0304766D01*
X0277705Y0304917D01*
X0277683Y0305068D01*
X0277665Y0305221D01*
X0277651Y0305373D01*
X0277641Y0305526D01*
X0277635Y0305680D01*
X0277633Y0305833D01*
X0312633Y0180833D02*
X0312635Y0180986D01*
X0312641Y0181140D01*
X0312651Y0181293D01*
X0312665Y0181445D01*
X0312683Y0181598D01*
X0312705Y0181749D01*
X0312730Y0181900D01*
X0312760Y0182051D01*
X0312794Y0182201D01*
X0312831Y0182349D01*
X0312872Y0182497D01*
X0312917Y0182643D01*
X0312966Y0182789D01*
X0313019Y0182933D01*
X0313075Y0183075D01*
X0313135Y0183216D01*
X0313199Y0183356D01*
X0313266Y0183494D01*
X0313337Y0183630D01*
X0313412Y0183764D01*
X0313489Y0183896D01*
X0313571Y0184026D01*
X0313655Y0184154D01*
X0313743Y0184280D01*
X0313834Y0184403D01*
X0313928Y0184524D01*
X0314026Y0184642D01*
X0314126Y0184758D01*
X0314230Y0184871D01*
X0314336Y0184982D01*
X0314445Y0185090D01*
X0314557Y0185195D01*
X0314671Y0185296D01*
X0314789Y0185395D01*
X0314908Y0185491D01*
X0315030Y0185584D01*
X0315155Y0185673D01*
X0315282Y0185760D01*
X0315411Y0185842D01*
X0315542Y0185922D01*
X0315675Y0185998D01*
X0315810Y0186071D01*
X0315947Y0186140D01*
X0316086Y0186205D01*
X0316226Y0186267D01*
X0316368Y0186325D01*
X0316511Y0186380D01*
X0316656Y0186431D01*
X0316802Y0186478D01*
X0316949Y0186521D01*
X0317097Y0186560D01*
X0317246Y0186596D01*
X0317396Y0186627D01*
X0317547Y0186655D01*
X0317698Y0186679D01*
X0317851Y0186699D01*
X0318003Y0186715D01*
X0318156Y0186727D01*
X0318309Y0186735D01*
X0318462Y0186739D01*
X0318616Y0186739D01*
X0318769Y0186735D01*
X0318922Y0186727D01*
X0319075Y0186715D01*
X0319227Y0186699D01*
X0319380Y0186679D01*
X0319531Y0186655D01*
X0319682Y0186627D01*
X0319832Y0186596D01*
X0319981Y0186560D01*
X0320129Y0186521D01*
X0320276Y0186478D01*
X0320422Y0186431D01*
X0320567Y0186380D01*
X0320710Y0186325D01*
X0320852Y0186267D01*
X0320992Y0186205D01*
X0321131Y0186140D01*
X0321268Y0186071D01*
X0321403Y0185998D01*
X0321536Y0185922D01*
X0321667Y0185842D01*
X0321796Y0185760D01*
X0321923Y0185673D01*
X0322048Y0185584D01*
X0322170Y0185491D01*
X0322289Y0185395D01*
X0322407Y0185296D01*
X0322521Y0185195D01*
X0322633Y0185090D01*
X0322742Y0184982D01*
X0322848Y0184871D01*
X0322952Y0184758D01*
X0323052Y0184642D01*
X0323150Y0184524D01*
X0323244Y0184403D01*
X0323335Y0184280D01*
X0323423Y0184154D01*
X0323507Y0184026D01*
X0323589Y0183896D01*
X0323666Y0183764D01*
X0323741Y0183630D01*
X0323812Y0183494D01*
X0323879Y0183356D01*
X0323943Y0183216D01*
X0324003Y0183075D01*
X0324059Y0182933D01*
X0324112Y0182789D01*
X0324161Y0182643D01*
X0324206Y0182497D01*
X0324247Y0182349D01*
X0324284Y0182201D01*
X0324318Y0182051D01*
X0324348Y0181900D01*
X0324373Y0181749D01*
X0324395Y0181598D01*
X0324413Y0181445D01*
X0324427Y0181293D01*
X0324437Y0181140D01*
X0324443Y0180986D01*
X0324445Y0180833D01*
X0324443Y0180680D01*
X0324437Y0180526D01*
X0324427Y0180373D01*
X0324413Y0180221D01*
X0324395Y0180068D01*
X0324373Y0179917D01*
X0324348Y0179766D01*
X0324318Y0179615D01*
X0324284Y0179465D01*
X0324247Y0179317D01*
X0324206Y0179169D01*
X0324161Y0179023D01*
X0324112Y0178877D01*
X0324059Y0178733D01*
X0324003Y0178591D01*
X0323943Y0178450D01*
X0323879Y0178310D01*
X0323812Y0178172D01*
X0323741Y0178036D01*
X0323666Y0177902D01*
X0323589Y0177770D01*
X0323507Y0177640D01*
X0323423Y0177512D01*
X0323335Y0177386D01*
X0323244Y0177263D01*
X0323150Y0177142D01*
X0323052Y0177024D01*
X0322952Y0176908D01*
X0322848Y0176795D01*
X0322742Y0176684D01*
X0322633Y0176576D01*
X0322521Y0176471D01*
X0322407Y0176370D01*
X0322289Y0176271D01*
X0322170Y0176175D01*
X0322048Y0176082D01*
X0321923Y0175993D01*
X0321796Y0175906D01*
X0321667Y0175824D01*
X0321536Y0175744D01*
X0321403Y0175668D01*
X0321268Y0175595D01*
X0321131Y0175526D01*
X0320992Y0175461D01*
X0320852Y0175399D01*
X0320710Y0175341D01*
X0320567Y0175286D01*
X0320422Y0175235D01*
X0320276Y0175188D01*
X0320129Y0175145D01*
X0319981Y0175106D01*
X0319832Y0175070D01*
X0319682Y0175039D01*
X0319531Y0175011D01*
X0319380Y0174987D01*
X0319227Y0174967D01*
X0319075Y0174951D01*
X0318922Y0174939D01*
X0318769Y0174931D01*
X0318616Y0174927D01*
X0318462Y0174927D01*
X0318309Y0174931D01*
X0318156Y0174939D01*
X0318003Y0174951D01*
X0317851Y0174967D01*
X0317698Y0174987D01*
X0317547Y0175011D01*
X0317396Y0175039D01*
X0317246Y0175070D01*
X0317097Y0175106D01*
X0316949Y0175145D01*
X0316802Y0175188D01*
X0316656Y0175235D01*
X0316511Y0175286D01*
X0316368Y0175341D01*
X0316226Y0175399D01*
X0316086Y0175461D01*
X0315947Y0175526D01*
X0315810Y0175595D01*
X0315675Y0175668D01*
X0315542Y0175744D01*
X0315411Y0175824D01*
X0315282Y0175906D01*
X0315155Y0175993D01*
X0315030Y0176082D01*
X0314908Y0176175D01*
X0314789Y0176271D01*
X0314671Y0176370D01*
X0314557Y0176471D01*
X0314445Y0176576D01*
X0314336Y0176684D01*
X0314230Y0176795D01*
X0314126Y0176908D01*
X0314026Y0177024D01*
X0313928Y0177142D01*
X0313834Y0177263D01*
X0313743Y0177386D01*
X0313655Y0177512D01*
X0313571Y0177640D01*
X0313489Y0177770D01*
X0313412Y0177902D01*
X0313337Y0178036D01*
X0313266Y0178172D01*
X0313199Y0178310D01*
X0313135Y0178450D01*
X0313075Y0178591D01*
X0313019Y0178733D01*
X0312966Y0178877D01*
X0312917Y0179023D01*
X0312872Y0179169D01*
X0312831Y0179317D01*
X0312794Y0179465D01*
X0312760Y0179615D01*
X0312730Y0179766D01*
X0312705Y0179917D01*
X0312683Y0180068D01*
X0312665Y0180221D01*
X0312651Y0180373D01*
X0312641Y0180526D01*
X0312635Y0180680D01*
X0312633Y0180833D01*
X0302633Y0025833D02*
X0302635Y0025986D01*
X0302641Y0026140D01*
X0302651Y0026293D01*
X0302665Y0026445D01*
X0302683Y0026598D01*
X0302705Y0026749D01*
X0302730Y0026900D01*
X0302760Y0027051D01*
X0302794Y0027201D01*
X0302831Y0027349D01*
X0302872Y0027497D01*
X0302917Y0027643D01*
X0302966Y0027789D01*
X0303019Y0027933D01*
X0303075Y0028075D01*
X0303135Y0028216D01*
X0303199Y0028356D01*
X0303266Y0028494D01*
X0303337Y0028630D01*
X0303412Y0028764D01*
X0303489Y0028896D01*
X0303571Y0029026D01*
X0303655Y0029154D01*
X0303743Y0029280D01*
X0303834Y0029403D01*
X0303928Y0029524D01*
X0304026Y0029642D01*
X0304126Y0029758D01*
X0304230Y0029871D01*
X0304336Y0029982D01*
X0304445Y0030090D01*
X0304557Y0030195D01*
X0304671Y0030296D01*
X0304789Y0030395D01*
X0304908Y0030491D01*
X0305030Y0030584D01*
X0305155Y0030673D01*
X0305282Y0030760D01*
X0305411Y0030842D01*
X0305542Y0030922D01*
X0305675Y0030998D01*
X0305810Y0031071D01*
X0305947Y0031140D01*
X0306086Y0031205D01*
X0306226Y0031267D01*
X0306368Y0031325D01*
X0306511Y0031380D01*
X0306656Y0031431D01*
X0306802Y0031478D01*
X0306949Y0031521D01*
X0307097Y0031560D01*
X0307246Y0031596D01*
X0307396Y0031627D01*
X0307547Y0031655D01*
X0307698Y0031679D01*
X0307851Y0031699D01*
X0308003Y0031715D01*
X0308156Y0031727D01*
X0308309Y0031735D01*
X0308462Y0031739D01*
X0308616Y0031739D01*
X0308769Y0031735D01*
X0308922Y0031727D01*
X0309075Y0031715D01*
X0309227Y0031699D01*
X0309380Y0031679D01*
X0309531Y0031655D01*
X0309682Y0031627D01*
X0309832Y0031596D01*
X0309981Y0031560D01*
X0310129Y0031521D01*
X0310276Y0031478D01*
X0310422Y0031431D01*
X0310567Y0031380D01*
X0310710Y0031325D01*
X0310852Y0031267D01*
X0310992Y0031205D01*
X0311131Y0031140D01*
X0311268Y0031071D01*
X0311403Y0030998D01*
X0311536Y0030922D01*
X0311667Y0030842D01*
X0311796Y0030760D01*
X0311923Y0030673D01*
X0312048Y0030584D01*
X0312170Y0030491D01*
X0312289Y0030395D01*
X0312407Y0030296D01*
X0312521Y0030195D01*
X0312633Y0030090D01*
X0312742Y0029982D01*
X0312848Y0029871D01*
X0312952Y0029758D01*
X0313052Y0029642D01*
X0313150Y0029524D01*
X0313244Y0029403D01*
X0313335Y0029280D01*
X0313423Y0029154D01*
X0313507Y0029026D01*
X0313589Y0028896D01*
X0313666Y0028764D01*
X0313741Y0028630D01*
X0313812Y0028494D01*
X0313879Y0028356D01*
X0313943Y0028216D01*
X0314003Y0028075D01*
X0314059Y0027933D01*
X0314112Y0027789D01*
X0314161Y0027643D01*
X0314206Y0027497D01*
X0314247Y0027349D01*
X0314284Y0027201D01*
X0314318Y0027051D01*
X0314348Y0026900D01*
X0314373Y0026749D01*
X0314395Y0026598D01*
X0314413Y0026445D01*
X0314427Y0026293D01*
X0314437Y0026140D01*
X0314443Y0025986D01*
X0314445Y0025833D01*
X0314443Y0025680D01*
X0314437Y0025526D01*
X0314427Y0025373D01*
X0314413Y0025221D01*
X0314395Y0025068D01*
X0314373Y0024917D01*
X0314348Y0024766D01*
X0314318Y0024615D01*
X0314284Y0024465D01*
X0314247Y0024317D01*
X0314206Y0024169D01*
X0314161Y0024023D01*
X0314112Y0023877D01*
X0314059Y0023733D01*
X0314003Y0023591D01*
X0313943Y0023450D01*
X0313879Y0023310D01*
X0313812Y0023172D01*
X0313741Y0023036D01*
X0313666Y0022902D01*
X0313589Y0022770D01*
X0313507Y0022640D01*
X0313423Y0022512D01*
X0313335Y0022386D01*
X0313244Y0022263D01*
X0313150Y0022142D01*
X0313052Y0022024D01*
X0312952Y0021908D01*
X0312848Y0021795D01*
X0312742Y0021684D01*
X0312633Y0021576D01*
X0312521Y0021471D01*
X0312407Y0021370D01*
X0312289Y0021271D01*
X0312170Y0021175D01*
X0312048Y0021082D01*
X0311923Y0020993D01*
X0311796Y0020906D01*
X0311667Y0020824D01*
X0311536Y0020744D01*
X0311403Y0020668D01*
X0311268Y0020595D01*
X0311131Y0020526D01*
X0310992Y0020461D01*
X0310852Y0020399D01*
X0310710Y0020341D01*
X0310567Y0020286D01*
X0310422Y0020235D01*
X0310276Y0020188D01*
X0310129Y0020145D01*
X0309981Y0020106D01*
X0309832Y0020070D01*
X0309682Y0020039D01*
X0309531Y0020011D01*
X0309380Y0019987D01*
X0309227Y0019967D01*
X0309075Y0019951D01*
X0308922Y0019939D01*
X0308769Y0019931D01*
X0308616Y0019927D01*
X0308462Y0019927D01*
X0308309Y0019931D01*
X0308156Y0019939D01*
X0308003Y0019951D01*
X0307851Y0019967D01*
X0307698Y0019987D01*
X0307547Y0020011D01*
X0307396Y0020039D01*
X0307246Y0020070D01*
X0307097Y0020106D01*
X0306949Y0020145D01*
X0306802Y0020188D01*
X0306656Y0020235D01*
X0306511Y0020286D01*
X0306368Y0020341D01*
X0306226Y0020399D01*
X0306086Y0020461D01*
X0305947Y0020526D01*
X0305810Y0020595D01*
X0305675Y0020668D01*
X0305542Y0020744D01*
X0305411Y0020824D01*
X0305282Y0020906D01*
X0305155Y0020993D01*
X0305030Y0021082D01*
X0304908Y0021175D01*
X0304789Y0021271D01*
X0304671Y0021370D01*
X0304557Y0021471D01*
X0304445Y0021576D01*
X0304336Y0021684D01*
X0304230Y0021795D01*
X0304126Y0021908D01*
X0304026Y0022024D01*
X0303928Y0022142D01*
X0303834Y0022263D01*
X0303743Y0022386D01*
X0303655Y0022512D01*
X0303571Y0022640D01*
X0303489Y0022770D01*
X0303412Y0022902D01*
X0303337Y0023036D01*
X0303266Y0023172D01*
X0303199Y0023310D01*
X0303135Y0023450D01*
X0303075Y0023591D01*
X0303019Y0023733D01*
X0302966Y0023877D01*
X0302917Y0024023D01*
X0302872Y0024169D01*
X0302831Y0024317D01*
X0302794Y0024465D01*
X0302760Y0024615D01*
X0302730Y0024766D01*
X0302705Y0024917D01*
X0302683Y0025068D01*
X0302665Y0025221D01*
X0302651Y0025373D01*
X0302641Y0025526D01*
X0302635Y0025680D01*
X0302633Y0025833D01*
X0082633Y0315833D02*
X0082635Y0315986D01*
X0082641Y0316140D01*
X0082651Y0316293D01*
X0082665Y0316445D01*
X0082683Y0316598D01*
X0082705Y0316749D01*
X0082730Y0316900D01*
X0082760Y0317051D01*
X0082794Y0317201D01*
X0082831Y0317349D01*
X0082872Y0317497D01*
X0082917Y0317643D01*
X0082966Y0317789D01*
X0083019Y0317933D01*
X0083075Y0318075D01*
X0083135Y0318216D01*
X0083199Y0318356D01*
X0083266Y0318494D01*
X0083337Y0318630D01*
X0083412Y0318764D01*
X0083489Y0318896D01*
X0083571Y0319026D01*
X0083655Y0319154D01*
X0083743Y0319280D01*
X0083834Y0319403D01*
X0083928Y0319524D01*
X0084026Y0319642D01*
X0084126Y0319758D01*
X0084230Y0319871D01*
X0084336Y0319982D01*
X0084445Y0320090D01*
X0084557Y0320195D01*
X0084671Y0320296D01*
X0084789Y0320395D01*
X0084908Y0320491D01*
X0085030Y0320584D01*
X0085155Y0320673D01*
X0085282Y0320760D01*
X0085411Y0320842D01*
X0085542Y0320922D01*
X0085675Y0320998D01*
X0085810Y0321071D01*
X0085947Y0321140D01*
X0086086Y0321205D01*
X0086226Y0321267D01*
X0086368Y0321325D01*
X0086511Y0321380D01*
X0086656Y0321431D01*
X0086802Y0321478D01*
X0086949Y0321521D01*
X0087097Y0321560D01*
X0087246Y0321596D01*
X0087396Y0321627D01*
X0087547Y0321655D01*
X0087698Y0321679D01*
X0087851Y0321699D01*
X0088003Y0321715D01*
X0088156Y0321727D01*
X0088309Y0321735D01*
X0088462Y0321739D01*
X0088616Y0321739D01*
X0088769Y0321735D01*
X0088922Y0321727D01*
X0089075Y0321715D01*
X0089227Y0321699D01*
X0089380Y0321679D01*
X0089531Y0321655D01*
X0089682Y0321627D01*
X0089832Y0321596D01*
X0089981Y0321560D01*
X0090129Y0321521D01*
X0090276Y0321478D01*
X0090422Y0321431D01*
X0090567Y0321380D01*
X0090710Y0321325D01*
X0090852Y0321267D01*
X0090992Y0321205D01*
X0091131Y0321140D01*
X0091268Y0321071D01*
X0091403Y0320998D01*
X0091536Y0320922D01*
X0091667Y0320842D01*
X0091796Y0320760D01*
X0091923Y0320673D01*
X0092048Y0320584D01*
X0092170Y0320491D01*
X0092289Y0320395D01*
X0092407Y0320296D01*
X0092521Y0320195D01*
X0092633Y0320090D01*
X0092742Y0319982D01*
X0092848Y0319871D01*
X0092952Y0319758D01*
X0093052Y0319642D01*
X0093150Y0319524D01*
X0093244Y0319403D01*
X0093335Y0319280D01*
X0093423Y0319154D01*
X0093507Y0319026D01*
X0093589Y0318896D01*
X0093666Y0318764D01*
X0093741Y0318630D01*
X0093812Y0318494D01*
X0093879Y0318356D01*
X0093943Y0318216D01*
X0094003Y0318075D01*
X0094059Y0317933D01*
X0094112Y0317789D01*
X0094161Y0317643D01*
X0094206Y0317497D01*
X0094247Y0317349D01*
X0094284Y0317201D01*
X0094318Y0317051D01*
X0094348Y0316900D01*
X0094373Y0316749D01*
X0094395Y0316598D01*
X0094413Y0316445D01*
X0094427Y0316293D01*
X0094437Y0316140D01*
X0094443Y0315986D01*
X0094445Y0315833D01*
X0094443Y0315680D01*
X0094437Y0315526D01*
X0094427Y0315373D01*
X0094413Y0315221D01*
X0094395Y0315068D01*
X0094373Y0314917D01*
X0094348Y0314766D01*
X0094318Y0314615D01*
X0094284Y0314465D01*
X0094247Y0314317D01*
X0094206Y0314169D01*
X0094161Y0314023D01*
X0094112Y0313877D01*
X0094059Y0313733D01*
X0094003Y0313591D01*
X0093943Y0313450D01*
X0093879Y0313310D01*
X0093812Y0313172D01*
X0093741Y0313036D01*
X0093666Y0312902D01*
X0093589Y0312770D01*
X0093507Y0312640D01*
X0093423Y0312512D01*
X0093335Y0312386D01*
X0093244Y0312263D01*
X0093150Y0312142D01*
X0093052Y0312024D01*
X0092952Y0311908D01*
X0092848Y0311795D01*
X0092742Y0311684D01*
X0092633Y0311576D01*
X0092521Y0311471D01*
X0092407Y0311370D01*
X0092289Y0311271D01*
X0092170Y0311175D01*
X0092048Y0311082D01*
X0091923Y0310993D01*
X0091796Y0310906D01*
X0091667Y0310824D01*
X0091536Y0310744D01*
X0091403Y0310668D01*
X0091268Y0310595D01*
X0091131Y0310526D01*
X0090992Y0310461D01*
X0090852Y0310399D01*
X0090710Y0310341D01*
X0090567Y0310286D01*
X0090422Y0310235D01*
X0090276Y0310188D01*
X0090129Y0310145D01*
X0089981Y0310106D01*
X0089832Y0310070D01*
X0089682Y0310039D01*
X0089531Y0310011D01*
X0089380Y0309987D01*
X0089227Y0309967D01*
X0089075Y0309951D01*
X0088922Y0309939D01*
X0088769Y0309931D01*
X0088616Y0309927D01*
X0088462Y0309927D01*
X0088309Y0309931D01*
X0088156Y0309939D01*
X0088003Y0309951D01*
X0087851Y0309967D01*
X0087698Y0309987D01*
X0087547Y0310011D01*
X0087396Y0310039D01*
X0087246Y0310070D01*
X0087097Y0310106D01*
X0086949Y0310145D01*
X0086802Y0310188D01*
X0086656Y0310235D01*
X0086511Y0310286D01*
X0086368Y0310341D01*
X0086226Y0310399D01*
X0086086Y0310461D01*
X0085947Y0310526D01*
X0085810Y0310595D01*
X0085675Y0310668D01*
X0085542Y0310744D01*
X0085411Y0310824D01*
X0085282Y0310906D01*
X0085155Y0310993D01*
X0085030Y0311082D01*
X0084908Y0311175D01*
X0084789Y0311271D01*
X0084671Y0311370D01*
X0084557Y0311471D01*
X0084445Y0311576D01*
X0084336Y0311684D01*
X0084230Y0311795D01*
X0084126Y0311908D01*
X0084026Y0312024D01*
X0083928Y0312142D01*
X0083834Y0312263D01*
X0083743Y0312386D01*
X0083655Y0312512D01*
X0083571Y0312640D01*
X0083489Y0312770D01*
X0083412Y0312902D01*
X0083337Y0313036D01*
X0083266Y0313172D01*
X0083199Y0313310D01*
X0083135Y0313450D01*
X0083075Y0313591D01*
X0083019Y0313733D01*
X0082966Y0313877D01*
X0082917Y0314023D01*
X0082872Y0314169D01*
X0082831Y0314317D01*
X0082794Y0314465D01*
X0082760Y0314615D01*
X0082730Y0314766D01*
X0082705Y0314917D01*
X0082683Y0315068D01*
X0082665Y0315221D01*
X0082651Y0315373D01*
X0082641Y0315526D01*
X0082635Y0315680D01*
X0082633Y0315833D01*
D11*
X0103539Y0103904D03*
X0103539Y0087762D03*
D12*
X0094564Y0143333D02*
X0087514Y0143333D01*
X0087514Y0163333D02*
X0094564Y0163333D01*
X0097064Y0185833D02*
X0090014Y0185833D01*
X0090014Y0205833D02*
X0097064Y0205833D01*
X0097064Y0225833D02*
X0090014Y0225833D01*
X0090014Y0245833D02*
X0097064Y0245833D01*
X0097064Y0265833D02*
X0090014Y0265833D01*
X0138539Y0309808D02*
X0138539Y0316858D01*
X0158539Y0316858D02*
X0158539Y0309808D01*
X0178539Y0309808D02*
X0178539Y0316858D01*
X0312514Y0315833D02*
X0319564Y0315833D01*
X0319564Y0295833D02*
X0312514Y0295833D01*
X0312514Y0275833D02*
X0319564Y0275833D01*
X0317514Y0245833D02*
X0324564Y0245833D01*
X0324564Y0225833D02*
X0317514Y0225833D01*
X0317514Y0205833D02*
X0324564Y0205833D01*
X0324564Y0145833D02*
X0317514Y0145833D01*
X0317514Y0125833D02*
X0324564Y0125833D01*
X0324564Y0100833D02*
X0317514Y0100833D01*
X0317514Y0080833D02*
X0324564Y0080833D01*
X0324564Y0060833D02*
X0317514Y0060833D01*
D13*
X0191551Y0080833D03*
X0180527Y0080833D03*
D14*
X0168039Y0080833D03*
X0169039Y0090833D03*
X0168039Y0100833D03*
X0169039Y0110833D03*
X0168039Y0120833D03*
X0169039Y0130833D03*
X0168039Y0140833D03*
X0169039Y0150833D03*
X0168039Y0160833D03*
X0169039Y0170833D03*
X0168039Y0180833D03*
X0169039Y0190833D03*
X0168039Y0200833D03*
X0169039Y0210833D03*
X0178539Y0210333D03*
X0188539Y0211333D03*
X0198539Y0210333D03*
X0208539Y0211333D03*
X0228039Y0200833D03*
X0229039Y0190833D03*
X0228039Y0180833D03*
X0229039Y0170833D03*
X0228039Y0160833D03*
X0229039Y0150833D03*
X0228039Y0140833D03*
X0229039Y0130833D03*
X0228039Y0120833D03*
X0229039Y0110833D03*
X0228039Y0100833D03*
X0229039Y0090833D03*
X0228039Y0080833D03*
X0243039Y0090833D03*
X0244039Y0100833D03*
X0243039Y0110833D03*
X0244039Y0120833D03*
X0243039Y0130833D03*
X0244039Y0140833D03*
X0243039Y0150833D03*
X0244039Y0160833D03*
X0243039Y0170833D03*
X0244039Y0180833D03*
X0243039Y0190833D03*
X0244039Y0200833D03*
X0229039Y0210833D03*
X0268039Y0215833D03*
X0269039Y0205833D03*
X0268039Y0195833D03*
X0269039Y0185833D03*
X0268039Y0175833D03*
X0269039Y0165833D03*
X0268039Y0155833D03*
X0269039Y0130833D03*
X0268039Y0120833D03*
X0269039Y0110833D03*
X0268039Y0100833D03*
X0269039Y0090833D03*
X0268039Y0080833D03*
X0269039Y0070833D03*
X0268039Y0060833D03*
X0269039Y0050833D03*
X0268039Y0040833D03*
X0228539Y0041333D03*
X0218539Y0040333D03*
X0153039Y0110833D03*
X0154039Y0120833D03*
X0153039Y0130833D03*
X0154039Y0140833D03*
X0153039Y0150833D03*
X0154039Y0160833D03*
X0153039Y0170833D03*
X0154039Y0180833D03*
X0153039Y0190833D03*
X0154039Y0200833D03*
X0153039Y0210833D03*
X0154039Y0220833D03*
X0268039Y0235833D03*
X0269039Y0225833D03*
X0269039Y0245833D03*
X0088539Y0093333D03*
X0088539Y0083333D03*
X0088539Y0073333D03*
X0088539Y0053333D03*
X0088539Y0043333D03*
X0088539Y0033333D03*
X0088539Y0023333D03*
X0133539Y0030133D03*
X0133539Y0040833D03*
X0133539Y0051533D03*
D15*
X0238539Y0040333D03*
D16*
X0106039Y0115333D02*
X0106039Y0121333D01*
X0096039Y0121333D02*
X0096039Y0115333D01*
X0086039Y0115333D02*
X0086039Y0121333D01*
D17*
X0108539Y0135235D03*
X0108539Y0146432D03*
X0138539Y0275235D03*
X0138539Y0286432D03*
X0158539Y0286432D03*
X0158539Y0275235D03*
X0253539Y0236432D03*
X0253539Y0225235D03*
X0253539Y0213932D03*
X0253539Y0202735D03*
X0298539Y0212735D03*
X0298539Y0223932D03*
X0298539Y0240235D03*
X0298539Y0251432D03*
X0263539Y0290235D03*
X0263539Y0301432D03*
X0298539Y0156432D03*
X0298539Y0145235D03*
X0256039Y0121432D03*
X0256039Y0110235D03*
X0256039Y0098932D03*
X0256039Y0087735D03*
D18*
X0124138Y0185833D03*
X0112941Y0185833D03*
X0112941Y0205833D03*
X0124138Y0205833D03*
X0124138Y0225833D03*
X0112941Y0225833D03*
X0112941Y0245833D03*
X0124138Y0245833D03*
X0207941Y0230833D03*
X0219138Y0230833D03*
D19*
X0219138Y0226432D01*
X0216039Y0223333D01*
X0203539Y0223333D01*
X0200364Y0221902D02*
X0159439Y0221902D01*
X0159439Y0221907D02*
X0158617Y0223892D01*
X0157098Y0225411D01*
X0155113Y0226233D01*
X0152965Y0226233D01*
X0150980Y0225411D01*
X0149461Y0223892D01*
X0148639Y0221907D01*
X0148639Y0219759D01*
X0149461Y0217774D01*
X0150980Y0216255D01*
X0151499Y0216040D01*
X0149980Y0215411D01*
X0148461Y0213892D01*
X0147639Y0211907D01*
X0147639Y0209759D01*
X0148461Y0207774D01*
X0149980Y0206255D01*
X0151499Y0205626D01*
X0150980Y0205411D01*
X0149461Y0203892D01*
X0148639Y0201907D01*
X0148639Y0199759D01*
X0149461Y0197774D01*
X0150980Y0196255D01*
X0151499Y0196040D01*
X0149980Y0195411D01*
X0148461Y0193892D01*
X0147639Y0191907D01*
X0147639Y0189759D01*
X0148461Y0187774D01*
X0149980Y0186255D01*
X0151499Y0185626D01*
X0150980Y0185411D01*
X0149461Y0183892D01*
X0148639Y0181907D01*
X0148639Y0179759D01*
X0149461Y0177774D01*
X0150980Y0176255D01*
X0151499Y0176040D01*
X0149980Y0175411D01*
X0148461Y0173892D01*
X0148395Y0173733D01*
X0128062Y0173733D01*
X0128011Y0173784D01*
X0126732Y0174314D01*
X0125347Y0174314D01*
X0124067Y0173784D01*
X0123088Y0172805D01*
X0122558Y0171526D01*
X0122558Y0170141D01*
X0123088Y0168861D01*
X0124067Y0167882D01*
X0125347Y0167352D01*
X0126732Y0167352D01*
X0128011Y0167882D01*
X0128062Y0167933D01*
X0148395Y0167933D01*
X0148461Y0167774D01*
X0149980Y0166255D01*
X0151499Y0165626D01*
X0150980Y0165411D01*
X0149461Y0163892D01*
X0148639Y0161907D01*
X0148639Y0159759D01*
X0149461Y0157774D01*
X0150980Y0156255D01*
X0151499Y0156040D01*
X0149980Y0155411D01*
X0148461Y0153892D01*
X0147639Y0151907D01*
X0147639Y0149759D01*
X0148461Y0147774D01*
X0149980Y0146255D01*
X0151499Y0145626D01*
X0150980Y0145411D01*
X0149461Y0143892D01*
X0148639Y0141907D01*
X0148639Y0139759D01*
X0149461Y0137774D01*
X0150980Y0136255D01*
X0151499Y0136040D01*
X0149980Y0135411D01*
X0148461Y0133892D01*
X0147639Y0131907D01*
X0147639Y0129759D01*
X0148461Y0127774D01*
X0149980Y0126255D01*
X0151499Y0125626D01*
X0150980Y0125411D01*
X0149461Y0123892D01*
X0148639Y0121907D01*
X0148639Y0119759D01*
X0149461Y0117774D01*
X0150980Y0116255D01*
X0151499Y0116040D01*
X0149980Y0115411D01*
X0148461Y0113892D01*
X0147639Y0111907D01*
X0147639Y0109759D01*
X0148461Y0107774D01*
X0149980Y0106255D01*
X0151965Y0105433D01*
X0154113Y0105433D01*
X0156098Y0106255D01*
X0157617Y0107774D01*
X0158439Y0109759D01*
X0158439Y0111907D01*
X0157617Y0113892D01*
X0156098Y0115411D01*
X0155579Y0115626D01*
X0157098Y0116255D01*
X0158617Y0117774D01*
X0159439Y0119759D01*
X0159439Y0121907D01*
X0158617Y0123892D01*
X0157098Y0125411D01*
X0155579Y0126040D01*
X0156098Y0126255D01*
X0157617Y0127774D01*
X0158439Y0129759D01*
X0158439Y0131907D01*
X0157617Y0133892D01*
X0156098Y0135411D01*
X0155579Y0135626D01*
X0157098Y0136255D01*
X0158617Y0137774D01*
X0159439Y0139759D01*
X0159439Y0141907D01*
X0158617Y0143892D01*
X0157098Y0145411D01*
X0155579Y0146040D01*
X0156098Y0146255D01*
X0157617Y0147774D01*
X0158439Y0149759D01*
X0158439Y0151907D01*
X0157617Y0153892D01*
X0156098Y0155411D01*
X0155579Y0155626D01*
X0157098Y0156255D01*
X0158617Y0157774D01*
X0159439Y0159759D01*
X0159439Y0161907D01*
X0158617Y0163892D01*
X0157098Y0165411D01*
X0155579Y0166040D01*
X0156098Y0166255D01*
X0157617Y0167774D01*
X0158439Y0169759D01*
X0158439Y0171907D01*
X0157617Y0173892D01*
X0156098Y0175411D01*
X0155579Y0175626D01*
X0157098Y0176255D01*
X0158617Y0177774D01*
X0159439Y0179759D01*
X0159439Y0181907D01*
X0158617Y0183892D01*
X0157098Y0185411D01*
X0155579Y0186040D01*
X0156098Y0186255D01*
X0157617Y0187774D01*
X0158439Y0189759D01*
X0158439Y0191907D01*
X0157617Y0193892D01*
X0156098Y0195411D01*
X0155579Y0195626D01*
X0157098Y0196255D01*
X0158617Y0197774D01*
X0159439Y0199759D01*
X0159439Y0201907D01*
X0158617Y0203892D01*
X0157098Y0205411D01*
X0155579Y0206040D01*
X0156098Y0206255D01*
X0157617Y0207774D01*
X0158439Y0209759D01*
X0158439Y0211907D01*
X0157617Y0213892D01*
X0156098Y0215411D01*
X0156045Y0215433D01*
X0166034Y0215433D01*
X0165980Y0215411D01*
X0164461Y0213892D01*
X0163639Y0211907D01*
X0163639Y0209759D01*
X0164461Y0207774D01*
X0165980Y0206255D01*
X0166499Y0206040D01*
X0164980Y0205411D01*
X0163461Y0203892D01*
X0162639Y0201907D01*
X0162639Y0199759D01*
X0163461Y0197774D01*
X0164980Y0196255D01*
X0166499Y0195626D01*
X0165980Y0195411D01*
X0164461Y0193892D01*
X0163639Y0191907D01*
X0163639Y0189759D01*
X0164461Y0187774D01*
X0165980Y0186255D01*
X0166499Y0186040D01*
X0164980Y0185411D01*
X0163461Y0183892D01*
X0162639Y0181907D01*
X0162639Y0179759D01*
X0163461Y0177774D01*
X0164980Y0176255D01*
X0166499Y0175626D01*
X0165980Y0175411D01*
X0164461Y0173892D01*
X0163639Y0171907D01*
X0163639Y0169759D01*
X0164461Y0167774D01*
X0165980Y0166255D01*
X0166499Y0166040D01*
X0164980Y0165411D01*
X0163461Y0163892D01*
X0162639Y0161907D01*
X0162639Y0159759D01*
X0163461Y0157774D01*
X0164980Y0156255D01*
X0166499Y0155626D01*
X0165980Y0155411D01*
X0164461Y0153892D01*
X0163639Y0151907D01*
X0163639Y0149759D01*
X0164461Y0147774D01*
X0165980Y0146255D01*
X0166499Y0146040D01*
X0164980Y0145411D01*
X0163461Y0143892D01*
X0162639Y0141907D01*
X0162639Y0139759D01*
X0163461Y0137774D01*
X0164980Y0136255D01*
X0166499Y0135626D01*
X0165980Y0135411D01*
X0164461Y0133892D01*
X0163639Y0131907D01*
X0163639Y0129759D01*
X0164461Y0127774D01*
X0165980Y0126255D01*
X0166499Y0126040D01*
X0164980Y0125411D01*
X0163461Y0123892D01*
X0162639Y0121907D01*
X0162639Y0119759D01*
X0163461Y0117774D01*
X0164980Y0116255D01*
X0166499Y0115626D01*
X0165980Y0115411D01*
X0164461Y0113892D01*
X0163639Y0111907D01*
X0163639Y0109759D01*
X0164461Y0107774D01*
X0165980Y0106255D01*
X0166499Y0106040D01*
X0164980Y0105411D01*
X0163461Y0103892D01*
X0162639Y0101907D01*
X0162639Y0099759D01*
X0163461Y0097774D01*
X0164980Y0096255D01*
X0166499Y0095626D01*
X0165980Y0095411D01*
X0164461Y0093892D01*
X0163639Y0091907D01*
X0163639Y0089759D01*
X0164461Y0087774D01*
X0165980Y0086255D01*
X0166499Y0086040D01*
X0164980Y0085411D01*
X0163461Y0083892D01*
X0162639Y0081907D01*
X0162639Y0079759D01*
X0163461Y0077774D01*
X0164980Y0076255D01*
X0166965Y0075433D01*
X0169113Y0075433D01*
X0171098Y0076255D01*
X0171476Y0076633D01*
X0175678Y0076633D01*
X0175678Y0076586D01*
X0176674Y0075590D01*
X0184381Y0075590D01*
X0185377Y0076586D01*
X0185377Y0085081D01*
X0184381Y0086077D01*
X0176674Y0086077D01*
X0175678Y0085081D01*
X0175678Y0085033D01*
X0171476Y0085033D01*
X0171098Y0085411D01*
X0170579Y0085626D01*
X0172098Y0086255D01*
X0173617Y0087774D01*
X0174439Y0089759D01*
X0174439Y0091907D01*
X0173617Y0093892D01*
X0172098Y0095411D01*
X0170579Y0096040D01*
X0171098Y0096255D01*
X0172617Y0097774D01*
X0173439Y0099759D01*
X0173439Y0101907D01*
X0172617Y0103892D01*
X0171098Y0105411D01*
X0170579Y0105626D01*
X0172098Y0106255D01*
X0173617Y0107774D01*
X0174439Y0109759D01*
X0174439Y0111907D01*
X0173617Y0113892D01*
X0172098Y0115411D01*
X0170579Y0116040D01*
X0171098Y0116255D01*
X0172617Y0117774D01*
X0173439Y0119759D01*
X0173439Y0121907D01*
X0172617Y0123892D01*
X0171098Y0125411D01*
X0170579Y0125626D01*
X0172098Y0126255D01*
X0173617Y0127774D01*
X0174439Y0129759D01*
X0174439Y0131907D01*
X0173617Y0133892D01*
X0172098Y0135411D01*
X0170579Y0136040D01*
X0171098Y0136255D01*
X0172617Y0137774D01*
X0173439Y0139759D01*
X0173439Y0141907D01*
X0172617Y0143892D01*
X0171098Y0145411D01*
X0170579Y0145626D01*
X0172098Y0146255D01*
X0173617Y0147774D01*
X0174439Y0149759D01*
X0174439Y0151907D01*
X0173617Y0153892D01*
X0172098Y0155411D01*
X0170579Y0156040D01*
X0171098Y0156255D01*
X0172617Y0157774D01*
X0173439Y0159759D01*
X0173439Y0161907D01*
X0172617Y0163892D01*
X0171098Y0165411D01*
X0170579Y0165626D01*
X0172098Y0166255D01*
X0173617Y0167774D01*
X0174439Y0169759D01*
X0174439Y0171907D01*
X0173617Y0173892D01*
X0172098Y0175411D01*
X0170579Y0176040D01*
X0171098Y0176255D01*
X0172617Y0177774D01*
X0173439Y0179759D01*
X0173439Y0181907D01*
X0172617Y0183892D01*
X0171098Y0185411D01*
X0170579Y0185626D01*
X0172098Y0186255D01*
X0173617Y0187774D01*
X0174439Y0189759D01*
X0174439Y0191907D01*
X0173617Y0193892D01*
X0172098Y0195411D01*
X0170579Y0196040D01*
X0171098Y0196255D01*
X0172617Y0197774D01*
X0173439Y0199759D01*
X0173439Y0201907D01*
X0172617Y0203892D01*
X0171098Y0205411D01*
X0170579Y0205626D01*
X0172098Y0206255D01*
X0173617Y0207774D01*
X0173686Y0207940D01*
X0173961Y0207274D01*
X0175480Y0205755D01*
X0177465Y0204933D01*
X0179613Y0204933D01*
X0181598Y0205755D01*
X0183117Y0207274D01*
X0183746Y0208794D01*
X0183961Y0208274D01*
X0185480Y0206755D01*
X0187465Y0205933D01*
X0189613Y0205933D01*
X0191598Y0206755D01*
X0193032Y0208190D01*
X0193071Y0208069D01*
X0193493Y0207241D01*
X0194039Y0206490D01*
X0194696Y0205833D01*
X0195447Y0205287D01*
X0196274Y0204866D01*
X0197158Y0204579D01*
X0198075Y0204433D01*
X0198539Y0204433D01*
X0198539Y0210333D01*
X0198539Y0210333D01*
X0198539Y0204433D01*
X0199004Y0204433D01*
X0199921Y0204579D01*
X0200804Y0204866D01*
X0201631Y0205287D01*
X0202383Y0205833D01*
X0203039Y0206490D01*
X0203585Y0207241D01*
X0204007Y0208069D01*
X0204046Y0208190D01*
X0205480Y0206755D01*
X0207465Y0205933D01*
X0209613Y0205933D01*
X0211598Y0206755D01*
X0213117Y0208274D01*
X0213939Y0210259D01*
X0213939Y0212407D01*
X0213117Y0214392D01*
X0212076Y0215433D01*
X0219116Y0215433D01*
X0220182Y0215875D01*
X0220998Y0216691D01*
X0227240Y0222933D01*
X0242338Y0222933D01*
X0242558Y0222713D01*
X0242558Y0222641D01*
X0242906Y0221801D01*
X0234838Y0213733D01*
X0233683Y0213733D01*
X0233617Y0213892D01*
X0232098Y0215411D01*
X0230113Y0216233D01*
X0227965Y0216233D01*
X0225980Y0215411D01*
X0224461Y0213892D01*
X0223639Y0211907D01*
X0223639Y0209759D01*
X0224461Y0207774D01*
X0225980Y0206255D01*
X0226499Y0206040D01*
X0224980Y0205411D01*
X0223461Y0203892D01*
X0222639Y0201907D01*
X0222639Y0199759D01*
X0222827Y0199306D01*
X0221567Y0198784D01*
X0221516Y0198733D01*
X0213062Y0198733D01*
X0213011Y0198784D01*
X0211732Y0199314D01*
X0210347Y0199314D01*
X0209067Y0198784D01*
X0208088Y0197805D01*
X0207558Y0196526D01*
X0207558Y0195141D01*
X0208088Y0193861D01*
X0209067Y0192882D01*
X0210347Y0192352D01*
X0211732Y0192352D01*
X0213011Y0192882D01*
X0213062Y0192933D01*
X0221516Y0192933D01*
X0221567Y0192882D01*
X0222847Y0192352D01*
X0223823Y0192352D01*
X0223639Y0191907D01*
X0223639Y0189759D01*
X0224251Y0188283D01*
X0220190Y0188283D01*
X0220182Y0188292D01*
X0219116Y0188733D01*
X0217962Y0188733D01*
X0216896Y0188292D01*
X0210419Y0181814D01*
X0210347Y0181814D01*
X0209067Y0181284D01*
X0208088Y0180305D01*
X0207558Y0179026D01*
X0207558Y0177641D01*
X0208088Y0176361D01*
X0209067Y0175382D01*
X0210347Y0174852D01*
X0211732Y0174852D01*
X0213011Y0175382D01*
X0213990Y0176361D01*
X0214520Y0177641D01*
X0214520Y0177713D01*
X0220190Y0183383D01*
X0223251Y0183383D01*
X0222639Y0181907D01*
X0222639Y0179759D01*
X0223461Y0177774D01*
X0224980Y0176255D01*
X0226499Y0175626D01*
X0225980Y0175411D01*
X0224461Y0173892D01*
X0223639Y0171907D01*
X0223639Y0169759D01*
X0224461Y0167774D01*
X0225980Y0166255D01*
X0226499Y0166040D01*
X0224980Y0165411D01*
X0223461Y0163892D01*
X0222639Y0161907D01*
X0222639Y0159759D01*
X0223461Y0157774D01*
X0224980Y0156255D01*
X0226499Y0155626D01*
X0225980Y0155411D01*
X0224461Y0153892D01*
X0223639Y0151907D01*
X0223639Y0149759D01*
X0224461Y0147774D01*
X0225980Y0146255D01*
X0226499Y0146040D01*
X0224980Y0145411D01*
X0223461Y0143892D01*
X0222639Y0141907D01*
X0222639Y0139759D01*
X0223461Y0137774D01*
X0224980Y0136255D01*
X0226499Y0135626D01*
X0225980Y0135411D01*
X0224461Y0133892D01*
X0223639Y0131907D01*
X0223639Y0129759D01*
X0224461Y0127774D01*
X0225980Y0126255D01*
X0226499Y0126040D01*
X0224980Y0125411D01*
X0223461Y0123892D01*
X0222639Y0121907D01*
X0222639Y0119759D01*
X0223230Y0118333D01*
X0208462Y0118333D01*
X0208011Y0118784D01*
X0206732Y0119314D01*
X0205347Y0119314D01*
X0204067Y0118784D01*
X0203088Y0117805D01*
X0202558Y0116526D01*
X0202558Y0115141D01*
X0203088Y0113861D01*
X0204067Y0112882D01*
X0205347Y0112352D01*
X0206732Y0112352D01*
X0208011Y0112882D01*
X0208462Y0113333D01*
X0224230Y0113333D01*
X0223639Y0111907D01*
X0223639Y0109759D01*
X0224461Y0107774D01*
X0225980Y0106255D01*
X0226499Y0106040D01*
X0224980Y0105411D01*
X0223461Y0103892D01*
X0222639Y0101907D01*
X0222639Y0099759D01*
X0223461Y0097774D01*
X0224980Y0096255D01*
X0226499Y0095626D01*
X0225980Y0095411D01*
X0224461Y0093892D01*
X0223639Y0091907D01*
X0223639Y0089759D01*
X0224064Y0088733D01*
X0215562Y0088733D01*
X0215511Y0088784D01*
X0214232Y0089314D01*
X0212847Y0089314D01*
X0211567Y0088784D01*
X0210588Y0087805D01*
X0210058Y0086526D01*
X0210058Y0085141D01*
X0210588Y0083861D01*
X0211567Y0082882D01*
X0212847Y0082352D01*
X0214232Y0082352D01*
X0215511Y0082882D01*
X0215562Y0082933D01*
X0222518Y0082933D01*
X0222284Y0082215D01*
X0222139Y0081298D01*
X0222139Y0080833D01*
X0222139Y0080369D01*
X0222284Y0079452D01*
X0222571Y0078569D01*
X0222993Y0077741D01*
X0223539Y0076990D01*
X0224196Y0076333D01*
X0224947Y0075787D01*
X0225774Y0075366D01*
X0226658Y0075079D01*
X0227575Y0074933D01*
X0228039Y0074933D01*
X0228039Y0080833D01*
X0228039Y0080833D01*
X0222139Y0080833D01*
X0228039Y0080833D01*
X0228039Y0080833D01*
X0228039Y0074933D01*
X0228504Y0074933D01*
X0229421Y0075079D01*
X0230304Y0075366D01*
X0231131Y0075787D01*
X0231883Y0076333D01*
X0232539Y0076990D01*
X0233085Y0077741D01*
X0233507Y0078569D01*
X0233794Y0079452D01*
X0233939Y0080369D01*
X0233939Y0080833D01*
X0228039Y0080833D01*
X0228039Y0080833D01*
X0233939Y0080833D01*
X0233939Y0081298D01*
X0233794Y0082215D01*
X0233507Y0083098D01*
X0233362Y0083383D01*
X0234388Y0083383D01*
X0236081Y0081691D01*
X0236896Y0080875D01*
X0237962Y0080433D01*
X0252214Y0080433D01*
X0253280Y0080875D01*
X0255291Y0082885D01*
X0260293Y0082885D01*
X0260741Y0083333D01*
X0263230Y0083333D01*
X0262639Y0081907D01*
X0262639Y0079759D01*
X0263461Y0077774D01*
X0264980Y0076255D01*
X0266499Y0075626D01*
X0265980Y0075411D01*
X0264461Y0073892D01*
X0263639Y0071907D01*
X0263639Y0069759D01*
X0264461Y0067774D01*
X0265980Y0066255D01*
X0266499Y0066040D01*
X0264980Y0065411D01*
X0263461Y0063892D01*
X0262639Y0061907D01*
X0262639Y0059759D01*
X0263461Y0057774D01*
X0264980Y0056255D01*
X0265926Y0055864D01*
X0265196Y0055334D01*
X0264539Y0054677D01*
X0263993Y0053926D01*
X0263571Y0053098D01*
X0263284Y0052215D01*
X0263139Y0051298D01*
X0263139Y0050833D01*
X0263139Y0050369D01*
X0263284Y0049452D01*
X0263571Y0048569D01*
X0263993Y0047741D01*
X0264539Y0046990D01*
X0265196Y0046333D01*
X0265926Y0045803D01*
X0264980Y0045411D01*
X0263461Y0043892D01*
X0262639Y0041907D01*
X0262639Y0039759D01*
X0263461Y0037774D01*
X0264980Y0036255D01*
X0266965Y0035433D01*
X0269113Y0035433D01*
X0271098Y0036255D01*
X0272617Y0037774D01*
X0273439Y0039759D01*
X0273439Y0041907D01*
X0272617Y0043892D01*
X0271183Y0045326D01*
X0271304Y0045366D01*
X0272131Y0045787D01*
X0272883Y0046333D01*
X0273539Y0046990D01*
X0274085Y0047741D01*
X0274507Y0048569D01*
X0274794Y0049452D01*
X0274939Y0050369D01*
X0274939Y0050833D01*
X0269039Y0050833D01*
X0263139Y0050833D01*
X0269039Y0050833D01*
X0269039Y0050833D01*
X0269039Y0050833D01*
X0274939Y0050833D01*
X0274939Y0051298D01*
X0274794Y0052215D01*
X0274507Y0053098D01*
X0274085Y0053926D01*
X0273539Y0054677D01*
X0272883Y0055334D01*
X0272131Y0055879D01*
X0271304Y0056301D01*
X0271183Y0056340D01*
X0272617Y0057774D01*
X0273439Y0059759D01*
X0273439Y0061907D01*
X0272617Y0063892D01*
X0271098Y0065411D01*
X0270579Y0065626D01*
X0272098Y0066255D01*
X0273617Y0067774D01*
X0274439Y0069759D01*
X0274439Y0071907D01*
X0273617Y0073892D01*
X0272098Y0075411D01*
X0270579Y0076040D01*
X0271098Y0076255D01*
X0272617Y0077774D01*
X0273439Y0079759D01*
X0273439Y0081832D01*
X0274396Y0080875D01*
X0275462Y0080433D01*
X0287973Y0080433D01*
X0288554Y0079852D01*
X0293524Y0079852D01*
X0294520Y0080848D01*
X0294520Y0085819D01*
X0293524Y0086814D01*
X0288554Y0086814D01*
X0287973Y0086233D01*
X0277240Y0086233D01*
X0275182Y0088292D01*
X0274116Y0088733D01*
X0274014Y0088733D01*
X0274439Y0089759D01*
X0274439Y0091907D01*
X0273617Y0093892D01*
X0272098Y0095411D01*
X0270579Y0096040D01*
X0271098Y0096255D01*
X0272617Y0097774D01*
X0273439Y0099759D01*
X0273439Y0101907D01*
X0272617Y0103892D01*
X0271098Y0105411D01*
X0270579Y0105626D01*
X0272098Y0106255D01*
X0273617Y0107774D01*
X0274439Y0109759D01*
X0274439Y0111907D01*
X0273617Y0113892D01*
X0272098Y0115411D01*
X0270579Y0116040D01*
X0271098Y0116255D01*
X0272617Y0117774D01*
X0273439Y0119759D01*
X0273439Y0121907D01*
X0272617Y0123892D01*
X0271098Y0125411D01*
X0270579Y0125626D01*
X0272098Y0126255D01*
X0273617Y0127774D01*
X0273683Y0127933D01*
X0286616Y0127933D01*
X0287682Y0128375D01*
X0288498Y0129191D01*
X0291659Y0132352D01*
X0291732Y0132352D01*
X0293011Y0132882D01*
X0293990Y0133861D01*
X0294520Y0135141D01*
X0294520Y0136526D01*
X0293990Y0137805D01*
X0293862Y0137933D01*
X0296616Y0137933D01*
X0297682Y0138375D01*
X0298498Y0139191D01*
X0299692Y0140385D01*
X0302793Y0140385D01*
X0303788Y0141381D01*
X0303788Y0142133D01*
X0313825Y0142133D01*
X0314554Y0141404D01*
X0316475Y0140608D01*
X0325603Y0140608D01*
X0327524Y0141404D01*
X0328994Y0142874D01*
X0329789Y0144794D01*
X0329789Y0146873D01*
X0328994Y0148793D01*
X0327524Y0150263D01*
X0325603Y0151058D01*
X0316475Y0151058D01*
X0314554Y0150263D01*
X0313825Y0149533D01*
X0303344Y0149533D01*
X0302793Y0150084D01*
X0294286Y0150084D01*
X0293290Y0149089D01*
X0293290Y0143733D01*
X0275562Y0143733D01*
X0275511Y0143784D01*
X0274232Y0144314D01*
X0272847Y0144314D01*
X0271567Y0143784D01*
X0270588Y0142805D01*
X0270058Y0141526D01*
X0270058Y0140141D01*
X0270588Y0138861D01*
X0271567Y0137882D01*
X0272847Y0137352D01*
X0274232Y0137352D01*
X0275511Y0137882D01*
X0275562Y0137933D01*
X0288216Y0137933D01*
X0288088Y0137805D01*
X0287558Y0136526D01*
X0287558Y0136453D01*
X0284838Y0133733D01*
X0273683Y0133733D01*
X0273617Y0133892D01*
X0272098Y0135411D01*
X0270113Y0136233D01*
X0267965Y0136233D01*
X0265980Y0135411D01*
X0264461Y0133892D01*
X0263639Y0131907D01*
X0263639Y0129759D01*
X0264461Y0127774D01*
X0265980Y0126255D01*
X0266499Y0126040D01*
X0264980Y0125411D01*
X0263901Y0124332D01*
X0261288Y0124332D01*
X0261288Y0125286D01*
X0260293Y0126281D01*
X0251786Y0126281D01*
X0250790Y0125286D01*
X0250790Y0118733D01*
X0249864Y0118733D01*
X0248898Y0118333D01*
X0248849Y0118333D01*
X0249439Y0119759D01*
X0249439Y0121907D01*
X0248617Y0123892D01*
X0247098Y0125411D01*
X0245579Y0126040D01*
X0246098Y0126255D01*
X0247617Y0127774D01*
X0248439Y0129759D01*
X0248439Y0131907D01*
X0247617Y0133892D01*
X0246098Y0135411D01*
X0245579Y0135626D01*
X0247098Y0136255D01*
X0248617Y0137774D01*
X0249439Y0139759D01*
X0249439Y0141907D01*
X0248617Y0143892D01*
X0247098Y0145411D01*
X0245579Y0146040D01*
X0246098Y0146255D01*
X0247617Y0147774D01*
X0248439Y0149759D01*
X0248439Y0151907D01*
X0247617Y0153892D01*
X0246098Y0155411D01*
X0245579Y0155626D01*
X0247098Y0156255D01*
X0248617Y0157774D01*
X0249439Y0159759D01*
X0249439Y0161907D01*
X0248617Y0163892D01*
X0247098Y0165411D01*
X0245579Y0166040D01*
X0246098Y0166255D01*
X0247617Y0167774D01*
X0248439Y0169759D01*
X0248439Y0171907D01*
X0247617Y0173892D01*
X0246098Y0175411D01*
X0245579Y0175626D01*
X0247098Y0176255D01*
X0248617Y0177774D01*
X0249439Y0179759D01*
X0249439Y0181907D01*
X0249014Y0182933D01*
X0249116Y0182933D01*
X0250182Y0183375D01*
X0255998Y0189191D01*
X0256439Y0190256D01*
X0256439Y0197885D01*
X0257793Y0197885D01*
X0258788Y0198881D01*
X0258788Y0206589D01*
X0257793Y0207584D01*
X0249286Y0207584D01*
X0248290Y0206589D01*
X0248290Y0204219D01*
X0247098Y0205411D01*
X0245113Y0206233D01*
X0243040Y0206233D01*
X0247240Y0210433D01*
X0248290Y0210433D01*
X0248290Y0210078D01*
X0249286Y0209082D01*
X0257793Y0209082D01*
X0258788Y0210078D01*
X0258788Y0217786D01*
X0257793Y0218781D01*
X0256439Y0218781D01*
X0256439Y0220385D01*
X0257793Y0220385D01*
X0258788Y0221381D01*
X0258788Y0229089D01*
X0257793Y0230084D01*
X0249286Y0230084D01*
X0248290Y0229089D01*
X0248290Y0226006D01*
X0248011Y0226284D01*
X0246732Y0226814D01*
X0246659Y0226814D01*
X0245998Y0227476D01*
X0245182Y0228292D01*
X0244116Y0228733D01*
X0225540Y0228733D01*
X0226659Y0229852D01*
X0226732Y0229852D01*
X0228011Y0230382D01*
X0228990Y0231361D01*
X0229520Y0232641D01*
X0229520Y0234026D01*
X0228990Y0235305D01*
X0228011Y0236284D01*
X0226732Y0236814D01*
X0225347Y0236814D01*
X0224067Y0236284D01*
X0224016Y0236233D01*
X0221061Y0236233D01*
X0220697Y0236083D01*
X0215284Y0236083D01*
X0214288Y0235087D01*
X0214288Y0226580D01*
X0214635Y0226233D01*
X0213024Y0226233D01*
X0213140Y0226435D01*
X0213290Y0226994D01*
X0213290Y0230459D01*
X0208316Y0230459D01*
X0208316Y0231208D01*
X0213290Y0231208D01*
X0213290Y0234672D01*
X0213140Y0235232D01*
X0212851Y0235733D01*
X0212441Y0236143D01*
X0211940Y0236433D01*
X0211380Y0236583D01*
X0208316Y0236583D01*
X0208316Y0231208D01*
X0207566Y0231208D01*
X0207566Y0230459D01*
X0202591Y0230459D01*
X0202591Y0226994D01*
X0202660Y0226737D01*
X0201567Y0226284D01*
X0200588Y0225305D01*
X0200058Y0224026D01*
X0200058Y0222641D01*
X0200588Y0221361D01*
X0200716Y0221233D01*
X0200562Y0221233D01*
X0200511Y0221284D01*
X0199232Y0221814D01*
X0197847Y0221814D01*
X0196567Y0221284D01*
X0195588Y0220305D01*
X0195058Y0219026D01*
X0195058Y0217641D01*
X0195588Y0216361D01*
X0196191Y0215759D01*
X0195447Y0215379D01*
X0194696Y0214834D01*
X0194039Y0214177D01*
X0193509Y0213447D01*
X0193117Y0214392D01*
X0191598Y0215911D01*
X0189613Y0216733D01*
X0187465Y0216733D01*
X0185480Y0215911D01*
X0183961Y0214392D01*
X0183332Y0212873D01*
X0183117Y0213392D01*
X0181598Y0214911D01*
X0180486Y0215372D01*
X0180511Y0215382D01*
X0181490Y0216361D01*
X0182020Y0217641D01*
X0182020Y0219026D01*
X0181490Y0220305D01*
X0180511Y0221284D01*
X0179232Y0221814D01*
X0177847Y0221814D01*
X0176567Y0221284D01*
X0176516Y0221233D01*
X0159439Y0221233D01*
X0159439Y0221907D01*
X0158208Y0224301D02*
X0200172Y0224301D01*
X0202569Y0226699D02*
X0128987Y0226699D01*
X0128987Y0224301D02*
X0149870Y0224301D01*
X0148639Y0221902D02*
X0128987Y0221902D01*
X0128987Y0221580D02*
X0128873Y0221466D01*
X0129520Y0220819D01*
X0129520Y0219598D01*
X0129739Y0219069D01*
X0129739Y0217597D01*
X0129520Y0217069D01*
X0129520Y0215848D01*
X0128524Y0214852D01*
X0127304Y0214852D01*
X0126775Y0214633D01*
X0125303Y0214633D01*
X0124775Y0214852D01*
X0123554Y0214852D01*
X0122558Y0215848D01*
X0122558Y0216582D01*
X0121001Y0218139D01*
X0120438Y0219499D01*
X0120438Y0220584D01*
X0120284Y0220584D01*
X0119288Y0221580D01*
X0119288Y0230087D01*
X0120284Y0231083D01*
X0127991Y0231083D01*
X0128987Y0230087D01*
X0128987Y0221580D01*
X0129559Y0219504D02*
X0148745Y0219504D01*
X0150130Y0217105D02*
X0129535Y0217105D01*
X0126953Y0214707D02*
X0149276Y0214707D01*
X0147805Y0212308D02*
X0075739Y0212308D01*
X0075739Y0209910D02*
X0086701Y0209910D01*
X0087054Y0210263D02*
X0085585Y0208793D01*
X0084789Y0206873D01*
X0084789Y0204794D01*
X0085585Y0202874D01*
X0087054Y0201404D01*
X0088975Y0200608D01*
X0098103Y0200608D01*
X0100024Y0201404D01*
X0101494Y0202874D01*
X0101518Y0202933D01*
X0108091Y0202933D01*
X0108091Y0201580D01*
X0109087Y0200584D01*
X0116795Y0200584D01*
X0117790Y0201580D01*
X0117790Y0210087D01*
X0116795Y0211083D01*
X0109087Y0211083D01*
X0108091Y0210087D01*
X0108091Y0208733D01*
X0101518Y0208733D01*
X0101494Y0208793D01*
X0100024Y0210263D01*
X0098103Y0211058D01*
X0088975Y0211058D01*
X0087054Y0210263D01*
X0085054Y0207511D02*
X0075739Y0207511D01*
X0075739Y0205113D02*
X0084789Y0205113D01*
X0085744Y0202714D02*
X0075739Y0202714D01*
X0075739Y0200316D02*
X0120438Y0200316D01*
X0120438Y0200584D02*
X0120438Y0199499D01*
X0121001Y0198139D01*
X0122558Y0196582D01*
X0122558Y0195848D01*
X0123554Y0194852D01*
X0124775Y0194852D01*
X0125303Y0194633D01*
X0126775Y0194633D01*
X0127304Y0194852D01*
X0128524Y0194852D01*
X0129520Y0195848D01*
X0129520Y0197069D01*
X0129739Y0197597D01*
X0129739Y0199069D01*
X0129520Y0199598D01*
X0129520Y0200819D01*
X0128873Y0201466D01*
X0128987Y0201580D01*
X0128987Y0210087D01*
X0127991Y0211083D01*
X0120284Y0211083D01*
X0119288Y0210087D01*
X0119288Y0201580D01*
X0120284Y0200584D01*
X0120438Y0200584D01*
X0119288Y0202714D02*
X0117790Y0202714D01*
X0117790Y0205113D02*
X0119288Y0205113D01*
X0119288Y0207511D02*
X0117790Y0207511D01*
X0117790Y0209910D02*
X0119288Y0209910D01*
X0125126Y0214707D02*
X0075739Y0214707D01*
X0075739Y0217105D02*
X0122035Y0217105D01*
X0120438Y0219504D02*
X0075739Y0219504D01*
X0075739Y0221902D02*
X0086556Y0221902D01*
X0087054Y0221404D02*
X0085585Y0222874D01*
X0084789Y0224794D01*
X0084789Y0226873D01*
X0085585Y0228793D01*
X0087054Y0230263D01*
X0088975Y0231058D01*
X0098103Y0231058D01*
X0100024Y0230263D01*
X0101494Y0228793D01*
X0101518Y0228733D01*
X0108091Y0228733D01*
X0108091Y0230087D01*
X0109087Y0231083D01*
X0116795Y0231083D01*
X0117790Y0230087D01*
X0117790Y0221580D01*
X0116795Y0220584D01*
X0109087Y0220584D01*
X0108091Y0221580D01*
X0108091Y0222933D01*
X0101518Y0222933D01*
X0101494Y0222874D01*
X0100024Y0221404D01*
X0098103Y0220608D01*
X0088975Y0220608D01*
X0087054Y0221404D01*
X0084993Y0224301D02*
X0075739Y0224301D01*
X0075739Y0226699D02*
X0084789Y0226699D01*
X0085889Y0229098D02*
X0075739Y0229098D01*
X0075739Y0231496D02*
X0202591Y0231496D01*
X0202591Y0231208D02*
X0207566Y0231208D01*
X0207566Y0236583D01*
X0204502Y0236583D01*
X0203942Y0236433D01*
X0203440Y0236143D01*
X0203031Y0235733D01*
X0202741Y0235232D01*
X0202591Y0234672D01*
X0202591Y0231208D01*
X0202591Y0229098D02*
X0128987Y0229098D01*
X0129275Y0232133D02*
X0129804Y0232352D01*
X0131024Y0232352D01*
X0132020Y0233348D01*
X0132020Y0234569D01*
X0132239Y0235097D01*
X0132239Y0236569D01*
X0132020Y0237098D01*
X0132020Y0238319D01*
X0131024Y0239314D01*
X0130291Y0239314D01*
X0128506Y0241099D01*
X0128987Y0241580D01*
X0128987Y0250087D01*
X0127991Y0251083D01*
X0121439Y0251083D01*
X0121439Y0258810D01*
X0121490Y0258861D01*
X0122020Y0260141D01*
X0122020Y0261526D01*
X0121490Y0262805D01*
X0120511Y0263784D01*
X0119232Y0264314D01*
X0117847Y0264314D01*
X0116567Y0263784D01*
X0115588Y0262805D01*
X0115058Y0261526D01*
X0115058Y0260141D01*
X0115588Y0258861D01*
X0115639Y0258810D01*
X0115639Y0251083D01*
X0109087Y0251083D01*
X0108091Y0250087D01*
X0108091Y0248733D01*
X0101518Y0248733D01*
X0101494Y0248793D01*
X0100024Y0250263D01*
X0098103Y0251058D01*
X0088975Y0251058D01*
X0087054Y0250263D01*
X0085585Y0248793D01*
X0084789Y0246873D01*
X0084789Y0244794D01*
X0085585Y0242874D01*
X0087054Y0241404D01*
X0088975Y0240608D01*
X0098103Y0240608D01*
X0100024Y0241404D01*
X0101494Y0242874D01*
X0101518Y0242933D01*
X0108091Y0242933D01*
X0108091Y0241580D01*
X0109087Y0240584D01*
X0116795Y0240584D01*
X0117790Y0241580D01*
X0117790Y0242376D01*
X0117847Y0242352D01*
X0119232Y0242352D01*
X0119288Y0242376D01*
X0119288Y0241580D01*
X0120284Y0240584D01*
X0120438Y0240584D01*
X0120438Y0239499D01*
X0121001Y0238139D01*
X0125058Y0234082D01*
X0125058Y0233348D01*
X0126054Y0232352D01*
X0127275Y0232352D01*
X0127803Y0232133D01*
X0129275Y0232133D01*
X0132020Y0233895D02*
X0202591Y0233895D01*
X0203701Y0236293D02*
X0132239Y0236293D01*
X0131647Y0238692D02*
X0135758Y0238692D01*
X0135588Y0238861D02*
X0136567Y0237882D01*
X0137847Y0237352D01*
X0139232Y0237352D01*
X0140511Y0237882D01*
X0141490Y0238861D01*
X0142020Y0240141D01*
X0142020Y0241526D01*
X0141490Y0242805D01*
X0141439Y0242856D01*
X0141439Y0246410D01*
X0140998Y0247476D01*
X0132020Y0256453D01*
X0132020Y0256526D01*
X0131490Y0257805D01*
X0130511Y0258784D01*
X0129232Y0259314D01*
X0127847Y0259314D01*
X0126567Y0258784D01*
X0125588Y0257805D01*
X0125058Y0256526D01*
X0125058Y0255141D01*
X0125588Y0253861D01*
X0126567Y0252882D01*
X0127847Y0252352D01*
X0127919Y0252352D01*
X0135639Y0244632D01*
X0135639Y0242856D01*
X0135588Y0242805D01*
X0135058Y0241526D01*
X0135058Y0240141D01*
X0135588Y0238861D01*
X0135058Y0241090D02*
X0128515Y0241090D01*
X0128987Y0243489D02*
X0135639Y0243489D01*
X0134384Y0245887D02*
X0128987Y0245887D01*
X0128987Y0248286D02*
X0131985Y0248286D01*
X0129587Y0250684D02*
X0128389Y0250684D01*
X0126367Y0253083D02*
X0121439Y0253083D01*
X0121439Y0255481D02*
X0125058Y0255481D01*
X0125663Y0257880D02*
X0121439Y0257880D01*
X0122020Y0260279D02*
X0140639Y0260279D01*
X0140639Y0262677D02*
X0136349Y0262677D01*
X0136024Y0262352D02*
X0137020Y0263348D01*
X0137020Y0264082D01*
X0141676Y0268737D01*
X0142239Y0270097D01*
X0142239Y0270385D01*
X0142793Y0270385D01*
X0143788Y0271381D01*
X0143788Y0279089D01*
X0142793Y0280084D01*
X0134286Y0280084D01*
X0133290Y0279089D01*
X0133290Y0271381D01*
X0133572Y0271099D01*
X0131788Y0269314D01*
X0131054Y0269314D01*
X0130058Y0268319D01*
X0130058Y0267098D01*
X0129839Y0266569D01*
X0129839Y0265097D01*
X0130058Y0264569D01*
X0130058Y0263348D01*
X0131054Y0262352D01*
X0132275Y0262352D01*
X0132803Y0262133D01*
X0134275Y0262133D01*
X0134804Y0262352D01*
X0136024Y0262352D01*
X0138014Y0265076D02*
X0140639Y0265076D01*
X0140639Y0266410D02*
X0140639Y0257856D01*
X0140588Y0257805D01*
X0140058Y0256526D01*
X0140058Y0255141D01*
X0140588Y0253861D01*
X0141567Y0252882D01*
X0142847Y0252352D01*
X0144232Y0252352D01*
X0145511Y0252882D01*
X0146490Y0253861D01*
X0147020Y0255141D01*
X0147020Y0256526D01*
X0146490Y0257805D01*
X0146439Y0257856D01*
X0146439Y0264632D01*
X0150058Y0268251D01*
X0150058Y0267098D01*
X0149839Y0266569D01*
X0149839Y0265097D01*
X0150058Y0264569D01*
X0150058Y0263348D01*
X0151054Y0262352D01*
X0152275Y0262352D01*
X0152803Y0262133D01*
X0154275Y0262133D01*
X0154804Y0262352D01*
X0156024Y0262352D01*
X0157020Y0263348D01*
X0157020Y0264082D01*
X0161676Y0268737D01*
X0162239Y0270097D01*
X0162239Y0270385D01*
X0162793Y0270385D01*
X0163788Y0271381D01*
X0163788Y0279089D01*
X0162793Y0280084D01*
X0156293Y0280084D01*
X0157791Y0281582D01*
X0162793Y0281582D01*
X0163788Y0282578D01*
X0163788Y0290286D01*
X0162793Y0291281D01*
X0161439Y0291281D01*
X0161439Y0305354D01*
X0161499Y0305379D01*
X0162969Y0306849D01*
X0163764Y0308769D01*
X0163764Y0317898D01*
X0162969Y0319818D01*
X0161499Y0321288D01*
X0159578Y0322083D01*
X0157500Y0322083D01*
X0155579Y0321288D01*
X0154110Y0319818D01*
X0153314Y0317898D01*
X0153314Y0308769D01*
X0154110Y0306849D01*
X0155579Y0305379D01*
X0155639Y0305354D01*
X0155639Y0291281D01*
X0154286Y0291281D01*
X0153290Y0290286D01*
X0153290Y0285284D01*
X0146081Y0278074D01*
X0145639Y0277009D01*
X0145639Y0272035D01*
X0141081Y0267476D01*
X0140639Y0266410D01*
X0140412Y0267474D02*
X0141080Y0267474D01*
X0142146Y0269873D02*
X0143477Y0269873D01*
X0143788Y0272271D02*
X0145639Y0272271D01*
X0145639Y0274670D02*
X0143788Y0274670D01*
X0143788Y0277068D02*
X0145664Y0277068D01*
X0148539Y0276432D02*
X0158539Y0286432D01*
X0158539Y0313333D01*
X0153530Y0308249D02*
X0143549Y0308249D01*
X0143764Y0308769D02*
X0143764Y0317898D01*
X0142969Y0319818D01*
X0141499Y0321288D01*
X0139578Y0322083D01*
X0137500Y0322083D01*
X0135579Y0321288D01*
X0134110Y0319818D01*
X0133314Y0317898D01*
X0133314Y0308769D01*
X0134110Y0306849D01*
X0135579Y0305379D01*
X0135639Y0305354D01*
X0135639Y0291281D01*
X0134286Y0291281D01*
X0133290Y0290286D01*
X0133290Y0282578D01*
X0134286Y0281582D01*
X0142793Y0281582D01*
X0143788Y0282578D01*
X0143788Y0290286D01*
X0142793Y0291281D01*
X0141439Y0291281D01*
X0141439Y0305354D01*
X0141499Y0305379D01*
X0142969Y0306849D01*
X0143764Y0308769D01*
X0143764Y0310647D02*
X0153314Y0310647D01*
X0153314Y0313046D02*
X0143764Y0313046D01*
X0143764Y0315444D02*
X0153314Y0315444D01*
X0153314Y0317843D02*
X0143764Y0317843D01*
X0142545Y0320241D02*
X0154533Y0320241D01*
X0162545Y0320241D02*
X0173921Y0320241D01*
X0174172Y0320588D02*
X0173643Y0319859D01*
X0173234Y0319056D01*
X0172955Y0318199D01*
X0172814Y0317309D01*
X0172814Y0313333D01*
X0172814Y0309358D01*
X0172955Y0308468D01*
X0173234Y0307611D01*
X0173643Y0306808D01*
X0174172Y0306079D01*
X0174810Y0305442D01*
X0175539Y0304912D01*
X0176342Y0304503D01*
X0177199Y0304224D01*
X0178089Y0304083D01*
X0178539Y0304083D01*
X0178539Y0313333D01*
X0178539Y0313333D01*
X0172814Y0313333D01*
X0178539Y0313333D01*
X0178539Y0313333D01*
X0178539Y0304083D01*
X0178990Y0304083D01*
X0179880Y0304224D01*
X0180737Y0304503D01*
X0181540Y0304912D01*
X0182269Y0305442D01*
X0182906Y0306079D01*
X0183436Y0306808D01*
X0183845Y0307611D01*
X0184123Y0308468D01*
X0184264Y0309358D01*
X0184264Y0313333D01*
X0178539Y0313333D01*
X0178539Y0313333D01*
X0178539Y0322583D01*
X0178089Y0322583D01*
X0177199Y0322442D01*
X0176342Y0322164D01*
X0175539Y0321755D01*
X0174810Y0321225D01*
X0174172Y0320588D01*
X0172899Y0317843D02*
X0163764Y0317843D01*
X0163764Y0315444D02*
X0172814Y0315444D01*
X0172814Y0313046D02*
X0163764Y0313046D01*
X0163764Y0310647D02*
X0172814Y0310647D01*
X0173026Y0308249D02*
X0163549Y0308249D01*
X0161970Y0305850D02*
X0174401Y0305850D01*
X0178539Y0305850D02*
X0178539Y0305850D01*
X0178539Y0308249D02*
X0178539Y0308249D01*
X0178539Y0310647D02*
X0178539Y0310647D01*
X0178539Y0313046D02*
X0178539Y0313046D01*
X0178539Y0313333D02*
X0184264Y0313333D01*
X0184264Y0317309D01*
X0184123Y0318199D01*
X0183845Y0319056D01*
X0183436Y0319859D01*
X0182906Y0320588D01*
X0182269Y0321225D01*
X0181540Y0321755D01*
X0180737Y0322164D01*
X0179880Y0322442D01*
X0178990Y0322583D01*
X0178539Y0322583D01*
X0178539Y0313333D01*
X0178539Y0313333D01*
X0178539Y0315444D02*
X0178539Y0315444D01*
X0178539Y0317843D02*
X0178539Y0317843D01*
X0178539Y0320241D02*
X0178539Y0320241D01*
X0183158Y0320241D02*
X0309533Y0320241D01*
X0309554Y0320263D02*
X0308085Y0318793D01*
X0307289Y0316873D01*
X0307289Y0314794D01*
X0308085Y0312874D01*
X0309554Y0311404D01*
X0311475Y0310608D01*
X0320603Y0310608D01*
X0322524Y0311404D01*
X0323994Y0312874D01*
X0324789Y0314794D01*
X0324789Y0316873D01*
X0323994Y0318793D01*
X0322524Y0320263D01*
X0320603Y0321058D01*
X0311475Y0321058D01*
X0309554Y0320263D01*
X0307691Y0317843D02*
X0184180Y0317843D01*
X0184264Y0315444D02*
X0307289Y0315444D01*
X0308013Y0313046D02*
X0287308Y0313046D01*
X0288131Y0312705D02*
X0285151Y0313939D01*
X0281927Y0313939D01*
X0278948Y0312705D01*
X0276668Y0310425D01*
X0275434Y0307446D01*
X0275434Y0304221D01*
X0276668Y0301242D01*
X0278948Y0298962D01*
X0281927Y0297728D01*
X0285151Y0297728D01*
X0288131Y0298962D01*
X0290411Y0301242D01*
X0291645Y0304221D01*
X0291645Y0307446D01*
X0290411Y0310425D01*
X0288131Y0312705D01*
X0290188Y0310647D02*
X0311381Y0310647D01*
X0320697Y0310647D02*
X0335040Y0310647D01*
X0335040Y0308249D02*
X0291312Y0308249D01*
X0291645Y0305850D02*
X0335040Y0305850D01*
X0335040Y0303452D02*
X0291326Y0303452D01*
X0290222Y0301053D02*
X0311463Y0301053D01*
X0311475Y0301058D02*
X0309554Y0300263D01*
X0308085Y0298793D01*
X0307289Y0296873D01*
X0307289Y0294794D01*
X0308085Y0292874D01*
X0309554Y0291404D01*
X0311475Y0290608D01*
X0320603Y0290608D01*
X0322524Y0291404D01*
X0323994Y0292874D01*
X0324789Y0294794D01*
X0324789Y0296873D01*
X0323994Y0298793D01*
X0322524Y0300263D01*
X0320603Y0301058D01*
X0311475Y0301058D01*
X0308027Y0298655D02*
X0287389Y0298655D01*
X0279689Y0298655D02*
X0268788Y0298655D01*
X0268788Y0297578D02*
X0268788Y0305286D01*
X0267793Y0306281D01*
X0259286Y0306281D01*
X0258290Y0305286D01*
X0258290Y0303733D01*
X0255562Y0303733D01*
X0255511Y0303784D01*
X0254232Y0304314D01*
X0252847Y0304314D01*
X0251567Y0303784D01*
X0250588Y0302805D01*
X0250058Y0301526D01*
X0250058Y0300141D01*
X0250588Y0298861D01*
X0251567Y0297882D01*
X0252847Y0297352D01*
X0254232Y0297352D01*
X0255511Y0297882D01*
X0255562Y0297933D01*
X0258290Y0297933D01*
X0258290Y0297578D01*
X0259286Y0296582D01*
X0267793Y0296582D01*
X0268788Y0297578D01*
X0267793Y0295084D02*
X0268788Y0294089D01*
X0268788Y0286381D01*
X0267793Y0285385D01*
X0266439Y0285385D01*
X0266439Y0280256D01*
X0265998Y0279191D01*
X0259520Y0272713D01*
X0259520Y0272641D01*
X0258990Y0271361D01*
X0258011Y0270382D01*
X0256732Y0269852D01*
X0255347Y0269852D01*
X0254067Y0270382D01*
X0253088Y0271361D01*
X0252558Y0272641D01*
X0252558Y0274026D01*
X0253088Y0275305D01*
X0254067Y0276284D01*
X0255347Y0276814D01*
X0255419Y0276814D01*
X0260639Y0282035D01*
X0260639Y0285385D01*
X0259286Y0285385D01*
X0258290Y0286381D01*
X0258290Y0294089D01*
X0259286Y0295084D01*
X0267793Y0295084D01*
X0268788Y0293858D02*
X0307677Y0293858D01*
X0307289Y0296256D02*
X0161439Y0296256D01*
X0161439Y0293858D02*
X0258290Y0293858D01*
X0258290Y0291459D02*
X0161439Y0291459D01*
X0163788Y0289061D02*
X0258290Y0289061D01*
X0258290Y0286662D02*
X0163788Y0286662D01*
X0163788Y0284264D02*
X0260639Y0284264D01*
X0260470Y0281865D02*
X0163076Y0281865D01*
X0163410Y0279467D02*
X0258071Y0279467D01*
X0255673Y0277068D02*
X0163788Y0277068D01*
X0163788Y0274670D02*
X0252825Y0274670D01*
X0252711Y0272271D02*
X0163788Y0272271D01*
X0162146Y0269873D02*
X0255298Y0269873D01*
X0256781Y0269873D02*
X0335040Y0269873D01*
X0335040Y0272271D02*
X0323391Y0272271D01*
X0323994Y0272874D02*
X0322524Y0271404D01*
X0320603Y0270608D01*
X0311475Y0270608D01*
X0309554Y0271404D01*
X0308085Y0272874D01*
X0307289Y0274794D01*
X0307289Y0276873D01*
X0308085Y0278793D01*
X0309554Y0280263D01*
X0311475Y0281058D01*
X0320603Y0281058D01*
X0322524Y0280263D01*
X0323994Y0278793D01*
X0324789Y0276873D01*
X0324789Y0274794D01*
X0323994Y0272874D01*
X0324738Y0274670D02*
X0335040Y0274670D01*
X0335040Y0277068D02*
X0324708Y0277068D01*
X0323320Y0279467D02*
X0335040Y0279467D01*
X0335040Y0281865D02*
X0266439Y0281865D01*
X0266439Y0284264D02*
X0335040Y0284264D01*
X0335040Y0286662D02*
X0268788Y0286662D01*
X0268788Y0289061D02*
X0335040Y0289061D01*
X0335040Y0291459D02*
X0322579Y0291459D01*
X0324401Y0293858D02*
X0335040Y0293858D01*
X0335040Y0296256D02*
X0324789Y0296256D01*
X0324051Y0298655D02*
X0335040Y0298655D01*
X0335040Y0301053D02*
X0320616Y0301053D01*
X0324065Y0313046D02*
X0335040Y0313046D01*
X0335040Y0315444D02*
X0324789Y0315444D01*
X0324387Y0317843D02*
X0335040Y0317843D01*
X0335040Y0319333D02*
X0335040Y0027334D01*
X0320739Y0013033D01*
X0086339Y0013033D01*
X0075739Y0023633D01*
X0075739Y0063033D01*
X0083674Y0070968D01*
X0083961Y0070274D01*
X0085480Y0068755D01*
X0087465Y0067933D01*
X0089613Y0067933D01*
X0091598Y0068755D01*
X0093117Y0070274D01*
X0093939Y0072259D01*
X0093939Y0074407D01*
X0093117Y0076392D01*
X0091598Y0077911D01*
X0090904Y0078199D01*
X0091365Y0078659D01*
X0091598Y0078755D01*
X0091976Y0079133D01*
X0099945Y0079133D01*
X0101489Y0079773D01*
X0104236Y0082519D01*
X0107590Y0082519D01*
X0108586Y0083515D01*
X0108586Y0092010D01*
X0107590Y0093006D01*
X0105712Y0093006D01*
X0108539Y0095833D01*
X0108539Y0099610D01*
X0108586Y0099657D01*
X0108586Y0104940D01*
X0109600Y0105954D01*
X0110239Y0107498D01*
X0110239Y0113191D01*
X0110739Y0114398D01*
X0110739Y0117094D01*
X0112100Y0118454D01*
X0112739Y0119998D01*
X0112739Y0130385D01*
X0112793Y0130385D01*
X0113788Y0131381D01*
X0113788Y0139089D01*
X0112793Y0140084D01*
X0108539Y0140084D01*
X0108539Y0141582D01*
X0112793Y0141582D01*
X0113788Y0142578D01*
X0113788Y0150286D01*
X0112793Y0151281D01*
X0108539Y0151281D01*
X0108539Y0155833D01*
X0099640Y0164732D01*
X0098994Y0166293D01*
X0097524Y0167763D01*
X0095963Y0168409D01*
X0075739Y0188633D01*
X0075739Y0318033D01*
X0086339Y0328633D01*
X0325739Y0328633D01*
X0335040Y0319333D01*
X0334131Y0320241D02*
X0322545Y0320241D01*
X0329334Y0325038D02*
X0082744Y0325038D01*
X0083948Y0322705D02*
X0081668Y0320425D01*
X0080434Y0317446D01*
X0080434Y0314221D01*
X0081668Y0311242D01*
X0083948Y0308962D01*
X0086927Y0307728D01*
X0090151Y0307728D01*
X0093131Y0308962D01*
X0095411Y0311242D01*
X0096645Y0314221D01*
X0096645Y0317446D01*
X0095411Y0320425D01*
X0093131Y0322705D01*
X0090151Y0323939D01*
X0086927Y0323939D01*
X0083948Y0322705D01*
X0083883Y0322640D02*
X0080346Y0322640D01*
X0081592Y0320241D02*
X0077947Y0320241D01*
X0075739Y0317843D02*
X0080598Y0317843D01*
X0080434Y0315444D02*
X0075739Y0315444D01*
X0075739Y0313046D02*
X0080920Y0313046D01*
X0082262Y0310647D02*
X0075739Y0310647D01*
X0075739Y0308249D02*
X0085669Y0308249D01*
X0091409Y0308249D02*
X0133530Y0308249D01*
X0133314Y0310647D02*
X0094816Y0310647D01*
X0096158Y0313046D02*
X0133314Y0313046D01*
X0133314Y0315444D02*
X0096645Y0315444D01*
X0096480Y0317843D02*
X0133314Y0317843D01*
X0134533Y0320241D02*
X0095487Y0320241D01*
X0093196Y0322640D02*
X0331733Y0322640D01*
X0326936Y0327437D02*
X0085143Y0327437D01*
X0075739Y0305850D02*
X0135108Y0305850D01*
X0135639Y0303452D02*
X0075739Y0303452D01*
X0075739Y0301053D02*
X0135639Y0301053D01*
X0135639Y0298655D02*
X0075739Y0298655D01*
X0075739Y0296256D02*
X0135639Y0296256D01*
X0135639Y0293858D02*
X0075739Y0293858D01*
X0075739Y0291459D02*
X0135639Y0291459D01*
X0133290Y0289061D02*
X0075739Y0289061D01*
X0075739Y0286662D02*
X0133290Y0286662D01*
X0133290Y0284264D02*
X0075739Y0284264D01*
X0075739Y0281865D02*
X0134003Y0281865D01*
X0133668Y0279467D02*
X0075739Y0279467D01*
X0075739Y0277068D02*
X0133290Y0277068D01*
X0133290Y0274670D02*
X0075739Y0274670D01*
X0075739Y0272271D02*
X0133290Y0272271D01*
X0132346Y0269873D02*
X0101121Y0269873D01*
X0101431Y0269563D02*
X0100794Y0270200D01*
X0100065Y0270730D01*
X0099262Y0271139D01*
X0098405Y0271417D01*
X0097515Y0271558D01*
X0093539Y0271558D01*
X0089564Y0271558D01*
X0088674Y0271417D01*
X0087817Y0271139D01*
X0087014Y0270730D01*
X0086285Y0270200D01*
X0085647Y0269563D01*
X0085118Y0268834D01*
X0084709Y0268031D01*
X0084430Y0267174D01*
X0084289Y0266284D01*
X0084289Y0265833D01*
X0084289Y0265383D01*
X0084430Y0264493D01*
X0084709Y0263636D01*
X0085118Y0262833D01*
X0085647Y0262104D01*
X0086285Y0261467D01*
X0087014Y0260937D01*
X0087817Y0260528D01*
X0088674Y0260249D01*
X0089564Y0260108D01*
X0093539Y0260108D01*
X0093539Y0265833D01*
X0093539Y0265833D01*
X0084289Y0265833D01*
X0093539Y0265833D01*
X0093539Y0265833D01*
X0093539Y0260108D01*
X0097515Y0260108D01*
X0098405Y0260249D01*
X0099262Y0260528D01*
X0100065Y0260937D01*
X0100794Y0261467D01*
X0101431Y0262104D01*
X0101961Y0262833D01*
X0102370Y0263636D01*
X0102648Y0264493D01*
X0102789Y0265383D01*
X0102789Y0265833D01*
X0093539Y0265833D01*
X0093539Y0265833D01*
X0093539Y0271558D01*
X0093539Y0265833D01*
X0093539Y0265833D01*
X0102789Y0265833D01*
X0102789Y0266284D01*
X0102648Y0267174D01*
X0102370Y0268031D01*
X0101961Y0268834D01*
X0101431Y0269563D01*
X0102551Y0267474D02*
X0130058Y0267474D01*
X0129848Y0265076D02*
X0102741Y0265076D01*
X0101847Y0262677D02*
X0115535Y0262677D01*
X0115058Y0260279D02*
X0098495Y0260279D01*
X0093539Y0260279D02*
X0093539Y0260279D01*
X0093539Y0262677D02*
X0093539Y0262677D01*
X0093539Y0265076D02*
X0093539Y0265076D01*
X0093539Y0267474D02*
X0093539Y0267474D01*
X0093539Y0269873D02*
X0093539Y0269873D01*
X0085957Y0269873D02*
X0075739Y0269873D01*
X0075739Y0267474D02*
X0084528Y0267474D01*
X0084338Y0265076D02*
X0075739Y0265076D01*
X0075739Y0262677D02*
X0085231Y0262677D01*
X0088584Y0260279D02*
X0075739Y0260279D01*
X0075739Y0257880D02*
X0115639Y0257880D01*
X0115639Y0255481D02*
X0075739Y0255481D01*
X0075739Y0253083D02*
X0115639Y0253083D01*
X0108689Y0250684D02*
X0099006Y0250684D01*
X0093539Y0245833D02*
X0112941Y0245833D01*
X0118539Y0245833D02*
X0118539Y0260833D01*
X0121543Y0262677D02*
X0130729Y0262677D01*
X0131416Y0257880D02*
X0140639Y0257880D01*
X0140058Y0255481D02*
X0132992Y0255481D01*
X0135391Y0253083D02*
X0141367Y0253083D01*
X0143539Y0255833D02*
X0143539Y0265833D01*
X0148539Y0270833D01*
X0148539Y0276432D01*
X0147473Y0279467D02*
X0143410Y0279467D01*
X0143076Y0281865D02*
X0149871Y0281865D01*
X0152270Y0284264D02*
X0143788Y0284264D01*
X0143788Y0286662D02*
X0153290Y0286662D01*
X0153290Y0289061D02*
X0143788Y0289061D01*
X0141439Y0291459D02*
X0155639Y0291459D01*
X0155639Y0293858D02*
X0141439Y0293858D01*
X0141439Y0296256D02*
X0155639Y0296256D01*
X0155639Y0298655D02*
X0141439Y0298655D01*
X0141439Y0301053D02*
X0155639Y0301053D01*
X0155639Y0303452D02*
X0141439Y0303452D01*
X0141970Y0305850D02*
X0155108Y0305850D01*
X0161439Y0303452D02*
X0251235Y0303452D01*
X0250058Y0301053D02*
X0161439Y0301053D01*
X0161439Y0298655D02*
X0250795Y0298655D01*
X0253539Y0300833D02*
X0262941Y0300833D01*
X0263539Y0301432D01*
X0268788Y0301053D02*
X0276856Y0301053D01*
X0275752Y0303452D02*
X0268788Y0303452D01*
X0268224Y0305850D02*
X0275434Y0305850D01*
X0275766Y0308249D02*
X0184052Y0308249D01*
X0184264Y0310647D02*
X0276890Y0310647D01*
X0279771Y0313046D02*
X0184264Y0313046D01*
X0182677Y0305850D02*
X0258855Y0305850D01*
X0263539Y0290235D02*
X0263539Y0280833D01*
X0256039Y0273333D01*
X0259367Y0272271D02*
X0308687Y0272271D01*
X0307341Y0274670D02*
X0261477Y0274670D01*
X0263875Y0277068D02*
X0307370Y0277068D01*
X0308758Y0279467D02*
X0266112Y0279467D01*
X0268788Y0291459D02*
X0309499Y0291459D01*
X0335040Y0267474D02*
X0160412Y0267474D01*
X0158014Y0265076D02*
X0335040Y0265076D01*
X0335040Y0262677D02*
X0156349Y0262677D01*
X0150729Y0262677D02*
X0146439Y0262677D01*
X0146439Y0260279D02*
X0335040Y0260279D01*
X0335040Y0257880D02*
X0146439Y0257880D01*
X0147020Y0255481D02*
X0293486Y0255481D01*
X0293290Y0255286D02*
X0293290Y0253733D01*
X0292962Y0253733D01*
X0291896Y0253292D01*
X0291081Y0252476D01*
X0275419Y0236814D01*
X0275347Y0236814D01*
X0274067Y0236284D01*
X0273439Y0235656D01*
X0273439Y0236907D01*
X0272617Y0238892D01*
X0271098Y0240411D01*
X0270579Y0240626D01*
X0272098Y0241255D01*
X0273617Y0242774D01*
X0274439Y0244759D01*
X0274439Y0246907D01*
X0273617Y0248892D01*
X0272098Y0250411D01*
X0270113Y0251233D01*
X0267965Y0251233D01*
X0265980Y0250411D01*
X0264461Y0248892D01*
X0263639Y0246907D01*
X0263639Y0244759D01*
X0264461Y0242774D01*
X0265980Y0241255D01*
X0266499Y0241040D01*
X0264980Y0240411D01*
X0263901Y0239332D01*
X0258788Y0239332D01*
X0258788Y0240286D01*
X0257793Y0241281D01*
X0249286Y0241281D01*
X0248290Y0240286D01*
X0248290Y0232578D01*
X0249286Y0231582D01*
X0257793Y0231582D01*
X0258788Y0232578D01*
X0258788Y0233532D01*
X0263148Y0233532D01*
X0263461Y0232774D01*
X0264980Y0231255D01*
X0266499Y0230626D01*
X0265980Y0230411D01*
X0264461Y0228892D01*
X0263639Y0226907D01*
X0263639Y0224759D01*
X0263823Y0224314D01*
X0262847Y0224314D01*
X0261567Y0223784D01*
X0260588Y0222805D01*
X0260058Y0221526D01*
X0260058Y0220141D01*
X0260588Y0218861D01*
X0261567Y0217882D01*
X0262827Y0217360D01*
X0262639Y0216907D01*
X0262639Y0214759D01*
X0263461Y0212774D01*
X0264980Y0211255D01*
X0266499Y0210626D01*
X0265980Y0210411D01*
X0264461Y0208892D01*
X0263639Y0206907D01*
X0263639Y0204759D01*
X0264461Y0202774D01*
X0265980Y0201255D01*
X0266499Y0201040D01*
X0264980Y0200411D01*
X0263461Y0198892D01*
X0262639Y0196907D01*
X0262639Y0194759D01*
X0263461Y0192774D01*
X0264980Y0191255D01*
X0266499Y0190626D01*
X0265980Y0190411D01*
X0264461Y0188892D01*
X0263639Y0186907D01*
X0263639Y0184759D01*
X0264461Y0182774D01*
X0265980Y0181255D01*
X0266499Y0181040D01*
X0264980Y0180411D01*
X0263461Y0178892D01*
X0262639Y0176907D01*
X0262639Y0174759D01*
X0263461Y0172774D01*
X0264980Y0171255D01*
X0265926Y0170864D01*
X0265196Y0170334D01*
X0264539Y0169677D01*
X0263993Y0168926D01*
X0263571Y0168098D01*
X0263284Y0167215D01*
X0263139Y0166298D01*
X0263139Y0165833D01*
X0263139Y0165369D01*
X0263284Y0164452D01*
X0263571Y0163569D01*
X0263993Y0162741D01*
X0264539Y0161990D01*
X0265196Y0161333D01*
X0265926Y0160803D01*
X0264980Y0160411D01*
X0263461Y0158892D01*
X0262639Y0156907D01*
X0262639Y0154759D01*
X0263461Y0152774D01*
X0264980Y0151255D01*
X0266965Y0150433D01*
X0269113Y0150433D01*
X0271098Y0151255D01*
X0272617Y0152774D01*
X0273439Y0154759D01*
X0273439Y0156907D01*
X0272617Y0158892D01*
X0271183Y0160326D01*
X0271304Y0160366D01*
X0272131Y0160787D01*
X0272883Y0161333D01*
X0273539Y0161990D01*
X0274085Y0162741D01*
X0274507Y0163569D01*
X0274794Y0164452D01*
X0274939Y0165369D01*
X0274939Y0165833D01*
X0269039Y0165833D01*
X0263139Y0165833D01*
X0269039Y0165833D01*
X0269039Y0165833D01*
X0269039Y0165833D01*
X0274939Y0165833D01*
X0274939Y0166298D01*
X0274794Y0167215D01*
X0274507Y0168098D01*
X0274085Y0168926D01*
X0273539Y0169677D01*
X0272883Y0170334D01*
X0272131Y0170879D01*
X0271304Y0171301D01*
X0271183Y0171340D01*
X0272617Y0172774D01*
X0273439Y0174759D01*
X0273439Y0176907D01*
X0272617Y0178892D01*
X0271098Y0180411D01*
X0270579Y0180626D01*
X0272098Y0181255D01*
X0273617Y0182774D01*
X0274439Y0184759D01*
X0274439Y0186907D01*
X0273617Y0188892D01*
X0272098Y0190411D01*
X0270579Y0191040D01*
X0271098Y0191255D01*
X0272617Y0192774D01*
X0273439Y0194759D01*
X0273439Y0196907D01*
X0272617Y0198892D01*
X0271098Y0200411D01*
X0270579Y0200626D01*
X0272098Y0201255D01*
X0273617Y0202774D01*
X0274439Y0204759D01*
X0274439Y0206907D01*
X0273617Y0208892D01*
X0272098Y0210411D01*
X0270579Y0211040D01*
X0271098Y0211255D01*
X0272617Y0212774D01*
X0273439Y0214759D01*
X0273439Y0216907D01*
X0273014Y0217933D01*
X0296018Y0217933D01*
X0297083Y0218375D01*
X0297791Y0219082D01*
X0302793Y0219082D01*
X0303788Y0220078D01*
X0303788Y0222933D01*
X0313060Y0222933D01*
X0313085Y0222874D01*
X0314554Y0221404D01*
X0316475Y0220608D01*
X0325603Y0220608D01*
X0327524Y0221404D01*
X0328994Y0222874D01*
X0329789Y0224794D01*
X0329789Y0226873D01*
X0328994Y0228793D01*
X0327524Y0230263D01*
X0325603Y0231058D01*
X0316475Y0231058D01*
X0314554Y0230263D01*
X0313085Y0228793D01*
X0313060Y0228733D01*
X0302841Y0228733D01*
X0302793Y0228781D01*
X0294286Y0228781D01*
X0293290Y0227786D01*
X0293290Y0223733D01*
X0274014Y0223733D01*
X0274439Y0224759D01*
X0274439Y0226907D01*
X0273617Y0228892D01*
X0272098Y0230411D01*
X0270579Y0231040D01*
X0271098Y0231255D01*
X0272558Y0232715D01*
X0272558Y0232641D01*
X0273088Y0231361D01*
X0274067Y0230382D01*
X0275347Y0229852D01*
X0276732Y0229852D01*
X0278011Y0230382D01*
X0278990Y0231361D01*
X0279520Y0232641D01*
X0279520Y0232713D01*
X0293838Y0247030D01*
X0294286Y0246582D01*
X0302793Y0246582D01*
X0303788Y0247578D01*
X0303788Y0248532D01*
X0309722Y0248532D01*
X0312392Y0247121D01*
X0312289Y0246873D01*
X0312289Y0244794D01*
X0313085Y0242874D01*
X0314554Y0241404D01*
X0316475Y0240608D01*
X0325603Y0240608D01*
X0327524Y0241404D01*
X0328994Y0242874D01*
X0329789Y0244794D01*
X0329789Y0246873D01*
X0328994Y0248793D01*
X0327524Y0250263D01*
X0325603Y0251058D01*
X0317357Y0251058D01*
X0312182Y0253792D01*
X0312083Y0253890D01*
X0311676Y0254059D01*
X0311285Y0254265D01*
X0311146Y0254278D01*
X0311018Y0254332D01*
X0310576Y0254332D01*
X0310137Y0254373D01*
X0310003Y0254332D01*
X0303788Y0254332D01*
X0303788Y0255286D01*
X0302793Y0256281D01*
X0294286Y0256281D01*
X0293290Y0255286D01*
X0291688Y0253083D02*
X0145712Y0253083D01*
X0140188Y0248286D02*
X0264210Y0248286D01*
X0263639Y0245887D02*
X0141439Y0245887D01*
X0141439Y0243489D02*
X0264165Y0243489D01*
X0266379Y0241090D02*
X0257983Y0241090D01*
X0253539Y0236432D02*
X0267441Y0236432D01*
X0268039Y0235833D01*
X0271700Y0241090D02*
X0279695Y0241090D01*
X0277297Y0238692D02*
X0272700Y0238692D01*
X0273439Y0236293D02*
X0274089Y0236293D01*
X0276039Y0233333D02*
X0293539Y0250833D01*
X0297941Y0250833D01*
X0298539Y0251432D01*
X0310441Y0251432D01*
X0321039Y0245833D01*
X0326506Y0250684D02*
X0335040Y0250684D01*
X0335040Y0248286D02*
X0329204Y0248286D01*
X0329789Y0245887D02*
X0335040Y0245887D01*
X0335040Y0243489D02*
X0329249Y0243489D01*
X0326767Y0241090D02*
X0335040Y0241090D01*
X0335040Y0238692D02*
X0303788Y0238692D01*
X0303788Y0236381D02*
X0302793Y0235385D01*
X0299236Y0235385D01*
X0297020Y0231911D01*
X0297020Y0230848D01*
X0296024Y0229852D01*
X0294933Y0229852D01*
X0293620Y0229562D01*
X0292170Y0229818D01*
X0292117Y0229852D01*
X0291054Y0229852D01*
X0290058Y0230848D01*
X0290058Y0231939D01*
X0289768Y0233253D01*
X0290024Y0234702D01*
X0290058Y0234756D01*
X0290058Y0235819D01*
X0291054Y0236814D01*
X0291371Y0236814D01*
X0293290Y0239824D01*
X0293290Y0244089D01*
X0294286Y0245084D01*
X0302793Y0245084D01*
X0303788Y0244089D01*
X0303788Y0236381D01*
X0303701Y0236293D02*
X0335040Y0236293D01*
X0335040Y0233895D02*
X0298286Y0233895D01*
X0297020Y0231496D02*
X0335040Y0231496D01*
X0335040Y0229098D02*
X0328689Y0229098D01*
X0329789Y0226699D02*
X0335040Y0226699D01*
X0335040Y0224301D02*
X0329585Y0224301D01*
X0328022Y0221902D02*
X0335040Y0221902D01*
X0335040Y0219504D02*
X0303214Y0219504D01*
X0302793Y0217584D02*
X0294286Y0217584D01*
X0293290Y0216589D01*
X0293290Y0208881D01*
X0294286Y0207885D01*
X0294839Y0207885D01*
X0294839Y0207366D01*
X0291788Y0204314D01*
X0291054Y0204314D01*
X0290058Y0203319D01*
X0290058Y0202098D01*
X0289839Y0201569D01*
X0289839Y0200097D01*
X0290058Y0199569D01*
X0290058Y0198348D01*
X0291054Y0197352D01*
X0292275Y0197352D01*
X0292803Y0197133D01*
X0294275Y0197133D01*
X0294804Y0197352D01*
X0296024Y0197352D01*
X0297020Y0198348D01*
X0297020Y0199082D01*
X0301676Y0203737D01*
X0302239Y0205097D01*
X0302239Y0207885D01*
X0302793Y0207885D01*
X0303788Y0208881D01*
X0303788Y0216589D01*
X0302793Y0217584D01*
X0303272Y0217105D02*
X0335040Y0217105D01*
X0335040Y0214707D02*
X0303788Y0214707D01*
X0303788Y0212308D02*
X0335040Y0212308D01*
X0335040Y0209910D02*
X0328584Y0209910D01*
X0328294Y0210200D02*
X0327565Y0210730D01*
X0326762Y0211139D01*
X0325905Y0211417D01*
X0325015Y0211558D01*
X0321039Y0211558D01*
X0317064Y0211558D01*
X0316174Y0211417D01*
X0315317Y0211139D01*
X0314514Y0210730D01*
X0313785Y0210200D01*
X0313147Y0209563D01*
X0312618Y0208834D01*
X0312209Y0208031D01*
X0311930Y0207174D01*
X0311789Y0206284D01*
X0311789Y0205833D01*
X0311789Y0205383D01*
X0311930Y0204493D01*
X0312209Y0203636D01*
X0312618Y0202833D01*
X0313147Y0202104D01*
X0313785Y0201467D01*
X0314514Y0200937D01*
X0315317Y0200528D01*
X0316174Y0200249D01*
X0317064Y0200108D01*
X0321039Y0200108D01*
X0321039Y0205833D01*
X0321039Y0205833D01*
X0311789Y0205833D01*
X0321039Y0205833D01*
X0321039Y0205833D01*
X0321039Y0200108D01*
X0325015Y0200108D01*
X0325905Y0200249D01*
X0326762Y0200528D01*
X0327565Y0200937D01*
X0328294Y0201467D01*
X0328931Y0202104D01*
X0329461Y0202833D01*
X0329870Y0203636D01*
X0330148Y0204493D01*
X0330289Y0205383D01*
X0330289Y0205833D01*
X0321039Y0205833D01*
X0321039Y0205833D01*
X0321039Y0211558D01*
X0321039Y0205833D01*
X0321039Y0205833D01*
X0330289Y0205833D01*
X0330289Y0206284D01*
X0330148Y0207174D01*
X0329870Y0208031D01*
X0329461Y0208834D01*
X0328931Y0209563D01*
X0328294Y0210200D01*
X0330039Y0207511D02*
X0335040Y0207511D01*
X0335040Y0205113D02*
X0330246Y0205113D01*
X0329375Y0202714D02*
X0335040Y0202714D01*
X0335040Y0200316D02*
X0326109Y0200316D01*
X0321039Y0200316D02*
X0321039Y0200316D01*
X0321039Y0202714D02*
X0321039Y0202714D01*
X0321039Y0205113D02*
X0321039Y0205113D01*
X0321039Y0207511D02*
X0321039Y0207511D01*
X0321039Y0209910D02*
X0321039Y0209910D01*
X0313494Y0209910D02*
X0303788Y0209910D01*
X0302239Y0207511D02*
X0312040Y0207511D01*
X0311832Y0205113D02*
X0302239Y0205113D01*
X0300653Y0202714D02*
X0312704Y0202714D01*
X0315969Y0200316D02*
X0298254Y0200316D01*
X0296589Y0197917D02*
X0335040Y0197917D01*
X0335040Y0195519D02*
X0273439Y0195519D01*
X0273021Y0197917D02*
X0290489Y0197917D01*
X0289839Y0200316D02*
X0271194Y0200316D01*
X0273557Y0202714D02*
X0290058Y0202714D01*
X0292586Y0205113D02*
X0274439Y0205113D01*
X0274189Y0207511D02*
X0294839Y0207511D01*
X0293290Y0209910D02*
X0272599Y0209910D01*
X0272151Y0212308D02*
X0293290Y0212308D01*
X0293290Y0214707D02*
X0273417Y0214707D01*
X0273357Y0217105D02*
X0293807Y0217105D01*
X0295441Y0220833D02*
X0298539Y0223932D01*
X0300441Y0225833D01*
X0321039Y0225833D01*
X0314056Y0221902D02*
X0303788Y0221902D01*
X0313389Y0229098D02*
X0273411Y0229098D01*
X0273032Y0231496D02*
X0271339Y0231496D01*
X0274439Y0226699D02*
X0293290Y0226699D01*
X0293290Y0224301D02*
X0274249Y0224301D01*
X0273539Y0220833D02*
X0295441Y0220833D01*
X0290058Y0231496D02*
X0279046Y0231496D01*
X0280702Y0233895D02*
X0289881Y0233895D01*
X0290533Y0236293D02*
X0283100Y0236293D01*
X0285499Y0238692D02*
X0292568Y0238692D01*
X0293290Y0241090D02*
X0287897Y0241090D01*
X0290296Y0243489D02*
X0293290Y0243489D01*
X0292695Y0245887D02*
X0312289Y0245887D01*
X0312830Y0243489D02*
X0303788Y0243489D01*
X0303788Y0241090D02*
X0315311Y0241090D01*
X0310187Y0248286D02*
X0303788Y0248286D01*
X0303592Y0255481D02*
X0335040Y0255481D01*
X0335040Y0253083D02*
X0313524Y0253083D01*
X0289289Y0250684D02*
X0271438Y0250684D01*
X0273868Y0248286D02*
X0286891Y0248286D01*
X0284492Y0245887D02*
X0274439Y0245887D01*
X0273913Y0243489D02*
X0282094Y0243489D01*
X0266640Y0250684D02*
X0137789Y0250684D01*
X0138539Y0245833D02*
X0128539Y0255833D01*
X0138539Y0245833D02*
X0138539Y0240833D01*
X0142020Y0241090D02*
X0249095Y0241090D01*
X0248290Y0238692D02*
X0141321Y0238692D01*
X0125058Y0233895D02*
X0075739Y0233895D01*
X0075739Y0236293D02*
X0122847Y0236293D01*
X0120772Y0238692D02*
X0075739Y0238692D01*
X0075739Y0241090D02*
X0087811Y0241090D01*
X0085330Y0243489D02*
X0075739Y0243489D01*
X0075739Y0245887D02*
X0084789Y0245887D01*
X0085375Y0248286D02*
X0075739Y0248286D01*
X0075739Y0250684D02*
X0088072Y0250684D01*
X0099267Y0241090D02*
X0108581Y0241090D01*
X0117301Y0241090D02*
X0119778Y0241090D01*
X0119288Y0229098D02*
X0117790Y0229098D01*
X0117790Y0226699D02*
X0119288Y0226699D01*
X0119288Y0224301D02*
X0117790Y0224301D01*
X0117790Y0221902D02*
X0119288Y0221902D01*
X0112941Y0225833D02*
X0093539Y0225833D01*
X0100522Y0221902D02*
X0108091Y0221902D01*
X0108091Y0229098D02*
X0101189Y0229098D01*
X0100377Y0209910D02*
X0108091Y0209910D01*
X0112941Y0205833D02*
X0093539Y0205833D01*
X0101334Y0202714D02*
X0108091Y0202714D01*
X0109087Y0191083D02*
X0108091Y0190087D01*
X0108091Y0188733D01*
X0101518Y0188733D01*
X0101494Y0188793D01*
X0100024Y0190263D01*
X0098103Y0191058D01*
X0088975Y0191058D01*
X0087054Y0190263D01*
X0085585Y0188793D01*
X0084789Y0186873D01*
X0084789Y0184794D01*
X0085585Y0182874D01*
X0087054Y0181404D01*
X0088975Y0180608D01*
X0098103Y0180608D01*
X0100024Y0181404D01*
X0101494Y0182874D01*
X0101518Y0182933D01*
X0108091Y0182933D01*
X0108091Y0181580D01*
X0109087Y0180584D01*
X0116795Y0180584D01*
X0117790Y0181580D01*
X0117790Y0190087D01*
X0116795Y0191083D01*
X0109087Y0191083D01*
X0108726Y0190722D02*
X0098916Y0190722D01*
X0093539Y0185833D02*
X0112941Y0185833D01*
X0117790Y0185925D02*
X0119288Y0185925D01*
X0119288Y0188323D02*
X0117790Y0188323D01*
X0119288Y0190087D02*
X0120284Y0191083D01*
X0127991Y0191083D01*
X0128987Y0190087D01*
X0128987Y0181580D01*
X0128873Y0181466D01*
X0129520Y0180819D01*
X0129520Y0179598D01*
X0129739Y0179069D01*
X0129739Y0177597D01*
X0129520Y0177069D01*
X0129520Y0175848D01*
X0128524Y0174852D01*
X0127304Y0174852D01*
X0126775Y0174633D01*
X0125303Y0174633D01*
X0124775Y0174852D01*
X0123554Y0174852D01*
X0122558Y0175848D01*
X0122558Y0176582D01*
X0121001Y0178139D01*
X0120438Y0179499D01*
X0120438Y0180584D01*
X0120284Y0180584D01*
X0119288Y0181580D01*
X0119288Y0190087D01*
X0119923Y0190722D02*
X0117155Y0190722D01*
X0117790Y0183526D02*
X0119288Y0183526D01*
X0119740Y0181128D02*
X0117338Y0181128D01*
X0120756Y0178729D02*
X0085643Y0178729D01*
X0087721Y0181128D02*
X0083245Y0181128D01*
X0085314Y0183526D02*
X0080846Y0183526D01*
X0078448Y0185925D02*
X0084789Y0185925D01*
X0085390Y0188323D02*
X0076049Y0188323D01*
X0075739Y0190722D02*
X0088162Y0190722D01*
X0075739Y0193120D02*
X0148142Y0193120D01*
X0147639Y0190722D02*
X0128352Y0190722D01*
X0128987Y0188323D02*
X0148234Y0188323D01*
X0150779Y0185925D02*
X0128987Y0185925D01*
X0128987Y0183526D02*
X0149310Y0183526D01*
X0148639Y0181128D02*
X0129211Y0181128D01*
X0129739Y0178729D02*
X0149066Y0178729D01*
X0150905Y0176331D02*
X0129520Y0176331D01*
X0127655Y0173932D02*
X0148501Y0173932D01*
X0153039Y0170833D02*
X0126039Y0170833D01*
X0124424Y0173932D02*
X0090440Y0173932D01*
X0088042Y0176331D02*
X0122558Y0176331D01*
X0122561Y0171534D02*
X0092839Y0171534D01*
X0095237Y0169135D02*
X0122975Y0169135D01*
X0126567Y0158784D02*
X0125588Y0157805D01*
X0125058Y0156526D01*
X0125058Y0155141D01*
X0125588Y0153861D01*
X0126567Y0152882D01*
X0127847Y0152352D01*
X0127919Y0152352D01*
X0140058Y0140213D01*
X0140058Y0140141D01*
X0140588Y0138861D01*
X0141567Y0137882D01*
X0142847Y0137352D01*
X0144232Y0137352D01*
X0145511Y0137882D01*
X0146490Y0138861D01*
X0147020Y0140141D01*
X0147020Y0141526D01*
X0146490Y0142805D01*
X0145511Y0143784D01*
X0144232Y0144314D01*
X0144159Y0144314D01*
X0132020Y0156453D01*
X0132020Y0156526D01*
X0131490Y0157805D01*
X0130511Y0158784D01*
X0129232Y0159314D01*
X0127847Y0159314D01*
X0126567Y0158784D01*
X0125314Y0157143D02*
X0107230Y0157143D01*
X0108539Y0154744D02*
X0125222Y0154744D01*
X0128539Y0155833D02*
X0143539Y0140833D01*
X0147020Y0140353D02*
X0148639Y0140353D01*
X0148989Y0142751D02*
X0146513Y0142751D01*
X0143324Y0145150D02*
X0150719Y0145150D01*
X0148687Y0147548D02*
X0140925Y0147548D01*
X0138527Y0149947D02*
X0147639Y0149947D01*
X0147821Y0152345D02*
X0136128Y0152345D01*
X0133730Y0154744D02*
X0149313Y0154744D01*
X0150093Y0157143D02*
X0131765Y0157143D01*
X0127926Y0152345D02*
X0108539Y0152345D01*
X0113788Y0149947D02*
X0130324Y0149947D01*
X0132723Y0147548D02*
X0113788Y0147548D01*
X0113788Y0145150D02*
X0135121Y0145150D01*
X0137520Y0142751D02*
X0131513Y0142751D01*
X0131490Y0142805D02*
X0130511Y0143784D01*
X0129232Y0144314D01*
X0127847Y0144314D01*
X0126567Y0143784D01*
X0125588Y0142805D01*
X0125058Y0141526D01*
X0125058Y0140141D01*
X0125588Y0138861D01*
X0126567Y0137882D01*
X0127847Y0137352D01*
X0127919Y0137352D01*
X0140058Y0125213D01*
X0140058Y0125141D01*
X0140588Y0123861D01*
X0141567Y0122882D01*
X0142847Y0122352D01*
X0144232Y0122352D01*
X0145511Y0122882D01*
X0146490Y0123861D01*
X0147020Y0125141D01*
X0147020Y0126526D01*
X0146490Y0127805D01*
X0145511Y0128784D01*
X0144232Y0129314D01*
X0144159Y0129314D01*
X0132020Y0141453D01*
X0132020Y0141526D01*
X0131490Y0142805D01*
X0133121Y0140353D02*
X0139918Y0140353D01*
X0141495Y0137954D02*
X0135519Y0137954D01*
X0137918Y0135556D02*
X0150330Y0135556D01*
X0149387Y0137954D02*
X0145583Y0137954D01*
X0148157Y0133157D02*
X0140316Y0133157D01*
X0142715Y0130759D02*
X0147639Y0130759D01*
X0148219Y0128360D02*
X0145935Y0128360D01*
X0147020Y0125962D02*
X0150689Y0125962D01*
X0149325Y0123563D02*
X0146192Y0123563D01*
X0148639Y0121165D02*
X0142309Y0121165D01*
X0144159Y0119314D02*
X0132020Y0131453D01*
X0132020Y0131526D01*
X0131490Y0132805D01*
X0130511Y0133784D01*
X0129232Y0134314D01*
X0127847Y0134314D01*
X0126567Y0133784D01*
X0125588Y0132805D01*
X0125058Y0131526D01*
X0125058Y0130141D01*
X0125588Y0128861D01*
X0126567Y0127882D01*
X0127847Y0127352D01*
X0127919Y0127352D01*
X0140058Y0115213D01*
X0140058Y0115141D01*
X0140588Y0113861D01*
X0141567Y0112882D01*
X0142847Y0112352D01*
X0144232Y0112352D01*
X0145511Y0112882D01*
X0146490Y0113861D01*
X0147020Y0115141D01*
X0147020Y0116526D01*
X0146490Y0117805D01*
X0145511Y0118784D01*
X0144232Y0119314D01*
X0144159Y0119314D01*
X0145529Y0118766D02*
X0149050Y0118766D01*
X0150868Y0116368D02*
X0147020Y0116368D01*
X0146535Y0113969D02*
X0148538Y0113969D01*
X0147639Y0111571D02*
X0110239Y0111571D01*
X0110239Y0109172D02*
X0147882Y0109172D01*
X0149462Y0106774D02*
X0109939Y0106774D01*
X0108586Y0104375D02*
X0163944Y0104375D01*
X0162668Y0101977D02*
X0108586Y0101977D01*
X0108539Y0099578D02*
X0162714Y0099578D01*
X0164056Y0097180D02*
X0108539Y0097180D01*
X0107487Y0094781D02*
X0165350Y0094781D01*
X0163836Y0092383D02*
X0108213Y0092383D01*
X0108586Y0089984D02*
X0163639Y0089984D01*
X0164650Y0087586D02*
X0108586Y0087586D01*
X0108586Y0085187D02*
X0164756Y0085187D01*
X0163004Y0082789D02*
X0107859Y0082789D01*
X0102107Y0080390D02*
X0162639Y0080390D01*
X0163371Y0077992D02*
X0091404Y0077992D01*
X0093448Y0075593D02*
X0166579Y0075593D01*
X0169499Y0075593D02*
X0176670Y0075593D01*
X0175784Y0085187D02*
X0171322Y0085187D01*
X0173428Y0087586D02*
X0200497Y0087586D01*
X0200588Y0087805D02*
X0200058Y0086526D01*
X0200058Y0085141D01*
X0200588Y0083861D01*
X0201567Y0082882D01*
X0202847Y0082352D01*
X0204232Y0082352D01*
X0205511Y0082882D01*
X0206490Y0083861D01*
X0207020Y0085141D01*
X0207020Y0086526D01*
X0206490Y0087805D01*
X0206439Y0087856D01*
X0206439Y0091410D01*
X0205998Y0092476D01*
X0202020Y0096453D01*
X0202020Y0096526D01*
X0201490Y0097805D01*
X0200511Y0098784D01*
X0199232Y0099314D01*
X0197847Y0099314D01*
X0196567Y0098784D01*
X0195588Y0097805D01*
X0195058Y0096526D01*
X0195058Y0095141D01*
X0195588Y0093861D01*
X0196567Y0092882D01*
X0197847Y0092352D01*
X0197919Y0092352D01*
X0200639Y0089632D01*
X0200639Y0087856D01*
X0200588Y0087805D01*
X0200287Y0089984D02*
X0174439Y0089984D01*
X0174242Y0092383D02*
X0197773Y0092383D01*
X0195207Y0094781D02*
X0172728Y0094781D01*
X0172022Y0097180D02*
X0195329Y0097180D01*
X0198539Y0095833D02*
X0203539Y0090833D01*
X0203539Y0085833D01*
X0201793Y0082789D02*
X0196901Y0082789D01*
X0196901Y0081208D02*
X0196901Y0084666D01*
X0196751Y0085226D01*
X0196461Y0085727D01*
X0196051Y0086137D01*
X0195550Y0086427D01*
X0194990Y0086577D01*
X0191926Y0086577D01*
X0191926Y0081208D01*
X0196901Y0081208D01*
X0196901Y0080459D02*
X0191926Y0080459D01*
X0191926Y0081208D01*
X0191176Y0081208D01*
X0191176Y0080459D01*
X0186201Y0080459D01*
X0186201Y0077000D01*
X0186351Y0076441D01*
X0186641Y0075939D01*
X0187051Y0075530D01*
X0187552Y0075240D01*
X0188112Y0075090D01*
X0191176Y0075090D01*
X0191176Y0080458D01*
X0191926Y0080458D01*
X0191926Y0075090D01*
X0194990Y0075090D01*
X0195550Y0075240D01*
X0196051Y0075530D01*
X0196461Y0075939D01*
X0196751Y0076441D01*
X0196901Y0077000D01*
X0196901Y0080459D01*
X0196901Y0080390D02*
X0222139Y0080390D01*
X0222471Y0082789D02*
X0215285Y0082789D01*
X0211793Y0082789D02*
X0205285Y0082789D01*
X0207020Y0085187D02*
X0210058Y0085187D01*
X0210497Y0087586D02*
X0206581Y0087586D01*
X0206439Y0089984D02*
X0223639Y0089984D01*
X0223836Y0092383D02*
X0206036Y0092383D01*
X0203692Y0094781D02*
X0225350Y0094781D01*
X0224056Y0097180D02*
X0201749Y0097180D01*
X0191176Y0086577D02*
X0188112Y0086577D01*
X0187552Y0086427D01*
X0187051Y0086137D01*
X0186641Y0085727D01*
X0186351Y0085226D01*
X0186201Y0084666D01*
X0186201Y0081208D01*
X0191176Y0081208D01*
X0191176Y0086577D01*
X0191176Y0085187D02*
X0191926Y0085187D01*
X0191926Y0082789D02*
X0191176Y0082789D01*
X0191176Y0080390D02*
X0191926Y0080390D01*
X0191926Y0077992D02*
X0191176Y0077992D01*
X0191176Y0075593D02*
X0191926Y0075593D01*
X0196115Y0075593D02*
X0225328Y0075593D01*
X0228039Y0075593D02*
X0228039Y0075593D01*
X0228039Y0077992D02*
X0228039Y0077992D01*
X0228039Y0080390D02*
X0228039Y0080390D01*
X0230751Y0075593D02*
X0266420Y0075593D01*
X0264172Y0073195D02*
X0093939Y0073195D01*
X0093333Y0070796D02*
X0263639Y0070796D01*
X0264203Y0068398D02*
X0230898Y0068398D01*
X0230511Y0068784D02*
X0229232Y0069314D01*
X0227847Y0069314D01*
X0226567Y0068784D01*
X0225588Y0067805D01*
X0225058Y0066526D01*
X0225058Y0065141D01*
X0225588Y0063861D01*
X0225639Y0063810D01*
X0225639Y0045977D01*
X0225480Y0045911D01*
X0223961Y0044392D01*
X0223570Y0043447D01*
X0223039Y0044177D01*
X0222383Y0044834D01*
X0221631Y0045379D01*
X0220804Y0045801D01*
X0219921Y0046088D01*
X0219004Y0046233D01*
X0218539Y0046233D01*
X0218075Y0046233D01*
X0217158Y0046088D01*
X0216274Y0045801D01*
X0215447Y0045379D01*
X0214696Y0044834D01*
X0214039Y0044177D01*
X0213493Y0043426D01*
X0213071Y0042598D01*
X0212784Y0041715D01*
X0212639Y0040798D01*
X0212639Y0040333D01*
X0212639Y0039869D01*
X0212784Y0038952D01*
X0213071Y0038069D01*
X0213493Y0037241D01*
X0214039Y0036490D01*
X0214696Y0035833D01*
X0215447Y0035287D01*
X0216274Y0034866D01*
X0217158Y0034579D01*
X0218075Y0034433D01*
X0218539Y0034433D01*
X0218539Y0040333D01*
X0218539Y0040333D01*
X0212639Y0040333D01*
X0218539Y0040333D01*
X0218539Y0040333D01*
X0218539Y0034433D01*
X0219004Y0034433D01*
X0219921Y0034579D01*
X0220804Y0034866D01*
X0221631Y0035287D01*
X0222383Y0035833D01*
X0223039Y0036490D01*
X0223585Y0037241D01*
X0224007Y0038069D01*
X0224046Y0038190D01*
X0225480Y0036755D01*
X0227465Y0035933D01*
X0229613Y0035933D01*
X0231598Y0036755D01*
X0233117Y0038274D01*
X0233139Y0038328D01*
X0233139Y0035929D01*
X0234135Y0034933D01*
X0242943Y0034933D01*
X0243939Y0035929D01*
X0243939Y0044737D01*
X0242943Y0045733D01*
X0241439Y0045733D01*
X0241439Y0054632D01*
X0246659Y0059852D01*
X0246732Y0059852D01*
X0248011Y0060382D01*
X0248990Y0061361D01*
X0249520Y0062641D01*
X0249520Y0064026D01*
X0248990Y0065305D01*
X0248011Y0066284D01*
X0246732Y0066814D01*
X0245347Y0066814D01*
X0244067Y0066284D01*
X0243088Y0065305D01*
X0242558Y0064026D01*
X0242558Y0063953D01*
X0236896Y0058292D01*
X0236081Y0057476D01*
X0235639Y0056410D01*
X0235639Y0045733D01*
X0234135Y0045733D01*
X0233139Y0044737D01*
X0233139Y0044339D01*
X0233117Y0044392D01*
X0231598Y0045911D01*
X0231439Y0045977D01*
X0231439Y0063810D01*
X0231490Y0063861D01*
X0232020Y0065141D01*
X0232020Y0066526D01*
X0231490Y0067805D01*
X0230511Y0068784D01*
X0232020Y0065999D02*
X0243782Y0065999D01*
X0242205Y0063601D02*
X0231439Y0063601D01*
X0231439Y0061202D02*
X0239807Y0061202D01*
X0237408Y0058804D02*
X0231439Y0058804D01*
X0231439Y0056405D02*
X0235639Y0056405D01*
X0235639Y0054007D02*
X0231439Y0054007D01*
X0231439Y0051608D02*
X0235639Y0051608D01*
X0235639Y0049210D02*
X0231439Y0049210D01*
X0231439Y0046811D02*
X0235639Y0046811D01*
X0233139Y0044412D02*
X0233097Y0044412D01*
X0228539Y0041333D02*
X0228539Y0065833D01*
X0226180Y0068398D02*
X0090734Y0068398D01*
X0086344Y0068398D02*
X0081103Y0068398D01*
X0078705Y0065999D02*
X0225058Y0065999D01*
X0225639Y0063601D02*
X0210695Y0063601D01*
X0210511Y0063784D02*
X0209232Y0064314D01*
X0207847Y0064314D01*
X0206567Y0063784D01*
X0205588Y0062805D01*
X0205058Y0061526D01*
X0205058Y0060141D01*
X0205588Y0058861D01*
X0205639Y0058810D01*
X0205639Y0042856D01*
X0205588Y0042805D01*
X0205058Y0041526D01*
X0205058Y0040141D01*
X0205588Y0038861D01*
X0206567Y0037882D01*
X0207847Y0037352D01*
X0209232Y0037352D01*
X0210511Y0037882D01*
X0211490Y0038861D01*
X0212020Y0040141D01*
X0212020Y0041526D01*
X0211490Y0042805D01*
X0211439Y0042856D01*
X0211439Y0058810D01*
X0211490Y0058861D01*
X0212020Y0060141D01*
X0212020Y0061526D01*
X0211490Y0062805D01*
X0210511Y0063784D01*
X0212020Y0061202D02*
X0225639Y0061202D01*
X0225639Y0058804D02*
X0211439Y0058804D01*
X0211439Y0056405D02*
X0225639Y0056405D01*
X0225639Y0054007D02*
X0211439Y0054007D01*
X0211439Y0051608D02*
X0225639Y0051608D01*
X0225639Y0049210D02*
X0211439Y0049210D01*
X0211439Y0046811D02*
X0225639Y0046811D01*
X0223982Y0044412D02*
X0222804Y0044412D01*
X0218539Y0044412D02*
X0218539Y0044412D01*
X0218539Y0046233D02*
X0218539Y0040333D01*
X0218539Y0040333D01*
X0218539Y0046233D01*
X0218539Y0042014D02*
X0218539Y0042014D01*
X0218539Y0039615D02*
X0218539Y0039615D01*
X0218539Y0037217D02*
X0218539Y0037217D01*
X0218539Y0034818D02*
X0218539Y0034818D01*
X0216419Y0034818D02*
X0136339Y0034818D01*
X0136598Y0034711D02*
X0134734Y0035483D01*
X0136598Y0036255D01*
X0138117Y0037774D01*
X0138939Y0039759D01*
X0138939Y0041907D01*
X0138117Y0043892D01*
X0136598Y0045411D01*
X0135364Y0045923D01*
X0135804Y0046066D01*
X0136631Y0046487D01*
X0137383Y0047033D01*
X0138039Y0047690D01*
X0138585Y0048441D01*
X0139007Y0049269D01*
X0139294Y0050152D01*
X0139439Y0051069D01*
X0139439Y0051533D01*
X0133539Y0051533D01*
X0127639Y0051533D01*
X0127639Y0051069D01*
X0127784Y0050152D01*
X0128071Y0049269D01*
X0128493Y0048441D01*
X0129039Y0047690D01*
X0129696Y0047033D01*
X0130447Y0046487D01*
X0131274Y0046066D01*
X0131715Y0045923D01*
X0130480Y0045411D01*
X0128961Y0043892D01*
X0128139Y0041907D01*
X0128139Y0039759D01*
X0128961Y0037774D01*
X0130480Y0036255D01*
X0132344Y0035483D01*
X0130480Y0034711D01*
X0128961Y0033192D01*
X0128139Y0031207D01*
X0128139Y0029059D01*
X0128961Y0027074D01*
X0130480Y0025555D01*
X0132465Y0024733D01*
X0134613Y0024733D01*
X0136598Y0025555D01*
X0138117Y0027074D01*
X0138939Y0029059D01*
X0138939Y0031207D01*
X0138117Y0033192D01*
X0136598Y0034711D01*
X0137560Y0037217D02*
X0213511Y0037217D01*
X0212679Y0039615D02*
X0211803Y0039615D01*
X0211818Y0042014D02*
X0212882Y0042014D01*
X0214274Y0044412D02*
X0211439Y0044412D01*
X0208539Y0040833D02*
X0208539Y0060833D01*
X0205058Y0061202D02*
X0174633Y0061202D01*
X0175411Y0060425D02*
X0173131Y0062705D01*
X0170151Y0063939D01*
X0166927Y0063939D01*
X0163948Y0062705D01*
X0161668Y0060425D01*
X0160434Y0057446D01*
X0160434Y0054221D01*
X0161668Y0051242D01*
X0163948Y0048962D01*
X0166927Y0047728D01*
X0170151Y0047728D01*
X0173131Y0048962D01*
X0175411Y0051242D01*
X0176645Y0054221D01*
X0176645Y0057446D01*
X0175411Y0060425D01*
X0176082Y0058804D02*
X0205639Y0058804D01*
X0205639Y0056405D02*
X0176645Y0056405D01*
X0176556Y0054007D02*
X0205639Y0054007D01*
X0205639Y0051608D02*
X0175562Y0051608D01*
X0173378Y0049210D02*
X0205639Y0049210D01*
X0205639Y0046811D02*
X0137077Y0046811D01*
X0137597Y0044412D02*
X0205639Y0044412D01*
X0205260Y0042014D02*
X0138895Y0042014D01*
X0138880Y0039615D02*
X0205276Y0039615D01*
X0220659Y0034818D02*
X0335040Y0034818D01*
X0335040Y0032420D02*
X0313415Y0032420D01*
X0313131Y0032705D02*
X0310151Y0033939D01*
X0306927Y0033939D01*
X0303948Y0032705D01*
X0301668Y0030425D01*
X0300434Y0027446D01*
X0300434Y0024221D01*
X0301668Y0021242D01*
X0303948Y0018962D01*
X0306927Y0017728D01*
X0310151Y0017728D01*
X0313131Y0018962D01*
X0315411Y0021242D01*
X0316645Y0024221D01*
X0316645Y0027446D01*
X0315411Y0030425D01*
X0313131Y0032705D01*
X0315578Y0030021D02*
X0335040Y0030021D01*
X0335040Y0027623D02*
X0316571Y0027623D01*
X0316645Y0025224D02*
X0332930Y0025224D01*
X0330532Y0022826D02*
X0316067Y0022826D01*
X0314596Y0020427D02*
X0328133Y0020427D01*
X0325735Y0018029D02*
X0310878Y0018029D01*
X0306200Y0018029D02*
X0089844Y0018029D01*
X0089613Y0017933D02*
X0091598Y0018755D01*
X0093117Y0020274D01*
X0093939Y0022259D01*
X0093939Y0024407D01*
X0093117Y0026392D01*
X0091598Y0027911D01*
X0091209Y0028072D01*
X0091631Y0028287D01*
X0092383Y0028833D01*
X0093039Y0029490D01*
X0093585Y0030241D01*
X0094007Y0031069D01*
X0094294Y0031952D01*
X0094439Y0032869D01*
X0094439Y0033333D01*
X0088539Y0033333D01*
X0082639Y0033333D01*
X0082639Y0032869D01*
X0082784Y0031952D01*
X0083071Y0031069D01*
X0083493Y0030241D01*
X0084039Y0029490D01*
X0084696Y0028833D01*
X0085447Y0028287D01*
X0085869Y0028072D01*
X0085480Y0027911D01*
X0083961Y0026392D01*
X0083139Y0024407D01*
X0083139Y0022259D01*
X0083961Y0020274D01*
X0085480Y0018755D01*
X0087465Y0017933D01*
X0089613Y0017933D01*
X0087234Y0018029D02*
X0081344Y0018029D01*
X0083742Y0015630D02*
X0323336Y0015630D01*
X0320938Y0013232D02*
X0086141Y0013232D01*
X0083898Y0020427D02*
X0078945Y0020427D01*
X0076547Y0022826D02*
X0083139Y0022826D01*
X0083478Y0025224D02*
X0075739Y0025224D01*
X0075739Y0027623D02*
X0085192Y0027623D01*
X0083653Y0030021D02*
X0075739Y0030021D01*
X0075739Y0032420D02*
X0082710Y0032420D01*
X0082639Y0033333D02*
X0088539Y0033333D01*
X0088539Y0033333D01*
X0088539Y0033333D01*
X0094439Y0033333D01*
X0094439Y0033798D01*
X0094294Y0034715D01*
X0094007Y0035598D01*
X0093585Y0036426D01*
X0093039Y0037177D01*
X0092383Y0037834D01*
X0091631Y0038379D01*
X0091209Y0038594D01*
X0091598Y0038755D01*
X0093117Y0040274D01*
X0093939Y0042259D01*
X0093939Y0044407D01*
X0093117Y0046392D01*
X0091598Y0047911D01*
X0090579Y0048333D01*
X0091598Y0048755D01*
X0093117Y0050274D01*
X0093939Y0052259D01*
X0093939Y0054407D01*
X0093117Y0056392D01*
X0091598Y0057911D01*
X0089613Y0058733D01*
X0087465Y0058733D01*
X0085480Y0057911D01*
X0083961Y0056392D01*
X0083139Y0054407D01*
X0083139Y0052259D01*
X0083961Y0050274D01*
X0085480Y0048755D01*
X0086499Y0048333D01*
X0085480Y0047911D01*
X0083961Y0046392D01*
X0083139Y0044407D01*
X0083139Y0042259D01*
X0083961Y0040274D01*
X0085480Y0038755D01*
X0085869Y0038594D01*
X0085447Y0038379D01*
X0084696Y0037834D01*
X0084039Y0037177D01*
X0083493Y0036426D01*
X0083071Y0035598D01*
X0082784Y0034715D01*
X0082639Y0033798D01*
X0082639Y0033333D01*
X0082818Y0034818D02*
X0075739Y0034818D01*
X0075739Y0037217D02*
X0084079Y0037217D01*
X0084620Y0039615D02*
X0075739Y0039615D01*
X0075739Y0042014D02*
X0083241Y0042014D01*
X0083141Y0044412D02*
X0075739Y0044412D01*
X0075739Y0046811D02*
X0084380Y0046811D01*
X0085026Y0049210D02*
X0075739Y0049210D01*
X0075739Y0051608D02*
X0083409Y0051608D01*
X0083139Y0054007D02*
X0075739Y0054007D01*
X0075739Y0056405D02*
X0083974Y0056405D01*
X0075739Y0058804D02*
X0160996Y0058804D01*
X0160434Y0056405D02*
X0136872Y0056405D01*
X0136631Y0056579D02*
X0135804Y0057001D01*
X0134921Y0057288D01*
X0134004Y0057433D01*
X0133539Y0057433D01*
X0133075Y0057433D01*
X0132158Y0057288D01*
X0131274Y0057001D01*
X0130447Y0056579D01*
X0129696Y0056034D01*
X0129039Y0055377D01*
X0128493Y0054626D01*
X0128071Y0053798D01*
X0127784Y0052915D01*
X0127639Y0051998D01*
X0127639Y0051533D01*
X0133539Y0051533D01*
X0133539Y0051533D01*
X0133539Y0051533D01*
X0133539Y0057433D01*
X0133539Y0051533D01*
X0133539Y0051533D01*
X0139439Y0051533D01*
X0139439Y0051998D01*
X0139294Y0052915D01*
X0139007Y0053798D01*
X0138585Y0054626D01*
X0138039Y0055377D01*
X0137383Y0056034D01*
X0136631Y0056579D01*
X0133539Y0056405D02*
X0133539Y0056405D01*
X0133539Y0054007D02*
X0133539Y0054007D01*
X0133539Y0051608D02*
X0133539Y0051608D01*
X0130207Y0056405D02*
X0093104Y0056405D01*
X0093939Y0054007D02*
X0128178Y0054007D01*
X0127639Y0051608D02*
X0093669Y0051608D01*
X0092052Y0049210D02*
X0128102Y0049210D01*
X0130001Y0046811D02*
X0092698Y0046811D01*
X0093937Y0044412D02*
X0129482Y0044412D01*
X0128183Y0042014D02*
X0093838Y0042014D01*
X0092458Y0039615D02*
X0128199Y0039615D01*
X0129519Y0037217D02*
X0092999Y0037217D01*
X0094260Y0034818D02*
X0130739Y0034818D01*
X0128641Y0032420D02*
X0094368Y0032420D01*
X0093426Y0030021D02*
X0128139Y0030021D01*
X0128734Y0027623D02*
X0091886Y0027623D01*
X0093601Y0025224D02*
X0131279Y0025224D01*
X0135799Y0025224D02*
X0300434Y0025224D01*
X0300507Y0027623D02*
X0138344Y0027623D01*
X0138939Y0030021D02*
X0301501Y0030021D01*
X0303663Y0032420D02*
X0138437Y0032420D01*
X0138977Y0049210D02*
X0163700Y0049210D01*
X0161516Y0051608D02*
X0139439Y0051608D01*
X0138901Y0054007D02*
X0160523Y0054007D01*
X0162445Y0061202D02*
X0075739Y0061202D01*
X0076306Y0063601D02*
X0166110Y0063601D01*
X0170968Y0063601D02*
X0206383Y0063601D01*
X0196901Y0077992D02*
X0222865Y0077992D01*
X0223539Y0085833D02*
X0213539Y0085833D01*
X0200058Y0085187D02*
X0196761Y0085187D01*
X0186341Y0085187D02*
X0185271Y0085187D01*
X0185377Y0082789D02*
X0186201Y0082789D01*
X0186201Y0080390D02*
X0185377Y0080390D01*
X0185377Y0077992D02*
X0186201Y0077992D01*
X0186987Y0075593D02*
X0184384Y0075593D01*
X0173364Y0099578D02*
X0222714Y0099578D01*
X0222668Y0101977D02*
X0173410Y0101977D01*
X0172134Y0104375D02*
X0223944Y0104375D01*
X0225462Y0106774D02*
X0172616Y0106774D01*
X0174196Y0109172D02*
X0223882Y0109172D01*
X0223639Y0111571D02*
X0174439Y0111571D01*
X0173540Y0113969D02*
X0195543Y0113969D01*
X0195588Y0113861D02*
X0196567Y0112882D01*
X0197847Y0112352D01*
X0199232Y0112352D01*
X0200511Y0112882D01*
X0201490Y0113861D01*
X0202020Y0115141D01*
X0202020Y0116526D01*
X0201490Y0117805D01*
X0201439Y0117856D01*
X0201439Y0128810D01*
X0201490Y0128861D01*
X0202020Y0130141D01*
X0202020Y0131526D01*
X0201490Y0132805D01*
X0200511Y0133784D01*
X0199232Y0134314D01*
X0197847Y0134314D01*
X0196567Y0133784D01*
X0195588Y0132805D01*
X0195058Y0131526D01*
X0195058Y0130141D01*
X0195588Y0128861D01*
X0195639Y0128810D01*
X0195639Y0117856D01*
X0195588Y0117805D01*
X0195058Y0116526D01*
X0195058Y0115141D01*
X0195588Y0113861D01*
X0195058Y0116368D02*
X0171210Y0116368D01*
X0173028Y0118766D02*
X0195639Y0118766D01*
X0195639Y0121165D02*
X0173439Y0121165D01*
X0172753Y0123563D02*
X0195639Y0123563D01*
X0195639Y0125962D02*
X0171389Y0125962D01*
X0173860Y0128360D02*
X0195639Y0128360D01*
X0195058Y0130759D02*
X0174439Y0130759D01*
X0173921Y0133157D02*
X0195940Y0133157D01*
X0198539Y0130833D02*
X0198539Y0115833D01*
X0202020Y0116368D02*
X0202558Y0116368D01*
X0203043Y0113969D02*
X0201535Y0113969D01*
X0201439Y0118766D02*
X0204049Y0118766D01*
X0201439Y0121165D02*
X0222639Y0121165D01*
X0223050Y0118766D02*
X0208029Y0118766D01*
X0201439Y0123563D02*
X0223325Y0123563D01*
X0226310Y0125962D02*
X0201439Y0125962D01*
X0201439Y0128360D02*
X0224219Y0128360D01*
X0223639Y0130759D02*
X0202020Y0130759D01*
X0201138Y0133157D02*
X0224157Y0133157D01*
X0226330Y0135556D02*
X0171749Y0135556D01*
X0172692Y0137954D02*
X0223387Y0137954D01*
X0222639Y0140353D02*
X0173439Y0140353D01*
X0173090Y0142751D02*
X0222989Y0142751D01*
X0224719Y0145150D02*
X0171359Y0145150D01*
X0173391Y0147548D02*
X0224687Y0147548D01*
X0223639Y0149947D02*
X0174439Y0149947D01*
X0174258Y0152345D02*
X0223821Y0152345D01*
X0225313Y0154744D02*
X0196856Y0154744D01*
X0197020Y0155141D02*
X0197020Y0156526D01*
X0196490Y0157805D01*
X0195511Y0158784D01*
X0194232Y0159314D01*
X0194159Y0159314D01*
X0187020Y0166453D01*
X0187020Y0166526D01*
X0186490Y0167805D01*
X0185511Y0168784D01*
X0184232Y0169314D01*
X0182847Y0169314D01*
X0181567Y0168784D01*
X0180588Y0167805D01*
X0180058Y0166526D01*
X0180058Y0165141D01*
X0180588Y0163861D01*
X0181567Y0162882D01*
X0182847Y0162352D01*
X0182919Y0162352D01*
X0190058Y0155213D01*
X0190058Y0155141D01*
X0190588Y0153861D01*
X0191567Y0152882D01*
X0192847Y0152352D01*
X0194232Y0152352D01*
X0195511Y0152882D01*
X0196490Y0153861D01*
X0197020Y0155141D01*
X0196765Y0157143D02*
X0224093Y0157143D01*
X0222730Y0159541D02*
X0193933Y0159541D01*
X0191534Y0161940D02*
X0222652Y0161940D01*
X0223907Y0164338D02*
X0189136Y0164338D01*
X0186933Y0166737D02*
X0225499Y0166737D01*
X0223898Y0169135D02*
X0201604Y0169135D01*
X0201490Y0168861D02*
X0202020Y0170141D01*
X0202020Y0171526D01*
X0201490Y0172805D01*
X0200511Y0173784D01*
X0199232Y0174314D01*
X0199159Y0174314D01*
X0192020Y0181453D01*
X0192020Y0181526D01*
X0191490Y0182805D01*
X0190511Y0183784D01*
X0189232Y0184314D01*
X0187847Y0184314D01*
X0186567Y0183784D01*
X0185588Y0182805D01*
X0185058Y0181526D01*
X0185058Y0180141D01*
X0185588Y0178861D01*
X0186567Y0177882D01*
X0187847Y0177352D01*
X0187919Y0177352D01*
X0195058Y0170213D01*
X0195058Y0170141D01*
X0195588Y0168861D01*
X0196567Y0167882D01*
X0197847Y0167352D01*
X0199232Y0167352D01*
X0200511Y0167882D01*
X0201490Y0168861D01*
X0202017Y0171534D02*
X0223639Y0171534D01*
X0224501Y0173932D02*
X0200155Y0173932D01*
X0198539Y0170833D02*
X0188539Y0180833D01*
X0185058Y0181128D02*
X0173439Y0181128D01*
X0173012Y0178729D02*
X0185720Y0178729D01*
X0188941Y0176331D02*
X0171173Y0176331D01*
X0173577Y0173932D02*
X0191339Y0173932D01*
X0193738Y0171534D02*
X0174439Y0171534D01*
X0174181Y0169135D02*
X0182414Y0169135D01*
X0184665Y0169135D02*
X0195475Y0169135D01*
X0197143Y0176331D02*
X0208119Y0176331D01*
X0207558Y0178729D02*
X0194745Y0178729D01*
X0192346Y0181128D02*
X0208910Y0181128D01*
X0211039Y0178333D02*
X0218539Y0185833D01*
X0216972Y0188323D02*
X0191589Y0188323D01*
X0190151Y0187728D02*
X0193131Y0188962D01*
X0195411Y0191242D01*
X0196645Y0194221D01*
X0196645Y0197446D01*
X0195411Y0200425D01*
X0193131Y0202705D01*
X0190151Y0203939D01*
X0186927Y0203939D01*
X0183948Y0202705D01*
X0181668Y0200425D01*
X0180434Y0197446D01*
X0180434Y0194221D01*
X0181668Y0191242D01*
X0183948Y0188962D01*
X0186927Y0187728D01*
X0190151Y0187728D01*
X0185490Y0188323D02*
X0173844Y0188323D01*
X0174439Y0190722D02*
X0182188Y0190722D01*
X0180890Y0193120D02*
X0173937Y0193120D01*
X0171839Y0195519D02*
X0180434Y0195519D01*
X0180629Y0197917D02*
X0172676Y0197917D01*
X0173439Y0200316D02*
X0181623Y0200316D01*
X0183970Y0202714D02*
X0173105Y0202714D01*
X0171397Y0205113D02*
X0177032Y0205113D01*
X0180046Y0205113D02*
X0195789Y0205113D01*
X0198539Y0205113D02*
X0198539Y0205113D01*
X0198539Y0207511D02*
X0198539Y0207511D01*
X0198539Y0209910D02*
X0198539Y0209910D01*
X0201289Y0205113D02*
X0224682Y0205113D01*
X0224724Y0207511D02*
X0212354Y0207511D01*
X0213794Y0209910D02*
X0223639Y0209910D01*
X0223805Y0212308D02*
X0213939Y0212308D01*
X0212802Y0214707D02*
X0225276Y0214707D01*
X0229039Y0210833D02*
X0236039Y0210833D01*
X0246039Y0220833D01*
X0246039Y0223333D01*
X0243539Y0225833D01*
X0226039Y0225833D01*
X0218539Y0218333D01*
X0198539Y0218333D01*
X0195280Y0217105D02*
X0181798Y0217105D01*
X0181802Y0214707D02*
X0184276Y0214707D01*
X0181822Y0219504D02*
X0195256Y0219504D01*
X0194569Y0214707D02*
X0192802Y0214707D01*
X0192354Y0207511D02*
X0193355Y0207511D01*
X0193108Y0202714D02*
X0222973Y0202714D01*
X0222639Y0200316D02*
X0195456Y0200316D01*
X0196449Y0197917D02*
X0208200Y0197917D01*
X0207558Y0195519D02*
X0196645Y0195519D01*
X0196189Y0193120D02*
X0208829Y0193120D01*
X0211039Y0195833D02*
X0223539Y0195833D01*
X0223639Y0190722D02*
X0194890Y0190722D01*
X0190769Y0183526D02*
X0212131Y0183526D01*
X0214529Y0185925D02*
X0171299Y0185925D01*
X0172769Y0183526D02*
X0186309Y0183526D01*
X0180145Y0166737D02*
X0172579Y0166737D01*
X0172171Y0164338D02*
X0180391Y0164338D01*
X0183539Y0165833D02*
X0193539Y0155833D01*
X0190222Y0154744D02*
X0172765Y0154744D01*
X0171985Y0157143D02*
X0188129Y0157143D01*
X0185730Y0159541D02*
X0173349Y0159541D01*
X0173426Y0161940D02*
X0183332Y0161940D01*
X0165499Y0166737D02*
X0156579Y0166737D01*
X0158171Y0164338D02*
X0163907Y0164338D01*
X0162652Y0161940D02*
X0159426Y0161940D01*
X0159349Y0159541D02*
X0162730Y0159541D01*
X0164093Y0157143D02*
X0157985Y0157143D01*
X0156765Y0154744D02*
X0165313Y0154744D01*
X0163821Y0152345D02*
X0158258Y0152345D01*
X0158439Y0149947D02*
X0163639Y0149947D01*
X0164687Y0147548D02*
X0157391Y0147548D01*
X0157359Y0145150D02*
X0164719Y0145150D01*
X0162989Y0142751D02*
X0159090Y0142751D01*
X0159439Y0140353D02*
X0162639Y0140353D01*
X0163387Y0137954D02*
X0158692Y0137954D01*
X0155749Y0135556D02*
X0166330Y0135556D01*
X0164157Y0133157D02*
X0157921Y0133157D01*
X0158439Y0130759D02*
X0163639Y0130759D01*
X0164219Y0128360D02*
X0157860Y0128360D01*
X0155769Y0125962D02*
X0166310Y0125962D01*
X0163325Y0123563D02*
X0158753Y0123563D01*
X0159439Y0121165D02*
X0162639Y0121165D01*
X0163050Y0118766D02*
X0159028Y0118766D01*
X0157210Y0116368D02*
X0164868Y0116368D01*
X0164538Y0113969D02*
X0157540Y0113969D01*
X0158439Y0111571D02*
X0163639Y0111571D01*
X0163882Y0109172D02*
X0158196Y0109172D01*
X0156616Y0106774D02*
X0165462Y0106774D01*
X0143539Y0115833D02*
X0128539Y0130833D01*
X0126089Y0128360D02*
X0112739Y0128360D01*
X0112739Y0125962D02*
X0129309Y0125962D01*
X0131708Y0123563D02*
X0112739Y0123563D01*
X0112739Y0121165D02*
X0134106Y0121165D01*
X0136505Y0118766D02*
X0112229Y0118766D01*
X0110739Y0116368D02*
X0138903Y0116368D01*
X0140543Y0113969D02*
X0110561Y0113969D01*
X0113166Y0130759D02*
X0125058Y0130759D01*
X0125940Y0133157D02*
X0113788Y0133157D01*
X0113788Y0135556D02*
X0129715Y0135556D01*
X0131138Y0133157D02*
X0132114Y0133157D01*
X0132715Y0130759D02*
X0134512Y0130759D01*
X0135113Y0128360D02*
X0136911Y0128360D01*
X0137512Y0125962D02*
X0139309Y0125962D01*
X0139910Y0123563D02*
X0140886Y0123563D01*
X0143539Y0125833D02*
X0128539Y0140833D01*
X0125058Y0140353D02*
X0108539Y0140353D01*
X0113788Y0142751D02*
X0125566Y0142751D01*
X0126495Y0137954D02*
X0113788Y0137954D01*
X0104831Y0159541D02*
X0148730Y0159541D01*
X0148652Y0161940D02*
X0102433Y0161940D01*
X0100034Y0164338D02*
X0149907Y0164338D01*
X0149499Y0166737D02*
X0098550Y0166737D01*
X0099357Y0181128D02*
X0108543Y0181128D01*
X0122887Y0195519D02*
X0075739Y0195519D01*
X0075739Y0197917D02*
X0121223Y0197917D01*
X0129191Y0195519D02*
X0150240Y0195519D01*
X0149402Y0197917D02*
X0129739Y0197917D01*
X0129520Y0200316D02*
X0148639Y0200316D01*
X0148973Y0202714D02*
X0128987Y0202714D01*
X0128987Y0205113D02*
X0150682Y0205113D01*
X0148724Y0207511D02*
X0128987Y0207511D01*
X0128987Y0209910D02*
X0147639Y0209910D01*
X0157354Y0207511D02*
X0164724Y0207511D01*
X0164682Y0205113D02*
X0157397Y0205113D01*
X0159105Y0202714D02*
X0162973Y0202714D01*
X0162639Y0200316D02*
X0159439Y0200316D01*
X0158676Y0197917D02*
X0163402Y0197917D01*
X0166240Y0195519D02*
X0155839Y0195519D01*
X0157937Y0193120D02*
X0164142Y0193120D01*
X0163639Y0190722D02*
X0158439Y0190722D01*
X0157844Y0188323D02*
X0164234Y0188323D01*
X0166220Y0185925D02*
X0155858Y0185925D01*
X0158769Y0183526D02*
X0163310Y0183526D01*
X0162639Y0181128D02*
X0159439Y0181128D01*
X0159013Y0178729D02*
X0163066Y0178729D01*
X0164905Y0176331D02*
X0157173Y0176331D01*
X0157577Y0173932D02*
X0164501Y0173932D01*
X0163639Y0171534D02*
X0158439Y0171534D01*
X0158181Y0169135D02*
X0163898Y0169135D01*
X0173354Y0207511D02*
X0173863Y0207511D01*
X0183215Y0207511D02*
X0184724Y0207511D01*
X0178539Y0218333D02*
X0156539Y0218333D01*
X0154039Y0220833D01*
X0156802Y0214707D02*
X0165276Y0214707D01*
X0163805Y0212308D02*
X0158273Y0212308D01*
X0158439Y0209910D02*
X0163639Y0209910D01*
X0203723Y0207511D02*
X0204724Y0207511D01*
X0221412Y0217105D02*
X0238210Y0217105D01*
X0235811Y0214707D02*
X0232802Y0214707D01*
X0240608Y0219504D02*
X0223811Y0219504D01*
X0226209Y0221902D02*
X0242864Y0221902D01*
X0247009Y0226699D02*
X0248290Y0226699D01*
X0248299Y0229098D02*
X0225905Y0229098D01*
X0229046Y0231496D02*
X0264739Y0231496D01*
X0264667Y0229098D02*
X0258779Y0229098D01*
X0258788Y0226699D02*
X0263639Y0226699D01*
X0262814Y0224301D02*
X0258788Y0224301D01*
X0258788Y0221902D02*
X0260214Y0221902D01*
X0260322Y0219504D02*
X0256439Y0219504D01*
X0258788Y0217105D02*
X0262721Y0217105D01*
X0262661Y0214707D02*
X0258788Y0214707D01*
X0258788Y0212308D02*
X0263927Y0212308D01*
X0265479Y0209910D02*
X0258620Y0209910D01*
X0257866Y0207511D02*
X0263889Y0207511D01*
X0263639Y0205113D02*
X0258788Y0205113D01*
X0258788Y0202714D02*
X0264522Y0202714D01*
X0264885Y0200316D02*
X0258788Y0200316D01*
X0257824Y0197917D02*
X0263057Y0197917D01*
X0262639Y0195519D02*
X0256439Y0195519D01*
X0256439Y0193120D02*
X0263318Y0193120D01*
X0266269Y0190722D02*
X0256439Y0190722D01*
X0255130Y0188323D02*
X0264226Y0188323D01*
X0263639Y0185925D02*
X0252732Y0185925D01*
X0250333Y0183526D02*
X0264150Y0183526D01*
X0266289Y0181128D02*
X0249439Y0181128D01*
X0249012Y0178729D02*
X0263394Y0178729D01*
X0262639Y0176331D02*
X0247173Y0176331D01*
X0247577Y0173932D02*
X0262982Y0173932D01*
X0264702Y0171534D02*
X0248439Y0171534D01*
X0248181Y0169135D02*
X0264145Y0169135D01*
X0263209Y0166737D02*
X0246579Y0166737D01*
X0248171Y0164338D02*
X0263321Y0164338D01*
X0264589Y0161940D02*
X0249426Y0161940D01*
X0249349Y0159541D02*
X0264110Y0159541D01*
X0262737Y0157143D02*
X0247985Y0157143D01*
X0246765Y0154744D02*
X0262645Y0154744D01*
X0263890Y0152345D02*
X0248258Y0152345D01*
X0248439Y0149947D02*
X0294148Y0149947D01*
X0294286Y0151582D02*
X0302793Y0151582D01*
X0303788Y0152578D01*
X0303788Y0160286D01*
X0302793Y0161281D01*
X0302239Y0161281D01*
X0302239Y0164069D01*
X0301676Y0165429D01*
X0299520Y0167585D01*
X0299520Y0168319D01*
X0298524Y0169314D01*
X0297304Y0169314D01*
X0296775Y0169533D01*
X0295303Y0169533D01*
X0294775Y0169314D01*
X0293554Y0169314D01*
X0292558Y0168319D01*
X0292558Y0167098D01*
X0292339Y0166569D01*
X0292339Y0165097D01*
X0292558Y0164569D01*
X0292558Y0163348D01*
X0293554Y0162352D01*
X0294288Y0162352D01*
X0294839Y0161801D01*
X0294839Y0161281D01*
X0294286Y0161281D01*
X0293290Y0160286D01*
X0293290Y0152578D01*
X0294286Y0151582D01*
X0293522Y0152345D02*
X0272188Y0152345D01*
X0273433Y0154744D02*
X0293290Y0154744D01*
X0293290Y0157143D02*
X0273342Y0157143D01*
X0271968Y0159541D02*
X0293290Y0159541D01*
X0294700Y0161940D02*
X0273489Y0161940D01*
X0274757Y0164338D02*
X0292558Y0164338D01*
X0292408Y0166737D02*
X0274870Y0166737D01*
X0273933Y0169135D02*
X0293375Y0169135D01*
X0298704Y0169135D02*
X0335040Y0169135D01*
X0335040Y0166737D02*
X0300369Y0166737D01*
X0302128Y0164338D02*
X0335040Y0164338D01*
X0335040Y0161940D02*
X0302239Y0161940D01*
X0303788Y0159541D02*
X0335040Y0159541D01*
X0335040Y0157143D02*
X0303788Y0157143D01*
X0303788Y0154744D02*
X0335040Y0154744D01*
X0335040Y0152345D02*
X0303556Y0152345D01*
X0302930Y0149947D02*
X0314239Y0149947D01*
X0327840Y0149947D02*
X0335040Y0149947D01*
X0335040Y0147548D02*
X0329509Y0147548D01*
X0329789Y0145150D02*
X0335040Y0145150D01*
X0335040Y0142751D02*
X0328872Y0142751D01*
X0335040Y0140353D02*
X0299660Y0140353D01*
X0298498Y0139191D02*
X0298498Y0139191D01*
X0296667Y0137954D02*
X0335040Y0137954D01*
X0335040Y0135556D02*
X0294520Y0135556D01*
X0293286Y0133157D02*
X0335040Y0133157D01*
X0335040Y0130759D02*
X0327508Y0130759D01*
X0327565Y0130730D02*
X0326762Y0131139D01*
X0325905Y0131417D01*
X0325015Y0131558D01*
X0321039Y0131558D01*
X0317064Y0131558D01*
X0316174Y0131417D01*
X0315317Y0131139D01*
X0314514Y0130730D01*
X0313785Y0130200D01*
X0313147Y0129563D01*
X0312618Y0128834D01*
X0312209Y0128031D01*
X0311930Y0127174D01*
X0311789Y0126284D01*
X0311789Y0125833D01*
X0311789Y0125383D01*
X0311930Y0124493D01*
X0312209Y0123636D01*
X0312618Y0122833D01*
X0313147Y0122104D01*
X0313785Y0121467D01*
X0314514Y0120937D01*
X0315317Y0120528D01*
X0316174Y0120249D01*
X0317064Y0120108D01*
X0321039Y0120108D01*
X0321039Y0125833D01*
X0321039Y0125833D01*
X0311789Y0125833D01*
X0321039Y0125833D01*
X0321039Y0125833D01*
X0321039Y0120108D01*
X0325015Y0120108D01*
X0325905Y0120249D01*
X0326762Y0120528D01*
X0327565Y0120937D01*
X0328294Y0121467D01*
X0328931Y0122104D01*
X0329461Y0122833D01*
X0329870Y0123636D01*
X0330148Y0124493D01*
X0330289Y0125383D01*
X0330289Y0125833D01*
X0321039Y0125833D01*
X0321039Y0125833D01*
X0321039Y0131558D01*
X0321039Y0125833D01*
X0321039Y0125833D01*
X0330289Y0125833D01*
X0330289Y0126284D01*
X0330148Y0127174D01*
X0329870Y0128031D01*
X0329461Y0128834D01*
X0328931Y0129563D01*
X0328294Y0130200D01*
X0327565Y0130730D01*
X0329702Y0128360D02*
X0335040Y0128360D01*
X0335040Y0125962D02*
X0330289Y0125962D01*
X0329833Y0123563D02*
X0335040Y0123563D01*
X0335040Y0121165D02*
X0327879Y0121165D01*
X0321039Y0121165D02*
X0321039Y0121165D01*
X0321039Y0123563D02*
X0321039Y0123563D01*
X0321039Y0125962D02*
X0321039Y0125962D01*
X0321039Y0128360D02*
X0321039Y0128360D01*
X0321039Y0130759D02*
X0321039Y0130759D01*
X0314571Y0130759D02*
X0290066Y0130759D01*
X0287647Y0128360D02*
X0312376Y0128360D01*
X0311789Y0125962D02*
X0271389Y0125962D01*
X0272753Y0123563D02*
X0312245Y0123563D01*
X0314200Y0121165D02*
X0273439Y0121165D01*
X0273028Y0118766D02*
X0335040Y0118766D01*
X0335040Y0116368D02*
X0271210Y0116368D01*
X0273540Y0113969D02*
X0335040Y0113969D01*
X0335040Y0111571D02*
X0274439Y0111571D01*
X0274196Y0109172D02*
X0335040Y0109172D01*
X0335040Y0106774D02*
X0272616Y0106774D01*
X0272134Y0104375D02*
X0313667Y0104375D01*
X0313085Y0103793D02*
X0314554Y0105263D01*
X0316475Y0106058D01*
X0325603Y0106058D01*
X0327524Y0105263D01*
X0328994Y0103793D01*
X0329789Y0101873D01*
X0329789Y0099794D01*
X0328994Y0097874D01*
X0327524Y0096404D01*
X0325603Y0095608D01*
X0316475Y0095608D01*
X0314554Y0096404D01*
X0313085Y0097874D01*
X0312289Y0099794D01*
X0312289Y0101873D01*
X0313085Y0103793D01*
X0312332Y0101977D02*
X0273410Y0101977D01*
X0273364Y0099578D02*
X0312379Y0099578D01*
X0313779Y0097180D02*
X0272022Y0097180D01*
X0272728Y0094781D02*
X0335040Y0094781D01*
X0335040Y0092383D02*
X0274242Y0092383D01*
X0274439Y0089984D02*
X0335040Y0089984D01*
X0335040Y0087586D02*
X0275888Y0087586D01*
X0273539Y0085833D02*
X0276039Y0083333D01*
X0291039Y0083333D01*
X0294520Y0082789D02*
X0312669Y0082789D01*
X0312289Y0081873D02*
X0312289Y0079794D01*
X0313085Y0077874D01*
X0314554Y0076404D01*
X0316475Y0075608D01*
X0325603Y0075608D01*
X0327524Y0076404D01*
X0328994Y0077874D01*
X0329789Y0079794D01*
X0329789Y0081873D01*
X0328994Y0083793D01*
X0327524Y0085263D01*
X0325603Y0086058D01*
X0316475Y0086058D01*
X0314554Y0085263D01*
X0313085Y0083793D01*
X0312289Y0081873D01*
X0312289Y0080390D02*
X0294062Y0080390D01*
X0294520Y0085187D02*
X0314479Y0085187D01*
X0313036Y0077992D02*
X0272707Y0077992D01*
X0273439Y0080390D02*
X0288016Y0080390D01*
X0273906Y0073195D02*
X0335040Y0073195D01*
X0335040Y0075593D02*
X0271659Y0075593D01*
X0274439Y0070796D02*
X0335040Y0070796D01*
X0335040Y0068398D02*
X0273875Y0068398D01*
X0271479Y0065999D02*
X0316332Y0065999D01*
X0316475Y0066058D02*
X0314554Y0065263D01*
X0313085Y0063793D01*
X0312289Y0061873D01*
X0312289Y0059794D01*
X0313085Y0057874D01*
X0314554Y0056404D01*
X0316475Y0055608D01*
X0325603Y0055608D01*
X0327524Y0056404D01*
X0328994Y0057874D01*
X0329789Y0059794D01*
X0329789Y0061873D01*
X0328994Y0063793D01*
X0327524Y0065263D01*
X0325603Y0066058D01*
X0316475Y0066058D01*
X0313005Y0063601D02*
X0272738Y0063601D01*
X0273439Y0061202D02*
X0312289Y0061202D01*
X0312699Y0058804D02*
X0273043Y0058804D01*
X0271248Y0056405D02*
X0314553Y0056405D01*
X0325746Y0065999D02*
X0335040Y0065999D01*
X0335040Y0063601D02*
X0329073Y0063601D01*
X0329789Y0061202D02*
X0335040Y0061202D01*
X0335040Y0058804D02*
X0329379Y0058804D01*
X0327525Y0056405D02*
X0335040Y0056405D01*
X0335040Y0054007D02*
X0274027Y0054007D01*
X0274890Y0051608D02*
X0335040Y0051608D01*
X0335040Y0049210D02*
X0274715Y0049210D01*
X0273361Y0046811D02*
X0335040Y0046811D01*
X0335040Y0044412D02*
X0272097Y0044412D01*
X0273395Y0042014D02*
X0335040Y0042014D01*
X0335040Y0039615D02*
X0273380Y0039615D01*
X0272060Y0037217D02*
X0335040Y0037217D01*
X0302482Y0020427D02*
X0093180Y0020427D01*
X0093939Y0022826D02*
X0301012Y0022826D01*
X0264019Y0037217D02*
X0243939Y0037217D01*
X0243939Y0039615D02*
X0262699Y0039615D01*
X0262683Y0042014D02*
X0243939Y0042014D01*
X0243939Y0044412D02*
X0263982Y0044412D01*
X0264718Y0046811D02*
X0241439Y0046811D01*
X0241439Y0049210D02*
X0263363Y0049210D01*
X0263188Y0051608D02*
X0241439Y0051608D01*
X0241439Y0054007D02*
X0264052Y0054007D01*
X0264831Y0056405D02*
X0243212Y0056405D01*
X0245611Y0058804D02*
X0263035Y0058804D01*
X0262639Y0061202D02*
X0248831Y0061202D01*
X0249520Y0063601D02*
X0263341Y0063601D01*
X0266400Y0065999D02*
X0248296Y0065999D01*
X0246039Y0063333D02*
X0238539Y0055833D01*
X0238539Y0040333D01*
X0233139Y0037217D02*
X0232060Y0037217D01*
X0225019Y0037217D02*
X0223568Y0037217D01*
X0233213Y0077992D02*
X0263371Y0077992D01*
X0262639Y0080390D02*
X0233939Y0080390D01*
X0233607Y0082789D02*
X0234983Y0082789D01*
X0236039Y0085833D02*
X0238539Y0083333D01*
X0251638Y0083333D01*
X0256039Y0087735D01*
X0257941Y0085833D01*
X0255194Y0082789D02*
X0263004Y0082789D01*
X0266039Y0090833D02*
X0263539Y0093333D01*
X0251039Y0093333D01*
X0248539Y0095833D01*
X0238539Y0095833D02*
X0236039Y0098333D01*
X0236039Y0103833D01*
X0243039Y0110833D01*
X0250441Y0115833D02*
X0256039Y0110235D01*
X0256039Y0098932D01*
X0266039Y0090833D02*
X0269039Y0090833D01*
X0250790Y0118766D02*
X0249028Y0118766D01*
X0249439Y0121165D02*
X0250790Y0121165D01*
X0250790Y0123563D02*
X0248753Y0123563D01*
X0251466Y0125962D02*
X0245769Y0125962D01*
X0247860Y0128360D02*
X0264219Y0128360D01*
X0263639Y0130759D02*
X0248439Y0130759D01*
X0247921Y0133157D02*
X0264157Y0133157D01*
X0266330Y0135556D02*
X0245749Y0135556D01*
X0248692Y0137954D02*
X0271495Y0137954D01*
X0271749Y0135556D02*
X0286661Y0135556D01*
X0291039Y0135833D02*
X0286039Y0130833D01*
X0269039Y0130833D01*
X0266310Y0125962D02*
X0260612Y0125962D01*
X0256039Y0121432D02*
X0267441Y0121432D01*
X0268039Y0120833D01*
X0270058Y0140353D02*
X0249439Y0140353D01*
X0249090Y0142751D02*
X0270566Y0142751D01*
X0273539Y0140833D02*
X0296039Y0140833D01*
X0298539Y0143333D01*
X0298539Y0145235D01*
X0293290Y0145150D02*
X0247359Y0145150D01*
X0247391Y0147548D02*
X0293290Y0147548D01*
X0271376Y0171534D02*
X0335040Y0171534D01*
X0335040Y0173932D02*
X0323059Y0173932D01*
X0323131Y0173962D02*
X0325411Y0176242D01*
X0326645Y0179221D01*
X0326645Y0182446D01*
X0325411Y0185425D01*
X0323131Y0187705D01*
X0320151Y0188939D01*
X0316927Y0188939D01*
X0313948Y0187705D01*
X0311668Y0185425D01*
X0310434Y0182446D01*
X0310434Y0179221D01*
X0311668Y0176242D01*
X0313948Y0173962D01*
X0316927Y0172728D01*
X0320151Y0172728D01*
X0323131Y0173962D01*
X0325447Y0176331D02*
X0335040Y0176331D01*
X0335040Y0178729D02*
X0326441Y0178729D01*
X0326645Y0181128D02*
X0335040Y0181128D01*
X0335040Y0183526D02*
X0326197Y0183526D01*
X0324911Y0185925D02*
X0335040Y0185925D01*
X0335040Y0188323D02*
X0321638Y0188323D01*
X0315441Y0188323D02*
X0273853Y0188323D01*
X0274439Y0185925D02*
X0312168Y0185925D01*
X0310881Y0183526D02*
X0273928Y0183526D01*
X0271790Y0181128D02*
X0310434Y0181128D01*
X0310637Y0178729D02*
X0272685Y0178729D01*
X0273439Y0176331D02*
X0311631Y0176331D01*
X0314020Y0173932D02*
X0273097Y0173932D01*
X0271349Y0190722D02*
X0335040Y0190722D01*
X0335040Y0193120D02*
X0272760Y0193120D01*
X0253539Y0190833D02*
X0248539Y0185833D01*
X0253539Y0190833D02*
X0253539Y0202735D01*
X0249213Y0207511D02*
X0244318Y0207511D01*
X0246717Y0209910D02*
X0248458Y0209910D01*
X0246039Y0213333D02*
X0252941Y0213333D01*
X0253539Y0213932D01*
X0253539Y0225235D01*
X0248290Y0233895D02*
X0229520Y0233895D01*
X0227989Y0236293D02*
X0248290Y0236293D01*
X0226039Y0233333D02*
X0221039Y0228333D01*
X0219138Y0230833D02*
X0221638Y0233333D01*
X0226039Y0233333D01*
X0224089Y0236293D02*
X0212181Y0236293D01*
X0213290Y0233895D02*
X0214288Y0233895D01*
X0214288Y0231496D02*
X0213290Y0231496D01*
X0213290Y0229098D02*
X0214288Y0229098D01*
X0214288Y0226699D02*
X0213211Y0226699D01*
X0208316Y0231496D02*
X0207566Y0231496D01*
X0207566Y0233895D02*
X0208316Y0233895D01*
X0208316Y0236293D02*
X0207566Y0236293D01*
X0236039Y0203333D02*
X0246039Y0213333D01*
X0247397Y0205113D02*
X0248290Y0205113D01*
X0236039Y0203333D02*
X0236039Y0198333D01*
X0233539Y0195833D01*
X0224234Y0188323D02*
X0220106Y0188323D01*
X0217935Y0181128D02*
X0222639Y0181128D01*
X0223066Y0178729D02*
X0215536Y0178729D01*
X0213959Y0176331D02*
X0224905Y0176331D01*
X0149848Y0265076D02*
X0146883Y0265076D01*
X0149281Y0267474D02*
X0150058Y0267474D01*
X0138539Y0286432D02*
X0138539Y0313333D01*
X0328411Y0104375D02*
X0335040Y0104375D01*
X0335040Y0101977D02*
X0329746Y0101977D01*
X0329700Y0099578D02*
X0335040Y0099578D01*
X0335040Y0097180D02*
X0328300Y0097180D01*
X0327600Y0085187D02*
X0335040Y0085187D01*
X0335040Y0082789D02*
X0329410Y0082789D01*
X0329789Y0080390D02*
X0335040Y0080390D01*
X0335040Y0077992D02*
X0329043Y0077992D01*
X0083745Y0070796D02*
X0083502Y0070796D01*
D20*
X0088539Y0083333D02*
X0098539Y0083333D01*
X0102968Y0087762D01*
X0103539Y0087762D01*
X0099110Y0083333D01*
X0103539Y0103904D02*
X0103539Y0105833D01*
X0106039Y0108333D01*
X0106039Y0118333D01*
X0108539Y0120833D01*
X0108539Y0135235D01*
X0108539Y0146432D02*
X0094138Y0146432D01*
X0091039Y0143333D01*
X0168039Y0080833D02*
X0180527Y0080833D01*
D21*
X0126039Y0178333D02*
X0124138Y0180235D01*
X0124138Y0185833D01*
X0126039Y0198333D02*
X0124138Y0200235D01*
X0124138Y0205833D01*
X0126039Y0218333D02*
X0124138Y0220235D01*
X0124138Y0225833D01*
X0128539Y0235833D02*
X0124138Y0240235D01*
X0124138Y0245833D01*
X0133539Y0265833D02*
X0138539Y0270833D01*
X0138539Y0275235D01*
X0153539Y0265833D02*
X0158539Y0270833D01*
X0158539Y0275235D01*
X0293539Y0233333D02*
X0297941Y0240235D01*
X0298539Y0240235D01*
X0298539Y0212735D02*
X0298539Y0205833D01*
X0293539Y0200833D01*
X0296039Y0165833D02*
X0298539Y0163333D01*
X0298539Y0156432D01*
X0299138Y0145833D02*
X0298539Y0145235D01*
X0299138Y0145833D02*
X0321039Y0145833D01*
D22*
X0296039Y0165833D03*
X0293539Y0200833D03*
X0293539Y0233333D03*
X0153539Y0265833D03*
X0133539Y0265833D03*
X0128539Y0235833D03*
X0126039Y0218333D03*
X0126039Y0198333D03*
X0126039Y0178333D03*
X0291039Y0083333D03*
D23*
X0246039Y0063333D03*
X0228539Y0065833D03*
X0208539Y0060833D03*
X0208539Y0040833D03*
X0203539Y0085833D03*
X0213539Y0085833D03*
X0198539Y0095833D03*
X0198539Y0115833D03*
X0206039Y0115833D03*
X0198539Y0130833D03*
X0193539Y0155833D03*
X0183539Y0165833D03*
X0198539Y0170833D03*
X0188539Y0180833D03*
X0211039Y0178333D03*
X0211039Y0195833D03*
X0223539Y0195833D03*
X0233539Y0195833D03*
X0246039Y0223333D03*
X0263539Y0220833D03*
X0276039Y0233333D03*
X0256039Y0273333D03*
X0253539Y0300833D03*
X0226039Y0233333D03*
X0203539Y0223333D03*
X0198539Y0218333D03*
X0178539Y0218333D03*
X0143539Y0255833D03*
X0128539Y0255833D03*
X0118539Y0260833D03*
X0118539Y0245833D03*
X0138539Y0240833D03*
X0126039Y0170833D03*
X0128539Y0155833D03*
X0128539Y0140833D03*
X0128539Y0130833D03*
X0143539Y0125833D03*
X0143539Y0115833D03*
X0143539Y0140833D03*
X0273539Y0140833D03*
X0291039Y0135833D03*
D24*
X0250441Y0115833D02*
X0206039Y0115833D01*
X0238539Y0095833D02*
X0248539Y0095833D01*
X0257941Y0085833D02*
X0273539Y0085833D01*
X0273539Y0220833D02*
X0263539Y0220833D01*
D25*
X0248539Y0185833D02*
X0218539Y0185833D01*
X0223539Y0085833D02*
X0236039Y0085833D01*
M02*
