G75*
%MOIN*%
%OFA0B0*%
%FSLAX25Y25*%
%IPPOS*%
%LPD*%
%AMOC8*
5,1,8,0,0,1.08239X$1,22.5*
%
%ADD10C,0.00000*%
%ADD11C,0.00600*%
%ADD12C,0.00400*%
%ADD13C,0.00500*%
%ADD14C,0.00800*%
%ADD15R,0.40000X0.04000*%
%ADD16C,0.00700*%
%ADD17C,0.00100*%
%ADD18C,0.00512*%
%ADD19R,0.00800X0.00050*%
%ADD20R,0.01200X0.00050*%
%ADD21R,0.01550X0.00050*%
%ADD22R,0.01800X0.00050*%
%ADD23R,0.02050X0.00050*%
%ADD24R,0.02350X0.00050*%
%ADD25R,0.02600X0.00050*%
%ADD26R,0.02800X0.00050*%
%ADD27R,0.03050X0.00050*%
%ADD28R,0.03200X0.00050*%
%ADD29R,0.03450X0.00050*%
%ADD30R,0.03650X0.00050*%
%ADD31R,0.03800X0.00050*%
%ADD32R,0.02300X0.00050*%
%ADD33R,0.01500X0.00050*%
%ADD34R,0.02400X0.00050*%
%ADD35R,0.02450X0.00050*%
%ADD36R,0.01450X0.00050*%
%ADD37R,0.02500X0.00050*%
%ADD38R,0.01350X0.00050*%
%ADD39R,0.01300X0.00050*%
%ADD40R,0.00700X0.00050*%
%ADD41R,0.01050X0.00050*%
%ADD42R,0.00750X0.00050*%
%ADD43R,0.00850X0.00050*%
%ADD44R,0.00650X0.00050*%
%ADD45R,0.00550X0.00050*%
%ADD46R,0.02750X0.00050*%
%ADD47R,0.01250X0.00050*%
%ADD48R,0.02900X0.00050*%
%ADD49R,0.01000X0.00050*%
%ADD50R,0.03000X0.00050*%
%ADD51R,0.03250X0.00050*%
%ADD52R,0.03100X0.00050*%
%ADD53R,0.03300X0.00050*%
%ADD54R,0.01150X0.00050*%
%ADD55R,0.03150X0.00050*%
%ADD56R,0.00950X0.00050*%
%ADD57R,0.03400X0.00050*%
%ADD58R,0.01100X0.00050*%
%ADD59R,0.02650X0.00050*%
%ADD60R,0.02700X0.00050*%
%ADD61R,0.02850X0.00050*%
%ADD62R,0.02950X0.00050*%
%ADD63R,0.00900X0.00050*%
%ADD64R,0.01400X0.00050*%
%ADD65R,0.01600X0.00050*%
%ADD66R,0.04000X0.00050*%
%ADD67R,0.01700X0.00050*%
%ADD68R,0.04050X0.00050*%
%ADD69R,0.01750X0.00050*%
%ADD70R,0.00300X0.00050*%
%ADD71R,0.01850X0.00050*%
%ADD72R,0.00100X0.00050*%
%ADD73R,0.00500X0.00050*%
%ADD74R,0.01650X0.00050*%
%ADD75R,0.04100X0.00050*%
%ADD76R,0.00150X0.00050*%
%ADD77R,0.04150X0.00050*%
%ADD78R,0.03350X0.00050*%
%ADD79R,0.04200X0.00050*%
%ADD80R,0.00600X0.00050*%
%ADD81R,0.04250X0.00050*%
%ADD82R,0.04300X0.00050*%
%ADD83R,0.04350X0.00050*%
%ADD84R,0.04400X0.00050*%
%ADD85R,0.04450X0.00050*%
%ADD86R,0.04500X0.00050*%
%ADD87R,0.04550X0.00050*%
%ADD88R,0.04600X0.00050*%
%ADD89R,0.04650X0.00050*%
%ADD90R,0.04700X0.00050*%
%ADD91R,0.04750X0.00050*%
%ADD92R,0.04800X0.00050*%
%ADD93R,0.04850X0.00050*%
%ADD94R,0.04950X0.00050*%
%ADD95R,0.02550X0.00050*%
%ADD96R,0.05000X0.00050*%
%ADD97R,0.05100X0.00050*%
%ADD98R,0.03700X0.00050*%
%ADD99R,0.05150X0.00050*%
%ADD100R,0.05250X0.00050*%
%ADD101R,0.04900X0.00050*%
%ADD102R,0.05350X0.00050*%
%ADD103R,0.05050X0.00050*%
%ADD104R,0.05400X0.00050*%
%ADD105R,0.05300X0.00050*%
%ADD106R,0.05450X0.00050*%
%ADD107R,0.05500X0.00050*%
%ADD108R,0.05600X0.00050*%
%ADD109R,0.05700X0.00050*%
%ADD110R,0.05850X0.00050*%
%ADD111R,0.05650X0.00050*%
%ADD112R,0.06000X0.00050*%
%ADD113R,0.06100X0.00050*%
%ADD114R,0.05750X0.00050*%
%ADD115R,0.06200X0.00050*%
%ADD116R,0.06300X0.00050*%
%ADD117R,0.06450X0.00050*%
%ADD118R,0.05950X0.00050*%
%ADD119R,0.06500X0.00050*%
%ADD120R,0.06600X0.00050*%
%ADD121R,0.06650X0.00050*%
%ADD122R,0.06150X0.00050*%
%ADD123R,0.06800X0.00050*%
%ADD124R,0.06250X0.00050*%
%ADD125R,0.06850X0.00050*%
%ADD126R,0.06350X0.00050*%
%ADD127R,0.06950X0.00050*%
%ADD128R,0.06400X0.00050*%
%ADD129R,0.07000X0.00050*%
%ADD130R,0.07050X0.00050*%
%ADD131R,0.07100X0.00050*%
%ADD132R,0.07200X0.00050*%
%ADD133R,0.07250X0.00050*%
%ADD134R,0.06700X0.00050*%
%ADD135R,0.07300X0.00050*%
%ADD136R,0.06750X0.00050*%
%ADD137R,0.07350X0.00050*%
%ADD138R,0.07400X0.00050*%
%ADD139R,0.07450X0.00050*%
%ADD140R,0.07500X0.00050*%
%ADD141R,0.07550X0.00050*%
%ADD142R,0.07600X0.00050*%
%ADD143R,0.07650X0.00050*%
%ADD144R,0.07700X0.00050*%
%ADD145R,0.07750X0.00050*%
%ADD146R,0.07800X0.00050*%
%ADD147R,0.07850X0.00050*%
%ADD148R,0.07950X0.00050*%
%ADD149R,0.08000X0.00050*%
%ADD150R,0.08100X0.00050*%
%ADD151R,0.08150X0.00050*%
%ADD152R,0.08200X0.00050*%
%ADD153R,0.08250X0.00050*%
%ADD154R,0.08300X0.00050*%
%ADD155R,0.08350X0.00050*%
%ADD156R,0.08400X0.00050*%
%ADD157R,0.08450X0.00050*%
%ADD158R,0.08500X0.00050*%
%ADD159R,0.08600X0.00050*%
%ADD160R,0.08650X0.00050*%
%ADD161R,0.08700X0.00050*%
%ADD162R,0.08750X0.00050*%
%ADD163R,0.08800X0.00050*%
%ADD164R,0.08850X0.00050*%
%ADD165R,0.08900X0.00050*%
%ADD166R,0.08950X0.00050*%
%ADD167R,0.09000X0.00050*%
%ADD168R,0.09050X0.00050*%
%ADD169R,0.09100X0.00050*%
%ADD170R,0.09150X0.00050*%
%ADD171R,0.09200X0.00050*%
%ADD172R,0.09250X0.00050*%
%ADD173R,0.09300X0.00050*%
%ADD174R,0.09350X0.00050*%
%ADD175R,0.09400X0.00050*%
%ADD176R,0.09450X0.00050*%
%ADD177R,0.09500X0.00050*%
%ADD178R,0.07150X0.00050*%
%ADD179R,0.06900X0.00050*%
%ADD180R,0.06050X0.00050*%
%ADD181R,0.05800X0.00050*%
%ADD182R,0.05550X0.00050*%
%ADD183R,0.00250X0.00050*%
%ADD184R,0.00350X0.00050*%
%ADD185R,0.00400X0.00050*%
%ADD186R,0.03900X0.00050*%
%ADD187R,0.03950X0.00050*%
%ADD188R,0.02250X0.00050*%
%ADD189R,0.10200X0.00050*%
%ADD190R,0.10150X0.00050*%
%ADD191R,0.03600X0.00050*%
%ADD192R,0.10300X0.00050*%
%ADD193R,0.10450X0.00050*%
%ADD194R,0.10500X0.00050*%
%ADD195R,0.10600X0.00050*%
%ADD196R,0.10650X0.00050*%
%ADD197R,0.10800X0.00050*%
%ADD198R,0.10900X0.00050*%
%ADD199R,0.10950X0.00050*%
%ADD200R,0.11050X0.00050*%
%ADD201R,0.11200X0.00050*%
%ADD202R,0.11250X0.00050*%
%ADD203R,0.11350X0.00050*%
%ADD204R,0.11500X0.00050*%
%ADD205R,0.11550X0.00050*%
%ADD206R,0.11650X0.00050*%
%ADD207R,0.11750X0.00050*%
%ADD208R,0.11900X0.00050*%
%ADD209R,0.07900X0.00050*%
%ADD210R,0.06550X0.00050*%
%ADD211R,0.08050X0.00050*%
%ADD212R,0.05900X0.00050*%
%ADD213R,0.05200X0.00050*%
%ADD214R,0.08550X0.00050*%
%ADD215R,0.09600X0.00050*%
%ADD216R,0.09750X0.00050*%
%ADD217R,0.09900X0.00050*%
%ADD218R,0.00450X0.00050*%
%ADD219R,0.09850X0.00050*%
%ADD220R,0.00200X0.00050*%
%ADD221R,0.09700X0.00050*%
%ADD222R,0.09650X0.00050*%
%ADD223R,0.09550X0.00050*%
%ADD224R,0.14200X0.00050*%
%ADD225R,0.14250X0.00050*%
%ADD226R,0.14300X0.00050*%
%ADD227R,0.14400X0.00050*%
%ADD228R,0.14450X0.00050*%
%ADD229R,0.14500X0.00050*%
%ADD230R,0.14550X0.00050*%
%ADD231R,0.14650X0.00050*%
%ADD232R,0.02100X0.00050*%
%ADD233R,0.14700X0.00050*%
%ADD234R,0.01950X0.00050*%
%ADD235R,0.14800X0.00050*%
%ADD236R,0.14850X0.00050*%
%ADD237R,0.14950X0.00050*%
%ADD238R,0.15000X0.00050*%
%ADD239R,0.15050X0.00050*%
%ADD240R,0.15150X0.00050*%
%ADD241R,0.15200X0.00050*%
%ADD242R,0.15250X0.00050*%
%ADD243R,0.15300X0.00050*%
%ADD244R,0.15400X0.00050*%
%ADD245R,0.15450X0.00050*%
%ADD246R,0.15500X0.00050*%
%ADD247R,0.15600X0.00050*%
%ADD248R,0.15650X0.00050*%
%ADD249R,0.03750X0.00050*%
%ADD250R,0.11950X0.00050*%
%ADD251R,0.12050X0.00050*%
%ADD252R,0.12100X0.00050*%
%ADD253R,0.03550X0.00050*%
%ADD254R,0.02150X0.00050*%
%ADD255R,0.02000X0.00050*%
%ADD256R,0.03500X0.00050*%
%ADD257R,0.02200X0.00050*%
%ADD258R,0.00050X0.00050*%
D10*
X0073539Y0005833D02*
X0073539Y0325833D01*
X0337240Y0325833D01*
X0337240Y0005833D01*
X0073539Y0005833D01*
X0291039Y0045583D02*
X0291106Y0045683D01*
X0291131Y0045683D02*
X0291131Y0045600D01*
X0291148Y0045583D01*
X0291181Y0045583D01*
X0291198Y0045600D01*
X0291198Y0045683D01*
X0291240Y0045650D02*
X0291290Y0045650D01*
X0291315Y0045633D02*
X0291332Y0045650D01*
X0291365Y0045650D01*
X0291382Y0045633D01*
X0291382Y0045617D01*
X0291315Y0045617D01*
X0291315Y0045633D02*
X0291315Y0045600D01*
X0291332Y0045583D01*
X0291365Y0045583D01*
X0291407Y0045583D02*
X0291407Y0045650D01*
X0291407Y0045617D02*
X0291441Y0045650D01*
X0291458Y0045650D01*
X0291484Y0045633D02*
X0291501Y0045650D01*
X0291551Y0045650D01*
X0291534Y0045617D02*
X0291501Y0045617D01*
X0291484Y0045633D01*
X0291484Y0045583D02*
X0291534Y0045583D01*
X0291551Y0045600D01*
X0291534Y0045617D01*
X0291576Y0045583D02*
X0291643Y0045683D01*
X0291685Y0045667D02*
X0291702Y0045683D01*
X0291685Y0045667D02*
X0291685Y0045583D01*
X0291730Y0045583D02*
X0291730Y0045650D01*
X0291702Y0045633D02*
X0291668Y0045633D01*
X0291730Y0045617D02*
X0291763Y0045650D01*
X0291780Y0045650D01*
X0291823Y0045650D02*
X0291857Y0045650D01*
X0291873Y0045633D01*
X0291873Y0045583D01*
X0291823Y0045583D01*
X0291806Y0045600D01*
X0291823Y0045617D01*
X0291873Y0045617D01*
X0291899Y0045650D02*
X0291949Y0045650D01*
X0291965Y0045633D01*
X0291965Y0045583D01*
X0291991Y0045583D02*
X0291991Y0045683D01*
X0292041Y0045650D02*
X0291991Y0045617D01*
X0292041Y0045583D01*
X0292067Y0045583D02*
X0292134Y0045683D01*
X0292159Y0045683D02*
X0292209Y0045683D01*
X0292226Y0045667D01*
X0292226Y0045600D01*
X0292209Y0045583D01*
X0292159Y0045583D01*
X0292159Y0045683D01*
X0292252Y0045633D02*
X0292268Y0045650D01*
X0292302Y0045650D01*
X0292318Y0045633D01*
X0292318Y0045617D01*
X0292252Y0045617D01*
X0292252Y0045633D02*
X0292252Y0045600D01*
X0292268Y0045583D01*
X0292302Y0045583D01*
X0292344Y0045583D02*
X0292394Y0045583D01*
X0292410Y0045600D01*
X0292394Y0045617D01*
X0292360Y0045617D01*
X0292344Y0045633D01*
X0292360Y0045650D01*
X0292410Y0045650D01*
X0292436Y0045617D02*
X0292486Y0045650D01*
X0292512Y0045650D02*
X0292546Y0045650D01*
X0292529Y0045667D02*
X0292529Y0045600D01*
X0292546Y0045583D01*
X0292574Y0045600D02*
X0292590Y0045583D01*
X0292624Y0045583D01*
X0292640Y0045600D01*
X0292640Y0045633D01*
X0292624Y0045650D01*
X0292590Y0045650D01*
X0292574Y0045633D01*
X0292574Y0045600D01*
X0292486Y0045583D02*
X0292436Y0045617D01*
X0292436Y0045583D02*
X0292436Y0045683D01*
X0292666Y0045650D02*
X0292716Y0045650D01*
X0292733Y0045633D01*
X0292733Y0045600D01*
X0292716Y0045583D01*
X0292666Y0045583D01*
X0292666Y0045550D02*
X0292666Y0045650D01*
X0292758Y0045583D02*
X0292825Y0045683D01*
X0292850Y0045650D02*
X0292900Y0045650D01*
X0292917Y0045633D01*
X0292917Y0045583D01*
X0292942Y0045600D02*
X0292959Y0045583D01*
X0293009Y0045583D01*
X0293009Y0045650D01*
X0293034Y0045650D02*
X0293034Y0045583D01*
X0293034Y0045617D02*
X0293067Y0045650D01*
X0293084Y0045650D01*
X0293128Y0045650D02*
X0293161Y0045650D01*
X0293178Y0045633D01*
X0293178Y0045583D01*
X0293128Y0045583D01*
X0293111Y0045600D01*
X0293128Y0045617D01*
X0293178Y0045617D01*
X0293203Y0045633D02*
X0293203Y0045600D01*
X0293220Y0045583D01*
X0293270Y0045583D01*
X0293295Y0045583D02*
X0293328Y0045583D01*
X0293312Y0045583D02*
X0293312Y0045650D01*
X0293295Y0045650D01*
X0293270Y0045650D02*
X0293220Y0045650D01*
X0293203Y0045633D01*
X0293312Y0045683D02*
X0293312Y0045700D01*
X0293356Y0045650D02*
X0293406Y0045650D01*
X0293423Y0045633D01*
X0293423Y0045583D01*
X0293448Y0045600D02*
X0293465Y0045583D01*
X0293515Y0045583D01*
X0293515Y0045567D02*
X0293515Y0045650D01*
X0293465Y0045650D01*
X0293448Y0045633D01*
X0293448Y0045600D01*
X0293482Y0045550D02*
X0293499Y0045550D01*
X0293515Y0045567D01*
X0293541Y0045583D02*
X0293574Y0045583D01*
X0293557Y0045583D02*
X0293557Y0045683D01*
X0293541Y0045683D01*
X0293602Y0045633D02*
X0293602Y0045600D01*
X0293619Y0045583D01*
X0293652Y0045583D01*
X0293669Y0045600D01*
X0293669Y0045633D01*
X0293652Y0045650D01*
X0293619Y0045650D01*
X0293602Y0045633D01*
X0293694Y0045633D02*
X0293694Y0045600D01*
X0293711Y0045583D01*
X0293761Y0045583D01*
X0293761Y0045567D02*
X0293761Y0045650D01*
X0293711Y0045650D01*
X0293694Y0045633D01*
X0293727Y0045550D02*
X0293744Y0045550D01*
X0293761Y0045567D01*
X0293786Y0045600D02*
X0293803Y0045583D01*
X0293836Y0045583D01*
X0293853Y0045600D01*
X0293853Y0045633D01*
X0293836Y0045650D01*
X0293803Y0045650D01*
X0293786Y0045633D01*
X0293786Y0045600D01*
X0293878Y0045600D02*
X0293895Y0045583D01*
X0293928Y0045583D01*
X0293945Y0045600D01*
X0293945Y0045617D01*
X0293928Y0045633D01*
X0293912Y0045633D01*
X0293928Y0045633D02*
X0293945Y0045650D01*
X0293945Y0045667D01*
X0293928Y0045683D01*
X0293895Y0045683D01*
X0293878Y0045667D01*
X0293970Y0045600D02*
X0293987Y0045600D01*
X0293987Y0045583D01*
X0293970Y0045583D01*
X0293970Y0045600D01*
X0294016Y0045583D02*
X0294066Y0045583D01*
X0294083Y0045600D01*
X0294083Y0045633D01*
X0294066Y0045650D01*
X0294016Y0045650D01*
X0294016Y0045683D02*
X0294016Y0045583D01*
X0294108Y0045583D02*
X0294108Y0045650D01*
X0294125Y0045650D01*
X0294142Y0045633D01*
X0294158Y0045650D01*
X0294175Y0045633D01*
X0294175Y0045583D01*
X0294200Y0045583D02*
X0294250Y0045583D01*
X0294267Y0045600D01*
X0294267Y0045633D01*
X0294250Y0045650D01*
X0294200Y0045650D01*
X0294200Y0045550D01*
X0294142Y0045583D02*
X0294142Y0045633D01*
X0293356Y0045650D02*
X0293356Y0045583D01*
X0292942Y0045600D02*
X0292942Y0045650D01*
X0292850Y0045650D02*
X0292850Y0045583D01*
X0291899Y0045583D02*
X0291899Y0045650D01*
X0291290Y0045600D02*
X0291273Y0045617D01*
X0291240Y0045617D01*
X0291223Y0045633D01*
X0291240Y0045650D01*
X0291223Y0045583D02*
X0291273Y0045583D01*
X0291290Y0045600D01*
D11*
X0291458Y0027539D02*
X0292525Y0027539D01*
X0292525Y0021133D01*
X0291458Y0021133D02*
X0293593Y0021133D01*
X0295755Y0022201D02*
X0295755Y0024336D01*
X0296822Y0025404D01*
X0298957Y0025404D01*
X0300025Y0024336D01*
X0300025Y0023268D01*
X0295755Y0023268D01*
X0295755Y0022201D02*
X0296822Y0021133D01*
X0298957Y0021133D01*
X0292391Y0015404D02*
X0292391Y0010066D01*
X0291323Y0008998D01*
X0290256Y0008998D01*
X0289188Y0011133D02*
X0288120Y0012201D01*
X0288120Y0015404D01*
X0285945Y0014336D02*
X0284878Y0015404D01*
X0282742Y0015404D01*
X0281675Y0014336D01*
X0281675Y0012201D01*
X0282742Y0011133D01*
X0284878Y0011133D01*
X0285945Y0012201D01*
X0285945Y0014336D01*
X0289188Y0011133D02*
X0292391Y0011133D01*
X0289282Y0021133D02*
X0286080Y0021133D01*
X0285012Y0022201D01*
X0285012Y0025404D01*
X0282837Y0025404D02*
X0279634Y0025404D01*
X0278567Y0024336D01*
X0278567Y0022201D01*
X0279634Y0021133D01*
X0282837Y0021133D01*
X0282837Y0027539D01*
X0289282Y0025404D02*
X0289282Y0021133D01*
X0279506Y0015404D02*
X0278439Y0015404D01*
X0276304Y0013268D01*
X0276304Y0011133D02*
X0276304Y0015404D01*
X0274128Y0014336D02*
X0274128Y0011133D01*
X0274128Y0014336D02*
X0273061Y0015404D01*
X0269858Y0015404D01*
X0269858Y0011133D01*
X0267683Y0012201D02*
X0267683Y0014336D01*
X0266615Y0015404D01*
X0264480Y0015404D01*
X0263413Y0014336D01*
X0263413Y0012201D01*
X0264480Y0011133D01*
X0266615Y0011133D01*
X0267683Y0012201D01*
X0261237Y0011133D02*
X0258035Y0011133D01*
X0256967Y0012201D01*
X0256967Y0014336D01*
X0258035Y0015404D01*
X0261237Y0015404D01*
X0254792Y0015404D02*
X0251589Y0015404D01*
X0250522Y0014336D01*
X0251589Y0013268D01*
X0253724Y0013268D01*
X0254792Y0012201D01*
X0253724Y0011133D01*
X0250522Y0011133D01*
X0248360Y0011133D02*
X0246225Y0011133D01*
X0247292Y0011133D02*
X0247292Y0015404D01*
X0246225Y0015404D01*
X0244049Y0015404D02*
X0240847Y0015404D01*
X0239779Y0014336D01*
X0239779Y0012201D01*
X0240847Y0011133D01*
X0244049Y0011133D01*
X0237604Y0011133D02*
X0237604Y0014336D01*
X0236536Y0015404D01*
X0233334Y0015404D01*
X0233334Y0011133D01*
X0231158Y0011133D02*
X0227956Y0011133D01*
X0226888Y0012201D01*
X0227956Y0013268D01*
X0231158Y0013268D01*
X0231158Y0014336D02*
X0231158Y0011133D01*
X0231158Y0014336D02*
X0230091Y0015404D01*
X0227956Y0015404D01*
X0224720Y0015404D02*
X0223652Y0015404D01*
X0221517Y0013268D01*
X0221517Y0011133D02*
X0221517Y0015404D01*
X0219355Y0014336D02*
X0217220Y0014336D01*
X0218287Y0016471D02*
X0219355Y0017539D01*
X0218287Y0016471D02*
X0218287Y0011133D01*
X0215045Y0017539D02*
X0210774Y0011133D01*
X0208599Y0011133D02*
X0208599Y0014336D01*
X0207532Y0015404D01*
X0206464Y0014336D01*
X0206464Y0011133D01*
X0204329Y0011133D02*
X0204329Y0015404D01*
X0205396Y0015404D01*
X0206464Y0014336D01*
X0202154Y0014336D02*
X0202154Y0012201D01*
X0201086Y0011133D01*
X0198951Y0011133D01*
X0197883Y0012201D01*
X0197883Y0014336D01*
X0198951Y0015404D01*
X0201086Y0015404D01*
X0202154Y0014336D01*
X0195708Y0015404D02*
X0192505Y0015404D01*
X0191438Y0014336D01*
X0191438Y0012201D01*
X0192505Y0011133D01*
X0195708Y0011133D01*
X0189283Y0011133D02*
X0188215Y0011133D01*
X0188215Y0012201D01*
X0189283Y0012201D01*
X0189283Y0011133D01*
X0186040Y0012201D02*
X0186040Y0014336D01*
X0184972Y0015404D01*
X0181770Y0015404D01*
X0181770Y0017539D02*
X0181770Y0011133D01*
X0184972Y0011133D01*
X0186040Y0012201D01*
X0179594Y0011133D02*
X0179594Y0015404D01*
X0175324Y0015404D02*
X0175324Y0012201D01*
X0176392Y0011133D01*
X0179594Y0011133D01*
X0173149Y0011133D02*
X0173149Y0014336D01*
X0172081Y0015404D01*
X0169946Y0015404D01*
X0168879Y0014336D01*
X0166717Y0015404D02*
X0164582Y0015404D01*
X0165649Y0016471D02*
X0165649Y0012201D01*
X0166717Y0011133D01*
X0168879Y0011133D02*
X0168879Y0017539D01*
X0162420Y0011133D02*
X0160285Y0011133D01*
X0161352Y0011133D02*
X0161352Y0015404D01*
X0160285Y0015404D01*
X0158109Y0015404D02*
X0154907Y0015404D01*
X0153839Y0014336D01*
X0153839Y0012201D01*
X0154907Y0011133D01*
X0158109Y0011133D01*
X0158109Y0010066D02*
X0157042Y0008998D01*
X0155974Y0008998D01*
X0158109Y0010066D02*
X0158109Y0015404D01*
X0161352Y0017539D02*
X0161352Y0018606D01*
X0246339Y0022201D02*
X0247407Y0021133D01*
X0249542Y0021133D01*
X0250609Y0022201D01*
X0250609Y0024336D01*
X0248474Y0024336D01*
X0246339Y0026471D02*
X0246339Y0022201D01*
X0247292Y0018606D02*
X0247292Y0017539D01*
X0252785Y0022201D02*
X0253852Y0021133D01*
X0255987Y0021133D01*
X0257055Y0022201D01*
X0257055Y0023268D01*
X0255987Y0024336D01*
X0253852Y0024336D01*
X0252785Y0025404D01*
X0252785Y0026471D01*
X0253852Y0027539D01*
X0255987Y0027539D01*
X0257055Y0026471D01*
X0250609Y0026471D02*
X0249542Y0027539D01*
X0247407Y0027539D01*
X0246339Y0026471D01*
X0265676Y0027539D02*
X0265676Y0021133D01*
X0269946Y0021133D02*
X0269946Y0027539D01*
X0267811Y0025404D01*
X0265676Y0027539D01*
X0272121Y0024336D02*
X0272121Y0022201D01*
X0273189Y0021133D01*
X0275324Y0021133D01*
X0276391Y0022201D01*
X0276391Y0024336D01*
X0275324Y0025404D01*
X0273189Y0025404D01*
X0272121Y0024336D01*
X0308646Y0023268D02*
X0310781Y0021133D01*
X0312916Y0023268D01*
X0312916Y0027539D01*
X0315091Y0025404D02*
X0317226Y0027539D01*
X0317226Y0021133D01*
X0315091Y0021133D02*
X0319361Y0021133D01*
X0321537Y0021133D02*
X0322604Y0021133D01*
X0322604Y0022201D01*
X0321537Y0022201D01*
X0321537Y0021133D01*
X0324759Y0022201D02*
X0324759Y0026471D01*
X0325827Y0027539D01*
X0327962Y0027539D01*
X0329030Y0026471D01*
X0324759Y0022201D01*
X0325827Y0021133D01*
X0327962Y0021133D01*
X0329030Y0022201D01*
X0329030Y0026471D01*
X0308646Y0027539D02*
X0308646Y0023268D01*
X0297039Y0110833D02*
X0296039Y0110833D01*
X0296039Y0150833D01*
X0297039Y0150833D01*
X0323039Y0150833D01*
X0323039Y0144333D01*
X0323039Y0150833D02*
X0332539Y0150833D01*
X0332539Y0110833D01*
X0323039Y0110833D01*
X0323039Y0117333D01*
X0323039Y0110833D02*
X0297039Y0110833D01*
X0297039Y0150833D01*
X0300339Y0140833D02*
X0300341Y0140922D01*
X0300347Y0141011D01*
X0300357Y0141100D01*
X0300371Y0141188D01*
X0300388Y0141275D01*
X0300410Y0141361D01*
X0300436Y0141447D01*
X0300465Y0141531D01*
X0300498Y0141614D01*
X0300534Y0141695D01*
X0300575Y0141775D01*
X0300618Y0141852D01*
X0300665Y0141928D01*
X0300716Y0142001D01*
X0300769Y0142072D01*
X0300826Y0142141D01*
X0300886Y0142207D01*
X0300949Y0142271D01*
X0301014Y0142331D01*
X0301082Y0142389D01*
X0301153Y0142443D01*
X0301226Y0142494D01*
X0301301Y0142542D01*
X0301378Y0142587D01*
X0301457Y0142628D01*
X0301538Y0142665D01*
X0301620Y0142699D01*
X0301704Y0142730D01*
X0301789Y0142756D01*
X0301875Y0142779D01*
X0301962Y0142797D01*
X0302050Y0142812D01*
X0302139Y0142823D01*
X0302228Y0142830D01*
X0302317Y0142833D01*
X0302406Y0142832D01*
X0302495Y0142827D01*
X0302583Y0142818D01*
X0302672Y0142805D01*
X0302759Y0142788D01*
X0302846Y0142768D01*
X0302932Y0142743D01*
X0303016Y0142715D01*
X0303099Y0142683D01*
X0303181Y0142647D01*
X0303261Y0142608D01*
X0303339Y0142565D01*
X0303415Y0142519D01*
X0303489Y0142469D01*
X0303561Y0142416D01*
X0303630Y0142360D01*
X0303697Y0142301D01*
X0303761Y0142239D01*
X0303822Y0142175D01*
X0303881Y0142107D01*
X0303936Y0142037D01*
X0303988Y0141965D01*
X0304037Y0141890D01*
X0304082Y0141814D01*
X0304124Y0141735D01*
X0304162Y0141655D01*
X0304197Y0141573D01*
X0304228Y0141489D01*
X0304256Y0141404D01*
X0304279Y0141318D01*
X0304299Y0141231D01*
X0304315Y0141144D01*
X0304327Y0141055D01*
X0304335Y0140967D01*
X0304339Y0140878D01*
X0304339Y0140788D01*
X0304335Y0140699D01*
X0304327Y0140611D01*
X0304315Y0140522D01*
X0304299Y0140435D01*
X0304279Y0140348D01*
X0304256Y0140262D01*
X0304228Y0140177D01*
X0304197Y0140093D01*
X0304162Y0140011D01*
X0304124Y0139931D01*
X0304082Y0139852D01*
X0304037Y0139776D01*
X0303988Y0139701D01*
X0303936Y0139629D01*
X0303881Y0139559D01*
X0303822Y0139491D01*
X0303761Y0139427D01*
X0303697Y0139365D01*
X0303630Y0139306D01*
X0303561Y0139250D01*
X0303489Y0139197D01*
X0303415Y0139147D01*
X0303339Y0139101D01*
X0303261Y0139058D01*
X0303181Y0139019D01*
X0303099Y0138983D01*
X0303016Y0138951D01*
X0302932Y0138923D01*
X0302846Y0138898D01*
X0302759Y0138878D01*
X0302672Y0138861D01*
X0302583Y0138848D01*
X0302495Y0138839D01*
X0302406Y0138834D01*
X0302317Y0138833D01*
X0302228Y0138836D01*
X0302139Y0138843D01*
X0302050Y0138854D01*
X0301962Y0138869D01*
X0301875Y0138887D01*
X0301789Y0138910D01*
X0301704Y0138936D01*
X0301620Y0138967D01*
X0301538Y0139001D01*
X0301457Y0139038D01*
X0301378Y0139079D01*
X0301301Y0139124D01*
X0301226Y0139172D01*
X0301153Y0139223D01*
X0301082Y0139277D01*
X0301014Y0139335D01*
X0300949Y0139395D01*
X0300886Y0139459D01*
X0300826Y0139525D01*
X0300769Y0139594D01*
X0300716Y0139665D01*
X0300665Y0139738D01*
X0300618Y0139814D01*
X0300575Y0139891D01*
X0300534Y0139971D01*
X0300498Y0140052D01*
X0300465Y0140135D01*
X0300436Y0140219D01*
X0300410Y0140305D01*
X0300388Y0140391D01*
X0300371Y0140478D01*
X0300357Y0140566D01*
X0300347Y0140655D01*
X0300341Y0140744D01*
X0300339Y0140833D01*
X0300339Y0120833D02*
X0300341Y0120922D01*
X0300347Y0121011D01*
X0300357Y0121100D01*
X0300371Y0121188D01*
X0300388Y0121275D01*
X0300410Y0121361D01*
X0300436Y0121447D01*
X0300465Y0121531D01*
X0300498Y0121614D01*
X0300534Y0121695D01*
X0300575Y0121775D01*
X0300618Y0121852D01*
X0300665Y0121928D01*
X0300716Y0122001D01*
X0300769Y0122072D01*
X0300826Y0122141D01*
X0300886Y0122207D01*
X0300949Y0122271D01*
X0301014Y0122331D01*
X0301082Y0122389D01*
X0301153Y0122443D01*
X0301226Y0122494D01*
X0301301Y0122542D01*
X0301378Y0122587D01*
X0301457Y0122628D01*
X0301538Y0122665D01*
X0301620Y0122699D01*
X0301704Y0122730D01*
X0301789Y0122756D01*
X0301875Y0122779D01*
X0301962Y0122797D01*
X0302050Y0122812D01*
X0302139Y0122823D01*
X0302228Y0122830D01*
X0302317Y0122833D01*
X0302406Y0122832D01*
X0302495Y0122827D01*
X0302583Y0122818D01*
X0302672Y0122805D01*
X0302759Y0122788D01*
X0302846Y0122768D01*
X0302932Y0122743D01*
X0303016Y0122715D01*
X0303099Y0122683D01*
X0303181Y0122647D01*
X0303261Y0122608D01*
X0303339Y0122565D01*
X0303415Y0122519D01*
X0303489Y0122469D01*
X0303561Y0122416D01*
X0303630Y0122360D01*
X0303697Y0122301D01*
X0303761Y0122239D01*
X0303822Y0122175D01*
X0303881Y0122107D01*
X0303936Y0122037D01*
X0303988Y0121965D01*
X0304037Y0121890D01*
X0304082Y0121814D01*
X0304124Y0121735D01*
X0304162Y0121655D01*
X0304197Y0121573D01*
X0304228Y0121489D01*
X0304256Y0121404D01*
X0304279Y0121318D01*
X0304299Y0121231D01*
X0304315Y0121144D01*
X0304327Y0121055D01*
X0304335Y0120967D01*
X0304339Y0120878D01*
X0304339Y0120788D01*
X0304335Y0120699D01*
X0304327Y0120611D01*
X0304315Y0120522D01*
X0304299Y0120435D01*
X0304279Y0120348D01*
X0304256Y0120262D01*
X0304228Y0120177D01*
X0304197Y0120093D01*
X0304162Y0120011D01*
X0304124Y0119931D01*
X0304082Y0119852D01*
X0304037Y0119776D01*
X0303988Y0119701D01*
X0303936Y0119629D01*
X0303881Y0119559D01*
X0303822Y0119491D01*
X0303761Y0119427D01*
X0303697Y0119365D01*
X0303630Y0119306D01*
X0303561Y0119250D01*
X0303489Y0119197D01*
X0303415Y0119147D01*
X0303339Y0119101D01*
X0303261Y0119058D01*
X0303181Y0119019D01*
X0303099Y0118983D01*
X0303016Y0118951D01*
X0302932Y0118923D01*
X0302846Y0118898D01*
X0302759Y0118878D01*
X0302672Y0118861D01*
X0302583Y0118848D01*
X0302495Y0118839D01*
X0302406Y0118834D01*
X0302317Y0118833D01*
X0302228Y0118836D01*
X0302139Y0118843D01*
X0302050Y0118854D01*
X0301962Y0118869D01*
X0301875Y0118887D01*
X0301789Y0118910D01*
X0301704Y0118936D01*
X0301620Y0118967D01*
X0301538Y0119001D01*
X0301457Y0119038D01*
X0301378Y0119079D01*
X0301301Y0119124D01*
X0301226Y0119172D01*
X0301153Y0119223D01*
X0301082Y0119277D01*
X0301014Y0119335D01*
X0300949Y0119395D01*
X0300886Y0119459D01*
X0300826Y0119525D01*
X0300769Y0119594D01*
X0300716Y0119665D01*
X0300665Y0119738D01*
X0300618Y0119814D01*
X0300575Y0119891D01*
X0300534Y0119971D01*
X0300498Y0120052D01*
X0300465Y0120135D01*
X0300436Y0120219D01*
X0300410Y0120305D01*
X0300388Y0120391D01*
X0300371Y0120478D01*
X0300357Y0120566D01*
X0300347Y0120655D01*
X0300341Y0120744D01*
X0300339Y0120833D01*
X0323039Y0124333D02*
X0323039Y0137333D01*
X0323039Y0190833D02*
X0297039Y0190833D01*
X0296039Y0190833D01*
X0296039Y0250833D01*
X0297039Y0250833D01*
X0297039Y0190833D01*
X0300339Y0200833D02*
X0300341Y0200922D01*
X0300347Y0201011D01*
X0300357Y0201100D01*
X0300371Y0201188D01*
X0300388Y0201275D01*
X0300410Y0201361D01*
X0300436Y0201447D01*
X0300465Y0201531D01*
X0300498Y0201614D01*
X0300534Y0201695D01*
X0300575Y0201775D01*
X0300618Y0201852D01*
X0300665Y0201928D01*
X0300716Y0202001D01*
X0300769Y0202072D01*
X0300826Y0202141D01*
X0300886Y0202207D01*
X0300949Y0202271D01*
X0301014Y0202331D01*
X0301082Y0202389D01*
X0301153Y0202443D01*
X0301226Y0202494D01*
X0301301Y0202542D01*
X0301378Y0202587D01*
X0301457Y0202628D01*
X0301538Y0202665D01*
X0301620Y0202699D01*
X0301704Y0202730D01*
X0301789Y0202756D01*
X0301875Y0202779D01*
X0301962Y0202797D01*
X0302050Y0202812D01*
X0302139Y0202823D01*
X0302228Y0202830D01*
X0302317Y0202833D01*
X0302406Y0202832D01*
X0302495Y0202827D01*
X0302583Y0202818D01*
X0302672Y0202805D01*
X0302759Y0202788D01*
X0302846Y0202768D01*
X0302932Y0202743D01*
X0303016Y0202715D01*
X0303099Y0202683D01*
X0303181Y0202647D01*
X0303261Y0202608D01*
X0303339Y0202565D01*
X0303415Y0202519D01*
X0303489Y0202469D01*
X0303561Y0202416D01*
X0303630Y0202360D01*
X0303697Y0202301D01*
X0303761Y0202239D01*
X0303822Y0202175D01*
X0303881Y0202107D01*
X0303936Y0202037D01*
X0303988Y0201965D01*
X0304037Y0201890D01*
X0304082Y0201814D01*
X0304124Y0201735D01*
X0304162Y0201655D01*
X0304197Y0201573D01*
X0304228Y0201489D01*
X0304256Y0201404D01*
X0304279Y0201318D01*
X0304299Y0201231D01*
X0304315Y0201144D01*
X0304327Y0201055D01*
X0304335Y0200967D01*
X0304339Y0200878D01*
X0304339Y0200788D01*
X0304335Y0200699D01*
X0304327Y0200611D01*
X0304315Y0200522D01*
X0304299Y0200435D01*
X0304279Y0200348D01*
X0304256Y0200262D01*
X0304228Y0200177D01*
X0304197Y0200093D01*
X0304162Y0200011D01*
X0304124Y0199931D01*
X0304082Y0199852D01*
X0304037Y0199776D01*
X0303988Y0199701D01*
X0303936Y0199629D01*
X0303881Y0199559D01*
X0303822Y0199491D01*
X0303761Y0199427D01*
X0303697Y0199365D01*
X0303630Y0199306D01*
X0303561Y0199250D01*
X0303489Y0199197D01*
X0303415Y0199147D01*
X0303339Y0199101D01*
X0303261Y0199058D01*
X0303181Y0199019D01*
X0303099Y0198983D01*
X0303016Y0198951D01*
X0302932Y0198923D01*
X0302846Y0198898D01*
X0302759Y0198878D01*
X0302672Y0198861D01*
X0302583Y0198848D01*
X0302495Y0198839D01*
X0302406Y0198834D01*
X0302317Y0198833D01*
X0302228Y0198836D01*
X0302139Y0198843D01*
X0302050Y0198854D01*
X0301962Y0198869D01*
X0301875Y0198887D01*
X0301789Y0198910D01*
X0301704Y0198936D01*
X0301620Y0198967D01*
X0301538Y0199001D01*
X0301457Y0199038D01*
X0301378Y0199079D01*
X0301301Y0199124D01*
X0301226Y0199172D01*
X0301153Y0199223D01*
X0301082Y0199277D01*
X0301014Y0199335D01*
X0300949Y0199395D01*
X0300886Y0199459D01*
X0300826Y0199525D01*
X0300769Y0199594D01*
X0300716Y0199665D01*
X0300665Y0199738D01*
X0300618Y0199814D01*
X0300575Y0199891D01*
X0300534Y0199971D01*
X0300498Y0200052D01*
X0300465Y0200135D01*
X0300436Y0200219D01*
X0300410Y0200305D01*
X0300388Y0200391D01*
X0300371Y0200478D01*
X0300357Y0200566D01*
X0300347Y0200655D01*
X0300341Y0200744D01*
X0300339Y0200833D01*
X0300339Y0220833D02*
X0300341Y0220922D01*
X0300347Y0221011D01*
X0300357Y0221100D01*
X0300371Y0221188D01*
X0300388Y0221275D01*
X0300410Y0221361D01*
X0300436Y0221447D01*
X0300465Y0221531D01*
X0300498Y0221614D01*
X0300534Y0221695D01*
X0300575Y0221775D01*
X0300618Y0221852D01*
X0300665Y0221928D01*
X0300716Y0222001D01*
X0300769Y0222072D01*
X0300826Y0222141D01*
X0300886Y0222207D01*
X0300949Y0222271D01*
X0301014Y0222331D01*
X0301082Y0222389D01*
X0301153Y0222443D01*
X0301226Y0222494D01*
X0301301Y0222542D01*
X0301378Y0222587D01*
X0301457Y0222628D01*
X0301538Y0222665D01*
X0301620Y0222699D01*
X0301704Y0222730D01*
X0301789Y0222756D01*
X0301875Y0222779D01*
X0301962Y0222797D01*
X0302050Y0222812D01*
X0302139Y0222823D01*
X0302228Y0222830D01*
X0302317Y0222833D01*
X0302406Y0222832D01*
X0302495Y0222827D01*
X0302583Y0222818D01*
X0302672Y0222805D01*
X0302759Y0222788D01*
X0302846Y0222768D01*
X0302932Y0222743D01*
X0303016Y0222715D01*
X0303099Y0222683D01*
X0303181Y0222647D01*
X0303261Y0222608D01*
X0303339Y0222565D01*
X0303415Y0222519D01*
X0303489Y0222469D01*
X0303561Y0222416D01*
X0303630Y0222360D01*
X0303697Y0222301D01*
X0303761Y0222239D01*
X0303822Y0222175D01*
X0303881Y0222107D01*
X0303936Y0222037D01*
X0303988Y0221965D01*
X0304037Y0221890D01*
X0304082Y0221814D01*
X0304124Y0221735D01*
X0304162Y0221655D01*
X0304197Y0221573D01*
X0304228Y0221489D01*
X0304256Y0221404D01*
X0304279Y0221318D01*
X0304299Y0221231D01*
X0304315Y0221144D01*
X0304327Y0221055D01*
X0304335Y0220967D01*
X0304339Y0220878D01*
X0304339Y0220788D01*
X0304335Y0220699D01*
X0304327Y0220611D01*
X0304315Y0220522D01*
X0304299Y0220435D01*
X0304279Y0220348D01*
X0304256Y0220262D01*
X0304228Y0220177D01*
X0304197Y0220093D01*
X0304162Y0220011D01*
X0304124Y0219931D01*
X0304082Y0219852D01*
X0304037Y0219776D01*
X0303988Y0219701D01*
X0303936Y0219629D01*
X0303881Y0219559D01*
X0303822Y0219491D01*
X0303761Y0219427D01*
X0303697Y0219365D01*
X0303630Y0219306D01*
X0303561Y0219250D01*
X0303489Y0219197D01*
X0303415Y0219147D01*
X0303339Y0219101D01*
X0303261Y0219058D01*
X0303181Y0219019D01*
X0303099Y0218983D01*
X0303016Y0218951D01*
X0302932Y0218923D01*
X0302846Y0218898D01*
X0302759Y0218878D01*
X0302672Y0218861D01*
X0302583Y0218848D01*
X0302495Y0218839D01*
X0302406Y0218834D01*
X0302317Y0218833D01*
X0302228Y0218836D01*
X0302139Y0218843D01*
X0302050Y0218854D01*
X0301962Y0218869D01*
X0301875Y0218887D01*
X0301789Y0218910D01*
X0301704Y0218936D01*
X0301620Y0218967D01*
X0301538Y0219001D01*
X0301457Y0219038D01*
X0301378Y0219079D01*
X0301301Y0219124D01*
X0301226Y0219172D01*
X0301153Y0219223D01*
X0301082Y0219277D01*
X0301014Y0219335D01*
X0300949Y0219395D01*
X0300886Y0219459D01*
X0300826Y0219525D01*
X0300769Y0219594D01*
X0300716Y0219665D01*
X0300665Y0219738D01*
X0300618Y0219814D01*
X0300575Y0219891D01*
X0300534Y0219971D01*
X0300498Y0220052D01*
X0300465Y0220135D01*
X0300436Y0220219D01*
X0300410Y0220305D01*
X0300388Y0220391D01*
X0300371Y0220478D01*
X0300357Y0220566D01*
X0300347Y0220655D01*
X0300341Y0220744D01*
X0300339Y0220833D01*
X0300339Y0240833D02*
X0300341Y0240922D01*
X0300347Y0241011D01*
X0300357Y0241100D01*
X0300371Y0241188D01*
X0300388Y0241275D01*
X0300410Y0241361D01*
X0300436Y0241447D01*
X0300465Y0241531D01*
X0300498Y0241614D01*
X0300534Y0241695D01*
X0300575Y0241775D01*
X0300618Y0241852D01*
X0300665Y0241928D01*
X0300716Y0242001D01*
X0300769Y0242072D01*
X0300826Y0242141D01*
X0300886Y0242207D01*
X0300949Y0242271D01*
X0301014Y0242331D01*
X0301082Y0242389D01*
X0301153Y0242443D01*
X0301226Y0242494D01*
X0301301Y0242542D01*
X0301378Y0242587D01*
X0301457Y0242628D01*
X0301538Y0242665D01*
X0301620Y0242699D01*
X0301704Y0242730D01*
X0301789Y0242756D01*
X0301875Y0242779D01*
X0301962Y0242797D01*
X0302050Y0242812D01*
X0302139Y0242823D01*
X0302228Y0242830D01*
X0302317Y0242833D01*
X0302406Y0242832D01*
X0302495Y0242827D01*
X0302583Y0242818D01*
X0302672Y0242805D01*
X0302759Y0242788D01*
X0302846Y0242768D01*
X0302932Y0242743D01*
X0303016Y0242715D01*
X0303099Y0242683D01*
X0303181Y0242647D01*
X0303261Y0242608D01*
X0303339Y0242565D01*
X0303415Y0242519D01*
X0303489Y0242469D01*
X0303561Y0242416D01*
X0303630Y0242360D01*
X0303697Y0242301D01*
X0303761Y0242239D01*
X0303822Y0242175D01*
X0303881Y0242107D01*
X0303936Y0242037D01*
X0303988Y0241965D01*
X0304037Y0241890D01*
X0304082Y0241814D01*
X0304124Y0241735D01*
X0304162Y0241655D01*
X0304197Y0241573D01*
X0304228Y0241489D01*
X0304256Y0241404D01*
X0304279Y0241318D01*
X0304299Y0241231D01*
X0304315Y0241144D01*
X0304327Y0241055D01*
X0304335Y0240967D01*
X0304339Y0240878D01*
X0304339Y0240788D01*
X0304335Y0240699D01*
X0304327Y0240611D01*
X0304315Y0240522D01*
X0304299Y0240435D01*
X0304279Y0240348D01*
X0304256Y0240262D01*
X0304228Y0240177D01*
X0304197Y0240093D01*
X0304162Y0240011D01*
X0304124Y0239931D01*
X0304082Y0239852D01*
X0304037Y0239776D01*
X0303988Y0239701D01*
X0303936Y0239629D01*
X0303881Y0239559D01*
X0303822Y0239491D01*
X0303761Y0239427D01*
X0303697Y0239365D01*
X0303630Y0239306D01*
X0303561Y0239250D01*
X0303489Y0239197D01*
X0303415Y0239147D01*
X0303339Y0239101D01*
X0303261Y0239058D01*
X0303181Y0239019D01*
X0303099Y0238983D01*
X0303016Y0238951D01*
X0302932Y0238923D01*
X0302846Y0238898D01*
X0302759Y0238878D01*
X0302672Y0238861D01*
X0302583Y0238848D01*
X0302495Y0238839D01*
X0302406Y0238834D01*
X0302317Y0238833D01*
X0302228Y0238836D01*
X0302139Y0238843D01*
X0302050Y0238854D01*
X0301962Y0238869D01*
X0301875Y0238887D01*
X0301789Y0238910D01*
X0301704Y0238936D01*
X0301620Y0238967D01*
X0301538Y0239001D01*
X0301457Y0239038D01*
X0301378Y0239079D01*
X0301301Y0239124D01*
X0301226Y0239172D01*
X0301153Y0239223D01*
X0301082Y0239277D01*
X0301014Y0239335D01*
X0300949Y0239395D01*
X0300886Y0239459D01*
X0300826Y0239525D01*
X0300769Y0239594D01*
X0300716Y0239665D01*
X0300665Y0239738D01*
X0300618Y0239814D01*
X0300575Y0239891D01*
X0300534Y0239971D01*
X0300498Y0240052D01*
X0300465Y0240135D01*
X0300436Y0240219D01*
X0300410Y0240305D01*
X0300388Y0240391D01*
X0300371Y0240478D01*
X0300357Y0240566D01*
X0300347Y0240655D01*
X0300341Y0240744D01*
X0300339Y0240833D01*
X0297039Y0250833D02*
X0323039Y0250833D01*
X0332539Y0250833D01*
X0332539Y0190833D01*
X0323039Y0190833D01*
X0323039Y0197333D01*
X0323039Y0204333D02*
X0323039Y0217333D01*
X0323039Y0224333D02*
X0323039Y0237333D01*
X0323039Y0244333D02*
X0323039Y0250833D01*
X0335039Y0260833D02*
X0336039Y0260833D01*
X0336039Y0320833D01*
X0335039Y0320833D01*
X0309039Y0320833D01*
X0309039Y0314333D01*
X0309039Y0320833D02*
X0299539Y0320833D01*
X0299539Y0260833D01*
X0309039Y0260833D01*
X0309039Y0267333D01*
X0309039Y0260833D02*
X0335039Y0260833D01*
X0335039Y0320833D01*
X0327739Y0310833D02*
X0327741Y0310922D01*
X0327747Y0311011D01*
X0327757Y0311100D01*
X0327771Y0311188D01*
X0327788Y0311275D01*
X0327810Y0311361D01*
X0327836Y0311447D01*
X0327865Y0311531D01*
X0327898Y0311614D01*
X0327934Y0311695D01*
X0327975Y0311775D01*
X0328018Y0311852D01*
X0328065Y0311928D01*
X0328116Y0312001D01*
X0328169Y0312072D01*
X0328226Y0312141D01*
X0328286Y0312207D01*
X0328349Y0312271D01*
X0328414Y0312331D01*
X0328482Y0312389D01*
X0328553Y0312443D01*
X0328626Y0312494D01*
X0328701Y0312542D01*
X0328778Y0312587D01*
X0328857Y0312628D01*
X0328938Y0312665D01*
X0329020Y0312699D01*
X0329104Y0312730D01*
X0329189Y0312756D01*
X0329275Y0312779D01*
X0329362Y0312797D01*
X0329450Y0312812D01*
X0329539Y0312823D01*
X0329628Y0312830D01*
X0329717Y0312833D01*
X0329806Y0312832D01*
X0329895Y0312827D01*
X0329983Y0312818D01*
X0330072Y0312805D01*
X0330159Y0312788D01*
X0330246Y0312768D01*
X0330332Y0312743D01*
X0330416Y0312715D01*
X0330499Y0312683D01*
X0330581Y0312647D01*
X0330661Y0312608D01*
X0330739Y0312565D01*
X0330815Y0312519D01*
X0330889Y0312469D01*
X0330961Y0312416D01*
X0331030Y0312360D01*
X0331097Y0312301D01*
X0331161Y0312239D01*
X0331222Y0312175D01*
X0331281Y0312107D01*
X0331336Y0312037D01*
X0331388Y0311965D01*
X0331437Y0311890D01*
X0331482Y0311814D01*
X0331524Y0311735D01*
X0331562Y0311655D01*
X0331597Y0311573D01*
X0331628Y0311489D01*
X0331656Y0311404D01*
X0331679Y0311318D01*
X0331699Y0311231D01*
X0331715Y0311144D01*
X0331727Y0311055D01*
X0331735Y0310967D01*
X0331739Y0310878D01*
X0331739Y0310788D01*
X0331735Y0310699D01*
X0331727Y0310611D01*
X0331715Y0310522D01*
X0331699Y0310435D01*
X0331679Y0310348D01*
X0331656Y0310262D01*
X0331628Y0310177D01*
X0331597Y0310093D01*
X0331562Y0310011D01*
X0331524Y0309931D01*
X0331482Y0309852D01*
X0331437Y0309776D01*
X0331388Y0309701D01*
X0331336Y0309629D01*
X0331281Y0309559D01*
X0331222Y0309491D01*
X0331161Y0309427D01*
X0331097Y0309365D01*
X0331030Y0309306D01*
X0330961Y0309250D01*
X0330889Y0309197D01*
X0330815Y0309147D01*
X0330739Y0309101D01*
X0330661Y0309058D01*
X0330581Y0309019D01*
X0330499Y0308983D01*
X0330416Y0308951D01*
X0330332Y0308923D01*
X0330246Y0308898D01*
X0330159Y0308878D01*
X0330072Y0308861D01*
X0329983Y0308848D01*
X0329895Y0308839D01*
X0329806Y0308834D01*
X0329717Y0308833D01*
X0329628Y0308836D01*
X0329539Y0308843D01*
X0329450Y0308854D01*
X0329362Y0308869D01*
X0329275Y0308887D01*
X0329189Y0308910D01*
X0329104Y0308936D01*
X0329020Y0308967D01*
X0328938Y0309001D01*
X0328857Y0309038D01*
X0328778Y0309079D01*
X0328701Y0309124D01*
X0328626Y0309172D01*
X0328553Y0309223D01*
X0328482Y0309277D01*
X0328414Y0309335D01*
X0328349Y0309395D01*
X0328286Y0309459D01*
X0328226Y0309525D01*
X0328169Y0309594D01*
X0328116Y0309665D01*
X0328065Y0309738D01*
X0328018Y0309814D01*
X0327975Y0309891D01*
X0327934Y0309971D01*
X0327898Y0310052D01*
X0327865Y0310135D01*
X0327836Y0310219D01*
X0327810Y0310305D01*
X0327788Y0310391D01*
X0327771Y0310478D01*
X0327757Y0310566D01*
X0327747Y0310655D01*
X0327741Y0310744D01*
X0327739Y0310833D01*
X0309039Y0307333D02*
X0309039Y0294333D01*
X0309039Y0287333D02*
X0309039Y0274333D01*
X0327739Y0270833D02*
X0327741Y0270922D01*
X0327747Y0271011D01*
X0327757Y0271100D01*
X0327771Y0271188D01*
X0327788Y0271275D01*
X0327810Y0271361D01*
X0327836Y0271447D01*
X0327865Y0271531D01*
X0327898Y0271614D01*
X0327934Y0271695D01*
X0327975Y0271775D01*
X0328018Y0271852D01*
X0328065Y0271928D01*
X0328116Y0272001D01*
X0328169Y0272072D01*
X0328226Y0272141D01*
X0328286Y0272207D01*
X0328349Y0272271D01*
X0328414Y0272331D01*
X0328482Y0272389D01*
X0328553Y0272443D01*
X0328626Y0272494D01*
X0328701Y0272542D01*
X0328778Y0272587D01*
X0328857Y0272628D01*
X0328938Y0272665D01*
X0329020Y0272699D01*
X0329104Y0272730D01*
X0329189Y0272756D01*
X0329275Y0272779D01*
X0329362Y0272797D01*
X0329450Y0272812D01*
X0329539Y0272823D01*
X0329628Y0272830D01*
X0329717Y0272833D01*
X0329806Y0272832D01*
X0329895Y0272827D01*
X0329983Y0272818D01*
X0330072Y0272805D01*
X0330159Y0272788D01*
X0330246Y0272768D01*
X0330332Y0272743D01*
X0330416Y0272715D01*
X0330499Y0272683D01*
X0330581Y0272647D01*
X0330661Y0272608D01*
X0330739Y0272565D01*
X0330815Y0272519D01*
X0330889Y0272469D01*
X0330961Y0272416D01*
X0331030Y0272360D01*
X0331097Y0272301D01*
X0331161Y0272239D01*
X0331222Y0272175D01*
X0331281Y0272107D01*
X0331336Y0272037D01*
X0331388Y0271965D01*
X0331437Y0271890D01*
X0331482Y0271814D01*
X0331524Y0271735D01*
X0331562Y0271655D01*
X0331597Y0271573D01*
X0331628Y0271489D01*
X0331656Y0271404D01*
X0331679Y0271318D01*
X0331699Y0271231D01*
X0331715Y0271144D01*
X0331727Y0271055D01*
X0331735Y0270967D01*
X0331739Y0270878D01*
X0331739Y0270788D01*
X0331735Y0270699D01*
X0331727Y0270611D01*
X0331715Y0270522D01*
X0331699Y0270435D01*
X0331679Y0270348D01*
X0331656Y0270262D01*
X0331628Y0270177D01*
X0331597Y0270093D01*
X0331562Y0270011D01*
X0331524Y0269931D01*
X0331482Y0269852D01*
X0331437Y0269776D01*
X0331388Y0269701D01*
X0331336Y0269629D01*
X0331281Y0269559D01*
X0331222Y0269491D01*
X0331161Y0269427D01*
X0331097Y0269365D01*
X0331030Y0269306D01*
X0330961Y0269250D01*
X0330889Y0269197D01*
X0330815Y0269147D01*
X0330739Y0269101D01*
X0330661Y0269058D01*
X0330581Y0269019D01*
X0330499Y0268983D01*
X0330416Y0268951D01*
X0330332Y0268923D01*
X0330246Y0268898D01*
X0330159Y0268878D01*
X0330072Y0268861D01*
X0329983Y0268848D01*
X0329895Y0268839D01*
X0329806Y0268834D01*
X0329717Y0268833D01*
X0329628Y0268836D01*
X0329539Y0268843D01*
X0329450Y0268854D01*
X0329362Y0268869D01*
X0329275Y0268887D01*
X0329189Y0268910D01*
X0329104Y0268936D01*
X0329020Y0268967D01*
X0328938Y0269001D01*
X0328857Y0269038D01*
X0328778Y0269079D01*
X0328701Y0269124D01*
X0328626Y0269172D01*
X0328553Y0269223D01*
X0328482Y0269277D01*
X0328414Y0269335D01*
X0328349Y0269395D01*
X0328286Y0269459D01*
X0328226Y0269525D01*
X0328169Y0269594D01*
X0328116Y0269665D01*
X0328065Y0269738D01*
X0328018Y0269814D01*
X0327975Y0269891D01*
X0327934Y0269971D01*
X0327898Y0270052D01*
X0327865Y0270135D01*
X0327836Y0270219D01*
X0327810Y0270305D01*
X0327788Y0270391D01*
X0327771Y0270478D01*
X0327757Y0270566D01*
X0327747Y0270655D01*
X0327741Y0270744D01*
X0327739Y0270833D01*
X0327739Y0290833D02*
X0327741Y0290922D01*
X0327747Y0291011D01*
X0327757Y0291100D01*
X0327771Y0291188D01*
X0327788Y0291275D01*
X0327810Y0291361D01*
X0327836Y0291447D01*
X0327865Y0291531D01*
X0327898Y0291614D01*
X0327934Y0291695D01*
X0327975Y0291775D01*
X0328018Y0291852D01*
X0328065Y0291928D01*
X0328116Y0292001D01*
X0328169Y0292072D01*
X0328226Y0292141D01*
X0328286Y0292207D01*
X0328349Y0292271D01*
X0328414Y0292331D01*
X0328482Y0292389D01*
X0328553Y0292443D01*
X0328626Y0292494D01*
X0328701Y0292542D01*
X0328778Y0292587D01*
X0328857Y0292628D01*
X0328938Y0292665D01*
X0329020Y0292699D01*
X0329104Y0292730D01*
X0329189Y0292756D01*
X0329275Y0292779D01*
X0329362Y0292797D01*
X0329450Y0292812D01*
X0329539Y0292823D01*
X0329628Y0292830D01*
X0329717Y0292833D01*
X0329806Y0292832D01*
X0329895Y0292827D01*
X0329983Y0292818D01*
X0330072Y0292805D01*
X0330159Y0292788D01*
X0330246Y0292768D01*
X0330332Y0292743D01*
X0330416Y0292715D01*
X0330499Y0292683D01*
X0330581Y0292647D01*
X0330661Y0292608D01*
X0330739Y0292565D01*
X0330815Y0292519D01*
X0330889Y0292469D01*
X0330961Y0292416D01*
X0331030Y0292360D01*
X0331097Y0292301D01*
X0331161Y0292239D01*
X0331222Y0292175D01*
X0331281Y0292107D01*
X0331336Y0292037D01*
X0331388Y0291965D01*
X0331437Y0291890D01*
X0331482Y0291814D01*
X0331524Y0291735D01*
X0331562Y0291655D01*
X0331597Y0291573D01*
X0331628Y0291489D01*
X0331656Y0291404D01*
X0331679Y0291318D01*
X0331699Y0291231D01*
X0331715Y0291144D01*
X0331727Y0291055D01*
X0331735Y0290967D01*
X0331739Y0290878D01*
X0331739Y0290788D01*
X0331735Y0290699D01*
X0331727Y0290611D01*
X0331715Y0290522D01*
X0331699Y0290435D01*
X0331679Y0290348D01*
X0331656Y0290262D01*
X0331628Y0290177D01*
X0331597Y0290093D01*
X0331562Y0290011D01*
X0331524Y0289931D01*
X0331482Y0289852D01*
X0331437Y0289776D01*
X0331388Y0289701D01*
X0331336Y0289629D01*
X0331281Y0289559D01*
X0331222Y0289491D01*
X0331161Y0289427D01*
X0331097Y0289365D01*
X0331030Y0289306D01*
X0330961Y0289250D01*
X0330889Y0289197D01*
X0330815Y0289147D01*
X0330739Y0289101D01*
X0330661Y0289058D01*
X0330581Y0289019D01*
X0330499Y0288983D01*
X0330416Y0288951D01*
X0330332Y0288923D01*
X0330246Y0288898D01*
X0330159Y0288878D01*
X0330072Y0288861D01*
X0329983Y0288848D01*
X0329895Y0288839D01*
X0329806Y0288834D01*
X0329717Y0288833D01*
X0329628Y0288836D01*
X0329539Y0288843D01*
X0329450Y0288854D01*
X0329362Y0288869D01*
X0329275Y0288887D01*
X0329189Y0288910D01*
X0329104Y0288936D01*
X0329020Y0288967D01*
X0328938Y0289001D01*
X0328857Y0289038D01*
X0328778Y0289079D01*
X0328701Y0289124D01*
X0328626Y0289172D01*
X0328553Y0289223D01*
X0328482Y0289277D01*
X0328414Y0289335D01*
X0328349Y0289395D01*
X0328286Y0289459D01*
X0328226Y0289525D01*
X0328169Y0289594D01*
X0328116Y0289665D01*
X0328065Y0289738D01*
X0328018Y0289814D01*
X0327975Y0289891D01*
X0327934Y0289971D01*
X0327898Y0290052D01*
X0327865Y0290135D01*
X0327836Y0290219D01*
X0327810Y0290305D01*
X0327788Y0290391D01*
X0327771Y0290478D01*
X0327757Y0290566D01*
X0327747Y0290655D01*
X0327741Y0290744D01*
X0327739Y0290833D01*
X0290495Y0316133D02*
X0287292Y0319336D01*
X0286225Y0318268D02*
X0290495Y0322539D01*
X0286225Y0322539D02*
X0286225Y0316133D01*
X0284049Y0317201D02*
X0282982Y0316133D01*
X0280847Y0316133D01*
X0279779Y0317201D01*
X0279779Y0321471D01*
X0280847Y0322539D01*
X0282982Y0322539D01*
X0284049Y0321471D01*
X0277617Y0322539D02*
X0275482Y0322539D01*
X0276550Y0322539D02*
X0276550Y0316133D01*
X0277617Y0316133D02*
X0275482Y0316133D01*
X0273307Y0317201D02*
X0273307Y0322539D01*
X0269037Y0322539D02*
X0269037Y0317201D01*
X0270104Y0316133D01*
X0272239Y0316133D01*
X0273307Y0317201D01*
X0266861Y0317201D02*
X0265794Y0316133D01*
X0263659Y0316133D01*
X0262591Y0317201D01*
X0262591Y0321471D01*
X0263659Y0322539D01*
X0265794Y0322539D01*
X0266861Y0321471D01*
X0266861Y0317201D01*
X0266861Y0316133D02*
X0264726Y0318268D01*
X0253970Y0316133D02*
X0249700Y0316133D01*
X0249700Y0322539D01*
X0247525Y0320404D02*
X0247525Y0316133D01*
X0247525Y0319336D02*
X0243255Y0319336D01*
X0243255Y0320404D02*
X0245390Y0322539D01*
X0247525Y0320404D01*
X0243255Y0320404D02*
X0243255Y0316133D01*
X0241079Y0316133D02*
X0236809Y0316133D01*
X0236809Y0322539D01*
X0241079Y0322539D01*
X0238944Y0319336D02*
X0236809Y0319336D01*
X0234634Y0319336D02*
X0233566Y0318268D01*
X0230364Y0318268D01*
X0230364Y0316133D02*
X0230364Y0322539D01*
X0233566Y0322539D01*
X0234634Y0321471D01*
X0234634Y0319336D01*
X0232499Y0318268D02*
X0234634Y0316133D01*
X0221756Y0316133D02*
X0220689Y0316133D01*
X0220689Y0317201D01*
X0221756Y0317201D01*
X0221756Y0316133D01*
X0219621Y0313998D01*
X0217446Y0316133D02*
X0213176Y0316133D01*
X0213176Y0322539D01*
X0211000Y0320404D02*
X0211000Y0316133D01*
X0211000Y0319336D02*
X0206730Y0319336D01*
X0206730Y0320404D02*
X0208865Y0322539D01*
X0211000Y0320404D01*
X0206730Y0320404D02*
X0206730Y0316133D01*
X0204555Y0316133D02*
X0200285Y0316133D01*
X0200285Y0322539D01*
X0204555Y0322539D01*
X0202420Y0319336D02*
X0200285Y0319336D01*
X0198109Y0319336D02*
X0197042Y0318268D01*
X0193839Y0318268D01*
X0193839Y0316133D02*
X0193839Y0322539D01*
X0197042Y0322539D01*
X0198109Y0321471D01*
X0198109Y0319336D01*
X0195974Y0318268D02*
X0198109Y0316133D01*
X0188539Y0315333D02*
X0188539Y0289333D01*
X0188539Y0288333D01*
X0128539Y0288333D01*
X0128539Y0289333D01*
X0188539Y0289333D01*
X0176539Y0294633D02*
X0176541Y0294722D01*
X0176547Y0294811D01*
X0176557Y0294900D01*
X0176571Y0294988D01*
X0176588Y0295075D01*
X0176610Y0295161D01*
X0176636Y0295247D01*
X0176665Y0295331D01*
X0176698Y0295414D01*
X0176734Y0295495D01*
X0176775Y0295575D01*
X0176818Y0295652D01*
X0176865Y0295728D01*
X0176916Y0295801D01*
X0176969Y0295872D01*
X0177026Y0295941D01*
X0177086Y0296007D01*
X0177149Y0296071D01*
X0177214Y0296131D01*
X0177282Y0296189D01*
X0177353Y0296243D01*
X0177426Y0296294D01*
X0177501Y0296342D01*
X0177578Y0296387D01*
X0177657Y0296428D01*
X0177738Y0296465D01*
X0177820Y0296499D01*
X0177904Y0296530D01*
X0177989Y0296556D01*
X0178075Y0296579D01*
X0178162Y0296597D01*
X0178250Y0296612D01*
X0178339Y0296623D01*
X0178428Y0296630D01*
X0178517Y0296633D01*
X0178606Y0296632D01*
X0178695Y0296627D01*
X0178783Y0296618D01*
X0178872Y0296605D01*
X0178959Y0296588D01*
X0179046Y0296568D01*
X0179132Y0296543D01*
X0179216Y0296515D01*
X0179299Y0296483D01*
X0179381Y0296447D01*
X0179461Y0296408D01*
X0179539Y0296365D01*
X0179615Y0296319D01*
X0179689Y0296269D01*
X0179761Y0296216D01*
X0179830Y0296160D01*
X0179897Y0296101D01*
X0179961Y0296039D01*
X0180022Y0295975D01*
X0180081Y0295907D01*
X0180136Y0295837D01*
X0180188Y0295765D01*
X0180237Y0295690D01*
X0180282Y0295614D01*
X0180324Y0295535D01*
X0180362Y0295455D01*
X0180397Y0295373D01*
X0180428Y0295289D01*
X0180456Y0295204D01*
X0180479Y0295118D01*
X0180499Y0295031D01*
X0180515Y0294944D01*
X0180527Y0294855D01*
X0180535Y0294767D01*
X0180539Y0294678D01*
X0180539Y0294588D01*
X0180535Y0294499D01*
X0180527Y0294411D01*
X0180515Y0294322D01*
X0180499Y0294235D01*
X0180479Y0294148D01*
X0180456Y0294062D01*
X0180428Y0293977D01*
X0180397Y0293893D01*
X0180362Y0293811D01*
X0180324Y0293731D01*
X0180282Y0293652D01*
X0180237Y0293576D01*
X0180188Y0293501D01*
X0180136Y0293429D01*
X0180081Y0293359D01*
X0180022Y0293291D01*
X0179961Y0293227D01*
X0179897Y0293165D01*
X0179830Y0293106D01*
X0179761Y0293050D01*
X0179689Y0292997D01*
X0179615Y0292947D01*
X0179539Y0292901D01*
X0179461Y0292858D01*
X0179381Y0292819D01*
X0179299Y0292783D01*
X0179216Y0292751D01*
X0179132Y0292723D01*
X0179046Y0292698D01*
X0178959Y0292678D01*
X0178872Y0292661D01*
X0178783Y0292648D01*
X0178695Y0292639D01*
X0178606Y0292634D01*
X0178517Y0292633D01*
X0178428Y0292636D01*
X0178339Y0292643D01*
X0178250Y0292654D01*
X0178162Y0292669D01*
X0178075Y0292687D01*
X0177989Y0292710D01*
X0177904Y0292736D01*
X0177820Y0292767D01*
X0177738Y0292801D01*
X0177657Y0292838D01*
X0177578Y0292879D01*
X0177501Y0292924D01*
X0177426Y0292972D01*
X0177353Y0293023D01*
X0177282Y0293077D01*
X0177214Y0293135D01*
X0177149Y0293195D01*
X0177086Y0293259D01*
X0177026Y0293325D01*
X0176969Y0293394D01*
X0176916Y0293465D01*
X0176865Y0293538D01*
X0176818Y0293614D01*
X0176775Y0293691D01*
X0176734Y0293771D01*
X0176698Y0293852D01*
X0176665Y0293935D01*
X0176636Y0294019D01*
X0176610Y0294105D01*
X0176588Y0294191D01*
X0176571Y0294278D01*
X0176557Y0294366D01*
X0176547Y0294455D01*
X0176541Y0294544D01*
X0176539Y0294633D01*
X0156539Y0294633D02*
X0156541Y0294722D01*
X0156547Y0294811D01*
X0156557Y0294900D01*
X0156571Y0294988D01*
X0156588Y0295075D01*
X0156610Y0295161D01*
X0156636Y0295247D01*
X0156665Y0295331D01*
X0156698Y0295414D01*
X0156734Y0295495D01*
X0156775Y0295575D01*
X0156818Y0295652D01*
X0156865Y0295728D01*
X0156916Y0295801D01*
X0156969Y0295872D01*
X0157026Y0295941D01*
X0157086Y0296007D01*
X0157149Y0296071D01*
X0157214Y0296131D01*
X0157282Y0296189D01*
X0157353Y0296243D01*
X0157426Y0296294D01*
X0157501Y0296342D01*
X0157578Y0296387D01*
X0157657Y0296428D01*
X0157738Y0296465D01*
X0157820Y0296499D01*
X0157904Y0296530D01*
X0157989Y0296556D01*
X0158075Y0296579D01*
X0158162Y0296597D01*
X0158250Y0296612D01*
X0158339Y0296623D01*
X0158428Y0296630D01*
X0158517Y0296633D01*
X0158606Y0296632D01*
X0158695Y0296627D01*
X0158783Y0296618D01*
X0158872Y0296605D01*
X0158959Y0296588D01*
X0159046Y0296568D01*
X0159132Y0296543D01*
X0159216Y0296515D01*
X0159299Y0296483D01*
X0159381Y0296447D01*
X0159461Y0296408D01*
X0159539Y0296365D01*
X0159615Y0296319D01*
X0159689Y0296269D01*
X0159761Y0296216D01*
X0159830Y0296160D01*
X0159897Y0296101D01*
X0159961Y0296039D01*
X0160022Y0295975D01*
X0160081Y0295907D01*
X0160136Y0295837D01*
X0160188Y0295765D01*
X0160237Y0295690D01*
X0160282Y0295614D01*
X0160324Y0295535D01*
X0160362Y0295455D01*
X0160397Y0295373D01*
X0160428Y0295289D01*
X0160456Y0295204D01*
X0160479Y0295118D01*
X0160499Y0295031D01*
X0160515Y0294944D01*
X0160527Y0294855D01*
X0160535Y0294767D01*
X0160539Y0294678D01*
X0160539Y0294588D01*
X0160535Y0294499D01*
X0160527Y0294411D01*
X0160515Y0294322D01*
X0160499Y0294235D01*
X0160479Y0294148D01*
X0160456Y0294062D01*
X0160428Y0293977D01*
X0160397Y0293893D01*
X0160362Y0293811D01*
X0160324Y0293731D01*
X0160282Y0293652D01*
X0160237Y0293576D01*
X0160188Y0293501D01*
X0160136Y0293429D01*
X0160081Y0293359D01*
X0160022Y0293291D01*
X0159961Y0293227D01*
X0159897Y0293165D01*
X0159830Y0293106D01*
X0159761Y0293050D01*
X0159689Y0292997D01*
X0159615Y0292947D01*
X0159539Y0292901D01*
X0159461Y0292858D01*
X0159381Y0292819D01*
X0159299Y0292783D01*
X0159216Y0292751D01*
X0159132Y0292723D01*
X0159046Y0292698D01*
X0158959Y0292678D01*
X0158872Y0292661D01*
X0158783Y0292648D01*
X0158695Y0292639D01*
X0158606Y0292634D01*
X0158517Y0292633D01*
X0158428Y0292636D01*
X0158339Y0292643D01*
X0158250Y0292654D01*
X0158162Y0292669D01*
X0158075Y0292687D01*
X0157989Y0292710D01*
X0157904Y0292736D01*
X0157820Y0292767D01*
X0157738Y0292801D01*
X0157657Y0292838D01*
X0157578Y0292879D01*
X0157501Y0292924D01*
X0157426Y0292972D01*
X0157353Y0293023D01*
X0157282Y0293077D01*
X0157214Y0293135D01*
X0157149Y0293195D01*
X0157086Y0293259D01*
X0157026Y0293325D01*
X0156969Y0293394D01*
X0156916Y0293465D01*
X0156865Y0293538D01*
X0156818Y0293614D01*
X0156775Y0293691D01*
X0156734Y0293771D01*
X0156698Y0293852D01*
X0156665Y0293935D01*
X0156636Y0294019D01*
X0156610Y0294105D01*
X0156588Y0294191D01*
X0156571Y0294278D01*
X0156557Y0294366D01*
X0156547Y0294455D01*
X0156541Y0294544D01*
X0156539Y0294633D01*
X0136539Y0294633D02*
X0136541Y0294722D01*
X0136547Y0294811D01*
X0136557Y0294900D01*
X0136571Y0294988D01*
X0136588Y0295075D01*
X0136610Y0295161D01*
X0136636Y0295247D01*
X0136665Y0295331D01*
X0136698Y0295414D01*
X0136734Y0295495D01*
X0136775Y0295575D01*
X0136818Y0295652D01*
X0136865Y0295728D01*
X0136916Y0295801D01*
X0136969Y0295872D01*
X0137026Y0295941D01*
X0137086Y0296007D01*
X0137149Y0296071D01*
X0137214Y0296131D01*
X0137282Y0296189D01*
X0137353Y0296243D01*
X0137426Y0296294D01*
X0137501Y0296342D01*
X0137578Y0296387D01*
X0137657Y0296428D01*
X0137738Y0296465D01*
X0137820Y0296499D01*
X0137904Y0296530D01*
X0137989Y0296556D01*
X0138075Y0296579D01*
X0138162Y0296597D01*
X0138250Y0296612D01*
X0138339Y0296623D01*
X0138428Y0296630D01*
X0138517Y0296633D01*
X0138606Y0296632D01*
X0138695Y0296627D01*
X0138783Y0296618D01*
X0138872Y0296605D01*
X0138959Y0296588D01*
X0139046Y0296568D01*
X0139132Y0296543D01*
X0139216Y0296515D01*
X0139299Y0296483D01*
X0139381Y0296447D01*
X0139461Y0296408D01*
X0139539Y0296365D01*
X0139615Y0296319D01*
X0139689Y0296269D01*
X0139761Y0296216D01*
X0139830Y0296160D01*
X0139897Y0296101D01*
X0139961Y0296039D01*
X0140022Y0295975D01*
X0140081Y0295907D01*
X0140136Y0295837D01*
X0140188Y0295765D01*
X0140237Y0295690D01*
X0140282Y0295614D01*
X0140324Y0295535D01*
X0140362Y0295455D01*
X0140397Y0295373D01*
X0140428Y0295289D01*
X0140456Y0295204D01*
X0140479Y0295118D01*
X0140499Y0295031D01*
X0140515Y0294944D01*
X0140527Y0294855D01*
X0140535Y0294767D01*
X0140539Y0294678D01*
X0140539Y0294588D01*
X0140535Y0294499D01*
X0140527Y0294411D01*
X0140515Y0294322D01*
X0140499Y0294235D01*
X0140479Y0294148D01*
X0140456Y0294062D01*
X0140428Y0293977D01*
X0140397Y0293893D01*
X0140362Y0293811D01*
X0140324Y0293731D01*
X0140282Y0293652D01*
X0140237Y0293576D01*
X0140188Y0293501D01*
X0140136Y0293429D01*
X0140081Y0293359D01*
X0140022Y0293291D01*
X0139961Y0293227D01*
X0139897Y0293165D01*
X0139830Y0293106D01*
X0139761Y0293050D01*
X0139689Y0292997D01*
X0139615Y0292947D01*
X0139539Y0292901D01*
X0139461Y0292858D01*
X0139381Y0292819D01*
X0139299Y0292783D01*
X0139216Y0292751D01*
X0139132Y0292723D01*
X0139046Y0292698D01*
X0138959Y0292678D01*
X0138872Y0292661D01*
X0138783Y0292648D01*
X0138695Y0292639D01*
X0138606Y0292634D01*
X0138517Y0292633D01*
X0138428Y0292636D01*
X0138339Y0292643D01*
X0138250Y0292654D01*
X0138162Y0292669D01*
X0138075Y0292687D01*
X0137989Y0292710D01*
X0137904Y0292736D01*
X0137820Y0292767D01*
X0137738Y0292801D01*
X0137657Y0292838D01*
X0137578Y0292879D01*
X0137501Y0292924D01*
X0137426Y0292972D01*
X0137353Y0293023D01*
X0137282Y0293077D01*
X0137214Y0293135D01*
X0137149Y0293195D01*
X0137086Y0293259D01*
X0137026Y0293325D01*
X0136969Y0293394D01*
X0136916Y0293465D01*
X0136865Y0293538D01*
X0136818Y0293614D01*
X0136775Y0293691D01*
X0136734Y0293771D01*
X0136698Y0293852D01*
X0136665Y0293935D01*
X0136636Y0294019D01*
X0136610Y0294105D01*
X0136588Y0294191D01*
X0136571Y0294278D01*
X0136557Y0294366D01*
X0136547Y0294455D01*
X0136541Y0294544D01*
X0136539Y0294633D01*
X0128539Y0289333D02*
X0128539Y0315333D01*
X0128539Y0324833D01*
X0188539Y0324833D01*
X0188539Y0315333D01*
X0182039Y0315333D01*
X0175039Y0315333D02*
X0162039Y0315333D01*
X0155039Y0315333D02*
X0142039Y0315333D01*
X0135039Y0315333D02*
X0128539Y0315333D01*
X0110039Y0270833D02*
X0100539Y0270833D01*
X0100539Y0264333D01*
X0100539Y0270833D02*
X0074539Y0270833D01*
X0074539Y0170833D01*
X0073539Y0170833D01*
X0073539Y0230833D01*
X0100539Y0230833D01*
X0100539Y0237333D01*
X0100539Y0230833D02*
X0100539Y0224333D01*
X0100539Y0217333D02*
X0100539Y0204333D01*
X0100539Y0197333D02*
X0100539Y0184333D01*
X0100539Y0177333D02*
X0100539Y0170833D01*
X0074539Y0170833D01*
X0074539Y0168333D02*
X0084039Y0168333D01*
X0084039Y0161833D01*
X0084039Y0168333D02*
X0110039Y0168333D01*
X0111039Y0168333D01*
X0111039Y0128333D01*
X0110039Y0128333D01*
X0084039Y0128333D01*
X0084039Y0134833D01*
X0084039Y0128333D02*
X0074539Y0128333D01*
X0074539Y0168333D01*
X0077839Y0180833D02*
X0077841Y0180922D01*
X0077847Y0181011D01*
X0077857Y0181100D01*
X0077871Y0181188D01*
X0077888Y0181275D01*
X0077910Y0181361D01*
X0077936Y0181447D01*
X0077965Y0181531D01*
X0077998Y0181614D01*
X0078034Y0181695D01*
X0078075Y0181775D01*
X0078118Y0181852D01*
X0078165Y0181928D01*
X0078216Y0182001D01*
X0078269Y0182072D01*
X0078326Y0182141D01*
X0078386Y0182207D01*
X0078449Y0182271D01*
X0078514Y0182331D01*
X0078582Y0182389D01*
X0078653Y0182443D01*
X0078726Y0182494D01*
X0078801Y0182542D01*
X0078878Y0182587D01*
X0078957Y0182628D01*
X0079038Y0182665D01*
X0079120Y0182699D01*
X0079204Y0182730D01*
X0079289Y0182756D01*
X0079375Y0182779D01*
X0079462Y0182797D01*
X0079550Y0182812D01*
X0079639Y0182823D01*
X0079728Y0182830D01*
X0079817Y0182833D01*
X0079906Y0182832D01*
X0079995Y0182827D01*
X0080083Y0182818D01*
X0080172Y0182805D01*
X0080259Y0182788D01*
X0080346Y0182768D01*
X0080432Y0182743D01*
X0080516Y0182715D01*
X0080599Y0182683D01*
X0080681Y0182647D01*
X0080761Y0182608D01*
X0080839Y0182565D01*
X0080915Y0182519D01*
X0080989Y0182469D01*
X0081061Y0182416D01*
X0081130Y0182360D01*
X0081197Y0182301D01*
X0081261Y0182239D01*
X0081322Y0182175D01*
X0081381Y0182107D01*
X0081436Y0182037D01*
X0081488Y0181965D01*
X0081537Y0181890D01*
X0081582Y0181814D01*
X0081624Y0181735D01*
X0081662Y0181655D01*
X0081697Y0181573D01*
X0081728Y0181489D01*
X0081756Y0181404D01*
X0081779Y0181318D01*
X0081799Y0181231D01*
X0081815Y0181144D01*
X0081827Y0181055D01*
X0081835Y0180967D01*
X0081839Y0180878D01*
X0081839Y0180788D01*
X0081835Y0180699D01*
X0081827Y0180611D01*
X0081815Y0180522D01*
X0081799Y0180435D01*
X0081779Y0180348D01*
X0081756Y0180262D01*
X0081728Y0180177D01*
X0081697Y0180093D01*
X0081662Y0180011D01*
X0081624Y0179931D01*
X0081582Y0179852D01*
X0081537Y0179776D01*
X0081488Y0179701D01*
X0081436Y0179629D01*
X0081381Y0179559D01*
X0081322Y0179491D01*
X0081261Y0179427D01*
X0081197Y0179365D01*
X0081130Y0179306D01*
X0081061Y0179250D01*
X0080989Y0179197D01*
X0080915Y0179147D01*
X0080839Y0179101D01*
X0080761Y0179058D01*
X0080681Y0179019D01*
X0080599Y0178983D01*
X0080516Y0178951D01*
X0080432Y0178923D01*
X0080346Y0178898D01*
X0080259Y0178878D01*
X0080172Y0178861D01*
X0080083Y0178848D01*
X0079995Y0178839D01*
X0079906Y0178834D01*
X0079817Y0178833D01*
X0079728Y0178836D01*
X0079639Y0178843D01*
X0079550Y0178854D01*
X0079462Y0178869D01*
X0079375Y0178887D01*
X0079289Y0178910D01*
X0079204Y0178936D01*
X0079120Y0178967D01*
X0079038Y0179001D01*
X0078957Y0179038D01*
X0078878Y0179079D01*
X0078801Y0179124D01*
X0078726Y0179172D01*
X0078653Y0179223D01*
X0078582Y0179277D01*
X0078514Y0179335D01*
X0078449Y0179395D01*
X0078386Y0179459D01*
X0078326Y0179525D01*
X0078269Y0179594D01*
X0078216Y0179665D01*
X0078165Y0179738D01*
X0078118Y0179814D01*
X0078075Y0179891D01*
X0078034Y0179971D01*
X0077998Y0180052D01*
X0077965Y0180135D01*
X0077936Y0180219D01*
X0077910Y0180305D01*
X0077888Y0180391D01*
X0077871Y0180478D01*
X0077857Y0180566D01*
X0077847Y0180655D01*
X0077841Y0180744D01*
X0077839Y0180833D01*
X0077839Y0200833D02*
X0077841Y0200922D01*
X0077847Y0201011D01*
X0077857Y0201100D01*
X0077871Y0201188D01*
X0077888Y0201275D01*
X0077910Y0201361D01*
X0077936Y0201447D01*
X0077965Y0201531D01*
X0077998Y0201614D01*
X0078034Y0201695D01*
X0078075Y0201775D01*
X0078118Y0201852D01*
X0078165Y0201928D01*
X0078216Y0202001D01*
X0078269Y0202072D01*
X0078326Y0202141D01*
X0078386Y0202207D01*
X0078449Y0202271D01*
X0078514Y0202331D01*
X0078582Y0202389D01*
X0078653Y0202443D01*
X0078726Y0202494D01*
X0078801Y0202542D01*
X0078878Y0202587D01*
X0078957Y0202628D01*
X0079038Y0202665D01*
X0079120Y0202699D01*
X0079204Y0202730D01*
X0079289Y0202756D01*
X0079375Y0202779D01*
X0079462Y0202797D01*
X0079550Y0202812D01*
X0079639Y0202823D01*
X0079728Y0202830D01*
X0079817Y0202833D01*
X0079906Y0202832D01*
X0079995Y0202827D01*
X0080083Y0202818D01*
X0080172Y0202805D01*
X0080259Y0202788D01*
X0080346Y0202768D01*
X0080432Y0202743D01*
X0080516Y0202715D01*
X0080599Y0202683D01*
X0080681Y0202647D01*
X0080761Y0202608D01*
X0080839Y0202565D01*
X0080915Y0202519D01*
X0080989Y0202469D01*
X0081061Y0202416D01*
X0081130Y0202360D01*
X0081197Y0202301D01*
X0081261Y0202239D01*
X0081322Y0202175D01*
X0081381Y0202107D01*
X0081436Y0202037D01*
X0081488Y0201965D01*
X0081537Y0201890D01*
X0081582Y0201814D01*
X0081624Y0201735D01*
X0081662Y0201655D01*
X0081697Y0201573D01*
X0081728Y0201489D01*
X0081756Y0201404D01*
X0081779Y0201318D01*
X0081799Y0201231D01*
X0081815Y0201144D01*
X0081827Y0201055D01*
X0081835Y0200967D01*
X0081839Y0200878D01*
X0081839Y0200788D01*
X0081835Y0200699D01*
X0081827Y0200611D01*
X0081815Y0200522D01*
X0081799Y0200435D01*
X0081779Y0200348D01*
X0081756Y0200262D01*
X0081728Y0200177D01*
X0081697Y0200093D01*
X0081662Y0200011D01*
X0081624Y0199931D01*
X0081582Y0199852D01*
X0081537Y0199776D01*
X0081488Y0199701D01*
X0081436Y0199629D01*
X0081381Y0199559D01*
X0081322Y0199491D01*
X0081261Y0199427D01*
X0081197Y0199365D01*
X0081130Y0199306D01*
X0081061Y0199250D01*
X0080989Y0199197D01*
X0080915Y0199147D01*
X0080839Y0199101D01*
X0080761Y0199058D01*
X0080681Y0199019D01*
X0080599Y0198983D01*
X0080516Y0198951D01*
X0080432Y0198923D01*
X0080346Y0198898D01*
X0080259Y0198878D01*
X0080172Y0198861D01*
X0080083Y0198848D01*
X0079995Y0198839D01*
X0079906Y0198834D01*
X0079817Y0198833D01*
X0079728Y0198836D01*
X0079639Y0198843D01*
X0079550Y0198854D01*
X0079462Y0198869D01*
X0079375Y0198887D01*
X0079289Y0198910D01*
X0079204Y0198936D01*
X0079120Y0198967D01*
X0079038Y0199001D01*
X0078957Y0199038D01*
X0078878Y0199079D01*
X0078801Y0199124D01*
X0078726Y0199172D01*
X0078653Y0199223D01*
X0078582Y0199277D01*
X0078514Y0199335D01*
X0078449Y0199395D01*
X0078386Y0199459D01*
X0078326Y0199525D01*
X0078269Y0199594D01*
X0078216Y0199665D01*
X0078165Y0199738D01*
X0078118Y0199814D01*
X0078075Y0199891D01*
X0078034Y0199971D01*
X0077998Y0200052D01*
X0077965Y0200135D01*
X0077936Y0200219D01*
X0077910Y0200305D01*
X0077888Y0200391D01*
X0077871Y0200478D01*
X0077857Y0200566D01*
X0077847Y0200655D01*
X0077841Y0200744D01*
X0077839Y0200833D01*
X0077839Y0220833D02*
X0077841Y0220922D01*
X0077847Y0221011D01*
X0077857Y0221100D01*
X0077871Y0221188D01*
X0077888Y0221275D01*
X0077910Y0221361D01*
X0077936Y0221447D01*
X0077965Y0221531D01*
X0077998Y0221614D01*
X0078034Y0221695D01*
X0078075Y0221775D01*
X0078118Y0221852D01*
X0078165Y0221928D01*
X0078216Y0222001D01*
X0078269Y0222072D01*
X0078326Y0222141D01*
X0078386Y0222207D01*
X0078449Y0222271D01*
X0078514Y0222331D01*
X0078582Y0222389D01*
X0078653Y0222443D01*
X0078726Y0222494D01*
X0078801Y0222542D01*
X0078878Y0222587D01*
X0078957Y0222628D01*
X0079038Y0222665D01*
X0079120Y0222699D01*
X0079204Y0222730D01*
X0079289Y0222756D01*
X0079375Y0222779D01*
X0079462Y0222797D01*
X0079550Y0222812D01*
X0079639Y0222823D01*
X0079728Y0222830D01*
X0079817Y0222833D01*
X0079906Y0222832D01*
X0079995Y0222827D01*
X0080083Y0222818D01*
X0080172Y0222805D01*
X0080259Y0222788D01*
X0080346Y0222768D01*
X0080432Y0222743D01*
X0080516Y0222715D01*
X0080599Y0222683D01*
X0080681Y0222647D01*
X0080761Y0222608D01*
X0080839Y0222565D01*
X0080915Y0222519D01*
X0080989Y0222469D01*
X0081061Y0222416D01*
X0081130Y0222360D01*
X0081197Y0222301D01*
X0081261Y0222239D01*
X0081322Y0222175D01*
X0081381Y0222107D01*
X0081436Y0222037D01*
X0081488Y0221965D01*
X0081537Y0221890D01*
X0081582Y0221814D01*
X0081624Y0221735D01*
X0081662Y0221655D01*
X0081697Y0221573D01*
X0081728Y0221489D01*
X0081756Y0221404D01*
X0081779Y0221318D01*
X0081799Y0221231D01*
X0081815Y0221144D01*
X0081827Y0221055D01*
X0081835Y0220967D01*
X0081839Y0220878D01*
X0081839Y0220788D01*
X0081835Y0220699D01*
X0081827Y0220611D01*
X0081815Y0220522D01*
X0081799Y0220435D01*
X0081779Y0220348D01*
X0081756Y0220262D01*
X0081728Y0220177D01*
X0081697Y0220093D01*
X0081662Y0220011D01*
X0081624Y0219931D01*
X0081582Y0219852D01*
X0081537Y0219776D01*
X0081488Y0219701D01*
X0081436Y0219629D01*
X0081381Y0219559D01*
X0081322Y0219491D01*
X0081261Y0219427D01*
X0081197Y0219365D01*
X0081130Y0219306D01*
X0081061Y0219250D01*
X0080989Y0219197D01*
X0080915Y0219147D01*
X0080839Y0219101D01*
X0080761Y0219058D01*
X0080681Y0219019D01*
X0080599Y0218983D01*
X0080516Y0218951D01*
X0080432Y0218923D01*
X0080346Y0218898D01*
X0080259Y0218878D01*
X0080172Y0218861D01*
X0080083Y0218848D01*
X0079995Y0218839D01*
X0079906Y0218834D01*
X0079817Y0218833D01*
X0079728Y0218836D01*
X0079639Y0218843D01*
X0079550Y0218854D01*
X0079462Y0218869D01*
X0079375Y0218887D01*
X0079289Y0218910D01*
X0079204Y0218936D01*
X0079120Y0218967D01*
X0079038Y0219001D01*
X0078957Y0219038D01*
X0078878Y0219079D01*
X0078801Y0219124D01*
X0078726Y0219172D01*
X0078653Y0219223D01*
X0078582Y0219277D01*
X0078514Y0219335D01*
X0078449Y0219395D01*
X0078386Y0219459D01*
X0078326Y0219525D01*
X0078269Y0219594D01*
X0078216Y0219665D01*
X0078165Y0219738D01*
X0078118Y0219814D01*
X0078075Y0219891D01*
X0078034Y0219971D01*
X0077998Y0220052D01*
X0077965Y0220135D01*
X0077936Y0220219D01*
X0077910Y0220305D01*
X0077888Y0220391D01*
X0077871Y0220478D01*
X0077857Y0220566D01*
X0077847Y0220655D01*
X0077841Y0220744D01*
X0077839Y0220833D01*
X0073539Y0230833D02*
X0073539Y0270833D01*
X0074539Y0270833D01*
X0077839Y0260833D02*
X0077841Y0260922D01*
X0077847Y0261011D01*
X0077857Y0261100D01*
X0077871Y0261188D01*
X0077888Y0261275D01*
X0077910Y0261361D01*
X0077936Y0261447D01*
X0077965Y0261531D01*
X0077998Y0261614D01*
X0078034Y0261695D01*
X0078075Y0261775D01*
X0078118Y0261852D01*
X0078165Y0261928D01*
X0078216Y0262001D01*
X0078269Y0262072D01*
X0078326Y0262141D01*
X0078386Y0262207D01*
X0078449Y0262271D01*
X0078514Y0262331D01*
X0078582Y0262389D01*
X0078653Y0262443D01*
X0078726Y0262494D01*
X0078801Y0262542D01*
X0078878Y0262587D01*
X0078957Y0262628D01*
X0079038Y0262665D01*
X0079120Y0262699D01*
X0079204Y0262730D01*
X0079289Y0262756D01*
X0079375Y0262779D01*
X0079462Y0262797D01*
X0079550Y0262812D01*
X0079639Y0262823D01*
X0079728Y0262830D01*
X0079817Y0262833D01*
X0079906Y0262832D01*
X0079995Y0262827D01*
X0080083Y0262818D01*
X0080172Y0262805D01*
X0080259Y0262788D01*
X0080346Y0262768D01*
X0080432Y0262743D01*
X0080516Y0262715D01*
X0080599Y0262683D01*
X0080681Y0262647D01*
X0080761Y0262608D01*
X0080839Y0262565D01*
X0080915Y0262519D01*
X0080989Y0262469D01*
X0081061Y0262416D01*
X0081130Y0262360D01*
X0081197Y0262301D01*
X0081261Y0262239D01*
X0081322Y0262175D01*
X0081381Y0262107D01*
X0081436Y0262037D01*
X0081488Y0261965D01*
X0081537Y0261890D01*
X0081582Y0261814D01*
X0081624Y0261735D01*
X0081662Y0261655D01*
X0081697Y0261573D01*
X0081728Y0261489D01*
X0081756Y0261404D01*
X0081779Y0261318D01*
X0081799Y0261231D01*
X0081815Y0261144D01*
X0081827Y0261055D01*
X0081835Y0260967D01*
X0081839Y0260878D01*
X0081839Y0260788D01*
X0081835Y0260699D01*
X0081827Y0260611D01*
X0081815Y0260522D01*
X0081799Y0260435D01*
X0081779Y0260348D01*
X0081756Y0260262D01*
X0081728Y0260177D01*
X0081697Y0260093D01*
X0081662Y0260011D01*
X0081624Y0259931D01*
X0081582Y0259852D01*
X0081537Y0259776D01*
X0081488Y0259701D01*
X0081436Y0259629D01*
X0081381Y0259559D01*
X0081322Y0259491D01*
X0081261Y0259427D01*
X0081197Y0259365D01*
X0081130Y0259306D01*
X0081061Y0259250D01*
X0080989Y0259197D01*
X0080915Y0259147D01*
X0080839Y0259101D01*
X0080761Y0259058D01*
X0080681Y0259019D01*
X0080599Y0258983D01*
X0080516Y0258951D01*
X0080432Y0258923D01*
X0080346Y0258898D01*
X0080259Y0258878D01*
X0080172Y0258861D01*
X0080083Y0258848D01*
X0079995Y0258839D01*
X0079906Y0258834D01*
X0079817Y0258833D01*
X0079728Y0258836D01*
X0079639Y0258843D01*
X0079550Y0258854D01*
X0079462Y0258869D01*
X0079375Y0258887D01*
X0079289Y0258910D01*
X0079204Y0258936D01*
X0079120Y0258967D01*
X0079038Y0259001D01*
X0078957Y0259038D01*
X0078878Y0259079D01*
X0078801Y0259124D01*
X0078726Y0259172D01*
X0078653Y0259223D01*
X0078582Y0259277D01*
X0078514Y0259335D01*
X0078449Y0259395D01*
X0078386Y0259459D01*
X0078326Y0259525D01*
X0078269Y0259594D01*
X0078216Y0259665D01*
X0078165Y0259738D01*
X0078118Y0259814D01*
X0078075Y0259891D01*
X0078034Y0259971D01*
X0077998Y0260052D01*
X0077965Y0260135D01*
X0077936Y0260219D01*
X0077910Y0260305D01*
X0077888Y0260391D01*
X0077871Y0260478D01*
X0077857Y0260566D01*
X0077847Y0260655D01*
X0077841Y0260744D01*
X0077839Y0260833D01*
X0077839Y0240833D02*
X0077841Y0240922D01*
X0077847Y0241011D01*
X0077857Y0241100D01*
X0077871Y0241188D01*
X0077888Y0241275D01*
X0077910Y0241361D01*
X0077936Y0241447D01*
X0077965Y0241531D01*
X0077998Y0241614D01*
X0078034Y0241695D01*
X0078075Y0241775D01*
X0078118Y0241852D01*
X0078165Y0241928D01*
X0078216Y0242001D01*
X0078269Y0242072D01*
X0078326Y0242141D01*
X0078386Y0242207D01*
X0078449Y0242271D01*
X0078514Y0242331D01*
X0078582Y0242389D01*
X0078653Y0242443D01*
X0078726Y0242494D01*
X0078801Y0242542D01*
X0078878Y0242587D01*
X0078957Y0242628D01*
X0079038Y0242665D01*
X0079120Y0242699D01*
X0079204Y0242730D01*
X0079289Y0242756D01*
X0079375Y0242779D01*
X0079462Y0242797D01*
X0079550Y0242812D01*
X0079639Y0242823D01*
X0079728Y0242830D01*
X0079817Y0242833D01*
X0079906Y0242832D01*
X0079995Y0242827D01*
X0080083Y0242818D01*
X0080172Y0242805D01*
X0080259Y0242788D01*
X0080346Y0242768D01*
X0080432Y0242743D01*
X0080516Y0242715D01*
X0080599Y0242683D01*
X0080681Y0242647D01*
X0080761Y0242608D01*
X0080839Y0242565D01*
X0080915Y0242519D01*
X0080989Y0242469D01*
X0081061Y0242416D01*
X0081130Y0242360D01*
X0081197Y0242301D01*
X0081261Y0242239D01*
X0081322Y0242175D01*
X0081381Y0242107D01*
X0081436Y0242037D01*
X0081488Y0241965D01*
X0081537Y0241890D01*
X0081582Y0241814D01*
X0081624Y0241735D01*
X0081662Y0241655D01*
X0081697Y0241573D01*
X0081728Y0241489D01*
X0081756Y0241404D01*
X0081779Y0241318D01*
X0081799Y0241231D01*
X0081815Y0241144D01*
X0081827Y0241055D01*
X0081835Y0240967D01*
X0081839Y0240878D01*
X0081839Y0240788D01*
X0081835Y0240699D01*
X0081827Y0240611D01*
X0081815Y0240522D01*
X0081799Y0240435D01*
X0081779Y0240348D01*
X0081756Y0240262D01*
X0081728Y0240177D01*
X0081697Y0240093D01*
X0081662Y0240011D01*
X0081624Y0239931D01*
X0081582Y0239852D01*
X0081537Y0239776D01*
X0081488Y0239701D01*
X0081436Y0239629D01*
X0081381Y0239559D01*
X0081322Y0239491D01*
X0081261Y0239427D01*
X0081197Y0239365D01*
X0081130Y0239306D01*
X0081061Y0239250D01*
X0080989Y0239197D01*
X0080915Y0239147D01*
X0080839Y0239101D01*
X0080761Y0239058D01*
X0080681Y0239019D01*
X0080599Y0238983D01*
X0080516Y0238951D01*
X0080432Y0238923D01*
X0080346Y0238898D01*
X0080259Y0238878D01*
X0080172Y0238861D01*
X0080083Y0238848D01*
X0079995Y0238839D01*
X0079906Y0238834D01*
X0079817Y0238833D01*
X0079728Y0238836D01*
X0079639Y0238843D01*
X0079550Y0238854D01*
X0079462Y0238869D01*
X0079375Y0238887D01*
X0079289Y0238910D01*
X0079204Y0238936D01*
X0079120Y0238967D01*
X0079038Y0239001D01*
X0078957Y0239038D01*
X0078878Y0239079D01*
X0078801Y0239124D01*
X0078726Y0239172D01*
X0078653Y0239223D01*
X0078582Y0239277D01*
X0078514Y0239335D01*
X0078449Y0239395D01*
X0078386Y0239459D01*
X0078326Y0239525D01*
X0078269Y0239594D01*
X0078216Y0239665D01*
X0078165Y0239738D01*
X0078118Y0239814D01*
X0078075Y0239891D01*
X0078034Y0239971D01*
X0077998Y0240052D01*
X0077965Y0240135D01*
X0077936Y0240219D01*
X0077910Y0240305D01*
X0077888Y0240391D01*
X0077871Y0240478D01*
X0077857Y0240566D01*
X0077847Y0240655D01*
X0077841Y0240744D01*
X0077839Y0240833D01*
X0100539Y0244333D02*
X0100539Y0257333D01*
X0110039Y0270833D02*
X0110039Y0170833D01*
X0100539Y0170833D01*
X0110039Y0168333D02*
X0110039Y0128333D01*
X0102739Y0138333D02*
X0102741Y0138422D01*
X0102747Y0138511D01*
X0102757Y0138600D01*
X0102771Y0138688D01*
X0102788Y0138775D01*
X0102810Y0138861D01*
X0102836Y0138947D01*
X0102865Y0139031D01*
X0102898Y0139114D01*
X0102934Y0139195D01*
X0102975Y0139275D01*
X0103018Y0139352D01*
X0103065Y0139428D01*
X0103116Y0139501D01*
X0103169Y0139572D01*
X0103226Y0139641D01*
X0103286Y0139707D01*
X0103349Y0139771D01*
X0103414Y0139831D01*
X0103482Y0139889D01*
X0103553Y0139943D01*
X0103626Y0139994D01*
X0103701Y0140042D01*
X0103778Y0140087D01*
X0103857Y0140128D01*
X0103938Y0140165D01*
X0104020Y0140199D01*
X0104104Y0140230D01*
X0104189Y0140256D01*
X0104275Y0140279D01*
X0104362Y0140297D01*
X0104450Y0140312D01*
X0104539Y0140323D01*
X0104628Y0140330D01*
X0104717Y0140333D01*
X0104806Y0140332D01*
X0104895Y0140327D01*
X0104983Y0140318D01*
X0105072Y0140305D01*
X0105159Y0140288D01*
X0105246Y0140268D01*
X0105332Y0140243D01*
X0105416Y0140215D01*
X0105499Y0140183D01*
X0105581Y0140147D01*
X0105661Y0140108D01*
X0105739Y0140065D01*
X0105815Y0140019D01*
X0105889Y0139969D01*
X0105961Y0139916D01*
X0106030Y0139860D01*
X0106097Y0139801D01*
X0106161Y0139739D01*
X0106222Y0139675D01*
X0106281Y0139607D01*
X0106336Y0139537D01*
X0106388Y0139465D01*
X0106437Y0139390D01*
X0106482Y0139314D01*
X0106524Y0139235D01*
X0106562Y0139155D01*
X0106597Y0139073D01*
X0106628Y0138989D01*
X0106656Y0138904D01*
X0106679Y0138818D01*
X0106699Y0138731D01*
X0106715Y0138644D01*
X0106727Y0138555D01*
X0106735Y0138467D01*
X0106739Y0138378D01*
X0106739Y0138288D01*
X0106735Y0138199D01*
X0106727Y0138111D01*
X0106715Y0138022D01*
X0106699Y0137935D01*
X0106679Y0137848D01*
X0106656Y0137762D01*
X0106628Y0137677D01*
X0106597Y0137593D01*
X0106562Y0137511D01*
X0106524Y0137431D01*
X0106482Y0137352D01*
X0106437Y0137276D01*
X0106388Y0137201D01*
X0106336Y0137129D01*
X0106281Y0137059D01*
X0106222Y0136991D01*
X0106161Y0136927D01*
X0106097Y0136865D01*
X0106030Y0136806D01*
X0105961Y0136750D01*
X0105889Y0136697D01*
X0105815Y0136647D01*
X0105739Y0136601D01*
X0105661Y0136558D01*
X0105581Y0136519D01*
X0105499Y0136483D01*
X0105416Y0136451D01*
X0105332Y0136423D01*
X0105246Y0136398D01*
X0105159Y0136378D01*
X0105072Y0136361D01*
X0104983Y0136348D01*
X0104895Y0136339D01*
X0104806Y0136334D01*
X0104717Y0136333D01*
X0104628Y0136336D01*
X0104539Y0136343D01*
X0104450Y0136354D01*
X0104362Y0136369D01*
X0104275Y0136387D01*
X0104189Y0136410D01*
X0104104Y0136436D01*
X0104020Y0136467D01*
X0103938Y0136501D01*
X0103857Y0136538D01*
X0103778Y0136579D01*
X0103701Y0136624D01*
X0103626Y0136672D01*
X0103553Y0136723D01*
X0103482Y0136777D01*
X0103414Y0136835D01*
X0103349Y0136895D01*
X0103286Y0136959D01*
X0103226Y0137025D01*
X0103169Y0137094D01*
X0103116Y0137165D01*
X0103065Y0137238D01*
X0103018Y0137314D01*
X0102975Y0137391D01*
X0102934Y0137471D01*
X0102898Y0137552D01*
X0102865Y0137635D01*
X0102836Y0137719D01*
X0102810Y0137805D01*
X0102788Y0137891D01*
X0102771Y0137978D01*
X0102757Y0138066D01*
X0102747Y0138155D01*
X0102741Y0138244D01*
X0102739Y0138333D01*
X0084039Y0141833D02*
X0084039Y0154833D01*
X0102739Y0158333D02*
X0102741Y0158422D01*
X0102747Y0158511D01*
X0102757Y0158600D01*
X0102771Y0158688D01*
X0102788Y0158775D01*
X0102810Y0158861D01*
X0102836Y0158947D01*
X0102865Y0159031D01*
X0102898Y0159114D01*
X0102934Y0159195D01*
X0102975Y0159275D01*
X0103018Y0159352D01*
X0103065Y0159428D01*
X0103116Y0159501D01*
X0103169Y0159572D01*
X0103226Y0159641D01*
X0103286Y0159707D01*
X0103349Y0159771D01*
X0103414Y0159831D01*
X0103482Y0159889D01*
X0103553Y0159943D01*
X0103626Y0159994D01*
X0103701Y0160042D01*
X0103778Y0160087D01*
X0103857Y0160128D01*
X0103938Y0160165D01*
X0104020Y0160199D01*
X0104104Y0160230D01*
X0104189Y0160256D01*
X0104275Y0160279D01*
X0104362Y0160297D01*
X0104450Y0160312D01*
X0104539Y0160323D01*
X0104628Y0160330D01*
X0104717Y0160333D01*
X0104806Y0160332D01*
X0104895Y0160327D01*
X0104983Y0160318D01*
X0105072Y0160305D01*
X0105159Y0160288D01*
X0105246Y0160268D01*
X0105332Y0160243D01*
X0105416Y0160215D01*
X0105499Y0160183D01*
X0105581Y0160147D01*
X0105661Y0160108D01*
X0105739Y0160065D01*
X0105815Y0160019D01*
X0105889Y0159969D01*
X0105961Y0159916D01*
X0106030Y0159860D01*
X0106097Y0159801D01*
X0106161Y0159739D01*
X0106222Y0159675D01*
X0106281Y0159607D01*
X0106336Y0159537D01*
X0106388Y0159465D01*
X0106437Y0159390D01*
X0106482Y0159314D01*
X0106524Y0159235D01*
X0106562Y0159155D01*
X0106597Y0159073D01*
X0106628Y0158989D01*
X0106656Y0158904D01*
X0106679Y0158818D01*
X0106699Y0158731D01*
X0106715Y0158644D01*
X0106727Y0158555D01*
X0106735Y0158467D01*
X0106739Y0158378D01*
X0106739Y0158288D01*
X0106735Y0158199D01*
X0106727Y0158111D01*
X0106715Y0158022D01*
X0106699Y0157935D01*
X0106679Y0157848D01*
X0106656Y0157762D01*
X0106628Y0157677D01*
X0106597Y0157593D01*
X0106562Y0157511D01*
X0106524Y0157431D01*
X0106482Y0157352D01*
X0106437Y0157276D01*
X0106388Y0157201D01*
X0106336Y0157129D01*
X0106281Y0157059D01*
X0106222Y0156991D01*
X0106161Y0156927D01*
X0106097Y0156865D01*
X0106030Y0156806D01*
X0105961Y0156750D01*
X0105889Y0156697D01*
X0105815Y0156647D01*
X0105739Y0156601D01*
X0105661Y0156558D01*
X0105581Y0156519D01*
X0105499Y0156483D01*
X0105416Y0156451D01*
X0105332Y0156423D01*
X0105246Y0156398D01*
X0105159Y0156378D01*
X0105072Y0156361D01*
X0104983Y0156348D01*
X0104895Y0156339D01*
X0104806Y0156334D01*
X0104717Y0156333D01*
X0104628Y0156336D01*
X0104539Y0156343D01*
X0104450Y0156354D01*
X0104362Y0156369D01*
X0104275Y0156387D01*
X0104189Y0156410D01*
X0104104Y0156436D01*
X0104020Y0156467D01*
X0103938Y0156501D01*
X0103857Y0156538D01*
X0103778Y0156579D01*
X0103701Y0156624D01*
X0103626Y0156672D01*
X0103553Y0156723D01*
X0103482Y0156777D01*
X0103414Y0156835D01*
X0103349Y0156895D01*
X0103286Y0156959D01*
X0103226Y0157025D01*
X0103169Y0157094D01*
X0103116Y0157165D01*
X0103065Y0157238D01*
X0103018Y0157314D01*
X0102975Y0157391D01*
X0102934Y0157471D01*
X0102898Y0157552D01*
X0102865Y0157635D01*
X0102836Y0157719D01*
X0102810Y0157805D01*
X0102788Y0157891D01*
X0102771Y0157978D01*
X0102757Y0158066D01*
X0102747Y0158155D01*
X0102741Y0158244D01*
X0102739Y0158333D01*
X0175074Y0261133D02*
X0173839Y0262368D01*
X0175074Y0261133D02*
X0177542Y0261133D01*
X0178777Y0262368D01*
X0178777Y0263602D01*
X0177542Y0264836D01*
X0175074Y0264836D01*
X0173839Y0266071D01*
X0173839Y0267305D01*
X0175074Y0268540D01*
X0177542Y0268540D01*
X0178777Y0267305D01*
X0181205Y0262368D02*
X0182440Y0262368D01*
X0182440Y0261133D01*
X0181205Y0261133D01*
X0181205Y0262368D01*
X0184889Y0268540D02*
X0189826Y0268540D01*
X0187357Y0268540D02*
X0187357Y0261133D01*
X0192255Y0261133D02*
X0192255Y0262368D01*
X0193489Y0262368D01*
X0193489Y0261133D01*
X0192255Y0261133D01*
X0195938Y0261133D02*
X0198407Y0261133D01*
X0197172Y0261133D02*
X0197172Y0268540D01*
X0195938Y0268540D02*
X0198407Y0268540D01*
X0200849Y0262368D02*
X0202083Y0262368D01*
X0202083Y0261133D01*
X0200849Y0261133D01*
X0200849Y0262368D01*
X0204532Y0262368D02*
X0205766Y0261133D01*
X0208235Y0261133D01*
X0209470Y0262368D01*
X0209470Y0264836D01*
X0207001Y0264836D01*
X0204532Y0262368D02*
X0204532Y0267305D01*
X0205766Y0268540D01*
X0208235Y0268540D01*
X0209470Y0267305D01*
X0211898Y0262368D02*
X0213133Y0262368D01*
X0213133Y0261133D01*
X0211898Y0261133D01*
X0211898Y0262368D01*
X0232939Y0274652D02*
X0232939Y0278433D01*
X0235950Y0278433D01*
X0241030Y0278433D02*
X0244139Y0278433D01*
X0244139Y0274652D01*
X0244139Y0298233D02*
X0241128Y0298233D01*
X0244139Y0298233D02*
X0244139Y0302014D01*
X0236049Y0298233D02*
X0232939Y0298233D01*
X0232939Y0302014D01*
D12*
X0229503Y0294499D02*
X0232572Y0291429D01*
X0233339Y0291429D01*
X0233339Y0289895D02*
X0231805Y0288360D01*
X0231239Y0288137D02*
X0231239Y0284301D01*
X0232006Y0283533D01*
X0233541Y0283533D01*
X0234308Y0284301D01*
X0234308Y0288137D01*
X0234729Y0288533D02*
X0235497Y0289301D01*
X0235497Y0293137D01*
X0237031Y0292370D02*
X0237799Y0293137D01*
X0239333Y0293137D01*
X0240101Y0292370D01*
X0239333Y0290835D02*
X0237799Y0290835D01*
X0237031Y0291603D01*
X0237031Y0292370D01*
X0238566Y0293905D02*
X0238566Y0287766D01*
X0238912Y0287370D02*
X0238145Y0288137D01*
X0236610Y0288137D01*
X0235843Y0287370D01*
X0235843Y0286603D01*
X0236610Y0285835D01*
X0238145Y0285835D01*
X0238912Y0285068D01*
X0238912Y0284301D01*
X0238145Y0283533D01*
X0236610Y0283533D01*
X0235843Y0284301D01*
X0237378Y0282766D02*
X0237378Y0288905D01*
X0237031Y0289301D02*
X0237799Y0288533D01*
X0239333Y0288533D01*
X0240101Y0289301D01*
X0240101Y0290068D01*
X0239333Y0290835D01*
X0241635Y0290835D02*
X0244705Y0290835D01*
X0243937Y0288533D02*
X0243937Y0293137D01*
X0241635Y0290835D01*
X0241214Y0288137D02*
X0240447Y0287370D01*
X0241214Y0288137D02*
X0242749Y0288137D01*
X0243516Y0287370D01*
X0243516Y0286603D01*
X0242749Y0285835D01*
X0243516Y0285068D01*
X0243516Y0284301D01*
X0242749Y0283533D01*
X0241214Y0283533D01*
X0240447Y0284301D01*
X0241982Y0285835D02*
X0242749Y0285835D01*
X0244109Y0279103D02*
X0243342Y0278335D01*
X0243342Y0276801D01*
X0244109Y0276033D01*
X0245644Y0276033D01*
X0246411Y0276801D01*
X0246411Y0278335D01*
X0245644Y0279103D01*
X0244109Y0279103D01*
X0241807Y0278335D02*
X0241807Y0276033D01*
X0240273Y0276033D02*
X0240273Y0278335D01*
X0241040Y0279103D01*
X0241807Y0278335D01*
X0240273Y0278335D02*
X0239505Y0279103D01*
X0238738Y0279103D01*
X0238738Y0276033D01*
X0237203Y0276033D02*
X0234134Y0276033D01*
X0237203Y0279103D01*
X0234134Y0279103D01*
X0231832Y0279103D02*
X0231832Y0276033D01*
X0231065Y0276033D02*
X0232599Y0276033D01*
X0229530Y0276801D02*
X0229530Y0278335D01*
X0227995Y0278335D01*
X0226461Y0276801D02*
X0227228Y0276033D01*
X0228763Y0276033D01*
X0229530Y0276801D01*
X0231065Y0279103D02*
X0231832Y0279103D01*
X0231832Y0280637D02*
X0231832Y0281405D01*
X0229530Y0279870D02*
X0228763Y0280637D01*
X0227228Y0280637D01*
X0226461Y0279870D01*
X0226461Y0276801D01*
X0220322Y0277568D02*
X0217253Y0277568D01*
X0217253Y0278335D02*
X0218020Y0279103D01*
X0219555Y0279103D01*
X0220322Y0278335D01*
X0220322Y0277568D01*
X0219555Y0276033D02*
X0218020Y0276033D01*
X0217253Y0276801D01*
X0217253Y0278335D01*
X0215718Y0279103D02*
X0213416Y0279103D01*
X0212649Y0278335D01*
X0212649Y0276801D01*
X0213416Y0276033D01*
X0215718Y0276033D01*
X0211114Y0276033D02*
X0208812Y0276033D01*
X0208045Y0276801D01*
X0208812Y0277568D01*
X0211114Y0277568D01*
X0211114Y0278335D02*
X0211114Y0276033D01*
X0211114Y0278335D02*
X0210347Y0279103D01*
X0208812Y0279103D01*
X0206510Y0278335D02*
X0204976Y0278335D01*
X0205743Y0279870D02*
X0205743Y0276033D01*
X0203441Y0279103D02*
X0202674Y0279103D01*
X0201139Y0277568D01*
X0199605Y0277568D02*
X0196535Y0277568D01*
X0196535Y0278335D02*
X0197303Y0279103D01*
X0198837Y0279103D01*
X0199605Y0278335D01*
X0199605Y0277568D01*
X0198837Y0276033D02*
X0197303Y0276033D01*
X0196535Y0276801D01*
X0196535Y0278335D01*
X0195001Y0279103D02*
X0193466Y0279103D01*
X0194233Y0279870D02*
X0194233Y0276801D01*
X0195001Y0276033D01*
X0191931Y0276033D02*
X0191931Y0278335D01*
X0191164Y0279103D01*
X0188862Y0279103D01*
X0188862Y0276033D01*
X0187327Y0276033D02*
X0185793Y0276033D01*
X0186560Y0276033D02*
X0186560Y0280637D01*
X0185793Y0280637D02*
X0187327Y0280637D01*
X0179654Y0278335D02*
X0179654Y0276033D01*
X0179654Y0278335D02*
X0178887Y0279103D01*
X0176585Y0279103D01*
X0176585Y0276033D01*
X0175050Y0276801D02*
X0175050Y0278335D01*
X0174283Y0279103D01*
X0172748Y0279103D01*
X0171981Y0278335D01*
X0171981Y0276801D01*
X0172748Y0276033D01*
X0174283Y0276033D01*
X0175050Y0276801D01*
X0170446Y0276033D02*
X0168912Y0276033D01*
X0169679Y0276033D02*
X0169679Y0279103D01*
X0168912Y0279103D01*
X0167377Y0279103D02*
X0165075Y0279103D01*
X0164308Y0278335D01*
X0165075Y0277568D01*
X0166610Y0277568D01*
X0167377Y0276801D01*
X0166610Y0276033D01*
X0164308Y0276033D01*
X0162773Y0276801D02*
X0162006Y0277568D01*
X0160471Y0277568D01*
X0159704Y0278335D01*
X0160471Y0279103D01*
X0162773Y0279103D01*
X0162773Y0276801D02*
X0162006Y0276033D01*
X0159704Y0276033D01*
X0158169Y0276033D02*
X0156635Y0276033D01*
X0157402Y0276033D02*
X0157402Y0279103D01*
X0156635Y0279103D01*
X0157402Y0280637D02*
X0157402Y0281405D01*
X0154333Y0279103D02*
X0153565Y0278335D01*
X0153565Y0276033D01*
X0152031Y0276033D02*
X0152031Y0279103D01*
X0152798Y0279103D01*
X0153565Y0278335D01*
X0154333Y0279103D02*
X0155100Y0278335D01*
X0155100Y0276033D01*
X0150496Y0276801D02*
X0149729Y0277568D01*
X0148194Y0277568D01*
X0147427Y0278335D01*
X0148194Y0279103D01*
X0150496Y0279103D01*
X0150496Y0276801D02*
X0149729Y0276033D01*
X0147427Y0276033D01*
X0145892Y0276033D02*
X0145892Y0278335D01*
X0145125Y0279103D01*
X0142823Y0279103D01*
X0142823Y0276033D01*
X0141288Y0276033D02*
X0138986Y0276033D01*
X0138219Y0276801D01*
X0138986Y0277568D01*
X0141288Y0277568D01*
X0141288Y0278335D02*
X0141288Y0276033D01*
X0141288Y0278335D02*
X0140521Y0279103D01*
X0138986Y0279103D01*
X0136684Y0279103D02*
X0135917Y0279103D01*
X0134382Y0277568D01*
X0134382Y0276033D02*
X0134382Y0279103D01*
X0132848Y0280637D02*
X0129778Y0280637D01*
X0131313Y0280637D02*
X0131313Y0276033D01*
X0123640Y0276033D02*
X0122105Y0276033D01*
X0122873Y0276033D02*
X0122873Y0280637D01*
X0122105Y0280637D01*
X0120571Y0278335D02*
X0120571Y0276033D01*
X0118269Y0276033D01*
X0117501Y0276801D01*
X0118269Y0277568D01*
X0120571Y0277568D01*
X0120571Y0278335D02*
X0119803Y0279103D01*
X0118269Y0279103D01*
X0115199Y0279103D02*
X0115199Y0276033D01*
X0114432Y0276033D02*
X0115967Y0276033D01*
X0112897Y0276033D02*
X0112130Y0276801D01*
X0112130Y0279870D01*
X0111363Y0279103D02*
X0112897Y0279103D01*
X0114432Y0279103D02*
X0115199Y0279103D01*
X0115199Y0280637D02*
X0115199Y0281405D01*
X0109828Y0278335D02*
X0109828Y0276033D01*
X0109828Y0278335D02*
X0109061Y0279103D01*
X0106759Y0279103D01*
X0106759Y0276033D01*
X0105224Y0277568D02*
X0102155Y0277568D01*
X0102155Y0278335D02*
X0102922Y0279103D01*
X0104457Y0279103D01*
X0105224Y0278335D01*
X0105224Y0277568D01*
X0104457Y0276033D02*
X0102922Y0276033D01*
X0102155Y0276801D01*
X0102155Y0278335D01*
X0100620Y0279103D02*
X0100620Y0276033D01*
X0098318Y0276033D01*
X0097551Y0276801D01*
X0097551Y0279103D01*
X0096016Y0279103D02*
X0093714Y0279103D01*
X0092947Y0278335D01*
X0092947Y0276801D01*
X0093714Y0276033D01*
X0096016Y0276033D01*
X0096016Y0274499D02*
X0096016Y0279103D01*
X0091412Y0278335D02*
X0091412Y0277568D01*
X0088343Y0277568D01*
X0088343Y0278335D02*
X0089110Y0279103D01*
X0090645Y0279103D01*
X0091412Y0278335D01*
X0090645Y0276033D02*
X0089110Y0276033D01*
X0088343Y0276801D01*
X0088343Y0278335D01*
X0086808Y0277568D02*
X0086808Y0276801D01*
X0086041Y0276033D01*
X0084506Y0276033D01*
X0083739Y0276801D01*
X0084506Y0278335D02*
X0086041Y0278335D01*
X0086808Y0277568D01*
X0086808Y0279870D02*
X0086041Y0280637D01*
X0084506Y0280637D01*
X0083739Y0279870D01*
X0083739Y0279103D01*
X0084506Y0278335D01*
X0169679Y0280637D02*
X0169679Y0281405D01*
X0201139Y0279103D02*
X0201139Y0276033D01*
X0205743Y0279870D02*
X0206510Y0280637D01*
X0228735Y0286825D02*
X0228735Y0289127D01*
X0229503Y0289895D01*
X0231037Y0289895D01*
X0231805Y0289127D01*
X0231805Y0286825D01*
X0233339Y0286825D02*
X0228735Y0286825D01*
X0232427Y0289301D02*
X0233195Y0288533D01*
X0234729Y0288533D01*
X0232427Y0289301D02*
X0232427Y0293137D01*
X0229503Y0294499D02*
X0228735Y0294499D01*
X0228735Y0291429D01*
X0273739Y0285637D02*
X0273739Y0281033D01*
X0273739Y0282568D02*
X0276041Y0282568D01*
X0276808Y0283335D01*
X0276808Y0284870D01*
X0276041Y0285637D01*
X0273739Y0285637D01*
X0275274Y0282568D02*
X0276808Y0281033D01*
X0278343Y0281801D02*
X0278343Y0282568D01*
X0279110Y0283335D01*
X0280645Y0283335D01*
X0281412Y0282568D01*
X0281412Y0281801D01*
X0280645Y0281033D01*
X0279110Y0281033D01*
X0278343Y0281801D01*
X0279110Y0283335D02*
X0278343Y0284103D01*
X0278343Y0284870D01*
X0279110Y0285637D01*
X0280645Y0285637D01*
X0281412Y0284870D01*
X0281412Y0284103D01*
X0280645Y0283335D01*
X0101277Y0094899D02*
X0102045Y0094132D01*
X0098975Y0091062D01*
X0099743Y0090295D01*
X0101277Y0090295D01*
X0102045Y0091062D01*
X0102045Y0094132D01*
X0101277Y0094899D02*
X0099743Y0094899D01*
X0098975Y0094132D01*
X0098975Y0091062D01*
D13*
X0098832Y0095083D02*
X0098081Y0095834D01*
X0098081Y0098837D01*
X0098832Y0099587D01*
X0100333Y0099587D01*
X0101084Y0098837D01*
X0101084Y0095834D01*
X0100333Y0095083D01*
X0098832Y0095083D01*
X0099583Y0096585D02*
X0101084Y0095083D01*
X0102685Y0095083D02*
X0105688Y0098086D01*
X0105688Y0098837D01*
X0104937Y0099587D01*
X0103436Y0099587D01*
X0102685Y0098837D01*
X0102685Y0095083D02*
X0105688Y0095083D01*
X0125985Y0092282D02*
X0125985Y0089279D01*
X0128237Y0089279D01*
X0127487Y0090781D01*
X0127487Y0091531D01*
X0128237Y0092282D01*
X0129739Y0092282D01*
X0130489Y0091531D01*
X0130489Y0090030D01*
X0129739Y0089279D01*
X0129739Y0087678D02*
X0128988Y0087678D01*
X0128237Y0086927D01*
X0128237Y0085426D01*
X0127487Y0084675D01*
X0126736Y0084675D01*
X0125985Y0085426D01*
X0125985Y0086927D01*
X0126736Y0087678D01*
X0125235Y0086177D02*
X0131240Y0086177D01*
X0130489Y0086927D02*
X0129739Y0087678D01*
X0130489Y0086927D02*
X0130489Y0085426D01*
X0129739Y0084675D01*
X0129739Y0083074D02*
X0125985Y0083074D01*
X0125985Y0080072D02*
X0129739Y0080072D01*
X0130489Y0080822D01*
X0130489Y0082323D01*
X0129739Y0083074D01*
X0141585Y0102285D02*
X0141585Y0103786D01*
X0141585Y0103035D02*
X0145339Y0103035D01*
X0146089Y0102285D01*
X0146089Y0101534D01*
X0145339Y0100783D01*
X0146089Y0105387D02*
X0141585Y0105387D01*
X0141585Y0107639D01*
X0142336Y0108390D01*
X0143837Y0108390D01*
X0144588Y0107639D01*
X0144588Y0105387D01*
X0146089Y0109991D02*
X0143087Y0112994D01*
X0142336Y0112994D01*
X0141585Y0112243D01*
X0141585Y0110742D01*
X0142336Y0109991D01*
X0146089Y0109991D02*
X0146089Y0112994D01*
X0173539Y0078333D02*
X0173539Y0073333D01*
X0186585Y0095783D02*
X0190339Y0095783D01*
X0191089Y0096534D01*
X0191089Y0098035D01*
X0190339Y0098786D01*
X0186585Y0098786D01*
X0187336Y0100387D02*
X0186585Y0101138D01*
X0186585Y0102639D01*
X0187336Y0103390D01*
X0188837Y0102639D02*
X0188837Y0101138D01*
X0188087Y0100387D01*
X0187336Y0100387D01*
X0185835Y0101889D02*
X0191840Y0101889D01*
X0191089Y0102639D02*
X0190339Y0103390D01*
X0189588Y0103390D01*
X0188837Y0102639D01*
X0191089Y0102639D02*
X0191089Y0101138D01*
X0190339Y0100387D01*
X0191089Y0104991D02*
X0191089Y0107994D01*
X0191089Y0106492D02*
X0186585Y0106492D01*
X0188087Y0104991D01*
X0231585Y0091492D02*
X0233087Y0089991D01*
X0233837Y0088390D02*
X0232336Y0088390D01*
X0231585Y0087639D01*
X0231585Y0085387D01*
X0236089Y0085387D01*
X0234588Y0085387D02*
X0234588Y0087639D01*
X0233837Y0088390D01*
X0236089Y0089991D02*
X0236089Y0092994D01*
X0236089Y0091492D02*
X0231585Y0091492D01*
X0231585Y0083786D02*
X0231585Y0082285D01*
X0231585Y0083035D02*
X0235339Y0083035D01*
X0236089Y0082285D01*
X0236089Y0081534D01*
X0235339Y0080783D01*
X0238539Y0045833D02*
X0218539Y0045833D01*
X0218539Y0040833D01*
X0238539Y0040833D01*
X0238539Y0045833D01*
X0243539Y0045833D01*
X0243539Y0023833D01*
X0213539Y0023833D01*
X0213539Y0045833D01*
X0218539Y0045833D01*
X0275985Y0099906D02*
X0275985Y0101408D01*
X0276736Y0102158D01*
X0276736Y0103760D02*
X0279739Y0103760D01*
X0280489Y0104510D01*
X0280489Y0106012D01*
X0279739Y0106762D01*
X0276736Y0106762D01*
X0275985Y0106012D01*
X0275985Y0104510D01*
X0276736Y0103760D01*
X0278988Y0102158D02*
X0278237Y0101408D01*
X0278237Y0099906D01*
X0277487Y0099156D01*
X0276736Y0099156D01*
X0275985Y0099906D01*
X0278988Y0102158D02*
X0279739Y0102158D01*
X0280489Y0101408D01*
X0280489Y0099906D01*
X0279739Y0099156D01*
X0280489Y0108364D02*
X0275985Y0108364D01*
X0280489Y0108364D02*
X0280489Y0111366D01*
X0280489Y0112968D02*
X0280489Y0115219D01*
X0279739Y0115970D01*
X0276736Y0115970D01*
X0275985Y0115219D01*
X0275985Y0112968D01*
X0280489Y0112968D01*
X0278988Y0117571D02*
X0275985Y0117571D01*
X0278988Y0117571D02*
X0280489Y0119073D01*
X0278988Y0120574D01*
X0275985Y0120574D01*
X0275985Y0122175D02*
X0275985Y0124427D01*
X0276736Y0125178D01*
X0278237Y0125178D01*
X0278988Y0124427D01*
X0278988Y0122175D01*
X0280489Y0122175D02*
X0275985Y0122175D01*
X0278988Y0123677D02*
X0280489Y0125178D01*
X0280489Y0126779D02*
X0280489Y0129782D01*
X0280489Y0128281D02*
X0275985Y0128281D01*
X0277487Y0126779D01*
X0325785Y0125291D02*
X0329539Y0125291D01*
X0330289Y0126042D01*
X0330289Y0127543D01*
X0329539Y0128294D01*
X0325785Y0128294D01*
X0325785Y0129895D02*
X0325785Y0132898D01*
X0325785Y0131396D02*
X0330289Y0131396D01*
X0329539Y0134499D02*
X0330289Y0135250D01*
X0330289Y0136751D01*
X0329539Y0137502D01*
X0330289Y0139103D02*
X0325785Y0139103D01*
X0326536Y0137502D02*
X0325785Y0136751D01*
X0325785Y0135250D01*
X0326536Y0134499D01*
X0329539Y0134499D01*
X0328037Y0139103D02*
X0328037Y0142106D01*
X0325785Y0142106D02*
X0330289Y0142106D01*
X0331040Y0143707D02*
X0331040Y0146709D01*
X0329539Y0148311D02*
X0330289Y0149061D01*
X0330289Y0150563D01*
X0329539Y0151313D01*
X0328788Y0151313D01*
X0328037Y0150563D01*
X0328037Y0149061D01*
X0327287Y0148311D01*
X0326536Y0148311D01*
X0325785Y0149061D01*
X0325785Y0150563D01*
X0326536Y0151313D01*
X0325785Y0152915D02*
X0330289Y0152915D01*
X0328788Y0154416D01*
X0330289Y0155917D01*
X0325785Y0155917D01*
X0330289Y0123690D02*
X0330289Y0120687D01*
X0325785Y0120687D01*
X0326536Y0119086D02*
X0325785Y0118335D01*
X0325785Y0116834D01*
X0326536Y0116083D01*
X0329539Y0116083D01*
X0330289Y0116834D01*
X0330289Y0118335D01*
X0329539Y0119086D01*
X0336536Y0193583D02*
X0337287Y0193583D01*
X0338037Y0194334D01*
X0338037Y0195835D01*
X0338788Y0196586D01*
X0339539Y0196586D01*
X0340289Y0195835D01*
X0340289Y0194334D01*
X0339539Y0193583D01*
X0336536Y0193583D02*
X0335785Y0194334D01*
X0335785Y0195835D01*
X0336536Y0196586D01*
X0335785Y0198187D02*
X0340289Y0198187D01*
X0338037Y0198187D02*
X0338037Y0201190D01*
X0335785Y0201190D02*
X0340289Y0201190D01*
X0340289Y0202791D02*
X0340289Y0204292D01*
X0340289Y0203542D02*
X0335785Y0203542D01*
X0335785Y0204292D02*
X0335785Y0202791D01*
X0335785Y0205860D02*
X0335785Y0208863D01*
X0335785Y0210464D02*
X0335785Y0213467D01*
X0335785Y0211966D02*
X0340289Y0211966D01*
X0338037Y0207362D02*
X0338037Y0205860D01*
X0340289Y0205860D02*
X0335785Y0205860D01*
X0280489Y0214906D02*
X0279739Y0214156D01*
X0280489Y0214906D02*
X0280489Y0216408D01*
X0279739Y0217158D01*
X0278988Y0217158D01*
X0278237Y0216408D01*
X0278237Y0214906D01*
X0277487Y0214156D01*
X0276736Y0214156D01*
X0275985Y0214906D01*
X0275985Y0216408D01*
X0276736Y0217158D01*
X0276736Y0218760D02*
X0279739Y0218760D01*
X0280489Y0219510D01*
X0280489Y0221012D01*
X0279739Y0221762D01*
X0276736Y0221762D01*
X0275985Y0221012D01*
X0275985Y0219510D01*
X0276736Y0218760D01*
X0275985Y0223364D02*
X0280489Y0223364D01*
X0280489Y0226366D01*
X0280489Y0227968D02*
X0280489Y0230219D01*
X0279739Y0230970D01*
X0276736Y0230970D01*
X0275985Y0230219D01*
X0275985Y0227968D01*
X0280489Y0227968D01*
X0278988Y0232571D02*
X0275985Y0232571D01*
X0278988Y0232571D02*
X0280489Y0234073D01*
X0278988Y0235574D01*
X0275985Y0235574D01*
X0275985Y0237175D02*
X0275985Y0239427D01*
X0276736Y0240178D01*
X0278237Y0240178D01*
X0278988Y0239427D01*
X0278988Y0237175D01*
X0280489Y0237175D02*
X0275985Y0237175D01*
X0278988Y0238677D02*
X0280489Y0240178D01*
X0280489Y0241779D02*
X0277487Y0244782D01*
X0276736Y0244782D01*
X0275985Y0244031D01*
X0275985Y0242530D01*
X0276736Y0241779D01*
X0280489Y0241779D02*
X0280489Y0244782D01*
X0291785Y0269475D02*
X0293287Y0270976D01*
X0291785Y0272477D01*
X0296289Y0272477D01*
X0295539Y0274079D02*
X0296289Y0274829D01*
X0296289Y0276331D01*
X0295539Y0277081D01*
X0292536Y0277081D01*
X0291785Y0276331D01*
X0291785Y0274829D01*
X0292536Y0274079D01*
X0295539Y0274079D01*
X0296289Y0269475D02*
X0291785Y0269475D01*
X0291785Y0278683D02*
X0291785Y0281685D01*
X0291785Y0280184D02*
X0296289Y0280184D01*
X0296289Y0283286D02*
X0296289Y0286289D01*
X0295539Y0287890D02*
X0296289Y0288641D01*
X0296289Y0290142D01*
X0295539Y0290893D01*
X0295539Y0292494D02*
X0296289Y0293245D01*
X0296289Y0294746D01*
X0295539Y0295497D01*
X0294788Y0295497D01*
X0294037Y0294746D01*
X0294037Y0293245D01*
X0293287Y0292494D01*
X0292536Y0292494D01*
X0291785Y0293245D01*
X0291785Y0294746D01*
X0292536Y0295497D01*
X0291785Y0297098D02*
X0291785Y0298600D01*
X0291785Y0297849D02*
X0296289Y0297849D01*
X0296289Y0297098D02*
X0296289Y0298600D01*
X0295539Y0300168D02*
X0292536Y0300168D01*
X0291785Y0300918D01*
X0291785Y0302419D01*
X0292536Y0303170D01*
X0294037Y0303170D02*
X0294037Y0301669D01*
X0294037Y0303170D02*
X0295539Y0303170D01*
X0296289Y0302419D01*
X0296289Y0300918D01*
X0295539Y0300168D01*
X0296289Y0304771D02*
X0291785Y0304771D01*
X0296289Y0307774D01*
X0291785Y0307774D01*
X0293287Y0309375D02*
X0291785Y0310877D01*
X0293287Y0312378D01*
X0296289Y0312378D01*
X0296289Y0313979D02*
X0296289Y0316982D01*
X0296289Y0313979D02*
X0291785Y0313979D01*
X0294037Y0312378D02*
X0294037Y0309375D01*
X0293287Y0309375D02*
X0296289Y0309375D01*
X0292536Y0290893D02*
X0291785Y0290142D01*
X0291785Y0288641D01*
X0292536Y0287890D01*
X0295539Y0287890D01*
X0294037Y0284788D02*
X0294037Y0283286D01*
X0291785Y0283286D02*
X0291785Y0286289D01*
X0291785Y0283286D02*
X0296289Y0283286D01*
X0184688Y0328834D02*
X0183937Y0328083D01*
X0182436Y0328083D01*
X0181685Y0328834D01*
X0182436Y0330335D02*
X0181685Y0331086D01*
X0181685Y0331837D01*
X0182436Y0332587D01*
X0183937Y0332587D01*
X0184688Y0331837D01*
X0183937Y0330335D02*
X0184688Y0329585D01*
X0184688Y0328834D01*
X0183937Y0330335D02*
X0182436Y0330335D01*
X0180084Y0330335D02*
X0179333Y0329585D01*
X0177081Y0329585D01*
X0177081Y0328083D02*
X0177081Y0332587D01*
X0179333Y0332587D01*
X0180084Y0331837D01*
X0180084Y0330335D01*
X0175480Y0328834D02*
X0175480Y0331837D01*
X0174729Y0332587D01*
X0173228Y0332587D01*
X0172477Y0331837D01*
X0172477Y0328834D01*
X0173228Y0328083D01*
X0174729Y0328083D01*
X0175480Y0328834D01*
X0170876Y0332587D02*
X0167873Y0332587D01*
X0169375Y0332587D02*
X0169375Y0328083D01*
X0166272Y0328834D02*
X0166272Y0329585D01*
X0165521Y0330335D01*
X0164020Y0330335D01*
X0163269Y0331086D01*
X0163269Y0331837D01*
X0164020Y0332587D01*
X0165521Y0332587D01*
X0166272Y0331837D01*
X0166272Y0328834D02*
X0165521Y0328083D01*
X0164020Y0328083D01*
X0163269Y0328834D01*
X0161668Y0328834D02*
X0161668Y0331837D01*
X0160917Y0332587D01*
X0158666Y0332587D01*
X0158666Y0328083D01*
X0160917Y0328083D01*
X0161668Y0328834D01*
X0157064Y0328083D02*
X0157064Y0332587D01*
X0154062Y0332587D02*
X0157064Y0328083D01*
X0154062Y0328083D02*
X0154062Y0332587D01*
X0152460Y0332587D02*
X0149458Y0332587D01*
X0149458Y0328083D01*
X0152460Y0328083D01*
X0150959Y0330335D02*
X0149458Y0330335D01*
X0117789Y0211313D02*
X0117789Y0208311D01*
X0113285Y0208311D01*
X0113285Y0206709D02*
X0113285Y0203707D01*
X0117789Y0203707D01*
X0117789Y0206709D01*
X0115537Y0205208D02*
X0115537Y0203707D01*
X0116288Y0202106D02*
X0117039Y0202106D01*
X0117789Y0201355D01*
X0117789Y0199854D01*
X0117039Y0199103D01*
X0115537Y0199854D02*
X0115537Y0201355D01*
X0116288Y0202106D01*
X0114036Y0202106D02*
X0113285Y0201355D01*
X0113285Y0199854D01*
X0114036Y0199103D01*
X0114787Y0199103D01*
X0115537Y0199854D01*
X0118540Y0197502D02*
X0118540Y0194499D01*
X0117789Y0192898D02*
X0117789Y0189895D01*
X0113285Y0189895D01*
X0113285Y0192898D01*
X0115537Y0191396D02*
X0115537Y0189895D01*
X0114036Y0188294D02*
X0113285Y0187543D01*
X0113285Y0185291D01*
X0117789Y0185291D01*
X0117789Y0187543D01*
X0117039Y0188294D01*
X0114036Y0188294D01*
X0114036Y0183690D02*
X0113285Y0182939D01*
X0113285Y0181438D01*
X0114036Y0180687D01*
X0117039Y0180687D01*
X0117789Y0181438D01*
X0117789Y0182939D01*
X0117039Y0183690D01*
X0114036Y0183690D01*
X0113285Y0179086D02*
X0117789Y0179086D01*
X0117789Y0176083D02*
X0113285Y0176083D01*
X0114787Y0177585D01*
X0113285Y0179086D01*
X0081289Y0161982D02*
X0076785Y0161982D01*
X0076785Y0158979D02*
X0081289Y0161982D01*
X0081289Y0158979D02*
X0076785Y0158979D01*
X0076785Y0157378D02*
X0081289Y0157378D01*
X0076785Y0154375D01*
X0081289Y0154375D01*
X0080539Y0152774D02*
X0077536Y0152774D01*
X0076785Y0152023D01*
X0076785Y0150522D01*
X0077536Y0149771D01*
X0080539Y0149771D01*
X0081289Y0150522D01*
X0081289Y0152023D01*
X0080539Y0152774D01*
X0080539Y0148170D02*
X0081289Y0147419D01*
X0081289Y0145918D01*
X0080539Y0145168D01*
X0077536Y0145168D01*
X0076785Y0145918D01*
X0076785Y0147419D01*
X0077536Y0148170D01*
X0082040Y0143566D02*
X0082040Y0140564D01*
X0081289Y0137461D02*
X0076785Y0137461D01*
X0076785Y0135960D02*
X0076785Y0138962D01*
X0078287Y0134358D02*
X0081289Y0134358D01*
X0079037Y0134358D02*
X0079037Y0131356D01*
X0078287Y0131356D02*
X0081289Y0131356D01*
X0080539Y0129754D02*
X0081289Y0129004D01*
X0081289Y0126752D01*
X0076785Y0126752D01*
X0076785Y0129004D01*
X0077536Y0129754D01*
X0078287Y0129754D01*
X0079037Y0129004D01*
X0079037Y0126752D01*
X0079037Y0129004D02*
X0079788Y0129754D01*
X0080539Y0129754D01*
X0078287Y0131356D02*
X0076785Y0132857D01*
X0078287Y0134358D01*
D14*
X0079539Y0118333D02*
X0081039Y0118333D01*
X0079539Y0118334D02*
X0079424Y0118335D01*
X0079309Y0118332D01*
X0079194Y0118325D01*
X0079079Y0118314D01*
X0078965Y0118299D01*
X0078851Y0118281D01*
X0078738Y0118259D01*
X0078625Y0118233D01*
X0078514Y0118203D01*
X0078404Y0118169D01*
X0078294Y0118132D01*
X0078187Y0118091D01*
X0078080Y0118046D01*
X0077976Y0117998D01*
X0077872Y0117946D01*
X0077771Y0117891D01*
X0077672Y0117832D01*
X0077574Y0117771D01*
X0077479Y0117705D01*
X0077386Y0117637D01*
X0077296Y0117566D01*
X0077208Y0117491D01*
X0077122Y0117414D01*
X0077039Y0117334D01*
X0076959Y0117251D01*
X0076882Y0117165D01*
X0076807Y0117077D01*
X0076736Y0116987D01*
X0076668Y0116894D01*
X0076602Y0116799D01*
X0076541Y0116701D01*
X0076482Y0116602D01*
X0076427Y0116501D01*
X0076375Y0116397D01*
X0076327Y0116293D01*
X0076282Y0116186D01*
X0076241Y0116079D01*
X0076204Y0115969D01*
X0076170Y0115859D01*
X0076140Y0115748D01*
X0076114Y0115635D01*
X0076092Y0115522D01*
X0076074Y0115408D01*
X0076059Y0115294D01*
X0076048Y0115179D01*
X0076041Y0115064D01*
X0076038Y0114949D01*
X0076039Y0114834D01*
X0076039Y0114833D02*
X0076039Y0105333D01*
X0076039Y0101333D01*
X0116039Y0101333D01*
X0116039Y0105333D01*
X0076039Y0105333D01*
X0076039Y0098333D02*
X0118539Y0098333D01*
X0118539Y0008333D01*
X0076039Y0008333D01*
X0076039Y0098333D01*
X0083539Y0090833D02*
X0083539Y0085833D01*
X0086039Y0083333D01*
X0083539Y0080833D01*
X0083539Y0075833D01*
X0086039Y0073333D01*
X0083539Y0070833D01*
X0083539Y0065833D01*
X0086039Y0063333D01*
X0091039Y0063333D01*
X0093539Y0065833D01*
X0093539Y0070833D01*
X0091039Y0073333D01*
X0093539Y0075833D01*
X0093539Y0080833D01*
X0091039Y0083333D01*
X0093539Y0085833D01*
X0093539Y0090833D01*
X0091039Y0093333D01*
X0086039Y0093333D01*
X0083539Y0090833D01*
X0112540Y0118334D02*
X0112655Y0118335D01*
X0112770Y0118332D01*
X0112885Y0118325D01*
X0113000Y0118314D01*
X0113114Y0118299D01*
X0113228Y0118281D01*
X0113341Y0118259D01*
X0113454Y0118233D01*
X0113565Y0118203D01*
X0113675Y0118169D01*
X0113785Y0118132D01*
X0113892Y0118091D01*
X0113999Y0118046D01*
X0114103Y0117998D01*
X0114207Y0117946D01*
X0114308Y0117891D01*
X0114407Y0117832D01*
X0114505Y0117771D01*
X0114600Y0117705D01*
X0114693Y0117637D01*
X0114783Y0117566D01*
X0114871Y0117491D01*
X0114957Y0117414D01*
X0115040Y0117334D01*
X0115120Y0117251D01*
X0115197Y0117165D01*
X0115272Y0117077D01*
X0115343Y0116987D01*
X0115411Y0116894D01*
X0115477Y0116799D01*
X0115538Y0116701D01*
X0115597Y0116602D01*
X0115652Y0116501D01*
X0115704Y0116397D01*
X0115752Y0116293D01*
X0115797Y0116186D01*
X0115838Y0116079D01*
X0115875Y0115969D01*
X0115909Y0115859D01*
X0115939Y0115748D01*
X0115965Y0115635D01*
X0115987Y0115522D01*
X0116005Y0115408D01*
X0116020Y0115294D01*
X0116031Y0115179D01*
X0116038Y0115064D01*
X0116041Y0114949D01*
X0116040Y0114834D01*
X0116039Y0114833D02*
X0116039Y0105333D01*
X0112539Y0118333D02*
X0111039Y0118333D01*
X0148539Y0118333D02*
X0148539Y0113333D01*
X0151039Y0110833D01*
X0148539Y0108333D01*
X0148539Y0103333D01*
X0151039Y0100833D01*
X0156039Y0100833D01*
X0158539Y0103333D01*
X0158539Y0108333D01*
X0156039Y0110833D01*
X0158539Y0113333D01*
X0158539Y0118333D01*
X0156039Y0120833D01*
X0158539Y0123333D01*
X0158539Y0128333D01*
X0156039Y0130833D01*
X0158539Y0133333D01*
X0158539Y0138333D01*
X0156039Y0140833D01*
X0158539Y0143333D01*
X0158539Y0148333D01*
X0156039Y0150833D01*
X0158539Y0153333D01*
X0158539Y0158333D01*
X0156039Y0160833D01*
X0158539Y0163333D01*
X0158539Y0168333D01*
X0156039Y0170833D01*
X0158539Y0173333D01*
X0158539Y0178333D01*
X0156039Y0180833D01*
X0158539Y0183333D01*
X0158539Y0188333D01*
X0156039Y0190833D01*
X0158539Y0193333D01*
X0158539Y0198333D01*
X0156039Y0200833D01*
X0158539Y0203333D01*
X0158539Y0208333D01*
X0156039Y0210833D01*
X0158539Y0213333D01*
X0158539Y0218333D01*
X0156039Y0220833D01*
X0151039Y0220833D01*
X0148539Y0218333D01*
X0148539Y0213333D01*
X0151039Y0210833D01*
X0148539Y0208333D01*
X0148539Y0203333D01*
X0151039Y0200833D01*
X0148539Y0198333D01*
X0148539Y0193333D01*
X0151039Y0190833D01*
X0148539Y0188333D01*
X0148539Y0183333D01*
X0151039Y0180833D01*
X0148539Y0178333D01*
X0148539Y0173333D01*
X0151039Y0170833D01*
X0148539Y0168333D01*
X0148539Y0163333D01*
X0151039Y0160833D01*
X0148539Y0158333D01*
X0148539Y0153333D01*
X0151039Y0150833D01*
X0148539Y0148333D01*
X0148539Y0143333D01*
X0151039Y0140833D01*
X0148539Y0138333D01*
X0148539Y0133333D01*
X0151039Y0130833D01*
X0148539Y0128333D01*
X0148539Y0123333D01*
X0151039Y0120833D01*
X0148539Y0118333D01*
X0163539Y0118333D02*
X0163539Y0113333D01*
X0166039Y0110833D01*
X0163539Y0108333D01*
X0163539Y0103333D01*
X0166039Y0100833D01*
X0163539Y0098333D01*
X0163539Y0093333D01*
X0166039Y0090833D01*
X0163539Y0088333D01*
X0163539Y0083333D01*
X0166039Y0080833D01*
X0163539Y0078333D01*
X0163539Y0073333D01*
X0166039Y0070833D01*
X0171039Y0070833D01*
X0183539Y0070833D01*
X0183539Y0055833D01*
X0213539Y0055833D01*
X0213539Y0070833D01*
X0183539Y0070833D01*
X0173539Y0073333D02*
X0171039Y0070833D01*
X0173539Y0078333D02*
X0171039Y0080833D01*
X0173539Y0083333D01*
X0173539Y0088333D01*
X0171039Y0090833D01*
X0173539Y0093333D01*
X0173539Y0098333D01*
X0171039Y0100833D01*
X0173539Y0103333D01*
X0173539Y0108333D01*
X0171039Y0110833D01*
X0173539Y0113333D01*
X0173539Y0118333D01*
X0171039Y0120833D01*
X0173539Y0123333D01*
X0173539Y0128333D01*
X0171039Y0130833D01*
X0173539Y0133333D01*
X0173539Y0138333D01*
X0171039Y0140833D01*
X0173539Y0143333D01*
X0173539Y0148333D01*
X0171039Y0150833D01*
X0173539Y0153333D01*
X0173539Y0158333D01*
X0171039Y0160833D01*
X0173539Y0163333D01*
X0173539Y0168333D01*
X0171039Y0170833D01*
X0173539Y0173333D01*
X0173539Y0178333D01*
X0171039Y0180833D01*
X0173539Y0183333D01*
X0173539Y0188333D01*
X0171039Y0190833D01*
X0173539Y0193333D01*
X0173539Y0198333D01*
X0171039Y0200833D01*
X0173539Y0203333D01*
X0173539Y0208333D01*
X0171039Y0210833D01*
X0166039Y0210833D01*
X0163539Y0208333D01*
X0163539Y0203333D01*
X0166039Y0200833D01*
X0163539Y0198333D01*
X0163539Y0193333D01*
X0166039Y0190833D01*
X0163539Y0188333D01*
X0163539Y0183333D01*
X0166039Y0180833D01*
X0163539Y0178333D01*
X0163539Y0173333D01*
X0166039Y0170833D01*
X0163539Y0168333D01*
X0163539Y0163333D01*
X0166039Y0160833D01*
X0163539Y0158333D01*
X0163539Y0153333D01*
X0166039Y0150833D01*
X0163539Y0148333D01*
X0163539Y0143333D01*
X0166039Y0140833D01*
X0163539Y0138333D01*
X0163539Y0133333D01*
X0166039Y0130833D01*
X0163539Y0128333D01*
X0163539Y0123333D01*
X0166039Y0120833D01*
X0163539Y0118333D01*
X0213539Y0070833D02*
X0226039Y0070833D01*
X0223539Y0073333D01*
X0223539Y0078333D01*
X0226039Y0080833D01*
X0223539Y0083333D01*
X0223539Y0088333D01*
X0226039Y0090833D01*
X0223539Y0093333D01*
X0223539Y0098333D01*
X0226039Y0100833D01*
X0223539Y0103333D01*
X0223539Y0108333D01*
X0226039Y0110833D01*
X0223539Y0113333D01*
X0223539Y0118333D01*
X0226039Y0120833D01*
X0223539Y0123333D01*
X0223539Y0128333D01*
X0226039Y0130833D01*
X0223539Y0133333D01*
X0223539Y0138333D01*
X0226039Y0140833D01*
X0223539Y0143333D01*
X0223539Y0148333D01*
X0226039Y0150833D01*
X0223539Y0153333D01*
X0223539Y0158333D01*
X0226039Y0160833D01*
X0223539Y0163333D01*
X0223539Y0168333D01*
X0226039Y0170833D01*
X0223539Y0173333D01*
X0223539Y0178333D01*
X0226039Y0180833D01*
X0223539Y0183333D01*
X0223539Y0188333D01*
X0226039Y0190833D01*
X0223539Y0193333D01*
X0223539Y0198333D01*
X0226039Y0200833D01*
X0223539Y0203333D01*
X0223539Y0208333D01*
X0226039Y0210833D01*
X0231039Y0210833D01*
X0233539Y0208333D01*
X0233539Y0203333D01*
X0231039Y0200833D01*
X0233539Y0198333D01*
X0233539Y0193333D01*
X0231039Y0190833D01*
X0233539Y0188333D01*
X0233539Y0183333D01*
X0231039Y0180833D01*
X0233539Y0178333D01*
X0233539Y0173333D01*
X0231039Y0170833D01*
X0233539Y0168333D01*
X0233539Y0163333D01*
X0231039Y0160833D01*
X0233539Y0158333D01*
X0233539Y0153333D01*
X0231039Y0150833D01*
X0233539Y0148333D01*
X0233539Y0143333D01*
X0231039Y0140833D01*
X0233539Y0138333D01*
X0233539Y0133333D01*
X0231039Y0130833D01*
X0233539Y0128333D01*
X0233539Y0123333D01*
X0231039Y0120833D01*
X0233539Y0118333D01*
X0233539Y0113333D01*
X0231039Y0110833D01*
X0233539Y0108333D01*
X0233539Y0103333D01*
X0231039Y0100833D01*
X0233539Y0098333D01*
X0233539Y0093333D01*
X0231039Y0090833D01*
X0233539Y0088333D01*
X0233539Y0083333D01*
X0231039Y0080833D01*
X0233539Y0078333D01*
X0233539Y0073333D01*
X0231039Y0070833D01*
X0226039Y0070833D01*
X0238539Y0083333D02*
X0241039Y0080833D01*
X0246039Y0080833D01*
X0248539Y0083333D01*
X0248539Y0088333D01*
X0246039Y0090833D01*
X0248539Y0093333D01*
X0248539Y0098333D01*
X0246039Y0100833D01*
X0248539Y0103333D01*
X0248539Y0108333D01*
X0246039Y0110833D01*
X0248539Y0113333D01*
X0248539Y0118333D01*
X0246039Y0120833D01*
X0248539Y0123333D01*
X0248539Y0128333D01*
X0246039Y0130833D01*
X0248539Y0133333D01*
X0248539Y0138333D01*
X0246039Y0140833D01*
X0248539Y0143333D01*
X0248539Y0148333D01*
X0246039Y0150833D01*
X0248539Y0153333D01*
X0248539Y0158333D01*
X0246039Y0160833D01*
X0248539Y0163333D01*
X0248539Y0168333D01*
X0246039Y0170833D01*
X0248539Y0173333D01*
X0248539Y0178333D01*
X0246039Y0180833D01*
X0248539Y0183333D01*
X0248539Y0188333D01*
X0246039Y0190833D01*
X0248539Y0193333D01*
X0248539Y0198333D01*
X0246039Y0200833D01*
X0241039Y0200833D01*
X0238539Y0198333D01*
X0238539Y0193333D01*
X0241039Y0190833D01*
X0238539Y0188333D01*
X0238539Y0183333D01*
X0241039Y0180833D01*
X0238539Y0178333D01*
X0238539Y0173333D01*
X0241039Y0170833D01*
X0238539Y0168333D01*
X0238539Y0163333D01*
X0241039Y0160833D01*
X0238539Y0158333D01*
X0238539Y0153333D01*
X0241039Y0150833D01*
X0238539Y0148333D01*
X0238539Y0143333D01*
X0241039Y0140833D01*
X0238539Y0138333D01*
X0238539Y0133333D01*
X0241039Y0130833D01*
X0238539Y0128333D01*
X0238539Y0123333D01*
X0241039Y0120833D01*
X0238539Y0118333D01*
X0238539Y0113333D01*
X0241039Y0110833D01*
X0238539Y0108333D01*
X0238539Y0103333D01*
X0241039Y0100833D01*
X0238539Y0098333D01*
X0238539Y0093333D01*
X0241039Y0090833D01*
X0238539Y0088333D01*
X0238539Y0083333D01*
X0263539Y0083333D02*
X0263539Y0088333D01*
X0266039Y0090833D01*
X0263539Y0093333D01*
X0263539Y0098333D01*
X0266039Y0100833D01*
X0263539Y0103333D01*
X0263539Y0108333D01*
X0266039Y0110833D01*
X0263539Y0113333D01*
X0263539Y0118333D01*
X0266039Y0120833D01*
X0263539Y0123333D01*
X0263539Y0128333D01*
X0266039Y0130833D01*
X0271039Y0130833D01*
X0273539Y0128333D01*
X0273539Y0123333D01*
X0271039Y0120833D01*
X0273539Y0118333D01*
X0273539Y0113333D01*
X0271039Y0110833D01*
X0273539Y0108333D01*
X0273539Y0103333D01*
X0271039Y0100833D01*
X0273539Y0098333D01*
X0273539Y0093333D01*
X0271039Y0090833D01*
X0273539Y0088333D01*
X0273539Y0083333D01*
X0271039Y0080833D01*
X0273539Y0078333D01*
X0273539Y0073333D01*
X0271039Y0070833D01*
X0273539Y0068333D01*
X0273539Y0063333D01*
X0271039Y0060833D01*
X0273539Y0058333D01*
X0273539Y0053333D01*
X0271039Y0050833D01*
X0273539Y0048333D01*
X0273539Y0043333D01*
X0271039Y0040833D01*
X0273539Y0038333D01*
X0273539Y0033333D01*
X0271039Y0030833D01*
X0266039Y0030833D01*
X0263539Y0033333D01*
X0263539Y0038333D01*
X0266039Y0040833D01*
X0263539Y0043333D01*
X0263539Y0048333D01*
X0266039Y0050833D01*
X0263539Y0053333D01*
X0263539Y0058333D01*
X0266039Y0060833D01*
X0263539Y0063333D01*
X0263539Y0068333D01*
X0266039Y0070833D01*
X0263539Y0073333D01*
X0263539Y0078333D01*
X0266039Y0080833D01*
X0263539Y0083333D01*
X0266039Y0145833D02*
X0263539Y0148333D01*
X0263539Y0153333D01*
X0266039Y0155833D01*
X0263539Y0158333D01*
X0263539Y0163333D01*
X0266039Y0165833D01*
X0263539Y0168333D01*
X0263539Y0173333D01*
X0266039Y0175833D01*
X0263539Y0178333D01*
X0263539Y0183333D01*
X0266039Y0185833D01*
X0263539Y0188333D01*
X0263539Y0193333D01*
X0266039Y0195833D01*
X0263539Y0198333D01*
X0263539Y0203333D01*
X0266039Y0205833D01*
X0263539Y0208333D01*
X0263539Y0213333D01*
X0266039Y0215833D01*
X0263539Y0218333D01*
X0263539Y0223333D01*
X0266039Y0225833D01*
X0263539Y0228333D01*
X0263539Y0233333D01*
X0266039Y0235833D01*
X0263539Y0238333D01*
X0263539Y0243333D01*
X0266039Y0245833D01*
X0271039Y0245833D01*
X0273539Y0243333D01*
X0273539Y0238333D01*
X0271039Y0235833D01*
X0273539Y0233333D01*
X0273539Y0228333D01*
X0271039Y0225833D01*
X0273539Y0223333D01*
X0273539Y0218333D01*
X0271039Y0215833D01*
X0273539Y0213333D01*
X0273539Y0208333D01*
X0271039Y0205833D01*
X0273539Y0203333D01*
X0273539Y0198333D01*
X0271039Y0195833D01*
X0273539Y0193333D01*
X0273539Y0188333D01*
X0271039Y0185833D01*
X0273539Y0183333D01*
X0273539Y0178333D01*
X0271039Y0175833D01*
X0273539Y0173333D01*
X0273539Y0168333D01*
X0271039Y0165833D01*
X0273539Y0163333D01*
X0273539Y0158333D01*
X0271039Y0155833D01*
X0273539Y0153333D01*
X0273539Y0148333D01*
X0271039Y0145833D01*
X0266039Y0145833D01*
X0211039Y0200833D02*
X0206039Y0200833D01*
X0203539Y0203333D01*
X0201039Y0200833D01*
X0196039Y0200833D01*
X0193539Y0203333D01*
X0191039Y0200833D01*
X0186039Y0200833D01*
X0183539Y0203333D01*
X0181039Y0200833D01*
X0176039Y0200833D01*
X0173539Y0203333D01*
X0173539Y0208333D02*
X0176039Y0210833D01*
X0181039Y0210833D01*
X0183539Y0208333D01*
X0186039Y0210833D01*
X0191039Y0210833D01*
X0193539Y0208333D01*
X0196039Y0210833D01*
X0201039Y0210833D01*
X0203539Y0208333D01*
X0206039Y0210833D01*
X0211039Y0210833D01*
X0213539Y0208333D01*
X0213539Y0203333D01*
X0211039Y0200833D01*
X0222039Y0238133D02*
X0223539Y0238133D01*
X0222039Y0238133D02*
X0222039Y0253533D01*
X0223539Y0253533D01*
X0243539Y0253533D02*
X0245039Y0253533D01*
X0245039Y0238133D01*
X0243539Y0238133D01*
X0245694Y0254633D02*
X0245696Y0254680D01*
X0245702Y0254727D01*
X0245712Y0254774D01*
X0245725Y0254819D01*
X0245743Y0254863D01*
X0245764Y0254905D01*
X0245788Y0254946D01*
X0245816Y0254984D01*
X0245847Y0255020D01*
X0245881Y0255053D01*
X0245917Y0255083D01*
X0245956Y0255110D01*
X0245997Y0255134D01*
X0246040Y0255154D01*
X0246084Y0255170D01*
X0246130Y0255183D01*
X0246176Y0255192D01*
X0246224Y0255197D01*
X0246271Y0255198D01*
X0246318Y0255195D01*
X0246365Y0255188D01*
X0246411Y0255177D01*
X0246456Y0255163D01*
X0246500Y0255144D01*
X0246541Y0255122D01*
X0246581Y0255097D01*
X0246619Y0255068D01*
X0246654Y0255037D01*
X0246687Y0255002D01*
X0246716Y0254965D01*
X0246742Y0254926D01*
X0246765Y0254884D01*
X0246784Y0254841D01*
X0246800Y0254796D01*
X0246812Y0254750D01*
X0246820Y0254704D01*
X0246824Y0254657D01*
X0246824Y0254609D01*
X0246820Y0254562D01*
X0246812Y0254516D01*
X0246800Y0254470D01*
X0246784Y0254425D01*
X0246765Y0254382D01*
X0246742Y0254340D01*
X0246716Y0254301D01*
X0246687Y0254264D01*
X0246654Y0254229D01*
X0246619Y0254198D01*
X0246581Y0254169D01*
X0246542Y0254144D01*
X0246500Y0254122D01*
X0246456Y0254103D01*
X0246411Y0254089D01*
X0246365Y0254078D01*
X0246318Y0254071D01*
X0246271Y0254068D01*
X0246224Y0254069D01*
X0246176Y0254074D01*
X0246130Y0254083D01*
X0246084Y0254096D01*
X0246040Y0254112D01*
X0245997Y0254132D01*
X0245956Y0254156D01*
X0245917Y0254183D01*
X0245881Y0254213D01*
X0245847Y0254246D01*
X0245816Y0254282D01*
X0245788Y0254320D01*
X0245764Y0254361D01*
X0245743Y0254403D01*
X0245725Y0254447D01*
X0245712Y0254492D01*
X0245702Y0254539D01*
X0245696Y0254586D01*
X0245694Y0254633D01*
X0147102Y0063727D02*
X0129976Y0063727D01*
X0129976Y0017940D01*
X0147102Y0017940D01*
X0147102Y0063727D01*
X0093539Y0050833D02*
X0093539Y0045833D01*
X0091039Y0043333D01*
X0093539Y0040833D01*
X0093539Y0035833D01*
X0091039Y0033333D01*
X0093539Y0030833D01*
X0093539Y0025833D01*
X0091039Y0023333D01*
X0093539Y0020833D01*
X0093539Y0015833D01*
X0091039Y0013333D01*
X0086039Y0013333D01*
X0083539Y0015833D01*
X0083539Y0020833D01*
X0086039Y0023333D01*
X0083539Y0025833D01*
X0083539Y0030833D01*
X0086039Y0033333D01*
X0083539Y0035833D01*
X0083539Y0040833D01*
X0086039Y0043333D01*
X0083539Y0045833D01*
X0083539Y0050833D01*
X0086039Y0053333D01*
X0091039Y0053333D01*
X0093539Y0050833D01*
D15*
X0096039Y0103333D03*
D16*
X0123889Y0076438D02*
X0123889Y0075387D01*
X0124940Y0074336D01*
X0127042Y0074336D01*
X0128093Y0073285D01*
X0128093Y0072234D01*
X0127042Y0071183D01*
X0124940Y0071183D01*
X0123889Y0072234D01*
X0123889Y0076438D02*
X0124940Y0077489D01*
X0127042Y0077489D01*
X0128093Y0076438D01*
X0130335Y0075387D02*
X0132436Y0077489D01*
X0132436Y0071183D01*
X0130335Y0071183D02*
X0134538Y0071183D01*
D17*
X0232946Y0244283D02*
X0233447Y0244283D01*
X0233697Y0244534D01*
X0233697Y0245785D01*
X0234169Y0245534D02*
X0234420Y0245785D01*
X0234920Y0245785D01*
X0235170Y0245534D01*
X0235643Y0245284D02*
X0236143Y0245785D01*
X0236143Y0244283D01*
X0235643Y0244283D02*
X0236644Y0244283D01*
X0237116Y0244283D02*
X0237116Y0244534D01*
X0238117Y0245534D01*
X0238117Y0245785D01*
X0237116Y0245785D01*
X0235170Y0244784D02*
X0234920Y0245034D01*
X0234420Y0245034D01*
X0234169Y0245284D01*
X0234169Y0245534D01*
X0234670Y0246035D02*
X0234670Y0244033D01*
X0234920Y0244283D02*
X0235170Y0244534D01*
X0235170Y0244784D01*
X0234920Y0244283D02*
X0234420Y0244283D01*
X0234169Y0244534D01*
X0232946Y0244283D02*
X0232696Y0244534D01*
X0232696Y0245785D01*
D18*
X0102746Y0088333D02*
X0088795Y0088333D01*
X0088539Y0088333D02*
X0088539Y0087310D01*
X0088539Y0088333D01*
X0088539Y0089357D01*
X0088539Y0088333D01*
X0088539Y0087822D01*
X0088539Y0088333D01*
X0088539Y0088845D01*
X0088539Y0088333D01*
X0088539Y0087076D01*
X0088539Y0089590D01*
X0088539Y0088333D01*
X0088539Y0087076D01*
X0088539Y0089590D01*
X0088539Y0088333D01*
X0088539Y0088333D01*
X0088539Y0088333D01*
X0088283Y0088333D02*
X0068067Y0088333D01*
D19*
X0292614Y0045833D03*
X0300514Y0048933D03*
X0301364Y0047283D03*
X0304014Y0048133D03*
X0304164Y0047433D03*
X0304164Y0047383D03*
X0304164Y0047333D03*
X0304164Y0047283D03*
X0304214Y0047233D03*
X0304214Y0047183D03*
X0304214Y0047133D03*
X0304214Y0047083D03*
X0304214Y0047033D03*
X0303714Y0049333D03*
X0314514Y0047133D03*
X0307514Y0060883D03*
X0302714Y0066833D03*
X0309714Y0068833D03*
D20*
X0305964Y0070183D03*
X0302914Y0066333D03*
X0312864Y0048933D03*
X0314464Y0047433D03*
X0292614Y0045883D03*
X0291914Y0047133D03*
X0291914Y0047183D03*
D21*
X0291789Y0046533D03*
X0291789Y0046483D03*
X0292639Y0045933D03*
X0312939Y0048683D03*
X0314389Y0047683D03*
X0309839Y0068583D03*
D22*
X0306164Y0070033D03*
X0312964Y0048533D03*
X0318964Y0047983D03*
X0318964Y0047933D03*
X0319014Y0048033D03*
X0319014Y0048083D03*
X0319064Y0048183D03*
X0319114Y0048283D03*
X0319164Y0048383D03*
X0292664Y0045983D03*
D23*
X0292689Y0046033D03*
X0307089Y0061383D03*
X0302339Y0070833D03*
D24*
X0306339Y0069883D03*
X0309989Y0068283D03*
X0293789Y0046533D03*
X0292689Y0046083D03*
D25*
X0292714Y0046133D03*
X0294164Y0047333D03*
X0306864Y0061483D03*
D26*
X0309614Y0060083D03*
X0309564Y0059983D03*
X0309314Y0059433D03*
X0309264Y0059333D03*
X0309214Y0059233D03*
X0308964Y0058683D03*
X0308914Y0058583D03*
X0308864Y0058483D03*
X0308614Y0057933D03*
X0308564Y0057833D03*
X0308514Y0057733D03*
X0308264Y0057183D03*
X0308214Y0057083D03*
X0308164Y0056983D03*
X0307914Y0056433D03*
X0307864Y0056333D03*
X0307814Y0056233D03*
X0307564Y0055683D03*
X0307514Y0055583D03*
X0307464Y0055483D03*
X0307214Y0054933D03*
X0307164Y0054833D03*
X0307114Y0054733D03*
X0306864Y0054183D03*
X0306814Y0054083D03*
X0306514Y0053433D03*
X0306464Y0053333D03*
X0306214Y0052783D03*
X0306164Y0052683D03*
X0306114Y0052583D03*
X0305864Y0052033D03*
X0305814Y0051933D03*
X0305764Y0051833D03*
X0305514Y0051283D03*
X0305464Y0051183D03*
X0305414Y0051083D03*
X0307914Y0049333D03*
X0310464Y0050833D03*
X0310514Y0050933D03*
X0310564Y0051033D03*
X0310614Y0051133D03*
X0310614Y0051183D03*
X0310664Y0051283D03*
X0310714Y0051383D03*
X0310764Y0051483D03*
X0310814Y0051583D03*
X0310864Y0051683D03*
X0310914Y0051783D03*
X0310964Y0051883D03*
X0310964Y0051933D03*
X0311014Y0052033D03*
X0311064Y0052133D03*
X0311114Y0052233D03*
X0311164Y0052333D03*
X0311214Y0052433D03*
X0311264Y0052533D03*
X0311314Y0052633D03*
X0311314Y0052683D03*
X0311364Y0052783D03*
X0311414Y0052883D03*
X0311464Y0052983D03*
X0311514Y0053083D03*
X0311564Y0053183D03*
X0311614Y0053283D03*
X0311664Y0053383D03*
X0311664Y0053433D03*
X0311714Y0053533D03*
X0311764Y0053633D03*
X0311814Y0053733D03*
X0311864Y0053833D03*
X0311914Y0053933D03*
X0311964Y0054033D03*
X0312014Y0054133D03*
X0312014Y0054183D03*
X0312064Y0054283D03*
X0312114Y0054383D03*
X0312164Y0054483D03*
X0312214Y0054583D03*
X0312264Y0054683D03*
X0312314Y0054783D03*
X0312314Y0054833D03*
X0312364Y0054883D03*
X0312364Y0054933D03*
X0312414Y0055033D03*
X0312464Y0055133D03*
X0312514Y0055233D03*
X0312564Y0055333D03*
X0312614Y0055433D03*
X0312664Y0055533D03*
X0312664Y0055583D03*
X0312714Y0055633D03*
X0312714Y0055683D03*
X0312764Y0055783D03*
X0312814Y0055883D03*
X0312864Y0055983D03*
X0312914Y0056083D03*
X0312964Y0056183D03*
X0313014Y0056283D03*
X0313014Y0056333D03*
X0313064Y0056383D03*
X0313064Y0056433D03*
X0313114Y0056533D03*
X0313164Y0056633D03*
X0313214Y0056733D03*
X0313264Y0056833D03*
X0313314Y0056933D03*
X0313364Y0057033D03*
X0313364Y0057083D03*
X0313414Y0057133D03*
X0313414Y0057183D03*
X0313464Y0057283D03*
X0313514Y0057383D03*
X0313564Y0057483D03*
X0313614Y0057583D03*
X0313664Y0057683D03*
X0313714Y0057783D03*
X0313714Y0057833D03*
X0313764Y0057883D03*
X0313764Y0057933D03*
X0313814Y0058033D03*
X0313864Y0058133D03*
X0313914Y0058233D03*
X0313964Y0058333D03*
X0314014Y0058433D03*
X0314064Y0058533D03*
X0314064Y0058583D03*
X0314114Y0058683D03*
X0314164Y0058783D03*
X0314214Y0058883D03*
X0314264Y0058983D03*
X0314314Y0059083D03*
X0314364Y0059183D03*
X0314414Y0059283D03*
X0314414Y0059333D03*
X0314464Y0059433D03*
X0314514Y0059533D03*
X0314564Y0059633D03*
X0314614Y0059733D03*
X0314664Y0059833D03*
X0314714Y0059933D03*
X0314764Y0060033D03*
X0314764Y0060083D03*
X0314814Y0060183D03*
X0314864Y0060283D03*
X0314914Y0060383D03*
X0314964Y0060483D03*
X0315014Y0060583D03*
X0315064Y0060683D03*
X0315114Y0060783D03*
X0315114Y0060833D03*
X0315164Y0060933D03*
X0315214Y0061033D03*
X0315264Y0061133D03*
X0315314Y0061233D03*
X0315364Y0061333D03*
X0315414Y0061433D03*
X0315414Y0061483D03*
X0315464Y0061533D03*
X0315464Y0061583D03*
X0315514Y0061683D03*
X0315564Y0061783D03*
X0315614Y0061883D03*
X0315664Y0061983D03*
X0315714Y0062083D03*
X0315764Y0062183D03*
X0315764Y0062233D03*
X0315814Y0062283D03*
X0315814Y0062333D03*
X0315864Y0062433D03*
X0315914Y0062533D03*
X0315964Y0062633D03*
X0316014Y0062733D03*
X0316064Y0062833D03*
X0316114Y0062933D03*
X0316114Y0062983D03*
X0316164Y0063033D03*
X0316164Y0063083D03*
X0316214Y0063183D03*
X0316264Y0063283D03*
X0316314Y0063383D03*
X0316364Y0063483D03*
X0316464Y0063733D03*
X0320064Y0062383D03*
X0320064Y0062333D03*
X0320014Y0062233D03*
X0319964Y0062133D03*
X0319914Y0062033D03*
X0319864Y0061933D03*
X0319814Y0061833D03*
X0319764Y0061733D03*
X0319714Y0061633D03*
X0319714Y0061583D03*
X0319664Y0061483D03*
X0319614Y0061383D03*
X0319564Y0061283D03*
X0319514Y0061183D03*
X0319464Y0061083D03*
X0319414Y0060983D03*
X0319364Y0060883D03*
X0319364Y0060833D03*
X0319314Y0060733D03*
X0319264Y0060633D03*
X0319214Y0060533D03*
X0319164Y0060433D03*
X0319114Y0060333D03*
X0319064Y0060233D03*
X0319064Y0060183D03*
X0319014Y0060133D03*
X0319014Y0060083D03*
X0318964Y0059983D03*
X0318914Y0059883D03*
X0318864Y0059783D03*
X0318814Y0059683D03*
X0318764Y0059583D03*
X0318714Y0059483D03*
X0318714Y0059433D03*
X0318664Y0059383D03*
X0318664Y0059333D03*
X0318614Y0059233D03*
X0318564Y0059133D03*
X0318514Y0059033D03*
X0318464Y0058933D03*
X0318414Y0058833D03*
X0318364Y0058733D03*
X0318364Y0058683D03*
X0318314Y0058633D03*
X0318314Y0058583D03*
X0318264Y0058483D03*
X0318214Y0058383D03*
X0318164Y0058283D03*
X0318114Y0058183D03*
X0318064Y0058083D03*
X0318014Y0057983D03*
X0318014Y0057933D03*
X0317964Y0057883D03*
X0317964Y0057833D03*
X0317914Y0057733D03*
X0317864Y0057633D03*
X0317814Y0057533D03*
X0317764Y0057433D03*
X0317714Y0057333D03*
X0317664Y0057233D03*
X0317664Y0057183D03*
X0317614Y0057133D03*
X0317614Y0057083D03*
X0317564Y0056983D03*
X0317514Y0056883D03*
X0317464Y0056783D03*
X0317414Y0056683D03*
X0317364Y0056583D03*
X0317314Y0056483D03*
X0317314Y0056433D03*
X0317264Y0056333D03*
X0317214Y0056233D03*
X0317164Y0056133D03*
X0317114Y0056033D03*
X0317064Y0055933D03*
X0317014Y0055833D03*
X0316964Y0055733D03*
X0316964Y0055683D03*
X0316914Y0055583D03*
X0316864Y0055483D03*
X0316814Y0055383D03*
X0316764Y0055283D03*
X0316714Y0055183D03*
X0316664Y0055083D03*
X0316614Y0054983D03*
X0316614Y0054933D03*
X0316564Y0054833D03*
X0316514Y0054733D03*
X0316464Y0054633D03*
X0316414Y0054533D03*
X0316364Y0054433D03*
X0316314Y0054333D03*
X0316264Y0054233D03*
X0316264Y0054183D03*
X0316214Y0054083D03*
X0316164Y0053983D03*
X0316114Y0053883D03*
X0316064Y0053783D03*
X0321214Y0053833D03*
X0321264Y0053933D03*
X0321314Y0053983D03*
X0321314Y0054033D03*
X0321364Y0054083D03*
X0321414Y0054183D03*
X0321464Y0054283D03*
X0321764Y0054933D03*
X0321814Y0055033D03*
X0322114Y0055683D03*
X0322164Y0055783D03*
X0322464Y0056433D03*
X0322514Y0056533D03*
X0322814Y0057183D03*
X0322864Y0057283D03*
X0323164Y0057933D03*
X0323214Y0058033D03*
X0323514Y0058683D03*
X0323564Y0058783D03*
X0323814Y0059333D03*
X0323864Y0059433D03*
X0323914Y0059533D03*
X0324164Y0060083D03*
X0324214Y0060183D03*
X0324514Y0060833D03*
X0324564Y0060933D03*
X0324864Y0061583D03*
X0324914Y0061683D03*
X0325214Y0062333D03*
X0325264Y0062433D03*
X0325564Y0063083D03*
X0325614Y0063183D03*
X0325914Y0063833D03*
X0325964Y0063933D03*
X0326264Y0064583D03*
X0326314Y0064683D03*
X0326564Y0065233D03*
X0326614Y0065333D03*
X0326664Y0065433D03*
X0326914Y0065983D03*
X0326964Y0066083D03*
X0327014Y0066183D03*
X0321964Y0066433D03*
X0321914Y0066333D03*
X0321864Y0066233D03*
X0321814Y0066133D03*
X0321814Y0066083D03*
X0321764Y0065983D03*
X0321714Y0065883D03*
X0321664Y0065783D03*
X0321614Y0065683D03*
X0321564Y0065583D03*
X0321514Y0065483D03*
X0321464Y0065383D03*
X0321464Y0065333D03*
X0321414Y0065233D03*
X0321364Y0065133D03*
X0321314Y0065033D03*
X0321264Y0064933D03*
X0321214Y0064833D03*
X0321164Y0064733D03*
X0321114Y0064633D03*
X0321114Y0064583D03*
X0321064Y0064483D03*
X0321014Y0064383D03*
X0320964Y0064283D03*
X0320914Y0064183D03*
X0320864Y0064083D03*
X0320814Y0063983D03*
X0320764Y0063883D03*
X0320764Y0063833D03*
X0320714Y0063733D03*
X0320664Y0063633D03*
X0320614Y0063533D03*
X0320564Y0063433D03*
X0320514Y0063333D03*
X0320464Y0063233D03*
X0320414Y0063133D03*
X0320414Y0063083D03*
X0320364Y0062983D03*
X0320314Y0062883D03*
X0320264Y0062783D03*
X0320214Y0062683D03*
X0320164Y0062583D03*
X0320114Y0062483D03*
X0311214Y0063433D03*
X0311164Y0063383D03*
X0311114Y0063283D03*
X0311064Y0063183D03*
X0311014Y0063083D03*
X0310964Y0062983D03*
X0310914Y0062883D03*
X0310664Y0062333D03*
X0310614Y0062233D03*
X0310564Y0062133D03*
X0310314Y0061583D03*
X0310264Y0061483D03*
X0309964Y0060833D03*
X0309914Y0060733D03*
X0310064Y0068133D03*
X0303064Y0047883D03*
X0299364Y0049383D03*
X0294114Y0047483D03*
X0292764Y0046183D03*
D27*
X0292789Y0046233D03*
X0302989Y0047683D03*
X0307839Y0049183D03*
X0317539Y0050933D03*
X0317689Y0047033D03*
X0320989Y0053583D03*
X0311489Y0063783D03*
X0310089Y0068033D03*
X0294989Y0070083D03*
D28*
X0298814Y0070733D03*
X0298814Y0070783D03*
X0306614Y0069633D03*
X0310114Y0067983D03*
X0311614Y0063883D03*
X0307764Y0049033D03*
X0307764Y0048983D03*
X0307714Y0048933D03*
X0307014Y0047433D03*
X0307014Y0047383D03*
X0306964Y0047283D03*
X0302914Y0047583D03*
X0299364Y0048983D03*
X0299014Y0048233D03*
X0292814Y0046283D03*
X0317714Y0047083D03*
D29*
X0317839Y0047333D03*
X0317889Y0047433D03*
X0318589Y0048933D03*
X0318589Y0048983D03*
X0318639Y0049033D03*
X0317539Y0050983D03*
X0320639Y0053333D03*
X0302789Y0070233D03*
X0302789Y0070283D03*
X0298839Y0070333D03*
X0294839Y0069983D03*
X0292839Y0046333D03*
D30*
X0292839Y0046383D03*
X0294789Y0069933D03*
X0298889Y0069933D03*
X0298889Y0069983D03*
X0302739Y0069933D03*
X0302739Y0069883D03*
X0306639Y0069383D03*
X0306639Y0069333D03*
X0320539Y0053283D03*
D31*
X0299614Y0060833D03*
X0294714Y0069883D03*
X0292914Y0046433D03*
D32*
X0293764Y0046483D03*
D33*
X0291814Y0046583D03*
X0291814Y0046633D03*
X0307314Y0061233D03*
X0295564Y0070433D03*
X0312914Y0048733D03*
D34*
X0314964Y0066483D03*
X0295214Y0070233D03*
X0293864Y0046583D03*
D35*
X0293889Y0046633D03*
X0293939Y0046683D03*
X0294039Y0046933D03*
X0294089Y0047033D03*
X0294139Y0047133D03*
X0306839Y0046983D03*
X0302489Y0070783D03*
D36*
X0314989Y0066533D03*
X0314389Y0047633D03*
X0291839Y0046733D03*
X0291839Y0046683D03*
D37*
X0293964Y0046733D03*
X0293964Y0046783D03*
X0294014Y0046833D03*
X0294014Y0046883D03*
X0294064Y0046983D03*
X0294114Y0047083D03*
X0294164Y0047183D03*
X0294164Y0047233D03*
X0294164Y0047283D03*
X0307914Y0049383D03*
X0310014Y0068233D03*
D38*
X0303039Y0066033D03*
X0303039Y0065983D03*
X0303539Y0048933D03*
X0312889Y0048833D03*
X0291839Y0046833D03*
X0291839Y0046783D03*
D39*
X0291864Y0046883D03*
X0291864Y0046933D03*
X0291864Y0046983D03*
X0303564Y0048983D03*
X0314414Y0047533D03*
X0303014Y0066083D03*
X0303014Y0066133D03*
X0302964Y0066183D03*
D40*
X0302664Y0066933D03*
X0307514Y0060833D03*
X0306464Y0048883D03*
X0306164Y0048233D03*
X0306114Y0048133D03*
X0305814Y0047483D03*
X0303964Y0048383D03*
X0303914Y0048633D03*
X0303914Y0048683D03*
X0303114Y0048833D03*
X0302964Y0048733D03*
X0302914Y0048683D03*
X0302864Y0048633D03*
X0302814Y0048583D03*
X0302764Y0048533D03*
X0302714Y0048483D03*
X0302664Y0048433D03*
X0302614Y0048383D03*
X0302364Y0048183D03*
X0302314Y0048133D03*
X0302264Y0048083D03*
X0302214Y0048033D03*
X0300564Y0048833D03*
X0300514Y0048783D03*
X0300514Y0048733D03*
X0300464Y0048683D03*
X0300464Y0048633D03*
X0300414Y0048583D03*
X0300414Y0048533D03*
X0300364Y0048483D03*
X0298114Y0048933D03*
X0298064Y0048833D03*
X0298014Y0048733D03*
X0297964Y0048633D03*
X0297464Y0047533D03*
X0297414Y0047433D03*
X0297364Y0047333D03*
X0297314Y0047233D03*
X0297264Y0047133D03*
X0297214Y0046983D03*
X0308314Y0047533D03*
X0308364Y0047633D03*
X0310064Y0047483D03*
X0310114Y0047583D03*
X0310164Y0047683D03*
X0310414Y0048233D03*
X0310464Y0048333D03*
X0310514Y0048433D03*
X0310764Y0048983D03*
X0310814Y0049083D03*
X0310864Y0049183D03*
X0312364Y0048433D03*
X0312364Y0048383D03*
X0312314Y0048333D03*
X0312314Y0048283D03*
X0312264Y0048183D03*
X0312214Y0048083D03*
X0312164Y0047983D03*
X0312114Y0047883D03*
X0312064Y0047783D03*
X0312014Y0047683D03*
X0312014Y0047633D03*
X0311964Y0047583D03*
X0311964Y0047533D03*
X0311914Y0047433D03*
X0311864Y0047333D03*
X0311814Y0047233D03*
X0311764Y0047133D03*
X0311714Y0047033D03*
X0312764Y0049283D03*
X0315114Y0048333D03*
X0315164Y0048433D03*
X0315214Y0048533D03*
X0315264Y0048633D03*
X0315314Y0048733D03*
X0315364Y0048833D03*
X0315414Y0048933D03*
X0315464Y0049083D03*
X0315514Y0049183D03*
X0315564Y0049283D03*
X0315614Y0049383D03*
X0315064Y0048183D03*
X0315014Y0048083D03*
X0314964Y0047983D03*
X0314914Y0047883D03*
X0314514Y0047083D03*
X0316564Y0047533D03*
X0316814Y0048083D03*
X0317164Y0048833D03*
X0319414Y0047733D03*
X0319364Y0047633D03*
X0319314Y0047533D03*
X0319464Y0047833D03*
X0319914Y0048833D03*
D41*
X0314489Y0047333D03*
X0312839Y0049033D03*
X0303639Y0049133D03*
X0299789Y0046983D03*
X0299739Y0047033D03*
X0299689Y0047083D03*
X0307439Y0061033D03*
X0302839Y0066533D03*
D42*
X0302689Y0066883D03*
X0305789Y0070283D03*
X0303739Y0049383D03*
X0303889Y0048833D03*
X0303889Y0048783D03*
X0303889Y0048733D03*
X0303939Y0048583D03*
X0303939Y0048533D03*
X0303939Y0048483D03*
X0303939Y0048433D03*
X0303989Y0048333D03*
X0303989Y0048283D03*
X0303989Y0048233D03*
X0303989Y0048183D03*
X0304039Y0048083D03*
X0304039Y0048033D03*
X0304039Y0047983D03*
X0302539Y0048333D03*
X0302489Y0048283D03*
X0302439Y0048233D03*
X0302139Y0047983D03*
X0301539Y0047433D03*
X0301489Y0047383D03*
X0301439Y0047333D03*
X0301289Y0047233D03*
X0301239Y0047183D03*
X0301189Y0047133D03*
X0301139Y0047083D03*
X0301089Y0047033D03*
X0301039Y0046983D03*
X0300289Y0048383D03*
X0300339Y0048433D03*
X0300539Y0048883D03*
X0298089Y0048883D03*
X0298039Y0048783D03*
X0297989Y0048683D03*
X0297939Y0048583D03*
X0297939Y0048533D03*
X0297889Y0048483D03*
X0297889Y0048433D03*
X0297839Y0048383D03*
X0297839Y0048333D03*
X0297589Y0047833D03*
X0297589Y0047783D03*
X0297539Y0047733D03*
X0297539Y0047683D03*
X0297489Y0047633D03*
X0297489Y0047583D03*
X0297439Y0047483D03*
X0297389Y0047383D03*
X0297339Y0047283D03*
X0297289Y0047183D03*
X0297239Y0047083D03*
X0297239Y0047033D03*
X0305839Y0047533D03*
X0305839Y0047583D03*
X0305889Y0047633D03*
X0305889Y0047683D03*
X0305939Y0047733D03*
X0305939Y0047783D03*
X0305989Y0047833D03*
X0305989Y0047883D03*
X0306039Y0047933D03*
X0306039Y0047983D03*
X0306089Y0048033D03*
X0306089Y0048083D03*
X0306139Y0048183D03*
X0306189Y0048283D03*
X0306189Y0048333D03*
X0306239Y0048383D03*
X0306239Y0048433D03*
X0306289Y0048483D03*
X0306289Y0048533D03*
X0306339Y0048583D03*
X0306339Y0048633D03*
X0306389Y0048683D03*
X0306389Y0048733D03*
X0306439Y0048783D03*
X0306439Y0048833D03*
X0308439Y0047833D03*
X0308439Y0047783D03*
X0308389Y0047733D03*
X0308389Y0047683D03*
X0308339Y0047583D03*
X0308289Y0047483D03*
X0308789Y0048583D03*
X0308839Y0048633D03*
X0308839Y0048683D03*
X0308889Y0048733D03*
X0308889Y0048783D03*
X0308939Y0048833D03*
X0308939Y0048883D03*
X0310389Y0048183D03*
X0310389Y0048133D03*
X0310339Y0048083D03*
X0310339Y0048033D03*
X0310289Y0047983D03*
X0310289Y0047933D03*
X0310239Y0047883D03*
X0310239Y0047833D03*
X0310189Y0047783D03*
X0310189Y0047733D03*
X0310139Y0047633D03*
X0310089Y0047533D03*
X0310039Y0047433D03*
X0310039Y0047383D03*
X0309989Y0047333D03*
X0309989Y0047283D03*
X0309939Y0047233D03*
X0309939Y0047183D03*
X0309889Y0047133D03*
X0309889Y0047083D03*
X0309839Y0047033D03*
X0309839Y0046983D03*
X0310439Y0048283D03*
X0310489Y0048383D03*
X0310539Y0048483D03*
X0310539Y0048533D03*
X0310589Y0048583D03*
X0310589Y0048633D03*
X0310639Y0048683D03*
X0310639Y0048733D03*
X0310689Y0048783D03*
X0310689Y0048833D03*
X0310739Y0048883D03*
X0310739Y0048933D03*
X0310789Y0049033D03*
X0310839Y0049133D03*
X0310889Y0049233D03*
X0310889Y0049283D03*
X0310939Y0049333D03*
X0310939Y0049383D03*
X0312789Y0049233D03*
X0316589Y0047633D03*
X0316589Y0047583D03*
X0316539Y0047483D03*
X0316639Y0047683D03*
X0316639Y0047733D03*
X0316689Y0047783D03*
X0316689Y0047833D03*
X0316739Y0047883D03*
X0316739Y0047933D03*
X0316789Y0047983D03*
X0316789Y0048033D03*
X0316839Y0048133D03*
X0316839Y0048183D03*
X0316889Y0048233D03*
X0316889Y0048283D03*
X0316939Y0048333D03*
X0316939Y0048383D03*
X0316989Y0048433D03*
X0316989Y0048483D03*
X0317039Y0048533D03*
X0317039Y0048583D03*
X0317089Y0048633D03*
X0317089Y0048683D03*
X0317139Y0048733D03*
X0317139Y0048783D03*
X0317189Y0048883D03*
X0319439Y0047783D03*
X0319389Y0047683D03*
X0319339Y0047583D03*
X0319289Y0047483D03*
X0319489Y0047883D03*
X0319889Y0048783D03*
X0319939Y0048883D03*
D43*
X0314489Y0047183D03*
X0312789Y0049183D03*
X0304239Y0046983D03*
X0307489Y0060933D03*
X0302739Y0066783D03*
D44*
X0302639Y0066983D03*
X0307539Y0060783D03*
X0309689Y0068883D03*
X0295889Y0070583D03*
X0303039Y0048783D03*
X0311689Y0046983D03*
X0311739Y0047083D03*
X0311789Y0047183D03*
X0311839Y0047283D03*
X0311889Y0047383D03*
X0311939Y0047483D03*
X0312039Y0047733D03*
X0312089Y0047833D03*
X0312139Y0047933D03*
X0312189Y0048033D03*
X0312239Y0048133D03*
X0312289Y0048233D03*
X0312389Y0048483D03*
X0314539Y0047033D03*
X0314939Y0047933D03*
X0314989Y0048033D03*
X0315039Y0048133D03*
X0315089Y0048233D03*
X0315089Y0048283D03*
X0315139Y0048383D03*
X0315189Y0048483D03*
X0315239Y0048583D03*
X0315289Y0048683D03*
X0315339Y0048783D03*
X0315389Y0048883D03*
X0315439Y0048983D03*
X0315439Y0049033D03*
X0315489Y0049133D03*
X0315539Y0049233D03*
X0315589Y0049333D03*
D45*
X0314539Y0046983D03*
X0312739Y0049383D03*
X0308389Y0047883D03*
X0307539Y0060733D03*
X0302589Y0067083D03*
D46*
X0302639Y0070733D03*
X0298989Y0070883D03*
X0311139Y0063333D03*
X0311089Y0063233D03*
X0311039Y0063133D03*
X0310989Y0063033D03*
X0310939Y0062933D03*
X0310889Y0062833D03*
X0310889Y0062783D03*
X0310839Y0062733D03*
X0310839Y0062683D03*
X0310789Y0062633D03*
X0310789Y0062583D03*
X0310739Y0062533D03*
X0310739Y0062483D03*
X0310689Y0062433D03*
X0310689Y0062383D03*
X0310639Y0062283D03*
X0310589Y0062183D03*
X0310539Y0062083D03*
X0310539Y0062033D03*
X0310489Y0061983D03*
X0310489Y0061933D03*
X0310439Y0061883D03*
X0310439Y0061833D03*
X0310389Y0061783D03*
X0310389Y0061733D03*
X0310339Y0061683D03*
X0310339Y0061633D03*
X0310289Y0061533D03*
X0310239Y0061433D03*
X0310239Y0061383D03*
X0310189Y0061333D03*
X0310189Y0061283D03*
X0310139Y0061233D03*
X0310139Y0061183D03*
X0310089Y0061133D03*
X0310089Y0061083D03*
X0310039Y0061033D03*
X0310039Y0060983D03*
X0309989Y0060933D03*
X0309989Y0060883D03*
X0309939Y0060783D03*
X0309889Y0060683D03*
X0309889Y0060633D03*
X0309839Y0060583D03*
X0309839Y0060533D03*
X0309789Y0060483D03*
X0309789Y0060433D03*
X0309739Y0060383D03*
X0309739Y0060333D03*
X0309689Y0060283D03*
X0309689Y0060233D03*
X0309639Y0060183D03*
X0309639Y0060133D03*
X0309589Y0060033D03*
X0309539Y0059933D03*
X0309539Y0059883D03*
X0309489Y0059833D03*
X0309489Y0059783D03*
X0309439Y0059733D03*
X0309439Y0059683D03*
X0309389Y0059633D03*
X0309389Y0059583D03*
X0309339Y0059533D03*
X0309339Y0059483D03*
X0309289Y0059383D03*
X0309239Y0059283D03*
X0309189Y0059183D03*
X0309189Y0059133D03*
X0309139Y0059083D03*
X0309139Y0059033D03*
X0309089Y0058983D03*
X0309089Y0058933D03*
X0309039Y0058883D03*
X0309039Y0058833D03*
X0308989Y0058783D03*
X0308989Y0058733D03*
X0308939Y0058633D03*
X0308889Y0058533D03*
X0308839Y0058433D03*
X0308839Y0058383D03*
X0308789Y0058333D03*
X0308789Y0058283D03*
X0308739Y0058233D03*
X0308739Y0058183D03*
X0308689Y0058133D03*
X0308689Y0058083D03*
X0308639Y0058033D03*
X0308639Y0057983D03*
X0308589Y0057883D03*
X0308539Y0057783D03*
X0308489Y0057683D03*
X0308489Y0057633D03*
X0308439Y0057583D03*
X0308439Y0057533D03*
X0308389Y0057483D03*
X0308389Y0057433D03*
X0308339Y0057383D03*
X0308339Y0057333D03*
X0308289Y0057283D03*
X0308289Y0057233D03*
X0308239Y0057133D03*
X0308189Y0057033D03*
X0308139Y0056933D03*
X0308139Y0056883D03*
X0308089Y0056833D03*
X0308089Y0056783D03*
X0308039Y0056733D03*
X0308039Y0056683D03*
X0307989Y0056633D03*
X0307989Y0056583D03*
X0307939Y0056533D03*
X0307939Y0056483D03*
X0307889Y0056383D03*
X0307839Y0056283D03*
X0307789Y0056183D03*
X0307789Y0056133D03*
X0307739Y0056083D03*
X0307739Y0056033D03*
X0307689Y0055983D03*
X0307689Y0055933D03*
X0307639Y0055883D03*
X0307639Y0055833D03*
X0307589Y0055783D03*
X0307589Y0055733D03*
X0307539Y0055633D03*
X0307489Y0055533D03*
X0307439Y0055433D03*
X0307439Y0055383D03*
X0307389Y0055333D03*
X0307389Y0055283D03*
X0307339Y0055233D03*
X0307339Y0055183D03*
X0307289Y0055133D03*
X0307289Y0055083D03*
X0307239Y0055033D03*
X0307239Y0054983D03*
X0307189Y0054883D03*
X0307139Y0054783D03*
X0307089Y0054683D03*
X0307089Y0054633D03*
X0307039Y0054583D03*
X0307039Y0054533D03*
X0306989Y0054483D03*
X0306989Y0054433D03*
X0306939Y0054383D03*
X0306939Y0054333D03*
X0306889Y0054283D03*
X0306889Y0054233D03*
X0306839Y0054133D03*
X0306789Y0054033D03*
X0306789Y0053983D03*
X0306739Y0053933D03*
X0306739Y0053883D03*
X0306689Y0053833D03*
X0306689Y0053783D03*
X0306639Y0053733D03*
X0306639Y0053683D03*
X0306589Y0053633D03*
X0306589Y0053583D03*
X0306539Y0053533D03*
X0306539Y0053483D03*
X0306489Y0053383D03*
X0306439Y0053283D03*
X0306439Y0053233D03*
X0306389Y0053183D03*
X0306389Y0053133D03*
X0306339Y0053083D03*
X0306339Y0053033D03*
X0306289Y0052983D03*
X0306289Y0052933D03*
X0306239Y0052883D03*
X0306239Y0052833D03*
X0306189Y0052733D03*
X0306139Y0052633D03*
X0306089Y0052533D03*
X0306089Y0052483D03*
X0306039Y0052433D03*
X0306039Y0052383D03*
X0305989Y0052333D03*
X0305989Y0052283D03*
X0305939Y0052233D03*
X0305939Y0052183D03*
X0305889Y0052133D03*
X0305889Y0052083D03*
X0305839Y0051983D03*
X0305789Y0051883D03*
X0305739Y0051783D03*
X0305739Y0051733D03*
X0305689Y0051683D03*
X0305689Y0051633D03*
X0305639Y0051583D03*
X0305639Y0051533D03*
X0305589Y0051483D03*
X0305589Y0051433D03*
X0305539Y0051383D03*
X0305539Y0051333D03*
X0305489Y0051233D03*
X0305439Y0051133D03*
X0305389Y0051033D03*
X0305389Y0050983D03*
X0305339Y0050933D03*
X0305339Y0050883D03*
X0305289Y0050833D03*
X0306839Y0047033D03*
X0310489Y0050883D03*
X0310539Y0050983D03*
X0310589Y0051083D03*
X0310639Y0051233D03*
X0310689Y0051333D03*
X0310739Y0051433D03*
X0310789Y0051533D03*
X0310839Y0051633D03*
X0310889Y0051733D03*
X0310939Y0051833D03*
X0310989Y0051983D03*
X0311039Y0052083D03*
X0311089Y0052183D03*
X0311139Y0052283D03*
X0311189Y0052383D03*
X0311239Y0052483D03*
X0311289Y0052583D03*
X0311339Y0052733D03*
X0311389Y0052833D03*
X0311439Y0052933D03*
X0311489Y0053033D03*
X0311539Y0053133D03*
X0311589Y0053233D03*
X0311639Y0053333D03*
X0311689Y0053483D03*
X0311739Y0053583D03*
X0311789Y0053683D03*
X0311839Y0053783D03*
X0311889Y0053883D03*
X0311939Y0053983D03*
X0311989Y0054083D03*
X0312039Y0054233D03*
X0312089Y0054333D03*
X0312139Y0054433D03*
X0312189Y0054533D03*
X0312239Y0054633D03*
X0312289Y0054733D03*
X0312389Y0054983D03*
X0312439Y0055083D03*
X0312489Y0055183D03*
X0312539Y0055283D03*
X0312589Y0055383D03*
X0312639Y0055483D03*
X0312739Y0055733D03*
X0312789Y0055833D03*
X0312839Y0055933D03*
X0312889Y0056033D03*
X0312939Y0056133D03*
X0312989Y0056233D03*
X0313089Y0056483D03*
X0313139Y0056583D03*
X0313189Y0056683D03*
X0313239Y0056783D03*
X0313289Y0056883D03*
X0313339Y0056983D03*
X0313439Y0057233D03*
X0313489Y0057333D03*
X0313539Y0057433D03*
X0313589Y0057533D03*
X0313639Y0057633D03*
X0313689Y0057733D03*
X0313789Y0057983D03*
X0313839Y0058083D03*
X0313889Y0058183D03*
X0313939Y0058283D03*
X0313989Y0058383D03*
X0314039Y0058483D03*
X0314089Y0058633D03*
X0314139Y0058733D03*
X0314189Y0058833D03*
X0314239Y0058933D03*
X0314289Y0059033D03*
X0314339Y0059133D03*
X0314389Y0059233D03*
X0314439Y0059383D03*
X0314489Y0059483D03*
X0314539Y0059583D03*
X0314589Y0059683D03*
X0314639Y0059783D03*
X0314689Y0059883D03*
X0314739Y0059983D03*
X0314789Y0060133D03*
X0314839Y0060233D03*
X0314889Y0060333D03*
X0314939Y0060433D03*
X0314989Y0060533D03*
X0315039Y0060633D03*
X0315089Y0060733D03*
X0315139Y0060883D03*
X0315189Y0060983D03*
X0315239Y0061083D03*
X0315289Y0061183D03*
X0315339Y0061283D03*
X0315389Y0061383D03*
X0315489Y0061633D03*
X0315539Y0061733D03*
X0315589Y0061833D03*
X0315639Y0061933D03*
X0315689Y0062033D03*
X0315739Y0062133D03*
X0315839Y0062383D03*
X0315889Y0062483D03*
X0315939Y0062583D03*
X0315989Y0062683D03*
X0316039Y0062783D03*
X0316089Y0062883D03*
X0316189Y0063133D03*
X0316239Y0063233D03*
X0316289Y0063333D03*
X0316339Y0063433D03*
X0316389Y0063533D03*
X0316389Y0063583D03*
X0316439Y0063633D03*
X0316439Y0063683D03*
X0316489Y0063783D03*
X0316489Y0063833D03*
X0316539Y0063883D03*
X0316539Y0063933D03*
X0320089Y0062433D03*
X0320139Y0062533D03*
X0320189Y0062633D03*
X0320239Y0062733D03*
X0320289Y0062833D03*
X0320339Y0062933D03*
X0320389Y0063033D03*
X0320439Y0063183D03*
X0320489Y0063283D03*
X0320539Y0063383D03*
X0320589Y0063483D03*
X0320639Y0063583D03*
X0320689Y0063683D03*
X0320739Y0063783D03*
X0320789Y0063933D03*
X0320839Y0064033D03*
X0320889Y0064133D03*
X0320939Y0064233D03*
X0320989Y0064333D03*
X0321039Y0064433D03*
X0321089Y0064533D03*
X0321139Y0064683D03*
X0321189Y0064783D03*
X0321239Y0064883D03*
X0321289Y0064983D03*
X0321339Y0065083D03*
X0321389Y0065183D03*
X0321439Y0065283D03*
X0321489Y0065433D03*
X0321539Y0065533D03*
X0321589Y0065633D03*
X0321639Y0065733D03*
X0321689Y0065833D03*
X0321739Y0065933D03*
X0321789Y0066033D03*
X0321839Y0066183D03*
X0321889Y0066283D03*
X0321939Y0066383D03*
X0321989Y0066483D03*
X0321989Y0066533D03*
X0320039Y0062283D03*
X0319989Y0062183D03*
X0319939Y0062083D03*
X0319889Y0061983D03*
X0319839Y0061883D03*
X0319789Y0061783D03*
X0319739Y0061683D03*
X0319689Y0061533D03*
X0319639Y0061433D03*
X0319589Y0061333D03*
X0319539Y0061233D03*
X0319489Y0061133D03*
X0319439Y0061033D03*
X0319389Y0060933D03*
X0319339Y0060783D03*
X0319289Y0060683D03*
X0319239Y0060583D03*
X0319189Y0060483D03*
X0319139Y0060383D03*
X0319089Y0060283D03*
X0318989Y0060033D03*
X0318939Y0059933D03*
X0318889Y0059833D03*
X0318839Y0059733D03*
X0318789Y0059633D03*
X0318739Y0059533D03*
X0318639Y0059283D03*
X0318589Y0059183D03*
X0318539Y0059083D03*
X0318489Y0058983D03*
X0318439Y0058883D03*
X0318389Y0058783D03*
X0318289Y0058533D03*
X0318239Y0058433D03*
X0318189Y0058333D03*
X0318139Y0058233D03*
X0318089Y0058133D03*
X0318039Y0058033D03*
X0317939Y0057783D03*
X0317889Y0057683D03*
X0317839Y0057583D03*
X0317789Y0057483D03*
X0317739Y0057383D03*
X0317689Y0057283D03*
X0317589Y0057033D03*
X0317539Y0056933D03*
X0317489Y0056833D03*
X0317439Y0056733D03*
X0317389Y0056633D03*
X0317339Y0056533D03*
X0317289Y0056383D03*
X0317239Y0056283D03*
X0317189Y0056183D03*
X0317139Y0056083D03*
X0317089Y0055983D03*
X0317039Y0055883D03*
X0316989Y0055783D03*
X0316939Y0055633D03*
X0316889Y0055533D03*
X0316839Y0055433D03*
X0316789Y0055333D03*
X0316739Y0055233D03*
X0316689Y0055133D03*
X0316639Y0055033D03*
X0316589Y0054883D03*
X0316539Y0054783D03*
X0316489Y0054683D03*
X0316439Y0054583D03*
X0316389Y0054483D03*
X0316339Y0054383D03*
X0316289Y0054283D03*
X0316239Y0054133D03*
X0316189Y0054033D03*
X0316139Y0053933D03*
X0316089Y0053833D03*
X0316039Y0053733D03*
X0316039Y0053683D03*
X0315989Y0053633D03*
X0315989Y0053583D03*
X0315989Y0053533D03*
X0315939Y0053483D03*
X0315939Y0053433D03*
X0315889Y0053333D03*
X0318789Y0049383D03*
X0317689Y0046983D03*
X0321389Y0054133D03*
X0321439Y0054233D03*
X0321489Y0054333D03*
X0321489Y0054383D03*
X0321539Y0054433D03*
X0321539Y0054483D03*
X0321589Y0054533D03*
X0321589Y0054583D03*
X0321639Y0054633D03*
X0321639Y0054683D03*
X0321689Y0054733D03*
X0321689Y0054783D03*
X0321739Y0054833D03*
X0321739Y0054883D03*
X0321789Y0054983D03*
X0321839Y0055083D03*
X0321839Y0055133D03*
X0321889Y0055183D03*
X0321889Y0055233D03*
X0321939Y0055283D03*
X0321939Y0055333D03*
X0321989Y0055383D03*
X0321989Y0055433D03*
X0322039Y0055483D03*
X0322039Y0055533D03*
X0322089Y0055583D03*
X0322089Y0055633D03*
X0322139Y0055733D03*
X0322189Y0055833D03*
X0322189Y0055883D03*
X0322239Y0055933D03*
X0322239Y0055983D03*
X0322289Y0056033D03*
X0322289Y0056083D03*
X0322339Y0056133D03*
X0322339Y0056183D03*
X0322389Y0056233D03*
X0322389Y0056283D03*
X0322439Y0056333D03*
X0322439Y0056383D03*
X0322489Y0056483D03*
X0322539Y0056583D03*
X0322539Y0056633D03*
X0322589Y0056683D03*
X0322589Y0056733D03*
X0322639Y0056783D03*
X0322639Y0056833D03*
X0322689Y0056883D03*
X0322689Y0056933D03*
X0322739Y0056983D03*
X0322739Y0057033D03*
X0322789Y0057083D03*
X0322789Y0057133D03*
X0322839Y0057233D03*
X0322889Y0057333D03*
X0322889Y0057383D03*
X0322939Y0057433D03*
X0322939Y0057483D03*
X0322989Y0057533D03*
X0322989Y0057583D03*
X0323039Y0057633D03*
X0323039Y0057683D03*
X0323089Y0057733D03*
X0323089Y0057783D03*
X0323139Y0057833D03*
X0323139Y0057883D03*
X0323189Y0057983D03*
X0323239Y0058083D03*
X0323239Y0058133D03*
X0323289Y0058183D03*
X0323289Y0058233D03*
X0323339Y0058283D03*
X0323339Y0058333D03*
X0323389Y0058383D03*
X0323389Y0058433D03*
X0323439Y0058483D03*
X0323439Y0058533D03*
X0323489Y0058583D03*
X0323489Y0058633D03*
X0323539Y0058733D03*
X0323589Y0058833D03*
X0323589Y0058883D03*
X0323639Y0058933D03*
X0323639Y0058983D03*
X0323689Y0059033D03*
X0323689Y0059083D03*
X0323739Y0059133D03*
X0323739Y0059183D03*
X0323789Y0059233D03*
X0323789Y0059283D03*
X0323839Y0059383D03*
X0323889Y0059483D03*
X0323939Y0059583D03*
X0323939Y0059633D03*
X0323989Y0059683D03*
X0323989Y0059733D03*
X0324039Y0059783D03*
X0324039Y0059833D03*
X0324089Y0059883D03*
X0324089Y0059933D03*
X0324139Y0059983D03*
X0324139Y0060033D03*
X0324189Y0060133D03*
X0324239Y0060233D03*
X0324239Y0060283D03*
X0324289Y0060333D03*
X0324289Y0060383D03*
X0324339Y0060433D03*
X0324339Y0060483D03*
X0324389Y0060533D03*
X0324389Y0060583D03*
X0324439Y0060633D03*
X0324439Y0060683D03*
X0324489Y0060733D03*
X0324489Y0060783D03*
X0324539Y0060883D03*
X0324589Y0060983D03*
X0324589Y0061033D03*
X0324639Y0061083D03*
X0324639Y0061133D03*
X0324689Y0061183D03*
X0324689Y0061233D03*
X0324739Y0061283D03*
X0324739Y0061333D03*
X0324789Y0061383D03*
X0324789Y0061433D03*
X0324839Y0061483D03*
X0324839Y0061533D03*
X0324889Y0061633D03*
X0324939Y0061733D03*
X0324939Y0061783D03*
X0324989Y0061833D03*
X0324989Y0061883D03*
X0325039Y0061933D03*
X0325039Y0061983D03*
X0325089Y0062033D03*
X0325089Y0062083D03*
X0325139Y0062133D03*
X0325139Y0062183D03*
X0325189Y0062233D03*
X0325189Y0062283D03*
X0325239Y0062383D03*
X0325289Y0062483D03*
X0325289Y0062533D03*
X0325339Y0062583D03*
X0325339Y0062633D03*
X0325389Y0062683D03*
X0325389Y0062733D03*
X0325439Y0062783D03*
X0325439Y0062833D03*
X0325489Y0062883D03*
X0325489Y0062933D03*
X0325539Y0062983D03*
X0325539Y0063033D03*
X0325589Y0063133D03*
X0325639Y0063233D03*
X0325639Y0063283D03*
X0325689Y0063333D03*
X0325689Y0063383D03*
X0325739Y0063433D03*
X0325739Y0063483D03*
X0325789Y0063533D03*
X0325789Y0063583D03*
X0325839Y0063633D03*
X0325839Y0063683D03*
X0325889Y0063733D03*
X0325889Y0063783D03*
X0325939Y0063883D03*
X0325989Y0063983D03*
X0325989Y0064033D03*
X0326039Y0064083D03*
X0326039Y0064133D03*
X0326089Y0064183D03*
X0326089Y0064233D03*
X0326139Y0064283D03*
X0326139Y0064333D03*
X0326189Y0064383D03*
X0326189Y0064433D03*
X0326239Y0064483D03*
X0326239Y0064533D03*
X0326289Y0064633D03*
X0326339Y0064733D03*
X0326339Y0064783D03*
X0326389Y0064833D03*
X0326389Y0064883D03*
X0326439Y0064933D03*
X0326439Y0064983D03*
X0326489Y0065033D03*
X0326489Y0065083D03*
X0326539Y0065133D03*
X0326539Y0065183D03*
X0326589Y0065283D03*
X0326639Y0065383D03*
X0326689Y0065483D03*
X0326689Y0065533D03*
X0326739Y0065583D03*
X0326739Y0065633D03*
X0326789Y0065683D03*
X0326789Y0065733D03*
X0326839Y0065783D03*
X0326839Y0065833D03*
X0326889Y0065883D03*
X0326889Y0065933D03*
X0326939Y0066033D03*
X0326989Y0066133D03*
X0327039Y0066233D03*
X0327039Y0066283D03*
X0327089Y0066333D03*
X0327089Y0066383D03*
X0327139Y0066433D03*
X0327139Y0066483D03*
D47*
X0309789Y0068683D03*
X0302939Y0066283D03*
X0302939Y0066233D03*
X0307389Y0061133D03*
X0295689Y0070483D03*
X0303589Y0049033D03*
X0312889Y0048883D03*
X0314439Y0047483D03*
X0291889Y0047083D03*
X0291889Y0047033D03*
D48*
X0303014Y0047783D03*
X0306864Y0047083D03*
X0321114Y0053733D03*
X0311314Y0063583D03*
X0306514Y0069733D03*
X0295064Y0070133D03*
D49*
X0295764Y0070533D03*
X0301864Y0070933D03*
X0302814Y0066633D03*
X0302814Y0066583D03*
X0303664Y0049183D03*
X0300164Y0048333D03*
X0299514Y0047283D03*
X0299564Y0047233D03*
X0299614Y0047183D03*
X0299664Y0047133D03*
X0291964Y0047433D03*
X0291964Y0047483D03*
X0312814Y0049083D03*
D50*
X0318764Y0049333D03*
X0307864Y0049233D03*
X0306914Y0047133D03*
X0299414Y0049283D03*
X0298814Y0047983D03*
X0294064Y0047683D03*
X0294064Y0047633D03*
X0311414Y0063733D03*
D51*
X0302839Y0070583D03*
X0302839Y0070633D03*
X0298839Y0070633D03*
X0298839Y0070683D03*
X0302889Y0047533D03*
X0317739Y0047133D03*
X0320839Y0053433D03*
D52*
X0320964Y0053533D03*
X0307814Y0049133D03*
X0306914Y0047183D03*
X0299414Y0049183D03*
X0299414Y0049233D03*
X0298914Y0048083D03*
X0298864Y0048033D03*
X0294064Y0047733D03*
X0306564Y0069683D03*
D53*
X0302814Y0070483D03*
X0302814Y0070533D03*
X0298864Y0070583D03*
X0294914Y0070033D03*
X0311664Y0063933D03*
X0314914Y0066383D03*
X0318714Y0049233D03*
X0317764Y0047183D03*
X0302864Y0047483D03*
D54*
X0303589Y0049083D03*
X0291939Y0047283D03*
X0291939Y0047233D03*
X0307439Y0061083D03*
X0302889Y0066383D03*
X0302889Y0066433D03*
D55*
X0302789Y0070683D03*
X0298839Y0070833D03*
X0311539Y0063833D03*
X0320889Y0053483D03*
X0318739Y0049283D03*
X0307789Y0049083D03*
X0306989Y0047333D03*
X0306939Y0047233D03*
X0302939Y0047633D03*
X0299389Y0049033D03*
X0299389Y0049083D03*
X0299389Y0049133D03*
X0299039Y0048283D03*
X0298989Y0048183D03*
X0298939Y0048133D03*
D56*
X0299089Y0047783D03*
X0299139Y0047733D03*
X0299189Y0047683D03*
X0299289Y0047533D03*
X0299339Y0047483D03*
X0299389Y0047433D03*
X0299439Y0047383D03*
X0299489Y0047333D03*
X0303689Y0049233D03*
X0314489Y0047283D03*
X0314489Y0047233D03*
X0307489Y0060983D03*
X0302789Y0066683D03*
X0305889Y0070233D03*
X0309739Y0068783D03*
X0291989Y0047583D03*
X0291989Y0047533D03*
D57*
X0298864Y0070383D03*
X0298864Y0070433D03*
X0302814Y0070333D03*
X0306664Y0069583D03*
X0311764Y0063983D03*
X0318664Y0049133D03*
X0318664Y0049083D03*
X0317864Y0047383D03*
X0317814Y0047283D03*
X0317814Y0047233D03*
D58*
X0314464Y0047383D03*
X0313964Y0047883D03*
X0313914Y0047933D03*
X0313864Y0047983D03*
X0313814Y0048033D03*
X0313764Y0048083D03*
X0313714Y0048133D03*
X0313664Y0048183D03*
X0313614Y0048233D03*
X0313564Y0048283D03*
X0313514Y0048333D03*
X0313464Y0048383D03*
X0313414Y0048433D03*
X0313364Y0048483D03*
X0312864Y0048983D03*
X0302864Y0066483D03*
X0309764Y0068733D03*
X0291964Y0047383D03*
X0291964Y0047333D03*
D59*
X0294139Y0047383D03*
X0295139Y0070183D03*
X0310039Y0068183D03*
D60*
X0306464Y0069783D03*
X0316564Y0064033D03*
X0316564Y0063983D03*
X0316614Y0064083D03*
X0327164Y0066533D03*
X0315914Y0053383D03*
X0315864Y0053283D03*
X0303064Y0047933D03*
X0298614Y0047883D03*
X0294114Y0047433D03*
D61*
X0294089Y0047533D03*
X0303039Y0047833D03*
X0311239Y0063483D03*
X0311289Y0063533D03*
X0314939Y0066433D03*
X0321239Y0053883D03*
X0321189Y0053783D03*
D62*
X0321089Y0053683D03*
X0321039Y0053633D03*
X0311339Y0063633D03*
X0311389Y0063683D03*
X0310089Y0068083D03*
X0307889Y0049283D03*
X0302989Y0047733D03*
X0299389Y0049333D03*
X0298739Y0047933D03*
X0294089Y0047583D03*
D63*
X0292014Y0047633D03*
X0292014Y0047683D03*
X0292014Y0047733D03*
X0299064Y0047833D03*
X0299214Y0047633D03*
X0299264Y0047583D03*
X0303714Y0049283D03*
X0312814Y0049133D03*
X0302764Y0066733D03*
D64*
X0303064Y0065883D03*
X0306014Y0070133D03*
X0309814Y0068633D03*
X0307364Y0061183D03*
X0303514Y0048883D03*
X0312914Y0048783D03*
X0314414Y0047583D03*
D65*
X0314364Y0047733D03*
X0306114Y0070083D03*
D66*
X0294664Y0069833D03*
X0293864Y0048283D03*
X0293814Y0048233D03*
X0293814Y0048183D03*
X0293764Y0048133D03*
X0293764Y0048083D03*
X0293714Y0047983D03*
X0293664Y0047883D03*
X0293614Y0047783D03*
D67*
X0297264Y0058133D03*
X0297314Y0058233D03*
X0297664Y0058983D03*
X0298014Y0059733D03*
X0298364Y0060483D03*
X0309864Y0068533D03*
X0312964Y0048583D03*
X0314364Y0047783D03*
D68*
X0317589Y0051083D03*
X0299789Y0060983D03*
X0294139Y0048833D03*
X0294089Y0048733D03*
X0294039Y0048633D03*
X0293989Y0048583D03*
X0293989Y0048533D03*
X0293939Y0048483D03*
X0293939Y0048433D03*
X0293889Y0048383D03*
X0293889Y0048333D03*
X0293739Y0048033D03*
X0293689Y0047933D03*
X0293639Y0047833D03*
D69*
X0314339Y0047833D03*
X0295489Y0070383D03*
D70*
X0302514Y0067283D03*
X0308264Y0047933D03*
D71*
X0317489Y0050833D03*
X0319139Y0048333D03*
X0319089Y0048233D03*
X0319039Y0048133D03*
X0307189Y0061333D03*
X0309889Y0068483D03*
D72*
X0302414Y0067433D03*
X0307564Y0060283D03*
X0308464Y0048483D03*
X0317464Y0050783D03*
D73*
X0319764Y0048733D03*
X0308664Y0048533D03*
X0307564Y0060683D03*
X0302564Y0067133D03*
X0305714Y0070333D03*
X0309664Y0068933D03*
D74*
X0307289Y0061283D03*
X0298389Y0060583D03*
X0298389Y0060533D03*
X0298339Y0060433D03*
X0298339Y0060383D03*
X0298289Y0060333D03*
X0298289Y0060283D03*
X0298239Y0060233D03*
X0298239Y0060183D03*
X0298189Y0060133D03*
X0298189Y0060083D03*
X0298139Y0060033D03*
X0298139Y0059983D03*
X0298089Y0059933D03*
X0298089Y0059883D03*
X0298039Y0059833D03*
X0298039Y0059783D03*
X0297989Y0059683D03*
X0297989Y0059633D03*
X0297939Y0059583D03*
X0297939Y0059533D03*
X0297889Y0059483D03*
X0297889Y0059433D03*
X0297839Y0059383D03*
X0297839Y0059333D03*
X0297789Y0059283D03*
X0297789Y0059233D03*
X0297739Y0059183D03*
X0297739Y0059133D03*
X0297689Y0059083D03*
X0297689Y0059033D03*
X0297639Y0058933D03*
X0297639Y0058883D03*
X0297589Y0058833D03*
X0297589Y0058783D03*
X0297539Y0058733D03*
X0297539Y0058683D03*
X0297489Y0058633D03*
X0297489Y0058583D03*
X0297439Y0058533D03*
X0297439Y0058483D03*
X0297389Y0058433D03*
X0297389Y0058383D03*
X0297339Y0058333D03*
X0297339Y0058283D03*
X0297289Y0058183D03*
X0299539Y0070983D03*
X0302139Y0070883D03*
X0312939Y0048633D03*
D75*
X0294264Y0049033D03*
X0294214Y0048983D03*
X0294214Y0048933D03*
X0294164Y0048883D03*
X0294114Y0048783D03*
X0294064Y0048683D03*
D76*
X0307589Y0060333D03*
X0307589Y0060383D03*
X0302439Y0067383D03*
X0319589Y0048683D03*
D77*
X0299889Y0061033D03*
X0294589Y0069783D03*
X0294339Y0049183D03*
X0294289Y0049133D03*
X0294289Y0049083D03*
D78*
X0298839Y0070483D03*
X0298839Y0070533D03*
X0302789Y0070433D03*
X0302789Y0070383D03*
X0310139Y0067933D03*
X0320739Y0053383D03*
X0318689Y0049183D03*
D79*
X0314864Y0066233D03*
X0294464Y0049383D03*
X0294414Y0049333D03*
X0294414Y0049283D03*
X0294364Y0049233D03*
D80*
X0302614Y0067033D03*
X0312764Y0049333D03*
D81*
X0294589Y0049583D03*
X0294539Y0049533D03*
X0294539Y0049483D03*
X0294489Y0049433D03*
D82*
X0294614Y0049633D03*
X0294664Y0049683D03*
X0299964Y0061083D03*
X0317614Y0051133D03*
D83*
X0294739Y0049833D03*
X0294739Y0049783D03*
X0294689Y0049733D03*
X0294539Y0069733D03*
D84*
X0300264Y0065033D03*
X0300064Y0061133D03*
X0294814Y0049933D03*
X0294764Y0049883D03*
D85*
X0294839Y0049983D03*
X0294889Y0050033D03*
X0300239Y0065083D03*
X0294639Y0069433D03*
X0314839Y0066183D03*
D86*
X0300164Y0065133D03*
X0300114Y0061183D03*
X0294614Y0069483D03*
X0294564Y0069533D03*
X0294964Y0050133D03*
X0294914Y0050083D03*
X0317614Y0051183D03*
D87*
X0300139Y0065183D03*
X0300089Y0065233D03*
X0294539Y0069583D03*
X0294489Y0069633D03*
X0294489Y0069683D03*
X0295039Y0050233D03*
X0294989Y0050183D03*
D88*
X0295064Y0050283D03*
X0295114Y0050333D03*
X0300064Y0065283D03*
X0314814Y0066133D03*
D89*
X0295189Y0050433D03*
X0295139Y0050383D03*
D90*
X0295214Y0050483D03*
X0295264Y0050533D03*
X0300214Y0061233D03*
X0300014Y0065333D03*
X0299964Y0065383D03*
X0317664Y0051233D03*
D91*
X0299939Y0065433D03*
X0295289Y0050583D03*
D92*
X0295314Y0050633D03*
X0295364Y0050683D03*
X0299914Y0065483D03*
D93*
X0299839Y0065533D03*
X0300339Y0061283D03*
X0295439Y0050783D03*
X0295389Y0050733D03*
X0314789Y0066083D03*
D94*
X0299789Y0065633D03*
X0295539Y0050883D03*
X0295489Y0050833D03*
D95*
X0306389Y0069833D03*
X0317489Y0050883D03*
D96*
X0300414Y0061333D03*
X0299714Y0065683D03*
X0295614Y0050983D03*
X0295564Y0050933D03*
D97*
X0295664Y0051033D03*
X0295714Y0051083D03*
X0301864Y0060583D03*
X0299664Y0065783D03*
D98*
X0298864Y0069883D03*
X0302714Y0069833D03*
X0302714Y0069783D03*
X0306614Y0069283D03*
X0299514Y0060783D03*
X0317564Y0051033D03*
D99*
X0299639Y0065833D03*
X0295789Y0051183D03*
X0295739Y0051133D03*
D100*
X0295839Y0051233D03*
X0295889Y0051283D03*
X0301939Y0060533D03*
X0300589Y0061383D03*
X0299539Y0065933D03*
D101*
X0299814Y0065583D03*
X0317664Y0051283D03*
D102*
X0314739Y0065933D03*
X0295939Y0051333D03*
D103*
X0299689Y0065733D03*
X0314789Y0066033D03*
X0317689Y0051333D03*
D104*
X0302014Y0060483D03*
X0299464Y0066033D03*
X0296014Y0051433D03*
X0295964Y0051383D03*
D105*
X0299514Y0065983D03*
X0317714Y0051383D03*
D106*
X0317739Y0051433D03*
X0299439Y0066083D03*
X0299389Y0066133D03*
D107*
X0299364Y0066183D03*
X0300714Y0061433D03*
X0296114Y0051533D03*
X0296064Y0051483D03*
X0314714Y0065883D03*
D108*
X0302164Y0060383D03*
X0299314Y0066233D03*
X0296164Y0051583D03*
X0317764Y0051483D03*
D109*
X0317764Y0051533D03*
X0302214Y0060333D03*
X0299264Y0066333D03*
X0296264Y0051683D03*
D110*
X0296389Y0051783D03*
X0296439Y0051833D03*
X0302339Y0060183D03*
X0300939Y0061483D03*
X0299189Y0066433D03*
X0317789Y0051583D03*
D111*
X0314689Y0065833D03*
X0299289Y0066283D03*
X0296239Y0051633D03*
D112*
X0296564Y0051933D03*
X0302464Y0060033D03*
X0299064Y0066583D03*
X0305414Y0067933D03*
X0317814Y0051633D03*
D113*
X0317814Y0051683D03*
X0302564Y0059883D03*
X0302514Y0059933D03*
X0299014Y0066683D03*
X0296614Y0051983D03*
D114*
X0296339Y0051733D03*
X0300539Y0060733D03*
D115*
X0302664Y0059683D03*
X0302664Y0059633D03*
X0302714Y0059533D03*
X0302764Y0059383D03*
X0314614Y0065633D03*
X0317864Y0051733D03*
D116*
X0317864Y0051783D03*
X0314614Y0065583D03*
X0302764Y0059283D03*
X0298914Y0066833D03*
D117*
X0298839Y0066933D03*
X0317889Y0051833D03*
D118*
X0302439Y0060083D03*
X0302389Y0060133D03*
X0296489Y0051883D03*
D119*
X0296914Y0052233D03*
X0296964Y0052283D03*
X0302714Y0059133D03*
X0298814Y0066983D03*
X0314564Y0065483D03*
X0317914Y0051883D03*
D120*
X0317914Y0051933D03*
X0302664Y0059083D03*
X0300914Y0060633D03*
X0297014Y0052333D03*
D121*
X0297089Y0052383D03*
X0302639Y0059033D03*
X0298789Y0067083D03*
X0314539Y0065383D03*
X0317939Y0051983D03*
D122*
X0302639Y0059733D03*
X0302589Y0059783D03*
X0302589Y0059833D03*
X0298989Y0066733D03*
X0296689Y0052033D03*
D123*
X0302564Y0058933D03*
X0298714Y0067183D03*
X0317964Y0052033D03*
D124*
X0302789Y0059333D03*
X0302739Y0059433D03*
X0302739Y0059483D03*
X0302689Y0059583D03*
X0300739Y0060683D03*
X0298939Y0066783D03*
X0296739Y0052083D03*
D125*
X0297239Y0052533D03*
X0297289Y0052583D03*
X0302539Y0058883D03*
X0298689Y0067233D03*
X0314489Y0065283D03*
X0317989Y0052083D03*
D126*
X0314589Y0065533D03*
X0302739Y0059233D03*
X0298889Y0066883D03*
X0296789Y0052133D03*
D127*
X0297339Y0052633D03*
X0298639Y0067283D03*
X0317989Y0052133D03*
D128*
X0302714Y0059183D03*
X0296864Y0052183D03*
D129*
X0297414Y0052683D03*
X0302464Y0058783D03*
X0298614Y0067333D03*
X0314464Y0065183D03*
X0318014Y0052183D03*
D130*
X0318039Y0052233D03*
X0314439Y0065133D03*
X0307339Y0065883D03*
X0302439Y0058733D03*
X0297439Y0052733D03*
X0298589Y0067383D03*
D131*
X0302414Y0058683D03*
X0297514Y0052783D03*
X0314414Y0065083D03*
X0318064Y0052283D03*
D132*
X0318064Y0052333D03*
X0297564Y0052833D03*
D133*
X0297589Y0052883D03*
X0302339Y0058583D03*
X0307389Y0065983D03*
X0314389Y0064983D03*
X0318089Y0052383D03*
X0298539Y0067483D03*
D134*
X0302614Y0058983D03*
X0297114Y0052433D03*
X0314514Y0065333D03*
D135*
X0314364Y0064933D03*
X0307414Y0066033D03*
X0302314Y0058533D03*
X0302264Y0058483D03*
X0297664Y0052933D03*
X0298514Y0067533D03*
X0318114Y0052433D03*
D136*
X0297189Y0052483D03*
X0298739Y0067133D03*
D137*
X0298489Y0067583D03*
X0306339Y0065033D03*
X0314339Y0064883D03*
X0318139Y0052483D03*
X0297689Y0052983D03*
D138*
X0297764Y0053033D03*
X0302214Y0058433D03*
X0306364Y0065083D03*
X0307414Y0066083D03*
X0314314Y0064833D03*
X0318164Y0052533D03*
D139*
X0318189Y0052583D03*
X0314289Y0064783D03*
X0302189Y0058383D03*
X0297789Y0053083D03*
X0298489Y0067633D03*
D140*
X0306364Y0065133D03*
X0307464Y0066133D03*
X0314264Y0064733D03*
X0314264Y0064683D03*
X0318214Y0052633D03*
X0302164Y0058333D03*
X0297864Y0053133D03*
D141*
X0297889Y0053183D03*
X0302139Y0058283D03*
X0306389Y0065183D03*
X0314239Y0064633D03*
X0318189Y0052683D03*
X0298439Y0067683D03*
D142*
X0298414Y0067733D03*
X0300814Y0069683D03*
X0306414Y0065233D03*
X0307464Y0066183D03*
X0314214Y0064583D03*
X0314214Y0064533D03*
X0318264Y0052833D03*
X0318214Y0052733D03*
X0302064Y0058233D03*
X0297964Y0053233D03*
D143*
X0297989Y0053283D03*
X0302039Y0058183D03*
X0307489Y0066233D03*
X0314189Y0064483D03*
X0318289Y0052883D03*
X0318239Y0052783D03*
X0300789Y0069483D03*
X0300789Y0069533D03*
X0300789Y0069583D03*
X0300789Y0069633D03*
D144*
X0300764Y0069433D03*
X0298414Y0067783D03*
X0306414Y0065283D03*
X0314164Y0064433D03*
X0314164Y0064383D03*
X0318314Y0052983D03*
X0318314Y0052933D03*
X0302014Y0058133D03*
X0298064Y0053333D03*
D145*
X0298089Y0053383D03*
X0306439Y0065333D03*
X0307539Y0066283D03*
X0314089Y0064233D03*
X0314139Y0064333D03*
X0318339Y0053033D03*
D146*
X0318364Y0053083D03*
X0318364Y0053133D03*
X0318414Y0053183D03*
X0318414Y0053233D03*
X0314064Y0064133D03*
X0314064Y0064183D03*
X0314114Y0064283D03*
X0298364Y0067833D03*
X0298164Y0053433D03*
D147*
X0298189Y0053483D03*
X0298239Y0053533D03*
X0306439Y0065383D03*
X0307539Y0066333D03*
X0298339Y0067883D03*
D148*
X0298339Y0067933D03*
X0306489Y0065483D03*
X0307589Y0066383D03*
X0298289Y0053583D03*
D149*
X0298314Y0053633D03*
X0298364Y0053683D03*
X0298314Y0067983D03*
D150*
X0306514Y0065583D03*
X0307614Y0066433D03*
X0298464Y0053783D03*
X0298414Y0053733D03*
D151*
X0298489Y0053833D03*
X0306539Y0065633D03*
D152*
X0307664Y0066483D03*
X0298564Y0053883D03*
D153*
X0298589Y0053933D03*
X0298639Y0053983D03*
X0306539Y0065683D03*
D154*
X0306564Y0065733D03*
X0307664Y0066533D03*
X0298664Y0054033D03*
D155*
X0298739Y0054083D03*
X0306589Y0065783D03*
D156*
X0306614Y0065833D03*
X0307714Y0066583D03*
X0298814Y0054183D03*
X0298764Y0054133D03*
D157*
X0298839Y0054233D03*
X0298889Y0054283D03*
D158*
X0298914Y0054333D03*
D159*
X0298964Y0054383D03*
X0299014Y0054433D03*
D160*
X0299039Y0054483D03*
X0299089Y0054533D03*
X0307789Y0066683D03*
D161*
X0299164Y0054633D03*
X0299114Y0054583D03*
D162*
X0299189Y0054683D03*
X0299239Y0054733D03*
D163*
X0299264Y0054783D03*
X0299314Y0054833D03*
X0307814Y0066733D03*
D164*
X0299389Y0054933D03*
X0299339Y0054883D03*
D165*
X0299414Y0054983D03*
X0299464Y0055033D03*
X0307864Y0066783D03*
D166*
X0299489Y0055083D03*
D167*
X0299514Y0055133D03*
X0299564Y0055183D03*
D168*
X0299589Y0055233D03*
X0299639Y0055283D03*
D169*
X0299664Y0055333D03*
X0299714Y0055383D03*
X0307914Y0066833D03*
D170*
X0299839Y0055583D03*
X0299789Y0055533D03*
X0299789Y0055483D03*
X0299739Y0055433D03*
D171*
X0299864Y0055633D03*
X0299914Y0055683D03*
D172*
X0299939Y0055733D03*
X0299989Y0055783D03*
X0299989Y0055833D03*
X0307939Y0066883D03*
D173*
X0300114Y0056033D03*
X0300064Y0055933D03*
X0300014Y0055883D03*
D174*
X0300089Y0055983D03*
X0300139Y0056083D03*
X0300189Y0056133D03*
X0300239Y0056233D03*
D175*
X0300214Y0056183D03*
X0300264Y0056283D03*
X0300314Y0056333D03*
X0300314Y0056383D03*
X0300364Y0056433D03*
X0300414Y0056533D03*
X0301064Y0057933D03*
X0301114Y0058033D03*
X0301114Y0058083D03*
X0308014Y0066933D03*
X0307264Y0067833D03*
X0307164Y0067883D03*
D176*
X0307339Y0067783D03*
X0307389Y0067733D03*
X0301089Y0057983D03*
X0301039Y0057883D03*
X0301039Y0057833D03*
X0300989Y0057783D03*
X0300989Y0057733D03*
X0300939Y0057683D03*
X0300939Y0057633D03*
X0300889Y0057533D03*
X0300839Y0057433D03*
X0300789Y0057283D03*
X0300739Y0057183D03*
X0300689Y0057083D03*
X0300639Y0056983D03*
X0300589Y0056883D03*
X0300539Y0056783D03*
X0300489Y0056683D03*
X0300439Y0056583D03*
X0300389Y0056483D03*
D177*
X0300464Y0056633D03*
X0300514Y0056733D03*
X0300564Y0056833D03*
X0300614Y0056933D03*
X0300664Y0057033D03*
X0300714Y0057133D03*
X0300764Y0057233D03*
X0300814Y0057333D03*
X0300814Y0057383D03*
X0300864Y0057483D03*
X0300914Y0057583D03*
X0307464Y0067683D03*
D178*
X0314389Y0065033D03*
X0302389Y0058633D03*
X0298589Y0067433D03*
D179*
X0302514Y0058833D03*
X0314464Y0065233D03*
D180*
X0314639Y0065683D03*
X0305389Y0067983D03*
X0299039Y0066633D03*
X0302489Y0059983D03*
D181*
X0302314Y0060233D03*
X0302264Y0060283D03*
X0299214Y0066383D03*
X0314664Y0065783D03*
D182*
X0302089Y0060433D03*
D183*
X0307589Y0060433D03*
X0307589Y0060483D03*
X0305639Y0070383D03*
D184*
X0301539Y0070983D03*
X0309639Y0068983D03*
X0307589Y0060533D03*
D185*
X0307564Y0060583D03*
X0307564Y0060633D03*
X0302514Y0067233D03*
X0296014Y0070633D03*
D186*
X0299664Y0060883D03*
X0312064Y0064083D03*
X0314864Y0066283D03*
D187*
X0299739Y0060933D03*
D188*
X0307039Y0061433D03*
X0309989Y0068333D03*
D189*
X0304314Y0064133D03*
X0304314Y0064083D03*
X0304264Y0063983D03*
X0304214Y0063883D03*
X0304164Y0063783D03*
X0304164Y0063733D03*
X0304114Y0063683D03*
X0304114Y0063633D03*
X0304064Y0063583D03*
X0304064Y0063533D03*
X0304014Y0063483D03*
X0304014Y0063433D03*
X0303964Y0063333D03*
X0303914Y0063233D03*
X0303864Y0063133D03*
X0303814Y0063033D03*
X0303764Y0062933D03*
X0303764Y0062883D03*
X0303714Y0062833D03*
X0303714Y0062783D03*
X0303664Y0062733D03*
X0303664Y0062683D03*
X0303614Y0062583D03*
X0303564Y0062483D03*
X0303514Y0062383D03*
X0303464Y0062283D03*
X0303414Y0062183D03*
X0303364Y0062083D03*
X0303364Y0062033D03*
X0303314Y0061983D03*
X0303314Y0061933D03*
X0303264Y0061833D03*
X0303214Y0061733D03*
X0303164Y0061633D03*
X0303114Y0061533D03*
D190*
X0303139Y0061583D03*
X0303189Y0061683D03*
X0303239Y0061783D03*
X0303289Y0061883D03*
X0303389Y0062133D03*
X0303439Y0062233D03*
X0303489Y0062333D03*
X0303539Y0062433D03*
X0303589Y0062533D03*
X0303639Y0062633D03*
X0303789Y0062983D03*
X0303839Y0063083D03*
X0303889Y0063183D03*
X0303939Y0063283D03*
X0303989Y0063383D03*
X0304189Y0063833D03*
X0304239Y0063933D03*
X0304289Y0064033D03*
D191*
X0306664Y0069433D03*
X0302764Y0069983D03*
X0298864Y0070033D03*
X0298864Y0070083D03*
X0311864Y0064033D03*
X0314914Y0066333D03*
D192*
X0304314Y0064183D03*
D193*
X0304289Y0064233D03*
D194*
X0304264Y0064283D03*
D195*
X0304264Y0064333D03*
D196*
X0304239Y0064383D03*
D197*
X0304214Y0064433D03*
D198*
X0304214Y0064483D03*
D199*
X0304189Y0064533D03*
D200*
X0304189Y0064583D03*
D201*
X0304164Y0064633D03*
D202*
X0304139Y0064683D03*
D203*
X0304139Y0064733D03*
D204*
X0304114Y0064783D03*
D205*
X0304089Y0064833D03*
D206*
X0304089Y0064883D03*
D207*
X0304089Y0064933D03*
D208*
X0304064Y0064983D03*
X0298714Y0069183D03*
D209*
X0306464Y0065433D03*
D210*
X0314539Y0065433D03*
X0298789Y0067033D03*
D211*
X0306489Y0065533D03*
D212*
X0299164Y0066483D03*
X0299114Y0066533D03*
X0314664Y0065733D03*
D213*
X0314764Y0065983D03*
X0299564Y0065883D03*
D214*
X0306639Y0065933D03*
X0307739Y0066633D03*
D215*
X0308064Y0066983D03*
X0307664Y0067533D03*
D216*
X0307889Y0067333D03*
X0307939Y0067283D03*
X0308139Y0067033D03*
D217*
X0308164Y0067083D03*
X0308114Y0067133D03*
D218*
X0302539Y0067183D03*
D219*
X0307989Y0067233D03*
X0308039Y0067183D03*
D220*
X0309614Y0069033D03*
X0302464Y0067333D03*
D221*
X0307764Y0067433D03*
X0307814Y0067383D03*
D222*
X0307689Y0067483D03*
D223*
X0307589Y0067583D03*
X0307539Y0067633D03*
D224*
X0301314Y0068033D03*
D225*
X0301289Y0068083D03*
D226*
X0301264Y0068133D03*
D227*
X0301214Y0068183D03*
D228*
X0301189Y0068233D03*
D229*
X0301164Y0068283D03*
D230*
X0301139Y0068333D03*
D231*
X0301089Y0068383D03*
D232*
X0309964Y0068383D03*
D233*
X0301064Y0068433D03*
D234*
X0309939Y0068433D03*
D235*
X0301064Y0068483D03*
D236*
X0301039Y0068533D03*
D237*
X0300989Y0068583D03*
D238*
X0300964Y0068633D03*
D239*
X0300939Y0068683D03*
D240*
X0300889Y0068733D03*
D241*
X0300864Y0068783D03*
D242*
X0300839Y0068833D03*
D243*
X0300814Y0068883D03*
D244*
X0300764Y0068933D03*
D245*
X0300739Y0068983D03*
D246*
X0300714Y0069033D03*
D247*
X0300664Y0069083D03*
D248*
X0300639Y0069133D03*
D249*
X0298889Y0069733D03*
X0298889Y0069783D03*
X0298889Y0069833D03*
X0302689Y0069733D03*
X0306589Y0069233D03*
X0306589Y0069183D03*
D250*
X0298689Y0069233D03*
D251*
X0298639Y0069283D03*
D252*
X0298614Y0069333D03*
X0298564Y0069383D03*
D253*
X0298889Y0070133D03*
X0302739Y0070083D03*
X0302739Y0070033D03*
X0306689Y0069533D03*
X0306689Y0069483D03*
D254*
X0306289Y0069933D03*
D255*
X0306214Y0069983D03*
X0295364Y0070333D03*
D256*
X0298864Y0070283D03*
X0298864Y0070233D03*
X0298864Y0070183D03*
X0302764Y0070183D03*
X0302764Y0070133D03*
D257*
X0299264Y0070933D03*
X0295314Y0070283D03*
D258*
X0296139Y0070683D03*
X0305539Y0070433D03*
M02*
