G75*
%MOIN*%
%OFA0B0*%
%FSLAX25Y25*%
%IPPOS*%
%LPD*%
%AMOC8*
5,1,8,0,0,1.08239X$1,22.5*
%
%ADD10C,0.00000*%
%ADD11R,0.06693X0.07087*%
%ADD12R,0.06299X0.07087*%
%ADD13R,0.07098X0.06299*%
%ADD14R,0.06299X0.07098*%
D10*
X0073539Y0010833D02*
X0073539Y0330833D01*
X0337240Y0330833D01*
X0337240Y0010833D01*
X0073539Y0010833D01*
X0162633Y0055833D02*
X0162635Y0055986D01*
X0162641Y0056140D01*
X0162651Y0056293D01*
X0162665Y0056445D01*
X0162683Y0056598D01*
X0162705Y0056749D01*
X0162730Y0056900D01*
X0162760Y0057051D01*
X0162794Y0057201D01*
X0162831Y0057349D01*
X0162872Y0057497D01*
X0162917Y0057643D01*
X0162966Y0057789D01*
X0163019Y0057933D01*
X0163075Y0058075D01*
X0163135Y0058216D01*
X0163199Y0058356D01*
X0163266Y0058494D01*
X0163337Y0058630D01*
X0163412Y0058764D01*
X0163489Y0058896D01*
X0163571Y0059026D01*
X0163655Y0059154D01*
X0163743Y0059280D01*
X0163834Y0059403D01*
X0163928Y0059524D01*
X0164026Y0059642D01*
X0164126Y0059758D01*
X0164230Y0059871D01*
X0164336Y0059982D01*
X0164445Y0060090D01*
X0164557Y0060195D01*
X0164671Y0060296D01*
X0164789Y0060395D01*
X0164908Y0060491D01*
X0165030Y0060584D01*
X0165155Y0060673D01*
X0165282Y0060760D01*
X0165411Y0060842D01*
X0165542Y0060922D01*
X0165675Y0060998D01*
X0165810Y0061071D01*
X0165947Y0061140D01*
X0166086Y0061205D01*
X0166226Y0061267D01*
X0166368Y0061325D01*
X0166511Y0061380D01*
X0166656Y0061431D01*
X0166802Y0061478D01*
X0166949Y0061521D01*
X0167097Y0061560D01*
X0167246Y0061596D01*
X0167396Y0061627D01*
X0167547Y0061655D01*
X0167698Y0061679D01*
X0167851Y0061699D01*
X0168003Y0061715D01*
X0168156Y0061727D01*
X0168309Y0061735D01*
X0168462Y0061739D01*
X0168616Y0061739D01*
X0168769Y0061735D01*
X0168922Y0061727D01*
X0169075Y0061715D01*
X0169227Y0061699D01*
X0169380Y0061679D01*
X0169531Y0061655D01*
X0169682Y0061627D01*
X0169832Y0061596D01*
X0169981Y0061560D01*
X0170129Y0061521D01*
X0170276Y0061478D01*
X0170422Y0061431D01*
X0170567Y0061380D01*
X0170710Y0061325D01*
X0170852Y0061267D01*
X0170992Y0061205D01*
X0171131Y0061140D01*
X0171268Y0061071D01*
X0171403Y0060998D01*
X0171536Y0060922D01*
X0171667Y0060842D01*
X0171796Y0060760D01*
X0171923Y0060673D01*
X0172048Y0060584D01*
X0172170Y0060491D01*
X0172289Y0060395D01*
X0172407Y0060296D01*
X0172521Y0060195D01*
X0172633Y0060090D01*
X0172742Y0059982D01*
X0172848Y0059871D01*
X0172952Y0059758D01*
X0173052Y0059642D01*
X0173150Y0059524D01*
X0173244Y0059403D01*
X0173335Y0059280D01*
X0173423Y0059154D01*
X0173507Y0059026D01*
X0173589Y0058896D01*
X0173666Y0058764D01*
X0173741Y0058630D01*
X0173812Y0058494D01*
X0173879Y0058356D01*
X0173943Y0058216D01*
X0174003Y0058075D01*
X0174059Y0057933D01*
X0174112Y0057789D01*
X0174161Y0057643D01*
X0174206Y0057497D01*
X0174247Y0057349D01*
X0174284Y0057201D01*
X0174318Y0057051D01*
X0174348Y0056900D01*
X0174373Y0056749D01*
X0174395Y0056598D01*
X0174413Y0056445D01*
X0174427Y0056293D01*
X0174437Y0056140D01*
X0174443Y0055986D01*
X0174445Y0055833D01*
X0174443Y0055680D01*
X0174437Y0055526D01*
X0174427Y0055373D01*
X0174413Y0055221D01*
X0174395Y0055068D01*
X0174373Y0054917D01*
X0174348Y0054766D01*
X0174318Y0054615D01*
X0174284Y0054465D01*
X0174247Y0054317D01*
X0174206Y0054169D01*
X0174161Y0054023D01*
X0174112Y0053877D01*
X0174059Y0053733D01*
X0174003Y0053591D01*
X0173943Y0053450D01*
X0173879Y0053310D01*
X0173812Y0053172D01*
X0173741Y0053036D01*
X0173666Y0052902D01*
X0173589Y0052770D01*
X0173507Y0052640D01*
X0173423Y0052512D01*
X0173335Y0052386D01*
X0173244Y0052263D01*
X0173150Y0052142D01*
X0173052Y0052024D01*
X0172952Y0051908D01*
X0172848Y0051795D01*
X0172742Y0051684D01*
X0172633Y0051576D01*
X0172521Y0051471D01*
X0172407Y0051370D01*
X0172289Y0051271D01*
X0172170Y0051175D01*
X0172048Y0051082D01*
X0171923Y0050993D01*
X0171796Y0050906D01*
X0171667Y0050824D01*
X0171536Y0050744D01*
X0171403Y0050668D01*
X0171268Y0050595D01*
X0171131Y0050526D01*
X0170992Y0050461D01*
X0170852Y0050399D01*
X0170710Y0050341D01*
X0170567Y0050286D01*
X0170422Y0050235D01*
X0170276Y0050188D01*
X0170129Y0050145D01*
X0169981Y0050106D01*
X0169832Y0050070D01*
X0169682Y0050039D01*
X0169531Y0050011D01*
X0169380Y0049987D01*
X0169227Y0049967D01*
X0169075Y0049951D01*
X0168922Y0049939D01*
X0168769Y0049931D01*
X0168616Y0049927D01*
X0168462Y0049927D01*
X0168309Y0049931D01*
X0168156Y0049939D01*
X0168003Y0049951D01*
X0167851Y0049967D01*
X0167698Y0049987D01*
X0167547Y0050011D01*
X0167396Y0050039D01*
X0167246Y0050070D01*
X0167097Y0050106D01*
X0166949Y0050145D01*
X0166802Y0050188D01*
X0166656Y0050235D01*
X0166511Y0050286D01*
X0166368Y0050341D01*
X0166226Y0050399D01*
X0166086Y0050461D01*
X0165947Y0050526D01*
X0165810Y0050595D01*
X0165675Y0050668D01*
X0165542Y0050744D01*
X0165411Y0050824D01*
X0165282Y0050906D01*
X0165155Y0050993D01*
X0165030Y0051082D01*
X0164908Y0051175D01*
X0164789Y0051271D01*
X0164671Y0051370D01*
X0164557Y0051471D01*
X0164445Y0051576D01*
X0164336Y0051684D01*
X0164230Y0051795D01*
X0164126Y0051908D01*
X0164026Y0052024D01*
X0163928Y0052142D01*
X0163834Y0052263D01*
X0163743Y0052386D01*
X0163655Y0052512D01*
X0163571Y0052640D01*
X0163489Y0052770D01*
X0163412Y0052902D01*
X0163337Y0053036D01*
X0163266Y0053172D01*
X0163199Y0053310D01*
X0163135Y0053450D01*
X0163075Y0053591D01*
X0163019Y0053733D01*
X0162966Y0053877D01*
X0162917Y0054023D01*
X0162872Y0054169D01*
X0162831Y0054317D01*
X0162794Y0054465D01*
X0162760Y0054615D01*
X0162730Y0054766D01*
X0162705Y0054917D01*
X0162683Y0055068D01*
X0162665Y0055221D01*
X0162651Y0055373D01*
X0162641Y0055526D01*
X0162635Y0055680D01*
X0162633Y0055833D01*
X0182633Y0195833D02*
X0182635Y0195986D01*
X0182641Y0196140D01*
X0182651Y0196293D01*
X0182665Y0196445D01*
X0182683Y0196598D01*
X0182705Y0196749D01*
X0182730Y0196900D01*
X0182760Y0197051D01*
X0182794Y0197201D01*
X0182831Y0197349D01*
X0182872Y0197497D01*
X0182917Y0197643D01*
X0182966Y0197789D01*
X0183019Y0197933D01*
X0183075Y0198075D01*
X0183135Y0198216D01*
X0183199Y0198356D01*
X0183266Y0198494D01*
X0183337Y0198630D01*
X0183412Y0198764D01*
X0183489Y0198896D01*
X0183571Y0199026D01*
X0183655Y0199154D01*
X0183743Y0199280D01*
X0183834Y0199403D01*
X0183928Y0199524D01*
X0184026Y0199642D01*
X0184126Y0199758D01*
X0184230Y0199871D01*
X0184336Y0199982D01*
X0184445Y0200090D01*
X0184557Y0200195D01*
X0184671Y0200296D01*
X0184789Y0200395D01*
X0184908Y0200491D01*
X0185030Y0200584D01*
X0185155Y0200673D01*
X0185282Y0200760D01*
X0185411Y0200842D01*
X0185542Y0200922D01*
X0185675Y0200998D01*
X0185810Y0201071D01*
X0185947Y0201140D01*
X0186086Y0201205D01*
X0186226Y0201267D01*
X0186368Y0201325D01*
X0186511Y0201380D01*
X0186656Y0201431D01*
X0186802Y0201478D01*
X0186949Y0201521D01*
X0187097Y0201560D01*
X0187246Y0201596D01*
X0187396Y0201627D01*
X0187547Y0201655D01*
X0187698Y0201679D01*
X0187851Y0201699D01*
X0188003Y0201715D01*
X0188156Y0201727D01*
X0188309Y0201735D01*
X0188462Y0201739D01*
X0188616Y0201739D01*
X0188769Y0201735D01*
X0188922Y0201727D01*
X0189075Y0201715D01*
X0189227Y0201699D01*
X0189380Y0201679D01*
X0189531Y0201655D01*
X0189682Y0201627D01*
X0189832Y0201596D01*
X0189981Y0201560D01*
X0190129Y0201521D01*
X0190276Y0201478D01*
X0190422Y0201431D01*
X0190567Y0201380D01*
X0190710Y0201325D01*
X0190852Y0201267D01*
X0190992Y0201205D01*
X0191131Y0201140D01*
X0191268Y0201071D01*
X0191403Y0200998D01*
X0191536Y0200922D01*
X0191667Y0200842D01*
X0191796Y0200760D01*
X0191923Y0200673D01*
X0192048Y0200584D01*
X0192170Y0200491D01*
X0192289Y0200395D01*
X0192407Y0200296D01*
X0192521Y0200195D01*
X0192633Y0200090D01*
X0192742Y0199982D01*
X0192848Y0199871D01*
X0192952Y0199758D01*
X0193052Y0199642D01*
X0193150Y0199524D01*
X0193244Y0199403D01*
X0193335Y0199280D01*
X0193423Y0199154D01*
X0193507Y0199026D01*
X0193589Y0198896D01*
X0193666Y0198764D01*
X0193741Y0198630D01*
X0193812Y0198494D01*
X0193879Y0198356D01*
X0193943Y0198216D01*
X0194003Y0198075D01*
X0194059Y0197933D01*
X0194112Y0197789D01*
X0194161Y0197643D01*
X0194206Y0197497D01*
X0194247Y0197349D01*
X0194284Y0197201D01*
X0194318Y0197051D01*
X0194348Y0196900D01*
X0194373Y0196749D01*
X0194395Y0196598D01*
X0194413Y0196445D01*
X0194427Y0196293D01*
X0194437Y0196140D01*
X0194443Y0195986D01*
X0194445Y0195833D01*
X0194443Y0195680D01*
X0194437Y0195526D01*
X0194427Y0195373D01*
X0194413Y0195221D01*
X0194395Y0195068D01*
X0194373Y0194917D01*
X0194348Y0194766D01*
X0194318Y0194615D01*
X0194284Y0194465D01*
X0194247Y0194317D01*
X0194206Y0194169D01*
X0194161Y0194023D01*
X0194112Y0193877D01*
X0194059Y0193733D01*
X0194003Y0193591D01*
X0193943Y0193450D01*
X0193879Y0193310D01*
X0193812Y0193172D01*
X0193741Y0193036D01*
X0193666Y0192902D01*
X0193589Y0192770D01*
X0193507Y0192640D01*
X0193423Y0192512D01*
X0193335Y0192386D01*
X0193244Y0192263D01*
X0193150Y0192142D01*
X0193052Y0192024D01*
X0192952Y0191908D01*
X0192848Y0191795D01*
X0192742Y0191684D01*
X0192633Y0191576D01*
X0192521Y0191471D01*
X0192407Y0191370D01*
X0192289Y0191271D01*
X0192170Y0191175D01*
X0192048Y0191082D01*
X0191923Y0190993D01*
X0191796Y0190906D01*
X0191667Y0190824D01*
X0191536Y0190744D01*
X0191403Y0190668D01*
X0191268Y0190595D01*
X0191131Y0190526D01*
X0190992Y0190461D01*
X0190852Y0190399D01*
X0190710Y0190341D01*
X0190567Y0190286D01*
X0190422Y0190235D01*
X0190276Y0190188D01*
X0190129Y0190145D01*
X0189981Y0190106D01*
X0189832Y0190070D01*
X0189682Y0190039D01*
X0189531Y0190011D01*
X0189380Y0189987D01*
X0189227Y0189967D01*
X0189075Y0189951D01*
X0188922Y0189939D01*
X0188769Y0189931D01*
X0188616Y0189927D01*
X0188462Y0189927D01*
X0188309Y0189931D01*
X0188156Y0189939D01*
X0188003Y0189951D01*
X0187851Y0189967D01*
X0187698Y0189987D01*
X0187547Y0190011D01*
X0187396Y0190039D01*
X0187246Y0190070D01*
X0187097Y0190106D01*
X0186949Y0190145D01*
X0186802Y0190188D01*
X0186656Y0190235D01*
X0186511Y0190286D01*
X0186368Y0190341D01*
X0186226Y0190399D01*
X0186086Y0190461D01*
X0185947Y0190526D01*
X0185810Y0190595D01*
X0185675Y0190668D01*
X0185542Y0190744D01*
X0185411Y0190824D01*
X0185282Y0190906D01*
X0185155Y0190993D01*
X0185030Y0191082D01*
X0184908Y0191175D01*
X0184789Y0191271D01*
X0184671Y0191370D01*
X0184557Y0191471D01*
X0184445Y0191576D01*
X0184336Y0191684D01*
X0184230Y0191795D01*
X0184126Y0191908D01*
X0184026Y0192024D01*
X0183928Y0192142D01*
X0183834Y0192263D01*
X0183743Y0192386D01*
X0183655Y0192512D01*
X0183571Y0192640D01*
X0183489Y0192770D01*
X0183412Y0192902D01*
X0183337Y0193036D01*
X0183266Y0193172D01*
X0183199Y0193310D01*
X0183135Y0193450D01*
X0183075Y0193591D01*
X0183019Y0193733D01*
X0182966Y0193877D01*
X0182917Y0194023D01*
X0182872Y0194169D01*
X0182831Y0194317D01*
X0182794Y0194465D01*
X0182760Y0194615D01*
X0182730Y0194766D01*
X0182705Y0194917D01*
X0182683Y0195068D01*
X0182665Y0195221D01*
X0182651Y0195373D01*
X0182641Y0195526D01*
X0182635Y0195680D01*
X0182633Y0195833D01*
X0277633Y0305833D02*
X0277635Y0305986D01*
X0277641Y0306140D01*
X0277651Y0306293D01*
X0277665Y0306445D01*
X0277683Y0306598D01*
X0277705Y0306749D01*
X0277730Y0306900D01*
X0277760Y0307051D01*
X0277794Y0307201D01*
X0277831Y0307349D01*
X0277872Y0307497D01*
X0277917Y0307643D01*
X0277966Y0307789D01*
X0278019Y0307933D01*
X0278075Y0308075D01*
X0278135Y0308216D01*
X0278199Y0308356D01*
X0278266Y0308494D01*
X0278337Y0308630D01*
X0278412Y0308764D01*
X0278489Y0308896D01*
X0278571Y0309026D01*
X0278655Y0309154D01*
X0278743Y0309280D01*
X0278834Y0309403D01*
X0278928Y0309524D01*
X0279026Y0309642D01*
X0279126Y0309758D01*
X0279230Y0309871D01*
X0279336Y0309982D01*
X0279445Y0310090D01*
X0279557Y0310195D01*
X0279671Y0310296D01*
X0279789Y0310395D01*
X0279908Y0310491D01*
X0280030Y0310584D01*
X0280155Y0310673D01*
X0280282Y0310760D01*
X0280411Y0310842D01*
X0280542Y0310922D01*
X0280675Y0310998D01*
X0280810Y0311071D01*
X0280947Y0311140D01*
X0281086Y0311205D01*
X0281226Y0311267D01*
X0281368Y0311325D01*
X0281511Y0311380D01*
X0281656Y0311431D01*
X0281802Y0311478D01*
X0281949Y0311521D01*
X0282097Y0311560D01*
X0282246Y0311596D01*
X0282396Y0311627D01*
X0282547Y0311655D01*
X0282698Y0311679D01*
X0282851Y0311699D01*
X0283003Y0311715D01*
X0283156Y0311727D01*
X0283309Y0311735D01*
X0283462Y0311739D01*
X0283616Y0311739D01*
X0283769Y0311735D01*
X0283922Y0311727D01*
X0284075Y0311715D01*
X0284227Y0311699D01*
X0284380Y0311679D01*
X0284531Y0311655D01*
X0284682Y0311627D01*
X0284832Y0311596D01*
X0284981Y0311560D01*
X0285129Y0311521D01*
X0285276Y0311478D01*
X0285422Y0311431D01*
X0285567Y0311380D01*
X0285710Y0311325D01*
X0285852Y0311267D01*
X0285992Y0311205D01*
X0286131Y0311140D01*
X0286268Y0311071D01*
X0286403Y0310998D01*
X0286536Y0310922D01*
X0286667Y0310842D01*
X0286796Y0310760D01*
X0286923Y0310673D01*
X0287048Y0310584D01*
X0287170Y0310491D01*
X0287289Y0310395D01*
X0287407Y0310296D01*
X0287521Y0310195D01*
X0287633Y0310090D01*
X0287742Y0309982D01*
X0287848Y0309871D01*
X0287952Y0309758D01*
X0288052Y0309642D01*
X0288150Y0309524D01*
X0288244Y0309403D01*
X0288335Y0309280D01*
X0288423Y0309154D01*
X0288507Y0309026D01*
X0288589Y0308896D01*
X0288666Y0308764D01*
X0288741Y0308630D01*
X0288812Y0308494D01*
X0288879Y0308356D01*
X0288943Y0308216D01*
X0289003Y0308075D01*
X0289059Y0307933D01*
X0289112Y0307789D01*
X0289161Y0307643D01*
X0289206Y0307497D01*
X0289247Y0307349D01*
X0289284Y0307201D01*
X0289318Y0307051D01*
X0289348Y0306900D01*
X0289373Y0306749D01*
X0289395Y0306598D01*
X0289413Y0306445D01*
X0289427Y0306293D01*
X0289437Y0306140D01*
X0289443Y0305986D01*
X0289445Y0305833D01*
X0289443Y0305680D01*
X0289437Y0305526D01*
X0289427Y0305373D01*
X0289413Y0305221D01*
X0289395Y0305068D01*
X0289373Y0304917D01*
X0289348Y0304766D01*
X0289318Y0304615D01*
X0289284Y0304465D01*
X0289247Y0304317D01*
X0289206Y0304169D01*
X0289161Y0304023D01*
X0289112Y0303877D01*
X0289059Y0303733D01*
X0289003Y0303591D01*
X0288943Y0303450D01*
X0288879Y0303310D01*
X0288812Y0303172D01*
X0288741Y0303036D01*
X0288666Y0302902D01*
X0288589Y0302770D01*
X0288507Y0302640D01*
X0288423Y0302512D01*
X0288335Y0302386D01*
X0288244Y0302263D01*
X0288150Y0302142D01*
X0288052Y0302024D01*
X0287952Y0301908D01*
X0287848Y0301795D01*
X0287742Y0301684D01*
X0287633Y0301576D01*
X0287521Y0301471D01*
X0287407Y0301370D01*
X0287289Y0301271D01*
X0287170Y0301175D01*
X0287048Y0301082D01*
X0286923Y0300993D01*
X0286796Y0300906D01*
X0286667Y0300824D01*
X0286536Y0300744D01*
X0286403Y0300668D01*
X0286268Y0300595D01*
X0286131Y0300526D01*
X0285992Y0300461D01*
X0285852Y0300399D01*
X0285710Y0300341D01*
X0285567Y0300286D01*
X0285422Y0300235D01*
X0285276Y0300188D01*
X0285129Y0300145D01*
X0284981Y0300106D01*
X0284832Y0300070D01*
X0284682Y0300039D01*
X0284531Y0300011D01*
X0284380Y0299987D01*
X0284227Y0299967D01*
X0284075Y0299951D01*
X0283922Y0299939D01*
X0283769Y0299931D01*
X0283616Y0299927D01*
X0283462Y0299927D01*
X0283309Y0299931D01*
X0283156Y0299939D01*
X0283003Y0299951D01*
X0282851Y0299967D01*
X0282698Y0299987D01*
X0282547Y0300011D01*
X0282396Y0300039D01*
X0282246Y0300070D01*
X0282097Y0300106D01*
X0281949Y0300145D01*
X0281802Y0300188D01*
X0281656Y0300235D01*
X0281511Y0300286D01*
X0281368Y0300341D01*
X0281226Y0300399D01*
X0281086Y0300461D01*
X0280947Y0300526D01*
X0280810Y0300595D01*
X0280675Y0300668D01*
X0280542Y0300744D01*
X0280411Y0300824D01*
X0280282Y0300906D01*
X0280155Y0300993D01*
X0280030Y0301082D01*
X0279908Y0301175D01*
X0279789Y0301271D01*
X0279671Y0301370D01*
X0279557Y0301471D01*
X0279445Y0301576D01*
X0279336Y0301684D01*
X0279230Y0301795D01*
X0279126Y0301908D01*
X0279026Y0302024D01*
X0278928Y0302142D01*
X0278834Y0302263D01*
X0278743Y0302386D01*
X0278655Y0302512D01*
X0278571Y0302640D01*
X0278489Y0302770D01*
X0278412Y0302902D01*
X0278337Y0303036D01*
X0278266Y0303172D01*
X0278199Y0303310D01*
X0278135Y0303450D01*
X0278075Y0303591D01*
X0278019Y0303733D01*
X0277966Y0303877D01*
X0277917Y0304023D01*
X0277872Y0304169D01*
X0277831Y0304317D01*
X0277794Y0304465D01*
X0277760Y0304615D01*
X0277730Y0304766D01*
X0277705Y0304917D01*
X0277683Y0305068D01*
X0277665Y0305221D01*
X0277651Y0305373D01*
X0277641Y0305526D01*
X0277635Y0305680D01*
X0277633Y0305833D01*
X0312633Y0180833D02*
X0312635Y0180986D01*
X0312641Y0181140D01*
X0312651Y0181293D01*
X0312665Y0181445D01*
X0312683Y0181598D01*
X0312705Y0181749D01*
X0312730Y0181900D01*
X0312760Y0182051D01*
X0312794Y0182201D01*
X0312831Y0182349D01*
X0312872Y0182497D01*
X0312917Y0182643D01*
X0312966Y0182789D01*
X0313019Y0182933D01*
X0313075Y0183075D01*
X0313135Y0183216D01*
X0313199Y0183356D01*
X0313266Y0183494D01*
X0313337Y0183630D01*
X0313412Y0183764D01*
X0313489Y0183896D01*
X0313571Y0184026D01*
X0313655Y0184154D01*
X0313743Y0184280D01*
X0313834Y0184403D01*
X0313928Y0184524D01*
X0314026Y0184642D01*
X0314126Y0184758D01*
X0314230Y0184871D01*
X0314336Y0184982D01*
X0314445Y0185090D01*
X0314557Y0185195D01*
X0314671Y0185296D01*
X0314789Y0185395D01*
X0314908Y0185491D01*
X0315030Y0185584D01*
X0315155Y0185673D01*
X0315282Y0185760D01*
X0315411Y0185842D01*
X0315542Y0185922D01*
X0315675Y0185998D01*
X0315810Y0186071D01*
X0315947Y0186140D01*
X0316086Y0186205D01*
X0316226Y0186267D01*
X0316368Y0186325D01*
X0316511Y0186380D01*
X0316656Y0186431D01*
X0316802Y0186478D01*
X0316949Y0186521D01*
X0317097Y0186560D01*
X0317246Y0186596D01*
X0317396Y0186627D01*
X0317547Y0186655D01*
X0317698Y0186679D01*
X0317851Y0186699D01*
X0318003Y0186715D01*
X0318156Y0186727D01*
X0318309Y0186735D01*
X0318462Y0186739D01*
X0318616Y0186739D01*
X0318769Y0186735D01*
X0318922Y0186727D01*
X0319075Y0186715D01*
X0319227Y0186699D01*
X0319380Y0186679D01*
X0319531Y0186655D01*
X0319682Y0186627D01*
X0319832Y0186596D01*
X0319981Y0186560D01*
X0320129Y0186521D01*
X0320276Y0186478D01*
X0320422Y0186431D01*
X0320567Y0186380D01*
X0320710Y0186325D01*
X0320852Y0186267D01*
X0320992Y0186205D01*
X0321131Y0186140D01*
X0321268Y0186071D01*
X0321403Y0185998D01*
X0321536Y0185922D01*
X0321667Y0185842D01*
X0321796Y0185760D01*
X0321923Y0185673D01*
X0322048Y0185584D01*
X0322170Y0185491D01*
X0322289Y0185395D01*
X0322407Y0185296D01*
X0322521Y0185195D01*
X0322633Y0185090D01*
X0322742Y0184982D01*
X0322848Y0184871D01*
X0322952Y0184758D01*
X0323052Y0184642D01*
X0323150Y0184524D01*
X0323244Y0184403D01*
X0323335Y0184280D01*
X0323423Y0184154D01*
X0323507Y0184026D01*
X0323589Y0183896D01*
X0323666Y0183764D01*
X0323741Y0183630D01*
X0323812Y0183494D01*
X0323879Y0183356D01*
X0323943Y0183216D01*
X0324003Y0183075D01*
X0324059Y0182933D01*
X0324112Y0182789D01*
X0324161Y0182643D01*
X0324206Y0182497D01*
X0324247Y0182349D01*
X0324284Y0182201D01*
X0324318Y0182051D01*
X0324348Y0181900D01*
X0324373Y0181749D01*
X0324395Y0181598D01*
X0324413Y0181445D01*
X0324427Y0181293D01*
X0324437Y0181140D01*
X0324443Y0180986D01*
X0324445Y0180833D01*
X0324443Y0180680D01*
X0324437Y0180526D01*
X0324427Y0180373D01*
X0324413Y0180221D01*
X0324395Y0180068D01*
X0324373Y0179917D01*
X0324348Y0179766D01*
X0324318Y0179615D01*
X0324284Y0179465D01*
X0324247Y0179317D01*
X0324206Y0179169D01*
X0324161Y0179023D01*
X0324112Y0178877D01*
X0324059Y0178733D01*
X0324003Y0178591D01*
X0323943Y0178450D01*
X0323879Y0178310D01*
X0323812Y0178172D01*
X0323741Y0178036D01*
X0323666Y0177902D01*
X0323589Y0177770D01*
X0323507Y0177640D01*
X0323423Y0177512D01*
X0323335Y0177386D01*
X0323244Y0177263D01*
X0323150Y0177142D01*
X0323052Y0177024D01*
X0322952Y0176908D01*
X0322848Y0176795D01*
X0322742Y0176684D01*
X0322633Y0176576D01*
X0322521Y0176471D01*
X0322407Y0176370D01*
X0322289Y0176271D01*
X0322170Y0176175D01*
X0322048Y0176082D01*
X0321923Y0175993D01*
X0321796Y0175906D01*
X0321667Y0175824D01*
X0321536Y0175744D01*
X0321403Y0175668D01*
X0321268Y0175595D01*
X0321131Y0175526D01*
X0320992Y0175461D01*
X0320852Y0175399D01*
X0320710Y0175341D01*
X0320567Y0175286D01*
X0320422Y0175235D01*
X0320276Y0175188D01*
X0320129Y0175145D01*
X0319981Y0175106D01*
X0319832Y0175070D01*
X0319682Y0175039D01*
X0319531Y0175011D01*
X0319380Y0174987D01*
X0319227Y0174967D01*
X0319075Y0174951D01*
X0318922Y0174939D01*
X0318769Y0174931D01*
X0318616Y0174927D01*
X0318462Y0174927D01*
X0318309Y0174931D01*
X0318156Y0174939D01*
X0318003Y0174951D01*
X0317851Y0174967D01*
X0317698Y0174987D01*
X0317547Y0175011D01*
X0317396Y0175039D01*
X0317246Y0175070D01*
X0317097Y0175106D01*
X0316949Y0175145D01*
X0316802Y0175188D01*
X0316656Y0175235D01*
X0316511Y0175286D01*
X0316368Y0175341D01*
X0316226Y0175399D01*
X0316086Y0175461D01*
X0315947Y0175526D01*
X0315810Y0175595D01*
X0315675Y0175668D01*
X0315542Y0175744D01*
X0315411Y0175824D01*
X0315282Y0175906D01*
X0315155Y0175993D01*
X0315030Y0176082D01*
X0314908Y0176175D01*
X0314789Y0176271D01*
X0314671Y0176370D01*
X0314557Y0176471D01*
X0314445Y0176576D01*
X0314336Y0176684D01*
X0314230Y0176795D01*
X0314126Y0176908D01*
X0314026Y0177024D01*
X0313928Y0177142D01*
X0313834Y0177263D01*
X0313743Y0177386D01*
X0313655Y0177512D01*
X0313571Y0177640D01*
X0313489Y0177770D01*
X0313412Y0177902D01*
X0313337Y0178036D01*
X0313266Y0178172D01*
X0313199Y0178310D01*
X0313135Y0178450D01*
X0313075Y0178591D01*
X0313019Y0178733D01*
X0312966Y0178877D01*
X0312917Y0179023D01*
X0312872Y0179169D01*
X0312831Y0179317D01*
X0312794Y0179465D01*
X0312760Y0179615D01*
X0312730Y0179766D01*
X0312705Y0179917D01*
X0312683Y0180068D01*
X0312665Y0180221D01*
X0312651Y0180373D01*
X0312641Y0180526D01*
X0312635Y0180680D01*
X0312633Y0180833D01*
X0302633Y0025833D02*
X0302635Y0025986D01*
X0302641Y0026140D01*
X0302651Y0026293D01*
X0302665Y0026445D01*
X0302683Y0026598D01*
X0302705Y0026749D01*
X0302730Y0026900D01*
X0302760Y0027051D01*
X0302794Y0027201D01*
X0302831Y0027349D01*
X0302872Y0027497D01*
X0302917Y0027643D01*
X0302966Y0027789D01*
X0303019Y0027933D01*
X0303075Y0028075D01*
X0303135Y0028216D01*
X0303199Y0028356D01*
X0303266Y0028494D01*
X0303337Y0028630D01*
X0303412Y0028764D01*
X0303489Y0028896D01*
X0303571Y0029026D01*
X0303655Y0029154D01*
X0303743Y0029280D01*
X0303834Y0029403D01*
X0303928Y0029524D01*
X0304026Y0029642D01*
X0304126Y0029758D01*
X0304230Y0029871D01*
X0304336Y0029982D01*
X0304445Y0030090D01*
X0304557Y0030195D01*
X0304671Y0030296D01*
X0304789Y0030395D01*
X0304908Y0030491D01*
X0305030Y0030584D01*
X0305155Y0030673D01*
X0305282Y0030760D01*
X0305411Y0030842D01*
X0305542Y0030922D01*
X0305675Y0030998D01*
X0305810Y0031071D01*
X0305947Y0031140D01*
X0306086Y0031205D01*
X0306226Y0031267D01*
X0306368Y0031325D01*
X0306511Y0031380D01*
X0306656Y0031431D01*
X0306802Y0031478D01*
X0306949Y0031521D01*
X0307097Y0031560D01*
X0307246Y0031596D01*
X0307396Y0031627D01*
X0307547Y0031655D01*
X0307698Y0031679D01*
X0307851Y0031699D01*
X0308003Y0031715D01*
X0308156Y0031727D01*
X0308309Y0031735D01*
X0308462Y0031739D01*
X0308616Y0031739D01*
X0308769Y0031735D01*
X0308922Y0031727D01*
X0309075Y0031715D01*
X0309227Y0031699D01*
X0309380Y0031679D01*
X0309531Y0031655D01*
X0309682Y0031627D01*
X0309832Y0031596D01*
X0309981Y0031560D01*
X0310129Y0031521D01*
X0310276Y0031478D01*
X0310422Y0031431D01*
X0310567Y0031380D01*
X0310710Y0031325D01*
X0310852Y0031267D01*
X0310992Y0031205D01*
X0311131Y0031140D01*
X0311268Y0031071D01*
X0311403Y0030998D01*
X0311536Y0030922D01*
X0311667Y0030842D01*
X0311796Y0030760D01*
X0311923Y0030673D01*
X0312048Y0030584D01*
X0312170Y0030491D01*
X0312289Y0030395D01*
X0312407Y0030296D01*
X0312521Y0030195D01*
X0312633Y0030090D01*
X0312742Y0029982D01*
X0312848Y0029871D01*
X0312952Y0029758D01*
X0313052Y0029642D01*
X0313150Y0029524D01*
X0313244Y0029403D01*
X0313335Y0029280D01*
X0313423Y0029154D01*
X0313507Y0029026D01*
X0313589Y0028896D01*
X0313666Y0028764D01*
X0313741Y0028630D01*
X0313812Y0028494D01*
X0313879Y0028356D01*
X0313943Y0028216D01*
X0314003Y0028075D01*
X0314059Y0027933D01*
X0314112Y0027789D01*
X0314161Y0027643D01*
X0314206Y0027497D01*
X0314247Y0027349D01*
X0314284Y0027201D01*
X0314318Y0027051D01*
X0314348Y0026900D01*
X0314373Y0026749D01*
X0314395Y0026598D01*
X0314413Y0026445D01*
X0314427Y0026293D01*
X0314437Y0026140D01*
X0314443Y0025986D01*
X0314445Y0025833D01*
X0314443Y0025680D01*
X0314437Y0025526D01*
X0314427Y0025373D01*
X0314413Y0025221D01*
X0314395Y0025068D01*
X0314373Y0024917D01*
X0314348Y0024766D01*
X0314318Y0024615D01*
X0314284Y0024465D01*
X0314247Y0024317D01*
X0314206Y0024169D01*
X0314161Y0024023D01*
X0314112Y0023877D01*
X0314059Y0023733D01*
X0314003Y0023591D01*
X0313943Y0023450D01*
X0313879Y0023310D01*
X0313812Y0023172D01*
X0313741Y0023036D01*
X0313666Y0022902D01*
X0313589Y0022770D01*
X0313507Y0022640D01*
X0313423Y0022512D01*
X0313335Y0022386D01*
X0313244Y0022263D01*
X0313150Y0022142D01*
X0313052Y0022024D01*
X0312952Y0021908D01*
X0312848Y0021795D01*
X0312742Y0021684D01*
X0312633Y0021576D01*
X0312521Y0021471D01*
X0312407Y0021370D01*
X0312289Y0021271D01*
X0312170Y0021175D01*
X0312048Y0021082D01*
X0311923Y0020993D01*
X0311796Y0020906D01*
X0311667Y0020824D01*
X0311536Y0020744D01*
X0311403Y0020668D01*
X0311268Y0020595D01*
X0311131Y0020526D01*
X0310992Y0020461D01*
X0310852Y0020399D01*
X0310710Y0020341D01*
X0310567Y0020286D01*
X0310422Y0020235D01*
X0310276Y0020188D01*
X0310129Y0020145D01*
X0309981Y0020106D01*
X0309832Y0020070D01*
X0309682Y0020039D01*
X0309531Y0020011D01*
X0309380Y0019987D01*
X0309227Y0019967D01*
X0309075Y0019951D01*
X0308922Y0019939D01*
X0308769Y0019931D01*
X0308616Y0019927D01*
X0308462Y0019927D01*
X0308309Y0019931D01*
X0308156Y0019939D01*
X0308003Y0019951D01*
X0307851Y0019967D01*
X0307698Y0019987D01*
X0307547Y0020011D01*
X0307396Y0020039D01*
X0307246Y0020070D01*
X0307097Y0020106D01*
X0306949Y0020145D01*
X0306802Y0020188D01*
X0306656Y0020235D01*
X0306511Y0020286D01*
X0306368Y0020341D01*
X0306226Y0020399D01*
X0306086Y0020461D01*
X0305947Y0020526D01*
X0305810Y0020595D01*
X0305675Y0020668D01*
X0305542Y0020744D01*
X0305411Y0020824D01*
X0305282Y0020906D01*
X0305155Y0020993D01*
X0305030Y0021082D01*
X0304908Y0021175D01*
X0304789Y0021271D01*
X0304671Y0021370D01*
X0304557Y0021471D01*
X0304445Y0021576D01*
X0304336Y0021684D01*
X0304230Y0021795D01*
X0304126Y0021908D01*
X0304026Y0022024D01*
X0303928Y0022142D01*
X0303834Y0022263D01*
X0303743Y0022386D01*
X0303655Y0022512D01*
X0303571Y0022640D01*
X0303489Y0022770D01*
X0303412Y0022902D01*
X0303337Y0023036D01*
X0303266Y0023172D01*
X0303199Y0023310D01*
X0303135Y0023450D01*
X0303075Y0023591D01*
X0303019Y0023733D01*
X0302966Y0023877D01*
X0302917Y0024023D01*
X0302872Y0024169D01*
X0302831Y0024317D01*
X0302794Y0024465D01*
X0302760Y0024615D01*
X0302730Y0024766D01*
X0302705Y0024917D01*
X0302683Y0025068D01*
X0302665Y0025221D01*
X0302651Y0025373D01*
X0302641Y0025526D01*
X0302635Y0025680D01*
X0302633Y0025833D01*
X0082633Y0315833D02*
X0082635Y0315986D01*
X0082641Y0316140D01*
X0082651Y0316293D01*
X0082665Y0316445D01*
X0082683Y0316598D01*
X0082705Y0316749D01*
X0082730Y0316900D01*
X0082760Y0317051D01*
X0082794Y0317201D01*
X0082831Y0317349D01*
X0082872Y0317497D01*
X0082917Y0317643D01*
X0082966Y0317789D01*
X0083019Y0317933D01*
X0083075Y0318075D01*
X0083135Y0318216D01*
X0083199Y0318356D01*
X0083266Y0318494D01*
X0083337Y0318630D01*
X0083412Y0318764D01*
X0083489Y0318896D01*
X0083571Y0319026D01*
X0083655Y0319154D01*
X0083743Y0319280D01*
X0083834Y0319403D01*
X0083928Y0319524D01*
X0084026Y0319642D01*
X0084126Y0319758D01*
X0084230Y0319871D01*
X0084336Y0319982D01*
X0084445Y0320090D01*
X0084557Y0320195D01*
X0084671Y0320296D01*
X0084789Y0320395D01*
X0084908Y0320491D01*
X0085030Y0320584D01*
X0085155Y0320673D01*
X0085282Y0320760D01*
X0085411Y0320842D01*
X0085542Y0320922D01*
X0085675Y0320998D01*
X0085810Y0321071D01*
X0085947Y0321140D01*
X0086086Y0321205D01*
X0086226Y0321267D01*
X0086368Y0321325D01*
X0086511Y0321380D01*
X0086656Y0321431D01*
X0086802Y0321478D01*
X0086949Y0321521D01*
X0087097Y0321560D01*
X0087246Y0321596D01*
X0087396Y0321627D01*
X0087547Y0321655D01*
X0087698Y0321679D01*
X0087851Y0321699D01*
X0088003Y0321715D01*
X0088156Y0321727D01*
X0088309Y0321735D01*
X0088462Y0321739D01*
X0088616Y0321739D01*
X0088769Y0321735D01*
X0088922Y0321727D01*
X0089075Y0321715D01*
X0089227Y0321699D01*
X0089380Y0321679D01*
X0089531Y0321655D01*
X0089682Y0321627D01*
X0089832Y0321596D01*
X0089981Y0321560D01*
X0090129Y0321521D01*
X0090276Y0321478D01*
X0090422Y0321431D01*
X0090567Y0321380D01*
X0090710Y0321325D01*
X0090852Y0321267D01*
X0090992Y0321205D01*
X0091131Y0321140D01*
X0091268Y0321071D01*
X0091403Y0320998D01*
X0091536Y0320922D01*
X0091667Y0320842D01*
X0091796Y0320760D01*
X0091923Y0320673D01*
X0092048Y0320584D01*
X0092170Y0320491D01*
X0092289Y0320395D01*
X0092407Y0320296D01*
X0092521Y0320195D01*
X0092633Y0320090D01*
X0092742Y0319982D01*
X0092848Y0319871D01*
X0092952Y0319758D01*
X0093052Y0319642D01*
X0093150Y0319524D01*
X0093244Y0319403D01*
X0093335Y0319280D01*
X0093423Y0319154D01*
X0093507Y0319026D01*
X0093589Y0318896D01*
X0093666Y0318764D01*
X0093741Y0318630D01*
X0093812Y0318494D01*
X0093879Y0318356D01*
X0093943Y0318216D01*
X0094003Y0318075D01*
X0094059Y0317933D01*
X0094112Y0317789D01*
X0094161Y0317643D01*
X0094206Y0317497D01*
X0094247Y0317349D01*
X0094284Y0317201D01*
X0094318Y0317051D01*
X0094348Y0316900D01*
X0094373Y0316749D01*
X0094395Y0316598D01*
X0094413Y0316445D01*
X0094427Y0316293D01*
X0094437Y0316140D01*
X0094443Y0315986D01*
X0094445Y0315833D01*
X0094443Y0315680D01*
X0094437Y0315526D01*
X0094427Y0315373D01*
X0094413Y0315221D01*
X0094395Y0315068D01*
X0094373Y0314917D01*
X0094348Y0314766D01*
X0094318Y0314615D01*
X0094284Y0314465D01*
X0094247Y0314317D01*
X0094206Y0314169D01*
X0094161Y0314023D01*
X0094112Y0313877D01*
X0094059Y0313733D01*
X0094003Y0313591D01*
X0093943Y0313450D01*
X0093879Y0313310D01*
X0093812Y0313172D01*
X0093741Y0313036D01*
X0093666Y0312902D01*
X0093589Y0312770D01*
X0093507Y0312640D01*
X0093423Y0312512D01*
X0093335Y0312386D01*
X0093244Y0312263D01*
X0093150Y0312142D01*
X0093052Y0312024D01*
X0092952Y0311908D01*
X0092848Y0311795D01*
X0092742Y0311684D01*
X0092633Y0311576D01*
X0092521Y0311471D01*
X0092407Y0311370D01*
X0092289Y0311271D01*
X0092170Y0311175D01*
X0092048Y0311082D01*
X0091923Y0310993D01*
X0091796Y0310906D01*
X0091667Y0310824D01*
X0091536Y0310744D01*
X0091403Y0310668D01*
X0091268Y0310595D01*
X0091131Y0310526D01*
X0090992Y0310461D01*
X0090852Y0310399D01*
X0090710Y0310341D01*
X0090567Y0310286D01*
X0090422Y0310235D01*
X0090276Y0310188D01*
X0090129Y0310145D01*
X0089981Y0310106D01*
X0089832Y0310070D01*
X0089682Y0310039D01*
X0089531Y0310011D01*
X0089380Y0309987D01*
X0089227Y0309967D01*
X0089075Y0309951D01*
X0088922Y0309939D01*
X0088769Y0309931D01*
X0088616Y0309927D01*
X0088462Y0309927D01*
X0088309Y0309931D01*
X0088156Y0309939D01*
X0088003Y0309951D01*
X0087851Y0309967D01*
X0087698Y0309987D01*
X0087547Y0310011D01*
X0087396Y0310039D01*
X0087246Y0310070D01*
X0087097Y0310106D01*
X0086949Y0310145D01*
X0086802Y0310188D01*
X0086656Y0310235D01*
X0086511Y0310286D01*
X0086368Y0310341D01*
X0086226Y0310399D01*
X0086086Y0310461D01*
X0085947Y0310526D01*
X0085810Y0310595D01*
X0085675Y0310668D01*
X0085542Y0310744D01*
X0085411Y0310824D01*
X0085282Y0310906D01*
X0085155Y0310993D01*
X0085030Y0311082D01*
X0084908Y0311175D01*
X0084789Y0311271D01*
X0084671Y0311370D01*
X0084557Y0311471D01*
X0084445Y0311576D01*
X0084336Y0311684D01*
X0084230Y0311795D01*
X0084126Y0311908D01*
X0084026Y0312024D01*
X0083928Y0312142D01*
X0083834Y0312263D01*
X0083743Y0312386D01*
X0083655Y0312512D01*
X0083571Y0312640D01*
X0083489Y0312770D01*
X0083412Y0312902D01*
X0083337Y0313036D01*
X0083266Y0313172D01*
X0083199Y0313310D01*
X0083135Y0313450D01*
X0083075Y0313591D01*
X0083019Y0313733D01*
X0082966Y0313877D01*
X0082917Y0314023D01*
X0082872Y0314169D01*
X0082831Y0314317D01*
X0082794Y0314465D01*
X0082760Y0314615D01*
X0082730Y0314766D01*
X0082705Y0314917D01*
X0082683Y0315068D01*
X0082665Y0315221D01*
X0082651Y0315373D01*
X0082641Y0315526D01*
X0082635Y0315680D01*
X0082633Y0315833D01*
D11*
X0103539Y0103904D03*
X0103539Y0087762D03*
D12*
X0180527Y0080833D03*
X0191551Y0080833D03*
D13*
X0256039Y0087735D03*
X0256039Y0098932D03*
X0256039Y0110235D03*
X0256039Y0121432D03*
X0298539Y0145235D03*
X0298539Y0156432D03*
X0253539Y0202735D03*
X0253539Y0213932D03*
X0253539Y0225235D03*
X0253539Y0236432D03*
X0298539Y0240235D03*
X0298539Y0251432D03*
X0298539Y0223932D03*
X0298539Y0212735D03*
X0263539Y0290235D03*
X0263539Y0301432D03*
X0158539Y0286432D03*
X0158539Y0275235D03*
X0138539Y0275235D03*
X0138539Y0286432D03*
X0108539Y0146432D03*
X0108539Y0135235D03*
D14*
X0112941Y0185833D03*
X0124138Y0185833D03*
X0124138Y0205833D03*
X0112941Y0205833D03*
X0112941Y0225833D03*
X0124138Y0225833D03*
X0124138Y0245833D03*
X0112941Y0245833D03*
X0207941Y0230833D03*
X0219138Y0230833D03*
M02*
