%
M48
M72
T01C0.02362
T02C0.04000
T03C0.04700
%
T01
X143539Y110833
X143539Y120833
X128539Y125833
X128539Y135833
X143539Y135833
X128539Y150833
X126039Y165833
X126039Y173333
X126039Y193333
X126039Y213333
X128539Y230833
X138539Y235833
X143539Y250833
X133539Y260833
X128539Y250833
X118539Y255833
X118539Y240833
X153539Y260833
X178539Y213333
X198539Y213333
X203539Y218333
X213539Y198333
X211039Y190833
X223539Y190833
X233539Y190833
X211039Y173333
X206039Y160833
X198539Y165833
X188539Y165833
X183539Y160833
X193539Y150833
X223539Y160833
X261039Y160833
X273539Y135833
X291039Y130833
X296039Y160833
X298539Y165833
X293539Y195833
X293539Y228333
X283539Y245833
X256039Y268333
X253539Y295833
X226039Y228333
X238539Y215833
X206039Y110833
X213539Y80833
X228539Y60833
X246039Y58333
T02
X88539Y18333
X88539Y28333
X88539Y38333
X88539Y48333
X88539Y68333
X88539Y78333
X88539Y88333
X86039Y113333
X96039Y113333
X106039Y113333
X153039Y105833
X154039Y115833
X153039Y125833
X154039Y135833
X153039Y145833
X154039Y155833
X153039Y165833
X154039Y175833
X153039Y185833
X154039Y195833
X153039Y205833
X154039Y215833
X169039Y205833
X178539Y205333
X188539Y206333
X198539Y205333
X208539Y206333
X229039Y205833
X228039Y195833
X229039Y185833
X228039Y175833
X229039Y165833
X228039Y155833
X229039Y145833
X228039Y135833
X229039Y125833
X228039Y115833
X229039Y105833
X228039Y95833
X229039Y85833
X228039Y75833
X243039Y85833
X244039Y95833
X243039Y105833
X244039Y115833
X243039Y125833
X244039Y135833
X243039Y145833
X244039Y155833
X243039Y165833
X244039Y175833
X243039Y185833
X244039Y195833
X268039Y190833
X269039Y180833
X268039Y170833
X269039Y160833
X268039Y150833
X269039Y125833
X268039Y115833
X269039Y105833
X268039Y95833
X269039Y85833
X268039Y75833
X269039Y65833
X268039Y55833
X269039Y45833
X268039Y35833
X238539Y35333
X228539Y36333
X218539Y35333
X168039Y75833
X169039Y85833
X168039Y95833
X169039Y105833
X168039Y115833
X169039Y125833
X168039Y135833
X169039Y145833
X168039Y155833
X169039Y165833
X168039Y175833
X169039Y185833
X168039Y195833
X268039Y210833
X269039Y200833
X269039Y220833
X268039Y230833
X269039Y240833
X138539Y51533
X138539Y40833
X138539Y30133
T03
X91039Y138333
X91039Y158333
X93539Y180833
X93539Y200833
X93539Y220833
X93539Y240833
X93539Y260833
X138539Y308333
X158539Y308333
X178539Y308333
X316039Y310833
X316039Y290833
X316039Y270833
X316039Y240833
X316039Y220833
X316039Y200833
X316039Y140833
X316039Y120833
M30
