G75*
%MOIN*%
%OFA0B0*%
%FSLAX25Y25*%
%IPPOS*%
%LPD*%
%AMOC8*
5,1,8,0,0,1.08239X$1,22.5*
%
%ADD10C,0.00000*%
%ADD11C,0.07050*%
%ADD12C,0.07400*%
%ADD13R,0.07400X0.07400*%
%ADD14C,0.06000*%
%ADD15R,0.07098X0.06299*%
%ADD16R,0.06299X0.07098*%
%ADD17R,0.03600X0.04500*%
%ADD18R,0.03150X0.03543*%
%ADD19C,0.04000*%
%ADD20C,0.05000*%
%ADD21R,0.03562X0.03562*%
%ADD22C,0.02400*%
%ADD23C,0.03562*%
%ADD24C,0.01600*%
%ADD25C,0.03200*%
D10*
X0073539Y0005833D02*
X0073539Y0325833D01*
X0337240Y0325833D01*
X0337240Y0005833D01*
X0073539Y0005833D01*
D11*
X0087514Y0138333D02*
X0094564Y0138333D01*
X0094564Y0158333D02*
X0087514Y0158333D01*
X0090014Y0180833D02*
X0097064Y0180833D01*
X0097064Y0200833D02*
X0090014Y0200833D01*
X0090014Y0220833D02*
X0097064Y0220833D01*
X0097064Y0240833D02*
X0090014Y0240833D01*
X0090014Y0260833D02*
X0097064Y0260833D01*
X0138539Y0304808D02*
X0138539Y0311858D01*
X0158539Y0311858D02*
X0158539Y0304808D01*
X0178539Y0304808D02*
X0178539Y0311858D01*
X0312514Y0310833D02*
X0319564Y0310833D01*
X0319564Y0290833D02*
X0312514Y0290833D01*
X0312514Y0270833D02*
X0319564Y0270833D01*
X0319564Y0240833D02*
X0312514Y0240833D01*
X0312514Y0220833D02*
X0319564Y0220833D01*
X0319564Y0200833D02*
X0312514Y0200833D01*
X0312514Y0140833D02*
X0319564Y0140833D01*
X0319564Y0120833D02*
X0312514Y0120833D01*
D12*
X0269039Y0125833D03*
X0268039Y0115833D03*
X0269039Y0105833D03*
X0268039Y0095833D03*
X0269039Y0085833D03*
X0268039Y0075833D03*
X0269039Y0065833D03*
X0268039Y0055833D03*
X0269039Y0045833D03*
X0268039Y0035833D03*
X0228539Y0036333D03*
X0218539Y0035333D03*
X0228039Y0075833D03*
X0229039Y0085833D03*
X0228039Y0095833D03*
X0229039Y0105833D03*
X0228039Y0115833D03*
X0229039Y0125833D03*
X0228039Y0135833D03*
X0229039Y0145833D03*
X0228039Y0155833D03*
X0229039Y0165833D03*
X0228039Y0175833D03*
X0229039Y0185833D03*
X0228039Y0195833D03*
X0229039Y0205833D03*
X0244039Y0195833D03*
X0243039Y0185833D03*
X0244039Y0175833D03*
X0243039Y0165833D03*
X0244039Y0155833D03*
X0243039Y0145833D03*
X0244039Y0135833D03*
X0243039Y0125833D03*
X0244039Y0115833D03*
X0243039Y0105833D03*
X0244039Y0095833D03*
X0243039Y0085833D03*
X0268039Y0150833D03*
X0269039Y0160833D03*
X0268039Y0170833D03*
X0269039Y0180833D03*
X0268039Y0190833D03*
X0269039Y0200833D03*
X0268039Y0210833D03*
X0269039Y0220833D03*
X0268039Y0230833D03*
X0269039Y0240833D03*
X0208539Y0206333D03*
X0198539Y0205333D03*
X0188539Y0206333D03*
X0178539Y0205333D03*
X0169039Y0205833D03*
X0168039Y0195833D03*
X0169039Y0185833D03*
X0168039Y0175833D03*
X0169039Y0165833D03*
X0168039Y0155833D03*
X0169039Y0145833D03*
X0168039Y0135833D03*
X0169039Y0125833D03*
X0168039Y0115833D03*
X0169039Y0105833D03*
X0168039Y0095833D03*
X0169039Y0085833D03*
X0168039Y0075833D03*
X0138539Y0051533D03*
X0138539Y0040833D03*
X0138539Y0030133D03*
X0088539Y0028333D03*
X0088539Y0018333D03*
X0088539Y0038333D03*
X0088539Y0048333D03*
X0088539Y0068333D03*
X0088539Y0078333D03*
X0088539Y0088333D03*
X0153039Y0105833D03*
X0154039Y0115833D03*
X0153039Y0125833D03*
X0154039Y0135833D03*
X0153039Y0145833D03*
X0154039Y0155833D03*
X0153039Y0165833D03*
X0154039Y0175833D03*
X0153039Y0185833D03*
X0154039Y0195833D03*
X0153039Y0205833D03*
X0154039Y0215833D03*
D13*
X0238539Y0035333D03*
D14*
X0106039Y0110333D02*
X0106039Y0116333D01*
X0096039Y0116333D02*
X0096039Y0110333D01*
X0086039Y0110333D02*
X0086039Y0116333D01*
D15*
X0223539Y0285235D03*
X0223539Y0296432D03*
D16*
X0272941Y0275833D03*
X0284138Y0275833D03*
D17*
X0241039Y0256583D03*
X0236039Y0256583D03*
X0231039Y0256583D03*
X0226039Y0256583D03*
X0226039Y0235083D03*
X0231039Y0235083D03*
X0236039Y0235083D03*
X0241039Y0235083D03*
D18*
X0242279Y0271896D03*
X0234799Y0271896D03*
X0238539Y0279770D03*
X0238539Y0296896D03*
X0234799Y0304770D03*
X0242279Y0304770D03*
D19*
X0263539Y0255833D02*
X0283539Y0255833D01*
X0288539Y0250833D01*
X0288539Y0220833D01*
X0293539Y0228333D01*
X0288539Y0220833D02*
X0288539Y0190833D01*
X0293539Y0195833D01*
X0288539Y0190833D02*
X0288539Y0168333D01*
X0296039Y0160833D01*
X0288539Y0155833D02*
X0288539Y0168333D01*
X0253539Y0245833D02*
X0223539Y0245833D01*
X0208539Y0230833D01*
X0208539Y0235833D01*
X0188539Y0255833D01*
X0148539Y0255833D01*
X0153539Y0260833D01*
X0148539Y0255833D02*
X0138539Y0255833D01*
X0133539Y0250833D01*
X0133539Y0260833D01*
X0133539Y0250833D02*
X0133539Y0225833D01*
X0128539Y0230833D01*
X0133539Y0225833D02*
X0133539Y0205833D01*
X0126039Y0213333D01*
X0133539Y0205833D02*
X0133539Y0185833D01*
X0126039Y0193333D01*
X0133539Y0185833D02*
X0133539Y0165833D01*
X0126039Y0173333D01*
X0133539Y0165833D02*
X0133539Y0105833D01*
X0143539Y0095833D01*
X0168039Y0095833D01*
X0208539Y0206333D02*
X0208539Y0230833D01*
X0253539Y0245833D02*
X0263539Y0255833D01*
X0178539Y0308333D02*
X0166039Y0320833D01*
X0118539Y0320833D01*
X0093539Y0295833D01*
X0093539Y0260833D01*
D20*
X0091039Y0158333D02*
X0103539Y0145833D01*
X0103539Y0130833D01*
X0096039Y0123333D01*
X0096039Y0113333D01*
X0086039Y0113333D02*
X0086039Y0105833D01*
X0091039Y0100833D01*
X0093539Y0100833D01*
X0103539Y0090833D01*
X0103539Y0085833D01*
X0096039Y0078333D01*
X0088539Y0078333D01*
X0088539Y0088333D02*
X0078539Y0098333D01*
X0078539Y0125833D01*
X0091039Y0138333D01*
X0163539Y0075833D02*
X0168039Y0075833D01*
X0168539Y0075333D01*
X0163539Y0075833D02*
X0148539Y0060833D01*
X0148539Y0045833D01*
X0143539Y0040833D01*
X0138539Y0040833D01*
X0138539Y0030133D02*
X0192839Y0030133D01*
X0218539Y0055833D01*
X0238539Y0055833D01*
X0258539Y0035833D01*
X0268039Y0035833D01*
X0278539Y0035833D01*
X0283539Y0040833D01*
X0283539Y0135833D01*
X0268539Y0150833D01*
X0268039Y0150833D01*
X0218539Y0205833D02*
X0241039Y0228333D01*
X0218539Y0205833D02*
X0218539Y0055833D01*
X0138539Y0030133D02*
X0120339Y0038333D01*
X0088539Y0038333D01*
D21*
X0126039Y0173333D03*
X0126039Y0193333D03*
X0126039Y0213333D03*
X0128539Y0230833D03*
X0133539Y0260833D03*
X0153539Y0260833D03*
X0293539Y0228333D03*
X0293539Y0195833D03*
X0296039Y0160833D03*
D22*
X0298539Y0165833D02*
X0303539Y0170833D01*
X0303539Y0210833D01*
X0313539Y0220833D01*
X0316039Y0220833D01*
X0283539Y0245833D02*
X0281039Y0248333D01*
X0266039Y0248333D01*
X0248539Y0230833D01*
X0248539Y0225833D01*
X0238539Y0215833D01*
X0233539Y0228333D02*
X0226039Y0228333D01*
X0233539Y0228333D02*
X0236039Y0230833D01*
X0236039Y0235083D01*
X0236039Y0256583D02*
X0236039Y0265656D01*
X0242279Y0271896D01*
X0264976Y0271896D01*
X0268539Y0268333D01*
X0313539Y0268333D01*
X0316039Y0270833D01*
X0301039Y0275833D02*
X0316039Y0290833D01*
X0301039Y0275833D02*
X0284138Y0275833D01*
X0272941Y0275833D02*
X0267941Y0280833D01*
X0258539Y0280833D01*
X0253539Y0275833D01*
X0238539Y0275833D01*
X0234799Y0272093D01*
X0234799Y0271896D01*
X0238539Y0279770D02*
X0238539Y0285833D01*
X0233539Y0290833D01*
X0233539Y0298333D01*
X0236039Y0300833D01*
X0238342Y0300833D01*
X0242279Y0304770D01*
X0238539Y0310833D02*
X0316039Y0310833D01*
X0256039Y0268333D02*
X0252789Y0268333D01*
X0241039Y0256583D01*
X0238539Y0279770D02*
X0233075Y0285235D01*
X0223539Y0285235D01*
X0223539Y0296432D02*
X0223539Y0300833D01*
X0228539Y0305833D01*
X0233736Y0305833D01*
X0234799Y0304770D01*
X0234799Y0307093D01*
X0238539Y0310833D01*
X0238539Y0296896D02*
X0252476Y0296896D01*
X0253539Y0295833D01*
X0269039Y0240833D02*
X0281039Y0231333D01*
X0281039Y0150833D01*
X0291039Y0140833D01*
X0291039Y0130833D01*
X0273539Y0135833D02*
X0268539Y0140833D01*
X0248039Y0140833D01*
X0243039Y0145833D01*
X0229039Y0145833D01*
X0228039Y0135833D02*
X0244039Y0135833D01*
X0256039Y0135833D01*
X0261039Y0130833D01*
X0261039Y0082833D01*
X0268039Y0075833D01*
X0269039Y0065833D02*
X0256039Y0078833D01*
X0256039Y0123333D01*
X0253539Y0125833D01*
X0243039Y0125833D01*
X0229039Y0125833D01*
X0228039Y0115833D02*
X0244039Y0115833D01*
X0246039Y0115833D01*
X0251039Y0110833D01*
X0251039Y0072833D01*
X0268039Y0055833D01*
X0246039Y0058333D02*
X0246039Y0083333D01*
X0243539Y0085833D01*
X0243039Y0085833D01*
X0229039Y0085833D01*
X0223539Y0083333D02*
X0223539Y0090833D01*
X0228039Y0095333D01*
X0228039Y0095833D01*
X0244039Y0095833D01*
X0243039Y0105833D02*
X0229039Y0105833D01*
X0211039Y0098333D02*
X0198539Y0085833D01*
X0208539Y0085833D01*
X0213539Y0080833D01*
X0198539Y0085833D02*
X0169039Y0085833D01*
X0169039Y0105833D02*
X0153039Y0105833D01*
X0148539Y0105833D01*
X0143539Y0110833D01*
X0148539Y0115833D02*
X0143539Y0120833D01*
X0148539Y0115833D02*
X0154039Y0115833D01*
X0168039Y0115833D01*
X0169039Y0125833D02*
X0153039Y0125833D01*
X0153039Y0126333D01*
X0143539Y0135833D01*
X0153539Y0135833D02*
X0138539Y0150833D01*
X0138539Y0235833D01*
X0143539Y0250833D02*
X0143539Y0163333D01*
X0151039Y0155833D01*
X0154039Y0155833D01*
X0168039Y0155833D01*
X0169039Y0145833D02*
X0178539Y0145833D01*
X0193539Y0160833D01*
X0193539Y0175833D01*
X0208539Y0190833D01*
X0211039Y0190833D01*
X0211039Y0195833D02*
X0213539Y0198333D01*
X0211039Y0195833D02*
X0168039Y0195833D01*
X0154039Y0195833D01*
X0153039Y0185833D02*
X0169039Y0185833D01*
X0188539Y0166333D01*
X0188539Y0165833D01*
X0183539Y0160833D02*
X0183039Y0160833D01*
X0168039Y0175833D01*
X0154039Y0175833D01*
X0153039Y0165833D02*
X0169039Y0165833D01*
X0169039Y0145833D02*
X0153039Y0145833D01*
X0153539Y0135833D02*
X0154039Y0135833D01*
X0168039Y0135833D01*
X0193539Y0123333D02*
X0206039Y0110833D01*
X0193539Y0123333D02*
X0193539Y0150833D01*
X0203539Y0160833D02*
X0206039Y0160833D01*
X0203539Y0160833D02*
X0198539Y0165833D01*
X0211039Y0173333D02*
X0211039Y0098333D01*
X0233539Y0078333D02*
X0233539Y0065833D01*
X0228539Y0060833D01*
X0228039Y0155833D02*
X0244039Y0155833D01*
X0243039Y0165833D02*
X0261039Y0165833D01*
X0266039Y0170833D01*
X0268039Y0170833D01*
X0261039Y0175833D02*
X0266039Y0180833D01*
X0269039Y0180833D01*
X0261039Y0175833D02*
X0244039Y0175833D01*
X0228039Y0175833D01*
X0229039Y0165833D02*
X0243039Y0165833D01*
X0243039Y0185833D02*
X0229039Y0185833D01*
X0228039Y0195833D02*
X0244039Y0195833D01*
X0243039Y0185833D02*
X0261039Y0185833D01*
X0266039Y0190833D01*
X0268039Y0190833D01*
X0276039Y0195833D02*
X0271039Y0200833D01*
X0269039Y0200833D01*
X0276039Y0195833D02*
X0276039Y0158333D01*
X0273539Y0155833D01*
X0203539Y0218333D02*
X0176039Y0218333D01*
X0163539Y0205833D01*
X0153039Y0205833D01*
X0163539Y0205833D02*
X0169039Y0205833D01*
X0168539Y0206333D01*
X0178539Y0213333D02*
X0198539Y0213333D01*
X0128539Y0250833D02*
X0118539Y0250833D01*
X0108539Y0240833D01*
X0093539Y0240833D01*
X0093539Y0220833D02*
X0113539Y0200833D01*
X0113539Y0170833D01*
X0128539Y0155833D01*
X0128539Y0150833D01*
X0123539Y0150833D02*
X0103539Y0170833D01*
X0103539Y0190833D01*
X0093539Y0200833D01*
X0093539Y0180833D02*
X0093539Y0170833D01*
X0118539Y0145833D01*
X0118539Y0135833D01*
X0128539Y0125833D01*
X0128539Y0135833D02*
X0123539Y0140833D01*
X0123539Y0150833D01*
X0123539Y0165833D02*
X0118539Y0170833D01*
X0118539Y0240833D01*
X0118539Y0255833D02*
X0118539Y0288333D01*
X0138539Y0308333D01*
X0126039Y0165833D02*
X0123539Y0165833D01*
D23*
X0126039Y0165833D03*
X0128539Y0150833D03*
X0128539Y0135833D03*
X0128539Y0125833D03*
X0143539Y0120833D03*
X0143539Y0110833D03*
X0143539Y0135833D03*
X0183539Y0160833D03*
X0188539Y0165833D03*
X0198539Y0165833D03*
X0206039Y0160833D03*
X0193539Y0150833D03*
X0211039Y0173333D03*
X0223539Y0160833D03*
X0223539Y0190833D03*
X0233539Y0190833D03*
X0213539Y0198333D03*
X0211039Y0190833D03*
X0198539Y0213333D03*
X0203539Y0218333D03*
X0226039Y0228333D03*
X0238539Y0215833D03*
X0283539Y0245833D03*
X0256039Y0268333D03*
X0253539Y0295833D03*
X0178539Y0213333D03*
X0138539Y0235833D03*
X0143539Y0250833D03*
X0128539Y0250833D03*
X0118539Y0255833D03*
X0118539Y0240833D03*
X0206039Y0110833D03*
X0213539Y0080833D03*
X0228539Y0060833D03*
X0246039Y0058333D03*
X0291039Y0130833D03*
X0273539Y0135833D03*
X0261039Y0160833D03*
X0298539Y0165833D03*
D24*
X0273539Y0155833D02*
X0244039Y0155833D01*
X0261039Y0160833D02*
X0223539Y0160833D01*
X0223539Y0190833D02*
X0233539Y0190833D01*
X0223539Y0083333D02*
X0226039Y0080833D01*
X0231039Y0080833D01*
X0233539Y0078333D01*
D25*
X0241039Y0228333D02*
X0241039Y0235083D01*
M02*
