G04 #@! TF.FileFunction,Copper,L2,Bot,Signal*
%FSLAX46Y46*%
G04 Gerber Fmt 4.6, Leading zero omitted, Abs format (unit mm)*
G04 Created by KiCad (PCBNEW (after 2015-mar-04 BZR unknown)-product) date 26/07/2015 13:07:27*
%MOMM*%
G01*
G04 APERTURE LIST*
%ADD10C,0.100000*%
%ADD11C,2.032000*%
%ADD12O,2.032000X2.032000*%
%ADD13R,2.000000X1.600000*%
%ADD14R,1.727200X2.032000*%
%ADD15O,1.727200X2.032000*%
%ADD16O,4.500880X2.499360*%
%ADD17O,2.499360X1.501140*%
%ADD18R,1.700000X2.000000*%
%ADD19O,1.600000X1.600000*%
%ADD20R,1.600000X1.600000*%
%ADD21C,1.600000*%
%ADD22R,3.200000X3.600000*%
%ADD23C,0.600000*%
%ADD24C,0.254000*%
%ADD25C,3.000000*%
%ADD26C,4.000000*%
%ADD27C,1.016000*%
%ADD28C,0.508000*%
%ADD29C,5.000000*%
%ADD30C,2.032000*%
G04 APERTURE END LIST*
D10*
X106172000Y-34036000D02*
X106172000Y-115824000D01*
X185420000Y-34036000D02*
X106172000Y-34036000D01*
X185420000Y-115824000D02*
X185420000Y-34036000D01*
X106172000Y-115824000D02*
X185420000Y-115824000D01*
D11*
X174752000Y-55118000D03*
X174752000Y-50038000D03*
D12*
X169672000Y-55118000D03*
X169672000Y-50038000D03*
D11*
X181610000Y-91440000D03*
D12*
X173990000Y-91440000D03*
D11*
X181610000Y-86360000D03*
D12*
X173990000Y-86360000D03*
D13*
X154464000Y-82296000D03*
X158464000Y-82296000D03*
D14*
X143383000Y-37338000D03*
D15*
X140843000Y-37338000D03*
X138303000Y-37338000D03*
X135763000Y-37338000D03*
X133223000Y-37338000D03*
X130683000Y-37338000D03*
X128143000Y-37338000D03*
X125603000Y-37338000D03*
X123063000Y-37338000D03*
X120523000Y-37338000D03*
D14*
X174498000Y-44958000D03*
D15*
X171958000Y-44958000D03*
X169418000Y-44958000D03*
D14*
X131572000Y-41656000D03*
D15*
X134112000Y-41656000D03*
X136652000Y-41656000D03*
D14*
X125349000Y-110744000D03*
D15*
X127889000Y-110744000D03*
X130429000Y-110744000D03*
X132969000Y-110744000D03*
X135509000Y-110744000D03*
X138049000Y-110744000D03*
D16*
X181610000Y-74676000D03*
X181610000Y-69088000D03*
X181610000Y-80264000D03*
X181610000Y-103124000D03*
X181610000Y-97536000D03*
X181610000Y-108712000D03*
D17*
X181610000Y-55118000D03*
X181610000Y-52578000D03*
X181610000Y-57658000D03*
D18*
X161036000Y-88932000D03*
X161036000Y-92932000D03*
D19*
X123952000Y-48260000D03*
X123952000Y-50800000D03*
X123952000Y-53340000D03*
X131572000Y-53340000D03*
X131572000Y-50800000D03*
X131572000Y-48260000D03*
X123952000Y-58928000D03*
X123952000Y-61468000D03*
X123952000Y-64008000D03*
X131572000Y-64008000D03*
X131572000Y-61468000D03*
X131572000Y-58928000D03*
X123952000Y-70612000D03*
X123952000Y-73152000D03*
X123952000Y-75692000D03*
X131572000Y-75692000D03*
X131572000Y-73152000D03*
X131572000Y-70612000D03*
X131572000Y-86360000D03*
X131572000Y-83820000D03*
X131572000Y-81280000D03*
X123952000Y-81280000D03*
X123952000Y-83820000D03*
X123952000Y-86360000D03*
D20*
X176022000Y-66802000D03*
D21*
X161022000Y-66802000D03*
D22*
X180594000Y-38064000D03*
X180594000Y-46264000D03*
X146812000Y-58130000D03*
X146812000Y-66330000D03*
X115062000Y-42128000D03*
X115062000Y-50328000D03*
X161036000Y-40350000D03*
X161036000Y-48550000D03*
X167132000Y-82260000D03*
X167132000Y-90460000D03*
X156210000Y-70576000D03*
X156210000Y-78776000D03*
X152654000Y-86578000D03*
X152654000Y-94778000D03*
D23*
X127000000Y-39370000D03*
X133096000Y-39370000D03*
X147066000Y-40894000D03*
X142240000Y-50546000D03*
X142240000Y-47498000D03*
X117602000Y-42164000D03*
X161036000Y-42926000D03*
X136525000Y-84328000D03*
X137287000Y-84328000D03*
X181610000Y-41910000D03*
X142494000Y-107569000D03*
X144145000Y-102489000D03*
X155575000Y-97536000D03*
X155575000Y-96901000D03*
X155575000Y-100076000D03*
X155575000Y-99441000D03*
X157988000Y-91440000D03*
X158750000Y-91440000D03*
X151003000Y-42418000D03*
X151765000Y-42418000D03*
X155575000Y-42418000D03*
X156337000Y-42418000D03*
X169672000Y-51816000D03*
X169672000Y-53149500D03*
X166878000Y-69088000D03*
X144526000Y-45085000D03*
X144526000Y-45847000D03*
X153670000Y-51689000D03*
X157480000Y-55372000D03*
X149987000Y-55372000D03*
X153670000Y-58928000D03*
X164592000Y-66802000D03*
X134620000Y-47498000D03*
X139192000Y-47244000D03*
X136906000Y-67564000D03*
X140716000Y-67818000D03*
X141478000Y-58674000D03*
X136906000Y-58674000D03*
X165862000Y-68072000D03*
X175514000Y-84836000D03*
X176022000Y-78994000D03*
X176022000Y-81534000D03*
X114808000Y-86360000D03*
X120904000Y-89916000D03*
X109728000Y-70104000D03*
X109220000Y-47244000D03*
X117348000Y-91440000D03*
X108204000Y-55880000D03*
X119380000Y-39116000D03*
X148209000Y-101473000D03*
X153162000Y-101600000D03*
X159512000Y-100330000D03*
X159512000Y-99314000D03*
X159512000Y-96647000D03*
X159512000Y-97790000D03*
X160655000Y-91567000D03*
X161290000Y-91567000D03*
X166878000Y-49276000D03*
X166878000Y-44450000D03*
X146812000Y-54864000D03*
X155956000Y-82296000D03*
X157734000Y-87122000D03*
X175768000Y-96520000D03*
X178435000Y-90043000D03*
X177038000Y-102362000D03*
X137541000Y-97790000D03*
X147066000Y-91694000D03*
X152908000Y-69723000D03*
X148336000Y-70739000D03*
X176022000Y-66802000D03*
X181356000Y-61468000D03*
X179070000Y-63754000D03*
X178816000Y-49276000D03*
X155448000Y-75946000D03*
X170180000Y-91948000D03*
X182880000Y-46482000D03*
X122555000Y-41656000D03*
X144526000Y-87376000D03*
X141478000Y-90932000D03*
X122428000Y-83058000D03*
X120650000Y-86106000D03*
X129032000Y-45720000D03*
X114808000Y-75438000D03*
X117348000Y-72898000D03*
X127000000Y-46228000D03*
X125984000Y-45974000D03*
X179832000Y-55118000D03*
X176784000Y-55118000D03*
X139827000Y-96647000D03*
X132842000Y-89154000D03*
X172466000Y-99568000D03*
X137414000Y-53340000D03*
X140462000Y-53848000D03*
X143764000Y-57150000D03*
X139954000Y-64516000D03*
X138684000Y-75692000D03*
X116078000Y-55118000D03*
X114046000Y-53340000D03*
X117348000Y-69088000D03*
X114554000Y-69088000D03*
X117856000Y-80010000D03*
X117856000Y-82804000D03*
D24*
X115062000Y-42128000D02*
X115098000Y-42164000D01*
X115098000Y-42164000D02*
X117602000Y-42164000D01*
X161036000Y-40350000D02*
X161036000Y-42926000D01*
D25*
X171196000Y-73406000D02*
X166878000Y-69088000D01*
X176022000Y-78232000D02*
X171196000Y-73406000D01*
X176022000Y-84328000D02*
X176022000Y-78232000D01*
X175514000Y-84836000D02*
X176022000Y-84328000D01*
X173990000Y-86360000D02*
X175514000Y-84836000D01*
X166878000Y-69088000D02*
X165862000Y-68072000D01*
X165862000Y-68072000D02*
X164592000Y-66802000D01*
X173736000Y-75692000D02*
X171196000Y-73152000D01*
X171196000Y-73152000D02*
X171196000Y-73406000D01*
D26*
X176022000Y-84328000D02*
X176022000Y-78994000D01*
X175514000Y-84836000D02*
X176022000Y-84328000D01*
X176022000Y-81534000D02*
X176022000Y-78994000D01*
X176022000Y-84328000D02*
X176022000Y-81534000D01*
X175514000Y-84836000D02*
X176022000Y-84328000D01*
D24*
X148209000Y-101473000D02*
X148336000Y-101600000D01*
X148336000Y-101600000D02*
X153162000Y-101600000D01*
D27*
X159512000Y-97282000D02*
X159512000Y-96647000D01*
X159512000Y-99314000D02*
X159512000Y-97282000D01*
D24*
X159512000Y-99822000D02*
X159512000Y-100330000D01*
D27*
X159512000Y-99314000D02*
X159512000Y-100330000D01*
X159512000Y-97790000D02*
X159512000Y-97282000D01*
D28*
X160655000Y-91567000D02*
X161290000Y-91567000D01*
D27*
X166878000Y-44450000D02*
X166878000Y-49276000D01*
D28*
X160972500Y-92360500D02*
X160972500Y-91567000D01*
X161036000Y-91948000D02*
X160655000Y-91567000D01*
D27*
X161036000Y-92932000D02*
X161036000Y-91948000D01*
X159512000Y-94456000D02*
X161036000Y-92932000D01*
X159512000Y-96647000D02*
X159512000Y-94456000D01*
D24*
X146812000Y-58130000D02*
X146812000Y-54864000D01*
D27*
X152654000Y-86578000D02*
X152654000Y-84106000D01*
X152654000Y-84106000D02*
X154464000Y-82296000D01*
D24*
X155956000Y-82296000D02*
X154464000Y-82296000D01*
X158464000Y-82296000D02*
X167096000Y-82296000D01*
X167096000Y-82296000D02*
X167132000Y-82260000D01*
D27*
X157734000Y-84328000D02*
X157734000Y-87122000D01*
X158464000Y-83598000D02*
X157734000Y-84328000D01*
X158464000Y-82296000D02*
X158464000Y-83598000D01*
D29*
X181610000Y-80264000D02*
X181610000Y-86360000D01*
X181610000Y-86360000D02*
X181610000Y-91440000D01*
D26*
X175768000Y-95758000D02*
X175768000Y-96520000D01*
X178435000Y-93091000D02*
X175768000Y-95758000D01*
X180086000Y-91440000D02*
X178435000Y-93091000D01*
X181610000Y-91440000D02*
X180086000Y-91440000D01*
D25*
X178435000Y-90043000D02*
X178054000Y-89662000D01*
X178435000Y-93091000D02*
X178435000Y-90043000D01*
X178435000Y-89535000D02*
X181610000Y-86360000D01*
X178435000Y-90043000D02*
X178435000Y-89535000D01*
X178435000Y-89535000D02*
X178435000Y-90043000D01*
D26*
X177800000Y-103124000D02*
X177038000Y-102362000D01*
X181610000Y-103124000D02*
X177800000Y-103124000D01*
D28*
X152908000Y-69723000D02*
X155357000Y-69723000D01*
X155357000Y-69723000D02*
X156210000Y-70576000D01*
D24*
X171958000Y-44958000D02*
X171958000Y-44450000D01*
X171958000Y-44450000D02*
X178344000Y-38064000D01*
X178344000Y-38064000D02*
X180594000Y-38064000D01*
X137541000Y-97790000D02*
X140970000Y-97790000D01*
X140970000Y-97790000D02*
X147066000Y-91694000D01*
X149225000Y-69723000D02*
X152908000Y-69723000D01*
X148336000Y-70612000D02*
X149225000Y-69723000D01*
X148336000Y-70739000D02*
X148336000Y-70612000D01*
D29*
X176022000Y-71374000D02*
X176022000Y-66802000D01*
X179324000Y-74676000D02*
X176022000Y-71374000D01*
X181610000Y-74676000D02*
X179324000Y-74676000D01*
X179070000Y-63754000D02*
X181356000Y-61468000D01*
X176022000Y-66802000D02*
X179070000Y-63754000D01*
D30*
X181610000Y-61214000D02*
X181356000Y-61468000D01*
X181610000Y-57658000D02*
X181610000Y-61214000D01*
D27*
X179832000Y-50292000D02*
X178816000Y-49276000D01*
X182626000Y-50292000D02*
X179832000Y-50292000D01*
X183896000Y-51562000D02*
X182626000Y-50292000D01*
X183896000Y-56134000D02*
X183896000Y-51562000D01*
X182372000Y-57658000D02*
X183896000Y-56134000D01*
D28*
X181610000Y-57658000D02*
X182372000Y-57658000D01*
D27*
X161036000Y-88932000D02*
X158500000Y-88932000D01*
X158500000Y-88932000D02*
X152654000Y-94778000D01*
X161004000Y-88900000D02*
X161036000Y-88932000D01*
D28*
X156210000Y-78776000D02*
X156210000Y-76708000D01*
X156210000Y-76708000D02*
X155448000Y-75946000D01*
D24*
X167132000Y-90460000D02*
X168692000Y-90460000D01*
X168692000Y-90460000D02*
X170180000Y-91948000D01*
X180594000Y-46264000D02*
X182662000Y-46264000D01*
X182662000Y-46264000D02*
X182880000Y-46482000D01*
D27*
X120523000Y-37338000D02*
X120523000Y-38417500D01*
X122491500Y-41592500D02*
X122555000Y-41656000D01*
X122491500Y-40386000D02*
X122491500Y-41592500D01*
X120523000Y-38417500D02*
X122491500Y-40386000D01*
D24*
X144526000Y-87376000D02*
X143002000Y-88900000D01*
X141478000Y-90424000D02*
X141478000Y-90932000D01*
X143002000Y-88900000D02*
X141478000Y-90424000D01*
X122428000Y-84328000D02*
X122428000Y-83058000D01*
X120650000Y-86106000D02*
X122428000Y-84328000D01*
X131699000Y-38862000D02*
X133223000Y-37338000D01*
X130556000Y-38862000D02*
X131699000Y-38862000D01*
X129540000Y-39878000D02*
X130556000Y-38862000D01*
X129540000Y-45212000D02*
X129540000Y-39878000D01*
X129032000Y-45720000D02*
X129540000Y-45212000D01*
X117348000Y-72898000D02*
X114808000Y-75438000D01*
X128778000Y-44450000D02*
X127000000Y-46228000D01*
X128778000Y-39243000D02*
X128778000Y-44450000D01*
X130683000Y-37338000D02*
X128778000Y-39243000D01*
X128143000Y-43815000D02*
X128143000Y-37338000D01*
X125984000Y-45974000D02*
X128143000Y-43815000D01*
D30*
X181610000Y-55118000D02*
X179832000Y-55118000D01*
D25*
X176784000Y-55118000D02*
X174752000Y-55118000D01*
X178308000Y-55118000D02*
X176784000Y-55118000D01*
X179832000Y-55118000D02*
X178308000Y-55118000D01*
X174752000Y-51562000D02*
X178308000Y-55118000D01*
X174752000Y-50038000D02*
X174752000Y-51562000D01*
X174752000Y-55118000D02*
X174752000Y-50038000D01*
D24*
X132842000Y-91440000D02*
X132842000Y-89154000D01*
X138049000Y-96647000D02*
X132842000Y-91440000D01*
X139827000Y-96647000D02*
X138049000Y-96647000D01*
D27*
X179578000Y-99568000D02*
X181610000Y-97536000D01*
X172466000Y-99568000D02*
X179578000Y-99568000D01*
D24*
X131572000Y-53340000D02*
X137414000Y-53340000D01*
X143764000Y-57150000D02*
X140462000Y-53848000D01*
X132080000Y-64516000D02*
X139954000Y-64516000D01*
X131572000Y-64008000D02*
X132080000Y-64516000D01*
X131572000Y-75692000D02*
X138684000Y-75692000D01*
X114300000Y-53340000D02*
X116078000Y-55118000D01*
X114046000Y-53340000D02*
X114300000Y-53340000D01*
X114554000Y-69088000D02*
X117348000Y-69088000D01*
X117856000Y-82804000D02*
X117856000Y-80010000D01*
G36*
X184735000Y-115139000D02*
X184448138Y-115139000D01*
X184448138Y-109131595D01*
X184448138Y-108292405D01*
X184400578Y-108108097D01*
X184033233Y-107469133D01*
X183449329Y-107019384D01*
X182737760Y-106827320D01*
X181737000Y-106827320D01*
X181737000Y-108585000D01*
X184332011Y-108585000D01*
X184448138Y-108292405D01*
X184448138Y-109131595D01*
X184332011Y-108839000D01*
X181737000Y-108839000D01*
X181737000Y-110596680D01*
X182737760Y-110596680D01*
X183449329Y-110404616D01*
X184033233Y-109954867D01*
X184400578Y-109315903D01*
X184448138Y-109131595D01*
X184448138Y-115139000D01*
X181483000Y-115139000D01*
X181483000Y-110596680D01*
X181483000Y-108839000D01*
X181483000Y-108585000D01*
X181483000Y-106827320D01*
X180482240Y-106827320D01*
X179770671Y-107019384D01*
X179186767Y-107469133D01*
X178819422Y-108108097D01*
X178771862Y-108292405D01*
X178887989Y-108585000D01*
X181483000Y-108585000D01*
X181483000Y-108839000D01*
X178887989Y-108839000D01*
X178771862Y-109131595D01*
X178819422Y-109315903D01*
X179186767Y-109954867D01*
X179770671Y-110404616D01*
X180482240Y-110596680D01*
X181483000Y-110596680D01*
X181483000Y-115139000D01*
X173839370Y-115139000D01*
X173839370Y-111337185D01*
X173515020Y-110552200D01*
X172914959Y-109951091D01*
X172130541Y-109625372D01*
X171281185Y-109624630D01*
X170496200Y-109948980D01*
X169895091Y-110549041D01*
X169569372Y-111333459D01*
X169568630Y-112182815D01*
X169892980Y-112967800D01*
X170493041Y-113568909D01*
X171277459Y-113894628D01*
X172126815Y-113895370D01*
X172911800Y-113571020D01*
X173512909Y-112970959D01*
X173838628Y-112186541D01*
X173839370Y-111337185D01*
X173839370Y-115139000D01*
X162533440Y-115139000D01*
X162533440Y-93932000D01*
X162533440Y-91932000D01*
X162486463Y-91689877D01*
X162346673Y-91477073D01*
X162225150Y-91395043D01*
X162225162Y-91381833D01*
X162083117Y-91038057D01*
X161820327Y-90774808D01*
X161476799Y-90632162D01*
X161104833Y-90631838D01*
X160993112Y-90678000D01*
X160972500Y-90678000D01*
X160952188Y-90678000D01*
X160841799Y-90632162D01*
X160469833Y-90631838D01*
X160126057Y-90773883D01*
X159862808Y-91036673D01*
X159720162Y-91380201D01*
X159720068Y-91487629D01*
X159588623Y-91682360D01*
X159538560Y-91932000D01*
X159538560Y-92812994D01*
X158703777Y-93647777D01*
X158456006Y-94018593D01*
X158369000Y-94456000D01*
X158369000Y-96647000D01*
X158369000Y-97282000D01*
X158369000Y-97790000D01*
X158369000Y-99314000D01*
X158369000Y-100330000D01*
X158456006Y-100767407D01*
X158703777Y-101138223D01*
X159074593Y-101385994D01*
X159512000Y-101473000D01*
X159949407Y-101385994D01*
X160320223Y-101138223D01*
X160567994Y-100767407D01*
X160655000Y-100330000D01*
X160655000Y-99314000D01*
X160655000Y-97790000D01*
X160655000Y-97282000D01*
X160655000Y-96647000D01*
X160655000Y-94929446D01*
X161005006Y-94579440D01*
X161886000Y-94579440D01*
X162128123Y-94532463D01*
X162340927Y-94392673D01*
X162483377Y-94181640D01*
X162533440Y-93932000D01*
X162533440Y-115139000D01*
X154097162Y-115139000D01*
X154097162Y-101414833D01*
X153955117Y-101071057D01*
X153692327Y-100807808D01*
X153348799Y-100665162D01*
X152976833Y-100664838D01*
X152633057Y-100806883D01*
X152601885Y-100838000D01*
X148896244Y-100838000D01*
X148739327Y-100680808D01*
X148395799Y-100538162D01*
X148023833Y-100537838D01*
X148001162Y-100547205D01*
X148001162Y-91508833D01*
X147859117Y-91165057D01*
X147596327Y-90901808D01*
X147252799Y-90759162D01*
X146880833Y-90758838D01*
X146685000Y-90839754D01*
X146685000Y-68606250D01*
X146685000Y-66457000D01*
X146685000Y-66203000D01*
X146685000Y-64053750D01*
X146526250Y-63895000D01*
X145338309Y-63895000D01*
X145085690Y-63895000D01*
X144852301Y-63991673D01*
X144673673Y-64170302D01*
X144577000Y-64403691D01*
X144577000Y-66044250D01*
X144735750Y-66203000D01*
X146685000Y-66203000D01*
X146685000Y-66457000D01*
X144735750Y-66457000D01*
X144577000Y-66615750D01*
X144577000Y-68256309D01*
X144673673Y-68489698D01*
X144852301Y-68668327D01*
X145085690Y-68765000D01*
X145338309Y-68765000D01*
X146526250Y-68765000D01*
X146685000Y-68606250D01*
X146685000Y-90839754D01*
X146537057Y-90900883D01*
X146273808Y-91163673D01*
X146131162Y-91507201D01*
X146131123Y-91551246D01*
X145461162Y-92221207D01*
X145461162Y-87190833D01*
X145319117Y-86847057D01*
X145056327Y-86583808D01*
X144712799Y-86441162D01*
X144340833Y-86440838D01*
X143997057Y-86582883D01*
X143733808Y-86845673D01*
X143591162Y-87189201D01*
X143591123Y-87233245D01*
X142463187Y-88361182D01*
X142463184Y-88361185D01*
X140939185Y-89885185D01*
X140889162Y-89960049D01*
X140889162Y-64330833D01*
X140747117Y-63987057D01*
X140484327Y-63723808D01*
X140140799Y-63581162D01*
X139768833Y-63580838D01*
X139425057Y-63722883D01*
X139393885Y-63754000D01*
X138349162Y-63754000D01*
X138349162Y-53154833D01*
X138207117Y-52811057D01*
X137944327Y-52547808D01*
X137600799Y-52405162D01*
X137228833Y-52404838D01*
X136885057Y-52546883D01*
X136853885Y-52578000D01*
X132783658Y-52578000D01*
X132614811Y-52325302D01*
X132232725Y-52070000D01*
X132614811Y-51814698D01*
X132925880Y-51349151D01*
X133035113Y-50800000D01*
X132925880Y-50250849D01*
X132614811Y-49785302D01*
X132232725Y-49530000D01*
X132614811Y-49274698D01*
X132925880Y-48809151D01*
X133035113Y-48260000D01*
X132925880Y-47710849D01*
X132614811Y-47245302D01*
X132149264Y-46934233D01*
X131600113Y-46825000D01*
X131543887Y-46825000D01*
X130994736Y-46934233D01*
X130529189Y-47245302D01*
X130218120Y-47710849D01*
X130108887Y-48260000D01*
X130218120Y-48809151D01*
X130529189Y-49274698D01*
X130911274Y-49529999D01*
X130529189Y-49785302D01*
X130218120Y-50250849D01*
X130108887Y-50800000D01*
X130218120Y-51349151D01*
X130529189Y-51814698D01*
X130911274Y-52069999D01*
X130529189Y-52325302D01*
X130218120Y-52790849D01*
X130108887Y-53340000D01*
X130218120Y-53889151D01*
X130529189Y-54354698D01*
X130994736Y-54665767D01*
X131543887Y-54775000D01*
X131600113Y-54775000D01*
X132149264Y-54665767D01*
X132614811Y-54354698D01*
X132783658Y-54102000D01*
X136853533Y-54102000D01*
X136883673Y-54132192D01*
X137227201Y-54274838D01*
X137599167Y-54275162D01*
X137942943Y-54133117D01*
X138206192Y-53870327D01*
X138348838Y-53526799D01*
X138349162Y-53154833D01*
X138349162Y-63754000D01*
X132984589Y-63754000D01*
X132925880Y-63458849D01*
X132614811Y-62993302D01*
X132232725Y-62738000D01*
X132614811Y-62482698D01*
X132925880Y-62017151D01*
X133035113Y-61468000D01*
X132925880Y-60918849D01*
X132614811Y-60453302D01*
X132232725Y-60198000D01*
X132614811Y-59942698D01*
X132925880Y-59477151D01*
X133035113Y-58928000D01*
X132925880Y-58378849D01*
X132614811Y-57913302D01*
X132149264Y-57602233D01*
X131600113Y-57493000D01*
X131543887Y-57493000D01*
X130994736Y-57602233D01*
X130529189Y-57913302D01*
X130218120Y-58378849D01*
X130108887Y-58928000D01*
X130218120Y-59477151D01*
X130529189Y-59942698D01*
X130911274Y-60197999D01*
X130529189Y-60453302D01*
X130218120Y-60918849D01*
X130108887Y-61468000D01*
X130218120Y-62017151D01*
X130529189Y-62482698D01*
X130911274Y-62737999D01*
X130529189Y-62993302D01*
X130218120Y-63458849D01*
X130108887Y-64008000D01*
X130218120Y-64557151D01*
X130529189Y-65022698D01*
X130994736Y-65333767D01*
X131543887Y-65443000D01*
X131600113Y-65443000D01*
X132149264Y-65333767D01*
X132232725Y-65278000D01*
X139393533Y-65278000D01*
X139423673Y-65308192D01*
X139767201Y-65450838D01*
X140139167Y-65451162D01*
X140482943Y-65309117D01*
X140746192Y-65046327D01*
X140888838Y-64702799D01*
X140889162Y-64330833D01*
X140889162Y-89960049D01*
X140774004Y-90132395D01*
X140729022Y-90358533D01*
X140729021Y-90358534D01*
X140685808Y-90401673D01*
X140543162Y-90745201D01*
X140542838Y-91117167D01*
X140684883Y-91460943D01*
X140947673Y-91724192D01*
X141291201Y-91866838D01*
X141663167Y-91867162D01*
X142006943Y-91725117D01*
X142270192Y-91462327D01*
X142412838Y-91118799D01*
X142413162Y-90746833D01*
X142360426Y-90619203D01*
X143540815Y-89438816D01*
X143540815Y-89438815D01*
X143540817Y-89438812D01*
X144668505Y-88311124D01*
X144711167Y-88311162D01*
X145054943Y-88169117D01*
X145318192Y-87906327D01*
X145460838Y-87562799D01*
X145461162Y-87190833D01*
X145461162Y-92221207D01*
X140700249Y-96982120D01*
X140761838Y-96833799D01*
X140762162Y-96461833D01*
X140620117Y-96118057D01*
X140357327Y-95854808D01*
X140013799Y-95712162D01*
X139641833Y-95711838D01*
X139619162Y-95721205D01*
X139619162Y-75506833D01*
X139477117Y-75163057D01*
X139214327Y-74899808D01*
X138870799Y-74757162D01*
X138498833Y-74756838D01*
X138155057Y-74898883D01*
X138123885Y-74930000D01*
X132783658Y-74930000D01*
X132614811Y-74677302D01*
X132232725Y-74422000D01*
X132614811Y-74166698D01*
X132925880Y-73701151D01*
X133035113Y-73152000D01*
X132925880Y-72602849D01*
X132614811Y-72137302D01*
X132232725Y-71882000D01*
X132614811Y-71626698D01*
X132925880Y-71161151D01*
X133035113Y-70612000D01*
X132925880Y-70062849D01*
X132614811Y-69597302D01*
X132149264Y-69286233D01*
X131600113Y-69177000D01*
X131543887Y-69177000D01*
X130994736Y-69286233D01*
X130529189Y-69597302D01*
X130218120Y-70062849D01*
X130108887Y-70612000D01*
X130218120Y-71161151D01*
X130529189Y-71626698D01*
X130911274Y-71882000D01*
X130529189Y-72137302D01*
X130218120Y-72602849D01*
X130108887Y-73152000D01*
X130218120Y-73701151D01*
X130529189Y-74166698D01*
X130911274Y-74422000D01*
X130529189Y-74677302D01*
X130218120Y-75142849D01*
X130108887Y-75692000D01*
X130218120Y-76241151D01*
X130529189Y-76706698D01*
X130994736Y-77017767D01*
X131543887Y-77127000D01*
X131600113Y-77127000D01*
X132149264Y-77017767D01*
X132614811Y-76706698D01*
X132783658Y-76454000D01*
X138123533Y-76454000D01*
X138153673Y-76484192D01*
X138497201Y-76626838D01*
X138869167Y-76627162D01*
X139212943Y-76485117D01*
X139476192Y-76222327D01*
X139618838Y-75878799D01*
X139619162Y-75506833D01*
X139619162Y-95721205D01*
X139298057Y-95853883D01*
X139266885Y-95885000D01*
X138364630Y-95885000D01*
X133604000Y-91124370D01*
X133604000Y-89714466D01*
X133634192Y-89684327D01*
X133776838Y-89340799D01*
X133777162Y-88968833D01*
X133635117Y-88625057D01*
X133372327Y-88361808D01*
X133035113Y-88221783D01*
X133035113Y-86360000D01*
X132925880Y-85810849D01*
X132614811Y-85345302D01*
X132232725Y-85090000D01*
X132614811Y-84834698D01*
X132925880Y-84369151D01*
X133035113Y-83820000D01*
X132925880Y-83270849D01*
X132614811Y-82805302D01*
X132232725Y-82550000D01*
X132614811Y-82294698D01*
X132925880Y-81829151D01*
X133035113Y-81280000D01*
X132925880Y-80730849D01*
X132614811Y-80265302D01*
X132149264Y-79954233D01*
X131600113Y-79845000D01*
X131543887Y-79845000D01*
X130994736Y-79954233D01*
X130529189Y-80265302D01*
X130218120Y-80730849D01*
X130108887Y-81280000D01*
X130218120Y-81829151D01*
X130529189Y-82294698D01*
X130911274Y-82550000D01*
X130529189Y-82805302D01*
X130218120Y-83270849D01*
X130108887Y-83820000D01*
X130218120Y-84369151D01*
X130529189Y-84834698D01*
X130911274Y-85090000D01*
X130529189Y-85345302D01*
X130218120Y-85810849D01*
X130108887Y-86360000D01*
X130218120Y-86909151D01*
X130529189Y-87374698D01*
X130994736Y-87685767D01*
X131543887Y-87795000D01*
X131600113Y-87795000D01*
X132149264Y-87685767D01*
X132614811Y-87374698D01*
X132925880Y-86909151D01*
X133035113Y-86360000D01*
X133035113Y-88221783D01*
X133028799Y-88219162D01*
X132656833Y-88218838D01*
X132313057Y-88360883D01*
X132049808Y-88623673D01*
X131907162Y-88967201D01*
X131906838Y-89339167D01*
X132048883Y-89682943D01*
X132080000Y-89714114D01*
X132080000Y-91440000D01*
X132138004Y-91731605D01*
X132303185Y-91978815D01*
X137230849Y-96906479D01*
X137012057Y-96996883D01*
X136748808Y-97259673D01*
X136606162Y-97603201D01*
X136605838Y-97975167D01*
X136747883Y-98318943D01*
X137010673Y-98582192D01*
X137354201Y-98724838D01*
X137726167Y-98725162D01*
X138069943Y-98583117D01*
X138101114Y-98552000D01*
X140970000Y-98552000D01*
X140970000Y-98551999D01*
X141261604Y-98493996D01*
X141261605Y-98493996D01*
X141508815Y-98328815D01*
X147208505Y-92629124D01*
X147251167Y-92629162D01*
X147594943Y-92487117D01*
X147858192Y-92224327D01*
X148000838Y-91880799D01*
X148001162Y-91508833D01*
X148001162Y-100547205D01*
X147680057Y-100679883D01*
X147416808Y-100942673D01*
X147274162Y-101286201D01*
X147273838Y-101658167D01*
X147415883Y-102001943D01*
X147678673Y-102265192D01*
X148022201Y-102407838D01*
X148394167Y-102408162D01*
X148505887Y-102362000D01*
X152601533Y-102362000D01*
X152631673Y-102392192D01*
X152975201Y-102534838D01*
X153347167Y-102535162D01*
X153690943Y-102393117D01*
X153954192Y-102130327D01*
X154096838Y-101786799D01*
X154097162Y-101414833D01*
X154097162Y-115139000D01*
X139534184Y-115139000D01*
X139534184Y-111105913D01*
X139534184Y-110382087D01*
X139340954Y-109829680D01*
X138951036Y-109393268D01*
X138423791Y-109139291D01*
X138408026Y-109136642D01*
X138176000Y-109257783D01*
X138176000Y-110617000D01*
X139389924Y-110617000D01*
X139534184Y-110382087D01*
X139534184Y-111105913D01*
X139389924Y-110871000D01*
X138176000Y-110871000D01*
X138176000Y-112230217D01*
X138408026Y-112351358D01*
X138423791Y-112348709D01*
X138951036Y-112094732D01*
X139340954Y-111658320D01*
X139534184Y-111105913D01*
X139534184Y-115139000D01*
X137922000Y-115139000D01*
X137922000Y-112230217D01*
X137922000Y-110871000D01*
X137902000Y-110871000D01*
X137902000Y-110617000D01*
X137922000Y-110617000D01*
X137922000Y-109257783D01*
X137689974Y-109136642D01*
X137674209Y-109139291D01*
X137146964Y-109393268D01*
X136775460Y-109809069D01*
X136568670Y-109499585D01*
X136082489Y-109174729D01*
X135509000Y-109060655D01*
X134935511Y-109174729D01*
X134449330Y-109499585D01*
X134239000Y-109814365D01*
X134028670Y-109499585D01*
X133542489Y-109174729D01*
X132969000Y-109060655D01*
X132395511Y-109174729D01*
X131909330Y-109499585D01*
X131699000Y-109814365D01*
X131488670Y-109499585D01*
X131002489Y-109174729D01*
X130429000Y-109060655D01*
X129855511Y-109174729D01*
X129369330Y-109499585D01*
X129159000Y-109814365D01*
X128948670Y-109499585D01*
X128462489Y-109174729D01*
X127889000Y-109060655D01*
X127315511Y-109174729D01*
X126829330Y-109499585D01*
X126818784Y-109515367D01*
X126813063Y-109485877D01*
X126673273Y-109273073D01*
X126462240Y-109130623D01*
X126212600Y-109080560D01*
X124485400Y-109080560D01*
X124243277Y-109127537D01*
X124030473Y-109267327D01*
X123888023Y-109478360D01*
X123837960Y-109728000D01*
X123837960Y-111760000D01*
X123884937Y-112002123D01*
X124024727Y-112214927D01*
X124235760Y-112357377D01*
X124485400Y-112407440D01*
X126212600Y-112407440D01*
X126454723Y-112360463D01*
X126667527Y-112220673D01*
X126809977Y-112009640D01*
X126817718Y-111971037D01*
X126829330Y-111988415D01*
X127315511Y-112313271D01*
X127889000Y-112427345D01*
X128462489Y-112313271D01*
X128948670Y-111988415D01*
X129159000Y-111673634D01*
X129369330Y-111988415D01*
X129855511Y-112313271D01*
X130429000Y-112427345D01*
X131002489Y-112313271D01*
X131488670Y-111988415D01*
X131699000Y-111673634D01*
X131909330Y-111988415D01*
X132395511Y-112313271D01*
X132969000Y-112427345D01*
X133542489Y-112313271D01*
X134028670Y-111988415D01*
X134239000Y-111673634D01*
X134449330Y-111988415D01*
X134935511Y-112313271D01*
X135509000Y-112427345D01*
X136082489Y-112313271D01*
X136568670Y-111988415D01*
X136775460Y-111678930D01*
X137146964Y-112094732D01*
X137674209Y-112348709D01*
X137689974Y-112351358D01*
X137922000Y-112230217D01*
X137922000Y-115139000D01*
X120015000Y-115139000D01*
X120015000Y-95057039D01*
X122505787Y-93064410D01*
X128651000Y-88455500D01*
X128651000Y-46574198D01*
X128845201Y-46654838D01*
X129217167Y-46655162D01*
X129560943Y-46513117D01*
X129824192Y-46250327D01*
X129966838Y-45906799D01*
X129966876Y-45862754D01*
X129982630Y-45847000D01*
X141224000Y-45847000D01*
X141224000Y-41656000D01*
X145288000Y-41656000D01*
X145288000Y-34721000D01*
X184735000Y-34721000D01*
X184735000Y-50799838D01*
X184704223Y-50753777D01*
X183434223Y-49483777D01*
X183063407Y-49236006D01*
X182626000Y-49149000D01*
X180305446Y-49149000D01*
X179867886Y-48711440D01*
X182194000Y-48711440D01*
X182436123Y-48664463D01*
X182648927Y-48524673D01*
X182791377Y-48313640D01*
X182841440Y-48064000D01*
X182841440Y-47416967D01*
X183065167Y-47417162D01*
X183408943Y-47275117D01*
X183672192Y-47012327D01*
X183814838Y-46668799D01*
X183815162Y-46296833D01*
X183673117Y-45953057D01*
X183410327Y-45689808D01*
X183066799Y-45547162D01*
X182888262Y-45547006D01*
X182888260Y-45547006D01*
X182841440Y-45537693D01*
X182841440Y-45537692D01*
X182841440Y-44464000D01*
X182841440Y-39864000D01*
X182841440Y-36264000D01*
X182794463Y-36021877D01*
X182654673Y-35809073D01*
X182443640Y-35666623D01*
X182194000Y-35616560D01*
X178994000Y-35616560D01*
X178751877Y-35663537D01*
X178539073Y-35803327D01*
X178396623Y-36014360D01*
X178346560Y-36264000D01*
X178346560Y-37302000D01*
X178344000Y-37302000D01*
X178052395Y-37360004D01*
X177953376Y-37426165D01*
X177805185Y-37525184D01*
X173839370Y-41490998D01*
X173839370Y-37550185D01*
X173515020Y-36765200D01*
X172914959Y-36164091D01*
X172130541Y-35838372D01*
X171281185Y-35837630D01*
X170496200Y-36161980D01*
X169895091Y-36762041D01*
X169569372Y-37546459D01*
X169568630Y-38395815D01*
X169892980Y-39180800D01*
X170493041Y-39781909D01*
X171277459Y-40107628D01*
X172126815Y-40108370D01*
X172911800Y-39784020D01*
X173512909Y-39183959D01*
X173838628Y-38399541D01*
X173839370Y-37550185D01*
X173839370Y-41490998D01*
X172039502Y-43290866D01*
X171958000Y-43274655D01*
X171384511Y-43388729D01*
X170898330Y-43713585D01*
X170691539Y-44023069D01*
X170320036Y-43607268D01*
X169792791Y-43353291D01*
X169777026Y-43350642D01*
X169545000Y-43471783D01*
X169545000Y-44831000D01*
X169565000Y-44831000D01*
X169565000Y-45085000D01*
X169545000Y-45085000D01*
X169545000Y-46444217D01*
X169777026Y-46565358D01*
X169792791Y-46562709D01*
X170320036Y-46308732D01*
X170691539Y-45892930D01*
X170898330Y-46202415D01*
X171384511Y-46527271D01*
X171958000Y-46641345D01*
X172531489Y-46527271D01*
X173017670Y-46202415D01*
X173028215Y-46186632D01*
X173033937Y-46216123D01*
X173173727Y-46428927D01*
X173384760Y-46571377D01*
X173634400Y-46621440D01*
X175361600Y-46621440D01*
X175603723Y-46574463D01*
X175816527Y-46434673D01*
X175958977Y-46223640D01*
X176009040Y-45974000D01*
X176009040Y-43942000D01*
X175962063Y-43699877D01*
X175822273Y-43487073D01*
X175611240Y-43344623D01*
X175361600Y-43294560D01*
X174191070Y-43294560D01*
X178346560Y-39139070D01*
X178346560Y-39864000D01*
X178393537Y-40106123D01*
X178533327Y-40318927D01*
X178744360Y-40461377D01*
X178994000Y-40511440D01*
X182194000Y-40511440D01*
X182436123Y-40464463D01*
X182648927Y-40324673D01*
X182791377Y-40113640D01*
X182841440Y-39864000D01*
X182841440Y-44464000D01*
X182794463Y-44221877D01*
X182654673Y-44009073D01*
X182443640Y-43866623D01*
X182194000Y-43816560D01*
X178994000Y-43816560D01*
X178751877Y-43863537D01*
X178539073Y-44003327D01*
X178396623Y-44214360D01*
X178346560Y-44464000D01*
X178346560Y-48064000D01*
X178377030Y-48221049D01*
X178007777Y-48467777D01*
X177760006Y-48838593D01*
X177673000Y-49276000D01*
X177760006Y-49713407D01*
X178007777Y-50084223D01*
X179023777Y-51100223D01*
X179394593Y-51347994D01*
X179832000Y-51435000D01*
X180338547Y-51435000D01*
X180094221Y-51598254D01*
X179793867Y-52047765D01*
X179688397Y-52578000D01*
X179768956Y-52983000D01*
X179192346Y-52983000D01*
X176887000Y-50677654D01*
X176887000Y-50038000D01*
X176724483Y-49220971D01*
X176261673Y-48528327D01*
X175569029Y-48065517D01*
X174752000Y-47903000D01*
X173934971Y-48065517D01*
X173242327Y-48528327D01*
X172779517Y-49220971D01*
X172617000Y-50038000D01*
X172617000Y-51562000D01*
X172617000Y-55118000D01*
X172779517Y-55935029D01*
X173242327Y-56627673D01*
X173934971Y-57090483D01*
X174752000Y-57253000D01*
X176784000Y-57253000D01*
X178308000Y-57253000D01*
X179768956Y-57253000D01*
X179688397Y-57658000D01*
X179793867Y-58188235D01*
X179959000Y-58435373D01*
X179959000Y-58703461D01*
X179139220Y-59251220D01*
X176853220Y-61537220D01*
X173805220Y-64585220D01*
X173125638Y-65602287D01*
X172887000Y-66802000D01*
X172887000Y-71374000D01*
X172962785Y-71755000D01*
X172847000Y-71755000D01*
X172847000Y-72991212D01*
X171277983Y-72617636D01*
X171277983Y-55500946D01*
X171277983Y-54735054D01*
X171277983Y-50420946D01*
X171277983Y-49655054D01*
X171009188Y-49069621D01*
X170536818Y-48631615D01*
X170054944Y-48432025D01*
X169799000Y-48551164D01*
X169799000Y-49911000D01*
X171159367Y-49911000D01*
X171277983Y-49655054D01*
X171277983Y-50420946D01*
X171159367Y-50165000D01*
X169799000Y-50165000D01*
X169799000Y-51524836D01*
X170054944Y-51643975D01*
X170536818Y-51444385D01*
X171009188Y-51006379D01*
X171277983Y-50420946D01*
X171277983Y-54735054D01*
X171009188Y-54149621D01*
X170536818Y-53711615D01*
X170054944Y-53512025D01*
X169799000Y-53631164D01*
X169799000Y-54991000D01*
X171159367Y-54991000D01*
X171277983Y-54735054D01*
X171277983Y-55500946D01*
X171159367Y-55245000D01*
X169799000Y-55245000D01*
X169799000Y-56604836D01*
X170054944Y-56723975D01*
X170536818Y-56524385D01*
X171009188Y-56086379D01*
X171277983Y-55500946D01*
X171277983Y-72617636D01*
X169545000Y-72205021D01*
X169545000Y-56604836D01*
X169545000Y-55245000D01*
X169545000Y-54991000D01*
X169545000Y-53631164D01*
X169545000Y-51524836D01*
X169545000Y-50165000D01*
X169545000Y-49911000D01*
X169545000Y-48551164D01*
X169291000Y-48432929D01*
X169291000Y-46444217D01*
X169291000Y-45085000D01*
X169271000Y-45085000D01*
X169271000Y-44831000D01*
X169291000Y-44831000D01*
X169291000Y-43471783D01*
X169058974Y-43350642D01*
X169043209Y-43353291D01*
X168515964Y-43607268D01*
X168126046Y-44043680D01*
X168007556Y-44382417D01*
X167933994Y-44012593D01*
X167686223Y-43641777D01*
X167315407Y-43394006D01*
X166878000Y-43307000D01*
X166440593Y-43394006D01*
X166069777Y-43641777D01*
X165822006Y-44012593D01*
X165735000Y-44450000D01*
X165735000Y-49276000D01*
X165822006Y-49713407D01*
X166069777Y-50084223D01*
X166440593Y-50331994D01*
X166878000Y-50419000D01*
X167315407Y-50331994D01*
X167686223Y-50084223D01*
X167933994Y-49713407D01*
X168021000Y-49276000D01*
X168021000Y-45572013D01*
X168126046Y-45872320D01*
X168515964Y-46308732D01*
X169043209Y-46562709D01*
X169058974Y-46565358D01*
X169291000Y-46444217D01*
X169291000Y-48432929D01*
X169289056Y-48432025D01*
X168807182Y-48631615D01*
X168334812Y-49069621D01*
X168066017Y-49655054D01*
X168184633Y-49911000D01*
X169545000Y-49911000D01*
X169545000Y-50165000D01*
X168184633Y-50165000D01*
X168066017Y-50420946D01*
X168334812Y-51006379D01*
X168807182Y-51444385D01*
X169289056Y-51643975D01*
X169545000Y-51524836D01*
X169545000Y-53631164D01*
X169289056Y-53512025D01*
X168807182Y-53711615D01*
X168334812Y-54149621D01*
X168066017Y-54735054D01*
X168184633Y-54991000D01*
X169545000Y-54991000D01*
X169545000Y-55245000D01*
X168184633Y-55245000D01*
X168066017Y-55500946D01*
X168334812Y-56086379D01*
X168807182Y-56524385D01*
X169289056Y-56723975D01*
X169545000Y-56604836D01*
X169545000Y-72205021D01*
X167654911Y-71755000D01*
X163283440Y-71755000D01*
X163283440Y-42150000D01*
X163283440Y-38550000D01*
X163236463Y-38307877D01*
X163096673Y-38095073D01*
X162885640Y-37952623D01*
X162636000Y-37902560D01*
X159436000Y-37902560D01*
X159193877Y-37949537D01*
X158981073Y-38089327D01*
X158838623Y-38300360D01*
X158788560Y-38550000D01*
X158788560Y-42150000D01*
X158835537Y-42392123D01*
X158975327Y-42604927D01*
X159186360Y-42747377D01*
X159436000Y-42797440D01*
X160101111Y-42797440D01*
X160100838Y-43111167D01*
X160242883Y-43454943D01*
X160505673Y-43718192D01*
X160849201Y-43860838D01*
X161221167Y-43861162D01*
X161564943Y-43719117D01*
X161828192Y-43456327D01*
X161970838Y-43112799D01*
X161971112Y-42797440D01*
X162636000Y-42797440D01*
X162878123Y-42750463D01*
X163090927Y-42610673D01*
X163233377Y-42399640D01*
X163283440Y-42150000D01*
X163283440Y-71755000D01*
X163276666Y-71755000D01*
X163271000Y-71759635D01*
X163271000Y-50476309D01*
X163271000Y-48835750D01*
X163271000Y-48264250D01*
X163271000Y-46623691D01*
X163174327Y-46390302D01*
X162995699Y-46211673D01*
X162762310Y-46115000D01*
X162509691Y-46115000D01*
X161321750Y-46115000D01*
X161163000Y-46273750D01*
X161163000Y-48423000D01*
X163112250Y-48423000D01*
X163271000Y-48264250D01*
X163271000Y-48835750D01*
X163112250Y-48677000D01*
X161163000Y-48677000D01*
X161163000Y-50826250D01*
X161321750Y-50985000D01*
X162509691Y-50985000D01*
X162762310Y-50985000D01*
X162995699Y-50888327D01*
X163174327Y-50709698D01*
X163271000Y-50476309D01*
X163271000Y-71759635D01*
X162468965Y-72415845D01*
X162468965Y-67018777D01*
X162441778Y-66448546D01*
X162275864Y-66047995D01*
X162029745Y-65973861D01*
X161850139Y-66153466D01*
X161850139Y-65794255D01*
X161776005Y-65548136D01*
X161238777Y-65355035D01*
X160909000Y-65370757D01*
X160909000Y-50826250D01*
X160909000Y-48677000D01*
X160909000Y-48423000D01*
X160909000Y-46273750D01*
X160750250Y-46115000D01*
X159562309Y-46115000D01*
X159309690Y-46115000D01*
X159076301Y-46211673D01*
X158897673Y-46390302D01*
X158801000Y-46623691D01*
X158801000Y-48264250D01*
X158959750Y-48423000D01*
X160909000Y-48423000D01*
X160909000Y-48677000D01*
X158959750Y-48677000D01*
X158801000Y-48835750D01*
X158801000Y-50476309D01*
X158897673Y-50709698D01*
X159076301Y-50888327D01*
X159309690Y-50985000D01*
X159562309Y-50985000D01*
X160750250Y-50985000D01*
X160909000Y-50826250D01*
X160909000Y-65370757D01*
X160668546Y-65382222D01*
X160267995Y-65548136D01*
X160193861Y-65794255D01*
X161022000Y-66622395D01*
X161850139Y-65794255D01*
X161850139Y-66153466D01*
X161201605Y-66802000D01*
X162029745Y-67630139D01*
X162275864Y-67556005D01*
X162468965Y-67018777D01*
X162468965Y-72415845D01*
X161850139Y-72922157D01*
X161850139Y-67809745D01*
X161022000Y-66981605D01*
X160842395Y-67161210D01*
X160842395Y-66802000D01*
X160014255Y-65973861D01*
X159768136Y-66047995D01*
X159575035Y-66585223D01*
X159602222Y-67155454D01*
X159768136Y-67556005D01*
X160014255Y-67630139D01*
X160842395Y-66802000D01*
X160842395Y-67161210D01*
X160193861Y-67809745D01*
X160267995Y-68055864D01*
X160805223Y-68248965D01*
X161375454Y-68221778D01*
X161776005Y-68055864D01*
X161850139Y-67809745D01*
X161850139Y-72922157D01*
X158457440Y-75698001D01*
X158457440Y-72376000D01*
X158457440Y-68776000D01*
X158410463Y-68533877D01*
X158270673Y-68321073D01*
X158059640Y-68178623D01*
X157810000Y-68128560D01*
X154610000Y-68128560D01*
X154367877Y-68175537D01*
X154155073Y-68315327D01*
X154012623Y-68526360D01*
X153962560Y-68776000D01*
X153962560Y-68834000D01*
X153205188Y-68834000D01*
X153094799Y-68788162D01*
X152722833Y-68787838D01*
X152379057Y-68929883D01*
X152347885Y-68961000D01*
X149225000Y-68961000D01*
X149059440Y-68993932D01*
X149059440Y-59930000D01*
X149059440Y-56330000D01*
X149012463Y-56087877D01*
X148872673Y-55875073D01*
X148661640Y-55732623D01*
X148412000Y-55682560D01*
X148001162Y-55682560D01*
X148001162Y-40708833D01*
X147859117Y-40365057D01*
X147596327Y-40101808D01*
X147252799Y-39959162D01*
X146880833Y-39958838D01*
X146537057Y-40100883D01*
X146273808Y-40363673D01*
X146131162Y-40707201D01*
X146130838Y-41079167D01*
X146272883Y-41422943D01*
X146535673Y-41686192D01*
X146879201Y-41828838D01*
X147251167Y-41829162D01*
X147594943Y-41687117D01*
X147858192Y-41424327D01*
X148000838Y-41080799D01*
X148001162Y-40708833D01*
X148001162Y-55682560D01*
X147574000Y-55682560D01*
X147574000Y-55424466D01*
X147604192Y-55394327D01*
X147746838Y-55050799D01*
X147747162Y-54678833D01*
X147605117Y-54335057D01*
X147342327Y-54071808D01*
X146998799Y-53929162D01*
X146626833Y-53928838D01*
X146283057Y-54070883D01*
X146019808Y-54333673D01*
X145877162Y-54677201D01*
X145876838Y-55049167D01*
X146018883Y-55392943D01*
X146050000Y-55424114D01*
X146050000Y-55682560D01*
X145212000Y-55682560D01*
X144969877Y-55729537D01*
X144757073Y-55869327D01*
X144614623Y-56080360D01*
X144564560Y-56330000D01*
X144564560Y-56639070D01*
X144557117Y-56621057D01*
X144294327Y-56357808D01*
X143950799Y-56215162D01*
X143906753Y-56215123D01*
X143175162Y-55483532D01*
X143175162Y-50360833D01*
X143175162Y-47312833D01*
X143033117Y-46969057D01*
X142770327Y-46705808D01*
X142426799Y-46563162D01*
X142054833Y-46562838D01*
X141711057Y-46704883D01*
X141447808Y-46967673D01*
X141305162Y-47311201D01*
X141304838Y-47683167D01*
X141446883Y-48026943D01*
X141709673Y-48290192D01*
X142053201Y-48432838D01*
X142425167Y-48433162D01*
X142768943Y-48291117D01*
X143032192Y-48028327D01*
X143174838Y-47684799D01*
X143175162Y-47312833D01*
X143175162Y-50360833D01*
X143033117Y-50017057D01*
X142770327Y-49753808D01*
X142426799Y-49611162D01*
X142054833Y-49610838D01*
X141711057Y-49752883D01*
X141447808Y-50015673D01*
X141305162Y-50359201D01*
X141304838Y-50731167D01*
X141446883Y-51074943D01*
X141709673Y-51338192D01*
X142053201Y-51480838D01*
X142425167Y-51481162D01*
X142768943Y-51339117D01*
X143032192Y-51076327D01*
X143174838Y-50732799D01*
X143175162Y-50360833D01*
X143175162Y-55483532D01*
X141397124Y-53705494D01*
X141397162Y-53662833D01*
X141255117Y-53319057D01*
X140992327Y-53055808D01*
X140648799Y-52913162D01*
X140276833Y-52912838D01*
X139933057Y-53054883D01*
X139669808Y-53317673D01*
X139527162Y-53661201D01*
X139526838Y-54033167D01*
X139668883Y-54376943D01*
X139931673Y-54640192D01*
X140275201Y-54782838D01*
X140319246Y-54782876D01*
X142828875Y-57292505D01*
X142828838Y-57335167D01*
X142970883Y-57678943D01*
X143233673Y-57942192D01*
X143577201Y-58084838D01*
X143949167Y-58085162D01*
X144292943Y-57943117D01*
X144556192Y-57680327D01*
X144564560Y-57660174D01*
X144564560Y-59930000D01*
X144611537Y-60172123D01*
X144751327Y-60384927D01*
X144962360Y-60527377D01*
X145212000Y-60577440D01*
X148412000Y-60577440D01*
X148654123Y-60530463D01*
X148866927Y-60390673D01*
X149009377Y-60179640D01*
X149059440Y-59930000D01*
X149059440Y-68993932D01*
X149047000Y-68996406D01*
X149047000Y-68256309D01*
X149047000Y-66615750D01*
X149047000Y-66044250D01*
X149047000Y-64403691D01*
X148950327Y-64170302D01*
X148771699Y-63991673D01*
X148538310Y-63895000D01*
X148285691Y-63895000D01*
X147097750Y-63895000D01*
X146939000Y-64053750D01*
X146939000Y-66203000D01*
X148888250Y-66203000D01*
X149047000Y-66044250D01*
X149047000Y-66615750D01*
X148888250Y-66457000D01*
X146939000Y-66457000D01*
X146939000Y-68606250D01*
X147097750Y-68765000D01*
X148285691Y-68765000D01*
X148538310Y-68765000D01*
X148771699Y-68668327D01*
X148950327Y-68489698D01*
X149047000Y-68256309D01*
X149047000Y-68996406D01*
X148933395Y-69019004D01*
X148686185Y-69184185D01*
X148007173Y-69863196D01*
X147807057Y-69945883D01*
X147543808Y-70208673D01*
X147401162Y-70552201D01*
X147400838Y-70924167D01*
X147542883Y-71267943D01*
X147805673Y-71531192D01*
X148149201Y-71673838D01*
X148521167Y-71674162D01*
X148864943Y-71532117D01*
X149128192Y-71269327D01*
X149270838Y-70925799D01*
X149270987Y-70754642D01*
X149540630Y-70485000D01*
X152347533Y-70485000D01*
X152377673Y-70515192D01*
X152721201Y-70657838D01*
X153093167Y-70658162D01*
X153204887Y-70612000D01*
X153962560Y-70612000D01*
X153962560Y-72376000D01*
X154009537Y-72618123D01*
X154149327Y-72830927D01*
X154360360Y-72973377D01*
X154610000Y-73023440D01*
X157810000Y-73023440D01*
X158052123Y-72976463D01*
X158264927Y-72836673D01*
X158407377Y-72625640D01*
X158457440Y-72376000D01*
X158457440Y-75698001D01*
X157686757Y-76328560D01*
X157005113Y-76328560D01*
X156838618Y-76079382D01*
X156286761Y-75527525D01*
X156241117Y-75417057D01*
X155978327Y-75153808D01*
X155634799Y-75011162D01*
X155262833Y-75010838D01*
X154919057Y-75152883D01*
X154655808Y-75415673D01*
X154513162Y-75759201D01*
X154512838Y-76131167D01*
X154595556Y-76331362D01*
X154367877Y-76375537D01*
X154155073Y-76515327D01*
X154012623Y-76726360D01*
X153962560Y-76976000D01*
X153962560Y-79244292D01*
X151765000Y-80964122D01*
X151765000Y-83418668D01*
X151598006Y-83668593D01*
X151511000Y-84106000D01*
X151511000Y-84130560D01*
X151054000Y-84130560D01*
X150811877Y-84177537D01*
X150599073Y-84317327D01*
X150456623Y-84528360D01*
X150406560Y-84778000D01*
X150406560Y-88378000D01*
X150453537Y-88620123D01*
X150593327Y-88832927D01*
X150804360Y-88975377D01*
X151054000Y-89025440D01*
X152132784Y-89025440D01*
X153876282Y-90551000D01*
X155264554Y-90551000D01*
X153484994Y-92330560D01*
X151054000Y-92330560D01*
X150811877Y-92377537D01*
X150599073Y-92517327D01*
X150456623Y-92728360D01*
X150406560Y-92978000D01*
X150406560Y-96578000D01*
X150453537Y-96820123D01*
X150593327Y-97032927D01*
X150804360Y-97175377D01*
X151054000Y-97225440D01*
X154254000Y-97225440D01*
X154496123Y-97178463D01*
X154708927Y-97038673D01*
X154851377Y-96827640D01*
X154901440Y-96578000D01*
X154901440Y-94147006D01*
X158497445Y-90551000D01*
X160044183Y-90551000D01*
X160186000Y-90579440D01*
X161886000Y-90579440D01*
X162032581Y-90551000D01*
X164776629Y-90551000D01*
X164884560Y-90427650D01*
X164884560Y-92260000D01*
X164931537Y-92502123D01*
X165071327Y-92714927D01*
X165282360Y-92857377D01*
X165532000Y-92907440D01*
X168732000Y-92907440D01*
X168974123Y-92860463D01*
X169186927Y-92720673D01*
X169329377Y-92509640D01*
X169352581Y-92393927D01*
X169386883Y-92476943D01*
X169649673Y-92740192D01*
X169993201Y-92882838D01*
X170365167Y-92883162D01*
X170708943Y-92741117D01*
X170972192Y-92478327D01*
X171114838Y-92134799D01*
X171115162Y-91762833D01*
X170973117Y-91419057D01*
X170710327Y-91155808D01*
X170366799Y-91013162D01*
X170322754Y-91013123D01*
X169379440Y-90069809D01*
X169379440Y-88660000D01*
X169332463Y-88417877D01*
X169192673Y-88205073D01*
X168981640Y-88062623D01*
X168732000Y-88012560D01*
X166997764Y-88012560D01*
X171038585Y-83394479D01*
X172310934Y-81867660D01*
X174090248Y-79579970D01*
X176585818Y-76371378D01*
X177107220Y-76892780D01*
X178124287Y-77572362D01*
X178124288Y-77572362D01*
X179324000Y-77811000D01*
X179746748Y-77811000D01*
X179393220Y-78047220D01*
X178713638Y-79064287D01*
X178475000Y-80264000D01*
X178475000Y-86360000D01*
X178475000Y-86475654D01*
X177267137Y-87683516D01*
X177236971Y-87689517D01*
X176544327Y-88152327D01*
X176081517Y-88844971D01*
X175919000Y-89662000D01*
X176081517Y-90479029D01*
X176300000Y-90806011D01*
X176300000Y-91499547D01*
X175595983Y-92203564D01*
X175595983Y-91822946D01*
X175595983Y-91057054D01*
X175595983Y-86742946D01*
X175595983Y-85977054D01*
X175327188Y-85391621D01*
X174854818Y-84953615D01*
X174372944Y-84754025D01*
X174117000Y-84873164D01*
X174117000Y-86233000D01*
X175477367Y-86233000D01*
X175595983Y-85977054D01*
X175595983Y-86742946D01*
X175477367Y-86487000D01*
X174117000Y-86487000D01*
X174117000Y-87846836D01*
X174372944Y-87965975D01*
X174854818Y-87766385D01*
X175327188Y-87328379D01*
X175595983Y-86742946D01*
X175595983Y-91057054D01*
X175327188Y-90471621D01*
X174854818Y-90033615D01*
X174372944Y-89834025D01*
X174117000Y-89953164D01*
X174117000Y-91313000D01*
X175477367Y-91313000D01*
X175595983Y-91057054D01*
X175595983Y-91822946D01*
X175477367Y-91567000D01*
X174117000Y-91567000D01*
X174117000Y-92926836D01*
X174372944Y-93045975D01*
X174854818Y-92846385D01*
X175327188Y-92408379D01*
X175595983Y-91822946D01*
X175595983Y-92203564D01*
X173904774Y-93894774D01*
X173863000Y-93957293D01*
X173863000Y-92926836D01*
X173863000Y-91567000D01*
X173863000Y-91313000D01*
X173863000Y-89953164D01*
X173863000Y-87846836D01*
X173863000Y-86487000D01*
X173863000Y-86233000D01*
X173863000Y-84873164D01*
X173607056Y-84754025D01*
X173125182Y-84953615D01*
X172652812Y-85391621D01*
X172384017Y-85977054D01*
X172502633Y-86233000D01*
X173863000Y-86233000D01*
X173863000Y-86487000D01*
X172502633Y-86487000D01*
X172384017Y-86742946D01*
X172652812Y-87328379D01*
X173125182Y-87766385D01*
X173607056Y-87965975D01*
X173863000Y-87846836D01*
X173863000Y-89953164D01*
X173607056Y-89834025D01*
X173125182Y-90033615D01*
X172652812Y-90471621D01*
X172384017Y-91057054D01*
X172502633Y-91313000D01*
X173863000Y-91313000D01*
X173863000Y-91567000D01*
X172502633Y-91567000D01*
X172384017Y-91822946D01*
X172652812Y-92408379D01*
X173125182Y-92846385D01*
X173607056Y-93045975D01*
X173863000Y-92926836D01*
X173863000Y-93957293D01*
X173333577Y-94749629D01*
X173133000Y-95758000D01*
X173133000Y-96520000D01*
X173333577Y-97528371D01*
X173904774Y-98383226D01*
X173967293Y-98425000D01*
X172466000Y-98425000D01*
X172028593Y-98512006D01*
X171657777Y-98759777D01*
X171410006Y-99130593D01*
X171323000Y-99568000D01*
X171410006Y-100005407D01*
X171657777Y-100376223D01*
X172028593Y-100623994D01*
X172466000Y-100711000D01*
X175032968Y-100711000D01*
X174603577Y-101353629D01*
X174403001Y-102362000D01*
X174603577Y-103370371D01*
X175174774Y-104225226D01*
X175936774Y-104987227D01*
X176791629Y-105558423D01*
X177800000Y-105759000D01*
X181610000Y-105759000D01*
X182618371Y-105558423D01*
X183473226Y-104987226D01*
X183688821Y-104664565D01*
X183999959Y-104456670D01*
X184408506Y-103845236D01*
X184551969Y-103124000D01*
X184408506Y-102402764D01*
X183999959Y-101791330D01*
X183688821Y-101583434D01*
X183473226Y-101260774D01*
X182618371Y-100689577D01*
X181610000Y-100489000D01*
X180217440Y-100489000D01*
X180386223Y-100376223D01*
X181341766Y-99420680D01*
X182667289Y-99420680D01*
X183388525Y-99277217D01*
X183999959Y-98868670D01*
X184408506Y-98257236D01*
X184551969Y-97536000D01*
X184408506Y-96814764D01*
X183999959Y-96203330D01*
X183388525Y-95794783D01*
X182667289Y-95651320D01*
X180552711Y-95651320D01*
X179831475Y-95794783D01*
X179220041Y-96203330D01*
X178811494Y-96814764D01*
X178668031Y-97536000D01*
X178811494Y-98257236D01*
X178923590Y-98425000D01*
X177568706Y-98425000D01*
X177631226Y-98383226D01*
X178202423Y-97528371D01*
X178321196Y-96931255D01*
X180298226Y-94954226D01*
X180298227Y-94954226D01*
X180298229Y-94954222D01*
X180832172Y-94420280D01*
X181610000Y-94575000D01*
X182809713Y-94336362D01*
X183826780Y-93656780D01*
X184506362Y-92639713D01*
X184735000Y-91490273D01*
X184735000Y-115139000D01*
X184735000Y-115139000D01*
G37*
X184735000Y-115139000D02*
X184448138Y-115139000D01*
X184448138Y-109131595D01*
X184448138Y-108292405D01*
X184400578Y-108108097D01*
X184033233Y-107469133D01*
X183449329Y-107019384D01*
X182737760Y-106827320D01*
X181737000Y-106827320D01*
X181737000Y-108585000D01*
X184332011Y-108585000D01*
X184448138Y-108292405D01*
X184448138Y-109131595D01*
X184332011Y-108839000D01*
X181737000Y-108839000D01*
X181737000Y-110596680D01*
X182737760Y-110596680D01*
X183449329Y-110404616D01*
X184033233Y-109954867D01*
X184400578Y-109315903D01*
X184448138Y-109131595D01*
X184448138Y-115139000D01*
X181483000Y-115139000D01*
X181483000Y-110596680D01*
X181483000Y-108839000D01*
X181483000Y-108585000D01*
X181483000Y-106827320D01*
X180482240Y-106827320D01*
X179770671Y-107019384D01*
X179186767Y-107469133D01*
X178819422Y-108108097D01*
X178771862Y-108292405D01*
X178887989Y-108585000D01*
X181483000Y-108585000D01*
X181483000Y-108839000D01*
X178887989Y-108839000D01*
X178771862Y-109131595D01*
X178819422Y-109315903D01*
X179186767Y-109954867D01*
X179770671Y-110404616D01*
X180482240Y-110596680D01*
X181483000Y-110596680D01*
X181483000Y-115139000D01*
X173839370Y-115139000D01*
X173839370Y-111337185D01*
X173515020Y-110552200D01*
X172914959Y-109951091D01*
X172130541Y-109625372D01*
X171281185Y-109624630D01*
X170496200Y-109948980D01*
X169895091Y-110549041D01*
X169569372Y-111333459D01*
X169568630Y-112182815D01*
X169892980Y-112967800D01*
X170493041Y-113568909D01*
X171277459Y-113894628D01*
X172126815Y-113895370D01*
X172911800Y-113571020D01*
X173512909Y-112970959D01*
X173838628Y-112186541D01*
X173839370Y-111337185D01*
X173839370Y-115139000D01*
X162533440Y-115139000D01*
X162533440Y-93932000D01*
X162533440Y-91932000D01*
X162486463Y-91689877D01*
X162346673Y-91477073D01*
X162225150Y-91395043D01*
X162225162Y-91381833D01*
X162083117Y-91038057D01*
X161820327Y-90774808D01*
X161476799Y-90632162D01*
X161104833Y-90631838D01*
X160993112Y-90678000D01*
X160972500Y-90678000D01*
X160952188Y-90678000D01*
X160841799Y-90632162D01*
X160469833Y-90631838D01*
X160126057Y-90773883D01*
X159862808Y-91036673D01*
X159720162Y-91380201D01*
X159720068Y-91487629D01*
X159588623Y-91682360D01*
X159538560Y-91932000D01*
X159538560Y-92812994D01*
X158703777Y-93647777D01*
X158456006Y-94018593D01*
X158369000Y-94456000D01*
X158369000Y-96647000D01*
X158369000Y-97282000D01*
X158369000Y-97790000D01*
X158369000Y-99314000D01*
X158369000Y-100330000D01*
X158456006Y-100767407D01*
X158703777Y-101138223D01*
X159074593Y-101385994D01*
X159512000Y-101473000D01*
X159949407Y-101385994D01*
X160320223Y-101138223D01*
X160567994Y-100767407D01*
X160655000Y-100330000D01*
X160655000Y-99314000D01*
X160655000Y-97790000D01*
X160655000Y-97282000D01*
X160655000Y-96647000D01*
X160655000Y-94929446D01*
X161005006Y-94579440D01*
X161886000Y-94579440D01*
X162128123Y-94532463D01*
X162340927Y-94392673D01*
X162483377Y-94181640D01*
X162533440Y-93932000D01*
X162533440Y-115139000D01*
X154097162Y-115139000D01*
X154097162Y-101414833D01*
X153955117Y-101071057D01*
X153692327Y-100807808D01*
X153348799Y-100665162D01*
X152976833Y-100664838D01*
X152633057Y-100806883D01*
X152601885Y-100838000D01*
X148896244Y-100838000D01*
X148739327Y-100680808D01*
X148395799Y-100538162D01*
X148023833Y-100537838D01*
X148001162Y-100547205D01*
X148001162Y-91508833D01*
X147859117Y-91165057D01*
X147596327Y-90901808D01*
X147252799Y-90759162D01*
X146880833Y-90758838D01*
X146685000Y-90839754D01*
X146685000Y-68606250D01*
X146685000Y-66457000D01*
X146685000Y-66203000D01*
X146685000Y-64053750D01*
X146526250Y-63895000D01*
X145338309Y-63895000D01*
X145085690Y-63895000D01*
X144852301Y-63991673D01*
X144673673Y-64170302D01*
X144577000Y-64403691D01*
X144577000Y-66044250D01*
X144735750Y-66203000D01*
X146685000Y-66203000D01*
X146685000Y-66457000D01*
X144735750Y-66457000D01*
X144577000Y-66615750D01*
X144577000Y-68256309D01*
X144673673Y-68489698D01*
X144852301Y-68668327D01*
X145085690Y-68765000D01*
X145338309Y-68765000D01*
X146526250Y-68765000D01*
X146685000Y-68606250D01*
X146685000Y-90839754D01*
X146537057Y-90900883D01*
X146273808Y-91163673D01*
X146131162Y-91507201D01*
X146131123Y-91551246D01*
X145461162Y-92221207D01*
X145461162Y-87190833D01*
X145319117Y-86847057D01*
X145056327Y-86583808D01*
X144712799Y-86441162D01*
X144340833Y-86440838D01*
X143997057Y-86582883D01*
X143733808Y-86845673D01*
X143591162Y-87189201D01*
X143591123Y-87233245D01*
X142463187Y-88361182D01*
X142463184Y-88361185D01*
X140939185Y-89885185D01*
X140889162Y-89960049D01*
X140889162Y-64330833D01*
X140747117Y-63987057D01*
X140484327Y-63723808D01*
X140140799Y-63581162D01*
X139768833Y-63580838D01*
X139425057Y-63722883D01*
X139393885Y-63754000D01*
X138349162Y-63754000D01*
X138349162Y-53154833D01*
X138207117Y-52811057D01*
X137944327Y-52547808D01*
X137600799Y-52405162D01*
X137228833Y-52404838D01*
X136885057Y-52546883D01*
X136853885Y-52578000D01*
X132783658Y-52578000D01*
X132614811Y-52325302D01*
X132232725Y-52070000D01*
X132614811Y-51814698D01*
X132925880Y-51349151D01*
X133035113Y-50800000D01*
X132925880Y-50250849D01*
X132614811Y-49785302D01*
X132232725Y-49530000D01*
X132614811Y-49274698D01*
X132925880Y-48809151D01*
X133035113Y-48260000D01*
X132925880Y-47710849D01*
X132614811Y-47245302D01*
X132149264Y-46934233D01*
X131600113Y-46825000D01*
X131543887Y-46825000D01*
X130994736Y-46934233D01*
X130529189Y-47245302D01*
X130218120Y-47710849D01*
X130108887Y-48260000D01*
X130218120Y-48809151D01*
X130529189Y-49274698D01*
X130911274Y-49529999D01*
X130529189Y-49785302D01*
X130218120Y-50250849D01*
X130108887Y-50800000D01*
X130218120Y-51349151D01*
X130529189Y-51814698D01*
X130911274Y-52069999D01*
X130529189Y-52325302D01*
X130218120Y-52790849D01*
X130108887Y-53340000D01*
X130218120Y-53889151D01*
X130529189Y-54354698D01*
X130994736Y-54665767D01*
X131543887Y-54775000D01*
X131600113Y-54775000D01*
X132149264Y-54665767D01*
X132614811Y-54354698D01*
X132783658Y-54102000D01*
X136853533Y-54102000D01*
X136883673Y-54132192D01*
X137227201Y-54274838D01*
X137599167Y-54275162D01*
X137942943Y-54133117D01*
X138206192Y-53870327D01*
X138348838Y-53526799D01*
X138349162Y-53154833D01*
X138349162Y-63754000D01*
X132984589Y-63754000D01*
X132925880Y-63458849D01*
X132614811Y-62993302D01*
X132232725Y-62738000D01*
X132614811Y-62482698D01*
X132925880Y-62017151D01*
X133035113Y-61468000D01*
X132925880Y-60918849D01*
X132614811Y-60453302D01*
X132232725Y-60198000D01*
X132614811Y-59942698D01*
X132925880Y-59477151D01*
X133035113Y-58928000D01*
X132925880Y-58378849D01*
X132614811Y-57913302D01*
X132149264Y-57602233D01*
X131600113Y-57493000D01*
X131543887Y-57493000D01*
X130994736Y-57602233D01*
X130529189Y-57913302D01*
X130218120Y-58378849D01*
X130108887Y-58928000D01*
X130218120Y-59477151D01*
X130529189Y-59942698D01*
X130911274Y-60197999D01*
X130529189Y-60453302D01*
X130218120Y-60918849D01*
X130108887Y-61468000D01*
X130218120Y-62017151D01*
X130529189Y-62482698D01*
X130911274Y-62737999D01*
X130529189Y-62993302D01*
X130218120Y-63458849D01*
X130108887Y-64008000D01*
X130218120Y-64557151D01*
X130529189Y-65022698D01*
X130994736Y-65333767D01*
X131543887Y-65443000D01*
X131600113Y-65443000D01*
X132149264Y-65333767D01*
X132232725Y-65278000D01*
X139393533Y-65278000D01*
X139423673Y-65308192D01*
X139767201Y-65450838D01*
X140139167Y-65451162D01*
X140482943Y-65309117D01*
X140746192Y-65046327D01*
X140888838Y-64702799D01*
X140889162Y-64330833D01*
X140889162Y-89960049D01*
X140774004Y-90132395D01*
X140729022Y-90358533D01*
X140729021Y-90358534D01*
X140685808Y-90401673D01*
X140543162Y-90745201D01*
X140542838Y-91117167D01*
X140684883Y-91460943D01*
X140947673Y-91724192D01*
X141291201Y-91866838D01*
X141663167Y-91867162D01*
X142006943Y-91725117D01*
X142270192Y-91462327D01*
X142412838Y-91118799D01*
X142413162Y-90746833D01*
X142360426Y-90619203D01*
X143540815Y-89438816D01*
X143540815Y-89438815D01*
X143540817Y-89438812D01*
X144668505Y-88311124D01*
X144711167Y-88311162D01*
X145054943Y-88169117D01*
X145318192Y-87906327D01*
X145460838Y-87562799D01*
X145461162Y-87190833D01*
X145461162Y-92221207D01*
X140700249Y-96982120D01*
X140761838Y-96833799D01*
X140762162Y-96461833D01*
X140620117Y-96118057D01*
X140357327Y-95854808D01*
X140013799Y-95712162D01*
X139641833Y-95711838D01*
X139619162Y-95721205D01*
X139619162Y-75506833D01*
X139477117Y-75163057D01*
X139214327Y-74899808D01*
X138870799Y-74757162D01*
X138498833Y-74756838D01*
X138155057Y-74898883D01*
X138123885Y-74930000D01*
X132783658Y-74930000D01*
X132614811Y-74677302D01*
X132232725Y-74422000D01*
X132614811Y-74166698D01*
X132925880Y-73701151D01*
X133035113Y-73152000D01*
X132925880Y-72602849D01*
X132614811Y-72137302D01*
X132232725Y-71882000D01*
X132614811Y-71626698D01*
X132925880Y-71161151D01*
X133035113Y-70612000D01*
X132925880Y-70062849D01*
X132614811Y-69597302D01*
X132149264Y-69286233D01*
X131600113Y-69177000D01*
X131543887Y-69177000D01*
X130994736Y-69286233D01*
X130529189Y-69597302D01*
X130218120Y-70062849D01*
X130108887Y-70612000D01*
X130218120Y-71161151D01*
X130529189Y-71626698D01*
X130911274Y-71882000D01*
X130529189Y-72137302D01*
X130218120Y-72602849D01*
X130108887Y-73152000D01*
X130218120Y-73701151D01*
X130529189Y-74166698D01*
X130911274Y-74422000D01*
X130529189Y-74677302D01*
X130218120Y-75142849D01*
X130108887Y-75692000D01*
X130218120Y-76241151D01*
X130529189Y-76706698D01*
X130994736Y-77017767D01*
X131543887Y-77127000D01*
X131600113Y-77127000D01*
X132149264Y-77017767D01*
X132614811Y-76706698D01*
X132783658Y-76454000D01*
X138123533Y-76454000D01*
X138153673Y-76484192D01*
X138497201Y-76626838D01*
X138869167Y-76627162D01*
X139212943Y-76485117D01*
X139476192Y-76222327D01*
X139618838Y-75878799D01*
X139619162Y-75506833D01*
X139619162Y-95721205D01*
X139298057Y-95853883D01*
X139266885Y-95885000D01*
X138364630Y-95885000D01*
X133604000Y-91124370D01*
X133604000Y-89714466D01*
X133634192Y-89684327D01*
X133776838Y-89340799D01*
X133777162Y-88968833D01*
X133635117Y-88625057D01*
X133372327Y-88361808D01*
X133035113Y-88221783D01*
X133035113Y-86360000D01*
X132925880Y-85810849D01*
X132614811Y-85345302D01*
X132232725Y-85090000D01*
X132614811Y-84834698D01*
X132925880Y-84369151D01*
X133035113Y-83820000D01*
X132925880Y-83270849D01*
X132614811Y-82805302D01*
X132232725Y-82550000D01*
X132614811Y-82294698D01*
X132925880Y-81829151D01*
X133035113Y-81280000D01*
X132925880Y-80730849D01*
X132614811Y-80265302D01*
X132149264Y-79954233D01*
X131600113Y-79845000D01*
X131543887Y-79845000D01*
X130994736Y-79954233D01*
X130529189Y-80265302D01*
X130218120Y-80730849D01*
X130108887Y-81280000D01*
X130218120Y-81829151D01*
X130529189Y-82294698D01*
X130911274Y-82550000D01*
X130529189Y-82805302D01*
X130218120Y-83270849D01*
X130108887Y-83820000D01*
X130218120Y-84369151D01*
X130529189Y-84834698D01*
X130911274Y-85090000D01*
X130529189Y-85345302D01*
X130218120Y-85810849D01*
X130108887Y-86360000D01*
X130218120Y-86909151D01*
X130529189Y-87374698D01*
X130994736Y-87685767D01*
X131543887Y-87795000D01*
X131600113Y-87795000D01*
X132149264Y-87685767D01*
X132614811Y-87374698D01*
X132925880Y-86909151D01*
X133035113Y-86360000D01*
X133035113Y-88221783D01*
X133028799Y-88219162D01*
X132656833Y-88218838D01*
X132313057Y-88360883D01*
X132049808Y-88623673D01*
X131907162Y-88967201D01*
X131906838Y-89339167D01*
X132048883Y-89682943D01*
X132080000Y-89714114D01*
X132080000Y-91440000D01*
X132138004Y-91731605D01*
X132303185Y-91978815D01*
X137230849Y-96906479D01*
X137012057Y-96996883D01*
X136748808Y-97259673D01*
X136606162Y-97603201D01*
X136605838Y-97975167D01*
X136747883Y-98318943D01*
X137010673Y-98582192D01*
X137354201Y-98724838D01*
X137726167Y-98725162D01*
X138069943Y-98583117D01*
X138101114Y-98552000D01*
X140970000Y-98552000D01*
X140970000Y-98551999D01*
X141261604Y-98493996D01*
X141261605Y-98493996D01*
X141508815Y-98328815D01*
X147208505Y-92629124D01*
X147251167Y-92629162D01*
X147594943Y-92487117D01*
X147858192Y-92224327D01*
X148000838Y-91880799D01*
X148001162Y-91508833D01*
X148001162Y-100547205D01*
X147680057Y-100679883D01*
X147416808Y-100942673D01*
X147274162Y-101286201D01*
X147273838Y-101658167D01*
X147415883Y-102001943D01*
X147678673Y-102265192D01*
X148022201Y-102407838D01*
X148394167Y-102408162D01*
X148505887Y-102362000D01*
X152601533Y-102362000D01*
X152631673Y-102392192D01*
X152975201Y-102534838D01*
X153347167Y-102535162D01*
X153690943Y-102393117D01*
X153954192Y-102130327D01*
X154096838Y-101786799D01*
X154097162Y-101414833D01*
X154097162Y-115139000D01*
X139534184Y-115139000D01*
X139534184Y-111105913D01*
X139534184Y-110382087D01*
X139340954Y-109829680D01*
X138951036Y-109393268D01*
X138423791Y-109139291D01*
X138408026Y-109136642D01*
X138176000Y-109257783D01*
X138176000Y-110617000D01*
X139389924Y-110617000D01*
X139534184Y-110382087D01*
X139534184Y-111105913D01*
X139389924Y-110871000D01*
X138176000Y-110871000D01*
X138176000Y-112230217D01*
X138408026Y-112351358D01*
X138423791Y-112348709D01*
X138951036Y-112094732D01*
X139340954Y-111658320D01*
X139534184Y-111105913D01*
X139534184Y-115139000D01*
X137922000Y-115139000D01*
X137922000Y-112230217D01*
X137922000Y-110871000D01*
X137902000Y-110871000D01*
X137902000Y-110617000D01*
X137922000Y-110617000D01*
X137922000Y-109257783D01*
X137689974Y-109136642D01*
X137674209Y-109139291D01*
X137146964Y-109393268D01*
X136775460Y-109809069D01*
X136568670Y-109499585D01*
X136082489Y-109174729D01*
X135509000Y-109060655D01*
X134935511Y-109174729D01*
X134449330Y-109499585D01*
X134239000Y-109814365D01*
X134028670Y-109499585D01*
X133542489Y-109174729D01*
X132969000Y-109060655D01*
X132395511Y-109174729D01*
X131909330Y-109499585D01*
X131699000Y-109814365D01*
X131488670Y-109499585D01*
X131002489Y-109174729D01*
X130429000Y-109060655D01*
X129855511Y-109174729D01*
X129369330Y-109499585D01*
X129159000Y-109814365D01*
X128948670Y-109499585D01*
X128462489Y-109174729D01*
X127889000Y-109060655D01*
X127315511Y-109174729D01*
X126829330Y-109499585D01*
X126818784Y-109515367D01*
X126813063Y-109485877D01*
X126673273Y-109273073D01*
X126462240Y-109130623D01*
X126212600Y-109080560D01*
X124485400Y-109080560D01*
X124243277Y-109127537D01*
X124030473Y-109267327D01*
X123888023Y-109478360D01*
X123837960Y-109728000D01*
X123837960Y-111760000D01*
X123884937Y-112002123D01*
X124024727Y-112214927D01*
X124235760Y-112357377D01*
X124485400Y-112407440D01*
X126212600Y-112407440D01*
X126454723Y-112360463D01*
X126667527Y-112220673D01*
X126809977Y-112009640D01*
X126817718Y-111971037D01*
X126829330Y-111988415D01*
X127315511Y-112313271D01*
X127889000Y-112427345D01*
X128462489Y-112313271D01*
X128948670Y-111988415D01*
X129159000Y-111673634D01*
X129369330Y-111988415D01*
X129855511Y-112313271D01*
X130429000Y-112427345D01*
X131002489Y-112313271D01*
X131488670Y-111988415D01*
X131699000Y-111673634D01*
X131909330Y-111988415D01*
X132395511Y-112313271D01*
X132969000Y-112427345D01*
X133542489Y-112313271D01*
X134028670Y-111988415D01*
X134239000Y-111673634D01*
X134449330Y-111988415D01*
X134935511Y-112313271D01*
X135509000Y-112427345D01*
X136082489Y-112313271D01*
X136568670Y-111988415D01*
X136775460Y-111678930D01*
X137146964Y-112094732D01*
X137674209Y-112348709D01*
X137689974Y-112351358D01*
X137922000Y-112230217D01*
X137922000Y-115139000D01*
X120015000Y-115139000D01*
X120015000Y-95057039D01*
X122505787Y-93064410D01*
X128651000Y-88455500D01*
X128651000Y-46574198D01*
X128845201Y-46654838D01*
X129217167Y-46655162D01*
X129560943Y-46513117D01*
X129824192Y-46250327D01*
X129966838Y-45906799D01*
X129966876Y-45862754D01*
X129982630Y-45847000D01*
X141224000Y-45847000D01*
X141224000Y-41656000D01*
X145288000Y-41656000D01*
X145288000Y-34721000D01*
X184735000Y-34721000D01*
X184735000Y-50799838D01*
X184704223Y-50753777D01*
X183434223Y-49483777D01*
X183063407Y-49236006D01*
X182626000Y-49149000D01*
X180305446Y-49149000D01*
X179867886Y-48711440D01*
X182194000Y-48711440D01*
X182436123Y-48664463D01*
X182648927Y-48524673D01*
X182791377Y-48313640D01*
X182841440Y-48064000D01*
X182841440Y-47416967D01*
X183065167Y-47417162D01*
X183408943Y-47275117D01*
X183672192Y-47012327D01*
X183814838Y-46668799D01*
X183815162Y-46296833D01*
X183673117Y-45953057D01*
X183410327Y-45689808D01*
X183066799Y-45547162D01*
X182888262Y-45547006D01*
X182888260Y-45547006D01*
X182841440Y-45537693D01*
X182841440Y-45537692D01*
X182841440Y-44464000D01*
X182841440Y-39864000D01*
X182841440Y-36264000D01*
X182794463Y-36021877D01*
X182654673Y-35809073D01*
X182443640Y-35666623D01*
X182194000Y-35616560D01*
X178994000Y-35616560D01*
X178751877Y-35663537D01*
X178539073Y-35803327D01*
X178396623Y-36014360D01*
X178346560Y-36264000D01*
X178346560Y-37302000D01*
X178344000Y-37302000D01*
X178052395Y-37360004D01*
X177953376Y-37426165D01*
X177805185Y-37525184D01*
X173839370Y-41490998D01*
X173839370Y-37550185D01*
X173515020Y-36765200D01*
X172914959Y-36164091D01*
X172130541Y-35838372D01*
X171281185Y-35837630D01*
X170496200Y-36161980D01*
X169895091Y-36762041D01*
X169569372Y-37546459D01*
X169568630Y-38395815D01*
X169892980Y-39180800D01*
X170493041Y-39781909D01*
X171277459Y-40107628D01*
X172126815Y-40108370D01*
X172911800Y-39784020D01*
X173512909Y-39183959D01*
X173838628Y-38399541D01*
X173839370Y-37550185D01*
X173839370Y-41490998D01*
X172039502Y-43290866D01*
X171958000Y-43274655D01*
X171384511Y-43388729D01*
X170898330Y-43713585D01*
X170691539Y-44023069D01*
X170320036Y-43607268D01*
X169792791Y-43353291D01*
X169777026Y-43350642D01*
X169545000Y-43471783D01*
X169545000Y-44831000D01*
X169565000Y-44831000D01*
X169565000Y-45085000D01*
X169545000Y-45085000D01*
X169545000Y-46444217D01*
X169777026Y-46565358D01*
X169792791Y-46562709D01*
X170320036Y-46308732D01*
X170691539Y-45892930D01*
X170898330Y-46202415D01*
X171384511Y-46527271D01*
X171958000Y-46641345D01*
X172531489Y-46527271D01*
X173017670Y-46202415D01*
X173028215Y-46186632D01*
X173033937Y-46216123D01*
X173173727Y-46428927D01*
X173384760Y-46571377D01*
X173634400Y-46621440D01*
X175361600Y-46621440D01*
X175603723Y-46574463D01*
X175816527Y-46434673D01*
X175958977Y-46223640D01*
X176009040Y-45974000D01*
X176009040Y-43942000D01*
X175962063Y-43699877D01*
X175822273Y-43487073D01*
X175611240Y-43344623D01*
X175361600Y-43294560D01*
X174191070Y-43294560D01*
X178346560Y-39139070D01*
X178346560Y-39864000D01*
X178393537Y-40106123D01*
X178533327Y-40318927D01*
X178744360Y-40461377D01*
X178994000Y-40511440D01*
X182194000Y-40511440D01*
X182436123Y-40464463D01*
X182648927Y-40324673D01*
X182791377Y-40113640D01*
X182841440Y-39864000D01*
X182841440Y-44464000D01*
X182794463Y-44221877D01*
X182654673Y-44009073D01*
X182443640Y-43866623D01*
X182194000Y-43816560D01*
X178994000Y-43816560D01*
X178751877Y-43863537D01*
X178539073Y-44003327D01*
X178396623Y-44214360D01*
X178346560Y-44464000D01*
X178346560Y-48064000D01*
X178377030Y-48221049D01*
X178007777Y-48467777D01*
X177760006Y-48838593D01*
X177673000Y-49276000D01*
X177760006Y-49713407D01*
X178007777Y-50084223D01*
X179023777Y-51100223D01*
X179394593Y-51347994D01*
X179832000Y-51435000D01*
X180338547Y-51435000D01*
X180094221Y-51598254D01*
X179793867Y-52047765D01*
X179688397Y-52578000D01*
X179768956Y-52983000D01*
X179192346Y-52983000D01*
X176887000Y-50677654D01*
X176887000Y-50038000D01*
X176724483Y-49220971D01*
X176261673Y-48528327D01*
X175569029Y-48065517D01*
X174752000Y-47903000D01*
X173934971Y-48065517D01*
X173242327Y-48528327D01*
X172779517Y-49220971D01*
X172617000Y-50038000D01*
X172617000Y-51562000D01*
X172617000Y-55118000D01*
X172779517Y-55935029D01*
X173242327Y-56627673D01*
X173934971Y-57090483D01*
X174752000Y-57253000D01*
X176784000Y-57253000D01*
X178308000Y-57253000D01*
X179768956Y-57253000D01*
X179688397Y-57658000D01*
X179793867Y-58188235D01*
X179959000Y-58435373D01*
X179959000Y-58703461D01*
X179139220Y-59251220D01*
X176853220Y-61537220D01*
X173805220Y-64585220D01*
X173125638Y-65602287D01*
X172887000Y-66802000D01*
X172887000Y-71374000D01*
X172962785Y-71755000D01*
X172847000Y-71755000D01*
X172847000Y-72991212D01*
X171277983Y-72617636D01*
X171277983Y-55500946D01*
X171277983Y-54735054D01*
X171277983Y-50420946D01*
X171277983Y-49655054D01*
X171009188Y-49069621D01*
X170536818Y-48631615D01*
X170054944Y-48432025D01*
X169799000Y-48551164D01*
X169799000Y-49911000D01*
X171159367Y-49911000D01*
X171277983Y-49655054D01*
X171277983Y-50420946D01*
X171159367Y-50165000D01*
X169799000Y-50165000D01*
X169799000Y-51524836D01*
X170054944Y-51643975D01*
X170536818Y-51444385D01*
X171009188Y-51006379D01*
X171277983Y-50420946D01*
X171277983Y-54735054D01*
X171009188Y-54149621D01*
X170536818Y-53711615D01*
X170054944Y-53512025D01*
X169799000Y-53631164D01*
X169799000Y-54991000D01*
X171159367Y-54991000D01*
X171277983Y-54735054D01*
X171277983Y-55500946D01*
X171159367Y-55245000D01*
X169799000Y-55245000D01*
X169799000Y-56604836D01*
X170054944Y-56723975D01*
X170536818Y-56524385D01*
X171009188Y-56086379D01*
X171277983Y-55500946D01*
X171277983Y-72617636D01*
X169545000Y-72205021D01*
X169545000Y-56604836D01*
X169545000Y-55245000D01*
X169545000Y-54991000D01*
X169545000Y-53631164D01*
X169545000Y-51524836D01*
X169545000Y-50165000D01*
X169545000Y-49911000D01*
X169545000Y-48551164D01*
X169291000Y-48432929D01*
X169291000Y-46444217D01*
X169291000Y-45085000D01*
X169271000Y-45085000D01*
X169271000Y-44831000D01*
X169291000Y-44831000D01*
X169291000Y-43471783D01*
X169058974Y-43350642D01*
X169043209Y-43353291D01*
X168515964Y-43607268D01*
X168126046Y-44043680D01*
X168007556Y-44382417D01*
X167933994Y-44012593D01*
X167686223Y-43641777D01*
X167315407Y-43394006D01*
X166878000Y-43307000D01*
X166440593Y-43394006D01*
X166069777Y-43641777D01*
X165822006Y-44012593D01*
X165735000Y-44450000D01*
X165735000Y-49276000D01*
X165822006Y-49713407D01*
X166069777Y-50084223D01*
X166440593Y-50331994D01*
X166878000Y-50419000D01*
X167315407Y-50331994D01*
X167686223Y-50084223D01*
X167933994Y-49713407D01*
X168021000Y-49276000D01*
X168021000Y-45572013D01*
X168126046Y-45872320D01*
X168515964Y-46308732D01*
X169043209Y-46562709D01*
X169058974Y-46565358D01*
X169291000Y-46444217D01*
X169291000Y-48432929D01*
X169289056Y-48432025D01*
X168807182Y-48631615D01*
X168334812Y-49069621D01*
X168066017Y-49655054D01*
X168184633Y-49911000D01*
X169545000Y-49911000D01*
X169545000Y-50165000D01*
X168184633Y-50165000D01*
X168066017Y-50420946D01*
X168334812Y-51006379D01*
X168807182Y-51444385D01*
X169289056Y-51643975D01*
X169545000Y-51524836D01*
X169545000Y-53631164D01*
X169289056Y-53512025D01*
X168807182Y-53711615D01*
X168334812Y-54149621D01*
X168066017Y-54735054D01*
X168184633Y-54991000D01*
X169545000Y-54991000D01*
X169545000Y-55245000D01*
X168184633Y-55245000D01*
X168066017Y-55500946D01*
X168334812Y-56086379D01*
X168807182Y-56524385D01*
X169289056Y-56723975D01*
X169545000Y-56604836D01*
X169545000Y-72205021D01*
X167654911Y-71755000D01*
X163283440Y-71755000D01*
X163283440Y-42150000D01*
X163283440Y-38550000D01*
X163236463Y-38307877D01*
X163096673Y-38095073D01*
X162885640Y-37952623D01*
X162636000Y-37902560D01*
X159436000Y-37902560D01*
X159193877Y-37949537D01*
X158981073Y-38089327D01*
X158838623Y-38300360D01*
X158788560Y-38550000D01*
X158788560Y-42150000D01*
X158835537Y-42392123D01*
X158975327Y-42604927D01*
X159186360Y-42747377D01*
X159436000Y-42797440D01*
X160101111Y-42797440D01*
X160100838Y-43111167D01*
X160242883Y-43454943D01*
X160505673Y-43718192D01*
X160849201Y-43860838D01*
X161221167Y-43861162D01*
X161564943Y-43719117D01*
X161828192Y-43456327D01*
X161970838Y-43112799D01*
X161971112Y-42797440D01*
X162636000Y-42797440D01*
X162878123Y-42750463D01*
X163090927Y-42610673D01*
X163233377Y-42399640D01*
X163283440Y-42150000D01*
X163283440Y-71755000D01*
X163276666Y-71755000D01*
X163271000Y-71759635D01*
X163271000Y-50476309D01*
X163271000Y-48835750D01*
X163271000Y-48264250D01*
X163271000Y-46623691D01*
X163174327Y-46390302D01*
X162995699Y-46211673D01*
X162762310Y-46115000D01*
X162509691Y-46115000D01*
X161321750Y-46115000D01*
X161163000Y-46273750D01*
X161163000Y-48423000D01*
X163112250Y-48423000D01*
X163271000Y-48264250D01*
X163271000Y-48835750D01*
X163112250Y-48677000D01*
X161163000Y-48677000D01*
X161163000Y-50826250D01*
X161321750Y-50985000D01*
X162509691Y-50985000D01*
X162762310Y-50985000D01*
X162995699Y-50888327D01*
X163174327Y-50709698D01*
X163271000Y-50476309D01*
X163271000Y-71759635D01*
X162468965Y-72415845D01*
X162468965Y-67018777D01*
X162441778Y-66448546D01*
X162275864Y-66047995D01*
X162029745Y-65973861D01*
X161850139Y-66153466D01*
X161850139Y-65794255D01*
X161776005Y-65548136D01*
X161238777Y-65355035D01*
X160909000Y-65370757D01*
X160909000Y-50826250D01*
X160909000Y-48677000D01*
X160909000Y-48423000D01*
X160909000Y-46273750D01*
X160750250Y-46115000D01*
X159562309Y-46115000D01*
X159309690Y-46115000D01*
X159076301Y-46211673D01*
X158897673Y-46390302D01*
X158801000Y-46623691D01*
X158801000Y-48264250D01*
X158959750Y-48423000D01*
X160909000Y-48423000D01*
X160909000Y-48677000D01*
X158959750Y-48677000D01*
X158801000Y-48835750D01*
X158801000Y-50476309D01*
X158897673Y-50709698D01*
X159076301Y-50888327D01*
X159309690Y-50985000D01*
X159562309Y-50985000D01*
X160750250Y-50985000D01*
X160909000Y-50826250D01*
X160909000Y-65370757D01*
X160668546Y-65382222D01*
X160267995Y-65548136D01*
X160193861Y-65794255D01*
X161022000Y-66622395D01*
X161850139Y-65794255D01*
X161850139Y-66153466D01*
X161201605Y-66802000D01*
X162029745Y-67630139D01*
X162275864Y-67556005D01*
X162468965Y-67018777D01*
X162468965Y-72415845D01*
X161850139Y-72922157D01*
X161850139Y-67809745D01*
X161022000Y-66981605D01*
X160842395Y-67161210D01*
X160842395Y-66802000D01*
X160014255Y-65973861D01*
X159768136Y-66047995D01*
X159575035Y-66585223D01*
X159602222Y-67155454D01*
X159768136Y-67556005D01*
X160014255Y-67630139D01*
X160842395Y-66802000D01*
X160842395Y-67161210D01*
X160193861Y-67809745D01*
X160267995Y-68055864D01*
X160805223Y-68248965D01*
X161375454Y-68221778D01*
X161776005Y-68055864D01*
X161850139Y-67809745D01*
X161850139Y-72922157D01*
X158457440Y-75698001D01*
X158457440Y-72376000D01*
X158457440Y-68776000D01*
X158410463Y-68533877D01*
X158270673Y-68321073D01*
X158059640Y-68178623D01*
X157810000Y-68128560D01*
X154610000Y-68128560D01*
X154367877Y-68175537D01*
X154155073Y-68315327D01*
X154012623Y-68526360D01*
X153962560Y-68776000D01*
X153962560Y-68834000D01*
X153205188Y-68834000D01*
X153094799Y-68788162D01*
X152722833Y-68787838D01*
X152379057Y-68929883D01*
X152347885Y-68961000D01*
X149225000Y-68961000D01*
X149059440Y-68993932D01*
X149059440Y-59930000D01*
X149059440Y-56330000D01*
X149012463Y-56087877D01*
X148872673Y-55875073D01*
X148661640Y-55732623D01*
X148412000Y-55682560D01*
X148001162Y-55682560D01*
X148001162Y-40708833D01*
X147859117Y-40365057D01*
X147596327Y-40101808D01*
X147252799Y-39959162D01*
X146880833Y-39958838D01*
X146537057Y-40100883D01*
X146273808Y-40363673D01*
X146131162Y-40707201D01*
X146130838Y-41079167D01*
X146272883Y-41422943D01*
X146535673Y-41686192D01*
X146879201Y-41828838D01*
X147251167Y-41829162D01*
X147594943Y-41687117D01*
X147858192Y-41424327D01*
X148000838Y-41080799D01*
X148001162Y-40708833D01*
X148001162Y-55682560D01*
X147574000Y-55682560D01*
X147574000Y-55424466D01*
X147604192Y-55394327D01*
X147746838Y-55050799D01*
X147747162Y-54678833D01*
X147605117Y-54335057D01*
X147342327Y-54071808D01*
X146998799Y-53929162D01*
X146626833Y-53928838D01*
X146283057Y-54070883D01*
X146019808Y-54333673D01*
X145877162Y-54677201D01*
X145876838Y-55049167D01*
X146018883Y-55392943D01*
X146050000Y-55424114D01*
X146050000Y-55682560D01*
X145212000Y-55682560D01*
X144969877Y-55729537D01*
X144757073Y-55869327D01*
X144614623Y-56080360D01*
X144564560Y-56330000D01*
X144564560Y-56639070D01*
X144557117Y-56621057D01*
X144294327Y-56357808D01*
X143950799Y-56215162D01*
X143906753Y-56215123D01*
X143175162Y-55483532D01*
X143175162Y-50360833D01*
X143175162Y-47312833D01*
X143033117Y-46969057D01*
X142770327Y-46705808D01*
X142426799Y-46563162D01*
X142054833Y-46562838D01*
X141711057Y-46704883D01*
X141447808Y-46967673D01*
X141305162Y-47311201D01*
X141304838Y-47683167D01*
X141446883Y-48026943D01*
X141709673Y-48290192D01*
X142053201Y-48432838D01*
X142425167Y-48433162D01*
X142768943Y-48291117D01*
X143032192Y-48028327D01*
X143174838Y-47684799D01*
X143175162Y-47312833D01*
X143175162Y-50360833D01*
X143033117Y-50017057D01*
X142770327Y-49753808D01*
X142426799Y-49611162D01*
X142054833Y-49610838D01*
X141711057Y-49752883D01*
X141447808Y-50015673D01*
X141305162Y-50359201D01*
X141304838Y-50731167D01*
X141446883Y-51074943D01*
X141709673Y-51338192D01*
X142053201Y-51480838D01*
X142425167Y-51481162D01*
X142768943Y-51339117D01*
X143032192Y-51076327D01*
X143174838Y-50732799D01*
X143175162Y-50360833D01*
X143175162Y-55483532D01*
X141397124Y-53705494D01*
X141397162Y-53662833D01*
X141255117Y-53319057D01*
X140992327Y-53055808D01*
X140648799Y-52913162D01*
X140276833Y-52912838D01*
X139933057Y-53054883D01*
X139669808Y-53317673D01*
X139527162Y-53661201D01*
X139526838Y-54033167D01*
X139668883Y-54376943D01*
X139931673Y-54640192D01*
X140275201Y-54782838D01*
X140319246Y-54782876D01*
X142828875Y-57292505D01*
X142828838Y-57335167D01*
X142970883Y-57678943D01*
X143233673Y-57942192D01*
X143577201Y-58084838D01*
X143949167Y-58085162D01*
X144292943Y-57943117D01*
X144556192Y-57680327D01*
X144564560Y-57660174D01*
X144564560Y-59930000D01*
X144611537Y-60172123D01*
X144751327Y-60384927D01*
X144962360Y-60527377D01*
X145212000Y-60577440D01*
X148412000Y-60577440D01*
X148654123Y-60530463D01*
X148866927Y-60390673D01*
X149009377Y-60179640D01*
X149059440Y-59930000D01*
X149059440Y-68993932D01*
X149047000Y-68996406D01*
X149047000Y-68256309D01*
X149047000Y-66615750D01*
X149047000Y-66044250D01*
X149047000Y-64403691D01*
X148950327Y-64170302D01*
X148771699Y-63991673D01*
X148538310Y-63895000D01*
X148285691Y-63895000D01*
X147097750Y-63895000D01*
X146939000Y-64053750D01*
X146939000Y-66203000D01*
X148888250Y-66203000D01*
X149047000Y-66044250D01*
X149047000Y-66615750D01*
X148888250Y-66457000D01*
X146939000Y-66457000D01*
X146939000Y-68606250D01*
X147097750Y-68765000D01*
X148285691Y-68765000D01*
X148538310Y-68765000D01*
X148771699Y-68668327D01*
X148950327Y-68489698D01*
X149047000Y-68256309D01*
X149047000Y-68996406D01*
X148933395Y-69019004D01*
X148686185Y-69184185D01*
X148007173Y-69863196D01*
X147807057Y-69945883D01*
X147543808Y-70208673D01*
X147401162Y-70552201D01*
X147400838Y-70924167D01*
X147542883Y-71267943D01*
X147805673Y-71531192D01*
X148149201Y-71673838D01*
X148521167Y-71674162D01*
X148864943Y-71532117D01*
X149128192Y-71269327D01*
X149270838Y-70925799D01*
X149270987Y-70754642D01*
X149540630Y-70485000D01*
X152347533Y-70485000D01*
X152377673Y-70515192D01*
X152721201Y-70657838D01*
X153093167Y-70658162D01*
X153204887Y-70612000D01*
X153962560Y-70612000D01*
X153962560Y-72376000D01*
X154009537Y-72618123D01*
X154149327Y-72830927D01*
X154360360Y-72973377D01*
X154610000Y-73023440D01*
X157810000Y-73023440D01*
X158052123Y-72976463D01*
X158264927Y-72836673D01*
X158407377Y-72625640D01*
X158457440Y-72376000D01*
X158457440Y-75698001D01*
X157686757Y-76328560D01*
X157005113Y-76328560D01*
X156838618Y-76079382D01*
X156286761Y-75527525D01*
X156241117Y-75417057D01*
X155978327Y-75153808D01*
X155634799Y-75011162D01*
X155262833Y-75010838D01*
X154919057Y-75152883D01*
X154655808Y-75415673D01*
X154513162Y-75759201D01*
X154512838Y-76131167D01*
X154595556Y-76331362D01*
X154367877Y-76375537D01*
X154155073Y-76515327D01*
X154012623Y-76726360D01*
X153962560Y-76976000D01*
X153962560Y-79244292D01*
X151765000Y-80964122D01*
X151765000Y-83418668D01*
X151598006Y-83668593D01*
X151511000Y-84106000D01*
X151511000Y-84130560D01*
X151054000Y-84130560D01*
X150811877Y-84177537D01*
X150599073Y-84317327D01*
X150456623Y-84528360D01*
X150406560Y-84778000D01*
X150406560Y-88378000D01*
X150453537Y-88620123D01*
X150593327Y-88832927D01*
X150804360Y-88975377D01*
X151054000Y-89025440D01*
X152132784Y-89025440D01*
X153876282Y-90551000D01*
X155264554Y-90551000D01*
X153484994Y-92330560D01*
X151054000Y-92330560D01*
X150811877Y-92377537D01*
X150599073Y-92517327D01*
X150456623Y-92728360D01*
X150406560Y-92978000D01*
X150406560Y-96578000D01*
X150453537Y-96820123D01*
X150593327Y-97032927D01*
X150804360Y-97175377D01*
X151054000Y-97225440D01*
X154254000Y-97225440D01*
X154496123Y-97178463D01*
X154708927Y-97038673D01*
X154851377Y-96827640D01*
X154901440Y-96578000D01*
X154901440Y-94147006D01*
X158497445Y-90551000D01*
X160044183Y-90551000D01*
X160186000Y-90579440D01*
X161886000Y-90579440D01*
X162032581Y-90551000D01*
X164776629Y-90551000D01*
X164884560Y-90427650D01*
X164884560Y-92260000D01*
X164931537Y-92502123D01*
X165071327Y-92714927D01*
X165282360Y-92857377D01*
X165532000Y-92907440D01*
X168732000Y-92907440D01*
X168974123Y-92860463D01*
X169186927Y-92720673D01*
X169329377Y-92509640D01*
X169352581Y-92393927D01*
X169386883Y-92476943D01*
X169649673Y-92740192D01*
X169993201Y-92882838D01*
X170365167Y-92883162D01*
X170708943Y-92741117D01*
X170972192Y-92478327D01*
X171114838Y-92134799D01*
X171115162Y-91762833D01*
X170973117Y-91419057D01*
X170710327Y-91155808D01*
X170366799Y-91013162D01*
X170322754Y-91013123D01*
X169379440Y-90069809D01*
X169379440Y-88660000D01*
X169332463Y-88417877D01*
X169192673Y-88205073D01*
X168981640Y-88062623D01*
X168732000Y-88012560D01*
X166997764Y-88012560D01*
X171038585Y-83394479D01*
X172310934Y-81867660D01*
X174090248Y-79579970D01*
X176585818Y-76371378D01*
X177107220Y-76892780D01*
X178124287Y-77572362D01*
X178124288Y-77572362D01*
X179324000Y-77811000D01*
X179746748Y-77811000D01*
X179393220Y-78047220D01*
X178713638Y-79064287D01*
X178475000Y-80264000D01*
X178475000Y-86360000D01*
X178475000Y-86475654D01*
X177267137Y-87683516D01*
X177236971Y-87689517D01*
X176544327Y-88152327D01*
X176081517Y-88844971D01*
X175919000Y-89662000D01*
X176081517Y-90479029D01*
X176300000Y-90806011D01*
X176300000Y-91499547D01*
X175595983Y-92203564D01*
X175595983Y-91822946D01*
X175595983Y-91057054D01*
X175595983Y-86742946D01*
X175595983Y-85977054D01*
X175327188Y-85391621D01*
X174854818Y-84953615D01*
X174372944Y-84754025D01*
X174117000Y-84873164D01*
X174117000Y-86233000D01*
X175477367Y-86233000D01*
X175595983Y-85977054D01*
X175595983Y-86742946D01*
X175477367Y-86487000D01*
X174117000Y-86487000D01*
X174117000Y-87846836D01*
X174372944Y-87965975D01*
X174854818Y-87766385D01*
X175327188Y-87328379D01*
X175595983Y-86742946D01*
X175595983Y-91057054D01*
X175327188Y-90471621D01*
X174854818Y-90033615D01*
X174372944Y-89834025D01*
X174117000Y-89953164D01*
X174117000Y-91313000D01*
X175477367Y-91313000D01*
X175595983Y-91057054D01*
X175595983Y-91822946D01*
X175477367Y-91567000D01*
X174117000Y-91567000D01*
X174117000Y-92926836D01*
X174372944Y-93045975D01*
X174854818Y-92846385D01*
X175327188Y-92408379D01*
X175595983Y-91822946D01*
X175595983Y-92203564D01*
X173904774Y-93894774D01*
X173863000Y-93957293D01*
X173863000Y-92926836D01*
X173863000Y-91567000D01*
X173863000Y-91313000D01*
X173863000Y-89953164D01*
X173863000Y-87846836D01*
X173863000Y-86487000D01*
X173863000Y-86233000D01*
X173863000Y-84873164D01*
X173607056Y-84754025D01*
X173125182Y-84953615D01*
X172652812Y-85391621D01*
X172384017Y-85977054D01*
X172502633Y-86233000D01*
X173863000Y-86233000D01*
X173863000Y-86487000D01*
X172502633Y-86487000D01*
X172384017Y-86742946D01*
X172652812Y-87328379D01*
X173125182Y-87766385D01*
X173607056Y-87965975D01*
X173863000Y-87846836D01*
X173863000Y-89953164D01*
X173607056Y-89834025D01*
X173125182Y-90033615D01*
X172652812Y-90471621D01*
X172384017Y-91057054D01*
X172502633Y-91313000D01*
X173863000Y-91313000D01*
X173863000Y-91567000D01*
X172502633Y-91567000D01*
X172384017Y-91822946D01*
X172652812Y-92408379D01*
X173125182Y-92846385D01*
X173607056Y-93045975D01*
X173863000Y-92926836D01*
X173863000Y-93957293D01*
X173333577Y-94749629D01*
X173133000Y-95758000D01*
X173133000Y-96520000D01*
X173333577Y-97528371D01*
X173904774Y-98383226D01*
X173967293Y-98425000D01*
X172466000Y-98425000D01*
X172028593Y-98512006D01*
X171657777Y-98759777D01*
X171410006Y-99130593D01*
X171323000Y-99568000D01*
X171410006Y-100005407D01*
X171657777Y-100376223D01*
X172028593Y-100623994D01*
X172466000Y-100711000D01*
X175032968Y-100711000D01*
X174603577Y-101353629D01*
X174403001Y-102362000D01*
X174603577Y-103370371D01*
X175174774Y-104225226D01*
X175936774Y-104987227D01*
X176791629Y-105558423D01*
X177800000Y-105759000D01*
X181610000Y-105759000D01*
X182618371Y-105558423D01*
X183473226Y-104987226D01*
X183688821Y-104664565D01*
X183999959Y-104456670D01*
X184408506Y-103845236D01*
X184551969Y-103124000D01*
X184408506Y-102402764D01*
X183999959Y-101791330D01*
X183688821Y-101583434D01*
X183473226Y-101260774D01*
X182618371Y-100689577D01*
X181610000Y-100489000D01*
X180217440Y-100489000D01*
X180386223Y-100376223D01*
X181341766Y-99420680D01*
X182667289Y-99420680D01*
X183388525Y-99277217D01*
X183999959Y-98868670D01*
X184408506Y-98257236D01*
X184551969Y-97536000D01*
X184408506Y-96814764D01*
X183999959Y-96203330D01*
X183388525Y-95794783D01*
X182667289Y-95651320D01*
X180552711Y-95651320D01*
X179831475Y-95794783D01*
X179220041Y-96203330D01*
X178811494Y-96814764D01*
X178668031Y-97536000D01*
X178811494Y-98257236D01*
X178923590Y-98425000D01*
X177568706Y-98425000D01*
X177631226Y-98383226D01*
X178202423Y-97528371D01*
X178321196Y-96931255D01*
X180298226Y-94954226D01*
X180298227Y-94954226D01*
X180298229Y-94954222D01*
X180832172Y-94420280D01*
X181610000Y-94575000D01*
X182809713Y-94336362D01*
X183826780Y-93656780D01*
X184506362Y-92639713D01*
X184735000Y-91490273D01*
X184735000Y-115139000D01*
G36*
X143637000Y-40005000D02*
X142087600Y-40005000D01*
X142087600Y-37517769D01*
X142087600Y-37158231D01*
X141992860Y-36681943D01*
X141723065Y-36278166D01*
X141319288Y-36008371D01*
X140843000Y-35913631D01*
X140366712Y-36008371D01*
X139962935Y-36278166D01*
X139693140Y-36681943D01*
X139598400Y-37158231D01*
X139598400Y-37517769D01*
X139693140Y-37994057D01*
X139962935Y-38397834D01*
X140366712Y-38667629D01*
X140843000Y-38762369D01*
X141319288Y-38667629D01*
X141723065Y-38397834D01*
X141992860Y-37994057D01*
X142087600Y-37517769D01*
X142087600Y-40005000D01*
X139573000Y-40005000D01*
X139573000Y-40640000D01*
X139573000Y-44577000D01*
X139547600Y-44577000D01*
X139547600Y-37517769D01*
X139547600Y-37158231D01*
X139452860Y-36681943D01*
X139183065Y-36278166D01*
X138779288Y-36008371D01*
X138303000Y-35913631D01*
X137826712Y-36008371D01*
X137422935Y-36278166D01*
X137153140Y-36681943D01*
X137058400Y-37158231D01*
X137058400Y-37517769D01*
X137153140Y-37994057D01*
X137422935Y-38397834D01*
X137826712Y-38667629D01*
X138303000Y-38762369D01*
X138779288Y-38667629D01*
X139183065Y-38397834D01*
X139452860Y-37994057D01*
X139547600Y-37517769D01*
X139547600Y-44577000D01*
X138137184Y-44577000D01*
X138137184Y-42017913D01*
X138137184Y-41294087D01*
X137943954Y-40741680D01*
X137554036Y-40305268D01*
X137026791Y-40051291D01*
X137011026Y-40048642D01*
X137007600Y-40050430D01*
X137007600Y-37517769D01*
X137007600Y-37158231D01*
X136912860Y-36681943D01*
X136643065Y-36278166D01*
X136239288Y-36008371D01*
X135763000Y-35913631D01*
X135286712Y-36008371D01*
X134882935Y-36278166D01*
X134613140Y-36681943D01*
X134518400Y-37158231D01*
X134518400Y-37517769D01*
X134613140Y-37994057D01*
X134882935Y-38397834D01*
X135286712Y-38667629D01*
X135763000Y-38762369D01*
X136239288Y-38667629D01*
X136643065Y-38397834D01*
X136912860Y-37994057D01*
X137007600Y-37517769D01*
X137007600Y-40050430D01*
X136779000Y-40169783D01*
X136779000Y-41529000D01*
X137992924Y-41529000D01*
X138137184Y-41294087D01*
X138137184Y-42017913D01*
X137992924Y-41783000D01*
X136779000Y-41783000D01*
X136779000Y-43142217D01*
X137011026Y-43263358D01*
X137026791Y-43260709D01*
X137554036Y-43006732D01*
X137943954Y-42570320D01*
X138137184Y-42017913D01*
X138137184Y-44577000D01*
X136525000Y-44577000D01*
X136525000Y-43142217D01*
X136525000Y-41783000D01*
X136505000Y-41783000D01*
X136505000Y-41529000D01*
X136525000Y-41529000D01*
X136525000Y-40169783D01*
X136292974Y-40048642D01*
X136277209Y-40051291D01*
X135749964Y-40305268D01*
X135360046Y-40741680D01*
X135264704Y-41014242D01*
X135261860Y-40999943D01*
X134992065Y-40596166D01*
X134588288Y-40326371D01*
X134112000Y-40231631D01*
X133635712Y-40326371D01*
X133231935Y-40596166D01*
X132962140Y-40999943D01*
X132867400Y-41476231D01*
X132867400Y-41835769D01*
X132962140Y-42312057D01*
X133231935Y-42715834D01*
X133635712Y-42985629D01*
X134112000Y-43080369D01*
X134588288Y-42985629D01*
X134992065Y-42715834D01*
X135261860Y-42312057D01*
X135264704Y-42297757D01*
X135360046Y-42570320D01*
X135749964Y-43006732D01*
X136277209Y-43260709D01*
X136292974Y-43263358D01*
X136525000Y-43142217D01*
X136525000Y-44577000D01*
X132824064Y-44577000D01*
X132824064Y-42672000D01*
X132824064Y-40640000D01*
X132795878Y-40494726D01*
X132712004Y-40367044D01*
X132585384Y-40281574D01*
X132435600Y-40251536D01*
X130708400Y-40251536D01*
X130563126Y-40279722D01*
X130435444Y-40363596D01*
X130349974Y-40490216D01*
X130319936Y-40640000D01*
X130319936Y-42672000D01*
X130348122Y-42817274D01*
X130431996Y-42944956D01*
X130558616Y-43030426D01*
X130708400Y-43060464D01*
X132435600Y-43060464D01*
X132580874Y-43032278D01*
X132708556Y-42948404D01*
X132794026Y-42821784D01*
X132824064Y-42672000D01*
X132824064Y-44577000D01*
X130048000Y-44577000D01*
X130048000Y-40088420D01*
X130766420Y-39370000D01*
X131699000Y-39370000D01*
X131893403Y-39331331D01*
X132058210Y-39221210D01*
X132665832Y-38613587D01*
X132746712Y-38667629D01*
X132926175Y-38703326D01*
X132710748Y-38792339D01*
X132519013Y-38983741D01*
X132415118Y-39233946D01*
X132414882Y-39504865D01*
X132518339Y-39755252D01*
X132709741Y-39946987D01*
X132959946Y-40050882D01*
X133230865Y-40051118D01*
X133481252Y-39947661D01*
X133672987Y-39756259D01*
X133776882Y-39506054D01*
X133777118Y-39235135D01*
X133673661Y-38984748D01*
X133482259Y-38793013D01*
X133348393Y-38737426D01*
X133699288Y-38667629D01*
X134103065Y-38397834D01*
X134372860Y-37994057D01*
X134467600Y-37517769D01*
X134467600Y-37158231D01*
X134372860Y-36681943D01*
X134103065Y-36278166D01*
X133699288Y-36008371D01*
X133223000Y-35913631D01*
X132746712Y-36008371D01*
X132342935Y-36278166D01*
X132073140Y-36681943D01*
X131978400Y-37158231D01*
X131978400Y-37517769D01*
X132035873Y-37806706D01*
X131801320Y-38041259D01*
X131832860Y-37994057D01*
X131927600Y-37517769D01*
X131927600Y-37158231D01*
X131832860Y-36681943D01*
X131563065Y-36278166D01*
X131159288Y-36008371D01*
X130683000Y-35913631D01*
X130206712Y-36008371D01*
X129802935Y-36278166D01*
X129533140Y-36681943D01*
X129438400Y-37158231D01*
X129438400Y-37517769D01*
X129495873Y-37806706D01*
X129261319Y-38041260D01*
X129292860Y-37994057D01*
X129387600Y-37517769D01*
X129387600Y-37158231D01*
X129292860Y-36681943D01*
X129023065Y-36278166D01*
X128619288Y-36008371D01*
X128143000Y-35913631D01*
X127666712Y-36008371D01*
X127262935Y-36278166D01*
X126993140Y-36681943D01*
X126898400Y-37158231D01*
X126898400Y-37517769D01*
X126993140Y-37994057D01*
X127262935Y-38397834D01*
X127635000Y-38646439D01*
X127635000Y-39123520D01*
X127577661Y-38984748D01*
X127386259Y-38793013D01*
X127136054Y-38689118D01*
X126865135Y-38688882D01*
X126847600Y-38696127D01*
X126847600Y-37517769D01*
X126847600Y-37158231D01*
X126752860Y-36681943D01*
X126483065Y-36278166D01*
X126079288Y-36008371D01*
X125603000Y-35913631D01*
X125126712Y-36008371D01*
X124722935Y-36278166D01*
X124453140Y-36681943D01*
X124450295Y-36696242D01*
X124354954Y-36423680D01*
X123965036Y-35987268D01*
X123437791Y-35733291D01*
X123422026Y-35730642D01*
X123190000Y-35851783D01*
X123190000Y-37211000D01*
X123210000Y-37211000D01*
X123210000Y-37465000D01*
X123190000Y-37465000D01*
X123190000Y-38824217D01*
X123422026Y-38945358D01*
X123437791Y-38942709D01*
X123965036Y-38688732D01*
X124354954Y-38252320D01*
X124450295Y-37979757D01*
X124453140Y-37994057D01*
X124722935Y-38397834D01*
X125126712Y-38667629D01*
X125603000Y-38762369D01*
X126079288Y-38667629D01*
X126483065Y-38397834D01*
X126752860Y-37994057D01*
X126847600Y-37517769D01*
X126847600Y-38696127D01*
X126614748Y-38792339D01*
X126423013Y-38983741D01*
X126319118Y-39233946D01*
X126318882Y-39504865D01*
X126422339Y-39755252D01*
X126613741Y-39946987D01*
X126863946Y-40050882D01*
X127134865Y-40051118D01*
X127385252Y-39947661D01*
X127576987Y-39756259D01*
X127635000Y-39616549D01*
X127635000Y-43604580D01*
X125946613Y-45292966D01*
X125849135Y-45292882D01*
X125598748Y-45396339D01*
X125407013Y-45587741D01*
X125303118Y-45837946D01*
X125302882Y-46108865D01*
X125406339Y-46359252D01*
X125597741Y-46550987D01*
X125847946Y-46654882D01*
X126118865Y-46655118D01*
X126369252Y-46551661D01*
X126388819Y-46532127D01*
X126422339Y-46613252D01*
X126613741Y-46804987D01*
X126863946Y-46908882D01*
X126873000Y-46908889D01*
X126873000Y-87820500D01*
X125343904Y-88967322D01*
X125343904Y-73501039D01*
X125343904Y-72802961D01*
X125343904Y-61817039D01*
X125343904Y-61118961D01*
X125343904Y-51149039D01*
X125343904Y-50450961D01*
X125183041Y-50062577D01*
X125156137Y-50032877D01*
X124807134Y-49647611D01*
X124301041Y-49408086D01*
X124079002Y-49529369D01*
X124079002Y-49420340D01*
X124427086Y-49351102D01*
X124810230Y-49095093D01*
X125066239Y-48711949D01*
X125156137Y-48260000D01*
X125066239Y-47808051D01*
X124810230Y-47424907D01*
X124427086Y-47168898D01*
X123975137Y-47079000D01*
X123928863Y-47079000D01*
X123476914Y-47168898D01*
X123444000Y-47190890D01*
X123444000Y-41656000D01*
X123380500Y-41336759D01*
X123380500Y-40386000D01*
X123312829Y-40045794D01*
X123120118Y-39757382D01*
X121546261Y-38183525D01*
X121672860Y-37994057D01*
X121675704Y-37979757D01*
X121771046Y-38252320D01*
X122160964Y-38688732D01*
X122688209Y-38942709D01*
X122703974Y-38945358D01*
X122936000Y-38824217D01*
X122936000Y-37465000D01*
X122916000Y-37465000D01*
X122916000Y-37211000D01*
X122936000Y-37211000D01*
X122936000Y-35851783D01*
X122703974Y-35730642D01*
X122688209Y-35733291D01*
X122160964Y-35987268D01*
X121771046Y-36423680D01*
X121675704Y-36696242D01*
X121672860Y-36681943D01*
X121403065Y-36278166D01*
X120999288Y-36008371D01*
X120523000Y-35913631D01*
X120046712Y-36008371D01*
X119642935Y-36278166D01*
X119373140Y-36681943D01*
X119278400Y-37158231D01*
X119278400Y-37517769D01*
X119373140Y-37994057D01*
X119634000Y-38384461D01*
X119634000Y-38417500D01*
X119701671Y-38757706D01*
X119894382Y-39046118D01*
X121602500Y-40754236D01*
X121602500Y-41592500D01*
X121670171Y-41932706D01*
X121862882Y-42221118D01*
X121926382Y-42284618D01*
X122214795Y-42477330D01*
X122555000Y-42545000D01*
X122895206Y-42477330D01*
X123183618Y-42284618D01*
X123376330Y-41996206D01*
X123444000Y-41656000D01*
X123444000Y-47190890D01*
X123093770Y-47424907D01*
X122837761Y-47808051D01*
X122747863Y-48260000D01*
X122837761Y-48711949D01*
X123093770Y-49095093D01*
X123476914Y-49351102D01*
X123824998Y-49420340D01*
X123824998Y-49529369D01*
X123602959Y-49408086D01*
X123096866Y-49647611D01*
X122720959Y-50062577D01*
X122560096Y-50450961D01*
X122682085Y-50673000D01*
X123825000Y-50673000D01*
X123825000Y-50653000D01*
X124079000Y-50653000D01*
X124079000Y-50673000D01*
X125221915Y-50673000D01*
X125343904Y-50450961D01*
X125343904Y-51149039D01*
X125221915Y-50927000D01*
X124079000Y-50927000D01*
X124079000Y-50947000D01*
X123825000Y-50947000D01*
X123825000Y-50927000D01*
X122682085Y-50927000D01*
X122560096Y-51149039D01*
X122720959Y-51537423D01*
X123096866Y-51952389D01*
X123602959Y-52191914D01*
X123824998Y-52070630D01*
X123824998Y-52179659D01*
X123476914Y-52248898D01*
X123093770Y-52504907D01*
X122837761Y-52888051D01*
X122747863Y-53340000D01*
X122837761Y-53791949D01*
X123093770Y-54175093D01*
X123476914Y-54431102D01*
X123928863Y-54521000D01*
X123975137Y-54521000D01*
X124427086Y-54431102D01*
X124810230Y-54175093D01*
X125066239Y-53791949D01*
X125156137Y-53340000D01*
X125066239Y-52888051D01*
X124810230Y-52504907D01*
X124427086Y-52248898D01*
X124079002Y-52179659D01*
X124079002Y-52070630D01*
X124301041Y-52191914D01*
X124807134Y-51952389D01*
X125183041Y-51537423D01*
X125343904Y-51149039D01*
X125343904Y-61118961D01*
X125183041Y-60730577D01*
X125156137Y-60700877D01*
X124807134Y-60315611D01*
X124301041Y-60076086D01*
X124079002Y-60197369D01*
X124079002Y-60088340D01*
X124427086Y-60019102D01*
X124810230Y-59763093D01*
X125066239Y-59379949D01*
X125156137Y-58928000D01*
X125066239Y-58476051D01*
X124810230Y-58092907D01*
X124427086Y-57836898D01*
X123975137Y-57747000D01*
X123928863Y-57747000D01*
X123476914Y-57836898D01*
X123093770Y-58092907D01*
X122837761Y-58476051D01*
X122747863Y-58928000D01*
X122837761Y-59379949D01*
X123093770Y-59763093D01*
X123476914Y-60019102D01*
X123824998Y-60088340D01*
X123824998Y-60197369D01*
X123602959Y-60076086D01*
X123096866Y-60315611D01*
X122720959Y-60730577D01*
X122560096Y-61118961D01*
X122682085Y-61341000D01*
X123825000Y-61341000D01*
X123825000Y-61321000D01*
X124079000Y-61321000D01*
X124079000Y-61341000D01*
X125221915Y-61341000D01*
X125343904Y-61118961D01*
X125343904Y-61817039D01*
X125221915Y-61595000D01*
X124079000Y-61595000D01*
X124079000Y-61615000D01*
X123825000Y-61615000D01*
X123825000Y-61595000D01*
X122682085Y-61595000D01*
X122560096Y-61817039D01*
X122720959Y-62205423D01*
X123096866Y-62620389D01*
X123602959Y-62859914D01*
X123824998Y-62738630D01*
X123824998Y-62847659D01*
X123476914Y-62916898D01*
X123093770Y-63172907D01*
X122837761Y-63556051D01*
X122747863Y-64008000D01*
X122837761Y-64459949D01*
X123093770Y-64843093D01*
X123476914Y-65099102D01*
X123928863Y-65189000D01*
X123975137Y-65189000D01*
X124427086Y-65099102D01*
X124810230Y-64843093D01*
X125066239Y-64459949D01*
X125156137Y-64008000D01*
X125066239Y-63556051D01*
X124810230Y-63172907D01*
X124427086Y-62916898D01*
X124079002Y-62847659D01*
X124079002Y-62738630D01*
X124301041Y-62859914D01*
X124807134Y-62620389D01*
X125183041Y-62205423D01*
X125343904Y-61817039D01*
X125343904Y-72802961D01*
X125183041Y-72414577D01*
X125156137Y-72384877D01*
X124807134Y-71999611D01*
X124301041Y-71760086D01*
X124079002Y-71881369D01*
X124079002Y-71772340D01*
X124427086Y-71703102D01*
X124810230Y-71447093D01*
X125066239Y-71063949D01*
X125156137Y-70612000D01*
X125066239Y-70160051D01*
X124810230Y-69776907D01*
X124427086Y-69520898D01*
X123975137Y-69431000D01*
X123928863Y-69431000D01*
X123476914Y-69520898D01*
X123093770Y-69776907D01*
X122837761Y-70160051D01*
X122747863Y-70612000D01*
X122837761Y-71063949D01*
X123093770Y-71447093D01*
X123476914Y-71703102D01*
X123824998Y-71772340D01*
X123824998Y-71881369D01*
X123602959Y-71760086D01*
X123096866Y-71999611D01*
X122720959Y-72414577D01*
X122560096Y-72802961D01*
X122682085Y-73025000D01*
X123825000Y-73025000D01*
X123825000Y-73005000D01*
X124079000Y-73005000D01*
X124079000Y-73025000D01*
X125221915Y-73025000D01*
X125343904Y-72802961D01*
X125343904Y-73501039D01*
X125221915Y-73279000D01*
X124079000Y-73279000D01*
X124079000Y-73299000D01*
X123825000Y-73299000D01*
X123825000Y-73279000D01*
X122682085Y-73279000D01*
X122560096Y-73501039D01*
X122720959Y-73889423D01*
X123096866Y-74304389D01*
X123602959Y-74543914D01*
X123824998Y-74422630D01*
X123824998Y-74531659D01*
X123476914Y-74600898D01*
X123093770Y-74856907D01*
X122837761Y-75240051D01*
X122747863Y-75692000D01*
X122837761Y-76143949D01*
X123093770Y-76527093D01*
X123476914Y-76783102D01*
X123928863Y-76873000D01*
X123975137Y-76873000D01*
X124427086Y-76783102D01*
X124810230Y-76527093D01*
X125066239Y-76143949D01*
X125156137Y-75692000D01*
X125066239Y-75240051D01*
X124810230Y-74856907D01*
X124427086Y-74600898D01*
X124079002Y-74531659D01*
X124079002Y-74422630D01*
X124301041Y-74543914D01*
X124807134Y-74304389D01*
X125183041Y-73889423D01*
X125343904Y-73501039D01*
X125343904Y-88967322D01*
X125156137Y-89108147D01*
X125156137Y-86360000D01*
X125156137Y-83820000D01*
X125156137Y-81280000D01*
X125066239Y-80828051D01*
X124810230Y-80444907D01*
X124427086Y-80188898D01*
X123975137Y-80099000D01*
X123928863Y-80099000D01*
X123476914Y-80188898D01*
X123093770Y-80444907D01*
X122837761Y-80828051D01*
X122747863Y-81280000D01*
X122837761Y-81731949D01*
X123093770Y-82115093D01*
X123476914Y-82371102D01*
X123928863Y-82461000D01*
X123975137Y-82461000D01*
X124427086Y-82371102D01*
X124810230Y-82115093D01*
X125066239Y-81731949D01*
X125156137Y-81280000D01*
X125156137Y-83820000D01*
X125066239Y-83368051D01*
X124810230Y-82984907D01*
X124427086Y-82728898D01*
X123975137Y-82639000D01*
X123928863Y-82639000D01*
X123476914Y-82728898D01*
X123109073Y-82974681D01*
X123109118Y-82923135D01*
X123005661Y-82672748D01*
X122814259Y-82481013D01*
X122564054Y-82377118D01*
X122293135Y-82376882D01*
X122042748Y-82480339D01*
X121851013Y-82671741D01*
X121747118Y-82921946D01*
X121746882Y-83192865D01*
X121850339Y-83443252D01*
X121920000Y-83513034D01*
X121920000Y-84117580D01*
X120612613Y-85424966D01*
X120515135Y-85424882D01*
X120264748Y-85528339D01*
X120073013Y-85719741D01*
X119969118Y-85969946D01*
X119968882Y-86240865D01*
X120072339Y-86491252D01*
X120263741Y-86682987D01*
X120513946Y-86786882D01*
X120784865Y-86787118D01*
X121035252Y-86683661D01*
X121226987Y-86492259D01*
X121330882Y-86242054D01*
X121330967Y-86143452D01*
X122787210Y-84687210D01*
X122897331Y-84522403D01*
X122922055Y-84398104D01*
X123093770Y-84655093D01*
X123476914Y-84911102D01*
X123928863Y-85001000D01*
X123975137Y-85001000D01*
X124427086Y-84911102D01*
X124810230Y-84655093D01*
X125066239Y-84271949D01*
X125156137Y-83820000D01*
X125156137Y-86360000D01*
X125066239Y-85908051D01*
X124810230Y-85524907D01*
X124427086Y-85268898D01*
X123975137Y-85179000D01*
X123928863Y-85179000D01*
X123476914Y-85268898D01*
X123093770Y-85524907D01*
X122837761Y-85908051D01*
X122747863Y-86360000D01*
X122837761Y-86811949D01*
X123093770Y-87195093D01*
X123476914Y-87451102D01*
X123928863Y-87541000D01*
X123975137Y-87541000D01*
X124427086Y-87451102D01*
X124810230Y-87195093D01*
X125066239Y-86811949D01*
X125156137Y-86360000D01*
X125156137Y-89108147D01*
X124891181Y-89306865D01*
X118537118Y-94194605D01*
X118537118Y-82669135D01*
X118433661Y-82418748D01*
X118364000Y-82348965D01*
X118364000Y-80465126D01*
X118432987Y-80396259D01*
X118536882Y-80146054D01*
X118537118Y-79875135D01*
X118433661Y-79624748D01*
X118283118Y-79473943D01*
X118283118Y-42029135D01*
X118179661Y-41778748D01*
X117988259Y-41587013D01*
X117738054Y-41483118D01*
X117467135Y-41482882D01*
X117216748Y-41586339D01*
X117146965Y-41656000D01*
X117050464Y-41656000D01*
X117050464Y-40328000D01*
X117022278Y-40182726D01*
X116938404Y-40055044D01*
X116811784Y-39969574D01*
X116662000Y-39939536D01*
X113462000Y-39939536D01*
X113316726Y-39967722D01*
X113189044Y-40051596D01*
X113103574Y-40178216D01*
X113073536Y-40328000D01*
X113073536Y-43928000D01*
X113101722Y-44073274D01*
X113185596Y-44200956D01*
X113312216Y-44286426D01*
X113462000Y-44316464D01*
X116662000Y-44316464D01*
X116807274Y-44288278D01*
X116934956Y-44204404D01*
X117020426Y-44077784D01*
X117050464Y-43928000D01*
X117050464Y-42672000D01*
X117146873Y-42672000D01*
X117215741Y-42740987D01*
X117465946Y-42844882D01*
X117736865Y-42845118D01*
X117987252Y-42741661D01*
X118178987Y-42550259D01*
X118282882Y-42300054D01*
X118283118Y-42029135D01*
X118283118Y-79473943D01*
X118242259Y-79433013D01*
X118029118Y-79344508D01*
X118029118Y-72763135D01*
X118029118Y-68953135D01*
X117925661Y-68702748D01*
X117734259Y-68511013D01*
X117484054Y-68407118D01*
X117297000Y-68406955D01*
X117297000Y-52254309D01*
X117297000Y-50613750D01*
X117297000Y-50042250D01*
X117297000Y-48401691D01*
X117200327Y-48168302D01*
X117021699Y-47989673D01*
X116788310Y-47893000D01*
X116535691Y-47893000D01*
X115347750Y-47893000D01*
X115189000Y-48051750D01*
X115189000Y-50201000D01*
X117138250Y-50201000D01*
X117297000Y-50042250D01*
X117297000Y-50613750D01*
X117138250Y-50455000D01*
X115189000Y-50455000D01*
X115189000Y-52604250D01*
X115347750Y-52763000D01*
X116535691Y-52763000D01*
X116788310Y-52763000D01*
X117021699Y-52666327D01*
X117200327Y-52487698D01*
X117297000Y-52254309D01*
X117297000Y-68406955D01*
X117213135Y-68406882D01*
X116962748Y-68510339D01*
X116892965Y-68580000D01*
X116759118Y-68580000D01*
X116759118Y-54983135D01*
X116655661Y-54732748D01*
X116464259Y-54541013D01*
X116214054Y-54437118D01*
X116115452Y-54437032D01*
X114659210Y-52980790D01*
X114624967Y-52957909D01*
X114623661Y-52954748D01*
X114432259Y-52763013D01*
X114432227Y-52763000D01*
X114776250Y-52763000D01*
X114935000Y-52604250D01*
X114935000Y-50455000D01*
X114935000Y-50201000D01*
X114935000Y-48051750D01*
X114776250Y-47893000D01*
X113588309Y-47893000D01*
X113335690Y-47893000D01*
X113102301Y-47989673D01*
X112923673Y-48168302D01*
X112827000Y-48401691D01*
X112827000Y-50042250D01*
X112985750Y-50201000D01*
X114935000Y-50201000D01*
X114935000Y-50455000D01*
X112985750Y-50455000D01*
X112827000Y-50613750D01*
X112827000Y-52254309D01*
X112923673Y-52487698D01*
X113102301Y-52666327D01*
X113335690Y-52763000D01*
X113588309Y-52763000D01*
X113660085Y-52763000D01*
X113469013Y-52953741D01*
X113365118Y-53203946D01*
X113364882Y-53474865D01*
X113468339Y-53725252D01*
X113659741Y-53916987D01*
X113909946Y-54020882D01*
X114180865Y-54021118D01*
X114238771Y-53997191D01*
X115396966Y-55155386D01*
X115396882Y-55252865D01*
X115500339Y-55503252D01*
X115691741Y-55694987D01*
X115941946Y-55798882D01*
X116212865Y-55799118D01*
X116463252Y-55695661D01*
X116654987Y-55504259D01*
X116758882Y-55254054D01*
X116759118Y-54983135D01*
X116759118Y-68580000D01*
X115009126Y-68580000D01*
X114940259Y-68511013D01*
X114690054Y-68407118D01*
X114419135Y-68406882D01*
X114168748Y-68510339D01*
X113977013Y-68701741D01*
X113873118Y-68951946D01*
X113872882Y-69222865D01*
X113976339Y-69473252D01*
X114167741Y-69664987D01*
X114417946Y-69768882D01*
X114688865Y-69769118D01*
X114939252Y-69665661D01*
X115009034Y-69596000D01*
X116892873Y-69596000D01*
X116961741Y-69664987D01*
X117211946Y-69768882D01*
X117482865Y-69769118D01*
X117733252Y-69665661D01*
X117924987Y-69474259D01*
X118028882Y-69224054D01*
X118029118Y-68953135D01*
X118029118Y-72763135D01*
X117925661Y-72512748D01*
X117734259Y-72321013D01*
X117484054Y-72217118D01*
X117213135Y-72216882D01*
X116962748Y-72320339D01*
X116771013Y-72511741D01*
X116667118Y-72761946D01*
X116667032Y-72860547D01*
X114770612Y-74756966D01*
X114673135Y-74756882D01*
X114422748Y-74860339D01*
X114231013Y-75051741D01*
X114127118Y-75301946D01*
X114126882Y-75572865D01*
X114230339Y-75823252D01*
X114421741Y-76014987D01*
X114671946Y-76118882D01*
X114942865Y-76119118D01*
X115193252Y-76015661D01*
X115384987Y-75824259D01*
X115488882Y-75574054D01*
X115488967Y-75475452D01*
X117385387Y-73579033D01*
X117482865Y-73579118D01*
X117733252Y-73475661D01*
X117924987Y-73284259D01*
X118028882Y-73034054D01*
X118029118Y-72763135D01*
X118029118Y-79344508D01*
X117992054Y-79329118D01*
X117721135Y-79328882D01*
X117470748Y-79432339D01*
X117279013Y-79623741D01*
X117175118Y-79873946D01*
X117174882Y-80144865D01*
X117278339Y-80395252D01*
X117348000Y-80465034D01*
X117348000Y-82348873D01*
X117279013Y-82417741D01*
X117175118Y-82667946D01*
X117174882Y-82938865D01*
X117278339Y-83189252D01*
X117469741Y-83380987D01*
X117719946Y-83484882D01*
X117990865Y-83485118D01*
X118241252Y-83381661D01*
X118432987Y-83190259D01*
X118536882Y-82940054D01*
X118537118Y-82669135D01*
X118537118Y-94194605D01*
X118237000Y-94425465D01*
X118237000Y-115393000D01*
X112117326Y-115393000D01*
X112117326Y-111387487D01*
X111831564Y-110695891D01*
X111609326Y-110473264D01*
X111609326Y-37219487D01*
X111323564Y-36527891D01*
X110794892Y-35998296D01*
X110103796Y-35711327D01*
X109355487Y-35710674D01*
X108663891Y-35996436D01*
X108134296Y-36525108D01*
X107847327Y-37216204D01*
X107846674Y-37964513D01*
X108132436Y-38656109D01*
X108661108Y-39185704D01*
X109352204Y-39472673D01*
X110100513Y-39473326D01*
X110792109Y-39187564D01*
X111321704Y-38658892D01*
X111608673Y-37967796D01*
X111609326Y-37219487D01*
X111609326Y-110473264D01*
X111302892Y-110166296D01*
X110611796Y-109879327D01*
X109863487Y-109878674D01*
X109171891Y-110164436D01*
X108642296Y-110693108D01*
X108355327Y-111384204D01*
X108354674Y-112132513D01*
X108640436Y-112824109D01*
X109169108Y-113353704D01*
X109860204Y-113640673D01*
X110608513Y-113641326D01*
X111300109Y-113355564D01*
X111829704Y-112826892D01*
X112116673Y-112135796D01*
X112117326Y-111387487D01*
X112117326Y-115393000D01*
X106603000Y-115393000D01*
X106603000Y-34467000D01*
X143637000Y-34467000D01*
X143637000Y-35933536D01*
X142519400Y-35933536D01*
X142374126Y-35961722D01*
X142246444Y-36045596D01*
X142160974Y-36172216D01*
X142130936Y-36322000D01*
X142130936Y-38354000D01*
X142159122Y-38499274D01*
X142242996Y-38626956D01*
X142369616Y-38712426D01*
X142519400Y-38742464D01*
X143637000Y-38742464D01*
X143637000Y-40005000D01*
X143637000Y-40005000D01*
G37*
X143637000Y-40005000D02*
X142087600Y-40005000D01*
X142087600Y-37517769D01*
X142087600Y-37158231D01*
X141992860Y-36681943D01*
X141723065Y-36278166D01*
X141319288Y-36008371D01*
X140843000Y-35913631D01*
X140366712Y-36008371D01*
X139962935Y-36278166D01*
X139693140Y-36681943D01*
X139598400Y-37158231D01*
X139598400Y-37517769D01*
X139693140Y-37994057D01*
X139962935Y-38397834D01*
X140366712Y-38667629D01*
X140843000Y-38762369D01*
X141319288Y-38667629D01*
X141723065Y-38397834D01*
X141992860Y-37994057D01*
X142087600Y-37517769D01*
X142087600Y-40005000D01*
X139573000Y-40005000D01*
X139573000Y-40640000D01*
X139573000Y-44577000D01*
X139547600Y-44577000D01*
X139547600Y-37517769D01*
X139547600Y-37158231D01*
X139452860Y-36681943D01*
X139183065Y-36278166D01*
X138779288Y-36008371D01*
X138303000Y-35913631D01*
X137826712Y-36008371D01*
X137422935Y-36278166D01*
X137153140Y-36681943D01*
X137058400Y-37158231D01*
X137058400Y-37517769D01*
X137153140Y-37994057D01*
X137422935Y-38397834D01*
X137826712Y-38667629D01*
X138303000Y-38762369D01*
X138779288Y-38667629D01*
X139183065Y-38397834D01*
X139452860Y-37994057D01*
X139547600Y-37517769D01*
X139547600Y-44577000D01*
X138137184Y-44577000D01*
X138137184Y-42017913D01*
X138137184Y-41294087D01*
X137943954Y-40741680D01*
X137554036Y-40305268D01*
X137026791Y-40051291D01*
X137011026Y-40048642D01*
X137007600Y-40050430D01*
X137007600Y-37517769D01*
X137007600Y-37158231D01*
X136912860Y-36681943D01*
X136643065Y-36278166D01*
X136239288Y-36008371D01*
X135763000Y-35913631D01*
X135286712Y-36008371D01*
X134882935Y-36278166D01*
X134613140Y-36681943D01*
X134518400Y-37158231D01*
X134518400Y-37517769D01*
X134613140Y-37994057D01*
X134882935Y-38397834D01*
X135286712Y-38667629D01*
X135763000Y-38762369D01*
X136239288Y-38667629D01*
X136643065Y-38397834D01*
X136912860Y-37994057D01*
X137007600Y-37517769D01*
X137007600Y-40050430D01*
X136779000Y-40169783D01*
X136779000Y-41529000D01*
X137992924Y-41529000D01*
X138137184Y-41294087D01*
X138137184Y-42017913D01*
X137992924Y-41783000D01*
X136779000Y-41783000D01*
X136779000Y-43142217D01*
X137011026Y-43263358D01*
X137026791Y-43260709D01*
X137554036Y-43006732D01*
X137943954Y-42570320D01*
X138137184Y-42017913D01*
X138137184Y-44577000D01*
X136525000Y-44577000D01*
X136525000Y-43142217D01*
X136525000Y-41783000D01*
X136505000Y-41783000D01*
X136505000Y-41529000D01*
X136525000Y-41529000D01*
X136525000Y-40169783D01*
X136292974Y-40048642D01*
X136277209Y-40051291D01*
X135749964Y-40305268D01*
X135360046Y-40741680D01*
X135264704Y-41014242D01*
X135261860Y-40999943D01*
X134992065Y-40596166D01*
X134588288Y-40326371D01*
X134112000Y-40231631D01*
X133635712Y-40326371D01*
X133231935Y-40596166D01*
X132962140Y-40999943D01*
X132867400Y-41476231D01*
X132867400Y-41835769D01*
X132962140Y-42312057D01*
X133231935Y-42715834D01*
X133635712Y-42985629D01*
X134112000Y-43080369D01*
X134588288Y-42985629D01*
X134992065Y-42715834D01*
X135261860Y-42312057D01*
X135264704Y-42297757D01*
X135360046Y-42570320D01*
X135749964Y-43006732D01*
X136277209Y-43260709D01*
X136292974Y-43263358D01*
X136525000Y-43142217D01*
X136525000Y-44577000D01*
X132824064Y-44577000D01*
X132824064Y-42672000D01*
X132824064Y-40640000D01*
X132795878Y-40494726D01*
X132712004Y-40367044D01*
X132585384Y-40281574D01*
X132435600Y-40251536D01*
X130708400Y-40251536D01*
X130563126Y-40279722D01*
X130435444Y-40363596D01*
X130349974Y-40490216D01*
X130319936Y-40640000D01*
X130319936Y-42672000D01*
X130348122Y-42817274D01*
X130431996Y-42944956D01*
X130558616Y-43030426D01*
X130708400Y-43060464D01*
X132435600Y-43060464D01*
X132580874Y-43032278D01*
X132708556Y-42948404D01*
X132794026Y-42821784D01*
X132824064Y-42672000D01*
X132824064Y-44577000D01*
X130048000Y-44577000D01*
X130048000Y-40088420D01*
X130766420Y-39370000D01*
X131699000Y-39370000D01*
X131893403Y-39331331D01*
X132058210Y-39221210D01*
X132665832Y-38613587D01*
X132746712Y-38667629D01*
X132926175Y-38703326D01*
X132710748Y-38792339D01*
X132519013Y-38983741D01*
X132415118Y-39233946D01*
X132414882Y-39504865D01*
X132518339Y-39755252D01*
X132709741Y-39946987D01*
X132959946Y-40050882D01*
X133230865Y-40051118D01*
X133481252Y-39947661D01*
X133672987Y-39756259D01*
X133776882Y-39506054D01*
X133777118Y-39235135D01*
X133673661Y-38984748D01*
X133482259Y-38793013D01*
X133348393Y-38737426D01*
X133699288Y-38667629D01*
X134103065Y-38397834D01*
X134372860Y-37994057D01*
X134467600Y-37517769D01*
X134467600Y-37158231D01*
X134372860Y-36681943D01*
X134103065Y-36278166D01*
X133699288Y-36008371D01*
X133223000Y-35913631D01*
X132746712Y-36008371D01*
X132342935Y-36278166D01*
X132073140Y-36681943D01*
X131978400Y-37158231D01*
X131978400Y-37517769D01*
X132035873Y-37806706D01*
X131801320Y-38041259D01*
X131832860Y-37994057D01*
X131927600Y-37517769D01*
X131927600Y-37158231D01*
X131832860Y-36681943D01*
X131563065Y-36278166D01*
X131159288Y-36008371D01*
X130683000Y-35913631D01*
X130206712Y-36008371D01*
X129802935Y-36278166D01*
X129533140Y-36681943D01*
X129438400Y-37158231D01*
X129438400Y-37517769D01*
X129495873Y-37806706D01*
X129261319Y-38041260D01*
X129292860Y-37994057D01*
X129387600Y-37517769D01*
X129387600Y-37158231D01*
X129292860Y-36681943D01*
X129023065Y-36278166D01*
X128619288Y-36008371D01*
X128143000Y-35913631D01*
X127666712Y-36008371D01*
X127262935Y-36278166D01*
X126993140Y-36681943D01*
X126898400Y-37158231D01*
X126898400Y-37517769D01*
X126993140Y-37994057D01*
X127262935Y-38397834D01*
X127635000Y-38646439D01*
X127635000Y-39123520D01*
X127577661Y-38984748D01*
X127386259Y-38793013D01*
X127136054Y-38689118D01*
X126865135Y-38688882D01*
X126847600Y-38696127D01*
X126847600Y-37517769D01*
X126847600Y-37158231D01*
X126752860Y-36681943D01*
X126483065Y-36278166D01*
X126079288Y-36008371D01*
X125603000Y-35913631D01*
X125126712Y-36008371D01*
X124722935Y-36278166D01*
X124453140Y-36681943D01*
X124450295Y-36696242D01*
X124354954Y-36423680D01*
X123965036Y-35987268D01*
X123437791Y-35733291D01*
X123422026Y-35730642D01*
X123190000Y-35851783D01*
X123190000Y-37211000D01*
X123210000Y-37211000D01*
X123210000Y-37465000D01*
X123190000Y-37465000D01*
X123190000Y-38824217D01*
X123422026Y-38945358D01*
X123437791Y-38942709D01*
X123965036Y-38688732D01*
X124354954Y-38252320D01*
X124450295Y-37979757D01*
X124453140Y-37994057D01*
X124722935Y-38397834D01*
X125126712Y-38667629D01*
X125603000Y-38762369D01*
X126079288Y-38667629D01*
X126483065Y-38397834D01*
X126752860Y-37994057D01*
X126847600Y-37517769D01*
X126847600Y-38696127D01*
X126614748Y-38792339D01*
X126423013Y-38983741D01*
X126319118Y-39233946D01*
X126318882Y-39504865D01*
X126422339Y-39755252D01*
X126613741Y-39946987D01*
X126863946Y-40050882D01*
X127134865Y-40051118D01*
X127385252Y-39947661D01*
X127576987Y-39756259D01*
X127635000Y-39616549D01*
X127635000Y-43604580D01*
X125946613Y-45292966D01*
X125849135Y-45292882D01*
X125598748Y-45396339D01*
X125407013Y-45587741D01*
X125303118Y-45837946D01*
X125302882Y-46108865D01*
X125406339Y-46359252D01*
X125597741Y-46550987D01*
X125847946Y-46654882D01*
X126118865Y-46655118D01*
X126369252Y-46551661D01*
X126388819Y-46532127D01*
X126422339Y-46613252D01*
X126613741Y-46804987D01*
X126863946Y-46908882D01*
X126873000Y-46908889D01*
X126873000Y-87820500D01*
X125343904Y-88967322D01*
X125343904Y-73501039D01*
X125343904Y-72802961D01*
X125343904Y-61817039D01*
X125343904Y-61118961D01*
X125343904Y-51149039D01*
X125343904Y-50450961D01*
X125183041Y-50062577D01*
X125156137Y-50032877D01*
X124807134Y-49647611D01*
X124301041Y-49408086D01*
X124079002Y-49529369D01*
X124079002Y-49420340D01*
X124427086Y-49351102D01*
X124810230Y-49095093D01*
X125066239Y-48711949D01*
X125156137Y-48260000D01*
X125066239Y-47808051D01*
X124810230Y-47424907D01*
X124427086Y-47168898D01*
X123975137Y-47079000D01*
X123928863Y-47079000D01*
X123476914Y-47168898D01*
X123444000Y-47190890D01*
X123444000Y-41656000D01*
X123380500Y-41336759D01*
X123380500Y-40386000D01*
X123312829Y-40045794D01*
X123120118Y-39757382D01*
X121546261Y-38183525D01*
X121672860Y-37994057D01*
X121675704Y-37979757D01*
X121771046Y-38252320D01*
X122160964Y-38688732D01*
X122688209Y-38942709D01*
X122703974Y-38945358D01*
X122936000Y-38824217D01*
X122936000Y-37465000D01*
X122916000Y-37465000D01*
X122916000Y-37211000D01*
X122936000Y-37211000D01*
X122936000Y-35851783D01*
X122703974Y-35730642D01*
X122688209Y-35733291D01*
X122160964Y-35987268D01*
X121771046Y-36423680D01*
X121675704Y-36696242D01*
X121672860Y-36681943D01*
X121403065Y-36278166D01*
X120999288Y-36008371D01*
X120523000Y-35913631D01*
X120046712Y-36008371D01*
X119642935Y-36278166D01*
X119373140Y-36681943D01*
X119278400Y-37158231D01*
X119278400Y-37517769D01*
X119373140Y-37994057D01*
X119634000Y-38384461D01*
X119634000Y-38417500D01*
X119701671Y-38757706D01*
X119894382Y-39046118D01*
X121602500Y-40754236D01*
X121602500Y-41592500D01*
X121670171Y-41932706D01*
X121862882Y-42221118D01*
X121926382Y-42284618D01*
X122214795Y-42477330D01*
X122555000Y-42545000D01*
X122895206Y-42477330D01*
X123183618Y-42284618D01*
X123376330Y-41996206D01*
X123444000Y-41656000D01*
X123444000Y-47190890D01*
X123093770Y-47424907D01*
X122837761Y-47808051D01*
X122747863Y-48260000D01*
X122837761Y-48711949D01*
X123093770Y-49095093D01*
X123476914Y-49351102D01*
X123824998Y-49420340D01*
X123824998Y-49529369D01*
X123602959Y-49408086D01*
X123096866Y-49647611D01*
X122720959Y-50062577D01*
X122560096Y-50450961D01*
X122682085Y-50673000D01*
X123825000Y-50673000D01*
X123825000Y-50653000D01*
X124079000Y-50653000D01*
X124079000Y-50673000D01*
X125221915Y-50673000D01*
X125343904Y-50450961D01*
X125343904Y-51149039D01*
X125221915Y-50927000D01*
X124079000Y-50927000D01*
X124079000Y-50947000D01*
X123825000Y-50947000D01*
X123825000Y-50927000D01*
X122682085Y-50927000D01*
X122560096Y-51149039D01*
X122720959Y-51537423D01*
X123096866Y-51952389D01*
X123602959Y-52191914D01*
X123824998Y-52070630D01*
X123824998Y-52179659D01*
X123476914Y-52248898D01*
X123093770Y-52504907D01*
X122837761Y-52888051D01*
X122747863Y-53340000D01*
X122837761Y-53791949D01*
X123093770Y-54175093D01*
X123476914Y-54431102D01*
X123928863Y-54521000D01*
X123975137Y-54521000D01*
X124427086Y-54431102D01*
X124810230Y-54175093D01*
X125066239Y-53791949D01*
X125156137Y-53340000D01*
X125066239Y-52888051D01*
X124810230Y-52504907D01*
X124427086Y-52248898D01*
X124079002Y-52179659D01*
X124079002Y-52070630D01*
X124301041Y-52191914D01*
X124807134Y-51952389D01*
X125183041Y-51537423D01*
X125343904Y-51149039D01*
X125343904Y-61118961D01*
X125183041Y-60730577D01*
X125156137Y-60700877D01*
X124807134Y-60315611D01*
X124301041Y-60076086D01*
X124079002Y-60197369D01*
X124079002Y-60088340D01*
X124427086Y-60019102D01*
X124810230Y-59763093D01*
X125066239Y-59379949D01*
X125156137Y-58928000D01*
X125066239Y-58476051D01*
X124810230Y-58092907D01*
X124427086Y-57836898D01*
X123975137Y-57747000D01*
X123928863Y-57747000D01*
X123476914Y-57836898D01*
X123093770Y-58092907D01*
X122837761Y-58476051D01*
X122747863Y-58928000D01*
X122837761Y-59379949D01*
X123093770Y-59763093D01*
X123476914Y-60019102D01*
X123824998Y-60088340D01*
X123824998Y-60197369D01*
X123602959Y-60076086D01*
X123096866Y-60315611D01*
X122720959Y-60730577D01*
X122560096Y-61118961D01*
X122682085Y-61341000D01*
X123825000Y-61341000D01*
X123825000Y-61321000D01*
X124079000Y-61321000D01*
X124079000Y-61341000D01*
X125221915Y-61341000D01*
X125343904Y-61118961D01*
X125343904Y-61817039D01*
X125221915Y-61595000D01*
X124079000Y-61595000D01*
X124079000Y-61615000D01*
X123825000Y-61615000D01*
X123825000Y-61595000D01*
X122682085Y-61595000D01*
X122560096Y-61817039D01*
X122720959Y-62205423D01*
X123096866Y-62620389D01*
X123602959Y-62859914D01*
X123824998Y-62738630D01*
X123824998Y-62847659D01*
X123476914Y-62916898D01*
X123093770Y-63172907D01*
X122837761Y-63556051D01*
X122747863Y-64008000D01*
X122837761Y-64459949D01*
X123093770Y-64843093D01*
X123476914Y-65099102D01*
X123928863Y-65189000D01*
X123975137Y-65189000D01*
X124427086Y-65099102D01*
X124810230Y-64843093D01*
X125066239Y-64459949D01*
X125156137Y-64008000D01*
X125066239Y-63556051D01*
X124810230Y-63172907D01*
X124427086Y-62916898D01*
X124079002Y-62847659D01*
X124079002Y-62738630D01*
X124301041Y-62859914D01*
X124807134Y-62620389D01*
X125183041Y-62205423D01*
X125343904Y-61817039D01*
X125343904Y-72802961D01*
X125183041Y-72414577D01*
X125156137Y-72384877D01*
X124807134Y-71999611D01*
X124301041Y-71760086D01*
X124079002Y-71881369D01*
X124079002Y-71772340D01*
X124427086Y-71703102D01*
X124810230Y-71447093D01*
X125066239Y-71063949D01*
X125156137Y-70612000D01*
X125066239Y-70160051D01*
X124810230Y-69776907D01*
X124427086Y-69520898D01*
X123975137Y-69431000D01*
X123928863Y-69431000D01*
X123476914Y-69520898D01*
X123093770Y-69776907D01*
X122837761Y-70160051D01*
X122747863Y-70612000D01*
X122837761Y-71063949D01*
X123093770Y-71447093D01*
X123476914Y-71703102D01*
X123824998Y-71772340D01*
X123824998Y-71881369D01*
X123602959Y-71760086D01*
X123096866Y-71999611D01*
X122720959Y-72414577D01*
X122560096Y-72802961D01*
X122682085Y-73025000D01*
X123825000Y-73025000D01*
X123825000Y-73005000D01*
X124079000Y-73005000D01*
X124079000Y-73025000D01*
X125221915Y-73025000D01*
X125343904Y-72802961D01*
X125343904Y-73501039D01*
X125221915Y-73279000D01*
X124079000Y-73279000D01*
X124079000Y-73299000D01*
X123825000Y-73299000D01*
X123825000Y-73279000D01*
X122682085Y-73279000D01*
X122560096Y-73501039D01*
X122720959Y-73889423D01*
X123096866Y-74304389D01*
X123602959Y-74543914D01*
X123824998Y-74422630D01*
X123824998Y-74531659D01*
X123476914Y-74600898D01*
X123093770Y-74856907D01*
X122837761Y-75240051D01*
X122747863Y-75692000D01*
X122837761Y-76143949D01*
X123093770Y-76527093D01*
X123476914Y-76783102D01*
X123928863Y-76873000D01*
X123975137Y-76873000D01*
X124427086Y-76783102D01*
X124810230Y-76527093D01*
X125066239Y-76143949D01*
X125156137Y-75692000D01*
X125066239Y-75240051D01*
X124810230Y-74856907D01*
X124427086Y-74600898D01*
X124079002Y-74531659D01*
X124079002Y-74422630D01*
X124301041Y-74543914D01*
X124807134Y-74304389D01*
X125183041Y-73889423D01*
X125343904Y-73501039D01*
X125343904Y-88967322D01*
X125156137Y-89108147D01*
X125156137Y-86360000D01*
X125156137Y-83820000D01*
X125156137Y-81280000D01*
X125066239Y-80828051D01*
X124810230Y-80444907D01*
X124427086Y-80188898D01*
X123975137Y-80099000D01*
X123928863Y-80099000D01*
X123476914Y-80188898D01*
X123093770Y-80444907D01*
X122837761Y-80828051D01*
X122747863Y-81280000D01*
X122837761Y-81731949D01*
X123093770Y-82115093D01*
X123476914Y-82371102D01*
X123928863Y-82461000D01*
X123975137Y-82461000D01*
X124427086Y-82371102D01*
X124810230Y-82115093D01*
X125066239Y-81731949D01*
X125156137Y-81280000D01*
X125156137Y-83820000D01*
X125066239Y-83368051D01*
X124810230Y-82984907D01*
X124427086Y-82728898D01*
X123975137Y-82639000D01*
X123928863Y-82639000D01*
X123476914Y-82728898D01*
X123109073Y-82974681D01*
X123109118Y-82923135D01*
X123005661Y-82672748D01*
X122814259Y-82481013D01*
X122564054Y-82377118D01*
X122293135Y-82376882D01*
X122042748Y-82480339D01*
X121851013Y-82671741D01*
X121747118Y-82921946D01*
X121746882Y-83192865D01*
X121850339Y-83443252D01*
X121920000Y-83513034D01*
X121920000Y-84117580D01*
X120612613Y-85424966D01*
X120515135Y-85424882D01*
X120264748Y-85528339D01*
X120073013Y-85719741D01*
X119969118Y-85969946D01*
X119968882Y-86240865D01*
X120072339Y-86491252D01*
X120263741Y-86682987D01*
X120513946Y-86786882D01*
X120784865Y-86787118D01*
X121035252Y-86683661D01*
X121226987Y-86492259D01*
X121330882Y-86242054D01*
X121330967Y-86143452D01*
X122787210Y-84687210D01*
X122897331Y-84522403D01*
X122922055Y-84398104D01*
X123093770Y-84655093D01*
X123476914Y-84911102D01*
X123928863Y-85001000D01*
X123975137Y-85001000D01*
X124427086Y-84911102D01*
X124810230Y-84655093D01*
X125066239Y-84271949D01*
X125156137Y-83820000D01*
X125156137Y-86360000D01*
X125066239Y-85908051D01*
X124810230Y-85524907D01*
X124427086Y-85268898D01*
X123975137Y-85179000D01*
X123928863Y-85179000D01*
X123476914Y-85268898D01*
X123093770Y-85524907D01*
X122837761Y-85908051D01*
X122747863Y-86360000D01*
X122837761Y-86811949D01*
X123093770Y-87195093D01*
X123476914Y-87451102D01*
X123928863Y-87541000D01*
X123975137Y-87541000D01*
X124427086Y-87451102D01*
X124810230Y-87195093D01*
X125066239Y-86811949D01*
X125156137Y-86360000D01*
X125156137Y-89108147D01*
X124891181Y-89306865D01*
X118537118Y-94194605D01*
X118537118Y-82669135D01*
X118433661Y-82418748D01*
X118364000Y-82348965D01*
X118364000Y-80465126D01*
X118432987Y-80396259D01*
X118536882Y-80146054D01*
X118537118Y-79875135D01*
X118433661Y-79624748D01*
X118283118Y-79473943D01*
X118283118Y-42029135D01*
X118179661Y-41778748D01*
X117988259Y-41587013D01*
X117738054Y-41483118D01*
X117467135Y-41482882D01*
X117216748Y-41586339D01*
X117146965Y-41656000D01*
X117050464Y-41656000D01*
X117050464Y-40328000D01*
X117022278Y-40182726D01*
X116938404Y-40055044D01*
X116811784Y-39969574D01*
X116662000Y-39939536D01*
X113462000Y-39939536D01*
X113316726Y-39967722D01*
X113189044Y-40051596D01*
X113103574Y-40178216D01*
X113073536Y-40328000D01*
X113073536Y-43928000D01*
X113101722Y-44073274D01*
X113185596Y-44200956D01*
X113312216Y-44286426D01*
X113462000Y-44316464D01*
X116662000Y-44316464D01*
X116807274Y-44288278D01*
X116934956Y-44204404D01*
X117020426Y-44077784D01*
X117050464Y-43928000D01*
X117050464Y-42672000D01*
X117146873Y-42672000D01*
X117215741Y-42740987D01*
X117465946Y-42844882D01*
X117736865Y-42845118D01*
X117987252Y-42741661D01*
X118178987Y-42550259D01*
X118282882Y-42300054D01*
X118283118Y-42029135D01*
X118283118Y-79473943D01*
X118242259Y-79433013D01*
X118029118Y-79344508D01*
X118029118Y-72763135D01*
X118029118Y-68953135D01*
X117925661Y-68702748D01*
X117734259Y-68511013D01*
X117484054Y-68407118D01*
X117297000Y-68406955D01*
X117297000Y-52254309D01*
X117297000Y-50613750D01*
X117297000Y-50042250D01*
X117297000Y-48401691D01*
X117200327Y-48168302D01*
X117021699Y-47989673D01*
X116788310Y-47893000D01*
X116535691Y-47893000D01*
X115347750Y-47893000D01*
X115189000Y-48051750D01*
X115189000Y-50201000D01*
X117138250Y-50201000D01*
X117297000Y-50042250D01*
X117297000Y-50613750D01*
X117138250Y-50455000D01*
X115189000Y-50455000D01*
X115189000Y-52604250D01*
X115347750Y-52763000D01*
X116535691Y-52763000D01*
X116788310Y-52763000D01*
X117021699Y-52666327D01*
X117200327Y-52487698D01*
X117297000Y-52254309D01*
X117297000Y-68406955D01*
X117213135Y-68406882D01*
X116962748Y-68510339D01*
X116892965Y-68580000D01*
X116759118Y-68580000D01*
X116759118Y-54983135D01*
X116655661Y-54732748D01*
X116464259Y-54541013D01*
X116214054Y-54437118D01*
X116115452Y-54437032D01*
X114659210Y-52980790D01*
X114624967Y-52957909D01*
X114623661Y-52954748D01*
X114432259Y-52763013D01*
X114432227Y-52763000D01*
X114776250Y-52763000D01*
X114935000Y-52604250D01*
X114935000Y-50455000D01*
X114935000Y-50201000D01*
X114935000Y-48051750D01*
X114776250Y-47893000D01*
X113588309Y-47893000D01*
X113335690Y-47893000D01*
X113102301Y-47989673D01*
X112923673Y-48168302D01*
X112827000Y-48401691D01*
X112827000Y-50042250D01*
X112985750Y-50201000D01*
X114935000Y-50201000D01*
X114935000Y-50455000D01*
X112985750Y-50455000D01*
X112827000Y-50613750D01*
X112827000Y-52254309D01*
X112923673Y-52487698D01*
X113102301Y-52666327D01*
X113335690Y-52763000D01*
X113588309Y-52763000D01*
X113660085Y-52763000D01*
X113469013Y-52953741D01*
X113365118Y-53203946D01*
X113364882Y-53474865D01*
X113468339Y-53725252D01*
X113659741Y-53916987D01*
X113909946Y-54020882D01*
X114180865Y-54021118D01*
X114238771Y-53997191D01*
X115396966Y-55155386D01*
X115396882Y-55252865D01*
X115500339Y-55503252D01*
X115691741Y-55694987D01*
X115941946Y-55798882D01*
X116212865Y-55799118D01*
X116463252Y-55695661D01*
X116654987Y-55504259D01*
X116758882Y-55254054D01*
X116759118Y-54983135D01*
X116759118Y-68580000D01*
X115009126Y-68580000D01*
X114940259Y-68511013D01*
X114690054Y-68407118D01*
X114419135Y-68406882D01*
X114168748Y-68510339D01*
X113977013Y-68701741D01*
X113873118Y-68951946D01*
X113872882Y-69222865D01*
X113976339Y-69473252D01*
X114167741Y-69664987D01*
X114417946Y-69768882D01*
X114688865Y-69769118D01*
X114939252Y-69665661D01*
X115009034Y-69596000D01*
X116892873Y-69596000D01*
X116961741Y-69664987D01*
X117211946Y-69768882D01*
X117482865Y-69769118D01*
X117733252Y-69665661D01*
X117924987Y-69474259D01*
X118028882Y-69224054D01*
X118029118Y-68953135D01*
X118029118Y-72763135D01*
X117925661Y-72512748D01*
X117734259Y-72321013D01*
X117484054Y-72217118D01*
X117213135Y-72216882D01*
X116962748Y-72320339D01*
X116771013Y-72511741D01*
X116667118Y-72761946D01*
X116667032Y-72860547D01*
X114770612Y-74756966D01*
X114673135Y-74756882D01*
X114422748Y-74860339D01*
X114231013Y-75051741D01*
X114127118Y-75301946D01*
X114126882Y-75572865D01*
X114230339Y-75823252D01*
X114421741Y-76014987D01*
X114671946Y-76118882D01*
X114942865Y-76119118D01*
X115193252Y-76015661D01*
X115384987Y-75824259D01*
X115488882Y-75574054D01*
X115488967Y-75475452D01*
X117385387Y-73579033D01*
X117482865Y-73579118D01*
X117733252Y-73475661D01*
X117924987Y-73284259D01*
X118028882Y-73034054D01*
X118029118Y-72763135D01*
X118029118Y-79344508D01*
X117992054Y-79329118D01*
X117721135Y-79328882D01*
X117470748Y-79432339D01*
X117279013Y-79623741D01*
X117175118Y-79873946D01*
X117174882Y-80144865D01*
X117278339Y-80395252D01*
X117348000Y-80465034D01*
X117348000Y-82348873D01*
X117279013Y-82417741D01*
X117175118Y-82667946D01*
X117174882Y-82938865D01*
X117278339Y-83189252D01*
X117469741Y-83380987D01*
X117719946Y-83484882D01*
X117990865Y-83485118D01*
X118241252Y-83381661D01*
X118432987Y-83190259D01*
X118536882Y-82940054D01*
X118537118Y-82669135D01*
X118537118Y-94194605D01*
X118237000Y-94425465D01*
X118237000Y-115393000D01*
X112117326Y-115393000D01*
X112117326Y-111387487D01*
X111831564Y-110695891D01*
X111609326Y-110473264D01*
X111609326Y-37219487D01*
X111323564Y-36527891D01*
X110794892Y-35998296D01*
X110103796Y-35711327D01*
X109355487Y-35710674D01*
X108663891Y-35996436D01*
X108134296Y-36525108D01*
X107847327Y-37216204D01*
X107846674Y-37964513D01*
X108132436Y-38656109D01*
X108661108Y-39185704D01*
X109352204Y-39472673D01*
X110100513Y-39473326D01*
X110792109Y-39187564D01*
X111321704Y-38658892D01*
X111608673Y-37967796D01*
X111609326Y-37219487D01*
X111609326Y-110473264D01*
X111302892Y-110166296D01*
X110611796Y-109879327D01*
X109863487Y-109878674D01*
X109171891Y-110164436D01*
X108642296Y-110693108D01*
X108355327Y-111384204D01*
X108354674Y-112132513D01*
X108640436Y-112824109D01*
X109169108Y-113353704D01*
X109860204Y-113640673D01*
X110608513Y-113641326D01*
X111300109Y-113355564D01*
X111829704Y-112826892D01*
X112116673Y-112135796D01*
X112117326Y-111387487D01*
X112117326Y-115393000D01*
X106603000Y-115393000D01*
X106603000Y-34467000D01*
X143637000Y-34467000D01*
X143637000Y-35933536D01*
X142519400Y-35933536D01*
X142374126Y-35961722D01*
X142246444Y-36045596D01*
X142160974Y-36172216D01*
X142130936Y-36322000D01*
X142130936Y-38354000D01*
X142159122Y-38499274D01*
X142242996Y-38626956D01*
X142369616Y-38712426D01*
X142519400Y-38742464D01*
X143637000Y-38742464D01*
X143637000Y-40005000D01*
M02*
