G04 #@! TF.FileFunction,Soldermask,Top*
%FSLAX46Y46*%
G04 Gerber Fmt 4.6, Leading zero omitted, Abs format (unit mm)*
G04 Created by KiCad (PCBNEW (after 2015-mar-04 BZR unknown)-product) date 26/07/2015 13:07:27*
%MOMM*%
G01*
G04 APERTURE LIST*
%ADD10C,0.100000*%
%ADD11C,2.032000*%
%ADD12O,2.032000X2.032000*%
%ADD13R,0.800100X1.800860*%
%ADD14R,1.600000X2.000000*%
%ADD15R,2.000000X1.600000*%
%ADD16R,2.000000X1.700000*%
%ADD17R,1.700000X2.000000*%
%ADD18R,1.727200X2.032000*%
%ADD19O,1.727200X2.032000*%
%ADD20O,4.500880X2.499360*%
%ADD21O,2.499360X1.501140*%
%ADD22R,0.450000X1.750000*%
%ADD23O,1.600000X1.600000*%
%ADD24R,1.800860X0.800100*%
%ADD25R,1.651000X3.048000*%
%ADD26R,6.096000X6.096000*%
%ADD27R,1.600000X1.600000*%
%ADD28C,1.600000*%
G04 APERTURE END LIST*
D10*
X106172000Y-34036000D02*
X106172000Y-115824000D01*
X185420000Y-34036000D02*
X106172000Y-34036000D01*
X185420000Y-115824000D02*
X185420000Y-34036000D01*
X106172000Y-115824000D02*
X185420000Y-115824000D01*
D11*
X174752000Y-55118000D03*
X174752000Y-50038000D03*
D12*
X169672000Y-55118000D03*
X169672000Y-50038000D03*
D13*
X110297000Y-47139860D03*
X108397000Y-47139860D03*
X109347000Y-50142140D03*
D11*
X181610000Y-91440000D03*
D12*
X173990000Y-91440000D03*
D11*
X181610000Y-86360000D03*
D12*
X173990000Y-86360000D03*
D14*
X151384000Y-44926000D03*
X151384000Y-40926000D03*
X155956000Y-44926000D03*
X155956000Y-40926000D03*
D15*
X147034000Y-45466000D03*
X143034000Y-45466000D03*
D14*
X108204000Y-54388000D03*
X108204000Y-58388000D03*
D15*
X157258000Y-99822000D03*
X161258000Y-99822000D03*
X157258000Y-97282000D03*
X161258000Y-97282000D03*
D14*
X134620000Y-53308000D03*
X134620000Y-49308000D03*
X136906000Y-64484000D03*
X136906000Y-60484000D03*
X136906000Y-73374000D03*
X136906000Y-69374000D03*
X120904000Y-84360000D03*
X120904000Y-88360000D03*
D16*
X124428000Y-42164000D03*
X120428000Y-42164000D03*
D17*
X147066000Y-48800000D03*
X147066000Y-52800000D03*
D18*
X143383000Y-37338000D03*
D19*
X140843000Y-37338000D03*
X138303000Y-37338000D03*
X135763000Y-37338000D03*
X133223000Y-37338000D03*
X130683000Y-37338000D03*
X128143000Y-37338000D03*
X125603000Y-37338000D03*
X123063000Y-37338000D03*
X120523000Y-37338000D03*
D18*
X174498000Y-44958000D03*
D19*
X171958000Y-44958000D03*
X169418000Y-44958000D03*
D18*
X131572000Y-41656000D03*
D19*
X134112000Y-41656000D03*
X136652000Y-41656000D03*
D18*
X125349000Y-110744000D03*
D19*
X127889000Y-110744000D03*
X130429000Y-110744000D03*
X132969000Y-110744000D03*
X135509000Y-110744000D03*
X138049000Y-110744000D03*
D20*
X181610000Y-74676000D03*
X181610000Y-69088000D03*
X181610000Y-80264000D03*
X181610000Y-103124000D03*
X181610000Y-97536000D03*
X181610000Y-108712000D03*
D21*
X181610000Y-55118000D03*
X181610000Y-52578000D03*
X181610000Y-57658000D03*
D16*
X164814000Y-44958000D03*
X160814000Y-44958000D03*
X164814000Y-56388000D03*
X160814000Y-56388000D03*
X147225000Y-97155000D03*
X151225000Y-97155000D03*
D17*
X164846000Y-52546000D03*
X164846000Y-48546000D03*
D16*
X137446000Y-92710000D03*
X141446000Y-92710000D03*
D17*
X113792000Y-50260000D03*
X113792000Y-46260000D03*
D16*
X111792000Y-62484000D03*
X115792000Y-62484000D03*
D17*
X112776000Y-79724000D03*
X112776000Y-75724000D03*
X112268000Y-58388000D03*
X112268000Y-54388000D03*
X113792000Y-71088000D03*
X113792000Y-67088000D03*
X112522000Y-92932000D03*
X112522000Y-88932000D03*
D16*
X147225000Y-99949000D03*
X151225000Y-99949000D03*
D17*
X118364000Y-49308000D03*
X118364000Y-53308000D03*
X120904000Y-59976000D03*
X120904000Y-63976000D03*
X120904000Y-72676000D03*
X120904000Y-76676000D03*
X133858000Y-92742000D03*
X133858000Y-96742000D03*
D16*
X122206000Y-97155000D03*
X126206000Y-97155000D03*
D17*
X139065000Y-53054000D03*
X139065000Y-49054000D03*
X141478000Y-64484000D03*
X141478000Y-60484000D03*
X140716000Y-73628000D03*
X140716000Y-69628000D03*
X117348000Y-88932000D03*
X117348000Y-92932000D03*
D16*
X154210000Y-77978000D03*
X158210000Y-77978000D03*
X170148000Y-75946000D03*
X166148000Y-75946000D03*
X170148000Y-78740000D03*
X166148000Y-78740000D03*
X170148000Y-81534000D03*
X166148000Y-81534000D03*
X170148000Y-93980000D03*
X166148000Y-93980000D03*
X170148000Y-99314000D03*
X166148000Y-99314000D03*
X170148000Y-96774000D03*
X166148000Y-96774000D03*
X170148000Y-101854000D03*
X166148000Y-101854000D03*
X147225000Y-102870000D03*
X151225000Y-102870000D03*
D17*
X181610000Y-47720000D03*
X181610000Y-43720000D03*
X137160000Y-99854000D03*
X137160000Y-103854000D03*
D16*
X145510000Y-111252000D03*
X141510000Y-111252000D03*
D17*
X132842000Y-101886000D03*
X132842000Y-105886000D03*
D22*
X154413000Y-93008000D03*
X155063000Y-93008000D03*
X155713000Y-93008000D03*
X156363000Y-93008000D03*
X157013000Y-93008000D03*
X157663000Y-93008000D03*
X158313000Y-93008000D03*
X158963000Y-93008000D03*
X159613000Y-93008000D03*
X160263000Y-93008000D03*
X160913000Y-93008000D03*
X161563000Y-93008000D03*
X161563000Y-85808000D03*
X160913000Y-85808000D03*
X160263000Y-85808000D03*
X159613000Y-85808000D03*
X158963000Y-85808000D03*
X158313000Y-85808000D03*
X157663000Y-85808000D03*
X157013000Y-85808000D03*
X156363000Y-85808000D03*
X155713000Y-85808000D03*
X155063000Y-85808000D03*
X154413000Y-85808000D03*
D23*
X123952000Y-48260000D03*
X123952000Y-50800000D03*
X123952000Y-53340000D03*
X131572000Y-53340000D03*
X131572000Y-50800000D03*
X131572000Y-48260000D03*
X123952000Y-58928000D03*
X123952000Y-61468000D03*
X123952000Y-64008000D03*
X131572000Y-64008000D03*
X131572000Y-61468000D03*
X131572000Y-58928000D03*
X123952000Y-70612000D03*
X123952000Y-73152000D03*
X123952000Y-75692000D03*
X131572000Y-75692000D03*
X131572000Y-73152000D03*
X131572000Y-70612000D03*
X131572000Y-86360000D03*
X131572000Y-83820000D03*
X131572000Y-81280000D03*
X123952000Y-81280000D03*
X123952000Y-83820000D03*
X123952000Y-86360000D03*
D17*
X129159000Y-101886000D03*
X129159000Y-105886000D03*
X124968000Y-101886000D03*
X124968000Y-105886000D03*
D13*
X150302000Y-107464860D03*
X148402000Y-107464860D03*
X149352000Y-110467140D03*
D24*
X141119860Y-105730000D03*
X141119860Y-107630000D03*
X144122140Y-106680000D03*
X144249140Y-103693000D03*
X144249140Y-101793000D03*
X141246860Y-102743000D03*
X130787140Y-95565000D03*
X130787140Y-93665000D03*
X127784860Y-94615000D03*
X140312140Y-97597000D03*
X140312140Y-95697000D03*
X137309860Y-96647000D03*
X117878860Y-79314000D03*
X117878860Y-81214000D03*
X120881140Y-80264000D03*
X117878860Y-68138000D03*
X117878860Y-70038000D03*
X120881140Y-69088000D03*
X116354860Y-56454000D03*
X116354860Y-58354000D03*
X119357140Y-57404000D03*
X114830860Y-83378000D03*
X114830860Y-85278000D03*
X117833140Y-84328000D03*
D13*
X108778000Y-70081140D03*
X110678000Y-70081140D03*
X109728000Y-67078860D03*
D25*
X155956000Y-49022000D03*
D26*
X153670000Y-55372000D03*
D25*
X151384000Y-49022000D03*
D27*
X176022000Y-66802000D03*
D28*
X161022000Y-66802000D03*
D14*
X136906000Y-89884000D03*
X136906000Y-85884000D03*
M02*
