M48
;DRILL file {pcbnew (after 2015-mar-04 BZR unknown)-product} date 26/07/2015 13:07:29
;FORMAT={-:-/ absolute / inch / decimal}
FMAT,2
INCH,TZ
T1C0.016
T2C0.031
T3C0.039
T4C0.040
T5C0.043
T6C0.055
T7C0.059
T8C0.118
%
G90
G05
M72
T1
X4.26Y-2.2
X4.3Y-1.86
X4.32Y-2.76
X4.49Y-2.1
X4.51Y-2.72
X4.52Y-2.97
X4.52Y-3.4
X4.57Y-2.17
X4.62Y-2.72
X4.62Y-2.87
X4.62Y-3.6
X4.63Y-1.66
X4.64Y-3.15
X4.64Y-3.26
X4.7Y-1.54
X4.75Y-3.39
X4.76Y-3.54
X4.82Y-3.27
X4.825Y-1.64
X4.96Y-1.81
X5.Y-1.55
X5.Y-1.82
X5.08Y-1.8
X5.23Y-3.51
X5.24Y-1.55
X5.3Y-1.87
X5.375Y-3.32
X5.39Y-2.31
X5.39Y-2.66
X5.405Y-3.32
X5.41Y-2.1
X5.415Y-3.85
X5.46Y-2.98
X5.48Y-1.86
X5.505Y-3.805
X5.51Y-2.54
X5.53Y-2.12
X5.54Y-2.67
X5.57Y-2.31
X5.57Y-3.58
X5.6Y-1.87
X5.6Y-1.99
X5.61Y-4.235
X5.66Y-2.25
X5.675Y-4.035
X5.69Y-1.775
X5.69Y-1.805
X5.69Y-3.44
X5.78Y-2.16
X5.79Y-1.61
X5.79Y-3.61
X5.835Y-3.995
X5.84Y-2.785
X5.905Y-2.18
X5.945Y-1.67
X5.975Y-1.67
X6.02Y-2.745
X6.03Y-4.
X6.05Y-2.035
X6.05Y-2.32
X6.12Y-2.99
X6.125Y-1.67
X6.125Y-3.815
X6.125Y-3.84
X6.125Y-3.915
X6.125Y-3.94
X6.14Y-3.24
X6.155Y-1.67
X6.2Y-2.18
X6.21Y-3.43
X6.22Y-3.6
X6.25Y-3.6
X6.28Y-3.805
X6.28Y-3.85
X6.28Y-3.91
X6.28Y-3.95
X6.325Y-3.605
X6.34Y-1.69
X6.35Y-3.605
X6.48Y-2.63
X6.53Y-2.68
X6.57Y-1.75
X6.57Y-1.94
X6.57Y-2.72
X6.68Y-2.04
X6.68Y-2.0925
X6.7Y-3.62
X6.79Y-3.92
X6.91Y-3.34
X6.92Y-3.8
X6.93Y-2.63
X6.93Y-3.11
X6.93Y-3.21
X6.96Y-2.17
X6.97Y-4.03
X7.025Y-3.545
X7.04Y-1.94
X7.05Y-2.51
X7.08Y-2.17
X7.14Y-2.42
X7.15Y-1.65
X7.2Y-1.83
T2
X4.88Y-1.9
X4.88Y-2.
X4.88Y-2.1
X4.88Y-2.32
X4.88Y-2.42
X4.88Y-2.52
X4.88Y-2.78
X4.88Y-2.88
X4.88Y-2.98
X4.88Y-3.2
X4.88Y-3.3
X4.88Y-3.4
X5.18Y-1.9
X5.18Y-2.
X5.18Y-2.1
X5.18Y-2.32
X5.18Y-2.42
X5.18Y-2.52
X5.18Y-2.78
X5.18Y-2.88
X5.18Y-2.98
X5.18Y-3.2
X5.18Y-3.3
X5.18Y-3.4
T3
X7.15Y-2.07
X7.15Y-2.17
X7.15Y-2.27
T4
X4.745Y-1.47
X4.845Y-1.47
X4.935Y-4.36
X4.945Y-1.47
X5.035Y-4.36
X5.045Y-1.47
X5.135Y-4.36
X5.145Y-1.47
X5.18Y-1.64
X5.235Y-4.36
X5.245Y-1.47
X5.28Y-1.64
X5.335Y-4.36
X5.345Y-1.47
X5.38Y-1.64
X5.435Y-4.36
X5.445Y-1.47
X5.545Y-1.47
X5.645Y-1.47
X6.67Y-1.77
X6.77Y-1.77
X6.87Y-1.77
T5
X6.3394Y-2.63
X6.93Y-2.63
T6
X6.68Y-1.97
X6.68Y-2.17
X6.85Y-3.4
X6.85Y-3.6
X6.88Y-1.97
X6.88Y-2.17
X7.15Y-3.4
X7.15Y-3.6
T7
X7.15Y-2.72
X7.15Y-2.94
X7.15Y-3.16
X7.15Y-3.84
X7.15Y-4.06
X7.15Y-4.28
T8
X4.32Y-1.48
X4.34Y-4.4
X6.76Y-1.495
X6.76Y-4.4
T0
M30
