G04 #@! TF.FileFunction,Soldermask,Bot*
%FSLAX46Y46*%
G04 Gerber Fmt 4.6, Leading zero omitted, Abs format (unit mm)*
G04 Created by KiCad (PCBNEW (after 2015-mar-04 BZR unknown)-product) date 26/07/2015 13:07:27*
%MOMM*%
G01*
G04 APERTURE LIST*
%ADD10C,0.100000*%
%ADD11C,2.032000*%
%ADD12O,2.032000X2.032000*%
%ADD13R,2.000000X1.600000*%
%ADD14R,1.727200X2.032000*%
%ADD15O,1.727200X2.032000*%
%ADD16O,4.500880X2.499360*%
%ADD17O,2.499360X1.501140*%
%ADD18R,1.700000X2.000000*%
%ADD19O,1.600000X1.600000*%
%ADD20R,1.600000X1.600000*%
%ADD21C,1.600000*%
%ADD22R,3.200000X3.600000*%
G04 APERTURE END LIST*
D10*
X106172000Y-34036000D02*
X106172000Y-115824000D01*
X185420000Y-34036000D02*
X106172000Y-34036000D01*
X185420000Y-115824000D02*
X185420000Y-34036000D01*
X106172000Y-115824000D02*
X185420000Y-115824000D01*
D11*
X174752000Y-55118000D03*
X174752000Y-50038000D03*
D12*
X169672000Y-55118000D03*
X169672000Y-50038000D03*
D11*
X181610000Y-91440000D03*
D12*
X173990000Y-91440000D03*
D11*
X181610000Y-86360000D03*
D12*
X173990000Y-86360000D03*
D13*
X154464000Y-82296000D03*
X158464000Y-82296000D03*
D14*
X143383000Y-37338000D03*
D15*
X140843000Y-37338000D03*
X138303000Y-37338000D03*
X135763000Y-37338000D03*
X133223000Y-37338000D03*
X130683000Y-37338000D03*
X128143000Y-37338000D03*
X125603000Y-37338000D03*
X123063000Y-37338000D03*
X120523000Y-37338000D03*
D14*
X174498000Y-44958000D03*
D15*
X171958000Y-44958000D03*
X169418000Y-44958000D03*
D14*
X131572000Y-41656000D03*
D15*
X134112000Y-41656000D03*
X136652000Y-41656000D03*
D14*
X125349000Y-110744000D03*
D15*
X127889000Y-110744000D03*
X130429000Y-110744000D03*
X132969000Y-110744000D03*
X135509000Y-110744000D03*
X138049000Y-110744000D03*
D16*
X181610000Y-74676000D03*
X181610000Y-69088000D03*
X181610000Y-80264000D03*
X181610000Y-103124000D03*
X181610000Y-97536000D03*
X181610000Y-108712000D03*
D17*
X181610000Y-55118000D03*
X181610000Y-52578000D03*
X181610000Y-57658000D03*
D18*
X161036000Y-88932000D03*
X161036000Y-92932000D03*
D19*
X123952000Y-48260000D03*
X123952000Y-50800000D03*
X123952000Y-53340000D03*
X131572000Y-53340000D03*
X131572000Y-50800000D03*
X131572000Y-48260000D03*
X123952000Y-58928000D03*
X123952000Y-61468000D03*
X123952000Y-64008000D03*
X131572000Y-64008000D03*
X131572000Y-61468000D03*
X131572000Y-58928000D03*
X123952000Y-70612000D03*
X123952000Y-73152000D03*
X123952000Y-75692000D03*
X131572000Y-75692000D03*
X131572000Y-73152000D03*
X131572000Y-70612000D03*
X131572000Y-86360000D03*
X131572000Y-83820000D03*
X131572000Y-81280000D03*
X123952000Y-81280000D03*
X123952000Y-83820000D03*
X123952000Y-86360000D03*
D20*
X176022000Y-66802000D03*
D21*
X161022000Y-66802000D03*
D22*
X180594000Y-38064000D03*
X180594000Y-46264000D03*
X146812000Y-58130000D03*
X146812000Y-66330000D03*
X115062000Y-42128000D03*
X115062000Y-50328000D03*
X161036000Y-40350000D03*
X161036000Y-48550000D03*
X167132000Y-82260000D03*
X167132000Y-90460000D03*
X156210000Y-70576000D03*
X156210000Y-78776000D03*
X152654000Y-86578000D03*
X152654000Y-94778000D03*
M02*
